<?xml version="1.0" encoding="utf-8"?>
<!-- Generator: Adobe Illustrator 23.0.5, SVG Export Plug-In . SVG Version: 6.00 Build 0)  -->
<svg version="1.1" id="圖層_1" xmlns="http://www.w3.org/2000/svg" xmlns:xlink="http://www.w3.org/1999/xlink" x="0px" y="0px"
	 viewBox="0 0 512 512" style="enable-background:new 0 0 512 512;" xml:space="preserve">
<style type="text/css">
	.st0{fill:#FFFFFF;}
</style>
<path class="st0" d="M260.5,52C150.5,52,61,141.5,61,251.5c0,35.7,9.6,70.8,27.7,101.4l1.1,1.9L64,448l93.2-25.8l1.9,1.1
	c30.6,18.1,65.7,27.7,101.4,27.7c110,0,199.5-89.5,199.5-199.5S370.5,52,260.5,52z M281.4,365.1h-41.9v-40.7h41.9V365.1z
	 M306.4,256.3l-24.9,21.9v26.4h-41.9v-44.5l38.7-34.1c5.4-4.8,8.5-11.3,8.5-18.4c0-13.8-11.7-25-26.2-25c-14.4,0-26.2,11.2-26.2,25
	v5.2h-41.9v-5.2c0-36.2,30.5-65.7,68.1-65.7s68.1,29.5,68.1,65.7C328.6,226.2,320.5,243.9,306.4,256.3z"/>
</svg>
