<?xml version="1.0" encoding="utf-8"?>
<!-- Generator: Adobe Illustrator 23.0.5, SVG Export Plug-In . SVG Version: 6.00 Build 0)  -->
<svg version="1.1" id="圖層_1" xmlns="http://www.w3.org/2000/svg" xmlns:xlink="http://www.w3.org/1999/xlink" x="0px" y="0px"
	 viewBox="0 0 500 500" style="enable-background:new 0 0 500 500;" xml:space="preserve">
<style type="text/css">
	.st0{fill:#4092D6;}
	.st1{fill:none;stroke:#000000;stroke-width:11;stroke-miterlimit:10;}
</style>
<g>
	<g>
		<path class="st0" d="M332.4,253.3c19.5-26.7,29.8-57.9,29.8-90.5V88.8c0-2.1-1.6-4-3.8-4.5L253.2,61.8c-0.3-0.1-0.7-0.1-1.1-0.1
			s-0.7,0-1.1,0.1L145.9,84.3c-2.2,0.5-3.8,2.4-3.8,4.5v74c0,32.5,10.3,63.8,29.8,90.5s46.7,46.7,78.6,57.8c1.1,0.4,2.3,0.4,3.3,0
			C285.7,299.9,312.9,280,332.4,253.3z M253.2,301.4L253.2,301.4l-1.1,0.4l-1.1-0.4c-28.8-10.6-53.4-29-71.1-53.4
			c-18.4-25.1-28.1-54.6-28.1-85.2V92.4l100.3-21.4l100.3,21.5v70.3c0,30.7-9.7,60.1-28.1,85.2C306.6,272.3,282,290.8,253.2,301.4z"
			/>
		<path class="st0" d="M252.1,312.5c-0.7,0-1.4-0.1-2.1-0.3c-32.1-11.2-59.6-31.3-79.1-58.2c-19.7-26.8-30-58.4-30-91.2V88.8
			c0-2.8,2-5.1,4.7-5.7l105.2-22.4c0.9-0.2,1.8-0.2,2.7,0l105.2,22.4c2.8,0.6,4.7,3,4.7,5.7v74c0,32.8-10.4,64.4-30,91.2l0,0
			c-19.7,26.8-47,47-79.1,58.2C253.5,312.5,252.8,312.5,252.1,312.5z M252.1,62.9c-0.2,0-0.6,0-0.8,0.1L146.1,85.5
			c-1.6,0.3-2.9,1.7-2.9,3.3v74c0,32.3,10.2,63.3,29.5,89.7s46.3,46.3,78,57.3c0.8,0.3,1.7,0.2,2.6,0c31.7-11,58.7-30.8,78-57.3
			c19.3-26.4,29.5-57.5,29.5-89.7v-74c0-1.5-1.2-2.9-2.9-3.3L252.9,63C252.7,63,252.3,62.9,252.1,62.9z M252.1,303.1l-1.5-0.6
			c-29-10.7-53.8-29.3-71.6-53.8c-18.5-25.3-28.3-55.1-28.3-86V91.5l101.5-21.7l101.5,21.7v71.3c0,30.9-9.8,60.6-28.3,86
			c-17.9,24.5-42.7,43.1-71.6,53.8l0,0L252.1,303.1z M252.8,300.2l0.4,1.1L252.8,300.2c28.6-10.5,52.9-28.9,70.5-52.9
			c18.2-24.9,27.8-54.1,27.8-84.5V93.4l-99-21.1l-99,21.1v69.3c0,30.4,9.6,59.6,27.8,84.5c17.5,24.1,41.9,42.3,70.5,52.9l0.7,0.2
			L252.8,300.2z"/>
	</g>
	<g>
		<g>
			<path class="st0" d="M241.4,196.5l-16.2-19.1c-1.1-1.3-2.7-2.1-4.4-2.3c-0.2,0-0.4,0-0.6,0c-1.5,0-3,0.6-4.2,1.5
				c-2.8,2.3-3.1,6.4-0.7,9.1l20.5,24.2c1.1,1.3,2.8,2.2,4.6,2.3c0.2,0,0.3,0,0.4,0c1.6,0,3.2-0.6,4.4-1.7l48.9-45.4
				c2.7-2.4,2.9-6.5,0.5-9.2c-2.4-2.7-6.5-2.9-9.2-0.5L241.4,196.5z"/>
			<path class="st0" d="M240.8,213.6c-0.2,0-0.3,0-0.5,0c-2-0.2-4.1-1.1-5.4-2.7l-20.5-24.2c-2.8-3.3-2.4-8.2,0.9-10.9
				c1.5-1.3,3.6-2,5.6-1.8c2,0.2,3.9,1.1,5.2,2.7l15.3,18.1l43-40c3.2-2.9,8.1-2.6,10.9,0.6s2.6,8.1-0.6,10.9l-48.9,45.4
				C244.6,212.9,242.7,213.6,240.8,213.6z M220.3,176.3c-1.2,0-2.4,0.4-3.4,1.2c-2.2,1.9-2.5,5.2-0.7,7.4l20.5,24.2
				c0.9,1.1,2.3,1.8,3.7,1.9c0.2,0,0.2,0,0.3,0c1.3,0,2.6-0.5,3.5-1.4l48.9-45.4c2.2-2,2.4-5.3,0.4-7.5c-2-2.1-5.3-2.4-7.5-0.4
				l-44.9,41.8l-17-20.1c-0.9-1.1-2.2-1.7-3.6-1.9C220.6,176.3,220.4,176.3,220.3,176.3z"/>
		</g>
	</g>
	<g>
		<path class="st0" d="M334.3,105.4c-0.1,0-0.1-0.1-0.2-0.1l-0.8-0.3c0,0-0.1,0-0.2-0.1l-0.2-0.1l-79.1-16.6c-0.6-0.1-1.2-0.1-1.8,0
			l-79.2,16.6c0,0-0.1,0-0.2,0c-0.1,0-0.2,0.1-0.3,0.1l-0.2,0.1c-0.1,0-0.2,0.1-0.2,0.1l-0.2,0.1c-0.1,0-0.2,0.1-0.2,0.1l-0.3,0.2
			l-0.5,0.4c-0.1,0.1-0.2,0.2-0.2,0.2c-0.1,0.1-0.2,0.2-0.2,0.2l-0.2,0.3c-0.1,0.1-0.1,0.1-0.1,0.2l-0.3,0.8
			c-0.1,0.2-0.1,0.5-0.1,0.7v0.2v52.6c0,1.5,0,3,0.1,4.6v0.2l0,0c0.1,1.9,0.2,3.8,0.3,5.6v0.4c0.1,1.3,0.2,2.7,0.4,4v0.2
			c0.2,1.4,0.3,2.8,0.6,4.2v0.1c2.7,17.5,9.1,34,18.8,49.1l0.2,0.2c0.8,1.2,1.6,2.4,2.4,3.5l0.2,0.4c0.9,1.3,1.7,2.4,2.4,3.4
			c9.9,13.3,22.2,24.6,36.5,33.8c6,3.8,12.3,7.2,18.8,10l0.7,0.3c1.1,0.5,2.3,0.5,3.3,0l0.7-0.3c6.5-2.9,12.9-6.3,18.8-10
			c14.4-9.1,26.6-20.5,36.5-33.8c0.7-1.1,1.6-2.1,2.4-3.4l0.3-0.4c0.7-1.1,1.5-2.3,2.4-3.5l0.2-0.2c9.7-15.1,16.1-31.7,18.8-49v-0.2
			c0.2-1.5,0.4-2.9,0.6-4.2V176c0.2-1.3,0.3-2.6,0.4-4v-0.4c0.2-1.8,0.2-3.8,0.3-5.6v-0.2c0.1-1.6,0.1-3.1,0.1-4.6v-52.9
			c0-0.2,0-0.3-0.1-0.6l-0.2-0.7c0-0.1-0.1-0.1-0.1-0.2l-0.1-0.2l-0.1-0.1l-0.1-0.2c0,0,0-0.1-0.1-0.1l-0.2-0.2
			c-0.1-0.1-0.2-0.2-0.2-0.2c-0.1-0.1-0.1-0.1-0.2-0.2L334.3,105.4l0.5-1l0,0l-0.7,1.1L334.3,105.4z M328.3,161.1
			c0,1.5,0,3.1-0.1,4.7v0.4c-0.1,1.5-0.2,2.9-0.2,4.3v0.2c-0.2,1.5-0.2,3.1-0.5,4.6c0,0.2-0.1,0.5-0.1,0.7l-0.1,0.4
			c-0.2,1.1-0.3,2.1-0.5,3.2c-0.1,0.5-0.2,1.1-0.2,1.5l-0.1,0.6c-0.2,0.7-0.2,1.5-0.4,2.1c-0.2,0.9-0.3,1.7-0.6,2.5
			c-0.1,0.6-0.2,1.1-0.3,1.6c-0.2,1-0.5,2-0.7,2.9l-0.3,1.1c-0.3,1.1-0.6,2.2-0.9,3.3l-0.2,0.5c-2,6.3-4.5,12.6-7.4,18.5l-0.4,0.8
			c-0.5,1-1,1.9-1.5,2.8c-0.2,0.4-0.5,0.9-0.7,1.3c-0.5,0.8-0.9,1.6-1.4,2.4c-0.3,0.6-0.7,1.1-1,1.7c-0.4,0.7-0.8,1.4-1.3,2
			c-0.5,0.7-1,1.5-1.5,2.2l-0.3,0.4c-0.2,0.4-0.5,0.7-0.7,1.1c-1,1.4-1.8,2.6-2.6,3.7c-0.8,1.1-1.6,2.2-2.6,3.3
			c-12.3,15.4-28.4,28.1-46.6,36.7l-2,1l-2-1c-18.2-8.6-34.3-21.3-46.6-36.7c-0.9-1.1-1.8-2.3-2.6-3.3c-0.9-1.1-1.7-2.4-2.7-3.8
			c-0.2-0.3-0.5-0.7-0.7-1.1l-0.3-0.5c-0.5-0.7-1-1.5-1.5-2.2c-0.4-0.7-0.8-1.4-1.2-2c-0.3-0.6-0.7-1.1-1.1-1.7
			c-0.5-0.8-0.9-1.6-1.4-2.4c-0.2-0.4-0.5-0.9-0.7-1.3c-0.5-0.9-1-1.9-1.5-2.8l-0.4-0.8c-3-6-5.5-12.2-7.4-18.5l-0.2-0.4
			c-0.3-1.1-0.7-2.2-1-3.3l-0.1-0.2c-0.1-0.3-0.2-0.6-0.2-0.9c-0.2-1-0.5-2-0.7-2.9c-0.2-0.6-0.2-1.1-0.3-1.6
			c-0.2-0.8-0.4-1.7-0.6-2.5c-0.2-0.7-0.2-1.5-0.4-2.2l-0.1-0.4c-0.1-0.7-0.2-1.1-0.3-1.7c-0.2-1.1-0.3-2.1-0.5-3.3l-0.1-0.4
			c0-0.2-0.1-0.5-0.1-0.7c-0.2-1.5-0.3-3.1-0.5-4.6v-0.2c-0.1-1.4-0.2-2.9-0.2-4.3v-0.3c-0.1-1.6-0.1-3.2-0.1-4.7v-49.8l75.4-15.8
			l75.4,15.8L328.3,161.1L328.3,161.1z"/>
	</g>
	<g>
		<path class="st0" d="M185.7,363l-29.2-45.1c-3.4-4.5-8.4-7.4-14.1-8.1c-1.7-0.2-3.4-0.2-5.1,0c-2.9-11.9,0.2-24.6,0.2-24.8
			l0.1-0.6c0.7-6.5-0.6-11.3-3.9-14.1c-1.4-1.2-3.1-2-5-2.3c0-2.8-0.2-4.3-0.2-4.6v-0.1c-0.7-5.9-2.9-10.2-6.9-12.9
			c-3.9-2.7-8.3-2.9-11.3-2.6c-3.5-7.4-11.1-12.5-19.8-12.5c-11.3,0-20.7,8.6-21.9,19.8l-4,68.8c-0.7,6.5,1.2,13.1,5.3,18.4l0.1,0.1
			l46.6,79.6v19.6c0,2.6,2.1,4.7,4.7,4.7s4.7-2.1,4.7-4.7v-21.3c0-1.1-0.3-2-1-2.9l-0.1-0.1l-47.6-80.8c-2.5-3.3-3.7-7.5-3.3-11.7
			l4.2-68.8c0.6-6.4,5.9-11.2,12.3-11.2c6.9,0,12.4,5.5,12.4,12.4l-0.7,49.9c0,5.8,2,11.5,5.5,16.1l27.8,43.1c1.6,2,4.6,2.4,6.7,0.9
			c2-1.6,2.4-4.6,0.9-6.7l-11.9-18.4c-3.8-4.9-3.3-16.6,1.5-20.5c2-1.6,4.5-2.4,7.1-2.4c0.5,0,1,0,1.5,0.1c3.1,0.4,5.8,2,7.7,4.4
			l29.2,45.1c6.2,8.1,9.5,18.2,9.5,28.3l1.8,44.6c0,2.6,2.1,4.7,4.7,4.7s4.7-2.1,4.7-4.7l-1.8-44.6
			C197.2,384.8,193.1,372.7,185.7,363z M115.4,317.4c-2.3-2.9-3.5-6.6-3.5-10.3l0.7-49.9c0-0.2,0-0.3,0-0.5c1.4,0,2.9,0.3,4.1,1.1
			c1.6,1.1,2.6,3.3,2.9,6.4c0.1,0.8,0.9,13.5-2.5,31c-0.1,0.7-2.8,15.3,3.3,27.2l-0.6,1L115.4,317.4z M126.8,314.2
			c-2.4-8.3-0.9-17.3-0.9-17.3c1.4-7.2,2.1-13.6,2.5-18.8c0.3,1,0.6,2.6,0.3,5.1c-0.6,2.4-3.5,16.2,0.1,29.7
			C128.1,313.2,127.4,313.7,126.8,314.2z"/>
	</g>
	<g>
		<path class="st0" d="M439.4,323.9l-4.2-70.2c-1.1-11.3-10.4-19.9-21.9-19.9c-9.4,0-17.5,6-20.6,14.4c-2.7-0.1-6,0.2-9.2,2.1
			c-4.1,2.4-6.6,6.6-7.6,12.4v0.1c0,0.2-0.4,2.6-0.6,6.7c-3.5,1.8-7.4,5.5-8.6,13.2v0.1c-0.1,0.5-1.4,11.2,0.3,26.9
			c-1.8-0.2-3.7-0.2-5.5,0c-5.6,0.7-10.6,3.6-14.1,8.1L318.2,362c-7.4,9.7-11.5,21.9-11.5,34.1l-1.5,45.4c0,2.6,2.1,4.7,4.7,4.7
			c2.6,0,4.7-2.1,4.7-4.7l1.5-45.4c0-10.2,3.4-20.2,9.5-28.3l29.4-44.2c1.9-2.4,4.6-4,7.7-4.4c3.1-0.4,6.1,0.5,8.6,2.4
			c4.8,3.8,3.8,14.4,0,19.3l-10.2,16.2c-1.6,2.1-1.2,5.1,0.9,6.7c2,1.6,5.1,1.2,6.7-0.9l27.6-39.6c3.5-4.6,5.5-10.3,5.5-16.1
			l-0.7-51.4c0-6.9,5.5-12.4,12.4-12.4c6.4,0,11.7,4.8,12.3,11.3l4.2,70.2c0.4,4.2-0.7,8.4-3.3,11.7l-52,80.8
			c-0.7,0.9-1.1,1.9-1.1,2.9v21.3c0,2.6,2.1,4.7,4.7,4.7c2.6,0,4.7-2.1,4.7-4.7v-19.6l0.4-0.7l50.6-79
			C438.1,337,440,330.4,439.4,323.9z M375.5,285.5c0.2,3.3,0.6,6.8,1.1,10.5c0.1,5.1,0,10.7-0.2,15.1
			C374.7,298.7,375.2,289.1,375.5,285.5z M388.7,317.4l-4.5,5.9l-0.8-1.4c2.4-5.2,2.3-20.1,2.1-26.3v-0.5c-2.4-17.5-0.7-30.2-0.7-31
			c0.5-3,1.6-5.1,3.3-6.1c1-0.6,2.2-0.8,3.3-0.9l0.7,50C392.2,310.8,390.9,314.4,388.7,317.4z"/>
	</g>
</g>
<path class="st1" d="M673.5,198.5"/>
</svg>
