<?xml version="1.0" encoding="utf-8"?>
<!-- Generator: Adobe Illustrator 23.0.5, SVG Export Plug-In . SVG Version: 6.00 Build 0)  -->
<svg version="1.1" id="圖層_1" xmlns="http://www.w3.org/2000/svg" xmlns:xlink="http://www.w3.org/1999/xlink" x="0px" y="0px"
	 viewBox="0 0 500 500" style="enable-background:new 0 0 500 500;" xml:space="preserve">
<style type="text/css">
	.st0{fill:#4092D6;}
</style>
<g>
	<g>
		<path class="st0" d="M444.6,133.6l8.9-24.2c2.5-6.6-0.9-14.1-7.5-16.7l-75.7-29.9c-1.5-0.6-2.9-0.9-4.5-0.9
			c-5.1,0-9.8,3.2-11.6,8.1l-12.4,34.1l-0.6,2.1l-1.3,3.4l99.4,38.7l4.7-12.6L444.6,133.6z M431.5,130.8L357.2,102l0.6-2.1l8.8-24
			l74.3,29.3L431.5,130.8z"/>
	</g>
	<g>
		<path class="st0" d="M350.3,388.5l83-226.4l-0.1-0.1l0.1-0.4l-97.7-37.9l-4.5,12.4l0.1,0.1l-78.5,213.7c-1,2.8-1.3,5.6-0.7,8.1
			l0.1,0.4l20.4,88.5l72.9-52.3C348,392.6,349.4,390.6,350.3,388.5z M279.4,427.6l-13.6-59.2l62.5,24.8L279.4,427.6z M338.3,382.9
			L265.4,354l78.2-213.1l73.1,28.4L338.3,382.9z"/>
	</g>
	<g>
		
			<rect x="209.3" y="248.4" transform="matrix(0.3438 -0.939 0.939 0.3438 -24.7908 472.9719)" class="st0" width="233.5" height="11.7"/>
	</g>
	<g>
		
			<rect x="239.8" y="263.7" transform="matrix(0.343 -0.9393 0.9393 0.343 -18.9163 512.0121)" class="st0" width="233.6" height="11.7"/>
	</g>
	<g>
		<path class="st0" d="M307.4,116.2c0-3.8-1.6-5.4-5.4-5.4H154.4V89.8c0-5.9-4.7-10.5-10.5-10.5H97.5c-5.9,0-10.5,4.8-10.5,10.5
			v46.3c0,5.9,4.7,10.5,10.5,10.5h15.5v153H97.5c-5.9,0-10.5,4.7-10.5,10.5v46.3c0,5.9,4.7,10.5,10.5,10.5h46.3
			c5.9,0,10.5-4.7,10.5-10.5v-12.9h87.9l5.1-12.4h-93v-20.9c0-5.9-4.7-10.5-10.5-10.5h-19.8v-153h19.8c5.9,0,10.5-4.8,10.5-10.5
			v-14.4h147.5C305.7,121.8,307.4,120,307.4,116.2z M144.1,310v47h-47v-47H144.1z M144.1,136.4h-47v-47h47V136.4z"/>
	</g>
	<g>
		<path class="st0" d="M265.4,164.5c-11,0-20.1,8.9-20.1,20.1c0,1.6,0.1,3.2,0.6,5l0.3,1l-39,22.4l-0.7-0.6
			c-3.4-2.3-7.3-3.5-11.4-3.5c-11,0-20.1,8.9-20.1,20.1S184,249,195.1,249c5,0,9.7-1.8,13.3-5.1l0.7-0.7l37.2,21.5l-0.3,1.2
			c-0.6,1.9-0.9,4-0.9,6.2c0,9.4,6.4,17.3,15.4,19.5l13.8-37.5c-2.8-1.5-5.9-2.2-8.9-2.2c-4.4,0-8.5,1.3-12,4l-0.7,0.6l-38.1-22
			l0.3-1c0.3-1.5,0.4-2.9,0.4-4.2c0-2.2-0.4-4.4-1.2-6.6l-0.4-1.2l38.1-22l0.7,0.6c3.7,3.1,8.2,4.7,12.9,4.7
			c11,0,20.1-8.9,20.1-20.1C285.4,173.5,276.4,164.5,265.4,164.5z"/>
	</g>
</g>
</svg>
