<?xml version="1.0" encoding="utf-8"?>
<!-- Generator: Adobe Illustrator 23.0.5, SVG Export Plug-In . SVG Version: 6.00 Build 0)  -->
<svg version="1.1" id="圖層_1" xmlns="http://www.w3.org/2000/svg" xmlns:xlink="http://www.w3.org/1999/xlink" x="0px" y="0px"
	 viewBox="0 0 500 500" style="enable-background:new 0 0 500 500;" xml:space="preserve">
<style type="text/css">
	.st0{fill:#4092D6;}
</style>
<g>
	<g>
		<g>
			<g>
				<path class="st0" d="M246,233.8l-15.6,6.5c-3.1-3.7-6.5-7.2-10.3-10.3l6.5-15.7c1.4-3.4,1.4-7-0.1-10.4c-1.4-3.4-4-6-7.4-7.3
					l-16.8-6.9c-6.7-2.7-15,0.7-17.8,7.5l-6.5,15.7c-4.8-0.4-9.7-0.4-14.5,0.1l-6.5-15.6c-2.9-6.9-10.9-10.2-17.8-7.3l-16.7,7
					c-6.9,2.9-10.2,10.9-7.3,17.8l6.5,15.6c-3.7,3.1-7.2,6.5-10.3,10.3l-15.7-6.5c-7-2.9-14.9,0.5-17.8,7.5L71,258.6
					c-2.9,7,0.5,14.9,7.5,17.8l15.7,6.5c-0.4,4.8-0.4,9.7,0.1,14.5l-15.6,6.5c-6.9,2.9-10.2,10.9-7.3,17.8l7,16.7
					c2.9,6.9,10.9,10.2,17.8,7.3l15.6-6.5c3.1,3.7,6.5,7.2,10.3,10.3l-6.5,15.7c-2.9,7,0.5,14.9,7.5,17.8l16.8,6.9
					c7,2.9,14.9-0.5,17.8-7.5l6.5-15.7c4.8,0.4,9.7,0.4,14.5-0.1l6.5,15.6c2.9,6.9,10.9,10.2,17.8,7.3l16.7-7
					c6.9-2.9,10.2-10.9,7.3-17.8l-6.5-15.6c3.7-3.1,7.2-6.5,10.3-10.3l15.7,6.5c6.7,2.7,15-0.7,17.8-7.5l6.9-16.8
					c1.4-3.4,1.4-7-0.1-10.4c-1.4-3.4-4-6-7.4-7.3l-15.7-6.5c0.4-4.8,0.4-9.7-0.1-14.5l15.6-6.5c6.9-2.9,10.2-10.9,7.3-17.8l-7-16.7
					C260.9,234.1,252.9,230.8,246,233.8z M262.4,261.3c0.9,2.3-0.1,5-2.4,6l-18.8,7.9c-1.9,0.8-3,2.8-2.7,4.8
					c0.9,6.3,0.9,12.7,0.1,19c-0.3,2.1,0.9,4,2.8,4.8l18.9,7.7c1.1,0.4,2,1.3,2.4,2.4c0.4,1.1,0.5,2.4,0,3.4l-6.9,16.8
					c-0.9,2.2-3.7,3.4-6,2.5l-18.9-7.7c-1.9-0.8-4.1-0.1-5.4,1.5c-3.8,5.1-8.3,9.6-13.4,13.5c-1.7,1.2-2.2,3.4-1.4,5.4l7.9,18.8
					c0.9,2.3-0.1,5-2.4,6l-16.7,7c-2.3,0.9-5-0.1-6-2.4l-7.9-18.8c-0.8-1.9-2.8-3-4.8-2.7c-6.3,0.9-12.7,0.9-19,0.1
					c-0.9-0.1-1.7,0-2.4,0.3c-1.1,0.4-2,1.3-2.4,2.4l-7.7,18.9c-0.9,2.3-3.6,3.4-6,2.5l-16.8-6.9c-2.3-0.9-3.4-3.6-2.5-6l7.7-18.9
					c0.8-1.9,0.1-4.1-1.5-5.4c-5.1-3.8-9.6-8.3-13.5-13.4c-1.2-1.7-3.4-2.2-5.4-1.4l-18.8,7.9c-2.3,0.9-5-0.1-6-2.4l-7-16.7
					c-0.9-2.3,0.1-5,2.4-6l18.8-7.9c1.9-0.8,3-2.8,2.7-4.8c-0.9-6.3-0.9-12.7-0.1-19c0.3-2.1-0.9-4-2.8-4.8l-18.9-7.7
					c-2.3-0.9-3.4-3.6-2.5-6l6.9-16.8c0.9-2.3,3.6-3.4,6-2.5l18.9,7.7c1.9,0.8,4.1,0.2,5.4-1.5c3.8-5.1,8.3-9.6,13.4-13.5
					c1.7-1.2,2.2-3.4,1.4-5.4l-7.9-18.8c-0.9-2.3,0.1-5,2.4-6l16.7-7c2.3-0.9,5,0.1,6,2.4l7.9,18.8c0.8,1.9,2.8,3,4.8,2.7
					c6.3-0.9,12.7-0.9,19-0.1c2.1,0.3,4-0.9,4.8-2.8l7.7-18.9c0.9-2.2,3.7-3.4,6-2.5l16.8,6.9c1.1,0.4,2,1.4,2.4,2.4
					c0.5,1.1,0.5,2.4,0,3.4l-7.7,18.9c-0.8,1.9-0.1,4.1,1.5,5.4c5.1,3.8,9.6,8.3,13.5,13.4c1.2,1.7,3.4,2.2,5.4,1.4l18.8-7.9
					c2.3-0.9,5,0.1,6,2.4L262.4,261.3z"/>
				<path class="st0" d="M145,391.9c-1.9,0-3.8-0.4-5.6-1.1l-16.8-6.9c-3.6-1.5-6.5-4.3-8-7.9c-1.5-3.6-1.5-7.6,0-11.3l6.2-15
					c-3.3-2.8-6.5-5.9-9.4-9.3l-14.9,6.2c-7.5,3.1-16.1-0.4-19.2-7.9l-7-16.7c-3.1-7.5,0.4-16.1,7.9-19.2l14.9-6.2
					c-0.4-4.3-0.4-8.7-0.1-13.1l-15-6.2c-7.5-3.1-11.1-11.7-8-19.2l6.9-16.8c3.1-7.5,11.7-11.1,19.2-8l15,6.2
					c2.8-3.3,5.9-6.5,9.3-9.4l-6.2-14.9c-1.5-3.6-1.5-7.6,0-11.2c1.5-3.6,4.3-6.5,7.9-8l16.7-7c3.6-1.5,7.6-1.5,11.2,0
					c3.6,1.5,6.5,4.3,8,7.9l6.2,14.9c4.3-0.4,8.7-0.4,13.1-0.1l6.2-15c3-7.3,11.8-11,19.2-8.1l16.8,6.9c3.6,1.5,6.4,4.3,8,7.9
					c1.5,3.6,1.6,7.6,0.1,11.2l-6.2,15c3.3,2.8,6.5,5.9,9.4,9.3l14.9-6.2c3.6-1.5,7.6-1.6,11.2-0.1c3.7,1.5,6.5,4.4,8,8.1l7,16.7
					c1.5,3.6,1.5,7.6,0,11.2c-1.5,3.6-4.3,6.5-7.9,8L249,283c0.4,4.3,0.4,8.7,0.1,13.1l15,6.2c3.6,1.5,6.4,4.3,8,7.9
					c1.5,3.6,1.6,7.6,0.1,11.2l-6.9,16.8c-3,7.3-11.8,11-19.2,8.1l-15-6.2c-2.8,3.3-5.9,6.5-9.3,9.4l6.2,14.9
					c1.5,3.6,1.5,7.6,0,11.2c-1.5,3.6-4.3,6.5-7.9,8l-16.7,7c-7.5,3.1-16.1-0.4-19.2-7.9l-6.2-14.9c-4.3,0.4-8.7,0.4-13.1,0.1
					l-6.2,15c-1.5,3.6-4.3,6.5-7.9,8C148.9,391.6,147,391.9,145,391.9z M112.1,337.9l0.5,0.6c3.1,3.7,6.5,7.1,10.2,10.1l0.6,0.5
					l-6.8,16.5c-1.3,3.1-1.3,6.5,0,9.6c1.3,3.1,3.7,5.5,6.8,6.8l16.8,6.9c6.4,2.6,13.7-0.5,16.4-6.9l6.8-16.4l0.8,0.1
					c4.9,0.4,9.7,0.4,14.3-0.1l0.8-0.1l6.8,16.4c2.7,6.4,10,9.4,16.4,6.7l16.7-7c3.1-1.3,5.5-3.7,6.7-6.8s1.3-6.5,0-9.6l-6.8-16.4
					l0.6-0.5c3.7-3.1,7.1-6.5,10.1-10.2l0.5-0.6l16.5,6.8c6.2,2.5,13.8-0.7,16.4-6.9l6.9-16.8c1.3-3.1,1.2-6.5-0.1-9.6
					c-1.3-3.2-3.7-5.5-6.8-6.7l-16.5-6.8l0.1-0.8c0.4-4.9,0.4-9.7-0.1-14.3l-0.1-0.8l16.4-6.8c3.1-1.3,5.5-3.7,6.7-6.8
					c1.3-3.1,1.3-6.5,0-9.6l-7-16.7c-1.3-3.2-3.7-5.6-6.8-6.9c-3.1-1.3-6.5-1.3-9.5,0l-16.4,6.8l-0.5-0.6
					c-3.1-3.7-6.5-7.1-10.2-10.1l-0.6-0.5l6.8-16.5c1.3-3.1,1.2-6.5-0.1-9.6c-1.3-3.2-3.7-5.5-6.8-6.7l-16.8-6.9
					c-6.2-2.5-13.8,0.7-16.4,6.9l-6.8,16.4l-0.8-0.1c-4.9-0.4-9.7-0.4-14.3,0.1l-0.8,0.1l-6.8-16.4c-1.3-3.1-3.7-5.5-6.8-6.7
					c-3.1-1.3-6.5-1.3-9.6,0l-16.7,7c-3.1,1.3-5.5,3.7-6.7,6.8c-1.3,3.1-1.3,6.5,0,9.6l6.8,16.4l-0.6,0.5
					c-3.7,3.1-7.1,6.5-10.1,10.2l-0.5,0.6l-16.5-6.8c-6.4-2.6-13.7,0.5-16.4,6.9L72,259c-2.6,6.4,0.5,13.7,6.9,16.4l16.4,6.8
					l-0.1,0.8c-0.4,4.9-0.4,9.7,0.1,14.3l0.1,0.8L79,304.9c-6.4,2.7-9.4,10-6.7,16.4l7,16.7c2.7,6.4,10,9.4,16.4,6.7L112.1,337.9z
					 M144.9,382.7c-0.7,0-1.4-0.1-2.1-0.4l-16.8-6.9c-2.8-1.2-4.2-4.5-3.1-7.3l7.8-18.9c0.6-1.5,0.1-3.1-1.2-4.1
					c-5.1-3.8-9.7-8.4-13.7-13.6c-0.9-1.3-2.6-1.7-4.1-1.1l-18.8,7.9c-2.8,1.2-6.1-0.2-7.4-3l-7-16.7c-1.2-2.8,0.2-6.1,3-7.4
					l18.8-7.9c1.5-0.6,2.3-2.1,2.1-3.7c-0.9-6.3-1-12.8-0.1-19.3c0.2-1.6-0.6-3.1-2.1-3.7l-18.9-7.8c-2.8-1.2-4.2-4.5-3.1-7.3
					l6.9-16.8c1.2-2.8,4.5-4.2,7.3-3.1l18.9,7.8c1.5,0.6,3.1,0.2,4.1-1.2c3.8-5.1,8.4-9.7,13.6-13.7c1.3-0.9,1.7-2.6,1.1-4.1
					l-7.9-18.8c-1.2-2.8,0.2-6.1,3-7.4l16.7-7c2.8-1.2,6.1,0.2,7.4,3l7.9,18.8c0.6,1.5,2.1,2.3,3.7,2.1c6.3-0.9,12.8-1,19.3-0.1
					c1.6,0.2,3.1-0.6,3.7-2.1l7.8-18.9c1.2-2.7,4.5-4.2,7.3-3.1l16.8,6.9c1.3,0.5,2.5,1.6,3,3c0.6,1.4,0.6,2.9,0,4.3l-7.7,18.8
					c-0.6,1.5-0.1,3.1,1.2,4.1c5.1,3.8,9.7,8.4,13.7,13.6c0.9,1.3,2.6,1.7,4.1,1.1l18.8-7.9c2.8-1.2,6.1,0.2,7.4,3l7.2,17
					c1.1,2.8-0.2,6.1-3,7.3l-18.8,7.9c-1.5,0.6-2.3,2.1-2.1,3.7c0.9,6.3,1,12.8,0.1,19.3c-0.2,1.6,0.6,3.1,2.1,3.7l18.9,7.7
					c1.4,0.5,2.5,1.6,3,3.1c0.6,1.5,0.6,3,0,4.3l-6.9,16.7c-1.2,2.7-4.5,4.2-7.3,3.1l-18.9-7.8c-1.5-0.6-3.1-0.1-4.1,1.2
					c-3.8,5.1-8.4,9.7-13.6,13.7c-1.3,0.9-1.7,2.6-1.1,4.1l7.9,18.8c1.2,2.8-0.2,6.1-3,7.4l-16.7,7c-2.8,1.2-6.1-0.2-7.4-3
					l-7.9-18.8c-0.6-1.5-2.1-2.3-3.7-2.1c-6.3,0.9-12.8,1-19.3,0.1c-0.6-0.1-1.2,0-1.8,0.2c-0.9,0.3-1.5,1-1.8,1.8l-7.8,18.9
					C149.3,381.4,147.2,382.7,144.9,382.7z M113.1,327.9c1.7,0,3.4,0.8,4.5,2.2c3.8,5,8.3,9.5,13.3,13.2c2.1,1.6,2.8,4.3,1.9,6.7
					l-7.8,18.9c-0.7,1.8,0.2,3.8,1.9,4.5l16.8,6.9c1.8,0.7,3.8-0.2,4.5-1.9l7.8-18.9c0.5-1.3,1.6-2.5,3-3c1-0.4,2-0.5,2.9-0.3
					c6.3,0.9,12.6,0.8,18.7-0.1c2.6-0.4,5,1,6,3.4l7.9,18.8c0.8,1.7,2.8,2.6,4.6,1.9l16.7-7c1.7-0.8,2.6-2.8,1.9-4.6l-7.9-18.8
					c-1-2.4-0.3-5.2,1.8-6.7c5-3.8,9.5-8.3,13.2-13.3c1.6-2.1,4.3-2.8,6.6-1.9l18.9,7.8c1.7,0.7,3.8-0.2,4.6-1.9l6.9-16.8
					c0.5-1,0.2-2,0-2.7c-0.3-0.9-0.9-1.5-1.8-1.8l-18.9-7.8c-2.4-1-3.8-3.4-3.5-6c0.9-6.3,0.8-12.6-0.1-18.7c-0.4-2.6,1-5,3.4-6
					l18.8-7.9c1.7-0.8,2.6-2.8,1.9-4.6l-7.2-16.9c-0.8-1.7-2.8-2.6-4.6-1.9l-18.8,7.9c-2.4,1-5.2,0.2-6.7-1.8
					c-3.8-5-8.3-9.5-13.3-13.2c-2.1-1.6-2.8-4.3-1.9-6.7l7.7-18.9c0.4-0.8,0.4-1.7,0-2.6c-0.4-0.9-1-1.6-1.8-1.9l-16.8-6.9
					c-1.7-0.7-3.8,0.2-4.6,1.9l-7.7,18.9c-1,2.4-3.4,3.8-6,3.5c-6.3-0.9-12.6-0.8-18.7,0.1c-2.6,0.4-5-1-6-3.4l-7.9-18.8
					c-0.8-1.7-2.8-2.6-4.6-1.9l-16.7,7c-1.7,0.8-2.6,2.8-1.9,4.6l7.9,18.8c1,2.4,0.2,5.2-1.8,6.7c-5,3.8-9.5,8.3-13.2,13.3
					c-1.6,2.1-4.2,2.8-6.7,1.9l-18.9-7.8c-1.8-0.7-3.8,0.2-4.5,1.9l-6.9,16.8c-0.7,1.8,0.2,3.8,1.9,4.6l18.9,7.8
					c2.4,1,3.8,3.4,3.5,6c-0.9,6.3-0.8,12.6,0.1,18.7c0.4,2.6-1,5-3.4,6l-18.8,7.9c-1.7,0.8-2.6,2.8-1.9,4.6l7,16.7
					c0.8,1.7,2.8,2.6,4.6,1.9l18.8-7.9C111.6,328.1,112.4,327.9,113.1,327.9z"/>
			</g>
		</g>
	</g>
	<g>
		<g>
			<g>
				<path class="st0" d="M155.3,252c-20.7,8.7-30.6,32.6-21.9,53.5c8.7,20.8,32.6,30.6,53.5,21.9c20.7-8.7,30.6-32.6,21.9-53.5
					C200.1,253.1,176,243.3,155.3,252z M183.3,319c-16.1,6.7-34.8-0.9-41.5-17s0.9-34.8,17-41.5c16.1-6.7,34.8,0.9,41.5,17
					C207.1,293.6,199.4,312.2,183.3,319z"/>
				<path class="st0" d="M171.1,331.6c-5.4,0-10.8-1-15.9-3.1c-10.4-4.2-18.5-12.3-22.8-22.6c-8.9-21.3,1.2-45.9,22.5-54.9
					c10.3-4.3,21.7-4.4,32.1-0.1c10.4,4.3,18.4,12.3,22.7,22.6c8.9,21.3-1.2,45.9-22.5,54.9C182.1,330.5,176.6,331.6,171.1,331.6z
					 M155.7,253c-20.2,8.5-29.8,31.8-21.3,52c4.1,9.8,11.8,17.4,21.6,21.4c9.8,4,20.6,4,30.5-0.1c20.2-8.5,29.8-31.8,21.3-52
					c-4.1-9.8-11.7-17.4-21.6-21.4C176.3,248.9,165.5,248.9,155.7,253L155.7,253z M171,322.6c-4.2,0-8.4-0.8-12.5-2.5
					c-8.1-3.3-14.5-9.6-17.8-17.7c-3.4-8.1-3.4-17-0.1-25.1c3.3-8.1,9.6-14.5,17.7-17.8c16.7-7,36,0.9,43,17.6
					c7,16.6-0.9,35.9-17.6,43l0,0C179.6,321.7,175.3,322.6,171,322.6z M171,259.1c-3.9,0-8,0.8-11.8,2.4
					c-15.6,6.5-23,24.5-16.4,40.1c3.1,7.5,9.1,13.4,16.7,16.5c7.6,3.1,15.9,3.1,23.5-0.1c7.6-3.2,13.4-9.1,16.5-16.7
					c3.1-7.6,3.1-15.9-0.1-23.4C194.4,266.2,183,259.1,171,259.1z"/>
			</g>
		</g>
	</g>
</g>
<g>
	<g>
		<g>
			<g>
				<path class="st0" d="M105.6,204.3l-6.9-6.4c1.1-2.4,2.2-5,2.8-7.5l9.4-0.4c2-0.1,3.9-0.9,5.2-2.4c1.4-1.5,2.1-3.4,2-5.4l-0.4-10
					c-0.1-4-3.8-7.4-7.8-7.2l-9.4,0.4c-0.9-2.5-2-5-3.3-7.3l6.4-6.9c2.9-3,2.7-7.8-0.4-10.7l-7.3-6.9c-3-2.9-7.8-2.7-10.7,0.4
					l-6.4,6.9c-2.4-1.1-5-2.2-7.5-2.8l-0.4-9.4c-0.1-4.2-3.7-7.4-7.8-7.2l-10,0.4c-4.2,0.1-7.4,3.7-7.2,7.8l0.3,9.4
					c-2.5,0.9-5,2-7.3,3.3l-6.9-6.4c-3-2.9-7.8-2.7-10.7,0.4l-6.9,7.3c-2.9,3-2.7,7.8,0.4,10.6l6.9,6.4c-1.1,2.4-2.2,5-2.8,7.5
					l-9.4,0.4c-4.2,0.1-7.4,3.7-7.2,7.8l0.4,10c0.1,4.2,3.7,7.4,7.8,7.2l9.4-0.3c0.9,2.5,2,5,3.3,7.3l-6.4,6.9
					c-2.9,3-2.7,7.8,0.4,10.7l7.3,6.9c3,2.9,7.8,2.7,10.7-0.4l6.4-6.9c2.4,1.1,5,2.2,7.5,2.8l0.3,9.4c0.1,4,3.8,7.4,7.8,7.2l10-0.4
					c2-0.1,3.9-0.9,5.2-2.4c1.4-1.5,2.1-3.4,2-5.4l-0.3-9.4c2.5-0.9,5-2,7.3-3.3l6.9,6.4c3,2.9,7.8,2.7,10.7-0.4l6.9-7.3
					C108.8,211.9,108.7,207.1,105.6,204.3z M95.5,218.9c-0.9,1-2.5,1.1-3.6,0.1l-8.3-7.7c-0.9-0.8-2.1-0.9-3.1-0.3
					c-3,1.9-6.2,3.4-9.6,4.4c-1.1,0.4-1.9,1.4-1.8,2.5l0.4,11.3c0,0.6-0.2,1.3-0.6,1.8s-1.1,0.8-1.7,0.8l-10,0.4
					c-1.4,0.1-2.6-1.1-2.6-2.4l-0.4-11.3c-0.1-1.1-0.9-2.2-1.9-2.4c-3.4-0.8-6.7-2-9.8-3.7c-1-0.6-2.2-0.4-3,0.5l-7.8,8.3
					c-0.9,1-2.5,1.1-3.6,0.1l-7.3-6.9c-1-0.9-1.1-2.5-0.1-3.6l7.7-8.3c0.8-0.9,0.9-2.1,0.3-3.1c-1.9-3-3.4-6.2-4.4-9.6
					c-0.1-0.4-0.4-0.9-0.7-1.1c-0.5-0.4-1.1-0.7-1.8-0.6l-11.3,0.4c-1.4,0.1-2.6-1.1-2.6-2.4l-0.4-10c-0.1-1.4,1.1-2.6,2.4-2.6
					l11.3-0.4c1.1-0.1,2.2-0.9,2.4-1.9c0.8-3.4,2-6.7,3.7-9.8c0.6-1,0.4-2.2-0.5-3l-8.3-7.7c-1-0.9-1.1-2.5-0.1-3.6l6.9-7.3
					c0.9-1,2.5-1.1,3.6-0.1l8.3,7.7c0.9,0.8,2.1,0.9,3.1,0.3c3-1.9,6.2-3.4,9.6-4.4c1.1-0.4,1.9-1.4,1.8-2.5l-0.4-11.3
					c-0.1-1.4,1.1-2.6,2.4-2.6l10-0.4c1.4-0.1,2.6,1.1,2.6,2.4l0.4,11.3c0.1,1.1,0.9,2.2,1.9,2.4c3.4,0.8,6.7,2,9.8,3.7
					c1,0.6,2.2,0.4,3-0.5l7.7-8.3c0.9-1,2.5-1.1,3.6-0.1l7.3,6.9c1,0.9,1.1,2.5,0.1,3.6l-7.7,8.3c-0.8,0.9-0.9,2.1-0.3,3.1
					c1.9,3,3.4,6.2,4.4,9.6c0.4,1.1,1.4,1.9,2.5,1.8l11.3-0.4c1.4-0.1,2.6,1.1,2.6,2.4l0.4,10c0,0.6-0.2,1.3-0.6,1.8
					c-0.4,0.5-1.1,0.8-1.7,0.8l-11.3,0.4c-1.1,0.1-2.2,0.9-2.4,1.9c-0.8,3.4-2,6.7-3.7,9.8c-0.6,1-0.4,2.2,0.5,3l8.3,7.7
					c1,0.9,1.1,2.5,0.1,3.6L95.5,218.9z"/>
				<path class="st0" d="M56.8,238.3c-2.1,0-4.2-0.8-5.9-2.4c-1.7-1.6-2.7-3.7-2.8-5.9l-0.3-8.6c-1.9-0.5-3.9-1.3-6.2-2.3l-5.9,6.3
					c-3.3,3.5-8.8,3.7-12.2,0.4l-7.3-6.9c-3.5-3.3-3.7-8.8-0.4-12.2l5.9-6.3c-1.1-2.1-2-4.1-2.7-6.1l-8.6,0.3
					c-2.3,0.1-4.5-0.7-6.2-2.3c-1.7-1.6-2.7-3.7-2.7-6l-0.4-10c-0.1-2.3,0.7-4.5,2.3-6.2c1.6-1.7,3.7-2.7,6-2.7L18,167
					c0.5-1.9,1.3-4,2.3-6.2l-6.3-5.9c-1.7-1.6-2.7-3.7-2.7-6c-0.1-2.3,0.8-4.5,2.3-6.1l6.9-7.3c1.6-1.7,3.7-2.6,6-2.7
					c2.3-0.1,4.5,0.7,6.2,2.3l6.3,5.9c2.1-1.1,4.1-2,6.1-2.7l-0.3-8.6c-0.1-2.3,0.7-4.5,2.3-6.2c1.6-1.7,3.7-2.7,6-2.7l10-0.4
					c2.3-0.1,4.5,0.7,6.2,2.3c1.7,1.6,2.7,3.7,2.7,6l0.3,8.6c1.9,0.5,4,1.3,6.2,2.3l5.9-6.3c1.6-1.7,3.7-2.6,6-2.7
					c2.3-0.1,4.5,0.7,6.2,2.3l7.3,6.9c3.5,3.3,3.7,8.8,0.4,12.2l-5.9,6.3c1.1,2.1,2,4.1,2.7,6l8.6-0.3c4.6-0.2,8.8,3.7,8.9,8.3
					l0.4,10c0.1,2.3-0.7,4.4-2.3,6.1c-1.6,1.7-3.7,2.6-6,2.7l-8.6,0.3c-0.5,1.9-1.3,4-2.3,6.2l6.3,5.9c1.7,1.5,2.6,3.6,2.7,5.8
					c0.1,2.4-0.7,4.7-2.4,6.5l-6.9,7.3c-1.6,1.7-3.7,2.6-6,2.7c-2.3,0.1-4.5-0.7-6.2-2.3l-6.3-5.9c-2.1,1.1-4.1,2-6.1,2.7l0.3,8.6
					c0.1,2.3-0.7,4.4-2.3,6.1c-1.6,1.7-3.7,2.6-6,2.7l-10,0.4C57,238.3,56.9,238.3,56.8,238.3z M41.2,216.5l0.7,0.3
					c2.8,1.3,5.1,2.2,7.3,2.7l0.8,0.2l0.3,10.2c0.1,1.6,0.8,3.2,2.1,4.4c1.3,1.2,3,1.8,4.6,1.8l10-0.4c1.7-0.1,3.3-0.8,4.5-2
					c1.2-1.3,1.8-2.9,1.7-4.6L73,219l0.8-0.3c2.2-0.8,4.6-1.8,7.2-3.2l0.7-0.4L89,222c1.3,1.2,2.9,1.8,4.6,1.7
					c1.7-0.1,3.4-0.8,4.6-2.1l6.9-7.3c1.3-1.4,1.9-3.1,1.8-4.9c-0.1-1.7-0.8-3.2-2-4.4l0,0l-7.5-6.9l0.3-0.7
					c1.3-2.8,2.2-5.1,2.7-7.3l0.2-0.8l10.2-0.4c1.7-0.1,3.3-0.8,4.5-2c1.2-1.3,1.8-2.9,1.7-4.6l-0.4-10c-0.1-3.4-3.2-6.3-6.7-6.2
					l-10.2,0.4l-0.3-0.8c-0.8-2.2-1.8-4.6-3.2-7.2l-0.4-0.7l6.9-7.5c2.5-2.6,2.3-6.7-0.3-9.2l-7.3-6.9c-1.2-1.2-2.9-1.8-4.6-1.7
					c-1.7,0.1-3.4,0.8-4.6,2.1l-6.9,7.5l-0.7-0.3c-2.8-1.3-5.1-2.2-7.3-2.7l-0.8-0.2l-0.4-10.2c-0.1-1.7-0.8-3.3-2.1-4.5
					c-1.3-1.2-2.9-1.8-4.6-1.7l-10,0.4c-1.7,0.1-3.3,0.8-4.5,2.1c-1.2,1.3-1.8,2.9-1.7,4.6l0.3,10.2l-0.8,0.3
					c-2.2,0.8-4.6,1.8-7.2,3.2l-0.7,0.4l-7.5-6.9c-1.3-1.2-2.9-1.8-4.6-1.7c-1.7,0.1-3.4,0.8-4.6,2.1l-6.9,7.3
					c-1.2,1.2-1.8,2.9-1.7,4.6c0.1,1.7,0.8,3.3,2,4.5l7.5,6.9l-0.3,0.7c-1.3,2.8-2.2,5.1-2.7,7.3l-0.2,0.8l-10.2,0.4
					c-1.7,0.1-3.3,0.8-4.5,2.1c-1.2,1.3-1.8,2.9-1.7,4.6l0.4,10c0.1,1.7,0.8,3.3,2.1,4.5c1.3,1.2,2.9,1.8,4.6,1.7l10.2-0.3l0.3,0.8
					c0.8,2.2,1.8,4.6,3.2,7.2l0.4,0.7l-6.9,7.5c-2.5,2.6-2.3,6.7,0.3,9.2l7.3,6.9c2.6,2.4,6.7,2.3,9.2-0.3L41.2,216.5z M56.9,233.1
					c-0.9,0-1.8-0.4-2.4-1c-0.7-0.7-1.1-1.6-1.1-2.5L53,218.4c0-0.7-0.5-1.2-1.1-1.3c-3.6-0.8-7-2.1-10.1-3.8
					c-0.6-0.3-1.3-0.2-1.7,0.3l-7.8,8.3c-1.3,1.4-3.6,1.5-5.1,0.2l-7.4-6.9c-1.4-1.3-1.5-3.6-0.2-5.1l7.8-8.3
					c0.4-0.5,0.5-1.2,0.1-1.8c-1.9-2.9-3.4-6.3-4.5-9.8c-0.1-0.3-0.2-0.5-0.4-0.6c-0.4-0.3-0.7-0.4-1-0.4l-0.1,0l-11.3,0.4
					c-0.9,0.1-1.9-0.3-2.6-1c-0.7-0.7-1.1-1.6-1.1-2.5l-0.4-10c0-0.9,0.3-1.9,1-2.6c0.7-0.7,1.6-1.1,2.5-1.1l11.2-0.4
					c0.7,0,1.2-0.5,1.3-1.1c0.8-3.6,2.1-7,3.8-10.1c0.3-0.6,0.2-1.3-0.3-1.7l-8.3-7.8c-1.4-1.3-1.5-3.6-0.2-5.1l6.9-7.4
					c1.3-1.4,3.6-1.5,5.1-0.2l8.3,7.8c0.5,0.4,1.2,0.5,1.8,0.1c2.9-1.9,6.3-3.4,9.8-4.5c0.6-0.2,1.1-0.8,1-1.4L50,129.3
					c0-0.9,0.3-1.9,1-2.6c0.7-0.7,1.6-1.1,2.5-1.1l10-0.4c0.9-0.1,1.9,0.3,2.6,1c0.7,0.7,1.1,1.6,1.1,2.5l0.4,11.2
					c0,0.7,0.5,1.2,1.1,1.3c3.6,0.8,7,2.1,10.1,3.8c0.6,0.3,1.3,0.2,1.7-0.3l7.8-8.3c1.3-1.4,3.6-1.5,5.1-0.2l7.4,6.9
					c1.4,1.3,1.5,3.6,0.2,5.1l-7.8,8.3c-0.4,0.5-0.5,1.2-0.1,1.8c1.9,2.9,3.4,6.3,4.5,9.8c0.2,0.6,0.8,1.1,1.4,1l11.3-0.4
					c0.9-0.1,1.9,0.3,2.6,1c0.7,0.7,1.1,1.6,1.1,2.5l0.4,10c0,1-0.3,1.9-0.9,2.5c-0.6,0.7-1.6,1.2-2.5,1.2l-11.2,0.4
					c-0.7,0-1.2,0.5-1.3,1.1c-0.8,3.6-2.1,7-3.8,10.1c-0.3,0.6-0.2,1.3,0.3,1.7l8.3,7.8c1.4,1.3,1.5,3.6,0.2,5.1l-7,7.4
					c-1.3,1.4-3.6,1.5-5.1,0.2l-8.3-7.8c-0.5-0.4-1.2-0.5-1.8-0.1c-3.2,2-6.5,3.5-9.8,4.5c-0.6,0.2-1.1,0.8-1,1.4l0.4,11.3
					c0,1-0.3,1.8-0.9,2.5c-0.6,0.7-1.6,1.2-2.5,1.2l-10,0.4C57,233.1,57,233.1,56.9,233.1z M41.2,210.9c0.6,0,1.2,0.1,1.7,0.5
					c2.9,1.6,6.2,2.8,9.5,3.5c1.5,0.3,2.7,1.7,2.8,3.3l0.4,11.3c0,0.4,0.2,0.7,0.4,1c0.3,0.3,0.7,0.4,1,0.4l10.1-0.4
					c0.4,0,0.7-0.2,0.9-0.4c0.2-0.3,0.4-0.7,0.4-1.1L68,217.9c-0.1-1.6,0.9-3,2.5-3.6c3.2-1,6.3-2.4,9.4-4.3
					c1.5-0.8,3.2-0.7,4.4,0.4l8.3,7.8c0.6,0.5,1.5,0.5,2.1-0.1l0,0l7-7.3c0.5-0.6,0.5-1.5-0.1-2.1l-8.3-7.8
					c-1.2-1.1-1.5-2.9-0.7-4.3c1.6-2.9,2.8-6.2,3.5-9.5c0.3-1.5,1.7-2.7,3.3-2.8l11.3-0.4c0.4,0,0.7-0.2,0.9-0.4
					c0.2-0.3,0.4-0.7,0.4-1.1l-0.4-10c0-0.4-0.2-0.7-0.4-1c-0.3-0.3-0.6-0.4-1-0.4L99,171.4c-1.6,0.1-3-0.9-3.6-2.5
					c-1-3.4-2.4-6.5-4.3-9.4c-0.9-1.5-0.7-3.2,0.4-4.4l7.8-8.3c0.5-0.6,0.5-1.5-0.1-2.1l-7.3-6.9c-0.6-0.5-1.5-0.5-2.1,0.1l-7.8,8.3
					c-1.1,1.2-2.9,1.5-4.3,0.7c-2.9-1.6-6.2-2.8-9.5-3.5c-1.5-0.3-2.7-1.7-2.8-3.3l-0.4-11.3c0-0.4-0.2-0.7-0.4-1
					c-0.3-0.3-0.7-0.4-1-0.4l-10.1,0.4c-0.4,0-0.7,0.2-1,0.4c-0.3,0.3-0.4,0.7-0.4,1l0.4,11.3c0.1,1.6-0.9,3-2.5,3.6
					c-3.4,1-6.5,2.4-9.4,4.3c-1.5,0.9-3.2,0.7-4.4-0.4l-8.3-7.8c-0.6-0.5-1.5-0.5-2.1,0.1l-6.9,7.3c-0.5,0.6-0.5,1.5,0.1,2.1
					l8.3,7.8c1.2,1.1,1.5,2.9,0.7,4.3c-1.6,2.9-2.8,6.2-3.5,9.5c-0.3,1.5-1.7,2.7-3.3,2.8l-11.3,0.4c-0.4,0-0.7,0.2-1,0.4
					c-0.3,0.3-0.4,0.7-0.4,1l0.4,10.1c0,0.4,0.2,0.7,0.4,1c0.3,0.3,0.7,0.4,1,0.4l11.3-0.4c0.9-0.1,1.8,0.2,2.6,0.9
					c0.4,0.4,0.8,0.9,1,1.6c1,3.4,2.4,6.5,4.3,9.4c0.9,1.5,0.7,3.2-0.4,4.4l-7.8,8.3c-0.5,0.6-0.5,1.5,0.1,2.1l7.3,6.9
					c0.6,0.5,1.5,0.5,2.1-0.1l7.8-8.3C39.3,211.3,40.2,210.9,41.2,210.9z"/>
			</g>
		</g>
	</g>
	<g>
		<g>
			<g>
				<path class="st0" d="M74.1,164.3c-8.2-7.7-21.1-7.2-28.8,1c-7.7,8.2-7.2,21.1,1,28.8c8.2,7.7,21.1,7.2,28.8-1
					S82.4,171.9,74.1,164.3z M49.5,190.7c-6.4-6-6.7-16-0.8-22.4c6-6.4,16-6.7,22.4-0.8s6.7,16,0.8,22.4
					C65.9,196.3,55.8,196.7,49.5,190.7z"/>
				<path class="st0" d="M60.2,200.7c-5.5,0-10.6-2-14.6-5.8c-4.2-3.9-6.6-9.2-6.8-15c-0.2-5.7,1.9-11.2,5.8-15.3
					c3.9-4.2,9.2-6.6,15-6.8c5.7-0.2,11.2,1.9,15.3,5.8c4.2,3.9,6.6,9.1,6.8,14.8c0.2,5.8-1.8,11.3-5.8,15.5
					c-3.9,4.2-9.2,6.6-15,6.8C60.7,200.7,60.5,200.7,60.2,200.7z M60.3,159.9c-0.2,0-0.4,0-0.7,0c-5.2,0.2-9.9,2.4-13.5,6.1
					c-3.5,3.7-5.4,8.6-5.2,13.8c0.2,5.2,2.4,9.9,6.1,13.5c3.7,3.5,8.6,5.4,13.8,5.2c5.2-0.2,9.9-2.4,13.5-6.1
					c3.5-3.8,5.4-8.8,5.2-13.9c-0.2-5.1-2.4-9.9-6.1-13.3l0,0C69.8,161.7,65.2,159.9,60.3,159.9z M60.2,196.1
					c-4.1,0-8.3-1.5-11.5-4.5l0,0c-6.8-6.4-7.2-17.1-0.8-23.9c6.4-6.8,17.1-7.2,23.9-0.8c6.8,6.4,7.2,17.1,0.8,23.9
					C69.3,194.2,64.8,196.1,60.2,196.1z M50.2,189.9c6,5.5,15.3,5.2,20.9-0.7c5.5-6,5.2-15.3-0.7-20.9c-6-5.5-15.3-5.2-20.9,0.7
					C43.9,175,44.2,184.4,50.2,189.9L50.2,189.9z"/>
			</g>
		</g>
	</g>
</g>
<g>
	<path class="st0" d="M369.7,380.7l2.2-0.7c10.4-3.4,17.4-13,17.4-24v-19.4c0-18.8,7.3-37.5,20.6-52.7
		c17.9-20.4,27.8-46.7,27.8-73.9c0-34-15.1-65.7-41.4-87.1c-26.5-21.5-61.1-29.8-95.1-22.7c-42.3,8.8-76.6,43.1-85.6,85.3
		c-1.2,5.9-2.1,11.8-2.4,17.8l9.5,4.2l2.1-1.9c0.2-5.9,1-11.8,2.2-17.7c8-37.8,38.8-68.5,76.6-76.3c30.5-6.4,61.6,1.1,85.4,20.4
		c23.6,19.2,37.1,47.6,37.1,78.1c0,24.4-8.8,47.9-24.9,66.3c-13,14.9-21,32.5-23,51l-0.4,3.4h-105l-0.4-3.4
		c-0.5-4.4-3.7-18.4-5-23.3h-2.7l-0.1,8.8l-4.7,11.3c0.7,3.9,1.5,9.3,1.5,12.5v19.4c0,10.9,7,20.5,17.4,24l2.2,0.7l0.4,2.3
		c3.7,21.5,22.5,37.6,43.9,37.6c21.4,0,40.3-16.1,43.9-37.6L369.7,380.7z M356.4,386.3L356.4,386.3c-4.7,13.3-17.4,22.7-31.1,22.7
		c-13.6,0-26.4-9.3-31.1-22.7l-1.8-5.2h65.7L356.4,386.3z M286.6,369.5c-7.5,0-13.6-6.1-13.6-13.6v-13.6h104.6V356
		c0,7.5-6.1,13.6-13.6,13.6H286.6z"/>
	<path class="st0" d="M325.4,421.8c-21.9,0-41.2-16.5-45-38.5l-0.3-1.7l-1.6-0.5c-10.9-3.6-18.2-13.6-18.2-25v-19.4
		c0-2.6-0.6-7.2-1.5-12.3l-0.1-0.3l4.8-11.4l0.2-9.7h4.5l0.2,0.8c1.2,4.8,4.5,19,5.1,23.5l0.3,2.5H377l0.3-2.5
		c2-18.7,10.1-36.6,23.2-51.6c15.9-18.2,24.6-41.4,24.6-65.6c0-30.2-13.4-58.4-36.7-77.3c-23.5-19.1-54.3-26.5-84.5-20.2
		c-37.4,7.8-67.9,38.2-75.8,75.5c-1.3,6-2,11.9-2.2,17.5l0,0.5l-2.9,2.6l-10.8-4.7l0-0.7c0.3-5.6,1.1-11.5,2.4-18
		c9.1-42.6,43.8-77.2,86.4-86.1c34.3-7.2,69.3,1.2,96,22.9c26.6,21.6,41.8,53.6,41.8,87.9c0,27.5-10,54-28.1,74.6
		c-13.1,15-20.3,33.5-20.3,52V356c0,11.4-7.3,21.5-18.2,25l-1.6,0.5l-0.3,1.8C366.7,405.2,347.3,421.8,325.4,421.8z M261.1,324.4
		c0.5,2.7,1.5,8.6,1.5,12.4v19.4c0,10.4,6.7,19.7,16.7,22.9l2.8,0.9l0.5,3c3.6,20.9,22,36.7,42.8,36.7c20.9,0,39.3-15.8,42.9-36.7
		l0.5-3.1l2.9-0.9c10-3.2,16.7-12.5,16.7-22.9v-19.4c0-19,7.4-38,20.9-53.4c17.8-20.3,27.6-46.3,27.6-73.2c0-33.7-14.9-65.1-41-86.3
		c-26.2-21.3-60.6-29.5-94.2-22.5c-41.8,8.7-75.9,42.7-84.8,84.5c-1.3,6-2,11.6-2.3,16.9l8.2,3.6l1.2-1.1c0.2-5.6,1-11.4,2.2-17.4
		c8.1-38.2,39.2-69.2,77.5-77.2c30.8-6.4,62.2,1.1,86.3,20.6c23.8,19.3,37.5,48.1,37.5,79c0,24.7-8.9,48.5-25.2,67
		c-12.9,14.7-20.7,32.2-22.7,50.4l-0.5,4.4h-107l-0.5-4.4c-0.5-4.2-3.4-17-4.8-22.4h-0.8l-0.1,8L261.1,324.4z M325.3,410
		c-14.1,0-27.3-9.6-32.1-23.4L291,380h68.8l-2.3,6.6C352.6,400.4,339.4,410,325.3,410z M294,382.2l1.3,3.7c4.5,12.9,16.9,22,30.1,22
		c13.2,0,25.5-9,30.1-22l1.3-3.7H294z M364.1,370.6h-77.5c-8.1,0-14.6-6.6-14.6-14.6v-14.6h106.8V356
		C378.7,364,372.2,370.6,364.1,370.6z M274.1,343.5V356c0,6.9,5.6,12.5,12.5,12.5h77.5c6.9,0,12.5-5.6,12.5-12.5v-12.5H274.1z"/>
</g>
<g>
	<path class="st0" d="M323.7,77.1c-2.8,0-5-2.2-5-5V38.8c0-2.8,2.2-5,5-5s5,2.2,5,5v33.3C328.7,74.9,326.5,77.1,323.7,77.1z"/>
</g>
<g>
	<path class="st0" d="M227.5,114.5c-1.3,0-2.6-0.5-3.6-1.5l-23.5-23.6c-2-2-2-5.1,0-7.1c2-2,5.1-2,7.1,0L231,106c2,2,2,5.1,0,7.1
		C230,114,228.8,114.5,227.5,114.5z"/>
</g>
<g>
	<path class="st0" d="M192.5,173.9c-0.4,0-0.9-0.1-1.3-0.2l-32.1-8.6c-2.7-0.7-4.3-3.5-3.6-6.2c0.7-2.7,3.5-4.3,6.2-3.6l32.1,8.6
		c2.7,0.7,4.3,3.5,3.6,6.2C196.8,172.5,194.8,173.9,192.5,173.9z"/>
</g>
<g>
	<path class="st0" d="M463.8,173.9c-2.2,0-4.2-1.5-4.8-3.7c-0.7-2.7,0.9-5.4,3.6-6.1l32.2-8.6c2.7-0.7,5.4,0.9,6.1,3.6
		c0.7,2.7-0.9,5.4-3.6,6.1l-32.2,8.6C464.6,173.9,464.2,173.9,463.8,173.9z"/>
</g>
<g>
	<path class="st0" d="M419.2,114.5c-1.3,0-2.6-0.5-3.5-1.5c-2-2-2-5.1,0-7.1l23.5-23.6c2-2,5.1-2,7.1,0c2,2,2,5.1,0,7.1l-23.5,23.6
		C421.8,114,420.5,114.5,419.2,114.5z"/>
</g>
</svg>
