<?xml version="1.0" encoding="utf-8"?>
<!-- Generator: Adobe Illustrator 23.0.5, SVG Export Plug-In . SVG Version: 6.00 Build 0)  -->
<svg version="1.1" id="圖層_1" xmlns="http://www.w3.org/2000/svg" xmlns:xlink="http://www.w3.org/1999/xlink" x="0px" y="0px"
	 viewBox="0 0 164 164" style="enable-background:new 0 0 164 164;" xml:space="preserve">
<style type="text/css">
	.st0{fill:#4092D6;}
</style>
<g>
	<g>
		<g>
			<path class="st0" d="M155.3,134.3l3.4-8.3c0.6-1.6,0.6-3.3,0-4.9c-0.7-1.6-1.9-2.8-3.5-3.4l-8-3.3l0-0.3c0.2-2.4,0.2-4.8,0-7.1
				l0-0.3l8-3.4c1.6-0.7,2.8-1.9,3.4-3.5c0.6-1.6,0.6-3.3,0-4.9l-3.5-8.3c-0.7-1.6-1.9-2.8-3.5-3.4c-1.6-0.6-3.3-0.6-4.9,0l-8,3.4
				l-0.2-0.2c-1.5-1.8-3.2-3.5-5-5l-0.2-0.2l3.3-8c0.6-1.6,0.6-3.3,0-4.9c-0.7-1.6-1.9-2.8-3.5-3.4l-8.3-3.4
				c-1.5-0.6-3.3-0.6-4.8,0.1c-1.6,0.7-2.8,1.9-3.5,3.4l-3.3,8l-0.3,0c-2.4-0.2-4.7-0.2-7.1,0l-0.3,0l-3.3-8
				c-1.4-3.3-5.1-4.8-8.3-3.4L85.8,65c-1.6,0.7-2.8,1.9-3.4,3.5s-0.6,3.3,0,4.9l3.3,8l-0.2,0.2c-1.8,1.5-3.5,3.2-5,5.1l-0.2,0.2
				l-8-3.3c-3.3-1.3-7,0.2-8.3,3.5l-3.4,8.3c-1.3,3.3,0.2,7,3.5,8.3l8,3.3l0,0.3c-0.2,2.4-0.2,4.8,0,7.1l0,0.3l-8,3.4
				c-3.2,1.4-4.8,5.1-3.4,8.4l3.5,8.3c0.7,1.6,1.9,2.8,3.5,3.4c1.6,0.6,3.3,0.6,4.9,0l8-3.4l0.2,0.2c1.5,1.8,3.2,3.5,5,5l0.2,0.2
				l-3.3,8c-0.6,1.6-0.6,3.3,0,4.9c0.7,1.6,1.9,2.8,3.5,3.5l8.3,3.4c3.2,1.3,7-0.2,8.3-3.5l3.3-8l0.3,0c2.4,0.2,4.7,0.2,7.1,0l0.3,0
				l3.3,8c1.4,3.3,5.1,4.8,8.3,3.4l8.3-3.5c1.6-0.7,2.8-1.9,3.4-3.5c0.6-1.6,0.6-3.3,0-4.9l-3.3-8l0.2-0.2c1.8-1.5,3.5-3.2,5-5.1
				l0.2-0.2l8,3.3C150.1,139.1,154,137.4,155.3,134.3z M136.9,131.1c-1.9,2.5-4.1,4.8-6.7,6.8c-0.7,0.5-0.9,1.4-0.6,2.2l3.9,9.3
				c0.6,1.3-0.1,2.9-1.4,3.4l-8.3,3.5c-1.3,0.6-2.8-0.1-3.4-1.4l-3.9-9.3c-0.3-0.8-1.2-1.3-2-1.1c-3.2,0.5-6.4,0.5-9.5,0
				c-0.3,0-0.7,0-1,0.1c-0.5,0.2-0.8,0.6-1,1l-3.8,9.4c-0.4,1-1.4,1.6-2.4,1.6c-0.3,0-0.7-0.1-1-0.2l-8.3-3.4
				c-0.6-0.3-1.1-0.8-1.4-1.4c-0.3-0.6-0.3-1.4,0-2l3.8-9.4c0.3-0.8,0.1-1.7-0.6-2.2c-2.5-1.9-4.8-4.2-6.7-6.7
				c-0.5-0.7-1.4-0.9-2.2-0.6l-9.3,3.9c-1.3,0.6-2.8-0.1-3.4-1.4l-3.5-8.3c-0.6-1.3,0.1-2.9,1.4-3.4l9.3-3.9c0.8-0.3,1.3-1.2,1.1-2
				c-0.5-3.2-0.5-6.4,0-9.5c0.1-0.9-0.4-1.7-1.2-2l-9.3-3.8c-1.3-0.5-2-2.1-1.4-3.4l3.4-8.3c0.5-1.3,2.1-2,3.4-1.4l9.3,3.8
				c0.8,0.3,1.7,0.1,2.2-0.6c1.9-2.6,4.1-4.8,6.7-6.8c0.7-0.5,0.9-1.4,0.6-2.2l-3.9-9.3c-0.6-1.3,0.1-2.9,1.4-3.4l8.3-3.5
				c1.3-0.6,2.8,0.1,3.4,1.4l3.9,9.3c0.3,0.8,1.2,1.3,2,1.1c3.2-0.5,6.4-0.5,9.5,0c0.9,0.1,1.7-0.4,2-1.2l3.8-9.4
				c0.3-0.6,0.8-1.1,1.4-1.4c0.6-0.3,1.4-0.3,2,0l8.3,3.4c0.6,0.3,1.1,0.8,1.4,1.4c0.3,0.6,0.3,1.4,0,2l-3.8,9.4
				c-0.3,0.8-0.1,1.7,0.6,2.2c2.5,1.9,4.8,4.2,6.7,6.7c0.5,0.7,1.4,0.9,2.2,0.6l9.3-3.9c0.6-0.3,1.3-0.3,2,0
				c0.6,0.3,1.1,0.8,1.4,1.4l3.5,8.3c0.3,0.6,0.3,1.3,0,2c-0.3,0.6-0.8,1.1-1.4,1.4l-9.3,3.9c-0.8,0.3-1.3,1.2-1.1,2
				c0.5,3.2,0.5,6.4,0,9.5c-0.1,0.9,0.4,1.7,1.2,2l9.3,3.8c0.6,0.3,1.1,0.8,1.4,1.4c0.3,0.6,0.3,1.4,0,2l-3.4,8.3
				c-0.5,1.3-2.1,1.9-3.4,1.4l-9.3-3.8C138.3,130.1,137.4,130.4,136.9,131.1z"/>
		</g>
		<g>
			<g>
				<g>
					<g>
						<path class="st0" d="M54.8,124.1l-3.4-3.2c0.6-1.2,1-2.5,1.4-3.7l4.6-0.2c1,0,1.9-0.5,2.6-1.2c0.7-0.7,1-1.7,1-2.7l-0.2-5
							c-0.1-2-1.9-3.7-3.9-3.6l-4.6,0.2c-0.4-1.3-1-2.5-1.6-3.6l3.2-3.4c1.4-1.5,1.3-3.9-0.2-5.3L50.1,89c-1.5-1.4-3.9-1.3-5.3,0.2
							l-3.2,3.4c-1.2-0.6-2.4-1.1-3.7-1.4l-0.2-4.7c-0.1-2.1-1.8-3.7-3.9-3.6l-5,0.2c-2.1,0.1-3.7,1.8-3.6,3.9l0.2,4.7
							c-1.3,0.4-2.5,1-3.6,1.7l-3.4-3.2c-1.5-1.4-3.9-1.3-5.3,0.2l-3.4,3.6c-1.4,1.5-1.3,3.9,0.2,5.3l3.4,3.2
							c-0.6,1.2-1,2.5-1.4,3.7l-4.6,0.2c-2.1,0.1-3.7,1.8-3.6,3.9l0.2,5c0.1,2.1,1.8,3.7,3.9,3.6l4.6-0.2c0.4,1.3,1,2.5,1.6,3.6
							l-3.2,3.4c-1.4,1.5-1.3,3.9,0.2,5.3l3.6,3.4c1.5,1.4,3.9,1.3,5.3-0.2l3.2-3.4c1.2,0.6,2.4,1.1,3.7,1.4l0.2,4.7
							c0.1,2,1.9,3.7,3.9,3.6l5-0.2c1,0,1.9-0.5,2.6-1.2c0.7-0.7,1-1.7,1-2.7l-0.2-4.7c1.3-0.4,2.5-1,3.6-1.7l3.4,3.2
							c1.5,1.4,3.9,1.3,5.3-0.2l3.4-3.6C56.4,127.9,56.3,125.5,54.8,124.1z M49.8,131.3c-0.5,0.5-1.3,0.5-1.8,0.1l-4.1-3.8
							c-0.4-0.4-1-0.4-1.5-0.1c-1.5,0.9-3.1,1.7-4.7,2.2c-0.5,0.2-0.9,0.7-0.9,1.2l0.2,5.6c0,0.3-0.1,0.6-0.3,0.9
							c-0.2,0.2-0.5,0.4-0.9,0.4l-5,0.2c-0.7,0-1.3-0.5-1.3-1.2l-0.2-5.6c0-0.6-0.4-1-1-1.2c-1.7-0.4-3.3-1-4.9-1.8
							c-0.5-0.3-1.1-0.2-1.5,0.2l-3.8,4.1c-0.5,0.5-1.3,0.5-1.8,0.1l-3.6-3.4c-0.5-0.5-0.5-1.3-0.1-1.8l3.8-4.1
							c0.4-0.4,0.4-1,0.1-1.5c-0.9-1.5-1.7-3.1-2.2-4.8c-0.1-0.2-0.2-0.4-0.3-0.6c-0.2-0.2-0.6-0.3-0.9-0.3l-5.6,0.2
							c-0.7,0-1.3-0.5-1.3-1.2l-0.2-5c0-0.7,0.5-1.3,1.2-1.3l5.6-0.2c0.6,0,1-0.4,1.2-1c0.4-1.7,1-3.3,1.8-4.9
							c0.3-0.5,0.2-1.1-0.2-1.5l-4.1-3.8c-0.5-0.5-0.5-1.3-0.1-1.8l3.4-3.6c0.5-0.5,1.3-0.5,1.8-0.1l4.1,3.8c0.4,0.4,1,0.4,1.5,0.1
							c1.5-0.9,3.1-1.7,4.7-2.2c0.5-0.2,0.9-0.7,0.9-1.2l-0.2-5.6c0-0.7,0.5-1.3,1.2-1.3l5-0.2c0.7,0,1.3,0.5,1.3,1.2l0.2,5.6
							c0,0.6,0.4,1.1,1,1.2c1.7,0.4,3.3,1,4.9,1.8c0.5,0.3,1.1,0.2,1.5-0.2l3.8-4.1c0.5-0.5,1.3-0.5,1.8-0.1l3.6,3.4
							c0.5,0.5,0.5,1.3,0.1,1.8l-3.8,4.1c-0.4,0.4-0.4,1-0.1,1.5c0.9,1.5,1.7,3.1,2.2,4.8c0.2,0.5,0.7,0.9,1.2,0.9l5.6-0.2
							c0.7,0,1.3,0.5,1.3,1.2l0.2,5c0,0.3-0.1,0.6-0.3,0.9c-0.2,0.2-0.5,0.4-0.9,0.4l-5.6,0.2c-0.6,0-1,0.4-1.2,1
							c-0.4,1.7-1,3.3-1.8,4.9c-0.3,0.5-0.2,1.1,0.2,1.5l4.1,3.8c0.5,0.5,0.5,1.3,0.1,1.8L49.8,131.3z"/>
					</g>
				</g>
			</g>
			<g>
				<g>
					<g>
						<path class="st0" d="M39.3,104.3c-4.1-3.8-10.4-3.6-14.2,0.5s-3.6,10.5,0.5,14.3c4.1,3.8,10.4,3.6,14.2-0.5
							C43.6,114.5,43.4,108.1,39.3,104.3z M27.1,117.4c-3.2-3-3.3-7.9-0.4-11.1c2.9-3.2,7.9-3.3,11.1-0.4c3.2,3,3.3,7.9,0.4,11.1
							C35.2,120.2,30.3,120.4,27.1,117.4z"/>
					</g>
				</g>
			</g>
		</g>
		<g>
			<g>
				<g>
					<g>
						<path class="st0" d="M130,45.5l-3.4-3.2c0.6-1.2,1-2.5,1.4-3.7l4.6-0.2c1,0,1.9-0.5,2.6-1.2c0.7-0.7,1-1.7,1-2.7l-0.2-5
							c-0.1-2-1.9-3.7-3.9-3.6l-4.6,0.2c-0.4-1.3-1-2.5-1.6-3.6l3.2-3.4c1.4-1.5,1.3-3.9-0.2-5.3l-3.6-3.4c-1.5-1.4-3.9-1.3-5.3,0.2
							l-3.2,3.4c-1.2-0.6-2.4-1.1-3.7-1.4L113,7.9c-0.1-2.1-1.8-3.7-3.9-3.6l-5,0.2c-2.1,0.1-3.7,1.8-3.6,3.9l0.2,4.7
							c-1.3,0.4-2.5,1-3.6,1.7l-3.4-3.2c-1.5-1.4-3.9-1.3-5.3,0.2L85,15.3c-1.4,1.5-1.3,3.9,0.2,5.3l3.4,3.2c-0.6,1.2-1,2.5-1.4,3.7
							l-4.6,0.2c-2.1,0.1-3.7,1.8-3.6,3.9l0.2,5c0.1,2.1,1.8,3.7,3.9,3.6l4.6-0.2c0.4,1.3,1,2.5,1.6,3.6L86.1,47
							c-1.4,1.5-1.3,3.9,0.2,5.3l3.6,3.4c1.5,1.4,3.9,1.3,5.3-0.2l3.2-3.4c1.2,0.6,2.4,1.1,3.7,1.4l0.2,4.7c0.1,2,1.9,3.7,3.9,3.6
							l5-0.2c1,0,1.9-0.5,2.6-1.2c0.7-0.7,1-1.7,1-2.7l-0.2-4.7c1.3-0.4,2.5-1,3.6-1.7l3.4,3.2c1.5,1.4,3.9,1.3,5.3-0.2l3.4-3.6
							C131.6,49.3,131.5,46.9,130,45.5z M125,52.7c-0.5,0.5-1.3,0.5-1.8,0.1l-4.1-3.8c-0.4-0.4-1-0.4-1.5-0.1
							c-1.5,0.9-3.1,1.7-4.7,2.2c-0.5,0.2-0.9,0.7-0.9,1.2l0.2,5.6c0,0.3-0.1,0.6-0.3,0.9c-0.2,0.2-0.5,0.4-0.9,0.4l-5,0.2
							c-0.7,0-1.3-0.5-1.3-1.2l-0.2-5.6c0-0.6-0.4-1-1-1.2c-1.7-0.4-3.3-1-4.9-1.8c-0.5-0.3-1.1-0.2-1.5,0.2l-3.8,4.1
							c-0.5,0.5-1.3,0.5-1.8,0.1L88,50.5c-0.5-0.5-0.5-1.3-0.1-1.8l3.8-4.1c0.4-0.4,0.4-1,0.1-1.5c-0.9-1.5-1.7-3.1-2.2-4.8
							c-0.1-0.2-0.2-0.4-0.3-0.6c-0.2-0.2-0.6-0.3-0.9-0.3l-5.6,0.2c-0.7,0-1.3-0.5-1.3-1.2l-0.2-5c0-0.7,0.5-1.3,1.2-1.3l5.6-0.2
							c0.6,0,1-0.4,1.2-1c0.4-1.7,1-3.3,1.8-4.9c0.3-0.5,0.2-1.1-0.2-1.5l-4.1-3.8c-0.5-0.5-0.5-1.3-0.1-1.8l3.4-3.6
							c0.5-0.5,1.3-0.5,1.8-0.1l4.1,3.8c0.4,0.4,1,0.4,1.5,0.1c1.5-0.9,3.1-1.7,4.7-2.2c0.5-0.2,0.9-0.7,0.9-1.2L103,8.2
							c0-0.7,0.5-1.3,1.2-1.3l5-0.2c0.7,0,1.3,0.5,1.3,1.2l0.2,5.6c0,0.6,0.4,1.1,1,1.2c1.7,0.4,3.3,1,4.9,1.8
							c0.5,0.3,1.1,0.2,1.5-0.2l3.8-4.1c0.5-0.5,1.3-0.5,1.8-0.1l3.6,3.4c0.5,0.5,0.5,1.3,0.1,1.8l-3.8,4.1c-0.4,0.4-0.4,1-0.1,1.5
							c0.9,1.5,1.7,3.1,2.2,4.8c0.2,0.5,0.7,0.9,1.2,0.9l5.6-0.2c0.7,0,1.3,0.5,1.3,1.2l0.2,5c0,0.3-0.1,0.6-0.3,0.9
							c-0.2,0.2-0.5,0.4-0.9,0.4l-5.6,0.2c-0.6,0-1,0.4-1.2,1c-0.4,1.7-1,3.3-1.8,4.9c-0.3,0.5-0.2,1.1,0.2,1.5l4.1,3.8
							c0.5,0.5,0.5,1.3,0.1,1.8L125,52.7z"/>
					</g>
				</g>
			</g>
			<g>
				<g>
					<g>
						<path class="st0" d="M114.5,25.6c-4.1-3.8-10.4-3.6-14.2,0.5c-3.8,4.1-3.6,10.5,0.5,14.3c4.1,3.8,10.4,3.6,14.2-0.5
							C118.7,35.8,118.5,29.4,114.5,25.6z M102.3,38.8c-3.2-3-3.3-7.9-0.4-11.1c2.9-3.2,7.9-3.3,11.1-0.4c3.2,3,3.3,7.9,0.4,11.1
							C110.4,41.5,105.4,41.7,102.3,38.8z"/>
					</g>
				</g>
			</g>
		</g>
		<g>
			<path class="st0" d="M71.3,33.2c-0.4,0-0.7-0.1-1.1-0.3c-0.5-0.3-0.9-0.7-1-1.3l-0.6-2.2c-0.7-0.1-1.4-0.3-2.1-0.6l-1.6,1.6
				c-0.4,0.4-0.9,0.6-1.5,0.6c0,0,0,0,0,0c-0.6,0-1.1-0.2-1.5-0.6L59.5,28c-0.8-0.8-0.8-2.2,0-3l1.6-1.6c-0.3-0.7-0.5-1.4-0.6-2.1
				l-2.2-0.6c-1.1-0.3-1.8-1.5-1.5-2.6l0.9-3.3c0.1-0.6,0.5-1,1-1.3c0.5-0.3,1.1-0.4,1.6-0.2l2.2,0.6c0.2-0.3,0.5-0.6,0.7-0.8
				c0.3-0.3,0.5-0.5,0.8-0.7l-0.6-2.2C63.2,9,63.9,7.8,65,7.5l3.3-0.9c0.5-0.1,1.1-0.1,1.6,0.2c0.5,0.3,0.9,0.7,1,1.3l0.6,2.2
				c0.7,0.1,1.4,0.3,2.1,0.6l1.6-1.6c0.4-0.4,0.9-0.6,1.5-0.6c0,0,0,0,0,0c0.6,0,1.1,0.2,1.5,0.6l2.4,2.4c0.8,0.8,0.8,2.2,0,3
				L79,16.3c0.3,0.7,0.5,1.4,0.6,2.1l2.2,0.6c1.1,0.3,1.8,1.5,1.5,2.6L82.4,25c-0.1,0.6-0.5,1-1,1.3c-0.5,0.3-1.1,0.4-1.6,0.2
				l-2.2-0.6c-0.2,0.3-0.5,0.6-0.7,0.8c-0.3,0.3-0.5,0.5-0.8,0.7l0.6,2.2c0.3,1.1-0.4,2.3-1.5,2.6l-3.3,0.9
				C71.7,33.2,71.5,33.2,71.3,33.2z M66.2,27.2l0.4,0.2c0.8,0.4,1.7,0.6,2.6,0.7l0.5,0l0.8,3.1c0,0.2,0.2,0.3,0.3,0.4
				c0.2,0.1,0.4,0.1,0.5,0.1l3.3-0.9c0.4-0.1,0.6-0.5,0.5-0.9l-0.8-3.1l0.4-0.3c0.4-0.3,0.7-0.6,1-0.9c0.3-0.3,0.6-0.7,0.9-1
				l0.3-0.4l3.1,0.8c0.2,0,0.4,0,0.5-0.1c0.2-0.1,0.3-0.3,0.3-0.4l0.9-3.3c0.1-0.4-0.1-0.8-0.5-0.9l-3.1-0.8l0-0.5
				c-0.1-0.9-0.3-1.8-0.7-2.6L77.3,16l2.3-2.3c0.3-0.3,0.3-0.7,0-1l-2.4-2.4c-0.3-0.3-0.7-0.3-1,0l-2.3,2.3l-0.4-0.2
				c-0.8-0.4-1.7-0.6-2.6-0.7l-0.5,0l-0.8-3.1c0-0.2-0.2-0.3-0.3-0.4C69,8,68.8,8,68.6,8l-3.3,0.9C65,9,64.8,9.4,64.9,9.8l0.8,3.1
				l-0.4,0.3c-0.4,0.3-0.7,0.6-1,0.9c-0.3,0.3-0.6,0.7-0.9,1l-0.3,0.4L60,14.7c-0.2,0-0.4,0-0.5,0.1c-0.2,0.1-0.3,0.3-0.3,0.4
				l-0.9,3.3c-0.1,0.4,0.1,0.8,0.5,0.9l3.1,0.8l0,0.5c0.1,0.9,0.3,1.8,0.7,2.6l0.2,0.4L60.5,26c-0.3,0.3-0.3,0.7,0,1l2.4,2.4
				c0.3,0.3,0.7,0.3,1,0L66.2,27.2z"/>
		</g>
		<g>
			<path class="st0" d="M70.1,24.9c-1.3,0-2.5-0.5-3.4-1.4c-1-0.9-1.5-2.2-1.5-3.5c0-2.7,2.1-5,4.9-5.1c1.3,0,2.6,0.5,3.5,1.4
				c1,0.9,1.5,2.2,1.5,3.5C75.1,22.5,72.9,24.8,70.1,24.9C70.1,24.9,70.1,24.9,70.1,24.9z M70.1,16.3C70,16.3,70,16.3,70.1,16.3
				c-2,0-3.6,1.7-3.5,3.6c0,1,0.4,1.8,1.1,2.5c0.7,0.7,1.6,1,2.5,1c2,0,3.5-1.7,3.5-3.6c0-1-0.4-1.8-1.1-2.5
				C71.9,16.7,71,16.3,70.1,16.3z"/>
		</g>
		<g>
			<polygon class="st0" points="68.1,60.1 56.6,51 56.6,57 25.4,57 25.4,63.3 56.6,63.3 56.6,69.3 			"/>
		</g>
		<g>
			<g>
				<path class="st0" d="M104.5,116.8l-6.3-7.5c-0.4-0.5-1-0.8-1.7-0.9c-0.1,0-0.1,0-0.2,0c-0.6,0-1.2,0.2-1.6,0.6
					c-1.1,0.9-1.2,2.5-0.3,3.6l8,9.5c0.4,0.5,1.1,0.8,1.8,0.9c0.1,0,0.1,0,0.2,0c0.6,0,1.2-0.2,1.7-0.7l19-17.7
					c1-0.9,1.1-2.6,0.2-3.6c-0.9-1-2.5-1.1-3.6-0.2L104.5,116.8z"/>
			</g>
		</g>
		<g>
			<path class="st0" d="M109.7,135.7c-13.8,0-24.9-11.2-24.9-25s11.2-25,24.9-25s24.9,11.2,24.9,25S123.4,135.7,109.7,135.7z
				 M109.7,86.7c-13.2,0-23.9,10.8-23.9,24s10.7,24,23.9,24s23.9-10.8,23.9-24S122.8,86.7,109.7,86.7z"/>
		</g>
	</g>
</g>
</svg>
