<?xml version="1.0" encoding="utf-8"?>
<!-- Generator: Adobe Illustrator 23.0.5, SVG Export Plug-In . SVG Version: 6.00 Build 0)  -->
<svg version="1.1" id="圖層_1" xmlns="http://www.w3.org/2000/svg" xmlns:xlink="http://www.w3.org/1999/xlink" x="0px" y="0px"
	 viewBox="0 0 500 500" style="enable-background:new 0 0 500 500;" xml:space="preserve">
<style type="text/css">
	.st0{fill:#4092D6;}
</style>
<g>
	<g>
		<path class="st0" d="M372,315.4l9.4-22.8c1.8-4.3,1.8-9.1-0.1-13.5s-5.2-7.7-9.6-9.5l-22-9.1l0.1-0.7c0.6-6.4,0.6-13.1-0.1-19.6
			l-0.1-0.7l22-9.2c4.3-1.8,7.7-5.2,9.5-9.6c1.8-4.4,1.8-9.1,0-13.4l-9.6-22.7c-1.8-4.3-5.2-7.7-9.6-9.5c-4.3-1.8-9.1-1.8-13.4,0
			l-22,9.2l-0.5-0.6c-4.2-5-8.8-9.7-13.9-13.8l-0.6-0.5l9.1-22c1.8-4.3,1.8-9.1-0.1-13.5c-1.9-4.3-5.2-7.7-9.6-9.5l-22.8-9.4
			c-4.1-1.7-9-1.7-13.4,0.2c-4.4,1.9-7.8,5.3-9.6,9.4l-9.1,22l-0.7-0.1c-6.4-0.6-13.1-0.6-19.6,0.1l-0.7,0.1l-9.2-22
			c-3.7-8.9-14-13.2-22.9-9.4l-22.7,9.6c-4.3,1.8-7.7,5.2-9.5,9.6c-1.8,4.4-1.8,9.1,0,13.4l9.2,22l-0.6,0.5
			c-5,4.2-9.7,8.9-13.8,13.9l-0.5,0.6l-22-9.1c-9-3.7-19.2,0.6-22.8,9.6l-9.4,22.8c-3.7,9,0.6,19.2,9.6,22.8l22,9.1l-0.1,0.7
			c-0.6,6.4-0.6,13.1,0.1,19.6l0.1,0.7l-22,9.2c-8.9,3.7-13.2,14-9.4,22.9l9.6,22.7c1.8,4.3,5.2,7.7,9.6,9.5c4.3,1.8,9.1,1.8,13.4,0
			l22-9.2l0.5,0.6c4.2,5,8.9,9.7,13.9,13.8l0.6,0.5l-9.1,22c-1.8,4.3-1.8,9.1,0.1,13.5c1.9,4.3,5.2,7.7,9.6,9.5l22.8,9.4
			c9,3.7,19.2-0.6,22.8-9.6l9.1-22l0.7,0.1c6.4,0.6,13.1,0.6,19.6-0.1l0.7-0.1l9.4,22c3.7,8.9,14,13.2,22.9,9.4l22.7-9.6
			c4.3-1.8,7.7-5.2,9.5-9.6c1.8-4.3,1.8-9.1,0-13.4l-9.2-22l0.6-0.5c5.1-4.2,9.7-8.9,13.8-13.9l0.5-0.6l22,9.1
			C357.7,328.4,368.4,324,372,315.4z M321.2,306.5c-5.2,7-11.4,13.2-18.4,18.5c-1.9,1.5-2.5,3.9-1.7,6.1l10.7,25.6
			c1.6,3.6-0.2,7.8-3.8,9.4l-22.7,9.6c-3.6,1.6-7.8-0.2-9.4-3.8l-10.7-25.6c-0.9-2.1-3.2-3.5-5.6-3.1c-8.7,1.3-17.5,1.3-26.1,0.1
			c-0.9-0.1-1.9,0-2.7,0.4c-1.3,0.5-2.2,1.6-2.8,2.8l-10.5,25.7c-1.2,2.7-3.8,4.4-6.6,4.4c-0.9,0-1.9-0.2-2.7-0.5l-22.8-9.4
			c-1.8-0.7-3.1-2-3.9-3.9c-0.8-1.8-0.8-3.7,0-5.5l10.5-25.7c0.9-2.2,0.2-4.7-1.7-6.1c-7-5.3-13.3-11.4-18.5-18.4
			c-1.5-1.9-3.9-2.5-6.1-1.7L140,316.2c-3.6,1.6-7.8-0.2-9.4-3.8l-9.6-22.7c-1.6-3.6,0.2-7.8,3.8-9.4l25.6-10.7
			c2.1-0.9,3.5-3.2,3.1-5.6c-1.3-8.7-1.3-17.5-0.1-26.1c0.3-2.3-1-4.6-3.2-5.5l-25.7-10.5c-3.6-1.5-5.4-5.7-3.9-9.4l9.4-22.8
			c1.5-3.6,5.7-5.4,9.4-3.9l25.7,10.5c2.1,0.9,4.7,0.2,6.1-1.7c5.3-7,11.4-13.3,18.4-18.5c1.9-1.5,2.5-4,1.7-6.1l-10.7-25.6
			c-1.6-3.6,0.2-7.8,3.8-9.4l22.7-9.6c3.6-1.6,7.8,0.2,9.4,3.8l10.7,25.6c0.9,2.1,3.2,3.5,5.6,3.1c8.7-1.3,17.5-1.3,26.1-0.1
			c2.3,0.3,4.6-1,5.6-3.2l10.5-25.7c0.7-1.7,2.1-3.1,3.9-3.8c1.8-0.8,3.8-0.8,5.5-0.1l22.8,9.4c1.8,0.7,3.1,2,3.9,3.9
			c0.8,1.8,0.8,3.7,0,5.5l-10.5,25.7c-0.9,2.2-0.2,4.7,1.7,6.1c7,5.2,13.2,11.4,18.5,18.4c1.5,1.9,3.9,2.5,6.1,1.7l25.6-10.7
			c1.8-0.8,3.7-0.8,5.5,0c1.8,0.7,3.1,2,3.9,3.8l9.6,22.7c0.8,1.8,0.8,3.7,0,5.5c-0.8,1.8-2,3.1-3.8,3.9L342,231.6
			c-2.1,0.9-3.5,3.2-3.1,5.6c1.3,8.7,1.3,17.5,0.1,26.1c-0.3,2.3,1,4.6,3.2,5.5l25.7,10.4c1.8,0.7,3.1,2,3.9,3.9
			c0.8,1.8,0.8,3.7,0,5.5l-9.4,22.8c-1.5,3.5-5.8,5.4-9.4,3.9l-25.7-10.5C325.2,303.9,322.7,304.5,321.2,306.5z"/>
		<path class="st0" d="M210.9,388.7c-2.4,0-5-0.5-7.3-1.5l-22.8-9.4c-4.8-2-8.6-5.7-10.5-10.5c-2-4.8-2-10.1-0.1-14.9l8.5-20.6
			c-4.7-3.9-9.2-8.3-13.1-13.1l-20.7,8.7c-4.8,2-10,2-14.9,0c-4.8-2-8.6-5.7-10.5-10.5l-9.6-22.7c-2-4.8-2-10,0-14.9
			c2-4.8,5.7-8.6,10.5-10.5l20.6-8.6c-0.6-6.1-0.6-12.4-0.1-18.5l-20.7-8.5c-10-4.1-14.7-15.5-10.6-25.5l9.4-22.8
			c2-4.8,5.7-8.6,10.5-10.5c4.9-2,10.1-2,14.9-0.1l20.7,8.5c3.9-4.7,8.3-9.2,13.1-13.1l-8.7-20.7c-2-4.8-2-10,0-14.9
			c2-4.8,5.7-8.6,10.5-10.5l22.7-9.6c4.8-2,10-2,14.9,0s8.6,5.7,10.5,10.5l8.6,20.7c6.1-0.6,12.4-0.6,18.5-0.1l8.5-20.7
			c1.9-4.6,5.8-8.4,10.5-10.4c4.9-2,10.2-2.1,14.8-0.2l22.8,9.4c4.8,2,8.6,5.7,10.5,10.5c2,4.8,2,10.1,0.1,14.9l-8.5,20.7
			c4.8,4,9.2,8.3,13.1,13.1l20.7-8.7c4.8-2,10-2,14.9,0c4.8,2,8.6,5.7,10.5,10.5l9.6,22.7c2,4.8,2,10,0,14.9
			c-2,4.8-5.7,8.6-10.5,10.5l-20.7,8.6c0.6,6.1,0.6,12.4,0.1,18.5l20.7,8.5c4.8,2,8.6,5.7,10.5,10.5c2,4.8,2,10.1,0.1,14.9
			l-9.4,22.8c-1.9,4.6-5.8,8.4-10.5,10.4c-4.8,2-10.2,2.1-14.8,0.2l-20.7-8.5c-3.9,4.7-8.3,9.2-13.1,13.1l8.7,20.7
			c2,4.8,2,10,0,14.9c-2,4.8-5.7,8.6-10.5,10.5l-22.7,9.6c-4.8,2-10,2-14.9,0c-4.8-2-8.6-5.7-10.5-10.5l-8.6-20.6
			c-6.1,0.6-12.4,0.6-18.5,0.1l-8.5,20.7C225.9,384.2,218.6,388.7,210.9,388.7z M166.6,314.1l1.4,1.7c4.1,4.9,8.7,9.5,13.7,13.6
			l1.7,1.4l-9.6,23.3c-1.6,3.8-1.6,8.1,0.1,11.9c1.6,3.8,4.6,6.8,8.5,8.4l22.8,9.4c7.9,3.2,17.1-0.6,20.3-8.5l9.6-23.3l2.1,0.2
			c6.3,0.6,12.8,0.6,19.2-0.1l2.1-0.2l9.8,23.3c1.6,3.8,4.6,6.8,8.5,8.4c3.9,1.6,8.1,1.6,11.9,0l22.7-9.6c3.8-1.6,6.8-4.6,8.4-8.5
			c1.6-3.9,1.6-8.1,0-11.9l-9.8-23.3l1.7-1.4c5-4.1,9.5-8.7,13.6-13.7l1.4-1.7l23.3,9.6c3.6,1.5,8,1.5,11.9-0.2
			c3.9-1.7,7-4.7,8.5-8.3l0,0l9.4-22.8c1.6-3.8,1.6-8.1,0-11.9c-1.6-3.8-4.6-6.8-8.5-8.4l-23.3-9.6l0.2-2.1
			c0.6-6.3,0.6-12.8-0.1-19.2l-0.2-2.1l23.3-9.8c3.8-1.6,6.8-4.6,8.4-8.5s1.6-8.1,0-11.9l-9.6-22.7c-1.6-3.8-4.6-6.8-8.5-8.4
			c-3.9-1.6-8.1-1.6-11.9,0l-23.3,9.8l-1.4-1.7c-4.1-4.9-8.7-9.5-13.7-13.6l-1.7-1.4l9.6-23.3c1.6-3.8,1.6-8.1-0.1-11.9
			c-1.6-3.8-4.6-6.8-8.5-8.4l-22.8-9.4c-3.6-1.5-8-1.5-11.9,0.2c-3.9,1.7-7,4.7-8.5,8.3l-9.6,23.3l-2.1-0.2
			c-6.3-0.6-12.8-0.6-19.2,0.1l-2.1,0.2l-9.8-23.3c-1.6-3.8-4.6-6.8-8.5-8.4s-8.1-1.6-11.9,0l-22.7,9.6c-3.8,1.6-6.8,4.6-8.4,8.5
			c-1.6,3.9-1.6,8.1,0,11.9l9.8,23.3l-1.7,1.4c-4.9,4.1-9.5,8.7-13.6,13.7l-1.4,1.7l-23.3-9.6c-3.8-1.6-8.1-1.6-11.9,0.1
			c-3.8,1.6-6.8,4.6-8.4,8.5l-9.4,22.8c-3.2,7.9,0.6,17.1,8.5,20.3l23.3,9.6l-0.2,2.1c-0.6,6.3-0.6,12.8,0.1,19.2l0.2,2.1l-23.3,9.8
			c-3.8,1.6-6.8,4.6-8.4,8.5c-1.6,3.9-1.6,8.1,0,11.9l9.6,22.7c1.6,3.8,4.6,6.8,8.5,8.4c3.9,1.6,8.1,1.6,11.9,0L166.6,314.1z
			 M210.9,378.4c-1.2,0-2.3-0.2-3.4-0.7l-22.8-9.4c-2.2-0.9-4-2.6-5-4.9s-1-4.7,0-6.9l10.5-25.7c0.6-1.4,0.1-2.9-1.1-3.8
			c-7.1-5.4-13.5-11.7-18.9-18.8c-0.9-1.2-2.4-1.6-3.8-1.1l-25.6,10.7c-2.2,1-4.7,1-6.9,0c-2.2-0.9-4-2.6-5-4.9l-9.6-22.7
			c-2-4.6,0.3-10,4.9-11.9l25.6-10.7c1.4-0.6,2.1-2,2-3.4c-1.3-8.9-1.3-17.9-0.1-26.6c0.2-1.5-0.6-2.9-2-3.4l-25.7-10.5
			c-4.7-1.9-6.8-7.2-5-11.9l9.4-22.8c2-4.7,7.2-6.8,11.9-5l25.7,10.5c1.4,0.6,2.9,0.1,3.8-1.1c5.4-7.1,11.7-13.5,18.8-18.9
			c1.2-0.9,1.6-2.4,1.1-3.8L179,145.1c-2-4.6,0.3-10,4.9-11.9l22.7-9.6c2.2-1,4.7-1,6.9,0c2.2,0.9,4,2.6,5,4.9l10.7,25.6
			c0.6,1.4,2,2.1,3.4,2c8.9-1.3,17.9-1.3,26.6-0.1c1.5,0.2,2.9-0.6,3.4-2l10.5-25.7c0.9-2.1,2.6-3.9,5-4.9c2.2-1,4.8-1,6.9-0.1
			l22.8,9.4c2.2,0.9,4,2.6,5,4.9c1,2.2,1,4.7,0,6.9l-10.5,25.7c-0.6,1.4-0.1,2.9,1.1,3.8c7.1,5.4,13.5,11.6,18.9,18.8
			c0.9,1.2,2.4,1.6,3.8,1.1l25.6-10.7c2.2-1,4.7-1,6.9,0c2.2,0.9,4,2.6,5,4.9l9.6,22.7c1,2.2,1,4.7,0,6.9c-0.9,2.2-2.6,4-4.9,5
			l-25.6,10.7c-1.4,0.6-2.1,2-2,3.4c1.3,8.9,1.3,17.9,0.1,26.6c-0.2,1.5,0.6,2.9,2,3.4l25.7,10.5c2.2,0.9,4,2.6,5,4.9
			c1,2.2,1,4.7,0,6.9l-9.4,22.8c-1.9,4.5-7.4,6.8-11.9,5l-25.7-10.5c-1.4-0.6-2.9-0.1-3.8,1.1c-5.4,7.1-11.6,13.5-18.8,18.9
			c-1.2,0.9-1.6,2.4-1.1,3.8l10.7,25.6c2,4.6-0.3,10-4.9,11.9l-22.7,9.6c-4.6,2-10-0.3-11.9-4.9l-10.7-25.6c-0.6-1.4-2-2.1-3.4-2
			c-8.9,1.3-17.9,1.3-26.6,0.1c-0.6-0.1-1.2,0-1.7,0.2c-0.8,0.3-1.5,1-1.8,1.8l-10.5,25.7C217.9,376.2,214.6,378.4,210.9,378.4z
			 M167.7,303c2.1,0,4.3,1,5.7,2.8c5.2,6.8,11.3,12.9,18.1,18c2.6,2,3.6,5.4,2.3,8.4l-10.5,25.7c-0.5,1.3-0.5,2.7,0,4
			c0.6,1.3,1.6,2.2,2.8,2.8l22.8,9.4c0.6,0.3,1.3,0.4,2,0.4c2.1,0,4-1.3,4.8-3.2l10.5-25.7c0.7-1.8,2-3.1,3.9-3.9
			c1.2-0.5,2.4-0.7,3.7-0.5c8.4,1.2,17.1,1.2,25.6-0.1c3.2-0.5,6.3,1.3,7.6,4.3l10.7,25.6c1.1,2.6,4.2,3.9,6.8,2.8l22.7-9.6
			c2.6-1.1,3.9-4.2,2.8-6.8l-10.7-25.6c-1.3-3-0.3-6.4,2.2-8.5c6.8-5.2,12.9-11.3,18-18.1l0,0c2-2.6,5.5-3.6,8.4-2.3l25.7,10.5
			c2.5,1.1,5.8-0.3,6.8-2.8l9.4-22.8c0.5-1.3,0.5-2.7,0-4c-0.6-1.3-1.6-2.2-2.8-2.8l-25.7-10.5c-3-1.3-4.8-4.4-4.4-7.6
			c1.2-8.5,1.2-17.1-0.1-25.6c-0.5-3.2,1.3-6.3,4.3-7.6l25.6-10.7c1.3-0.5,2.2-1.6,2.8-2.8c0.5-1.3,0.5-2.7,0-4l-9.6-22.7
			c-0.5-1.3-1.6-2.2-2.8-2.8c-1.3-0.5-2.7-0.5-4,0l-25.6,10.7c-3,1.3-6.4,0.3-8.5-2.2c-5.2-6.8-11.3-12.9-18.1-18
			c-2.6-2-3.6-5.4-2.3-8.4l10.5-25.7c0.5-1.3,0.5-2.7,0-4c-0.6-1.3-1.6-2.2-2.8-2.8l-22.8-9.4c-1.2-0.5-2.6-0.5-4,0.1
			c-1.3,0.6-2.3,1.6-2.8,2.7l-10.3,25.9c-1.3,3-4.4,4.8-7.6,4.4c-8.5-1.2-17.1-1.2-25.6,0.1c-3.2,0.5-6.3-1.3-7.6-4.3L214.9,130
			c-0.5-1.3-1.6-2.2-2.8-2.8c-1.3-0.5-2.7-0.5-4,0l-22.7,9.6c-2.6,1.1-3.9,4.2-2.8,6.8l10.7,25.6c1.3,3,0.3,6.4-2.2,8.5
			c-6.8,5.2-12.9,11.3-18,18.1c-2,2.6-5.4,3.6-8.4,2.3l-25.7-10.5c-2.6-1.1-5.7,0.2-6.8,2.8l-9.4,22.8c-1.1,2.6,0.2,5.7,2.8,6.8
			l25.7,10.5c3,1.3,4.8,4.4,4.4,7.6c-1.2,8.5-1.2,17.1,0.1,25.6c0.5,3.2-1.3,6.3-4.3,7.6l-25.6,10.7c-2.6,1.1-3.9,4.2-2.8,6.8
			l9.6,22.7c0.5,1.3,1.6,2.2,2.8,2.8c1.3,0.5,2.7,0.5,4,0l25.6-10.7C165.8,303.2,166.7,303,167.7,303z"/>
	</g>
	<g>
		<g>
			<path class="st0" d="M235.1,264.5l-13.9-16.4c-1-1.2-2.3-1.9-3.8-2c-0.2,0-0.3,0-0.5,0c-1.3,0-2.5,0.5-3.6,1.4
				c-2.3,2-2.6,5.5-0.7,7.9l17.6,20.8c1,1.2,2.3,1.9,3.9,2c0.1,0,0.3,0,0.4,0c1.4,0,2.7-0.5,3.7-1.5l41.9-38.8
				c2.2-2,2.4-5.6,0.4-7.9c-2-2.2-5.6-2.4-7.9-0.4L235.1,264.5z"/>
			<path class="st0" d="M234.6,281c-0.2,0-0.4,0-0.6,0c-2.2-0.2-4.4-1.3-5.9-3l-17.6-20.8c-3-3.6-2.5-9,1-12c1.8-1.5,3.9-2.1,6.2-2
				c2.2,0.2,4.3,1.3,5.8,3l11.8,14l35.3-32.9c3.5-3.1,8.9-2.9,12,0.6c3.1,3.5,2.8,8.9-0.6,12l-41.9,38.8
				C238.7,280.3,236.7,281,234.6,281z M217,249.1c-0.6,0-1.2,0.2-1.7,0.6c-1.1,1-1.3,2.6-0.3,3.7l17.6,20.8c0.5,0.6,1.2,0.9,1.9,1
				c0.1,0,0.1,0,0.2,0c0.7,0,1.3-0.2,1.8-0.7l41.9-38.8c1.1-1,1.2-2.6,0.2-3.8c-1-1.1-2.6-1.2-3.7-0.2L235,268.7L219.2,250
				c-0.5-0.6-1.1-0.9-1.8-1C217.2,249.1,217.1,249.1,217,249.1z"/>
		</g>
	</g>
	<g>
		<path class="st0" d="M246.3,320.2c-38.3,0-69.6-31.2-69.6-69.6s31.2-69.7,69.6-69.7s69.7,31.2,69.7,69.7S284.7,320.2,246.3,320.2z
			 M246.3,185.8c-35.7,0-64.7,29.1-64.7,64.8s29.1,64.7,64.7,64.7c35.7,0,64.8-29.1,64.8-64.7C311.1,214.8,282,185.8,246.3,185.8z"
			/>
	</g>
</g>
<g>
	<path class="st0" d="M245.9,448c-109,0-197.7-88.7-197.7-197.7S136.8,52.5,245.9,52.5c109,0,197.7,88.7,197.7,197.7
		S354.9,448,245.9,448z M245.9,57.4C139.6,57.4,53.1,144,53.1,250.2s86.4,192.9,192.8,192.9s192.8-86.5,192.8-192.8
		S352.2,57.4,245.9,57.4z"/>
</g>
<g>
	<path class="st0" d="M245.9,493.9c-65.1,0-126.3-25.4-172.3-71.4c-46-46-71.4-107.2-71.4-172.3S27.6,123.9,73.6,77.9
		c46-46,107.2-71.4,172.3-71.4s126.3,25.4,172.3,71.4c46,46,71.4,107.2,71.4,172.3s-25.4,126.3-71.4,172.3
		C372.1,468.5,311,493.9,245.9,493.9z M245.9,8.5C112.6,8.5,4.2,116.9,4.2,250.2S112.6,492,245.9,492s241.8-108.4,241.8-241.8
		C487.7,116.9,379.2,8.5,245.9,8.5z"/>
</g>
<g>
	<circle class="st0" cx="355.7" cy="85.7" r="15.8"/>
</g>
<g>
	<circle class="st0" cx="396.1" cy="456" r="19.6"/>
</g>
<g>
	<circle class="st0" cx="75.3" cy="76.6" r="9.6"/>
</g>
<g>
	<circle class="st0" cx="488.4" cy="231.2" r="9.6"/>
</g>
<g>
	<circle class="st0" cx="100.4" cy="382.5" r="9.9"/>
</g>
</svg>
