<?xml version="1.0" encoding="utf-8"?>
<!-- Generator: Adobe Illustrator 22.1.0, SVG Export Plug-In . SVG Version: 6.00 Build 0)  -->
<svg version="1.1" id="圖層_1" xmlns="http://www.w3.org/2000/svg" xmlns:xlink="http://www.w3.org/1999/xlink" x="0px" y="0px"
	 viewBox="0 0 369.7 99.7" style="enable-background:new 0 0 369.7 99.7;" xml:space="preserve">
<style type="text/css">
	.st0{fill:#006DC8;}
</style>
<title>gigatek_logo-2</title>
<path class="st0" d="M63.7,13L25,52.5l21,21.6l17-17.5c0.9-1.2,0.8-2.9-0.2-4c-1.1-1.3-3.1-1.4-4.4-0.3c-0.1,0.1-0.2,0.2-0.3,0.3
	c-0.7,0.8-12.3,12.8-12.3,12.8L33.6,52.5l17.7-18.1l29,29.9L46,99.7L0,52.5L51.4,0L63.7,13z"/>
<circle class="st0" cx="67.9" cy="30" r="9.1"/>
<path class="st0" d="M72.1,47l12.4-12.8l13,13.5c0,0,6.6,6.5,6.6,14.4v37.6H54.4l30.2-31c2-2,2.3-5.2,0.8-7.6L72.1,47z"/>
<path class="st0" d="M142.5,81.6h4.9c-0.1-1.7-0.4-3.5-1-5.1c-0.8-1.6-3.6-2.3-5.9-2.6c-3.2-0.3-6.4-0.2-9.6,0.3
	c-1.8,0.3-3.3,1.4-4.3,2.9c-0.9,1.5-1.3,3.1-1.3,4.8c0,1.3-0.3,8.7,0,10.4c0.2,1.8,0.8,3.5,1.9,4.9c1.3,1.5,5.4,2.3,9.5,2.3
	s7.3,0,9.1-2.1s1.6-7.5,1.5-11.5H136v3.6h6.5c0,0,0.3,3.8-0.8,4.9s-2.7,1.2-5.9,1.2s-4.9-0.6-5.3-2.2c-0.5-2.8-0.6-5.7-0.5-8.6
	c0-4.1,0.5-5.8,1.9-6.4s4.2-0.6,5.6-0.6s3.6,0.1,4.1,0.8C142.3,79.4,142.6,80.5,142.5,81.6z"/>
<path class="st0" d="M181,81.6h4.9c-0.1-1.7-0.4-3.5-1-5.1c-0.8-1.6-3.6-2.3-5.9-2.6c-3.2-0.3-6.4-0.2-9.6,0.3
	c-1.8,0.4-3.3,1.4-4.3,2.9c-0.8,1.5-1.3,3.1-1.3,4.8c-0.2,3.5-0.2,6.9,0,10.4c0.2,1.8,0.8,3.5,1.9,4.9c1.3,1.5,5.4,2.3,9.5,2.3
	s7.3,0,9.1-2.1s1.6-7.5,1.5-11.5h-11.3v3.6h6.5c0,0,0.3,3.8-0.8,4.9s-2.7,1.2-5.9,1.2s-4.9-0.6-5.3-2.2c-0.5-2.8-0.6-5.7-0.5-8.6
	c0-4.1,0.5-5.8,1.9-6.4s4.2-0.6,5.6-0.6s3.6,0.1,4.1,0.8C180.8,79.4,181.1,80.5,181,81.6z"/>
<rect x="152.9" y="74" class="st0" width="4.9" height="25.6"/>
<path class="st0" d="M204.5,73.8h-7l-8.6,25.8h5.1l1.6-5.1h11l1.7,5.1h5L204.5,73.8z M196.6,90.9l4.5-13.3l4.4,13.3H196.6z"/>
<polygon class="st0" points="215.5,73.8 215.5,78.2 222.8,78.2 222.8,99.5 227.7,99.5 227.7,78.2 235.1,78.2 235.1,73.8 "/>
<polygon class="st0" points="239.1,73.8 239.1,99.5 256.5,99.5 256.5,95.5 243.8,95.5 243.8,88.1 255.8,88.1 255.8,84.7 243.8,84.7 
	243.8,77.9 256.5,77.9 256.5,73.8 "/>
<polygon class="st0" points="262.8,73.8 267.7,73.8 267.7,84.5 270,84.5 278.7,73.8 284.6,73.8 274.1,86.4 285.6,99.5 279.4,99.5 
	269.9,88.5 267.6,88.5 267.6,99.5 262.8,99.5 "/>
<rect x="297.8" y="73.8" class="st0" width="4.8" height="25.8"/>
<polygon class="st0" points="309.2,99.5 309.2,73.8 317.4,73.8 328.3,95.4 328.3,73.8 332.9,73.8 332.9,99.5 324.8,99.5 313.8,77.8 
	313.8,99.5 "/>
<path class="st0" d="M355.1,82.6h5c0,0,0.1-5-1.5-6.6s-3.9-2.1-6.3-2.1s-6.9,0.2-9,1c-2,0.6-3.5,2.3-4,4.4c-0.4,2-0.5,4-0.5,6
	c0,2.8,0.2,5.7,0.5,8.5c0.3,1.8,1.3,3.5,2.8,4.6c1.6,1.3,6.3,1.2,8.2,1.2c2.2,0.1,4.4-0.2,6.5-0.9c1.9-0.8,3.2-2.7,3.3-4.8v-3.5
	h-4.7v2.3c0,0,0.6,3.1-4.9,2.8s-5.4-0.6-6.2-2.2s-0.5-8.1-0.5-9.3s0-3.7,0.8-4.6s1.2-1.4,5.4-1.4s4.3,0.5,4.7,1.1
	c0.3,0.6,0.4,1.2,0.4,1.8L355.1,82.6z"/>
<rect x="365" y="94.9" class="st0" width="4.7" height="4.7"/>
<g>
	<path class="st0" d="M140,22.9c-0.1-0.8-0.5-1.7-1.3-2.7c-0.5-0.6-0.5-1.1-0.1-1.5c0.3-0.4,0.9-0.5,1.6-0.4c1,0.2,2.3,0.7,3.8,1.5
		c0.9,0.5,1.2,1,1.1,1.6c-0.1,0.4-0.2,1-0.4,1.6c-0.2,0.7-0.3,1.6-0.4,2.6c-0.1,0.8-0.2,1.7-0.2,2.5c5.5-0.7,9.9-1.4,13.2-1.9
		c1-0.1,1.8-0.1,2.4,0.2c0.9,0.3,1.9,1,3.1,1.9c0.7,0.6,0.9,1.1,0.7,1.5c-0.2,0.4-0.7,0.5-1.6,0.5c-0.9,0-3.2,0-7,0
		c-3.8,0-7.5,0.1-11,0.5c-0.2,2.5-0.4,5.1-0.6,7.8c2.6-0.4,4.7-0.8,6.3-1.1c0.8-0.1,1.4-0.1,2,0.1c0.8,0.3,1.6,0.8,2.6,1.5
		c0.6,0.4,0.8,0.9,0.6,1.3c-0.2,0.3-0.6,0.4-1.3,0.4c-0.5,0-1.8,0-3.9,0c-2.8,0-5.5,0.2-8.1,0.5c-2.4,0.3-4.7,0.6-6.8,1
		c-0.6,0.2-1.2,0.2-1.9-0.1c-0.6-0.2-1.1-0.5-1.6-1c-0.6-0.6-0.5-0.9,0.3-1c3.2-0.4,6.2-0.9,9.1-1.3c0-2.8-0.1-5.4-0.2-7.9
		c-0.1,0-0.2,0-0.3,0c-4.5,0.5-8.6,1.2-12.5,1.9c-0.7,0.1-1.4,0.1-2.3-0.2c-0.7-0.2-1.4-0.6-1.9-1.2c-0.7-0.7-0.6-1.1,0.4-1.2
		c5.9-0.6,11.4-1.2,16.5-1.8C140.3,26.7,140.2,24.7,140,22.9z M131.2,46.7c0.2-0.2,0.5-0.3,1.1-0.1c1.6,0.4,2.7,0.7,3.2,1.1
		c2.3-0.2,4.6-0.5,6.9-0.8c2.2-0.4,4.4-1,6.6-1.7c1.1-0.4,2.1-0.5,2.8-0.1c2.3,1.3,3.8,2.3,4.5,3c0.7,0.8,0.7,1.6-0.1,2.4
		c-0.5,0.5-1.1,1-1.6,1.6c-0.6,0.8-1.3,2.3-2.2,4.6c1.1,0.9,1.7,1.5,1.7,1.8c-0.1,0.4-0.4,0.6-0.9,0.6c-7.1-0.1-12.4,0.1-15.7,0.6
		c-0.5,0-0.9,0-1.2-0.1c0,0.3-0.1,0.6-0.2,0.9c-0.3,0.7-0.8,0.5-1.5-0.5c-0.6-0.7-1-1.7-1.1-2.8c-0.5-3.7-1.2-6.7-2.2-9
		C130.9,47.4,130.9,46.9,131.2,46.7z M137.7,49.6c-0.7,0.1-1.4,0.1-1.9,0.1c0.1,1.3,0.3,3.7,0.6,7.1c0,0.1,0,0.3,0,0.4
		c3.6-0.2,7.8-0.6,12.5-1.2c0.5-1.8,0.8-3.7,1.1-5.7c0.1-0.7-0.1-1.3-0.4-1.6c-0.3-0.4-0.9-0.5-1.8-0.4
		C144.5,48.8,141.1,49.2,137.7,49.6z"/>
	<path class="st0" d="M184.7,47.8c-2,0.3-3.9,0.6-5.7,1c-0.7,0.1-1.4,0.1-2.2-0.2c-0.7-0.2-1.3-0.6-1.9-1.2
		c-0.6-0.7-0.5-1.1,0.3-1.1c5.1-0.5,9.9-1,14.5-1.4c-0.2-0.3-0.3-0.6-0.4-0.9c-0.4-1.2-0.7-2.4-0.9-3.7c0-0.1-0.1-0.2-0.1-0.2
		c-0.4-0.4-0.6-0.9-0.7-1.5c-0.4-2-1-3.7-1.6-4.9c-0.3-0.6-0.3-1-0.1-1.2c0.1-0.2,0.4-0.2,0.9-0.1c1.3,0.3,2.1,0.5,2.5,0.8
		c1.8-0.3,3.6-0.6,5.4-0.9c1.6-0.3,3.2-0.8,5-1.5c0.9-0.3,1.6-0.3,2.2,0.1c1.8,1.1,2.9,1.9,3.4,2.5c0.5,0.6,0.4,1.2-0.2,1.9
		c-0.3,0.1-0.6,0.3-0.9,0.5c-0.4,0.2-0.9,0.7-1.6,1.5c0.6,0.4,0.8,0.8,0.8,1c0,0.3-0.3,0.5-0.7,0.5c-0.4,0-0.7,0.1-1,0.1
		c0.6,0.6,1,1.1,1.2,1.5c0.2,0.3,0,0.7-0.6,1.1c-0.3,0.2-0.6,0.4-0.8,0.6c-0.4,0.4-0.8,0.8-1.2,1.1c-0.2,0.2-0.4,0.4-0.5,0.6
		c4.6-0.6,8.3-1.2,11.3-1.6c0.9-0.1,1.7-0.1,2.3,0.2c0.9,0.4,1.9,1,3,1.8c0.6,0.6,0.8,1.1,0.6,1.5c-0.2,0.3-0.7,0.5-1.5,0.5
		c-1,0-3.6-0.1-7.5-0.1c-5.5,0-10.7,0.2-15.7,0.8c-1.5,0.2-3,0.4-4.4,0.6c0.5,0.3,0.9,0.6,1,0.9c0.2,0.4,0.2,0.7-0.1,1.1
		c-0.2,0.3-0.5,0.7-0.7,1.1c1.1-0.3,1.9-0.6,2.4-0.8c0.8-0.4,1.9-0.2,3.2,0.5c1.3,0.7,1.9,1.2,2,1.6c0,0.4-0.2,0.8-0.7,1.4
		c-0.4,0.4-0.8,1.4-1.2,3.1c-0.6,2.4-1.2,4-1.8,5c-0.4,0.5-0.8,1-1.4,1.4c-0.9,0.5-1.4,0.8-1.7,0.8c-0.4,0-0.7-0.2-0.9-0.6
		c-0.6-1.1-1.5-2.4-2.8-3.9c-0.3-0.3-0.4-0.6-0.3-0.8c0.1-0.2,0.3-0.2,0.6-0.1c1.6,0.8,2.6,1.2,3.1,1.2c0.4,0,0.7-0.2,1-0.5
		c0.2-0.3,0.5-0.7,0.7-1.2c0.4-0.8,0.7-1.9,0.9-3.3c0.2-0.8,0.1-1.5-0.1-1.9c-0.2-0.4-0.6-0.5-1.3-0.5c-1,0.1-1.9,0.3-2.7,0.4
		c-0.9,1.9-1.7,3.4-2.5,4.6c-1,1.4-2.1,2.6-3.5,3.6c-1.5,1.1-3,2-4.7,2.6c-0.4,0.2-0.8,0.2-1,0.2c-0.4-0.1-0.4-0.3,0.1-0.7
		c2.2-2,3.8-3.5,4.7-4.5c0.8-1,1.6-2,2.2-3.2c0.4-0.7,0.7-1.3,1-1.9c-0.5,0.1-1,0.2-1.3,0.3c-1.9,0.5-3.1,0.7-3.4,0.8
		c-0.5,0-1.1-0.2-1.7-0.7c-0.7-0.6-1.1-1-1.1-1.2c0.1-0.3,0.9-0.5,2.2-0.5c1.5,0,3.5-0.2,5.9-0.6C184.6,50,184.8,48.9,184.7,47.8z
		 M193.4,19.9c-0.1-0.4-0.3-0.8-0.7-1.4c-0.4-0.5-0.4-0.9-0.1-1.3c0.3-0.3,0.8-0.4,1.4-0.3c0.9,0.2,2,0.6,3.3,1.4
		c0.7,0.5,1,1,0.9,1.4c-0.1,0.2-0.2,0.5-0.3,0.8c-0.1,0.2-0.2,0.5-0.2,0.9c1.4-0.3,2.7-0.7,3.9-1c1.3-0.4,2.4-0.4,3.6-0.1
		c1.2,0.3,1.9,0.8,2.1,1.3c0.2,0.4,0.1,0.7-0.4,1c-0.3,0.2-1.5,0.5-3.6,0.8c-2.1,0.3-4.2,0.6-6.2,0.9c-0.2,0.8-0.3,1.7-0.5,2.6
		c0-0.1,0.1-0.1,0.2-0.1c1.8-0.4,3.1-0.5,4.1-0.3c1,0.2,1.8,0.7,2.2,1.3c0.3,0.5,0,0.9-1,1c-3.4,0.3-7.4,0.7-12,1.3
		c-0.9,0.1-1.6,0-2.1-0.4c-0.8-0.7-0.9-1.1-0.2-1.2c1.9-0.4,4-0.8,6.1-1.2c-0.1-0.9-0.2-1.8-0.2-2.6c-1.4,0.1-2.7,0.3-4.1,0.5
		c-1.4,0.2-2.6,0.1-3.5-0.1c-0.9-0.2-1.6-0.6-2.2-1c-1.1-0.9-0.9-1.4,0.7-1.3c3.1-0.1,6-0.4,8.8-0.8
		C193.6,21.4,193.5,20.7,193.4,19.9z M191.4,34.5c-0.7,0.1-1.3,0.1-1.8,0.1c0,0.6,0.1,1.7,0.2,3.2c2.8-0.3,6-0.8,9.5-1.5
		c0.1,0,0.2,0,0.3,0c0.2-0.7,0.4-1.4,0.7-2.2c0.1-0.3,0-0.6-0.1-0.8c-0.2-0.3-0.7-0.3-1.3-0.2C196.4,33.7,193.9,34.1,191.4,34.5z
		 M191,39.7c-0.4,0-0.8,0-1.2,0c0,0-0.1,0.1-0.1,0.1c0.4,0.4,0.9,1,1.5,1.7c0.5,0.7,0.8,1.4,0.9,2.1c0,0.4-0.1,0.7-0.2,1
		c1-0.2,2.1-0.3,3.1-0.4c1-0.1,1.9-0.3,2.9-0.4c0.2-0.4,0.4-0.7,0.6-1.1c0.4-1.3,0.7-2.3,0.8-3.2c0-0.3,0-0.5,0-0.7
		C195.7,39.1,192.9,39.3,191,39.7z M196.5,50.4c0.2-0.2,0.5-0.2,1-0.1c0.8,0.2,1.4,0.4,1.8,0.5c1.3-0.2,2.5-0.5,3.7-0.7
		c1.1-0.3,2.3-0.7,3.6-1.2c1-0.4,1.8-0.4,2.4-0.1c2,1.1,3.4,2,4,2.6c0.6,0.7,0.6,1.4-0.1,2.1c-0.4,0.3-0.8,0.6-1.1,0.9
		c-0.5,0.4-1,1.3-1.7,2.6c1.1,0.7,1.6,1.3,1.6,1.6c-0.1,0.4-0.4,0.6-0.8,0.6c-4.1,0-7.1,0.2-9.1,0.4c-0.3,0-0.6,0.1-0.9,0.1
		c-0.1,0.6-0.2,1.2-0.3,1.6c-0.2,0.6-0.7,0.5-1.3-0.4c-0.5-0.6-0.8-1.3-0.9-2.2c-0.4-2.9-1-5.2-1.8-7
		C196.3,51.1,196.2,50.6,196.5,50.4z M200.8,57.5c1.9-0.2,3.9-0.6,6-1c0,0,0.1,0,0.1,0c0.2-1,0.4-2.1,0.5-3.3c0-0.4-0.1-0.8-0.3-1
		c-0.2-0.1-0.4-0.2-0.8-0.2c-1.5,0.2-2.9,0.4-4.4,0.5c-0.6,0.1-1.1,0.1-1.6,0.2C200.5,53.4,200.6,55,200.8,57.5z"/>
	<path class="st0" d="M263.7,24.3c2.8,2.4,4.2,3.7,4.3,4.2c0,0.3-0.8,0.7-2.3,1c-1.8,0.4-3.9,1.2-6.3,2.4c-0.7,0.4-1.2,0.6-1.5,0.4
		c-0.3-0.2-0.2-0.6,0.1-1.1c0.6-1.1,1.3-2.2,1.9-3.2c0.3-0.5,0.4-0.9,0.4-1c0-0.2-0.3-0.5-0.8-0.8c-0.6-0.1-2.3,0-4.9,0.4
		c-2.1,0.3-4.1,0.6-5.8,0.9c0,0.2,0,0.5,0,0.7c-0.1,3.2-0.1,5.4-0.1,6.5c0,0.8-0.1,1.6-0.5,2.4c-0.3,0.8-0.6,1.4-0.9,1.8
		c-0.3,0.5-0.7,0.5-1,0.1c-0.3-0.5-0.7-1.1-1-1.9c-0.3-0.7-0.4-1.3-0.3-2c0.4-2.1,0.6-3.9,0.6-5.5c0-0.6,0-1.1,0-1.7
		c-0.6,0.1-1.2,0.2-1.7,0.3c-2.5,0.4-4.8,1-7.1,1.8c-1,0.2-1.9,0.2-2.7-0.3c-0.3,0.7-0.6,1.7-0.9,3c-0.3,1.1-0.7,2.1-1.2,3
		c-0.6,1.2-1.3,1.3-1.9,0.4c-0.5-0.6-0.8-1.4-1-2.4c-0.2-1-0.1-1.7,0.3-2.1c0.7-0.9,1.3-1.7,1.8-2.5c0.4-0.7,0.6-1.4,0.6-1.9
		c0-0.8,0.1-1.3,0.4-1.6c0.4-0.3,1,0.2,1.9,1.6c0.1,0.2,0.2,0.4,0.3,0.6c1.8-0.3,3.5-0.5,5.4-0.8c2.1-0.4,4.1-0.7,6-0.9
		c0-0.5-0.1-0.9-0.1-1.4c-0.1-0.9-0.3-1.7-0.7-2.5c0-0.1-0.1-0.1-0.1-0.2c-1.4,0.1-2.4,0-3.3-0.1c-0.9-0.2-1.6-0.6-2.2-1
		c-1.1-0.9-0.9-1.4,0.6-1.3c2.2-0.1,4.2-0.3,6.1-0.6c1.7-0.3,3.3-0.7,4.9-1.1c1.2-0.4,2.4-0.4,3.6-0.1c1.2,0.3,1.9,0.7,2.1,1.2
		c0.1,0.4,0,0.7-0.3,1c-0.2,0.2-1,0.4-2.4,0.6c-2.1,0.3-4.2,0.6-6.1,0.9c0.2,0.1,0.5,0.3,0.7,0.4c0.6,0.4,0.9,1.1,0.8,2.1
		c-0.1,0.4-0.2,0.9-0.3,1.4c1.2-0.2,2.3-0.4,3.3-0.5c3.2-0.5,6.1-0.9,8.7-1.3C261.9,23.3,262.8,23.6,263.7,24.3z M234.6,41.4
		c0.1-0.2,0.5-0.2,1-0.1c0.7,0.1,1.2,0.2,1.5,0.3c1.8-0.2,3.8-0.5,6.1-0.9c2.7-0.5,5.2-0.9,7.3-1.2c1.7-0.2,3.2-0.5,4.4-0.8
		c0.6-0.2,1.3-0.1,2.1,0.4c1.7,1.1,2.9,2,3.5,2.7c0.5,0.5,0.4,1.1-0.1,1.6c-1,0.9-1.7,2-2.1,3.3c-1.2,4.1-2.1,6.5-2.6,7.2
		c-0.6,0.9-1.1,1.1-1.7,0.8c-0.6-0.3-1.2-1-1.8-1.9c-1.6,0-3,0.1-4.3,0.3c0.1,1.3,0.4,2.4,0.8,3.2c0.4,0.7,1.2,1.4,2.2,1.9
		c1.2,0.6,2.7,1,4.2,1.1c1.8,0.1,3.4-0.1,4.9-0.4c1.4-0.4,2.3-0.9,2.7-1.6c0.6-1,1.5-3.1,2.5-6.4c0.2-0.6,0.4-0.9,0.6-0.8
		c0.2,0.1,0.3,0.5,0.4,1.1c0.4,3.1,0.9,5.1,1.5,6.1c0.5,1,0.4,1.7-0.4,2.2c-1.4,1.2-2.8,2-4.4,2.4c-1.7,0.5-3.5,0.8-5.4,0.9
		c-2.4,0-4.4-0.3-6-0.8c-1.6-0.5-2.8-1.1-3.6-1.9c-0.7-0.7-1.3-1.6-1.7-2.7c-0.3-0.9-0.5-2.3-0.6-4.3c-1.6,0.1-2.8,0.3-3.8,0.5
		c-0.5,0.1-1,0-1.4-0.1c-0.1,0.2-0.1,0.5-0.2,0.7c-0.2,0.7-0.7,0.6-1.5-0.4c-0.7-0.7-1.1-1.6-1.2-2.6c-0.7-3.5-1.6-6.4-2.7-8.6
		C234.4,42.1,234.3,41.6,234.6,41.4z M237.5,36.6c1.8-0.3,3.5-0.6,4.9-1c0.4-0.1,0.7-0.1,0.8,0.1c0,0.2-0.2,0.4-0.6,0.7
		c-0.1,0.2-0.3,0.4-0.5,0.5c-0.5,0.4-1,0.8-1.5,1.2c-0.3,0.3-0.7,0.6-1,1c-0.3,0.2-0.6,0.3-0.9,0.2c-1-0.4-1.8-0.9-2.4-1.3
		c-0.2-0.2-0.3-0.5-0.3-0.9c0.1-0.3,0.3-0.5,0.6-0.5C237,36.6,237.3,36.6,237.5,36.6z M237.5,31.8c0-0.4,0.1-0.6,0.3-0.7
		c0.4-0.2,1.2-0.3,2.2-0.3c0.6,0,1.2,0.1,1.6,0.3c0.6,0.5,1,0.9,1.1,1.4c0.1,0.6-0.1,1-0.6,1.2c-0.5,0.2-1.2,0.1-1.9-0.1
		c-0.7-0.3-1.4-0.7-2.1-1.1C237.8,32.4,237.6,32.1,237.5,31.8z M244.8,42.4c0-0.1-0.1-0.2-0.1-0.2c-2.2,0.3-4,0.7-5.6,1.1
		c0,0.5,0.2,1.6,0.4,3.4c0,0,0-0.1,0-0.1c1.9-0.4,3.9-0.7,6-1.1C245.4,44.6,245.1,43.5,244.8,42.4z M245.5,47.7
		c-1.2,0.1-2.4,0.2-3.7,0.4c-1,0.1-1.7,0-2.1-0.4c0.1,0.9,0.3,2,0.5,3.1c0,0.3,0.1,0.6,0.1,0.8c1.6-0.2,3.4-0.4,5.2-0.7
		C245.5,50,245.5,48.9,245.5,47.7z M248.3,45.1c0.3-0.1,0.6-0.2,1-0.3c1.6-0.3,2.9-0.3,3.7-0.2c0.7,0.2,1.2,0.4,1.6,0.8
		c0.2-0.7,0.3-1.4,0.5-2.2c0.1-0.5-0.1-1-0.5-1.5c-0.3-0.4-1.1-0.6-2.5-0.5c-1.7,0.2-3.3,0.4-4.6,0.6c0.2,0.2,0.4,0.3,0.6,0.5
		c0.4,0.3,0.6,0.8,0.5,1.5C248.4,44.2,248.3,44.6,248.3,45.1z M247.9,50.6c0.9-0.2,1.8-0.4,2.7-0.6c1.1-0.2,2-0.2,2.5,0.2
		c0.1-0.1,0.1-0.2,0.2-0.2c0.2-0.4,0.5-1.5,0.9-3.3c-0.1,0-0.2,0-0.2,0c-1.9,0.2-3.9,0.4-5.9,0.7C248,48.5,247.9,49.6,247.9,50.6z
		 M253,31.5c-0.7,0.2-1.5,0.4-2.6,0.5c-0.5,0-0.5-0.2-0.1-0.6c0.6-0.5,1.2-0.9,1.7-1.4c0.4-0.3,0.9-0.7,1.3-1.1
		c0.5-0.5,0.7-0.9,0.8-1.3c0-0.4,0.2-0.6,0.6-0.6c0.3,0,0.8,0.3,1.3,0.9c0.5,0.6,0.9,1.1,1.1,1.7c0.2,0.5,0,0.9-0.7,1
		c-0.7,0.1-1.4,0.3-2,0.6C253.9,31.3,253.5,31.4,253,31.5z M251,34.5c0-0.5,0.1-0.7,0.4-0.7c0.5-0.1,1.4,0,2.6,0.1
		c0.8,0.1,1.4,0.3,1.8,0.7c0.6,0.6,0.9,1.2,0.9,1.7c0.1,0.7-0.2,1.1-0.9,1.2c-0.6,0.1-1.3-0.1-2-0.5c-0.8-0.5-1.5-1.1-2.3-1.7
		C251.3,35.1,251.1,34.9,251,34.5z"/>
	<path class="st0" d="M282.4,43.8c-0.4,0-1.2-0.4-2.5-1.1c-1.3-0.7-1.9-1.2-1.9-1.7c0-0.6,0.8-0.9,2.5-0.9c2.1,0,5.1-0.3,9.1-0.9
		c2-0.4,4.6-0.8,7.8-1.2c-0.1-1.2-0.3-2.3-0.5-3.3c-0.3-1.1-0.6-1.9-1.1-2.6c-0.4-0.6-0.5-1-0.3-1.1c0.2-0.2,0.6-0.2,1-0.1
		c0.7,0.3,1.6,0.7,2.5,1.2c0.2-0.3,0.4-0.6,0.6-0.8c1.5-2.3,2.6-4.1,3.4-5.3c0.7-1.2,1.1-2,1.2-2.4c0-0.3-0.1-0.6-0.4-0.9
		c-0.2-0.1-1.1,0.1-2.7,0.5c-2.8,0.7-5,1.4-6.4,2c-0.8,0.3-1.7,0.7-2.5,1.3c-0.8,0.4-1.4,0.7-1.8,0.7c-0.4,0-1.1-0.4-1.9-1
		c-0.9-0.7-1.6-1.3-2-1.8c-0.3-0.4-0.4-0.8-0.3-1.1c0.3-0.5,0.8-0.6,1.5-0.4c1,0.2,2.5,0.2,4.6-0.1c3.5-0.6,6.9-1.2,9.9-1.8
		c0.7-0.2,1.4-0.5,2-0.8c0.5-0.2,0.8-0.3,1-0.3c0.4,0,1.3,0.7,2.7,2c1.4,1.5,2.1,2.4,2.1,2.8c0,0.5-0.7,1.1-2.1,1.6
		c-0.7,0.3-1.7,1-2.8,2.1c-2.4,2.3-4.2,3.9-5.3,4.7c0.2,0.3,0.3,0.6,0.3,1.1c0,0.9,0.1,2,0.3,3.2c0,0.1,0,0.2,0,0.3
		c0,0,0.1-0.1,0.3-0.1c2.1-0.3,4.7-0.7,7.6-1c2.1-0.3,3.7-0.6,4.7-0.9c0.7-0.1,1.3-0.2,1.7-0.3c0.4,0,1.1,0.3,1.9,0.8
		c0.8,0.5,1.8,1.2,3,2.2c0.3,0.3,0.5,0.7,0.5,1.3c0,0.5-1,0.6-2.9,0.3c-2-0.3-4.1-0.5-6.1-0.6c-3-0.2-6.5,0.1-10.5,0.7
		c0.1,1.2,0.2,2.8,0.2,4.6c0.2,4.4,0.2,7.4,0.1,9.2c-0.1,1.7-0.4,3.1-0.9,4.2c-0.4,1-1,1.8-1.7,2.4c-0.7,0.7-1.3,1-1.8,1
		c-0.3,0-0.7-0.2-1.1-0.7c-1.4-1.5-3.3-3.3-5.7-5.4c-0.3-0.3-0.4-0.6-0.4-0.7c0.1-0.1,0.3-0.2,0.6-0.2c1.3,0.3,2.7,0.5,4.1,0.8
		c0.9,0.1,1.6,0.1,2-0.1c0.2-0.1,0.4-0.3,0.5-0.4c0.5-0.8,0.9-2,1.1-3.4c0.3-1.7,0.4-4.3,0.3-7.9c-0.1-1.1-0.2-2.1-0.2-3.1
		c-7.2,1.1-11.5,1.9-12.9,2.6C283.6,43.5,282.8,43.7,282.4,43.8z"/>
</g>
</svg>
