<?xml version="1.0" encoding="utf-8"?>
<!-- Generator: Adobe Illustrator 23.0.5, SVG Export Plug-In . SVG Version: 6.00 Build 0)  -->
<svg version="1.1" id="Capa_1" xmlns="http://www.w3.org/2000/svg" xmlns:xlink="http://www.w3.org/1999/xlink" x="0px" y="0px"
	 viewBox="0 0 512 512" style="enable-background:new 0 0 512 512;" xml:space="preserve">
<style type="text/css">
	.st0{fill:#006DC8;}
	.st1{enable-background:new    ;}
</style>
<g>
	<g>
		<path class="st0" d="M416.3,85.5c-4.1,0-7.5,3.4-7.5,7.5v371.4c0,0.3-0.2,0.5-0.5,0.5H143.8c-4.1,0-7.5,3.4-7.5,7.5
			s3.4,7.5,7.5,7.5h264.5c8.6,0,15.5-7,15.5-15.5V93C423.8,88.9,420.5,85.5,416.3,85.5z"/>
	</g>
</g>
<g>
	<g>
		<path class="st0" d="M440.4,32.1h-69L346.2,6.9C341.7,2.4,335.8,0,329.5,0H71.6C63,0,56.1,7,56.1,15.5v448.9
			c0,8.6,7,15.5,15.5,15.5h16.5v16.5c0,8.6,7,15.5,15.5,15.5h336.7c8.6,0,15.5-7,15.5-15.5V47.6C455.9,39,448.9,32.1,440.4,32.1z
			 M335.6,17.6l70.6,70.6h-70.1c-0.3,0-0.5-0.2-0.5-0.5V17.6z M440.9,496.5c0,0.3-0.2,0.5-0.5,0.5H103.7c-0.3,0-0.5-0.2-0.5-0.5V480
			h87.3c4.1,0,7.5-3.4,7.5-7.5s-3.4-7.5-7.5-7.5H71.6c-0.3,0-0.5-0.2-0.5-0.5v-449c0-0.3,0.2-0.5,0.5-0.5h249v72.7
			c0,8.6,7,15.5,15.5,15.5h80.2c4.1,0,7.5-3.4,7.5-7.5v-1.4c0-6.3-2.4-12.2-6.9-16.6l-30.6-30.6h54c0.3,0,0.5,0.2,0.5,0.5
			L440.9,496.5L440.9,496.5z"/>
	</g>
</g>
<g>
	<g>
		<path class="st0" d="M205.2,216.7c-2.9-2.9-7.7-2.9-10.6,0l-42.4,42.4c-0.2,0.2-0.5,0.2-0.7,0l-16.9-16.9h13
			c4.1,0,7.5-3.4,7.5-7.5s-3.4-7.5-7.5-7.5h-19.8c-2.4,0-4.7,0.6-6.7,1.5l-4-4c-2.9-2.9-7.7-2.9-10.6,0s-2.9,7.7,0,10.6l5.9,5.9
			c0,0.5-0.1,1-0.1,1.5v48.1c0,8.6,7,15.5,15.5,15.5h48.1c8.6,0,15.5-7,15.5-15.5v-49.7l13.8-13.8
			C208.1,224.4,208.1,219.6,205.2,216.7z M176.4,290.8c0,0.3-0.2,0.5-0.5,0.5h-48.1c-0.3,0-0.5-0.2-0.5-0.5v-34.7l13.6,13.6
			c3,3,7,4.5,11,4.5s7.9-1.5,11-4.5l13.6-13.6L176.4,290.8L176.4,290.8z"/>
	</g>
</g>
<g>
	<g>
		<path class="st0" d="M175.8,331.4h-48.1c-8.6,0-15.5,7-15.5,15.5V395c0,8.6,7,15.5,15.5,15.5h48.1c8.6,0,15.5-7,15.5-15.5v-48.1
			C191.4,338.4,184.4,331.4,175.8,331.4z M176.4,395c0,0.3-0.2,0.5-0.5,0.5h-48.1c-0.3,0-0.5-0.2-0.5-0.5v-48.1
			c0-0.3,0.2-0.5,0.5-0.5h48.1c0.3,0,0.5,0.2,0.5,0.5V395z"/>
	</g>
</g>
<g>
	<g>
		<path class="st0" d="M296.1,243.2H224c-4.1,0-7.5,3.4-7.5,7.5s3.4,7.5,7.5,7.5h72.1c4.1,0,7.5-3.4,7.5-7.5
			S300.2,243.2,296.1,243.2z"/>
	</g>
</g>
<g>
	<g>
		<path class="st0" d="M360.2,275.3H223.9c-4.1,0-7.5,3.4-7.5,7.5s3.4,7.5,7.5,7.5h136.3c4.1,0,7.5-3.4,7.5-7.5
			C367.7,278.6,364.4,275.3,360.2,275.3z"/>
	</g>
</g>
<g>
	<g>
		<path class="st0" d="M296.1,347.4H224c-4.1,0-7.5,3.4-7.5,7.5s3.4,7.5,7.5,7.5h72.1c4.1,0,7.5-3.4,7.5-7.5
			S300.2,347.4,296.1,347.4z"/>
	</g>
</g>
<g>
	<g>
		<path class="st0" d="M360.2,379.5H223.9c-4.1,0-7.5,3.4-7.5,7.5s3.4,7.5,7.5,7.5h136.3c4.1,0,7.5-3.4,7.5-7.5
			S364.4,379.5,360.2,379.5z"/>
	</g>
</g>
<g class="st1">
	<path class="st0" d="M110.4,144.5V88.1c0-2.9,0.7-5.1,2-6.6c1.3-1.5,3.1-2.2,5.2-2.2c2.2,0,3.9,0.7,5.3,2.2c1.4,1.4,2,3.7,2,6.6
		v56.4c0,3-0.7,5.2-2,6.6c-1.4,1.5-3.1,2.2-5.3,2.2c-2.1,0-3.8-0.7-5.2-2.2C111.1,149.7,110.4,147.5,110.4,144.5z"/>
	<path class="st0" d="M198.7,143.3c2.1,1.4,4.4,2.8,6.9,4.2c2.5,1.4,4.2,2.4,5,3.2c0.8,0.8,1.2,1.9,1.2,3.4c0,1-0.5,2.1-1.4,3.1
		c-1,1-2.1,1.6-3.5,1.6c-1.1,0-2.4-0.4-4-1.1c-1.6-0.7-3.4-1.8-5.6-3.1c-2.1-1.4-4.5-3-7-4.8c-4.7,2.4-10.5,3.6-17.4,3.6
		c-5.6,0-10.6-0.9-15-2.7c-4.4-1.8-8.1-4.3-11.1-7.7c-3-3.3-5.2-7.3-6.8-11.9s-2.3-9.6-2.3-15c0-5.5,0.8-10.5,2.4-15.1
		c1.6-4.6,3.9-8.5,6.9-11.7c3-3.2,6.6-5.7,10.9-7.4s9.2-2.6,14.6-2.6c7.4,0,13.8,1.5,19.1,4.5c5.3,3,9.4,7.3,12.1,12.8
		c2.7,5.6,4.1,12.1,4.1,19.6C207.9,127.6,204.8,136.6,198.7,143.3z M187.3,135.4c2-2.3,3.5-5,4.5-8.2c1-3.2,1.4-6.8,1.4-11
		c0-5.2-0.8-9.8-2.5-13.6c-1.7-3.8-4.1-6.7-7.3-8.7c-3.1-2-6.7-3-10.8-3c-2.9,0-5.6,0.5-8,1.6c-2.5,1.1-4.6,2.7-6.3,4.8
		c-1.8,2.1-3.2,4.7-4.2,8c-1,3.2-1.5,6.9-1.5,10.9c0,8.2,1.9,14.6,5.8,19c3.8,4.4,8.7,6.7,14.6,6.7c2.4,0,4.9-0.5,7.4-1.5
		c-1.5-1.1-3.4-2.3-5.7-3.4c-2.3-1.1-3.9-2-4.7-2.6c-0.8-0.6-1.3-1.5-1.3-2.6c0-1,0.4-1.8,1.2-2.6c0.8-0.7,1.7-1.1,2.7-1.1
		C175.4,127.9,180.3,130.4,187.3,135.4z"/>
	<path class="st0" d="M281.3,129.5c0,2.3-0.6,4.7-1.7,7.4c-1.1,2.7-2.9,5.3-5.3,7.8c-2.4,2.6-5.5,4.6-9.2,6.2
		c-3.7,1.6-8.1,2.4-13.1,2.4c-3.8,0-7.2-0.4-10.3-1.1c-3.1-0.7-5.9-1.8-8.4-3.3c-2.5-1.5-4.8-3.5-7-6c-1.9-2.2-3.5-4.8-4.8-7.5
		c-1.3-2.8-2.3-5.8-3-8.9c-0.7-3.2-1-6.5-1-10.1c0-5.8,0.8-10.9,2.5-15.5c1.7-4.6,4.1-8.5,7.2-11.7c3.1-3.2,6.8-5.7,11-7.4
		c4.2-1.7,8.7-2.5,13.4-2.5c5.8,0,11,1.2,15.5,3.5c4.5,2.3,8,5.2,10.4,8.6c2.4,3.4,3.6,6.6,3.6,9.6c0,1.7-0.6,3.1-1.8,4.4
		s-2.6,1.9-4.2,1.9c-1.9,0-3.2-0.4-4.2-1.3s-2-2.4-3.1-4.5c-1.9-3.5-4.1-6.2-6.7-8s-5.7-2.6-9.4-2.6c-6,0-10.7,2.3-14.2,6.8
		c-3.5,4.5-5.3,11-5.3,19.3c0,5.6,0.8,10.2,2.3,13.9c1.6,3.7,3.8,6.5,6.6,8.3c2.9,1.8,6.2,2.7,10.1,2.7c4.2,0,7.7-1,10.6-3.1
		c2.9-2.1,5.1-5.1,6.5-9.1c0.6-1.9,1.4-3.4,2.3-4.6c0.9-1.2,2.4-1.8,4.4-1.8c1.7,0,3.2,0.6,4.4,1.8
		C280.7,126.3,281.3,127.8,281.3,129.5z"/>
</g>
</svg>
