<?xml version="1.0" encoding="utf-8"?>
<!-- Generator: Adobe Illustrator 23.0.5, SVG Export Plug-In . SVG Version: 6.00 Build 0)  -->
<svg version="1.1" id="Capa_1" xmlns="http://www.w3.org/2000/svg" xmlns:xlink="http://www.w3.org/1999/xlink" x="0px" y="0px"
	 viewBox="0 0 512 512" style="enable-background:new 0 0 512 512;" xml:space="preserve">
<style type="text/css">
	.st0{fill:#006DC8;}
	.st1{fill:#FFFFFF;stroke:#006DC8;stroke-width:14;stroke-miterlimit:10;}
</style>
<g>
	<g>
		<path class="st0" d="M416.3,99.7c-4.1,0-7.5,3.4-7.5,7.5v371.4c0,0.3-0.2,0.5-0.5,0.5H143.8c-4.1,0-7.5,3.4-7.5,7.5
			s3.4,7.5,7.5,7.5h264.5c8.6,0,15.5-7,15.5-15.5V107.2C423.8,103.1,420.5,99.7,416.3,99.7z"/>
	</g>
</g>
<g>
	<g>
		<path class="st0" d="M181.9,115.4c-2.5-2.5-6.5-2.5-9,0l-36.1,36.1c-0.2,0.2-0.5,0.2-0.6,0l-14.4-14.4h11.1c3.5,0,6.4-2.9,6.4-6.4
			c0-3.5-2.9-6.4-6.4-6.4H116c-2,0-4,0.5-5.7,1.3l-3.4-3.4c-2.5-2.5-6.5-2.5-9,0c-2.5,2.5-2.5,6.5,0,9l5,5c0,0.4-0.1,0.9-0.1,1.3
			v40.9c0,7.3,5.9,13.2,13.2,13.2h40.9c7.3,0,13.2-5.9,13.2-13.2v-42.3l11.8-11.8C184.4,122,184.4,117.9,181.9,115.4z M157.4,178.5
			c0,0.2-0.2,0.4-0.4,0.4H116c-0.2,0-0.4-0.2-0.4-0.4V149l11.6,11.6c2.6,2.6,6,3.9,9.3,3.9c3.4,0,6.8-1.3,9.3-3.9l11.6-11.6
			L157.4,178.5L157.4,178.5z"/>
	</g>
</g>
<g>
	<g>
		<path class="st0" d="M339.2,170.9H223.9c-4.1,0-7.5,3.4-7.5,7.5s3.4,7.5,7.5,7.5h115.3c4.1,0,7.5-3.4,7.5-7.5
			C346.7,174.2,343.4,170.9,339.2,170.9z"/>
	</g>
</g>
<g>
	<g>
		<path class="st0" d="M360.2,142.7H223.9c-4.1,0-7.5,3.4-7.5,7.5s3.4,7.5,7.5,7.5h136.3c4.1,0,7.5-3.4,7.5-7.5
			C367.7,146,364.4,142.7,360.2,142.7z"/>
	</g>
</g>
<path class="st0" d="M371.3,46.3l-25.2-25.2c-4.4-4.4-10.4-6.9-16.6-6.9H71.6c-8.6,0-15.5,7-15.5,15.5v448.9c0,8.6,7,15.5,15.5,15.5
	h16.5v0.6l15-0.5h87.3c4.1,0,7.5-3.4,7.5-7.5c0-4.1-3.4-7.5-7.5-7.5H71.6c-0.3,0-0.5-0.2-0.5-0.5V29.7c0-0.3,0.2-0.5,0.5-0.5h249
	v72.7c0,8.6,7,15.5,15.5,15.5h80.2c4.1,0,7.5-3.4,7.5-7.5v-1.4c0-6.3-2.4-12.2-6.9-16.6l-30.6-30.6 M335.6,31.8l70.6,70.6h-70.1
	c-0.3,0-0.5-0.2-0.5-0.5V31.8z"/>
<path class="st0" d="M108.8,424.5c0,2.7,2.1,4.8,4.7,4.8h24.2c2.6,0,4.7-2.1,4.7-4.8V285.6c0-2.7-2.1-4.8-4.7-4.8h-24.2
	c-2.6,0-4.7,2.1-4.7,4.8V424.5z"/>
<path class="st0" d="M161.8,424.5c0,2.7,2.1,4.8,4.7,4.8h24.2c2.6,0,4.7-2.1,4.7-4.8V251.6c0-2.7-2.1-4.8-4.7-4.8h-24.2
	c-2.6,0-4.7,2.1-4.7,4.8V424.5z"/>
<path class="st0" d="M214.8,424.5c0,2.7,2.1,4.8,4.7,4.8h24.2c2.6,0,4.7-2.1,4.7-4.8v-105c0-2.7-2.1-4.8-4.7-4.8h-24.2
	c-2.6,0-4.7,2.1-4.7,4.8V424.5z"/>
<path class="st0" d="M260.6,424.5c0,2.7,2.1,4.8,4.7,4.8h24.2c2.6,0,4.7-2.1,4.7-4.8v-74.6c0-2.7-2.1-4.8-4.7-4.8h-24.2
	c-2.6,0-4.7,2.1-4.7,4.8V424.5z"/>
<circle class="st1" cx="413.9" cy="362.3" r="83.3"/>
<g>
	<path class="st0" d="M399.4,327.2h24.2v70.4h-15.2v-55.6h-9V327.2z"/>
</g>
</svg>
