<?xml version="1.0" encoding="utf-8"?>
<!-- Generator: Adobe Illustrator 23.0.5, SVG Export Plug-In . SVG Version: 6.00 Build 0)  -->
<svg version="1.1" id="圖層_1" xmlns="http://www.w3.org/2000/svg" xmlns:xlink="http://www.w3.org/1999/xlink" x="0px" y="0px"
	 viewBox="0 0 300 300" style="enable-background:new 0 0 300 300;" xml:space="preserve">
<style type="text/css">
	.st0{fill:#FFFFFF;}
	.st1{fill:#006DC8;}
</style>
<g>
	<g>
		
			<ellipse transform="matrix(0.9239 -0.3827 0.3827 0.9239 -44.8372 54.4392)" class="st0" cx="114.4" cy="139.9" rx="106.9" ry="106.9"/>
	</g>
	<g>
		<path class="st1" d="M114.4,39.5c55.4,0,100.4,45.1,100.4,100.4s-45.1,100.4-100.4,100.4S14,195.3,14,139.9S59,39.5,114.4,39.5
			 M114.4,26.5C51.8,26.5,1,77.3,1,139.9s50.8,113.4,113.4,113.4s113.4-50.8,113.4-113.4S177.1,26.5,114.4,26.5L114.4,26.5z"/>
	</g>
</g>
<g>
	<path class="st1" d="M292.5,274.9c-1.3,0-2.7-0.4-3.8-1.3l-88.6-64.8c-2.9-2.1-3.5-6.2-1.4-9.1c2.1-2.9,6.2-3.5,9.1-1.4l88.5,64.8
		c2.9,2.1,3.5,6.2,1.4,9.1C296.5,274,294.5,274.9,292.5,274.9z"/>
</g>
<g>
	<path class="st1" d="M90.6,183.8c-0.4,0-0.7,0-1.1-0.1c-1.9-0.3-3.6-1.5-4.6-3.3l-26.5-48c-1.7-3.1-0.6-7.1,2.5-8.8
		c3.1-1.7,7.1-0.6,8.8,2.5L92.4,167l103.5-92.4c2.7-2.4,6.8-2.2,9.2,0.5c2.4,2.7,2.2,6.8-0.5,9.2L94.9,182.1
		C93.7,183.2,92.2,183.8,90.6,183.8z"/>
</g>
</svg>
