<?xml version="1.0" encoding="utf-8"?>
<!-- Generator: Adobe Illustrator 23.0.5, SVG Export Plug-In . SVG Version: 6.00 Build 0)  -->
<svg version="1.1" id="Capa_1" xmlns="http://www.w3.org/2000/svg" xmlns:xlink="http://www.w3.org/1999/xlink" x="0px" y="0px"
	 viewBox="0 0 427.3 427.3" style="enable-background:new 0 0 427.3 427.3;" xml:space="preserve">
<style type="text/css">
	.st0{fill:#006DC8;}
	.st1{fill:#FFFFFF;stroke:#006DC8;stroke-width:14;stroke-miterlimit:10;}
	.st2{fill:none;stroke:#3879A5;stroke-width:9;stroke-miterlimit:10;}
	.st3{fill:none;stroke:#006DC8;stroke-width:10;stroke-linecap:round;stroke-linejoin:round;stroke-miterlimit:10;}
	.st4{fill:none;stroke:#006DC8;stroke-width:10;stroke-miterlimit:10;}
	.st5{fill:#FFFFFF;}
</style>
<g>
	<path class="st0" d="M372.6,167.6l-159.3-52.8L54,167.6L3.9,247.2l48,15.9v94.3L213.3,411l161.4-53.5v-94.3l48-15.9L372.6,167.6z
		 M23.1,240.4l37.7-60l0.9,0.3l142,47.1l-37.7,60l-0.9-0.3L23.1,240.4z M207,395.6L64.5,348.4v-81l106.9,35.4l35.7-56.6V395.6z
		 M212.9,217.6L78.2,172.9l135.2-44.8l0.4,0.1l134.8,44.7l-135.2,44.8L212.9,217.6z M362.2,348.4l-0.8,0.3l-141.8,47V246.1
		l35.7,56.6l106.9-35.4V348.4z M260.7,287.7l-37.7-60l1.4-0.5l141.4-46.9l37.7,60l-1.4,0.5L260.7,287.7z"/>
</g>
<g>
	<circle class="st5" cx="214.5" cy="97.9" r="71"/>
	<path class="st0" d="M214.5,174.9c-42.5,0-77-34.5-77-77s34.5-77,77-77s77,34.5,77,77S256.9,174.9,214.5,174.9z M214.5,32.9
		c-35.9,0-65,29.2-65,65s29.2,65,65,65c35.9,0,65-29.2,65-65S250.3,32.9,214.5,32.9z"/>
</g>
<g>
	<g>
		<path class="st0" d="M200.1,129.8c-0.3,0-0.5,0-0.8-0.1c-1.4-0.2-2.6-1.1-3.3-2.3L177.1,93c-1.2-2.2-0.4-5.1,1.8-6.3
			c2.2-1.2,5.1-0.4,6.3,1.8l16.1,29.3l50.5-50.5c1.9-1.7,4.9-1.5,6.6,0.4c1.7,1.9,1.5,4.8-0.4,6.6l-54.9,54.4
			C202.3,129.4,201.2,129.8,200.1,129.8z"/>
		<path class="st0" d="M200.1,131.6c-0.4,0-0.7,0-1.1-0.1c-1.9-0.3-3.6-1.5-4.6-3.2l-18.9-34.4c-0.8-1.5-1-3.2-0.5-4.9
			c0.5-1.7,1.6-3,3.1-3.8c3.1-1.7,7-0.6,8.7,2.5l15,27.2L250.6,66c1.4-1.2,3-1.8,4.7-1.7c1.7,0.1,3.3,0.9,4.4,2.1
			c1.1,1.3,1.7,2.9,1.6,4.7c-0.1,1.7-0.9,3.3-2.1,4.4l-54.8,54.3C203.2,131,201.7,131.6,200.1,131.6z M181.1,87.9
			c-0.5,0-0.9,0.1-1.4,0.4c-0.7,0.4-1.2,1-1.4,1.7c-0.2,0.7-0.1,1.5,0.2,2.2l18.9,34.4c0.4,0.8,1.2,1.3,2,1.4
			c0.9,0.1,1.7-0.1,2.4-0.7L256.8,73c0.6-0.6,1-1.3,1-2c0-0.8-0.2-1.5-0.7-2.1c-0.5-0.6-1.2-0.9-2-0.9c-0.8-0.1-1.5,0.2-2.1,0.7
			l-52.1,52.1l-17.3-31.4C183.1,88.4,182.1,87.9,181.1,87.9z"/>
	</g>
</g>
</svg>
