<?xml version="1.0" encoding="utf-8"?>
<!-- Generator: Adobe Illustrator 23.0.5, SVG Export Plug-In . SVG Version: 6.00 Build 0)  -->
<svg version="1.1" id="Capa_1" xmlns="http://www.w3.org/2000/svg" xmlns:xlink="http://www.w3.org/1999/xlink" x="0px" y="0px"
	 viewBox="0 0 427.3 427.3" style="enable-background:new 0 0 427.3 427.3;" xml:space="preserve">
<style type="text/css">
	.st0{fill:#006DC8;}
	.st1{fill:#FFFFFF;stroke:#006DC8;stroke-width:14;stroke-miterlimit:10;}
	.st2{fill:none;stroke:#3879A5;stroke-width:9;stroke-miterlimit:10;}
	.st3{fill:none;stroke:#006DC8;stroke-width:10;stroke-linecap:round;stroke-linejoin:round;stroke-miterlimit:10;}
	.st4{fill:none;stroke:#006DC8;stroke-width:10;stroke-miterlimit:10;}
	.st5{fill:#FFFFFF;}
</style>
<g>
	<line class="st3" x1="168.4" y1="254.9" x2="25.1" y2="198.8"/>
	<polyline class="st3" points="24.9,199.3 100.7,127.8 243.9,183.7 168.3,255.4 	"/>
	<polyline class="st3" points="168.3,255.4 168.3,355.6 25,299.4 25,199.3 	"/>
	<polyline class="st4" points="243.9,183.7 243.9,283.8 168.3,355.6 	"/>
	<line class="st4" x1="62.3" y1="161.7" x2="207.9" y2="218.1"/>
</g>
<g>
	<path class="st0" d="M414.3,126.7c-0.4-2.9-1.6-5.5-3.7-7.6l-17-17l-8.3-8.3l-14-14c-2.5-2.5-5.7-3.8-9.2-3.8H219
		c-4.7,0-8.6,3.9-8.6,8.6v249c0,4.7,3.9,8.6,8.6,8.6h9.2v0.3l8.3-0.3H259H285h120.8c4.7,0,8.6-3.9,8.6-8.6V129.1v-0.8v-0.7
		C414.4,127.3,414.3,127,414.3,126.7z"/>
	<path class="st5" d="M365.5,85.8l39.2,39.2h-38.9c-0.2,0-0.3-0.1-0.3-0.3V85.8z"/>
	<path class="st5" d="M405.8,334H285H259h-40c-0.2,0-0.3-0.1-0.3-0.3v-249c0-0.2,0.1-0.3,0.3-0.3h138.1v40.3c0,4.7,3.9,8.6,8.6,8.6
		h40.3v200.4C406.1,333.8,405.9,334,405.8,334z"/>
	<g>
		<g>
			<path class="st0" d="M292.1,137.7c-1.6-1.6-4.3-1.6-5.9,0l-23.5,23.5c-0.1,0.1-0.3,0.1-0.4,0l-9.4-9.4h7.2c2.3,0,4.2-1.9,4.2-4.2
				c0-2.3-1.9-4.2-4.2-4.2h-11c-1.3,0-2.6,0.3-3.7,0.8l-2.2-2.2c-1.6-1.6-4.3-1.6-5.9,0c-1.6,1.6-1.6,4.3,0,5.9l3.3,3.3
				c0,0.3-0.1,0.6-0.1,0.8v26.7c0,4.8,3.9,8.6,8.6,8.6h26.7c4.8,0,8.6-3.9,8.6-8.6v-27.6l7.7-7.7C293.7,142,293.7,139.3,292.1,137.7
				z M276.2,178.8c0,0.2-0.1,0.3-0.3,0.3h-26.7c-0.2,0-0.3-0.1-0.3-0.3v-19.2l7.5,7.5c1.7,1.7,3.9,2.5,6.1,2.5
				c2.2,0,4.4-0.8,6.1-2.5l7.5-7.5L276.2,178.8L276.2,178.8z"/>
		</g>
	</g>
	<g>
		<g>
			<path class="st0" d="M275.8,201.4h-26.7c-4.8,0-8.6,3.9-8.6,8.6v26.7c0,4.8,3.9,8.6,8.6,8.6h26.7c4.8,0,8.6-3.9,8.6-8.6V210
				C284.5,205.3,280.6,201.4,275.8,201.4z M276.2,236.6c0,0.2-0.1,0.3-0.3,0.3h-26.7c-0.2,0-0.3-0.1-0.3-0.3V210
				c0-0.2,0.1-0.3,0.3-0.3h26.7c0.2,0,0.3,0.1,0.3,0.3V236.6z"/>
		</g>
	</g>
	<g>
		<g>
			<path class="st0" d="M342.6,152.4h-40c-2.3,0-4.2,1.9-4.2,4.2c0,2.3,1.9,4.2,4.2,4.2h40c2.3,0,4.2-1.9,4.2-4.2
				S344.8,152.4,342.6,152.4z"/>
		</g>
	</g>
	<g>
		<g>
			<path class="st0" d="M378.1,170.2h-75.6c-2.3,0-4.2,1.9-4.2,4.2c0,2.3,1.9,4.2,4.2,4.2h75.6c2.3,0,4.2-1.9,4.2-4.2
				C382.3,172.1,380.4,170.2,378.1,170.2z"/>
		</g>
	</g>
	<g>
		<g>
			<path class="st0" d="M342.6,210.2h-40c-2.3,0-4.2,1.9-4.2,4.2c0,2.3,1.9,4.2,4.2,4.2h40c2.3,0,4.2-1.9,4.2-4.2
				C346.7,212.1,344.8,210.2,342.6,210.2z"/>
		</g>
	</g>
	<g>
		<g>
			<path class="st0" d="M378.1,228h-75.6c-2.3,0-4.2,1.9-4.2,4.2c0,2.3,1.9,4.2,4.2,4.2h75.6c2.3,0,4.2-1.9,4.2-4.2
				C382.3,229.9,380.4,228,378.1,228z"/>
		</g>
	</g>
	<g>
		<g>
			<path class="st0" d="M275.8,260h-26.7c-4.8,0-8.6,3.9-8.6,8.6v26.7c0,4.8,3.9,8.6,8.6,8.6h26.7c4.8,0,8.6-3.9,8.6-8.6v-26.7
				C284.5,263.9,280.6,260,275.8,260z M276.2,295.3c0,0.2-0.1,0.3-0.3,0.3h-26.7c-0.2,0-0.3-0.1-0.3-0.3v-26.7
				c0-0.2,0.1-0.3,0.3-0.3h26.7c0.2,0,0.3,0.1,0.3,0.3V295.3z"/>
		</g>
	</g>
	<g>
		<g>
			<path class="st0" d="M342.6,268.8h-40c-2.3,0-4.2,1.9-4.2,4.2c0,2.3,1.9,4.2,4.2,4.2h40c2.3,0,4.2-1.9,4.2-4.2
				C346.7,270.7,344.8,268.8,342.6,268.8z"/>
		</g>
	</g>
	<g>
		<g>
			<path class="st0" d="M378.1,286.7h-75.6c-2.3,0-4.2,1.9-4.2,4.2s1.9,4.2,4.2,4.2h75.6c2.3,0,4.2-1.9,4.2-4.2
				S380.4,286.7,378.1,286.7z"/>
		</g>
	</g>
</g>
</svg>
