<?xml version="1.0" encoding="utf-8"?>
<!-- Generator: Adobe Illustrator 23.0.5, SVG Export Plug-In . SVG Version: 6.00 Build 0)  -->
<svg version="1.1" id="圖層_1" xmlns="http://www.w3.org/2000/svg" xmlns:xlink="http://www.w3.org/1999/xlink" x="0px" y="0px"
	 viewBox="0 0 300 300" style="enable-background:new 0 0 300 300;" xml:space="preserve">
<style type="text/css">
	.st0{fill:#006DC8;}
</style>
<path class="st0" d="M111.3,284.7c1.4,0,2.7-0.7,3.4-1.9l1.5-2.4l2.4,1.4c3.4,1.9,7.2,2.9,11.1,2.9c0,0,0,0,0,0h92.2c0,0,0,0,0,0
	c9.8,0,17.8-8,17.8-17.8c0-3.5-1-6.9-2.9-9.8l-1.4-2.2l2.1-1.6c0.6-0.5,1.1-0.9,1.7-1.5c5.9-5.9,6.9-15.3,2.3-22.4l-1.4-2.2l2.1-1.6
	c0.6-0.5,1.1-0.9,1.7-1.5c6.7-6.7,7-17.5,0.7-24.5l-1.7-1.9l1.7-1.9c3.2-3.6,4.8-8.1,4.5-12.9c-0.3-4.8-2.4-9.1-5.9-12.3
	c-3.3-2.9-7.5-4.6-11.9-4.6h-46.7v-27.7c0-4.8,0-12.8-4-19.6c-4.9-8.4-14.2-12.7-27.7-12.7c-2.2,0-4,1.8-4,4v36.3l-13.1,21.4
	L115.3,181v-11c0-2.2-1.8-4-4-4H65.2c-2.2,0-4,1.8-4,4v110.6c0,2.2,1.8,4,4,4H111.3z M115.3,190.6l26.4-17.2
	c0.9-0.6,1.6-1.6,1.8-2.7l0.1-0.5l12.6-20.5c0.4-0.6,0.6-1.4,0.6-2.1v-33.4l3.4,0.6c16.2,2.8,16.2,15.8,16.2,23.6V170
	c0,2.2,1.8,4,4,4h50.7c5.4,0,9.8,4.4,9.8,9.8s-4.4,9.8-9.8,9.8h-13.8c-2.2,0-4,1.8-4,4s1.8,4,4,4h13.8c5.4,0,9.8,4.4,9.8,9.8
	s-4.4,9.8-9.8,9.8h-13.8c-2.2,0-4,1.8-4,4s1.8,4,4,4h9.2c5.4,0,9.8,4.4,9.8,9.8s-4.4,9.8-9.8,9.8h-9.2c-2.2,0-4,1.8-4,4s1.8,4,4,4
	h4.6c0,0,0,0,0,0c2.6,0,5.1,1,6.9,2.9c1.9,1.8,2.9,4.3,2.9,6.9c0,2.6-1,5.1-2.9,6.9c-1.8,1.8-4.3,2.9-6.9,2.9c0,0,0,0,0,0h-92.2
	c-7.9,0-14.4-6.5-14.4-14.4V190.6z M69.2,174h38v102.6h-38V174z"/>
<circle class="st0" cx="88.2" cy="264.8" r="4"/>
<path class="st0" d="M196.9,35.8l-18.3-2.7l-8.2-16.6c-0.7-1.4-2.4-2-3.8-1.3c-0.6,0.3-1,0.7-1.3,1.3l-8.2,16.6L139,35.8
	c-0.7,0.1-1.4,0.5-1.9,1.1c-0.5,0.6-0.6,1.3-0.5,2.1c0.1,0.6,0.4,1.2,0.8,1.6l13.2,12.9l-3.1,18.2c-0.3,1.5,0.8,3,2.3,3.3
	c0.6,0.1,1.2,0,1.8-0.3l16.4-8.6l16.4,8.6c1,0.6,2.2,0.2,2.9-0.3c0.7-0.5,1.4-1.5,1.2-2.7l0-0.1l-3.1-18.2l13.2-12.9
	c0.5-0.5,0.8-1.2,0.9-2c0-0.8-0.3-1.5-0.8-2C198.1,36.2,197.6,35.9,196.9,35.8z M180.3,50.5c-0.7,0.6-1,1.6-0.8,2.5l2.4,14
	l-12.6-6.6c-0.8-0.4-1.8-0.4-2.6,0L154,67l2.4-14c0.2-0.9-0.1-1.9-0.8-2.5l-10.2-9.9l14.1-2c0.9-0.1,1.7-0.7,2.1-1.5l6.3-12.8
	l6.3,12.8c0.4,0.8,1.2,1.4,2.1,1.5l14.1,2L180.3,50.5z"/>
<path class="st0" d="M227,103c0.3,0.3,0.8,0.4,1.2,0.4l13.2,0.2l7.3,11c0.5,0.7,1.3,0.9,1.9,0.8c0.6-0.1,1.4-0.5,1.6-1.3l0,0
	l4.3-12.5l12.7-3.6c0.5-0.1,0.9-0.5,1.2-1c0.3-0.5,0.3-1,0.2-1.5c-0.1-0.4-0.4-0.8-0.7-1.1l0,0l-10.6-7.9l0.5-13.2
	c0-1.1-0.8-2.1-1.9-2.1c-0.4,0-0.9,0.1-1.2,0.4l-10.8,7.6l-12.4-4.6c-0.2-0.1-0.5-0.1-0.7-0.1c-0.3,0-0.6,0.1-0.8,0.2
	c-0.5,0.2-0.9,0.6-1,1.1c-0.2,0.4-0.2,0.9,0,1.3l3.9,12.6l-8.2,10.4c-0.3,0.4-0.5,0.9-0.4,1.5C226.3,102.2,226.6,102.7,227,103z
	 M238.7,91.5c0.4-0.5,0.5-1.2,0.3-1.8l-3-9.7l9.5,3.5c0.6,0.2,1.3,0.1,1.9-0.2l8.3-5.9l-0.4,10.2c0,0.7,0.3,1.3,0.8,1.7l8.1,6.1
	l-9.8,2.7c-0.6,0.2-1.1,0.7-1.4,1.3l-3.3,9.6l-5.6-8.5c-0.4-0.6-1-0.9-1.6-0.9l-10.2-0.2L238.7,91.5z"/>
<path class="st0" d="M20.4,99.3c-0.2,1.1,0.1,2.1,0.8,3c0.5,0.7,1.3,1.2,2.1,1.5l25.4,7.1l8.6,25.1c0.5,1.6,2,2.4,3.3,2.6
	c1.3,0.2,2.9-0.2,3.8-1.6l0-0.1l14.6-22l26.4-0.4l0,0c1.7,0,2.9-1.2,3.4-2.3c0.5-1.1,0.7-2.8-0.4-4.1l-0.1-0.1L92.1,87.2L99.9,62
	c0.3-1,0.2-2.1-0.3-3.1c-0.5-1-1.3-1.7-2.4-2c-0.8-0.3-1.8-0.2-2.6,0.1l-24.7,9.2L48.3,51c-0.7-0.5-1.5-0.7-2.3-0.7
	c-0.2,0-0.5,0-0.7,0.1c-1.1,0.2-2,0.8-2.6,1.7c-0.5,0.7-0.8,1.6-0.7,2.5L43,80.8L21.9,96.6C21.1,97.3,20.5,98.2,20.4,99.3z M49.6,86
	c1.1-0.8,1.7-2.1,1.6-3.4l-0.8-20.3L67,74c1.1,0.8,2.5,0.9,3.7,0.5l19.1-7.1l-6,19.4c-0.4,1.3-0.1,2.6,0.7,3.7l12.6,16l-20.3,0.3
	c-1.3,0-2.5,0.7-3.2,1.7l-11.3,17l-6.6-19.2c-0.4-1.3-1.4-2.2-2.7-2.6l-19.6-5.5L49.6,86z"/>
</svg>
