<?xml version="1.0" encoding="utf-8"?>
<!-- Generator: Adobe Illustrator 23.0.5, SVG Export Plug-In . SVG Version: 6.00 Build 0)  -->
<svg version="1.1" id="圖層_1" xmlns="http://www.w3.org/2000/svg" xmlns:xlink="http://www.w3.org/1999/xlink" x="0px" y="0px"
	 viewBox="0 0 546.2 99.7" style="enable-background:new 0 0 546.2 99.7;" xml:space="preserve">
<style type="text/css">
	.st0{fill:#006DC8;}
</style>
<g>
	<g>
		<path class="st0" d="M63.7,13L25,52.5l21,21.6l17-17.5c0.9-1.2,0.8-2.9-0.2-4c-1.1-1.3-3.1-1.4-4.4-0.3c-0.1,0.1-0.2,0.2-0.3,0.3
			c-0.7,0.8-12.3,12.8-12.3,12.8L33.6,52.5l17.7-18.1l29,29.9L46,99.7L0,52.5L51.4,0L63.7,13z"/>
		<circle class="st0" cx="67.9" cy="30" r="9.1"/>
		<path class="st0" d="M72.1,47l12.4-12.8l13,13.5c0,0,6.6,6.5,6.6,14.4v37.6H54.4l30.2-31c2-2,2.3-5.2,0.8-7.6L72.1,47z"/>
	</g>
	<g>
		<path class="st0" d="M151,68.4h8.5c-0.2-3-0.7-6.1-1.7-8.9c-1.4-2.8-6.3-4-10.3-4.5c-5.6-0.5-11.1-0.3-16.7,0.5
			c-3.1,0.5-5.7,2.4-7.5,5c-1.6,2.6-2.3,5.4-2.3,8.3c0,2.3-0.5,15.1,0,18.1c0.3,3.1,1.4,6.1,3.3,8.5c2.3,2.6,9.4,4,16.5,4
			s12.7,0,15.8-3.7c3.1-3.7,2.8-13,2.6-20h-19.7v6.3H151c0,0,0.5,6.6-1.4,8.5c-1.9,1.9-4.7,2.1-10.3,2.1c-5.6,0-8.5-1-9.2-3.8
			c-0.9-4.9-1-9.9-0.9-15c0-7.1,0.9-10.1,3.3-11.1s7.3-1,9.7-1c2.4,0,6.3,0.2,7.1,1.4C150.6,64.5,151.2,66.4,151,68.4z"/>
		<path class="st0" d="M218,68.4h8.5c-0.2-3-0.7-6.1-1.7-8.9c-1.4-2.8-6.3-4-10.3-4.5c-5.6-0.5-11.1-0.3-16.7,0.5
			c-3.1,0.7-5.7,2.4-7.5,5c-1.4,2.6-2.3,5.4-2.3,8.3c-0.3,6.1-0.3,12,0,18.1c0.3,3.1,1.4,6.1,3.3,8.5c2.3,2.6,9.4,4,16.5,4
			c7.1,0,12.7,0,15.8-3.7c3.1-3.7,2.8-13,2.6-20h-19.7v6.3H218c0,0,0.5,6.6-1.4,8.5c-1.9,1.9-4.7,2.1-10.3,2.1c-5.6,0-8.5-1-9.2-3.8
			c-0.9-4.9-1-9.9-0.9-15c0-7.1,0.9-10.1,3.3-11.1s7.3-1,9.7-1s6.3,0.2,7.1,1.4C217.6,64.5,218.1,66.4,218,68.4z"/>
		<rect x="169.1" y="55.1" class="st0" width="8.5" height="44.5"/>
		<path class="st0" d="M258.8,54.8h-12.2l-15,44.9h8.9l2.8-8.9h19.1l3,8.9h8.7L258.8,54.8z M245.1,84.5l7.8-23.1l7.7,23.1H245.1z"/>
		<polygon class="st0" points="278,54.8 278,62.4 290.7,62.4 290.7,99.5 299.2,99.5 299.2,62.4 312.1,62.4 312.1,54.8 		"/>
		<polygon class="st0" points="319,54.8 319,99.5 349.3,99.5 349.3,92.5 327.2,92.5 327.2,79.7 348.1,79.7 348.1,73.8 327.2,73.8 
			327.2,61.9 349.3,61.9 349.3,54.8 		"/>
		<polygon class="st0" points="360.2,54.8 368.8,54.8 368.8,73.4 372.8,73.4 387.9,54.8 398.2,54.8 379.9,76.7 399.9,99.5 
			389.1,99.5 372.6,80.4 368.6,80.4 368.6,99.5 360.2,99.5 		"/>
		<rect x="421.1" y="54.8" class="st0" width="8.3" height="44.9"/>
		<polygon class="st0" points="440.9,99.5 440.9,54.8 455.2,54.8 474.2,92.4 474.2,54.8 482.2,54.8 482.2,99.5 468.1,99.5 
			448.9,61.7 448.9,99.5 		"/>
		<path class="st0" d="M520.8,70.1h8.7c0,0,0.2-8.7-2.6-11.5s-6.8-3.7-11-3.7c-4.2,0-12,0.3-15.7,1.7c-3.5,1-6.1,4-7,7.7
			c-0.7,3.5-0.9,7-0.9,10.4c0,4.9,0.3,9.9,0.9,14.8c0.5,3.1,2.3,6.1,4.9,8c2.8,2.3,11,2.1,14.3,2.1c3.8,0.2,7.7-0.3,11.3-1.6
			c3.3-1.4,5.6-4.7,5.7-8.3v-6.1h-8.2v4c0,0,1,5.4-8.5,4.9s-9.4-1-10.8-3.8c-1.4-2.8-0.9-14.1-0.9-16.2s0-6.4,1.4-8
			c1.4-1.6,2.1-2.4,9.4-2.4c7.3,0,7.5,0.9,8.2,1.9c0.5,1,0.7,2.1,0.7,3.1L520.8,70.1z"/>
		<rect x="538" y="91.5" class="st0" width="8.2" height="8.2"/>
	</g>
</g>
</svg>
