<?xml version="1.0" encoding="utf-8"?>
<!-- Generator: Adobe Illustrator 23.0.5, SVG Export Plug-In . SVG Version: 6.00 Build 0)  -->
<svg version="1.1" id="圖層_1" xmlns="http://www.w3.org/2000/svg" xmlns:xlink="http://www.w3.org/1999/xlink" x="0px" y="0px"
	 viewBox="0 0 104 99.7" style="enable-background:new 0 0 104 99.7;" xml:space="preserve">
<style type="text/css">
	.st0{fill:#006DC8;}
</style>
<g>
	<path class="st0" d="M63.7,13L25,52.5l21,21.6l17-17.5c0.9-1.2,0.8-2.9-0.2-4c-1.1-1.3-3.1-1.4-4.4-0.3c-0.1,0.1-0.2,0.2-0.3,0.3
		c-0.7,0.8-12.3,12.8-12.3,12.8L33.6,52.5l17.7-18.1l29,29.9L46,99.7L0,52.5L51.4,0L63.7,13z"/>
	<circle class="st0" cx="67.9" cy="30" r="9.1"/>
	<path class="st0" d="M72.1,47l12.4-12.8l13,13.5c0,0,6.6,6.5,6.6,14.4v37.6H54.4l30.2-31c2-2,2.3-5.2,0.8-7.6L72.1,47z"/>
</g>
</svg>
