<?xml version="1.0" encoding="utf-8"?>
<!-- Generator: Adobe Illustrator 23.0.5, SVG Export Plug-In . SVG Version: 6.00 Build 0)  -->
<svg version="1.1" id="圖層_1" xmlns="http://www.w3.org/2000/svg" xmlns:xlink="http://www.w3.org/1999/xlink" x="0px" y="0px"
	 viewBox="0 0 512 512" style="enable-background:new 0 0 512 512;" xml:space="preserve">
<style type="text/css">
	.st0{fill:#FFFFFF;}
</style>
<path class="st0" d="M375.2,276c-10.9,0-19.7,8.8-19.7,19.7v158c0,10.9-8.8,19.7-19.7,19.7H59.2c-10.9,0-19.7-8.9-19.7-19.7V177.2
	c0-10.9,8.8-19.7,19.7-19.7h158c10.9,0,19.7-8.8,19.7-19.7s-8.8-19.8-19.7-19.8h-158C26.6,118,0,144.6,0,177.2v276.5
	C0,486.4,26.6,513,59.2,513h276.5c32.7,0,59.2-26.6,59.2-59.2v-158C395,284.8,386.2,276,375.2,276z"/>
<path class="st0" d="M135.5,302.1c-1.5,1.5-2.5,3.4-2.9,5.4l-15.1,75.4c-0.7,3.5,0.4,7.1,2.9,9.6c2,2,4.8,3.1,7.6,3.1
	c0.7,0,1.4-0.1,2.1-0.2l75.4-15.1c2.1-0.4,4-1.4,5.5-2.9l168.8-168.8l-75.4-75.4L135.5,302.1z"/>
<path class="st0" d="M431.9,81.1c-20.8-20.8-54.6-20.8-75.4,0L327,110.6l75.4,75.4l29.5-29.5c10.1-10,15.6-23.4,15.6-37.7
	S442,91.2,431.9,81.1z"/>
</svg>
