<?xml version="1.0" encoding="utf-8"?>
<!-- Generator: Adobe Illustrator 23.0.5, SVG Export Plug-In . SVG Version: 6.00 Build 0)  -->
<svg version="1.1" id="Capa_1" xmlns="http://www.w3.org/2000/svg" xmlns:xlink="http://www.w3.org/1999/xlink" x="0px" y="0px"
	 viewBox="0 0 25.6 25.6" style="enable-background:new 0 0 25.6 25.6;" xml:space="preserve">
<style type="text/css">
	.st0{fill:#006DC8;}
</style>
<g>
	<path class="st0" d="M22.1,17.8c-1.5-1.3-3.1-2.1-4.6-0.8l-0.9,0.8c-0.7,0.6-1.9,3.3-6.7-2.2c-4.8-5.5-1.9-6.4-1.3-7l0.9-0.8
		c1.5-1.3,0.9-3-0.1-4.7l-0.7-1C7.5,0.4,6.3-0.7,4.8,0.6L4,1.3C3.3,1.8,1.4,3.4,1,6.4c-0.6,3.6,1.2,7.8,5.2,12.4
		c4,4.6,7.9,6.9,11.5,6.8c3.1,0,4.9-1.7,5.5-2.3l0.8-0.7c1.5-1.3,0.6-2.7-1-4L22.1,17.8z"/>
</g>
</svg>
