<?xml version="1.0" encoding="utf-8"?>
<!-- Generator: Adobe Illustrator 23.0.5, SVG Export Plug-In . SVG Version: 6.00 Build 0)  -->
<svg version="1.1" id="Capa_1" xmlns="http://www.w3.org/2000/svg" xmlns:xlink="http://www.w3.org/1999/xlink" x="0px" y="0px"
	 viewBox="0 0 224.5 224.5" style="enable-background:new 0 0 224.5 224.5;" xml:space="preserve">
<style type="text/css">
	.st0{fill:#006DC8;}
</style>
<path class="st0" d="M112.2,2.5C51.7,2.5,2.5,51.7,2.5,112.2C2.5,172.8,51.7,222,112.2,222c60.5,0,109.7-49.2,109.7-109.7
	C222,51.7,172.8,2.5,112.2,2.5z M112.2,207.7c-52.6,0-95.4-42.8-95.4-95.4s42.8-95.4,95.4-95.4s95.4,42.8,95.4,95.4
	S164.9,207.7,112.2,207.7z"/>
<g>
	<path class="st0" d="M112.2,33.1c-43.7,0-79.2,35.5-79.2,79.2c0,43.7,35.5,79.2,79.2,79.2c43.7,0,79.2-35.5,79.2-79.2
		C191.4,68.6,155.9,33.1,112.2,33.1z M140.1,97.2l-0.6,1.7h-19.7v-1.8c0-3.3-0.6-5.7-1.8-7.2c-1.1-1.4-2.6-2.1-4.5-2.1
		c-1.9,0-3.1,0.5-4,1.6c-0.9,1.2-1.4,2.7-1.4,4.7c0,2,0.5,3.5,1.5,4.6c1.1,1.3,3.2,2.6,6.4,4c8,3.4,14,6.9,17.9,10.4
		c4.1,3.7,6.1,8.9,6.1,15.7c0,6.4-2.3,11.6-6.3,15.5c-3.7,3.6-8.8,5.8-14.8,6.7v12h-11v-12c-7-0.9-11.6-3.3-15.9-7.2
		c-4.7-4.3-7.1-10.6-7-18.7l0-0.4l0.8-1.6h18.9v1.8c0,3.7,1.1,6.4,2.6,7.9c1.5,1.5,3.7,2.3,6.2,2.3c2,0,3.4-0.5,4.3-1.6
		c1-1.1,1.5-2.6,1.5-4.5c0-2.3-0.5-4-1.5-5.1c-1.1-1.3-3.3-2.6-6.3-3.9c-8.1-3.2-14.3-6.6-18.1-10c-4-3.6-6.1-8.9-6.1-15.8
		c0-6.2,1.8-11.4,6-15.5c3.8-3.7,9.5-6,14.5-6.8V60.9h12V72c5,1.1,10.9,3.8,14.4,7.9c3.8,4.5,6,10.2,5.8,17L140.1,97.2z"/>
</g>
</svg>
