<?xml version="1.0" encoding="utf-8"?>
<!-- Generator: Adobe Illustrator 23.0.5, SVG Export Plug-In . SVG Version: 6.00 Build 0)  -->
<svg version="1.1" id="圖層_1" xmlns="http://www.w3.org/2000/svg" xmlns:xlink="http://www.w3.org/1999/xlink" x="0px" y="0px"
	 viewBox="0 0 1000 1000" style="enable-background:new 0 0 1000 1000;" xml:space="preserve">
<style type="text/css">
	.st0{fill:#006DC8;}
</style>
<path class="st0" d="M916.2,214.6c-1.4-16.3-13.9-29.3-30.2-31.4C762.2,167,670.3,124,615,90.7c-60.2-36.2-91.5-60.2-91.7-60.5
	c-6.6-7.1-15.9-11.2-25.6-11.2s-18.9,4-25.5,11.1c-0.3,0.3-31.5,24.4-91.7,60.6c-55.3,33.3-147.2,76.4-271,92.4
	c-16.3,2.2-28.9,15.2-30.2,31.4c-0.5,6-11.5,148.2,31.8,311.8c25.6,97.2,70.2,181.8,122.5,251.4c66.1,88,147.6,152,252.1,190
	c3.9,1.5,7.9,2.2,12,2.2c4.1,0,8.1-0.8,12-2.2c104.5-38,186-101.8,252.1-189.9c52.3-69.6,96.8-154.2,122.5-251.4
	C927.6,362.7,916.6,220.5,916.2,214.6z M728.8,405.1L477.7,713.5L309.3,547.2c-13.8-13.6-13.9-35.7-0.3-49.5
	c13.6-13.8,35.7-13.9,49.5-0.3l113.6,112.2l202.5-248.7c12.2-15,34.2-17.3,49.2-5S741,390.1,728.8,405.1z"/>
</svg>
