<?xml version="1.0" encoding="utf-8"?>
<!-- Generator: Adobe Illustrator 23.0.5, SVG Export Plug-In . SVG Version: 6.00 Build 0)  -->
<svg version="1.1" id="圖層_1" xmlns="http://www.w3.org/2000/svg" xmlns:xlink="http://www.w3.org/1999/xlink" x="0px" y="0px"
	 viewBox="0 0 576 626" style="enable-background:new 0 0 576 626;" xml:space="preserve">
<style type="text/css">
	.st0{fill:#006DC8;}
</style>
<path class="st0" d="M0.5,194v352c0,26.5,21.5,48,48,48h48V146h-48C22,146,0.5,167.5,0.5,194z M128.5,594h320V146h-320V594z
	 M192.5,346c0-4.4,3.6-8,8-8h56v-56c0-4.4,3.6-8,8-8h48c4.4,0,8,3.6,8,8v56h56c4.4,0,8,3.6,8,8v48c0,4.4-3.6,8-8,8h-56v56
	c0,4.4-3.6,8-8,8h-48c-4.4,0-8-3.6-8-8v-56h-56c-4.4,0-8-3.6-8-8V346z M528.5,146h-48v448h48c26.5,0,48-21.5,48-48V194
	C576.5,167.5,555,146,528.5,146z"/>
<g>
	<path class="st0" d="M389.6,258.5H187.3c-17.8,0-32.2-14.5-32.2-32.2v-144c0-17.8,14.5-32.2,32.2-32.2h202.3
		c17.8,0,32.2,14.5,32.2,32.2v144C421.9,244,407.4,258.5,389.6,258.5z M203.6,209.9h169.6V98.6H203.6V209.9z"/>
</g>
</svg>
