<svg xmlns="http://www.w3.org/2000/svg" xmlns:xlink="http://www.w3.org/1999/xlink" viewBox="0 0 1170.43 918"><defs><clipPath id="a"><circle cx="460.78" cy="461.98" r="445" fill="none"/></clipPath></defs><title>資產 4</title><path d="M1159.82,128.73A340.16,340.16,0,0,0,819.21,468.41C819,656.27,971,808.77,1158.9,809c3.86,0,7.7-.08,11.53-.2V128.92c-3.52-.11-7-.19-10.6-.19Z" fill="none"/><path d="M1158.9,809C971,808.77,819,656.27,819.21,468.41a340.16,340.16,0,0,1,340.61-339.68h0c3.55,0,7.08.08,10.6.19v-19c-3.52-.1-7-.16-10.6-.16v0c-199,0-360.25,161.29-360.25,360.25s161.29,360.26,360.25,360.26c3.55,0,7.09-.06,10.61-.16V808.83C1166.6,809,1162.76,809,1158.9,809Z" fill="#e0e0e0"/><g clip-path="url(#a)"><image width="900" height="900" transform="scale(1.02)" xlink:href="../../../index_demo_01.jpg" style="isolation:isolate"/></g></svg>