<?xml version="1.0" encoding="utf-8"?>
<!-- Generator: Adobe Illustrator 23.0.5, SVG Export Plug-In . SVG Version: 6.00 Build 0)  -->
<svg version="1.1" id="圖層_1" xmlns="http://www.w3.org/2000/svg" xmlns:xlink="http://www.w3.org/1999/xlink" x="0px" y="0px"
	 viewBox="0 0 273.2 55.9" style="enable-background:new 0 0 273.2 55.9;" xml:space="preserve">
<style type="text/css">
	.st0{fill:none;stroke:#DCDDDD;stroke-width:0.592;}
	.st1{fill-rule:evenodd;clip-rule:evenodd;fill:#2150A2;}
	.st2{fill:none;stroke:#DCDDDD;stroke-width:0.592;stroke-miterlimit:22.926;}
	.st3{fill-rule:evenodd;clip-rule:evenodd;fill:#E72119;}
	.st4{fill:none;}
</style>
<g>
	<path d="M138.9,44.5c0,1.3,0,2.3-0.1,2.9c0,0.4-0.1,0.7-0.4,0.7c-0.1,0-0.3,0.1-0.5,0.1c-0.2,0-0.2,0-0.2,0.1
		c0,0.1,0.1,0.1,0.3,0.1c0.5,0,1.4,0,1.7,0c0.4,0,1.2,0,2.1,0c0.1,0,0.3,0,0.3-0.1c0-0.1-0.1-0.1-0.2-0.1c-0.2,0-0.5,0-0.7-0.1
		c-0.4-0.1-0.5-0.4-0.5-0.7c-0.1-0.6-0.1-1.7-0.1-2.9V39l1.7,0c1.2,0,1.6,0.4,1.6,0.8l0,0.1c0,0.2,0,0.3,0.2,0.3
		c0.1,0,0.1-0.1,0.1-0.2c0-0.4,0-1.3,0-1.6c0-0.2,0-0.3-0.1-0.3c-0.1,0-0.2,0-0.4,0.1c-0.2,0-0.5,0.1-0.9,0.1h-5.4
		c-0.5,0-1,0-1.4-0.1c-0.3,0-0.5-0.2-0.6-0.2c-0.1,0-0.1,0.1-0.2,0.3c0,0.1-0.3,1.3-0.3,1.6c0,0.1,0,0.2,0.1,0.2
		c0.1,0,0.1-0.1,0.2-0.2c0-0.1,0.1-0.3,0.2-0.5c0.2-0.3,0.5-0.4,1.3-0.4l2-0.1V44.5z"/>
	<path d="M188.1,44.5c0,1.3,0,2.3-0.1,2.9c-0.1,0.4-0.1,0.7-0.4,0.7c-0.1,0-0.3,0.1-0.5,0.1c-0.2,0-0.2,0-0.2,0.1
		c0,0.1,0.1,0.1,0.3,0.1c0.5,0,1.4,0,1.7,0c0.4,0,1.2,0,2.1,0c0.1,0,0.3,0,0.3-0.1c0-0.1-0.1-0.1-0.2-0.1c-0.2,0-0.5,0-0.7-0.1
		c-0.4-0.1-0.5-0.4-0.5-0.7c-0.1-0.6-0.1-1.7-0.1-2.9v-5.4c0-0.1,0-0.2,0.1-0.3c0.1,0,0.3-0.1,0.5-0.1c0.3,0,0.9,0.1,1.4,0.5
		c0.8,0.7,0.8,1.6,0.8,2c0,1.4-1.1,2.2-1.8,2.2c-0.3,0-0.4,0-0.4,0.1c0,0.1,0.1,0.1,0.2,0.1c0.1,0,0.2,0,0.3,0
		c1.9,0,3.4-1.4,3.4-3.3c0-0.7-0.4-1.3-0.7-1.6c-0.2-0.2-0.8-0.8-2.5-0.8c-0.6,0-1.4,0-2,0c-0.4,0-1.2,0-2,0c-0.2,0-0.3,0-0.3,0.1
		c0,0.1,0.1,0.1,0.2,0.1c0.2,0,0.4,0,0.5,0c0.4,0.1,0.6,0.3,0.6,0.8c0,0.4,0,0.8,0,2.9V44.5z"/>
	<path d="M245,48.7c0.9,0,1.9-0.1,2.5-0.3c0.2-0.1,0.3-0.2,0.4-0.4c0.1-0.5,0.3-1.6,0.3-1.8c0-0.1,0-0.2-0.1-0.2
		c-0.1,0-0.1,0.1-0.2,0.3c-0.1,0.2-0.2,0.6-0.5,0.9c-0.5,0.6-1.3,0.8-2.5,0.8c-1.8,0-4.3-1.6-4.3-4.8c0-1.3,0.3-2.6,1.3-3.5
		c0.6-0.5,1.4-0.8,2.6-0.8c1.3,0,2.3,0.4,2.8,0.8c0.3,0.4,0.5,0.8,0.5,1.3c0,0.2,0,0.3,0.1,0.3c0.1,0,0.1-0.1,0.2-0.3
		c0-0.3,0-1,0-1.5c0-0.5,0.1-0.6,0.1-0.7c0-0.1-0.1-0.1-0.2-0.2c-0.4,0-0.8-0.2-1.4-0.2c-0.6-0.1-1.1-0.1-2-0.1
		c-2,0-3.3,0.5-4.3,1.4c-1.3,1.2-1.6,2.8-1.6,3.7c0,1.3,0.4,2.8,1.7,4C241.6,48.3,243.1,48.7,245,48.7"/>
	<path d="M147,45.6C146.9,45.6,146.9,45.6,147,45.6l0.9-2.5c0,0,0-0.1,0.1-0.1c0,0,0,0.1,0,0.1l0.9,2.4c0,0,0,0.1,0,0.1H147z
		 M149.1,46.1C149.1,46.1,149.1,46.1,149.1,46.1l0.9,2c0,0.1,0,0.2-0.1,0.2c-0.1,0-0.1,0-0.1,0.1c0,0.1,0.1,0.1,0.3,0.1
		c0.8,0,1.5,0,1.9,0c0.4,0,0.4,0,0.4-0.1c0-0.1,0-0.1-0.1-0.1c-0.1,0-0.2,0-0.4,0c-0.2,0-0.5-0.2-0.8-1c-0.6-1.4-2.3-5.3-2.5-5.8
		c-0.1-0.2-0.1-0.3-0.3-0.3c-0.1,0-0.2,0.1-0.3,0.4l-2.6,6c-0.2,0.5-0.4,0.8-0.8,0.8c-0.1,0-0.2,0-0.3,0c-0.1,0-0.1,0-0.1,0.1
		c0,0.1,0.1,0.1,0.2,0.1c0.5,0,1,0,1.1,0c0.3,0,0.8,0,1.1,0c0.1,0,0.2,0,0.2-0.1c0-0.1,0-0.1-0.1-0.1h-0.1c-0.3,0-0.4-0.1-0.4-0.3
		c0-0.1,0-0.3,0.1-0.6l0.5-1.3c0-0.1,0-0.1,0.1-0.1H149.1z"/>
	<path d="M153.5,45.7c0,0.9,0,1.7,0,2.1c0,0.3-0.1,0.4-0.3,0.5c-0.1,0-0.2,0-0.3,0c-0.1,0-0.2,0.1-0.2,0.1c0,0.1,0.1,0.1,0.2,0.1
		c0.4,0,1.1,0,1.3,0c0.3,0,0.9,0,1.6,0c0.1,0,0.2,0,0.2-0.1c0,0,0-0.1-0.2-0.1c-0.1,0-0.4,0-0.5,0c-0.3,0-0.4-0.2-0.4-0.4
		c0-0.4,0-1.2,0-2.1v-1.7c0-1.4,0-1.7,0-2c0-0.3,0.1-0.5,0.4-0.5c0.1,0,0.2,0,0.3,0c0.1,0,0.2,0,0.2-0.1c0-0.1-0.1-0.1-0.2-0.1
		c-0.4,0-1,0-1.3,0c-0.3,0-0.9,0-1.3,0c-0.2,0-0.2,0-0.2,0.1c0,0.1,0.1,0.1,0.2,0.1c0.1,0,0.2,0,0.4,0c0.2,0.1,0.3,0.2,0.3,0.5
		c0,0.3,0,0.6,0,2V45.7z"/>
	<path d="M159.4,48.3c0.1,0.2,0.1,0.3,0.3,0.3c0.1,0,0.2-0.1,0.4-0.5c0.4-0.9,1.7-4.2,1.9-4.6h0l2,4.7c0.1,0.3,0.2,0.5,0.3,0.5
		c0.1,0,0.2-0.1,0.3-0.4c0.5-1.4,1.5-4.4,1.9-5.6c0.2-0.5,0.3-0.9,0.5-1c0.1,0,0.2,0,0.3,0c0.1,0,0.1,0,0.1-0.1
		c0-0.1-0.1-0.1-0.2-0.1c-0.3,0-0.7,0-0.8,0c-0.1,0-0.5,0-1,0c-0.2,0-0.2,0-0.2,0.1c0,0.1,0.1,0.1,0.2,0.1c0.4,0,0.5,0.1,0.5,0.3
		c0,0.1,0,0.3-0.1,0.5c-0.3,1.1-1.1,3.6-1.3,4.1h0l-2-4.7c-0.1-0.3-0.2-0.4-0.3-0.4c-0.1,0-0.2,0.1-0.3,0.3l-1.9,4.8h0
		c-0.1-0.4-1-3.3-1.2-3.9c-0.1-0.4-0.2-0.7-0.2-0.9c0-0.1,0-0.2,0.1-0.2c0.1,0,0.2,0,0.2,0c0.1,0,0.2,0,0.2-0.1
		c0-0.1-0.1-0.1-0.2-0.1c-0.6,0-1,0-1.1,0c-0.1,0-0.6,0-1.1,0c-0.1,0-0.2,0-0.2,0.1c0,0.1,0.1,0.1,0.2,0.1c0.1,0,0.3,0,0.4,0.1
		c0.1,0.1,0.2,0.3,0.3,0.7L159.4,48.3z"/>
	<path d="M169.2,45.6C169.2,45.6,169.2,45.6,169.2,45.6l0.9-2.5c0,0,0-0.1,0.1-0.1c0,0,0,0.1,0,0.1l0.9,2.4c0,0,0,0.1,0,0.1H169.2z
		 M171.4,46.1c0,0,0.1,0,0.1,0.1l0.8,1.9c0,0.1,0,0.2-0.1,0.2c-0.1,0-0.1,0-0.1,0.1c0,0.1,0.1,0.1,0.3,0.1c0.8,0,1.5,0,1.9,0
		c0.4,0,0.4,0,0.4-0.1c0-0.1,0-0.1-0.1-0.1c-0.1,0-0.2,0-0.4,0c-0.2,0-0.5-0.2-0.8-1c-0.6-1.4-2.3-5.3-2.5-5.8
		c-0.1-0.2-0.1-0.3-0.3-0.3c-0.1,0-0.2,0.1-0.3,0.4l-2.6,6c-0.2,0.5-0.4,0.8-0.8,0.8c-0.1,0-0.2,0-0.3,0c-0.1,0-0.1,0-0.1,0.1
		c0,0.1,0.1,0.1,0.2,0.1c0.5,0,1,0,1.1,0c0.3,0,0.8,0,1.1,0c0.1,0,0.2,0,0.2-0.1c0-0.1,0-0.1-0.1-0.1h-0.1c-0.3,0-0.4-0.1-0.4-0.3
		c0-0.1,0-0.3,0.1-0.6l0.5-1.3c0-0.1,0-0.1,0.1-0.1H171.4z"/>
	<path d="M176.3,43.3L176.3,43.3c0.2,0.2,1.3,1.3,2.3,2.3c1,1,2.2,2.2,2.9,2.7c0.1,0.1,0.2,0.2,0.4,0.2c0.1,0,0.2-0.1,0.2-0.3l0.1-6
		c0-0.5,0.1-0.7,0.4-0.8c0.1,0,0.2,0,0.3,0c0.1,0,0.2,0,0.2-0.1c0-0.1-0.1-0.1-0.2-0.1c-0.5,0-0.8,0-1,0c-0.2,0-0.7,0-1.2,0
		c-0.1,0-0.2,0-0.2,0.1c0,0.1,0,0.1,0.2,0.1c0.1,0,0.4,0,0.5,0.1c0.2,0.1,0.3,0.3,0.3,0.8l0.1,4.2h0c-0.1-0.1-1.4-1.5-2.1-2.1
		c-1.4-1.4-2.9-2.9-3-3c-0.2-0.2-0.3-0.3-0.4-0.3c-0.1,0-0.2,0.1-0.2,0.3l-0.1,5.6c0,0.8,0,1.1-0.3,1.1c-0.1,0-0.3,0-0.4,0
		c-0.1,0-0.2,0-0.2,0.1c0,0.1,0.1,0.1,0.2,0.1c0.5,0,1,0,1.1,0c0.2,0,0.6,0,1.3,0c0.1,0,0.2,0,0.2-0.1c0-0.1-0.1-0.1-0.2-0.1
		c-0.2,0-0.3,0-0.5-0.1c-0.2-0.1-0.3-0.3-0.3-1L176.3,43.3z"/>
	<path d="M196.2,45.5c0,1.4,0.4,2.1,0.9,2.5c0.7,0.6,1.7,0.6,2.2,0.6c0.6,0,1.4-0.1,2.1-0.7c0.8-0.7,0.9-1.8,0.9-2.8v-1
		c0-1.4,0-1.7,0-2c0-0.3,0.1-0.5,0.4-0.5c0.1,0,0.2,0,0.3,0s0.2,0,0.2-0.1c0-0.1-0.1-0.1-0.2-0.1c-0.4,0-1,0-1.1,0c0,0-0.7,0-1.2,0
		c-0.1,0-0.2,0-0.2,0.1c0,0.1,0.1,0.1,0.2,0.1s0.3,0,0.4,0c0.3,0.1,0.4,0.2,0.4,0.5c0,0.3,0,0.6,0,2v1.2c0,1,0,1.8-0.6,2.3
		c-0.4,0.4-0.9,0.5-1.3,0.5c-0.3,0-0.8,0-1.2-0.4c-0.5-0.4-0.7-0.9-0.7-2.3v-1.3c0-1.4,0-1.7,0-2c0-0.3,0.1-0.5,0.4-0.5
		c0.1,0,0.2,0,0.3,0c0.1,0,0.2,0,0.2-0.1c0-0.1-0.1-0.1-0.2-0.1c-0.4,0-1,0-1.3,0c-0.3,0-0.9,0-1.5,0c-0.1,0-0.2,0-0.2,0.1
		c0,0.1,0.1,0.1,0.2,0.1c0.1,0,0.3,0,0.4,0c0.3,0.1,0.4,0.2,0.4,0.5c0,0.3,0,0.6,0,2V45.5z"/>
	<path d="M206.3,42c0-0.1,0-0.1,0.1-0.1c0.1,0,0.3,0,0.6,0c0.6,0,1.5,0.3,1.5,1.7c0,0.8-0.3,1.2-0.6,1.4c-0.2,0.1-0.3,0.2-0.7,0.2
		c-0.2,0-0.5,0-0.7-0.1c-0.1,0-0.1-0.1-0.1-0.2V42z M205,45.7c0,0.9,0,1.6,0,2c0,0.3-0.1,0.5-0.3,0.5c-0.1,0-0.2,0-0.3,0
		c-0.1,0-0.2,0.1-0.2,0.1c0,0.1,0.1,0.1,0.2,0.1c0.4,0,1,0,1.2,0c0.1,0,1,0,1.5,0c0.1,0,0.2,0,0.2-0.1c0,0,0-0.1-0.1-0.1
		c-0.1,0-0.3,0-0.5,0c-0.3,0-0.3-0.2-0.4-0.5c0-0.4-0.1-1.1-0.1-2v-0.1c0-0.1,0-0.1,0.1-0.1l0.9,0c0.1,0,0.1,0,0.2,0.1
		c0.1,0.1,0.5,0.8,0.9,1.3c0.5,0.7,0.9,1.2,1.3,1.4c0.3,0.1,0.5,0.2,1.1,0.2h0.9c0.1,0,0.2,0,0.2-0.1c0,0,0-0.1-0.1-0.1
		c-0.1,0-0.1,0-0.2,0c-0.2,0-0.5-0.1-1-0.6c-0.6-0.6-1.3-1.4-2.1-2.5c1-0.8,1.4-1.4,1.4-2.1c0-0.6-0.4-1.1-0.7-1.3
		c-0.5-0.3-1.2-0.4-1.9-0.4c-0.3,0-1.2,0-1.5,0c-0.2,0-0.8,0-1.3,0c-0.1,0-0.2,0-0.2,0.1c0,0.1,0.1,0.1,0.2,0.1c0.1,0,0.3,0,0.4,0
		c0.3,0.1,0.4,0.2,0.4,0.5c0,0.3,0,0.6,0,2V45.7z"/>
	<path d="M212.8,45.7c0,0.9,0,1.7,0,2.1c0,0.3-0.1,0.4-0.3,0.5c-0.1,0-0.2,0-0.3,0c-0.1,0-0.2,0.1-0.2,0.1c0,0.1,0.1,0.1,0.2,0.1
		c0.4,0,1.1,0,1.3,0c0.3,0,0.9,0,1.6,0c0.1,0,0.2,0,0.2-0.1c0,0,0-0.1-0.2-0.1c-0.1,0-0.4,0-0.5,0c-0.3,0-0.4-0.2-0.4-0.4
		c0-0.4,0-1.2,0-2.1v-1.7c0-1.4,0-1.7,0-2c0-0.3,0.1-0.5,0.4-0.5c0.1,0,0.2,0,0.3,0c0.1,0,0.2,0,0.2-0.1c0-0.1-0.1-0.1-0.2-0.1
		c-0.4,0-1,0-1.3,0c-0.3,0-0.9,0-1.3,0c-0.2,0-0.2,0-0.2,0.1c0,0.1,0.1,0.1,0.2,0.1c0.1,0,0.2,0,0.4,0c0.2,0.1,0.3,0.2,0.3,0.5
		c0,0.3,0,0.6,0,2V45.7z"/>
	<path d="M218.8,45.7c0,0.9,0,1.6,0,2c0,0.3-0.1,0.5-0.3,0.5c-0.1,0-0.2,0-0.3,0c-0.1,0-0.2,0.1-0.2,0.1c0,0.1,0.1,0.1,0.2,0.1
		c0.4,0,1.1,0,1.3,0c0.3,0,0.9,0,1.6,0c0.1,0,0.2,0,0.2-0.1c0,0,0-0.1-0.2-0.1c-0.1,0-0.4,0-0.5,0c-0.3,0-0.3-0.2-0.4-0.5
		c0-0.4-0.1-1.2-0.1-2v-3.8l1.2,0c0.9,0,1.1,0.3,1.2,0.5l0,0.1c0,0.1,0,0.2,0.1,0.2c0.1,0,0.1-0.1,0.1-0.2c0-0.2,0-0.9,0-1.1
		c0-0.1,0-0.2-0.1-0.2c0,0-0.1,0-0.3,0c-0.1,0-0.4,0-0.7,0h-4c-0.3,0-0.7,0-1,0c-0.2,0-0.3-0.1-0.4-0.1c-0.1,0-0.1,0.1-0.1,0.2
		c0,0.1-0.2,1-0.2,1.1c0,0.1,0,0.2,0.1,0.2c0.1,0,0.1,0,0.1-0.1c0-0.1,0.1-0.2,0.2-0.3c0.1-0.2,0.4-0.3,0.9-0.3l1.5,0V45.7z"/>
	<path d="M224.7,45.7c0,0.9,0,1.7,0,2.1c0,0.3-0.1,0.4-0.3,0.5c-0.1,0-0.2,0-0.3,0c-0.1,0-0.2,0.1-0.2,0.1c0,0.1,0.1,0.1,0.2,0.1
		c0.4,0,1.1,0,1.3,0c0.3,0,0.9,0,1.6,0c0.1,0,0.2,0,0.2-0.1c0,0,0-0.1-0.2-0.1c-0.1,0-0.4,0-0.5,0c-0.3,0-0.4-0.2-0.4-0.4
		c0-0.4,0-1.2,0-2.1v-1.7c0-1.4,0-1.7,0-2c0-0.3,0.1-0.5,0.4-0.5c0.1,0,0.2,0,0.3,0c0.1,0,0.2,0,0.2-0.1c0-0.1-0.1-0.1-0.2-0.1
		c-0.4,0-1,0-1.3,0c-0.3,0-0.9,0-1.3,0c-0.2,0-0.2,0-0.2,0.1c0,0.1,0.1,0.1,0.2,0.1c0.1,0,0.2,0,0.4,0c0.2,0.1,0.3,0.2,0.3,0.5
		c0,0.3,0,0.6,0,2V45.7z"/>
	<path d="M232.8,48.6c0.6,0,1.4-0.1,1.8-0.2c0.2-0.1,0.2-0.1,0.3-0.3c0.1-0.3,0.2-1.1,0.2-1.3c0-0.1,0-0.2-0.1-0.2
		c-0.1,0-0.1,0-0.1,0.2c0,0.2-0.2,0.4-0.3,0.6c-0.4,0.4-0.9,0.5-1.7,0.5c-1.3,0-3-1.1-3-3.3c0-0.9,0.2-1.8,0.9-2.5
		c0.4-0.4,1-0.5,1.8-0.5c0.9,0,1.6,0.2,1.9,0.6c0.2,0.2,0.4,0.6,0.4,0.9c0,0.1,0,0.2,0.1,0.2c0.1,0,0.1-0.1,0.1-0.2c0-0.2,0-0.7,0-1
		c0-0.3,0-0.4,0-0.5c0-0.1,0-0.1-0.1-0.1c-0.3,0-0.6-0.1-1-0.2c-0.4-0.1-0.8-0.1-1.4-0.1c-1.5,0-2.4,0.4-3.1,1
		c-0.9,0.8-1.1,1.9-1.1,2.6c0,0.9,0.3,2,1.2,2.8C230.4,48.3,231.5,48.6,232.8,48.6"/>
	<path d="M253.9,48.1c-1.8,0-3-1.5-3-3.5c0-2.3,1.3-2.9,2.4-2.9c1.6,0,2.8,1.3,2.8,3.4C256.2,47.8,254.6,48.1,253.9,48.1
		 M253.5,48.6c2.5,0,4.1-1.7,4.1-3.9c0-2.2-1.5-3.5-4-3.5c-3,0-4.1,2.1-4.1,3.7C249.5,46.6,250.7,48.6,253.5,48.6"/>
	<path d="M260.9,42c0-0.1,0-0.1,0.1-0.1c0.1,0,0.3,0,0.6,0c0.6,0,1.5,0.3,1.5,1.7c0,0.8-0.3,1.2-0.6,1.4c-0.2,0.1-0.3,0.2-0.7,0.2
		c-0.2,0-0.5,0-0.7-0.1c-0.1,0-0.1-0.1-0.1-0.2V42z M259.6,45.7c0,0.9,0,1.6,0,2c0,0.3-0.1,0.5-0.3,0.5c-0.1,0-0.2,0-0.3,0
		c-0.1,0-0.2,0.1-0.2,0.1c0,0.1,0.1,0.1,0.2,0.1c0.4,0,1,0,1.2,0c0.1,0,1,0,1.5,0c0.1,0,0.2,0,0.2-0.1c0,0,0-0.1-0.1-0.1
		c-0.1,0-0.3,0-0.5,0c-0.3,0-0.3-0.2-0.4-0.5c0-0.4-0.1-1.1-0.1-2v-0.1c0-0.1,0-0.1,0.1-0.1l0.9,0c0.1,0,0.1,0,0.2,0.1
		c0.1,0.1,0.5,0.8,0.9,1.3c0.5,0.7,0.9,1.2,1.3,1.4c0.3,0.1,0.5,0.2,1.1,0.2h0.9c0.1,0,0.2,0,0.2-0.1c0,0,0-0.1-0.1-0.1
		c-0.1,0-0.1,0-0.2,0c-0.2,0-0.5-0.1-1-0.6c-0.6-0.6-1.3-1.4-2.1-2.5c1-0.8,1.4-1.4,1.4-2.1c0-0.6-0.4-1.1-0.7-1.3
		c-0.5-0.3-1.2-0.4-1.9-0.4c-0.3,0-1.2,0-1.5,0c-0.2,0-0.8,0-1.3,0c-0.1,0-0.2,0-0.2,0.1c0,0.1,0.1,0.1,0.2,0.1c0.1,0,0.3,0,0.4,0
		c0.3,0.1,0.4,0.2,0.4,0.5c0,0.3,0,0.6,0,2V45.7z"/>
	<path d="M267.4,45.7c0,0.9,0,1.6,0,2c0,0.3-0.1,0.5-0.3,0.5c-0.1,0-0.2,0-0.3,0c-0.1,0-0.2,0.1-0.2,0.1c0,0.1,0.1,0.1,0.2,0.1
		c0.4,0,1,0,1.2,0c0.3,0,0.9,0,1.6,0c0.1,0,0.2,0,0.2-0.1c0,0,0-0.1-0.2-0.1c-0.1,0-0.4,0-0.5,0c-0.3,0-0.3-0.2-0.4-0.5
		c0-0.4,0-1.2,0-2V42c0-0.1,0-0.2,0.1-0.2c0.1,0,0.3,0,0.4,0c0.2,0,0.6,0,1,0.4c0.5,0.5,0.6,1.1,0.6,1.4c0,1-0.8,1.5-1.3,1.5
		c-0.2,0-0.3,0-0.3,0.1c0,0.1,0.1,0.1,0.1,0.1c0,0,0.2,0,0.3,0c1.4,0,2.5-1,2.5-2.3c0-0.5-0.3-0.9-0.5-1.1c-0.2-0.1-0.6-0.5-1.8-0.5
		c-0.4,0-1.2,0-1.6,0c-0.3,0-0.9,0-1.4,0c-0.1,0-0.2,0-0.2,0.1c0,0.1,0.1,0.1,0.2,0.1c0.1,0,0.3,0,0.4,0c0.3,0.1,0.4,0.2,0.4,0.5
		c0,0.3,0,0.6,0,2V45.7z"/>
	<path d="M272.6,48.4c0.4,0,0.7-0.3,0.7-0.7c0-0.4-0.3-0.6-0.7-0.6c-0.5,0-0.7,0.4-0.7,0.7C271.9,48.1,272.1,48.4,272.6,48.4"/>
	<polyline class="st0" points="55.5,10.3 55.5,14.4 52.4,14.4 	"/>
	<path class="st0" d="M52.4,14.4c0.8-1.5,1.8-2.9,3.1-4.1"/>
	<polyline class="st0" points="52.4,14.4 55.5,14.4 55.5,18.5 51.1,18.5 	"/>
	<path class="st0" d="M51.1,18.5c0.2-1.4,0.7-2.8,1.3-4.1"/>
	<polyline class="st0" points="51.1,18.5 55.5,18.5 55.5,22.6 51.1,22.6 	"/>
	<path class="st0" d="M51.1,22.6c-0.1-0.5-0.1-1-0.2-1.4"/>
	<line class="st0" x1="51" y1="21.2" x2="51" y2="19.7"/>
	<path class="st0" d="M51,19.7c0-0.4,0.1-0.8,0.1-1.2"/>
	<polyline class="st0" points="51.1,22.6 55.5,22.6 55.5,26.7 52.5,26.7 	"/>
	<path class="st0" d="M52.5,26.7c-0.7-1.3-1.1-2.6-1.4-4.1"/>
	<polyline class="st0" points="52.5,26.7 55.5,26.7 55.5,30.6 	"/>
	<path class="st0" d="M55.5,30.6c-1.2-1.1-2.2-2.4-3-3.9"/>
	<polyline class="st0" points="60,7.4 60,10.3 55.5,10.3 	"/>
	<path class="st0" d="M55.5,10.3c1.3-1.2,2.8-2.2,4.5-2.9"/>
	<rect x="55.5" y="10.3" class="st0" width="4.5" height="4.1"/>
	<rect x="55.5" y="14.4" class="st0" width="4.5" height="4.1"/>
	<rect x="55.5" y="18.5" class="st0" width="4.5" height="4.1"/>
	<rect x="55.5" y="22.6" class="st1" width="4.5" height="4.1"/>
	<rect x="55.5" y="22.6" class="st2" width="4.5" height="4.1"/>
	<polyline class="st0" points="55.5,26.7 60,26.7 60,30.8 55.8,30.8 	"/>
	<path class="st0" d="M55.8,30.8c-0.1-0.1-0.2-0.2-0.3-0.2"/>
	<line class="st0" x1="55.5" y1="30.6" x2="55.5" y2="26.7"/>
	<polyline class="st0" points="55.8,30.8 60,30.8 60,33.5 	"/>
	<path class="st0" d="M60,33.5c-1.6-0.7-3-1.6-4.3-2.7"/>
	<polyline class="st0" points="64,6.2 64.5,6.2 64.5,10.3 60,10.3 60,7.4 	"/>
	<path class="st0" d="M60,7.4c1.2-0.6,2.6-0.9,3.9-1.2"/>
	<rect x="60" y="10.3" class="st0" width="4.5" height="4.1"/>
	<rect x="60" y="14.4" class="st0" width="4.5" height="4.1"/>
	<rect x="60" y="18.5" class="st0" width="4.5" height="4.1"/>
	<rect x="60" y="22.6" class="st0" width="4.5" height="4.1"/>
	<rect x="60" y="26.7" class="st0" width="4.5" height="4.1"/>
	<polyline class="st0" points="60,30.8 64.5,30.8 64.5,34.7 	"/>
	<path class="st0" d="M64.5,34.7c-1.6-0.2-3.1-0.6-4.5-1.2"/>
	<line class="st0" x1="60" y1="33.5" x2="60" y2="30.8"/>
	<rect x="64.5" y="6.2" class="st0" width="4.6" height="4.1"/>
	<rect x="64.5" y="10.3" class="st0" width="4.6" height="4.1"/>
	<rect x="64.5" y="14.4" class="st0" width="4.6" height="4.1"/>
	<rect x="64.5" y="18.5" class="st0" width="4.6" height="4.1"/>
	<rect x="64.5" y="22.6" class="st0" width="4.6" height="4.1"/>
	<rect x="64.5" y="26.7" class="st0" width="4.6" height="4.1"/>
	<path class="st1" d="M64.5,30.8h4.6v3.9c-0.8,0.1-1.5,0.2-2.3,0.2c-0.8,0-1.5-0.1-2.3-0.2V30.8z"/>
	<path class="st2" d="M64.5,30.8h4.6v3.9c-0.8,0.1-1.5,0.2-2.3,0.2c-0.8,0-1.5-0.1-2.3-0.2V30.8z"/>
	<line class="st0" x1="69.1" y1="6.2" x2="69.6" y2="6.2"/>
	<path class="st0" d="M69.6,6.2c1.4,0.2,2.7,0.6,4,1.2"/>
	<polyline class="st0" points="73.6,7.4 73.6,10.3 69.1,10.3 69.1,6.2 	"/>
	<rect x="69.1" y="10.3" class="st1" width="4.5" height="4.1"/>
	<rect x="69.1" y="10.3" class="st2" width="4.5" height="4.1"/>
	<rect x="69.1" y="14.4" class="st0" width="4.5" height="4.1"/>
	<rect x="69.1" y="18.5" class="st0" width="4.5" height="4.1"/>
	<rect x="69.1" y="22.6" class="st0" width="4.5" height="4.1"/>
	<rect x="69.1" y="26.7" class="st0" width="4.5" height="4.1"/>
	<polyline class="st0" points="69.1,30.8 73.6,30.8 73.6,33.5 	"/>
	<path class="st0" d="M73.6,33.5c-1.4,0.6-2.9,1-4.5,1.2"/>
	<line class="st0" x1="69.1" y1="34.7" x2="69.1" y2="30.8"/>
	<polyline class="st0" points="78.1,10.3 73.6,10.3 73.6,7.4 	"/>
	<path class="st0" d="M73.6,7.4c1.7,0.7,3.2,1.7,4.5,2.9"/>
	<rect x="73.6" y="10.3" class="st0" width="4.5" height="4.1"/>
	<rect x="73.6" y="14.4" class="st0" width="4.5" height="4.1"/>
	<rect x="73.6" y="18.5" class="st0" width="4.5" height="4.1"/>
	<rect x="73.6" y="22.6" class="st0" width="4.5" height="4.1"/>
	<polyline class="st0" points="73.6,26.7 78.1,26.7 78.1,30.6 	"/>
	<path class="st0" d="M78.1,30.6c-0.1,0.1-0.2,0.2-0.3,0.2"/>
	<polyline class="st0" points="77.9,30.8 73.6,30.8 73.6,26.7 	"/>
	<line class="st0" x1="73.6" y1="30.8" x2="77.9" y2="30.8"/>
	<path class="st0" d="M77.9,30.8c-1.2,1.1-2.7,2-4.3,2.7"/>
	<line class="st0" x1="73.6" y1="33.5" x2="73.6" y2="30.8"/>
	<polyline class="st0" points="81.3,14.4 78.1,14.4 78.1,10.3 	"/>
	<path class="st0" d="M78.1,10.3c1.3,1.2,2.3,2.6,3.1,4.1"/>
	<line class="st0" x1="78.1" y1="14.4" x2="81.3" y2="14.4"/>
	<path class="st0" d="M81.3,14.4c0.7,1.3,1.1,2.6,1.3,4.1"/>
	<polyline class="st0" points="82.6,18.5 78.1,18.5 78.1,14.4 	"/>
	<line class="st0" x1="78.1" y1="18.5" x2="82.6" y2="18.5"/>
	<path class="st0" d="M82.6,18.5c0.1,0.4,0.1,0.8,0.1,1.2"/>
	<line class="st0" x1="82.7" y1="19.8" x2="82.7" y2="21.2"/>
	<path class="st0" d="M82.7,21.2c0,0.5-0.1,1-0.2,1.5"/>
	<polyline class="st0" points="82.5,22.6 78.1,22.6 78.1,18.5 	"/>
	<line class="st0" x1="78.1" y1="22.6" x2="82.5" y2="22.6"/>
	<path class="st0" d="M82.5,22.6c-0.2,1.4-0.7,2.8-1.4,4.1"/>
	<polyline class="st0" points="81.1,26.7 78.1,26.7 78.1,22.6 	"/>
	<line class="st0" x1="78.1" y1="26.7" x2="81.1" y2="26.7"/>
	<path class="st0" d="M81.1,26.7c-0.8,1.4-1.8,2.7-3,3.9"/>
	<line class="st0" x1="78.1" y1="30.6" x2="78.1" y2="26.7"/>
	<path class="st1" d="M0,4.8h5.1V0h4.8v4.8h31.8v5.3H9.9C9.7,22.6,7.1,43.6,23.6,43.5c9.6-0.1,12.7-6.7,13.4-15.1h5.5
		c0,11.6-9.6,20.2-19.2,20.2C3,48.6,4.7,24.3,5.1,10.2H0V4.8z"/>
	<path class="st3" d="M66.9,38.4L66.9,38.4h-9.2c-2-0.9-4.5-2.7-5.8-4.1v21.6h-5V1.1h5v6.4c3.7-3.9,7.3-6,15-6.2v4.8
		C58.7,6.2,52,11.8,52,20.9c0,9.2,3.4,10.4,8.2,12.8h6.7V38.4z M66.9,1.3c11.8,0,19.7,8.3,19.8,19v0.2c0,0.1,0,0.3,0,0.4
		c-0.2,11-4.3,14-10.1,17.5h-9.7v-4.7h6.8c4.8-2.4,8.1-6,8.1-12.8c0-6.7-6.6-14.7-14.9-14.7h-0.1L66.9,1.3L66.9,1.3z"/>
	<path class="st1" d="M106.1,1.8c10.2-0.1,18.1,8.1,18.3,16.2h-5.4c-1.2-5.9-4.1-10.6-12.7-10.5c-8.7,0.1-12.7,5-12.6,9.8l0.1,17.3
		c0.1,3.7,5,9.4,13.1,9.2c8.1-0.2,12.3-4.2,12.3-9.3h5.3c-0.2,8.4-7,14.5-17.7,14.6C96,49.3,88.6,41.4,88.1,34.9
		c-0.1-1.8-0.4-17.5-0.2-17.5C88.2,8.8,95.8,1.9,106.1,1.8"/>
	<path d="M160.9,8.6h-5.8v18.9h5.8V8.6z M164,33.5h-3v-2.8h-5.8v2.8h-2.9v-28H164V33.5z M151.4,20.4l-1.7,2.8
		c-1.4-1.9-2.9-3.6-4.4-4.9v15.2h-3V18.8c-1.9,3.6-4,6.4-6.3,8.6l-1.5-3.1c3.4-3.4,5.9-7,7.4-10.7h-6.7v-3.2h7V6.6
		c-2.1,0.3-3.8,0.5-5.2,0.5l-1.3-3c5.2-0.2,9.6-0.9,13.2-2.2l1.7,2.8c-1.5,0.5-3.3,1-5.4,1.4v4.3h5.5v3.2h-5.5v1.1
		C147.5,16.4,149.5,18.3,151.4,20.4"/>
	<path d="M176.5,21.7c-0.7,4.6-1.7,8.5-3.1,11.8l-2.6-1.7c1.3-3.2,2.2-6.9,2.9-11.4L176.5,21.7z M201.1,32.3l-2.6,1.4
		c-0.3-1-0.6-2.1-1-3.2c-3,1.1-6.4,2-10.3,2.6l-0.7-2.5c2.6-3.6,4.6-9.5,6-17.5l2.8,0.7c-1.3,6.9-3,12.2-5,15.8
		c1.6-0.3,3.6-0.9,6.1-1.7c-0.5-1.4-1.1-2.9-1.9-4.5l2.6-1.3C198.7,25.3,200,28.8,201.1,32.3 M178.1,15l-1.7,2.6
		c-1.4-1.4-3.2-2.8-5.3-4.2l1.8-2.5C174.6,12,176.4,13.4,178.1,15 M201,14l-2,2.5c-1.8-3.1-3.1-6.7-3.9-10.7h-1.3V2.7h3.5
		C198,7.4,199.3,11.2,201,14 M188.3,20l-2.3,2.4c-0.4-1.8-1-3.4-1.8-4.9v16h-2.8V19.3c-0.6,2.2-1.4,4.3-2.6,6.3l-1.8-3.3
		c1.8-2.7,3.2-6.4,4.3-11.1h-3.7V8.2h3.8V2.2h2.8v6.1h3.1v2.9h-3.1v0.9C185.9,14.6,187.3,17.3,188.3,20 M192.5,2.6
		c-0.7,6.1-2,10.8-4,14.1l-2.1-2.2c1.6-3.2,2.7-7.4,3.3-12.4L192.5,2.6z M178,6.1l-1.9,2.3c-1.6-1.6-3.2-3-4.9-4.1L173,2
		C174.6,2.9,176.3,4.3,178,6.1"/>
	<path d="M228.9,18.1l-2.1,2.4c-1.4-1.9-3.6-4-6.4-6.2l2-2.3C225.2,14.1,227.4,16.1,228.9,18.1 M229.4,9.4l-2.1,2.3
		c-1.9-2.3-3.9-4.2-6-5.9l2.1-2.3C225.7,5.4,227.7,7.4,229.4,9.4 M236.6,24.5l-3.2,0.5v8.6h-3v-8.2l-10.3,1.5l-0.3-3.2l10.6-1.5V2.3
		h3v19.5l3.1-0.4L236.6,24.5z M220.9,4.6c-1.6,0.5-3.2,1-5.1,1.3v4.6h4.3v3h-4.3v1c1.8,2,3.3,4,4.6,6.1l-2.1,2.4
		c-0.8-1.7-1.6-3.2-2.5-4.4v14.8h-3V19.3c-1.6,3.3-3.1,5.6-4.6,7.1l-1.7-2.8c2.4-2.5,4.5-5.9,6.2-10h-5.9v-3h6V6.4
		c-1.4,0.2-3,0.4-4.6,0.5L207,4c4.4-0.2,8.5-0.9,12.4-2.1L220.9,4.6z"/>
	<path d="M267.7,17.5h-8.4c0.8,2.7,2.2,5.1,3.9,7.2C265.1,22.7,266.6,20.3,267.7,17.5 M272.8,31.2l-1.7,2.7c-3.2-1.5-5.9-3.1-8-5
		c-2.4,1.9-5.4,3.6-8.8,5l-1.7-2.9c3.3-1.2,6.1-2.6,8.3-4.2c-1.9-2.2-3.5-5.3-4.9-9.3h-1.2v-3h6.8V9.8h-7.2v-3h7.2V2.3h3.1v4.6h7.2
		v3h-7.2v4.7h6.3v3c-1.6,4-3.5,7.1-5.7,9.3C267.2,28.5,269.7,29.9,272.8,31.2 M253.8,18.2c-1.3,0.6-2.5,1.2-3.6,1.6v10.4
		c0,1-0.2,1.8-0.7,2.4c-0.5,0.6-1.3,0.9-2.4,0.9c-1.1,0-2.1,0-2.9,0l-1-3.1c1.2,0,2.2,0.1,3.1,0.1c0.2,0,0.4-0.1,0.6-0.3
		c0.2-0.2,0.3-0.4,0.3-0.7V21c-1.3,0.5-2.6,0.9-3.9,1.2l-0.8-2.9c2.1-0.7,3.7-1.2,4.7-1.7V11h-4.3V7.9h4.3V2.1h3v5.8h3.1V11h-3.1
		v5.4c0.9-0.3,1.9-0.7,2.9-1.3L253.8,18.2z"/>
</g>
<rect x="-148.4" y="-258.8" class="st4" width="841.9" height="595.3"/>
</svg>
