<?xml version="1.0" encoding="utf-8"?>
<!-- Generator: Adobe Illustrator 23.0.5, SVG Export Plug-In . SVG Version: 6.00 Build 0)  -->
<svg version="1.1" id="圖層_1" xmlns="http://www.w3.org/2000/svg" xmlns:xlink="http://www.w3.org/1999/xlink" x="0px" y="0px"
	 viewBox="0 0 330.9 253" style="enable-background:new 0 0 330.9 253;" xml:space="preserve">
<style type="text/css">
	.st0{fill:none;stroke:#CCCCCC;stroke-width:0.5;stroke-miterlimit:10;}
	.st1{fill:#2150A2;}
	.st2{fill:#FFFFFF;}
	.st3{fill:#3176EF;}
	.st4{fill:#7FAFDB;}
	.st5{fill:none;stroke:#FFFFFF;stroke-width:5;stroke-miterlimit:10;}
	.st6{fill:#6186A8;}
	.st7{fill:#40586E;}
	.st8{fill:#86929D;}
	.st9{fill:#AEB6BE;}
	.st10{fill:#949FA9;}
	.st11{fill:#969A9D;}
	.st12{fill:#A0B7CB;}
	.st13{fill:#819EB9;}
	.st14{fill:#49657E;}
	.st15{fill:#143A56;}
	.st16{fill:#314354;}
</style>
<line class="st0" x1="170.3" y1="8" x2="170.3" y2="132"/>
<line class="st0" x1="318.6" y1="132" x2="41.2" y2="132"/>
<path class="st1" d="M133.2,22c0,1.1,0.9,2,2,2h69c1.1,0,2-0.9,2-2V9c0-1.1-0.9-2-2-2h-69c-1.1,0-2,0.9-2,2V22z"/>
<g>
	<path class="st2" d="M160.5,18.3c0,0.3-0.1,0.6-0.3,0.7c-0.2,0.1-0.5,0.1-1,0.1c0-0.2-0.1-0.5-0.2-0.7c0.3,0,0.6,0,0.7,0
		c0.1,0,0.1,0,0.1-0.1v-1.9l-0.8,0.5l-0.2-0.5c-0.1,1-0.2,2.1-0.5,2.8c-0.1-0.1-0.4-0.3-0.6-0.3c0.5-1.1,0.5-2.7,0.5-3.9v-2.9h2.3
		V18.3z M158.9,15c0,0.4,0,0.8,0,1.2c0.3-0.1,0.6-0.3,1-0.4v-0.9l-0.3,0.3c-0.2-0.2-0.4-0.5-0.7-0.8V15z M158.9,12.8v1.1l0.2-0.2
		c0.3,0.2,0.5,0.5,0.8,0.8v-1.7H158.9z M164.8,15.4c-0.3,1-0.8,1.8-1.4,2.4c0.5,0.3,1,0.6,1.7,0.7c-0.2,0.2-0.4,0.4-0.5,0.6
		c-0.7-0.2-1.3-0.5-1.8-0.9c-0.5,0.4-1.2,0.7-1.8,0.9c-0.1-0.2-0.3-0.5-0.4-0.6c0.6-0.2,1.2-0.4,1.7-0.7c-0.5-0.5-0.8-1.1-1.1-1.7
		l0.3-0.1h-0.5v-0.7h3.3l0.1,0L164.8,15.4z M162.3,13c0,0.7-0.2,1.6-1.2,2.1c-0.1-0.1-0.3-0.4-0.5-0.5c0.9-0.5,1-1.1,1-1.6v-0.9h2.5
		v1.8c0,0.2,0,0.3,0.1,0.3h0.4c0.1,0,0.3,0,0.4,0l0.1,0.6c-0.1,0-0.3,0-0.4,0h-0.5c-0.6,0-0.8-0.3-0.8-0.9v-1.1h-1.1V13z M161.8,16
		c0.2,0.5,0.6,1,1,1.4c0.4-0.4,0.8-0.8,1-1.4H161.8z"/>
	<path class="st2" d="M171,16.8c0.7,0.7,1.8,1.3,2.8,1.7c-0.2,0.2-0.4,0.4-0.5,0.6c-1-0.4-2-1.1-2.8-2v2h-0.8v-2
		c-0.7,0.8-1.8,1.5-2.8,1.9c-0.1-0.2-0.3-0.5-0.5-0.6c1-0.3,2-1,2.7-1.7h-1.8v-3h2.4v-0.6h-3.1v-0.7h3.1v-0.7h0.8v0.7h3.1v0.7h-3.1
		v0.6h2.5v3H171z M167.9,15h1.6v-0.6h-1.6V15z M167.9,16.2h1.6v-0.6h-1.6V16.2z M170.4,14.4V15h1.7v-0.6H170.4z M172.1,15.5h-1.7
		v0.6h1.7V15.5z"/>
	<path class="st2" d="M179.2,12c0,0-0.1,0.1-0.1,0.2c0.7,0.7,2.1,1.3,3.3,1.6c-0.2,0.1-0.4,0.4-0.5,0.6c-0.2-0.1-0.4-0.1-0.6-0.2
		v2.1h-5.4v-2c-0.2,0.1-0.4,0.1-0.6,0.2c-0.1-0.1-0.3-0.4-0.4-0.6c1.4-0.4,2.9-1.1,3.6-2L179.2,12z M181.3,14.1
		c-0.4-0.2-0.9-0.3-1.3-0.6v0.2h-2.8v-0.2c-0.4,0.2-0.8,0.4-1.2,0.5H181.3z M176.4,16.5h4.6v2.6h-0.8v-0.2h-3.1v0.2h-0.7V16.5z
		 M177.4,14.6c0.2,0.3,0.4,0.6,0.4,0.9l-0.5,0.2h0.9v-1.1h-1.7v1.1h0.8c-0.1-0.2-0.2-0.6-0.4-0.9L177.4,14.6z M177.1,17v0.4h3.1V17
		H177.1z M180.2,18.4V18h-3.1v0.4H180.2z M179.5,13.2c-0.3-0.2-0.6-0.4-0.9-0.7c-0.3,0.2-0.6,0.5-0.9,0.7H179.5z M180.6,14.6h-1.8
		v1.1h0.9l-0.5-0.2c0.1-0.3,0.3-0.7,0.4-0.9l0.6,0.2c-0.2,0.3-0.4,0.7-0.5,0.9h0.8V14.6z"/>
</g>
<path class="st1" d="M133.2,52.3c0,1.1,0.9,2,2,2h69c1.1,0,2-0.9,2-2v-13c0-1.1-0.9-2-2-2h-69c-1.1,0-2,0.9-2,2V52.3z"/>
<g>
	<path class="st2" d="M165.3,48.5v0.5h-7.1v-0.5h3.2v-0.4h-2.5v-0.5h2.5v-0.4H159v-2h2.3v-0.3h-3.1v-0.5h3.1V44c-0.8,0-1.7,0-2.5,0
		c0-0.1-0.1-0.4-0.1-0.5c1.9,0,4.2-0.1,5.4-0.3l0.4,0.5c-0.7,0.1-1.6,0.1-2.5,0.2v0.4h3.2v0.5H162v0.3h2.4v2H162v0.4h2.6v0.5H162
		v0.4H165.3z M159.7,43h-1.5v-0.6h1.5V42h0.7v0.4h1.1V43h-1.1v0.5h-0.7V43z M159.7,46h1.6v-0.4h-1.6V46z M161.3,46.8v-0.4h-1.6v0.4
		H161.3z M163,43h-1.1v-0.6h1.1V42h0.7v0.4h1.5V43h-1.5v0.3H163V43z M162,45.7V46h1.7v-0.4H162z M163.7,46.4H162v0.4h1.7V46.4z"/>
	<path class="st2" d="M173.9,47.1h-0.8v1.4h-0.8v-0.3h-1.7v0.4c0,0.4-0.1,0.6-0.4,0.7c-0.3,0.1-0.7,0.1-1.4,0.1
		c0-0.2-0.2-0.4-0.3-0.6c0.4,0,0.9,0,1,0c0.1,0,0.2,0,0.2-0.2v-0.4h-2.5v-0.6h2.5v-0.5h-3.2v-0.6h3.2V46h-2.4v-0.5h2.4V45h-2.2v-1.5
		h2.2v-0.4h-3v-0.6h3V42h0.8v0.6h3.1v0.6h-3.1v0.4h2.3V45h-2.3v0.5h2.5v1h0.8V47.1z M169.9,44.5V44h-1.5v0.5H169.9z M170.6,44v0.5
		h1.6V44H170.6z M170.6,46.5h1.7V46h-1.7V46.5z M172.3,47.1h-1.7v0.5h1.7V47.1z"/>
	<path class="st2" d="M179.4,42.2c0,0-0.1,0.1-0.1,0.2c0.7,0.7,2.1,1.3,3.3,1.6c-0.2,0.1-0.4,0.4-0.5,0.6c-0.2-0.1-0.4-0.1-0.6-0.2
		v2.1h-5.4v-2c-0.2,0.1-0.4,0.1-0.6,0.2c-0.1-0.1-0.3-0.4-0.4-0.6c1.4-0.4,2.9-1.1,3.6-2L179.4,42.2z M181.6,44.2
		c-0.4-0.2-0.9-0.3-1.3-0.6v0.2h-2.8v-0.2c-0.4,0.2-0.8,0.4-1.2,0.5H181.6z M176.6,46.6h4.6v2.6h-0.8V49h-3.1v0.2h-0.7V46.6z
		 M177.7,44.8c0.2,0.3,0.4,0.6,0.4,0.9l-0.5,0.2h0.9v-1.1h-1.7v1.1h0.8c-0.1-0.2-0.2-0.6-0.4-0.9L177.7,44.8z M177.4,47.1v0.4h3.1
		v-0.4H177.4z M180.4,48.5v-0.4h-3.1v0.4H180.4z M179.8,43.4c-0.3-0.2-0.6-0.4-0.9-0.7c-0.3,0.2-0.6,0.5-0.9,0.7H179.8z M180.9,44.7
		h-1.8v1.1h0.9l-0.5-0.2c0.1-0.3,0.3-0.7,0.4-0.9l0.6,0.2c-0.2,0.3-0.4,0.7-0.5,0.9h0.8V44.7z"/>
</g>
<path class="st1" d="M133.2,82.6c0,1.1,0.9,2,2,2h69c1.1,0,2-0.9,2-2v-13c0-1.1-0.9-2-2-2h-69c-1.1,0-2,0.9-2,2V82.6z"/>
<g>
	<path class="st2" d="M165.3,78.9v0.5h-7.1v-0.5h3.2v-0.4h-2.5V78h2.5v-0.4H159v-2h2.3v-0.3h-3.1v-0.5h3.1v-0.4c-0.8,0-1.7,0-2.5,0
		c0-0.1-0.1-0.4-0.1-0.5c1.9,0,4.2-0.1,5.4-0.3l0.4,0.5c-0.7,0.1-1.6,0.1-2.5,0.2v0.4h3.2v0.5H162v0.3h2.4v2H162V78h2.6v0.5H162v0.4
		H165.3z M159.7,73.4h-1.5v-0.6h1.5v-0.4h0.7v0.4h1.1v0.6h-1.1v0.5h-0.7V73.4z M159.7,76.4h1.6V76h-1.6V76.4z M161.3,77.2v-0.4h-1.6
		v0.4H161.3z M163,73.4h-1.1v-0.6h1.1v-0.4h0.7v0.4h1.5v0.6h-1.5v0.3H163V73.4z M162,76v0.4h1.7V76H162z M163.7,76.8H162v0.4h1.7
		V76.8z"/>
	<path class="st2" d="M173.9,77.4h-0.8v1.4h-0.8v-0.3h-1.7v0.4c0,0.4-0.1,0.6-0.4,0.7c-0.3,0.1-0.7,0.1-1.4,0.1
		c0-0.2-0.2-0.4-0.3-0.6c0.4,0,0.9,0,1,0c0.1,0,0.2,0,0.2-0.2v-0.4h-2.5v-0.6h2.5v-0.5h-3.2v-0.6h3.2v-0.5h-2.4v-0.5h2.4v-0.5h-2.2
		v-1.5h2.2v-0.4h-3v-0.6h3v-0.6h0.8v0.6h3.1v0.6h-3.1v0.4h2.3v1.5h-2.3v0.5h2.5v1h0.8V77.4z M169.9,74.9v-0.5h-1.5v0.5H169.9z
		 M170.6,74.4v0.5h1.6v-0.5H170.6z M170.6,76.8h1.7v-0.5h-1.7V76.8z M172.3,77.4h-1.7v0.5h1.7V77.4z"/>
	<path class="st2" d="M182.2,77.2c-0.5,0.3-1.1,0.7-1.6,1c0.6,0.4,1.3,0.6,2.1,0.8c-0.2,0.2-0.4,0.5-0.5,0.7c-1.8-0.4-3-1.4-3.7-2.8
		h-1.2v1.9l2-0.4c0,0.2-0.1,0.5-0.1,0.6c-2,0.5-2.5,0.6-2.7,0.7l-0.1,0c0-0.2-0.2-0.6-0.3-0.8c0.2-0.1,0.4-0.3,0.4-0.6v-1.6h-1.2
		v-0.7h1.4v-3.5h4.9v0.6h-4.2v0.6h4v0.6h-4V75h4v0.6h-4v0.6h5v0.7h-0.9L182.2,77.2z M179.3,76.8c0.2,0.4,0.5,0.7,0.8,1
		c0.5-0.3,1.1-0.7,1.5-1H179.3z"/>
</g>
<path class="st3" d="M218.7,66.9c0,1.1,0.9,2,2,2h64.1c1.1,0,2-0.9,2-2V55c0-1.1-0.9-2-2-2h-64.1c-1.1,0-2,0.9-2,2V66.9z"/>
<g>
	<path class="st2" d="M243.5,60.7c0.2,0.2,0.8,0.9,0.9,1.1l-0.4,0.6c-0.1-0.2-0.4-0.6-0.6-1v3h-0.7v-3c-0.2,0.7-0.6,1.3-0.9,1.7
		c-0.1-0.2-0.2-0.5-0.3-0.7c0.4-0.5,0.8-1.4,1.1-2.2h-0.9v-0.6h1v-1.1c-0.3,0.1-0.6,0.1-0.8,0.1c0-0.2-0.1-0.4-0.2-0.6
		c0.7-0.1,1.6-0.4,2.1-0.6l0.4,0.6c-0.2,0.1-0.5,0.2-0.8,0.3v1.2h0.8v0.6h-0.8V60.7z M247.2,59.9c-0.6,0-0.8-0.2-0.8-0.7v-0.4h-0.1
		c-0.2,0.4-0.5,0.8-1.3,1.1h0.4v0.4c0.9-0.1,1.8-0.2,2.4-0.3l0.4,0.4c-0.8,0.2-1.9,0.3-2.8,0.4v0.1c0,0.2,0.1,0.3,0.3,0.3h1.7
		c0.2,0,0.7,0,0.8-0.1c0,0.2,0,0.4,0.1,0.5c-0.2,0-0.5,0.1-0.9,0.1h-1.9c-0.7,0-0.9-0.2-0.9-0.8V60c-0.1,0-0.1,0-0.2,0.1
		c0-0.1-0.2-0.4-0.3-0.5c0.7-0.2,1.1-0.5,1.3-0.7h-1.2v-0.5h1.4c0-0.1,0-0.1,0-0.2v-0.6h0.6v0.7c0,0,0,0.1,0,0.1h1.1
		c-0.2-0.2-0.5-0.4-0.8-0.5l0.4-0.3c0.3,0.2,0.8,0.4,1,0.6l-0.2,0.2h0.7v0.5H247v0.4c0,0.1,0,0.2,0.2,0.2h0.7c0.2,0,0.2-0.1,0.2-0.4
		c0.1,0.1,0.4,0.2,0.5,0.2c-0.1,0.6-0.2,0.7-0.7,0.7H247.2z M244.8,62h3.5v2.4h-0.7v-0.2h-2.1v0.2h-0.7V62z M245.5,62.4v0.4h2.1
		v-0.4H245.5z M247.6,63.7v-0.4h-2.1v0.4H247.6z"/>
	<path class="st2" d="M251.5,61.7c-0.1-0.2-0.3-0.6-0.5-0.9v3.7h-0.7v-3.2c-0.2,0.7-0.5,1.4-0.8,1.8c-0.1-0.2-0.2-0.5-0.4-0.7
		c0.5-0.6,0.9-1.7,1.1-2.7h-0.9v-0.6h1v-1.4h0.7v1.4h0.8v0.6h-0.8v0.3c0.2,0.3,0.7,1.1,0.9,1.3L251.5,61.7z M256.1,61.3
		c-0.3,0.5-0.7,1-1.2,1.4c0.5,0.4,1,0.8,1.3,1.2l-0.5,0.5c-0.3-0.3-0.8-0.8-1.3-1.2c-0.7,0.5-1.5,1-2.4,1.3
		c-0.1-0.2-0.3-0.4-0.4-0.6c1.7-0.5,3.1-1.6,3.8-2.8L256.1,61.3z M255.5,59.9c-0.7,1.2-1.8,2.2-3.2,2.9c-0.1-0.2-0.3-0.4-0.4-0.5
		c0.7-0.3,1.4-0.8,1.9-1.3c-1.2,0.1-1.5,0.1-1.6,0.2c0-0.2-0.1-0.5-0.2-0.6c0.2,0,0.4-0.1,0.5-0.2c0.1-0.1,0.5-0.7,0.7-1.1H252v-0.6
		h1.9c-0.1-0.2-0.2-0.6-0.3-0.8l0.7-0.2c0.2,0.3,0.4,0.7,0.4,1h1.6v0.6h-2.1c-0.2,0.4-0.5,0.9-0.8,1.3l1.1-0.1
		c0.2-0.2,0.3-0.4,0.4-0.7L255.5,59.9z"/>
	<path class="st2" d="M263.6,63.6v0.6H257v-0.6h2.9v-0.8h-2.3v-0.6h2.3v-0.7h0.7v0.7h2.3v0.6h-2.3v0.8H263.6z M257.7,59.5H257v-1.4
		h2.9c-0.1-0.2-0.2-0.4-0.2-0.5l0.7-0.2c0.1,0.2,0.3,0.5,0.4,0.7h2.7v1.4h-0.7v-0.7h-5.1V59.5z M262.5,61.7
		c-0.1-0.1-0.2-0.3-0.4-0.5c-3.4,0.3-3.8,0.3-4.1,0.4c0-0.1-0.1-0.5-0.2-0.6c0.1,0,0.3-0.1,0.5-0.3c0.2-0.1,0.5-0.4,0.9-0.8h-1.3
		v-0.6h4.9V60h-1.2c0.5,0.4,1.1,1,1.4,1.3L262.5,61.7z M260.1,60c-0.3,0.3-0.7,0.7-1.1,0.9l2.6-0.2c-0.2-0.2-0.4-0.3-0.5-0.4
		l0.5-0.3H260.1z"/>
</g>
<path class="st1" d="M133.2,113c0,1.1,0.9,2,2,2h69c1.1,0,2-0.9,2-2v-13c0-1.1-0.9-2-2-2h-69c-1.1,0-2,0.9-2,2V113z"/>
<g>
	<path class="st2" d="M160.4,107.5c0-0.1-0.1-0.3-0.1-0.4c-1.6,0.3-1.9,0.4-2,0.5c0-0.1-0.1-0.5-0.2-0.6c0.2,0,0.4-0.2,0.6-0.5
		c0.1-0.1,0.3-0.4,0.6-0.9c-0.7,0.1-0.9,0.1-1,0.2c0-0.1-0.1-0.5-0.2-0.6c0.1,0,0.3-0.2,0.4-0.4c0.2-0.2,0.7-1.1,0.9-2l0.7,0.3
		c-0.3,0.7-0.7,1.5-1.1,2.1l0.7-0.1c0.2-0.3,0.4-0.7,0.6-1.1l0.6,0.3c-0.5,0.9-1.1,1.8-1.7,2.5l1-0.2c-0.1-0.2-0.1-0.4-0.2-0.6
		l0.5-0.1c0.2,0.5,0.4,1.1,0.5,1.5L160.4,107.5z M159,108c-0.1,0.7-0.2,1.4-0.4,1.9c-0.1-0.1-0.4-0.2-0.5-0.2
		c0.2-0.5,0.3-1.2,0.4-1.8L159,108z M159.7,107.8c0.1,0.5,0.2,1.2,0.2,1.7l-0.5,0.1c0-0.5-0.1-1.2-0.2-1.7L159.7,107.8z
		 M160.4,107.7c0.1,0.4,0.3,1,0.3,1.3l-0.5,0.2c0-0.4-0.2-0.9-0.3-1.3L160.4,107.7z M160.6,109.5c0.2-0.4,0.4-1.1,0.6-1.7l0.5,0.2
		c-0.1,0.5-0.3,1.3-0.5,1.7L160.6,109.5z M165,107.2h-3.8v-3.8h1.1c0.1-0.3,0.2-0.6,0.3-0.8l0.8,0.1c-0.1,0.2-0.2,0.5-0.3,0.7h2
		V107.2z M163.6,109.3c0.2,0,0.3-0.1,0.3-0.8c0.1,0.1,0.4,0.2,0.6,0.2c-0.1,0.9-0.2,1.1-0.8,1.1h-1c-0.7,0-0.9-0.2-0.9-0.8v-1.4h0.6
		v1.4c0,0.2,0,0.2,0.3,0.2H163.6z M164.3,104.1h-2.5v2.6h2.5V104.1z M163.8,106.5c-0.1-0.2-0.3-0.4-0.4-0.6c-0.3,0.3-0.6,0.5-1,0.7
		c-0.1-0.1-0.2-0.3-0.3-0.3c0.4-0.2,0.7-0.5,1-0.7c-0.1-0.1-0.2-0.2-0.3-0.3c-0.2,0.2-0.4,0.3-0.6,0.5c-0.1-0.1-0.2-0.3-0.3-0.3
		c0.2-0.2,0.5-0.3,0.6-0.5c-0.1-0.1-0.3-0.3-0.4-0.4l0.4-0.2c0.1,0.1,0.3,0.2,0.4,0.3c0.1-0.1,0.2-0.3,0.3-0.4l0.5,0.1
		c-0.1,0.2-0.3,0.4-0.4,0.6c0.1,0.1,0.2,0.2,0.3,0.3c0.2-0.2,0.3-0.4,0.4-0.6l0.5,0.1c-0.2,0.3-0.3,0.5-0.6,0.8
		c0.2,0.2,0.4,0.5,0.5,0.7L163.8,106.5z M163.4,108.8c-0.2-0.3-0.5-0.9-0.7-1.3l0.5-0.2c0.2,0.4,0.6,0.9,0.8,1.2L163.4,108.8z
		 M164.7,107.7c0.3,0.5,0.5,1.2,0.7,1.6l-0.5,0.2c-0.1-0.4-0.4-1.1-0.7-1.6L164.7,107.7z"/>
	<path class="st2" d="M169,107.6c0-0.1,0-0.2-0.1-0.4c-1.6,0.2-1.9,0.3-2.1,0.4c0-0.1-0.1-0.5-0.2-0.7c0.2,0,0.4-0.2,0.6-0.5
		c0.1-0.1,0.3-0.4,0.6-0.8c-0.7,0.1-0.9,0.1-1,0.2c0-0.1-0.1-0.5-0.2-0.6c0.1,0,0.3-0.2,0.4-0.4c0.2-0.2,0.7-1.1,1-2l0.7,0.3
		c-0.3,0.7-0.7,1.4-1.2,2l0.7-0.1c0.2-0.3,0.4-0.7,0.6-1l0.6,0.4c-0.5,0.9-1.1,1.8-1.7,2.5l1.1-0.1c-0.1-0.2-0.2-0.5-0.2-0.7
		l0.6-0.2c0.2,0.5,0.4,1.2,0.5,1.6L169,107.6z M167.6,108c-0.1,0.7-0.2,1.5-0.4,2c-0.1-0.1-0.4-0.2-0.6-0.2c0.2-0.5,0.3-1.2,0.4-1.9
		L167.6,108z M168.4,107.9c0.1,0.5,0.2,1.2,0.2,1.7l-0.6,0.1c0-0.5-0.1-1.1-0.2-1.7L168.4,107.9z M169.1,107.6
		c0.2,0.4,0.3,0.9,0.4,1.3l-0.5,0.2c-0.1-0.4-0.2-0.9-0.4-1.3L169.1,107.6z M173.9,109.2v0.7h-4.5v-0.7h1.9v-1.3h-1.5v-0.7h3.8v0.7
		h-1.6v1.3H173.9z M170.5,107c-0.2-0.4-0.5-1-0.9-1.6c0.3-0.5,0.6-1.1,0.8-1.5l0.6,0.2c-0.2,0.4-0.5,0.9-0.8,1.3
		c0.3,0.4,0.7,1,0.9,1.3L170.5,107z M173.8,103.8h-4.2v-0.7h4.2V103.8z M172.3,104.1c-0.2,0.4-0.5,0.9-0.8,1.3
		c0.3,0.4,0.7,1,0.9,1.3l-0.6,0.3c-0.2-0.4-0.6-1-1-1.6c0.3-0.5,0.7-1.1,0.9-1.4L172.3,104.1z M173.2,107c-0.2-0.4-0.6-1-1.1-1.6
		c0.3-0.5,0.7-1.1,0.9-1.5l0.6,0.2c-0.2,0.4-0.5,0.9-0.8,1.3c0.4,0.4,0.7,1,0.9,1.3L173.2,107z"/>
	<path class="st2" d="M177.9,108.4c-0.9,0.3-1.8,0.6-2.5,0.8l-0.2-0.8c0.3-0.1,0.6-0.2,1-0.3v-2h-0.9v-0.7h0.9v-1.6h-0.9v-0.7h2.5
		v0.7h-0.9v1.6h0.8v0.7h-0.8v1.8c0.3-0.1,0.6-0.2,0.8-0.3L177.9,108.4z M182.6,109.1v0.7h-5.1v-0.7h2.3v-1h-1.7v-0.7h1.7v-0.8h-1.7
		v-3.6h4.1v3.6h-1.7v0.8h1.8v0.7h-1.8v1H182.6z M178.8,104.6h1v-0.9h-1V104.6z M178.8,106h1v-0.9h-1V106z M181.5,103.7h-1v0.9h1
		V103.7z M181.5,105.2h-1v0.9h1V105.2z"/>
</g>
<g>
	<g>
		<path class="st4" d="M26.1,245.7c0,2.2,1.8,4,4,4h22.1c2.2,0,4-1.8,4-4v-95c0-2.2-1.8-4-4-4H30.1c-2.2,0-4,1.8-4,4V245.7z"/>
		<path class="st5" d="M26.1,245.7c0,2.2,1.8,4,4,4h22.1c2.2,0,4-1.8,4-4v-95c0-2.2-1.8-4-4-4H30.1c-2.2,0-4,1.8-4,4V245.7z"/>
	</g>
	<g>
		<path class="st4" d="M2.8,245.7c0,2.2,1.8,4,4,4h14.8c2.2,0,4-1.8,4-4v-95c0-2.2-1.8-4-4-4H6.8c-2.2,0-4,1.8-4,4V245.7z"/>
		<path class="st5" d="M2.8,245.7c0,2.2,1.8,4,4,4h14.8c2.2,0,4-1.8,4-4v-95c0-2.2-1.8-4-4-4H6.8c-2.2,0-4,1.8-4,4V245.7z"/>
	</g>
	<g>
		<path class="st6" d="M56.2,245.7c0,2.2,1.8,4,4,4H75c2.2,0,4-1.8,4-4v-95c0-2.2-1.8-4-4-4H60.2c-2.2,0-4,1.8-4,4V245.7z"/>
		<path class="st5" d="M56.2,245.7c0,2.2,1.8,4,4,4H75c2.2,0,4-1.8,4-4v-95c0-2.2-1.8-4-4-4H60.2c-2.2,0-4,1.8-4,4V245.7z"/>
	</g>
	<g>
		<path class="st7" d="M79,245.7c0,2.2,1.8,4,4,4h14.8c2.2,0,4-1.8,4-4v-95c0-2.2-1.8-4-4-4H83c-2.2,0-4,1.8-4,4V245.7z"/>
		<path class="st5" d="M79,245.7c0,2.2,1.8,4,4,4h14.8c2.2,0,4-1.8,4-4v-95c0-2.2-1.8-4-4-4H83c-2.2,0-4,1.8-4,4V245.7z"/>
	</g>
	<g>
		<path class="st8" d="M101.9,245.7c0,2.2,1.8,4,4,4h14.8c2.2,0,4-1.8,4-4v-95c0-2.2-1.8-4-4-4h-14.8c-2.2,0-4,1.8-4,4V245.7z"/>
		<path class="st5" d="M101.9,245.7c0,2.2,1.8,4,4,4h14.8c2.2,0,4-1.8,4-4v-95c0-2.2-1.8-4-4-4h-14.8c-2.2,0-4,1.8-4,4V245.7z"/>
	</g>
	<g>
		<path class="st9" d="M124.7,245.7c0,2.2,1.8,4,4,4h14.8c2.2,0,4-1.8,4-4v-95c0-2.2-1.8-4-4-4h-14.8c-2.2,0-4,1.8-4,4V245.7z"/>
		<path class="st5" d="M124.7,245.7c0,2.2,1.8,4,4,4h14.8c2.2,0,4-1.8,4-4v-95c0-2.2-1.8-4-4-4h-14.8c-2.2,0-4,1.8-4,4V245.7z"/>
	</g>
	<g>
		<path class="st10" d="M147.6,245.7c0,2.2,1.8,4,4,4h14.8c2.2,0,4-1.8,4-4v-95c0-2.2-1.8-4-4-4h-14.8c-2.2,0-4,1.8-4,4V245.7z"/>
		<path class="st5" d="M147.6,245.7c0,2.2,1.8,4,4,4h14.8c2.2,0,4-1.8,4-4v-95c0-2.2-1.8-4-4-4h-14.8c-2.2,0-4,1.8-4,4V245.7z"/>
	</g>
	<g>
		<path class="st11" d="M170.4,245.7c0,2.2,1.8,4,4,4h14.8c2.2,0,4-1.8,4-4v-95c0-2.2-1.8-4-4-4h-14.8c-2.2,0-4,1.8-4,4V245.7z"/>
		<path class="st5" d="M170.4,245.7c0,2.2,1.8,4,4,4h14.8c2.2,0,4-1.8,4-4v-95c0-2.2-1.8-4-4-4h-14.8c-2.2,0-4,1.8-4,4V245.7z"/>
	</g>
	<g>
		<path class="st12" d="M193.3,245.7c0,2.2,1.8,4,4,4h14.8c2.2,0,4-1.8,4-4v-95c0-2.2-1.8-4-4-4h-14.8c-2.2,0-4,1.8-4,4V245.7z"/>
		<path class="st5" d="M193.3,245.7c0,2.2,1.8,4,4,4h14.8c2.2,0,4-1.8,4-4v-95c0-2.2-1.8-4-4-4h-14.8c-2.2,0-4,1.8-4,4V245.7z"/>
	</g>
	<g>
		<path class="st13" d="M216.1,245.7c0,2.2,1.8,4,4,4H235c2.2,0,4-1.8,4-4v-95c0-2.2-1.8-4-4-4h-14.8c-2.2,0-4,1.8-4,4V245.7z"/>
		<path class="st5" d="M216.1,245.7c0,2.2,1.8,4,4,4H235c2.2,0,4-1.8,4-4v-95c0-2.2-1.8-4-4-4h-14.8c-2.2,0-4,1.8-4,4V245.7z"/>
	</g>
	<g>
		<path class="st6" d="M239,245.7c0,2.2,1.8,4,4,4h14.8c2.2,0,4-1.8,4-4v-95c0-2.2-1.8-4-4-4H243c-2.2,0-4,1.8-4,4V245.7z"/>
		<path class="st5" d="M239,245.7c0,2.2,1.8,4,4,4h14.8c2.2,0,4-1.8,4-4v-95c0-2.2-1.8-4-4-4H243c-2.2,0-4,1.8-4,4V245.7z"/>
	</g>
	<g>
		<path class="st14" d="M261.8,245.7c0,2.2,1.8,4,4,4h14.8c2.2,0,4-1.8,4-4v-95c0-2.2-1.8-4-4-4h-14.8c-2.2,0-4,1.8-4,4V245.7z"/>
		<path class="st5" d="M261.8,245.7c0,2.2,1.8,4,4,4h14.8c2.2,0,4-1.8,4-4v-95c0-2.2-1.8-4-4-4h-14.8c-2.2,0-4,1.8-4,4V245.7z"/>
	</g>
	<g>
		<path class="st15" d="M307.5,245.7c0,2.2,1.8,4,4,4h14.8c2.2,0,4-1.8,4-4v-95c0-2.2-1.8-4-4-4h-14.8c-2.2,0-4,1.8-4,4V245.7z"/>
		<path class="st5" d="M307.5,245.7c0,2.2,1.8,4,4,4h14.8c2.2,0,4-1.8,4-4v-95c0-2.2-1.8-4-4-4h-14.8c-2.2,0-4,1.8-4,4V245.7z"/>
	</g>
	<g>
		<path class="st16" d="M284.7,245.7c0,2.2,1.8,4,4,4h14.8c2.2,0,4-1.8,4-4v-95c0-2.2-1.8-4-4-4h-14.8c-2.2,0-4,1.8-4,4V245.7z"/>
		<path class="st5" d="M284.7,245.7c0,2.2,1.8,4,4,4h14.8c2.2,0,4-1.8,4-4v-95c0-2.2-1.8-4-4-4h-14.8c-2.2,0-4,1.8-4,4V245.7z"/>
	</g>
	<g>
		<path class="st2" d="M17.9,161.9v0.8h-7.2v-0.8h2.9v-6.1h0.8v2.4h2.9v0.7h-2.9v3H17.9z"/>
		<path class="st2" d="M11.9,169c-0.3-0.3-0.8-0.6-1.3-0.8l0.4-0.5c0.4,0.2,1,0.5,1.3,0.8L11.9,169z M10.9,172.1
			c0.3-0.6,0.8-1.7,1.1-2.6l0.6,0.4c-0.3,0.8-0.7,1.8-1,2.6L10.9,172.1z M12.4,166.8c-0.3-0.3-0.9-0.6-1.4-0.9l0.4-0.5
			c0.5,0.2,1.1,0.6,1.4,0.8L12.4,166.8z M13.9,166.8c-0.2,0.5-0.5,1-0.8,1.3c-0.1-0.1-0.5-0.3-0.6-0.4c0.5-0.6,1-1.5,1.3-2.4
			l0.7,0.2c-0.1,0.2-0.2,0.5-0.3,0.7h3.5v0.7H13.9z M17.3,169.8c0,0.4,0,0.8-0.1,1.1h0.5v0.6h-0.6c-0.1,0.4-0.1,0.7-0.2,0.8
			c-0.2,0.2-0.3,0.3-0.6,0.3c-0.2,0-0.6,0-1,0c0-0.2-0.1-0.4-0.2-0.6c0.4,0,0.7,0,0.9,0c0.1,0,0.2,0,0.3-0.1
			c0.1-0.1,0.1-0.2,0.2-0.4H13c0.1-0.5,0.2-1.1,0.3-1.7h-0.7v-0.7h0.8c0.1-0.6,0.1-1.1,0.2-1.6h3.9c0,0,0,0.2,0,0.3
			c0,0.5,0,0.9-0.1,1.3H18v0.7H17.3z M14,169.8c-0.1,0.4-0.1,0.7-0.2,1.1h1.5c-0.2-0.3-0.5-0.6-0.8-0.8l0.3-0.2H14z M14.2,168.1
			c0,0.3-0.1,0.6-0.1,1h1.4c-0.2-0.2-0.5-0.5-0.8-0.8l0.3-0.2H14.2z M16.6,170.8c0-0.3,0.1-0.6,0.1-1.1H15c0.3,0.2,0.7,0.6,0.9,0.8
			l-0.3,0.2H16.6z M15.2,168.1c0.3,0.2,0.6,0.5,0.8,0.8l-0.3,0.2h1c0-0.3,0-0.6,0-1H15.2z"/>
		<path class="st2" d="M13.1,177.3h1.6v0.7h-1.6v0.2c0.4,0.3,1.2,1.2,1.5,1.4l-0.4,0.6c-0.2-0.3-0.7-0.8-1-1.2v3.2h-0.7v-3.2
			c-0.4,0.8-0.9,1.6-1.4,2.1c-0.1-0.2-0.3-0.5-0.4-0.7c0.6-0.6,1.3-1.6,1.6-2.5h-1.5v-0.7h1.6v-1.2c-0.5,0.1-1,0.2-1.4,0.2
			c0-0.2-0.1-0.4-0.2-0.6c1.2-0.2,2.5-0.5,3.3-0.8l0.5,0.6c-0.4,0.2-0.9,0.3-1.4,0.4V177.3z M15.9,180.2h-0.7v-4.4h0.7V180.2z
			 M17.6,175v6.3c0,0.5-0.1,0.7-0.4,0.8c-0.3,0.1-0.8,0.1-1.5,0.1c0-0.2-0.2-0.6-0.3-0.8c0.5,0,1,0,1.2,0c0.1,0,0.2-0.1,0.2-0.2V175
			H17.6z"/>
		<path class="st2" d="M13.2,189.8l0.1,0.7c-0.9,0.2-1.8,0.4-2.5,0.6l-0.2-0.7c0.4-0.1,0.8-0.2,1.3-0.3c0.2-0.8,0.3-2.2,0.4-3.1
			l0.7,0.1c-0.1,0.9-0.3,2.1-0.5,2.9L13.2,189.8z M13.2,186.6h-2.4v-0.7h1c-0.1-0.3-0.2-0.8-0.4-1.2l0.7-0.2
			c0.1,0.4,0.3,0.8,0.4,1.1l-0.6,0.2h1.3V186.6z M11.2,189.8c0-0.8-0.2-1.9-0.3-2.8l0.6-0.1c0.2,0.9,0.3,2,0.4,2.7L11.2,189.8z
			 M15.5,191c0,0.4-0.1,0.6-0.3,0.7c-0.2,0.1-0.6,0.1-1.2,0.1c0-0.2-0.1-0.5-0.2-0.6c0.4,0,0.8,0,0.9,0c0.1,0,0.2,0,0.2-0.2v-1.9
			c-0.4,0.4-0.8,0.8-1.2,1.2l-0.3-0.6c0.4-0.3,1-0.8,1.5-1.4v-2.8h-1.4v-0.7h2V191z M14,186.3c0.2,0.5,0.4,1.1,0.6,1.5L14,188
			c-0.1-0.4-0.3-1.1-0.5-1.6L14,186.3z M17.7,191c0,0.4-0.1,0.6-0.3,0.7c-0.2,0.1-0.6,0.1-1.2,0.1c0-0.2-0.1-0.5-0.2-0.6
			c0.4,0,0.8,0,0.9,0c0.1,0,0.2,0,0.2-0.2v-2c-0.4,0.4-0.8,0.7-1.1,1l-0.3-0.6c0.4-0.3,0.9-0.8,1.4-1.2v-2.7h-1.3v-0.7h2V191z
			 M16.2,186.3c0.2,0.5,0.5,1.2,0.6,1.5l-0.6,0.2c-0.1-0.4-0.3-1.1-0.5-1.6L16.2,186.3z"/>
	</g>
	<g>
		<path class="st2" d="M66.6,157.7c-0.2,0.4-0.5,0.8-0.9,1.2v4.2H65v-3.3c-0.3,0.3-0.5,0.5-0.8,0.7c-0.1-0.2-0.4-0.5-0.5-0.6
			c0.8-0.6,1.7-1.5,2.2-2.4L66.6,157.7z M66.3,156c-0.5,0.7-1.4,1.5-2.1,2c-0.1-0.2-0.3-0.5-0.4-0.6c0.7-0.4,1.4-1.1,1.8-1.7
			L66.3,156z M71.1,159.1H70v3.1c0,0.4-0.1,0.6-0.4,0.8c-0.3,0.1-0.8,0.1-1.5,0.1c0-0.2-0.1-0.5-0.2-0.7c0.5,0,1,0,1.2,0
			c0.2,0,0.2,0,0.2-0.2v-3.1h-2.5v-0.7h4.4V159.1z M70.9,156.9H67v-0.7h3.9V156.9z"/>
		<path class="st2" d="M70.6,167.5c-0.2,1.3-0.5,2.3-1,3.2c0.4,0.6,0.9,1.1,1.6,1.4c-0.2,0.2-0.4,0.4-0.5,0.6
			c-0.6-0.3-1.1-0.8-1.5-1.3c-0.4,0.6-1,1-1.7,1.4c-0.1-0.2-0.3-0.5-0.4-0.7c0.7-0.3,1.3-0.8,1.7-1.4c-0.3-0.6-0.6-1.3-0.7-2
			c-0.1,0.2-0.3,0.4-0.4,0.6c-0.1-0.1-0.3-0.3-0.4-0.4h-0.9v1.8l1.3-0.3l0.1,0.7c-1.3,0.3-2.7,0.6-3.7,0.9l-0.1-0.7l0.4-0.1v-3.5
			h0.7v3.3l0.7-0.1v-4.3h-1.6v-0.7h3.6v0.7h-1.3v1.6h1v0.2c0.5-0.8,0.9-1.9,1.1-3.1l0.7,0.1c-0.1,0.5-0.2,0.9-0.3,1.3h2.4v0.7H70.6z
			 M68.5,167.6c0.2,0.8,0.4,1.6,0.7,2.3c0.3-0.7,0.5-1.5,0.7-2.4h-1.4L68.5,167.6z"/>
		<path class="st2" d="M65.2,176c-0.2,0.4-0.5,0.7-0.8,1c-0.1-0.1-0.4-0.4-0.5-0.5c0.5-0.4,0.9-1.1,1.2-1.7l0.7,0.2
			c-0.1,0.1-0.1,0.3-0.2,0.4h1.9v0.6h-1.3c0.2,0.2,0.5,0.4,0.6,0.6l-0.5,0.4c-0.1-0.2-0.5-0.5-0.7-0.8l0.3-0.2H65.2z M67.6,176.5
			c0.1,0.2,0.2,0.4,0.3,0.6h2.9v1.4h-0.8v-0.8H65v0.8h-0.7v-1.4h2.9c-0.1-0.2-0.2-0.3-0.2-0.5L67.6,176.5z M65.9,180.2h4.4v2h-0.7
			V182h-3.6v0.2h-0.8v-4.1h4.7v1.7h-3.9V180.2z M65.9,178.7v0.6h3.2v-0.6H65.9z M65.9,180.8v0.6h3.6v-0.6H65.9z M71.1,175.4v0.6
			h-1.6c0.3,0.2,0.6,0.5,0.7,0.7l-0.5,0.4c-0.2-0.2-0.6-0.6-0.9-0.8l0.3-0.3h-0.8c-0.2,0.2-0.4,0.5-0.6,0.6
			c-0.1-0.1-0.4-0.3-0.6-0.4c0.4-0.3,0.8-0.8,1-1.4L69,175c-0.1,0.1-0.1,0.3-0.2,0.4H71.1z"/>
		<path class="st2" d="M66.5,190.2c-0.9,0.3-1.8,0.6-2.5,0.8l-0.2-0.8c0.3-0.1,0.6-0.2,1-0.3v-2h-0.9v-0.7h0.9v-1.6h-0.9V185h2.5
			v0.7h-0.9v1.6h0.8v0.7h-0.8v1.8c0.3-0.1,0.6-0.2,0.8-0.3L66.5,190.2z M71.2,190.9v0.7h-5.1v-0.7h2.3v-1h-1.7v-0.7h1.7v-0.8h-1.7
			v-3.6h4.1v3.6h-1.7v0.8H71v0.7h-1.8v1H71.2z M67.4,186.4h1v-0.9h-1V186.4z M67.4,187.8h1v-0.9h-1V187.8z M70.1,185.5h-1v0.9h1
			V185.5z M70.1,186.9h-1v0.9h1V186.9z"/>
		<path class="st2" d="M67.8,198.4c-0.1,0.8-0.4,1.4-0.8,1.8c0.5,0.4,1.3,0.5,2.1,0.5c0.3,0,1.7,0,2.1,0c-0.1,0.2-0.2,0.4-0.2,0.6
			h-1.9c-1,0-1.9-0.1-2.5-0.7c-0.4,0.4-0.8,0.6-1.4,0.8c-0.1-0.2-0.2-0.4-0.3-0.5c0.5-0.1,0.9-0.4,1.3-0.8c-0.1-0.2-0.3-0.4-0.4-0.7
			c-0.1,0.2-0.3,0.3-0.4,0.5c-0.1-0.1-0.2-0.2-0.3-0.3c-0.1,0.7-0.3,1.3-0.6,1.9c-0.1-0.1-0.4-0.4-0.6-0.4c0.6-1,0.7-2.5,0.7-3.6
			v-1.9H67v-1.4h0.7v0.5h2.6v0.6h-2.6v0.4h2.6l0.1,0l0.5,0.1c-0.2,0.5-0.4,1-0.6,1.4l-0.6-0.2c0.1-0.2,0.2-0.4,0.3-0.7h-2.4v0.4
			l1.9-0.1l0,0.5l-2,0.1v0.1c0,0.2,0,0.3,0.3,0.3h1.7c0.3,0,0.7,0,0.9-0.1c0,0.2,0,0.4,0.1,0.5c-0.2,0-0.6,0.1-0.9,0.1H68
			c-0.8,0-1-0.2-1-0.8v0l-1.5,0.1l0-0.5l1.5-0.1v-0.4h-1.8v1.3c0,0.6,0,1.2-0.1,1.9c0.5-0.4,0.9-1.1,1.1-1.7l0.6,0.1
			c-0.1,0.2-0.1,0.3-0.2,0.5h0.8l0.1,0L67.8,198.4z M66.2,198.9c0.1,0.3,0.2,0.6,0.4,0.8c0.2-0.3,0.4-0.6,0.5-1h-0.8L66.2,198.9z
			 M70,200.3c-0.4,0-0.6-0.1-0.6-0.6v-0.9h-0.7v0.1c0,0.5-0.1,1.2-0.7,1.6c-0.1-0.1-0.3-0.3-0.5-0.4c0.5-0.4,0.6-0.9,0.6-1.2v-0.6
			H70v1.5c0,0.2,0,0.2,0.1,0.2h0.2c0.1,0,0.1-0.1,0.1-0.5c0.1,0.1,0.3,0.1,0.4,0.2c0,0.6-0.2,0.8-0.5,0.8H70z"/>
	</g>
	<g>
		<path class="st2" d="M91.5,156.9c0,0.1,0,0.1,0,0.2c0.4,0.4,1.3,0.7,2.3,0.8c-0.1,0.2-0.3,0.4-0.4,0.6c-0.9-0.1-1.6-0.4-2.1-0.9
			c-0.3,0.4-0.9,0.7-2.3,0.9c-0.1-0.2-0.2-0.4-0.4-0.6h-2v-0.6h2.3v0.5c1.7-0.2,1.9-0.7,1.9-1v-0.1h-0.7c-0.2,0.3-0.4,0.5-0.6,0.7
			c-0.1-0.1-0.4-0.3-0.6-0.4c0.4-0.4,0.7-0.9,0.9-1.5l0.7,0.1c0,0.1-0.1,0.3-0.2,0.4H93l0.1,0l0.5,0.2c-0.2,0.4-0.5,0.9-0.7,1.2
			l-0.6-0.2c0.1-0.1,0.2-0.4,0.3-0.6h-1.1V156.9z M91.5,161.7c0.8,0.3,1.7,0.6,2.3,0.9L93,163c-0.5-0.3-1.3-0.6-2.2-0.9l0.5-0.4H89
			l0.7,0.3c-0.6,0.4-1.6,0.8-2.4,1c-0.1-0.2-0.4-0.4-0.6-0.6c0.8-0.2,1.8-0.4,2.3-0.7h-1.3v-3.2h5.2v3.2H91.5z M88.7,156.7h-2v-0.6
			h2V156.7z M88.4,159.5h3.8V159h-3.8V159.5z M88.4,160.4h3.8v-0.4h-3.8V160.4z M88.4,161.3h3.8v-0.5h-3.8V161.3z"/>
		<path class="st2" d="M89.5,169.9c-0.2-0.3-0.5-0.8-0.8-1.1v3.9h-0.8v-3.5c-0.3,0.8-0.7,1.6-1.1,2.1c-0.1-0.2-0.3-0.5-0.4-0.7
			c0.6-0.7,1.1-1.8,1.4-2.8h-1.2V167h1.3v-1.7h0.8v1.7h1v0.7h-1v0.2c0.3,0.3,1.1,1.2,1.3,1.4L89.5,169.9z M93.8,167.7h-0.8v4
			c0,0.5-0.1,0.7-0.4,0.8c-0.3,0.1-0.8,0.1-1.4,0.1c0-0.2-0.2-0.6-0.3-0.8c0.5,0,1,0,1.1,0c0.1,0,0.2,0,0.2-0.2v-3
			c-0.6,1.1-1.5,2.1-2.3,2.7c-0.1-0.2-0.4-0.5-0.5-0.6c1-0.7,2-1.9,2.6-3.1h-2V167h2.3v-1.7h0.8v1.7h0.8V167.7z"/>
		<path class="st2" d="M90.4,179.2c-0.1,0.8-0.4,1.4-0.8,1.8c0.5,0.4,1.3,0.5,2.1,0.5c0.3,0,1.7,0,2.1,0c-0.1,0.2-0.2,0.4-0.2,0.6
			h-1.9c-1,0-1.9-0.1-2.5-0.7c-0.4,0.4-0.8,0.6-1.4,0.8c-0.1-0.2-0.2-0.4-0.3-0.5c0.5-0.1,0.9-0.4,1.3-0.8c-0.1-0.2-0.3-0.4-0.4-0.7
			c-0.1,0.2-0.3,0.3-0.4,0.5c-0.1-0.1-0.2-0.2-0.3-0.3c-0.1,0.7-0.3,1.3-0.6,1.9c-0.1-0.1-0.4-0.4-0.6-0.4c0.6-1,0.7-2.5,0.7-3.6
			v-1.9h2.5v-1.4h0.7v0.5h2.6v0.6h-2.6v0.4h2.6l0.1,0l0.5,0.1c-0.2,0.5-0.4,1-0.6,1.4l-0.6-0.2c0.1-0.2,0.2-0.4,0.3-0.7h-2.4v0.4
			l1.9-0.1l0,0.5l-2,0.1v0.1c0,0.2,0,0.3,0.3,0.3h1.7c0.3,0,0.7,0,0.9-0.1c0,0.2,0,0.4,0.1,0.5c-0.2,0-0.6,0.1-0.9,0.1h-1.9
			c-0.8,0-1-0.2-1-0.8v0l-1.5,0.1l0-0.5l1.5-0.1v-0.4h-1.8v1.3c0,0.6,0,1.2-0.1,1.9c0.5-0.4,0.9-1.1,1.1-1.7l0.6,0.1
			c-0.1,0.2-0.1,0.3-0.2,0.5H90l0.1,0L90.4,179.2z M88.9,179.7c0.1,0.3,0.2,0.6,0.4,0.8c0.2-0.3,0.4-0.6,0.5-1H89L88.9,179.7z
			 M92.7,181.1c-0.4,0-0.6-0.1-0.6-0.6v-0.9h-0.7v0.1c0,0.5-0.1,1.2-0.7,1.6c-0.1-0.1-0.3-0.3-0.5-0.4c0.5-0.4,0.6-0.9,0.6-1.2v-0.6
			h1.8v1.5c0,0.2,0,0.2,0.1,0.2H93c0.1,0,0.1-0.1,0.1-0.5c0.1,0.1,0.3,0.1,0.4,0.2c0,0.6-0.2,0.8-0.5,0.8H92.7z"/>
	</g>
	<g>
		<path class="st2" d="M116.1,161.7v0.7h-7.2v-0.7h3.1v-4.4h-2.7v-0.8h6.3v0.8h-2.8v4.4H116.1z"/>
		<path class="st2" d="M114.4,169.2c-0.2,0.7-0.5,1.2-0.8,1.6c0.9,0.4,1.7,0.8,2.3,1.2l-0.6,0.7c-0.6-0.4-1.4-0.8-2.4-1.2
			c-0.8,0.7-1.9,1-3.4,1.3c-0.1-0.2-0.3-0.6-0.5-0.7c1.3-0.2,2.3-0.4,3.1-0.9c-0.7-0.3-1.5-0.6-2.1-0.8c0.2-0.3,0.5-0.7,0.7-1.1H109
			v-0.7h2c0.2-0.4,0.4-0.9,0.6-1.3l0.8,0.2c-0.1,0.4-0.3,0.8-0.5,1.2h1.7c0-0.2,0.1-0.5,0.1-0.8l0.9,0.1c0,0.2-0.1,0.5-0.1,0.7h1.4
			v0.7H114.4z M110,167.9h-0.8v-1.7h2.9c-0.1-0.2-0.2-0.5-0.3-0.8l0.8-0.2c0.2,0.3,0.3,0.7,0.5,1h2.7v1.7H115v-1h-5V167.9z
			 M111.6,169.2c-0.2,0.3-0.3,0.5-0.4,0.7c0.5,0.2,1.1,0.4,1.6,0.6c0.3-0.4,0.6-0.8,0.8-1.3H111.6z"/>
		<path class="st2" d="M115.7,176.3v3.8h-0.8v-0.4h-2.1v2.5h-0.8v-2.5H110v0.5h-0.7v-3.9h2.8v-1.4h0.8v1.4H115.7z M112.1,179V177
			H110v1.9H112.1z M114.9,179V177h-2.1v1.9H114.9z"/>
		<path class="st2" d="M110.3,187.4c-0.1,1-0.4,2.3-0.7,3.2l-0.7-0.3c0.3-0.8,0.6-2,0.7-3L110.3,187.4z M111.6,186.7v3.8
			c0,0.4,0.1,0.4,0.5,0.4h1.4c0.5,0,0.5-0.3,0.6-1.6c0.2,0.1,0.5,0.3,0.7,0.3c-0.1,1.5-0.3,2-1.2,2h-1.5c-0.9,0-1.2-0.3-1.2-1.1
			v-3.8H111.6z M111.7,184.7c0.7,0.5,1.7,1.2,2.2,1.7l-0.6,0.6c-0.4-0.5-1.4-1.3-2.1-1.8L111.7,184.7z M115.2,187
			c0.5,1,0.9,2.2,1.1,3l-0.7,0.3c-0.1-0.8-0.6-2.1-1-3L115.2,187z"/>
	</g>
	<g>
		<path class="st2" d="M132.6,159.5h2.9v3.4h-0.7v-0.4h-1.5v0.4h-0.7V159.5z M133.3,160.2v1.7h1.5v-1.7H133.3z M138.2,158.8h-4.5
			V156h4.5V158.8z M137.5,156.7h-3v1.3h3V156.7z M139.4,159.5v3.5h-0.7v-0.4H137v0.4h-0.7v-3.5H139.4z M138.6,161.9v-1.7H137v1.7
			H138.6z"/>
		<path class="st2" d="M134.8,165.5c-0.2,0.6-0.5,1.1-0.8,1.7v5.4h-0.7v-4.3c-0.2,0.3-0.5,0.6-0.7,0.8c-0.1-0.2-0.3-0.6-0.4-0.8
			c0.8-0.7,1.5-1.9,2-3.1L134.8,165.5z M136.2,170.3c-0.4,0.7-0.9,1.4-1.3,2c-0.1-0.1-0.4-0.3-0.6-0.4c0.4-0.5,0.9-1.1,1.2-1.7
			L136.2,170.3z M137.4,169.8v2.9h-0.7v-2.9h-2.2v-0.7h2.2v-0.8H135v-2.6h4.1v2.6h-1.7v0.8h2.2v0.7H137.4z M135.7,167.6h2.7v-1.3
			h-2.7V167.6z M138.4,170.1c0.5,0.6,1,1.3,1.3,1.7l-0.6,0.4c-0.2-0.5-0.8-1.2-1.2-1.8L138.4,170.1z"/>
		<path class="st2" d="M139.2,176.3v3.8h-0.8v-0.4h-2.1v2.5h-0.8v-2.5h-2.1v0.5h-0.7v-3.9h2.8v-1.4h0.8v1.4H139.2z M135.6,179V177
			h-2.1v1.9H135.6z M138.4,179V177h-2.1v1.9H138.4z"/>
		<path class="st2" d="M133.7,187.4c-0.1,1-0.4,2.3-0.7,3.2l-0.7-0.3c0.3-0.8,0.6-2,0.7-3L133.7,187.4z M135.1,186.7v3.8
			c0,0.4,0.1,0.4,0.5,0.4h1.4c0.5,0,0.5-0.3,0.6-1.6c0.2,0.1,0.5,0.3,0.7,0.3c-0.1,1.5-0.3,2-1.2,2h-1.5c-0.9,0-1.2-0.3-1.2-1.1
			v-3.8H135.1z M135.2,184.7c0.7,0.5,1.7,1.2,2.2,1.7l-0.6,0.6c-0.4-0.5-1.4-1.3-2.1-1.8L135.2,184.7z M138.6,187
			c0.5,1,0.9,2.2,1.1,3l-0.7,0.3c-0.1-0.8-0.6-2.1-1-3L138.6,187z"/>
	</g>
	<g>
		<path class="st2" d="M162.3,162.2v0.6h-5.9v-0.6h2.5v-0.7h-1.8V161h1.8v-0.6h-1.5c-0.2,0.4-0.5,0.8-0.8,1
			c-0.1-0.1-0.2-0.5-0.4-0.7c-0.1,0.8-0.3,1.7-0.8,2.4c-0.1-0.1-0.4-0.4-0.6-0.5c0.6-0.8,0.7-1.8,0.7-2.7v-1.6h1
			c-0.1-0.1-0.2-0.2-0.3-0.3c0.6-0.1,1.3-0.3,2-0.4c-0.6-0.2-1.2-0.3-1.7-0.4l0.4-0.3h-1.3v-0.6h2.8c-0.1-0.2-0.2-0.4-0.4-0.5
			l0.5-0.2c0.2,0.2,0.4,0.5,0.6,0.8h2.7v0.6h-1.2l0.4,0.2c-0.3,0.2-0.7,0.3-1.1,0.5c0.5,0.2,1,0.3,1.4,0.4l-0.4,0.3h1.2v0.6h-5.9v1
			c0,0.2,0,0.5,0,0.7c0.4-0.4,0.8-1,1-1.6l0.6,0.2c-0.1,0.2-0.1,0.3-0.2,0.4h1.2v-0.6h0.7v0.6h2.1v0.6h-2.1v0.6h1.9v0.6h-1.9v0.7
			H162.3z M160.7,158.4c-0.4-0.2-1-0.3-1.5-0.5c-0.7,0.2-1.3,0.4-2,0.5H160.7z M157.4,157c0.6,0.1,1.2,0.3,1.8,0.5
			c0.5-0.1,0.9-0.3,1.2-0.5H157.4z"/>
		<path class="st2" d="M155.3,169.1h2.9v3.4h-0.7v-0.4H156v0.4h-0.7V169.1z M156,169.8v1.7h1.5v-1.7H156z M160.9,168.4h-4.5v-2.7
			h4.5V168.4z M160.2,166.3h-3v1.3h3V166.3z M162.1,169.1v3.5h-0.7v-0.4h-1.6v0.4H159v-3.5H162.1z M161.3,171.5v-1.7h-1.6v1.7H161.3
			z"/>
		<path class="st2" d="M161.4,178.1c-0.4,1.1-1.1,1.9-2,2.5c0.8,0.4,1.8,0.6,2.9,0.8c-0.2,0.2-0.4,0.5-0.5,0.7
			c-1.3-0.2-2.3-0.5-3.2-1c-1,0.5-2.1,0.9-3.3,1.1c-0.1-0.2-0.3-0.5-0.4-0.7c1.1-0.2,2.1-0.4,3-0.8c-0.7-0.5-1.2-1.2-1.6-2l0.3-0.1
			h-0.9v-0.7h2.6v-1.1h-3V176h3v-1.1h0.8v1.1h3v0.7h-3v1.1h1.7l0.1,0L161.4,178.1z M157.1,178.6c0.4,0.7,0.9,1.2,1.6,1.7
			c0.7-0.4,1.3-1,1.6-1.7H157.1z"/>
		<path class="st2" d="M156.6,189.1v2c0,0.4-0.1,0.6-0.3,0.7c-0.2,0.1-0.5,0.1-1,0.1c0-0.2-0.1-0.5-0.2-0.7c0.3,0,0.6,0,0.7,0
			c0.1,0,0.1,0,0.1-0.1v-1.7l-0.9,0.3l-0.1-0.7c0.3-0.1,0.6-0.2,1-0.3v-1.8H155v-0.7h0.9v-1.6h0.7v1.6h0.8v0.7h-0.8v1.6
			c0.2-0.1,0.5-0.1,0.8-0.2l0.1,0.7L156.6,189.1z M161.8,189c-0.2,0.7-0.6,1.3-1,1.7c0.5,0.3,1.1,0.4,1.7,0.5
			c-0.2,0.1-0.4,0.4-0.5,0.6c-0.7-0.1-1.3-0.4-1.8-0.7c-0.5,0.3-1,0.5-1.6,0.7c-0.1-0.2-0.3-0.4-0.4-0.6c0.6-0.1,1-0.3,1.5-0.5
			c-0.3-0.3-0.6-0.5-0.8-0.9c-0.3,0.7-0.8,1.4-1.5,1.9c-0.1-0.2-0.3-0.4-0.5-0.5c1.1-0.7,1.5-1.8,1.7-2.9h-1v-0.6h1.1
			c0-0.2,0-0.4,0-0.5h-1v-0.6h0.6c-0.1-0.3-0.2-0.6-0.3-0.9l0.6-0.2c0.1,0.3,0.3,0.7,0.4,0.9l-0.5,0.2h2.1c0.2-0.4,0.5-0.9,0.7-1.3
			l0.7,0.2c-0.2,0.4-0.5,0.8-0.7,1.1h0.9v0.6h-2.6c0,0.2,0,0.3-0.1,0.5h2.9v0.6h-3c0,0.2-0.1,0.3-0.1,0.4h2.1l0.1,0L161.8,189z
			 M161.9,185.1c-1.1,0.2-2.8,0.4-4.2,0.4c0-0.2-0.1-0.4-0.2-0.6c1.4,0,3-0.2,4-0.4L161.9,185.1z M159.2,189.4c0.2,0.4,0.6,0.7,1,1
			c0.3-0.3,0.6-0.6,0.7-1H159.2z M159.5,186.6c0-0.3-0.1-0.7-0.2-1l0.6-0.1c0.1,0.3,0.2,0.8,0.2,1L159.5,186.6z"/>
		<path class="st2" d="M162.3,199.2h-0.8v1.4h-0.8v-0.3H159v0.4c0,0.4-0.1,0.6-0.4,0.7c-0.3,0.1-0.7,0.1-1.4,0.1
			c0-0.2-0.2-0.4-0.3-0.6c0.4,0,0.9,0,1,0c0.1,0,0.2,0,0.2-0.2v-0.4h-2.5v-0.6h2.5v-0.5h-3.2v-0.6h3.2v-0.5h-2.4v-0.5h2.4v-0.5H156
			v-1.5h2.2v-0.4h-3v-0.6h3v-0.6h0.8v0.6h3.1v0.6H159v0.4h2.3v1.5H159v0.5h2.5v1h0.8V199.2z M158.3,196.7v-0.5h-1.5v0.5H158.3z
			 M159,196.2v0.5h1.6v-0.5H159z M159,198.6h1.7v-0.5H159V198.6z M160.7,199.2H159v0.5h1.7V199.2z"/>
		<path class="st2" d="M158,209.8c-0.6,0.4-1.6,0.8-2.4,1c-0.1-0.2-0.3-0.4-0.4-0.5c0.8-0.1,1.8-0.4,2.3-0.7L158,209.8z
			 M162.2,208.6v0.6H159v1.9h-0.7v-1.9h-3.1v-0.6h3.1v-0.5h-2.4v-0.6h2.4V207h-2.8v-0.6h1.6c-0.1-0.2-0.2-0.5-0.4-0.7l0.5-0.1h-2
			v-0.6h1.2c-0.1-0.3-0.4-0.8-0.6-1.1l0.6-0.2c0.2,0.3,0.5,0.8,0.6,1.1l-0.4,0.2h0.9v-1.4h0.7v1.4h0.8v-1.4h0.7v1.4h0.9l-0.3-0.1
			c0.2-0.3,0.4-0.8,0.6-1.2l0.8,0.2c-0.2,0.4-0.5,0.8-0.7,1.1h1.1v0.6h-2.1l0.6,0.2c-0.2,0.2-0.4,0.5-0.5,0.6h1.7v0.6H159v0.5h2.5
			v0.6H159v0.5H162.2z M157.5,205.7c0.2,0.2,0.3,0.5,0.4,0.7l-0.4,0.1h2.2l-0.3-0.1c0.2-0.2,0.3-0.5,0.4-0.7H157.5z M159.9,209.5
			c0.7,0.3,1.7,0.6,2.2,0.9l-0.5,0.4c-0.5-0.2-1.5-0.7-2.2-1L159.9,209.5z"/>
		<path class="st2" d="M158.9,217.6c-0.1,0.8-0.4,1.4-0.8,1.8c0.5,0.4,1.3,0.5,2.1,0.5c0.3,0,1.7,0,2.1,0c-0.1,0.2-0.2,0.4-0.2,0.6
			h-1.9c-1,0-1.9-0.1-2.5-0.7c-0.4,0.4-0.8,0.6-1.4,0.8c-0.1-0.2-0.2-0.4-0.3-0.5c0.5-0.1,0.9-0.4,1.3-0.8c-0.1-0.2-0.3-0.4-0.4-0.7
			c-0.1,0.2-0.3,0.3-0.4,0.5c-0.1-0.1-0.2-0.2-0.3-0.3c-0.1,0.7-0.3,1.3-0.6,1.9c-0.1-0.1-0.4-0.4-0.6-0.4c0.6-1,0.7-2.5,0.7-3.6
			v-1.9h2.5v-1.4h0.7v0.5h2.6v0.6H159v0.4h2.6l0.1,0l0.5,0.1c-0.2,0.5-0.4,1-0.6,1.4L161,216c0.1-0.2,0.2-0.4,0.3-0.7h-2.4v0.4
			l1.9-0.1l0,0.5l-2,0.1v0.1c0,0.2,0,0.3,0.3,0.3h1.7c0.3,0,0.7,0,0.9-0.1c0,0.2,0,0.4,0.1,0.5c-0.2,0-0.6,0.1-0.9,0.1h-1.9
			c-0.8,0-1-0.2-1-0.8v0l-1.5,0.1l0-0.5l1.5-0.1v-0.4h-1.8v1.3c0,0.6,0,1.2-0.1,1.9c0.5-0.4,0.9-1.1,1.1-1.7l0.6,0.1
			c-0.1,0.2-0.1,0.3-0.2,0.5h0.8l0.1,0L158.9,217.6z M157.4,218.1c0.1,0.3,0.2,0.6,0.4,0.8c0.2-0.3,0.4-0.6,0.5-1h-0.8L157.4,218.1z
			 M161.2,219.5c-0.4,0-0.6-0.1-0.6-0.6V218h-0.7v0.1c0,0.5-0.1,1.2-0.7,1.6c-0.1-0.1-0.3-0.3-0.5-0.4c0.5-0.4,0.6-0.9,0.6-1.2v-0.6
			h1.8v1.5c0,0.2,0,0.2,0.1,0.2h0.2c0.1,0,0.1-0.1,0.1-0.5c0.1,0.1,0.3,0.1,0.4,0.2c0,0.6-0.2,0.8-0.5,0.8H161.2z"/>
	</g>
	<g>
		<path class="st2" d="M179.5,157v1.8c0,1.2-0.1,3-0.7,4.2c-0.1-0.1-0.4-0.4-0.6-0.4c0.5-1.1,0.6-2.7,0.6-3.8v-2.4h3.2
			c-0.1-0.2-0.2-0.4-0.3-0.6l0.7-0.3c0.2,0.2,0.4,0.6,0.5,0.8l-0.2,0.1h3v0.6H179.5z M180.3,158.7c-0.1-0.3-0.3-0.7-0.6-1.1l0.5-0.2
			c0.3,0.3,0.5,0.7,0.6,1L180.3,158.7z M185.3,159c-0.1,0.9-0.4,1.7-0.7,2.4c0.3,0.5,0.7,0.9,1.2,1.2c-0.1,0.1-0.3,0.4-0.4,0.5
			c-0.4-0.3-0.8-0.7-1.1-1.1c-0.3,0.5-0.7,0.8-1.2,1.1c-0.1-0.1-0.2-0.3-0.3-0.4c0,0-0.1,0.1-0.2,0.1c-0.2,0.1-0.5,0.1-1,0.1
			c0-0.2-0.1-0.4-0.2-0.5c0.3,0,0.6,0,0.7,0c0.1,0,0.1,0,0.1-0.1v-2.8h-1.9v3.5h-0.5v-4.1h1.2v-1.7h0.6v1.7h1.2v0.6
			c0.3-0.6,0.6-1.4,0.7-2.2l0.6,0.1c-0.1,0.3-0.1,0.7-0.2,1h1.7v0.6H185.3z M181,161.8v0.3h-0.4v-2.1h1.2v1.8H181z M181,160.4v0.9
			h0.5v-0.9H181z M181.7,158.5c0.2-0.3,0.4-0.8,0.6-1.1l0.6,0.2c-0.2,0.4-0.5,0.8-0.7,1.1L181.7,158.5z M182.8,162.3
			c0,0.1,0,0.2,0,0.2c0.5-0.3,0.8-0.7,1.1-1.2c-0.2-0.5-0.4-1-0.5-1.6c-0.1,0.2-0.2,0.4-0.3,0.5c-0.1-0.1-0.2-0.2-0.3-0.2V162.3z
			 M183.7,159c0.1,0.6,0.3,1.2,0.5,1.7c0.2-0.5,0.4-1.1,0.4-1.7H183.7z"/>
		<path class="st2" d="M185,166.7c-0.2,0.5-0.5,0.9-0.9,1.3c0.5,0.3,1,0.5,1.6,0.6c-0.2,0.1-0.4,0.4-0.5,0.6
			c-0.6-0.2-1.2-0.4-1.7-0.8c-0.5,0.3-1.1,0.6-1.7,0.8c0-0.1-0.1-0.2-0.2-0.3c-0.1,0.5-0.3,0.9-0.4,1.3l-0.5-0.3
			c0.1-0.3,0.2-0.8,0.4-1.2h-0.6v3.1c0,0.4-0.1,0.6-0.3,0.7c-0.2,0.1-0.6,0.1-1.1,0.1c0-0.2-0.1-0.5-0.2-0.7c0.3,0,0.6,0,0.7,0
			c0.1,0,0.1,0,0.1-0.1v-2.2c-0.3,0.7-0.7,1.3-1.1,1.7c-0.1-0.2-0.2-0.5-0.4-0.7c0.5-0.4,0.9-1.2,1.2-1.9h-1.1v-0.6h2
			c-0.4-0.3-1.1-0.7-1.7-0.9l0.5-0.5c0.2,0.1,0.5,0.2,0.7,0.3c0.2-0.2,0.5-0.4,0.7-0.7h-2.1v-0.6h2.6l0.1,0l0.5,0.3
			c-0.3,0.5-0.8,1-1.2,1.3c0.3,0.1,0.5,0.3,0.6,0.4l-0.3,0.4h0.5l0.1,0l0.4,0.2c0,0.1,0,0.2-0.1,0.3c0.5-0.1,0.9-0.3,1.2-0.5
			c-0.3-0.3-0.5-0.5-0.7-0.8c-0.2,0.2-0.3,0.3-0.5,0.5c-0.1-0.1-0.4-0.3-0.6-0.4c0.6-0.5,1.2-1.2,1.5-1.9l0.7,0.2
			c-0.1,0.2-0.2,0.4-0.3,0.6h2.5v0.6H185z M185.4,169.7c0,0,0,0.2,0,0.3c-0.1,1.4-0.3,2-0.5,2.3c-0.2,0.2-0.3,0.2-0.5,0.2
			c-0.2,0-0.5,0-0.9,0c0-0.2-0.1-0.5-0.2-0.7c0.3,0,0.6,0,0.7,0c0.1,0,0.2,0,0.3-0.1c0.1-0.1,0.2-0.5,0.4-1.5h-1.2
			c-0.3,1-0.8,1.8-2.1,2.3c-0.1-0.2-0.3-0.4-0.4-0.6c1-0.4,1.5-1,1.8-1.7h-1.1v-0.6h1.3c0-0.2,0.1-0.5,0.1-0.8h0.7
			c0,0.3-0.1,0.5-0.1,0.8H185.4z M182.7,166.7c0.2,0.3,0.5,0.6,0.8,0.9c0.3-0.2,0.5-0.5,0.7-0.9H182.7z"/>
		<path class="st2" d="M180.8,175.1c-0.2,0.6-0.5,1.1-0.8,1.7v5.4h-0.7v-4.3c-0.2,0.3-0.4,0.6-0.7,0.8c-0.1-0.2-0.3-0.6-0.4-0.8
			c0.8-0.7,1.5-1.9,1.9-3.1L180.8,175.1z M182.6,180.4c-0.4,0.7-1,1.4-1.6,1.8c-0.1-0.1-0.4-0.4-0.6-0.5c0.6-0.4,1.1-1,1.4-1.6
			L182.6,180.4z M185.7,179v0.7h-5.1V179h1.2v-1.8h-1v-0.7h1V175h0.7v1.6h1.4V175h0.7v1.6h1.1v0.7h-1.1v1.8H185.7z M182.4,179h1.4
			v-1.8h-1.4V179z M184.2,180.2c0.5,0.5,1.1,1.2,1.4,1.7l-0.6,0.4c-0.3-0.5-0.8-1.2-1.4-1.7L184.2,180.2z"/>
		<path class="st2" d="M181.7,187.5c-0.1,0.1-0.2,0.2-0.3,0.3c-0.1-0.1-0.3-0.2-0.4-0.3v2h-0.6v-2c-0.2,0.2-0.3,0.3-0.5,0.5
			c-0.1-0.1-0.2-0.2-0.3-0.3c0,1.2-0.2,3-0.7,4.1c-0.1-0.1-0.4-0.4-0.6-0.4c0.6-1.2,0.6-2.8,0.6-4v-2.4h3.1
			c-0.1-0.2-0.2-0.4-0.3-0.5l0.6-0.2c0.2,0.2,0.3,0.5,0.4,0.7h2.8v0.6h-1.9c0.2,0.2,0.3,0.4,0.4,0.6l-0.2,0.1h1.4v0.5h-1.3v0.4h1.1
			v0.4h-1.1v0.4h1.1v0.4h-1.1v0.4h1.4v0.5h-3.2v0.2l0.1-0.1c0.4,0.2,1,0.5,1.3,0.8l-0.4,0.4c-0.3-0.2-0.8-0.6-1.3-0.8l0.2-0.2h-0.5
			V187.5z M179.5,191.3c0.4-0.3,0.7-0.9,0.9-1.4l0.6,0.2c-0.2,0.6-0.4,1.2-0.9,1.5L179.5,191.3z M181.5,185.9
			c-0.1,0.3-0.3,0.6-0.5,0.8v0.7c0.5-0.4,0.9-1.1,1.1-1.7h-2.6v1.7c0.5-0.5,1-1.1,1.3-1.7L181.5,185.9z M183.4,191.2
			c0.2,0,0.3-0.1,0.3-0.6c0.1,0.1,0.4,0.2,0.6,0.2c-0.1,0.8-0.3,1-0.8,1h-1.2c-0.8,0-1-0.2-1-0.8v-1h0.7v1c0,0.2,0.1,0.2,0.4,0.2
			H183.4z M183.5,186.4c-0.1-0.2-0.2-0.4-0.4-0.5l0.4-0.2h-1.4l0.6,0.2c-0.1,0.2-0.2,0.4-0.3,0.6H183.5z M183.5,186.9h-1.1v0.4h1.1
			V186.9z M183.5,187.6h-1.1v0.4h1.1V187.6z M183.5,188.4h-1.1v0.4h1.1V188.4z M184.5,189.8c0.4,0.4,0.9,1.1,1.1,1.5l-0.6,0.3
			c-0.2-0.4-0.6-1.1-1.1-1.5L184.5,189.8z"/>
		<path class="st2" d="M185.6,199.2h-0.8v1.4h-0.8v-0.3h-1.7v0.4c0,0.4-0.1,0.6-0.4,0.7c-0.3,0.1-0.7,0.1-1.4,0.1
			c0-0.2-0.2-0.4-0.3-0.6c0.4,0,0.9,0,1,0c0.1,0,0.2,0,0.2-0.2v-0.4h-2.5v-0.6h2.5v-0.5h-3.2v-0.6h3.2v-0.5h-2.4v-0.5h2.4v-0.5h-2.2
			v-1.5h2.2v-0.4h-3v-0.6h3v-0.6h0.8v0.6h3.1v0.6h-3.1v0.4h2.3v1.5h-2.3v0.5h2.5v1h0.8V199.2z M181.6,196.7v-0.5h-1.5v0.5H181.6z
			 M182.4,196.2v0.5h1.6v-0.5H182.4z M182.4,198.6h1.7v-0.5h-1.7V198.6z M184.1,199.2h-1.7v0.5h1.7V199.2z"/>
		<path class="st2" d="M181.3,209.8c-0.6,0.4-1.6,0.8-2.4,1c-0.1-0.2-0.3-0.4-0.4-0.5c0.8-0.1,1.8-0.4,2.3-0.7L181.3,209.8z
			 M185.5,208.6v0.6h-3.2v1.9h-0.7v-1.9h-3.1v-0.6h3.1v-0.5h-2.4v-0.6h2.4V207h-2.8v-0.6h1.6c-0.1-0.2-0.2-0.5-0.4-0.7l0.5-0.1h-2
			v-0.6h1.2c-0.1-0.3-0.4-0.8-0.6-1.1l0.6-0.2c0.2,0.3,0.5,0.8,0.6,1.1l-0.4,0.2h0.9v-1.4h0.7v1.4h0.8v-1.4h0.7v1.4h0.9l-0.3-0.1
			c0.2-0.3,0.4-0.8,0.6-1.2l0.8,0.2c-0.2,0.4-0.5,0.8-0.7,1.1h1.1v0.6h-2.1l0.6,0.2c-0.2,0.2-0.4,0.5-0.5,0.6h1.7v0.6h-2.8v0.5h2.5
			v0.6h-2.5v0.5H185.5z M180.9,205.7c0.2,0.2,0.3,0.5,0.4,0.7l-0.4,0.1h2.2l-0.3-0.1c0.2-0.2,0.3-0.5,0.4-0.7H180.9z M183.3,209.5
			c0.7,0.3,1.7,0.6,2.2,0.9l-0.5,0.4c-0.5-0.2-1.5-0.7-2.2-1L183.3,209.5z"/>
		<path class="st2" d="M182.3,217.6c-0.1,0.8-0.4,1.4-0.8,1.8c0.5,0.4,1.3,0.5,2.1,0.5c0.3,0,1.7,0,2.1,0c-0.1,0.2-0.2,0.4-0.2,0.6
			h-1.9c-1,0-1.9-0.1-2.5-0.7c-0.4,0.4-0.8,0.6-1.4,0.8c-0.1-0.2-0.2-0.4-0.3-0.5c0.5-0.1,0.9-0.4,1.3-0.8c-0.1-0.2-0.3-0.4-0.4-0.7
			c-0.1,0.2-0.3,0.3-0.4,0.5c-0.1-0.1-0.2-0.2-0.3-0.3c-0.1,0.7-0.3,1.3-0.6,1.9c-0.1-0.1-0.4-0.4-0.6-0.4c0.6-1,0.7-2.5,0.7-3.6
			v-1.9h2.5v-1.4h0.7v0.5h2.6v0.6h-2.6v0.4h2.6l0.1,0l0.5,0.1c-0.2,0.5-0.4,1-0.6,1.4l-0.6-0.2c0.1-0.2,0.2-0.4,0.3-0.7h-2.4v0.4
			l1.9-0.1l0,0.5l-2,0.1v0.1c0,0.2,0,0.3,0.3,0.3h1.7c0.3,0,0.7,0,0.9-0.1c0,0.2,0,0.4,0.1,0.5c-0.2,0-0.6,0.1-0.9,0.1h-1.9
			c-0.8,0-1-0.2-1-0.8v0l-1.5,0.1l0-0.5l1.5-0.1v-0.4h-1.8v1.3c0,0.6,0,1.2-0.1,1.9c0.5-0.4,0.9-1.1,1.1-1.7l0.6,0.1
			c-0.1,0.2-0.1,0.3-0.2,0.5h0.8l0.1,0L182.3,217.6z M180.7,218.1c0.1,0.3,0.2,0.6,0.4,0.8c0.2-0.3,0.4-0.6,0.5-1h-0.8L180.7,218.1z
			 M184.5,219.5c-0.4,0-0.6-0.1-0.6-0.6V218h-0.7v0.1c0,0.5-0.1,1.2-0.7,1.6c-0.1-0.1-0.3-0.3-0.5-0.4c0.5-0.4,0.6-0.9,0.6-1.2v-0.6
			h1.8v1.5c0,0.2,0,0.2,0.1,0.2h0.2c0.1,0,0.1-0.1,0.1-0.5c0.1,0.1,0.3,0.1,0.4,0.2c0,0.6-0.2,0.8-0.5,0.8H184.5z"/>
	</g>
	<g>
		<path class="st2" d="M205.5,160v0.3h1.9v2.7h-0.7v-0.3h-4.4v0.3h-0.7v-2.7h2V160h-2.8v-0.5h7.3v0.5H205.5z M201.2,156.4H201v-0.4
			h3.5v0.4h-2.7v2.1c0,0.3,0.1,0.4,0.3,0.4h0.2h1.4c0.2,0,0.6,0,0.8,0c0,0.2,0,0.3,0.1,0.5c-0.1,0-0.5,0-0.8,0h-1.7
			c-0.7,0-0.9-0.2-0.9-0.9V156.4z M202.6,157.1c-0.1,0.1-0.2,0.2-0.3,0.3c-0.1-0.1-0.3-0.2-0.4-0.2c0.2-0.2,0.4-0.5,0.6-0.8l0.4,0.1
			c0,0.1-0.1,0.2-0.1,0.2h1.5v0.4h-0.8v0.4h1v0.4h-0.9c0.3,0.2,0.7,0.4,0.9,0.6l-0.3,0.3c-0.2-0.2-0.5-0.4-0.8-0.6
			c-0.2,0.2-0.4,0.5-0.9,0.6c-0.1-0.1-0.2-0.3-0.3-0.4c0.5-0.2,0.8-0.4,0.9-0.6H202v-0.4h1v0v-0.4H202.6z M206.6,162.3v-0.9h0h-0.9
			c-0.6,0-0.8-0.1-0.8-0.6v-0.2h-0.7c-0.1,0.4-0.5,0.7-1.6,0.9c-0.1-0.1-0.2-0.3-0.3-0.4c0.9-0.1,1.2-0.2,1.3-0.4h-1.3v1.6H206.6z
			 M202.9,161.7h3.2v0.4h-3.2V161.7z M204.9,160h-0.7v0.3h0.7V160z M204.8,157.5c-0.1-0.1-0.3-0.4-0.4-0.4c0.6-0.2,0.7-0.5,0.7-0.8
			v-0.4h2v0.7c0,0.2,0,0.2,0.1,0.2h0.3c0.1,0,0.3,0,0.3,0c0,0.2,0,0.4,0,0.5c-0.1,0-0.2,0-0.4,0h-0.4c-0.5,0-0.6-0.2-0.6-0.7v-0.1
			h-0.8c0,0.3-0.2,0.7-0.6,1h2l0.1,0l0.4,0.2c-0.2,0.4-0.5,0.8-0.8,1.1c0.4,0.2,0.7,0.3,1,0.5l-0.3,0.4c-0.3-0.2-0.7-0.4-1.1-0.6
			c-0.4,0.3-0.9,0.4-1.4,0.6c-0.1-0.1-0.2-0.3-0.3-0.5c0.4-0.1,0.8-0.2,1.1-0.4c-0.3-0.1-0.6-0.3-0.9-0.4l0.3-0.4
			c0.3,0.1,0.7,0.3,1.1,0.5c0.2-0.2,0.4-0.3,0.5-0.5h-1.9V157.5z M205.5,160.7v0.2c0,0.2,0,0.2,0.3,0.2h0.8c0.1,0,0.1,0,0.1,0v-0.3
			H205.5z"/>
		<path class="st2" d="M203.8,169.9c-0.2-0.3-0.5-0.8-0.8-1.1v3.9h-0.8v-3.5c-0.3,0.8-0.7,1.6-1.1,2.1c-0.1-0.2-0.3-0.5-0.4-0.7
			c0.6-0.7,1.1-1.8,1.4-2.8h-1.2V167h1.3v-1.7h0.8v1.7h1v0.7h-1v0.2c0.3,0.3,1.1,1.2,1.3,1.4L203.8,169.9z M208.1,167.7h-0.8v4
			c0,0.5-0.1,0.7-0.4,0.8c-0.3,0.1-0.8,0.1-1.4,0.1c0-0.2-0.2-0.6-0.3-0.8c0.5,0,1,0,1.1,0c0.1,0,0.2,0,0.2-0.2v-3
			c-0.6,1.1-1.5,2.1-2.3,2.7c-0.1-0.2-0.4-0.5-0.5-0.6c1-0.7,2-1.9,2.6-3.1h-2V167h2.3v-1.7h0.8v1.7h0.8V167.7z"/>
		<path class="st2" d="M201.9,177.9v4.3h-0.7v-7h3v2.7H201.9z M201.9,175.8v0.5h1.5v-0.5H201.9z M203.4,177.4v-0.6h-1.5v0.6H203.4z
			 M205.6,180.4v1.7h-0.7v-1.7h-1c-0.1,0.5-0.3,1.4-1,1.8c-0.1-0.1-0.3-0.3-0.5-0.4c0.6-0.4,0.8-1,0.9-1.4h-0.9v-0.6h0.9V179h-0.8
			v-0.6h3.9v0.6h-0.8v0.8h1v0.6H205.6z M204.9,179.8V179h-1v0.8H204.9z M207.8,181.3c0,0.4-0.1,0.6-0.3,0.8
			c-0.3,0.1-0.7,0.1-1.3,0.1c0-0.2-0.1-0.5-0.2-0.7c0.4,0,0.8,0,0.9,0c0.1,0,0.2,0,0.2-0.2V178h-2.3v-2.7h3V181.3z M205.5,175.8v0.5
			h1.6v-0.5H205.5z M207,177.4v-0.6h-1.6v0.6H207z"/>
		<path class="st2" d="M207.9,185.7c-0.3,0.3-0.7,0.6-1,0.8c0.4,0.2,0.8,0.4,1.3,0.5c-0.1,0.1-0.3,0.4-0.4,0.6
			c-0.4-0.1-0.7-0.3-1-0.4v0.9c0,0.2,0,0.2,0.1,0.2h0.5c0.1,0,0.3,0,0.4,0c0,0.2,0,0.4,0,0.5c-0.1,0-0.3,0-0.4,0h-0.6
			c-0.6,0-0.7-0.2-0.7-0.8v-0.6h-0.9v0c0,0.5-0.2,1.2-0.9,1.6c-0.1-0.1-0.3-0.3-0.4-0.4v0.1h-1.6c0,0.2-0.1,0.5-0.1,0.7h1.8
			c0,0,0,0.2,0,0.3c-0.1,1.1-0.2,1.6-0.4,1.8c-0.2,0.2-0.3,0.2-0.6,0.2c-0.2,0-0.6,0-1.1,0c0-0.2-0.1-0.5-0.2-0.6c0.4,0,0.8,0,1,0
			c0.1,0,0.2,0,0.3-0.1c0.1-0.1,0.2-0.4,0.2-1.1h-1.8c0.1-0.5,0.2-1.2,0.3-1.8h1.5v-0.7h-1.2v-0.1c-0.3,0.1-0.6,0.3-0.8,0.4
			c-0.1-0.2-0.3-0.4-0.4-0.6c0.5-0.2,1-0.4,1.5-0.7c-0.2-0.2-0.6-0.4-0.8-0.6l0.4-0.4c0.3,0.2,0.7,0.4,0.9,0.6
			c0.2-0.2,0.5-0.4,0.6-0.7h-1.7v-0.6h2.1l0.1,0l0.5,0.2c-0.3,0.8-0.9,1.4-1.6,1.9h1.1v1.7c0.6-0.3,0.7-0.7,0.7-1.1v-0.6h1.7
			c-0.8-0.6-1.4-1.3-1.8-2.2l0.6-0.2c0.1,0.3,0.3,0.6,0.5,0.9c0.3-0.2,0.7-0.6,0.9-0.8l0.5,0.4c-0.3,0.3-0.7,0.6-1.1,0.9
			c0.2,0.2,0.3,0.3,0.5,0.4c0.3-0.3,0.8-0.6,1-0.9L207.9,185.7z M207.4,189.3c-0.2,0.6-0.5,1.1-1,1.4c0.4,0.2,0.8,0.5,1,0.6
			l-0.4,0.5c-0.3-0.2-0.7-0.5-1.1-0.7c-0.5,0.3-1.1,0.6-1.8,0.7c-0.1-0.2-0.2-0.4-0.3-0.5c0.6-0.1,1.1-0.3,1.5-0.5
			c-0.4-0.2-0.8-0.5-1.2-0.7l0.3-0.4h-0.3v-0.5h2.7l0.1,0L207.4,189.3z M204.5,189.7c0.4,0.2,0.9,0.5,1.3,0.7
			c0.2-0.2,0.5-0.5,0.6-0.7H204.5z"/>
		<path class="st2" d="M207.7,199.4c-0.4,0.3-0.9,0.6-1.4,0.8c0.5,0.3,1.1,0.5,1.8,0.6c-0.2,0.1-0.3,0.4-0.4,0.6
			c-1.6-0.3-2.6-1.1-3.2-2.3c-0.4,0.3-0.8,0.5-1.3,0.7v0.8l1.7-0.4c0,0.2,0,0.4,0,0.6c-2,0.5-2.3,0.5-2.4,0.6v-0.1
			c0-0.2-0.2-0.4-0.2-0.5c0.1-0.1,0.3-0.3,0.3-0.6v-0.2c-0.4,0.2-0.9,0.3-1.3,0.4c-0.1-0.2-0.3-0.4-0.4-0.5c1-0.2,2-0.5,2.7-0.9
			h-2.6v-0.6h3.3c-0.1-0.2-0.1-0.3-0.2-0.5l0.2,0c-0.1,0-0.3,0-0.4,0c0-0.2-0.1-0.3-0.2-0.5c0.2,0,0.4,0,0.5,0c0.1,0,0.1,0,0.1-0.1
			v-0.5h-0.8v1.2h-0.6v-1.2h-0.8v1h-0.6v-1.5h1.4v-0.4h-1.7v-0.5h0.5c-0.1-0.1-0.3-0.2-0.5-0.2c0.3-0.3,0.5-0.8,0.6-1.2l0.6,0.1
			c0,0.1-0.1,0.3-0.1,0.4h0.6v-0.5h0.6v0.5h1.4v0.5h-1.4v0.4h1.6v0.5h-1.6v0.4h1.4v0.9c0,0.2,0,0.3-0.2,0.4l0.1,0
			c0.1,0.2,0.2,0.4,0.3,0.7h3v0.6h-2.9c0.2,0.3,0.4,0.6,0.7,0.8c0.5-0.2,1-0.6,1.3-0.8L207.7,199.4z M202.6,195.6v-0.4h-0.9
			c-0.1,0.2-0.2,0.3-0.3,0.4H202.6z M206.1,197.1h-0.7v-2.6h0.7V197.1z M207.6,197.4c0,0.4-0.1,0.5-0.3,0.6
			c-0.2,0.1-0.6,0.1-1.2,0.1c0-0.2-0.1-0.4-0.2-0.6c0.4,0,0.8,0,0.9,0c0.1,0,0.2,0,0.2-0.1v-3.2h0.7V197.4z"/>
		<path class="st2" d="M203.1,207.4c-0.2,0.8-0.5,1.5-0.8,2.1c0.1,0.1,0.3,0.2,0.5,0.3c0.6,0.3,1.3,0.4,2.2,0.4c1,0,2.3-0.1,3.2-0.2
			c-0.1,0.2-0.2,0.6-0.2,0.8c-0.6,0-2.1,0.1-3,0.1c-1,0-1.7-0.1-2.3-0.4c-0.3-0.2-0.6-0.5-0.8-0.5c-0.2,0-0.5,0.5-0.7,1l-0.5-0.7
			c0.3-0.4,0.7-0.8,1-0.9c0.2-0.4,0.4-1,0.6-1.5h-1.1c0.2-0.5,0.4-1.1,0.7-1.7h-1v-0.7h1.9c-0.2,0.6-0.4,1.2-0.6,1.7h0.6l0.1,0
			L203.1,207.4z M201.7,205.3c-0.1-0.3-0.3-0.9-0.4-1.3l0.7-0.2c0.1,0.4,0.3,0.9,0.4,1.3L201.7,205.3z M204,205.3
			c-0.2,0.3-0.4,0.6-0.6,0.8c-0.1-0.1-0.5-0.3-0.6-0.4c0.5-0.5,0.9-1.2,1.1-1.9l0.7,0.2c-0.1,0.2-0.2,0.5-0.3,0.7h0.8v-1h0.7v1h1.8
			v0.6h-1.8v0.9h2.2v0.6h-5.1v-0.6h2.2v-0.9H204z M206.7,209.8v-0.2h-2.4v0.3h-0.7v-2.5h3.9v2.4H206.7z M206.7,208.9v-1h-2.4v1
			H206.7z"/>
		<path class="st2" d="M208.1,218.4h-0.8v1.4h-0.8v-0.3h-1.7v0.4c0,0.4-0.1,0.6-0.4,0.7c-0.3,0.1-0.7,0.1-1.4,0.1
			c0-0.2-0.2-0.4-0.3-0.6c0.4,0,0.9,0,1,0c0.1,0,0.2,0,0.2-0.2v-0.4h-2.5v-0.6h2.5v-0.5h-3.2v-0.6h3.2v-0.5h-2.4v-0.5h2.4v-0.5h-2.2
			v-1.5h2.2v-0.4h-3v-0.6h3v-0.6h0.8v0.6h3.1v0.6h-3.1v0.4h2.3v1.5h-2.3v0.5h2.5v1h0.8V218.4z M204,215.9v-0.5h-1.5v0.5H204z
			 M204.8,215.4v0.5h1.6v-0.5H204.8z M204.8,217.8h1.7v-0.5h-1.7V217.8z M206.5,218.4h-1.7v0.5h1.7V218.4z"/>
		<path class="st2" d="M203.8,229c-0.6,0.4-1.6,0.8-2.4,1c-0.1-0.2-0.3-0.4-0.4-0.5c0.8-0.1,1.8-0.4,2.3-0.7L203.8,229z M208,227.8
			v0.6h-3.2v1.9h-0.7v-1.9H201v-0.6h3.1v-0.5h-2.4v-0.6h2.4v-0.5h-2.8v-0.6h1.6c-0.1-0.2-0.2-0.5-0.4-0.7l0.5-0.1h-2v-0.6h1.2
			c-0.1-0.3-0.4-0.8-0.6-1.1l0.6-0.2c0.2,0.3,0.5,0.8,0.6,1.1l-0.4,0.2h0.9v-1.4h0.7v1.4h0.8v-1.4h0.7v1.4h0.9l-0.3-0.1
			c0.2-0.3,0.4-0.8,0.6-1.2l0.8,0.2c-0.2,0.4-0.5,0.8-0.7,1.1h1.1v0.6h-2.1l0.6,0.2c-0.2,0.2-0.4,0.5-0.5,0.6h1.7v0.6h-2.8v0.5h2.5
			v0.6h-2.5v0.5H208z M203.3,224.9c0.2,0.2,0.3,0.5,0.4,0.7l-0.4,0.1h2.2l-0.3-0.1c0.2-0.2,0.3-0.5,0.4-0.7H203.3z M205.7,228.7
			c0.7,0.3,1.7,0.6,2.2,0.9l-0.5,0.4c-0.5-0.2-1.5-0.7-2.2-1L205.7,228.7z"/>
		<path class="st2" d="M204.7,236.8c-0.1,0.8-0.4,1.4-0.8,1.8c0.5,0.4,1.3,0.5,2.1,0.5c0.3,0,1.7,0,2.1,0c-0.1,0.2-0.2,0.4-0.2,0.6
			H206c-1,0-1.9-0.1-2.5-0.7c-0.4,0.4-0.8,0.6-1.4,0.8c-0.1-0.2-0.2-0.4-0.3-0.5c0.5-0.1,0.9-0.4,1.3-0.8c-0.1-0.2-0.3-0.4-0.4-0.7
			c-0.1,0.2-0.3,0.3-0.4,0.5c-0.1-0.1-0.2-0.2-0.3-0.3c-0.1,0.7-0.3,1.3-0.6,1.9c-0.1-0.1-0.4-0.4-0.6-0.4c0.6-1,0.7-2.5,0.7-3.6
			v-1.9h2.5v-1.4h0.7v0.5h2.6v0.6h-2.6v0.4h2.6l0.1,0l0.5,0.1c-0.2,0.5-0.4,1-0.6,1.4l-0.6-0.2c0.1-0.2,0.2-0.4,0.3-0.7h-2.4v0.4
			l1.9-0.1l0,0.5l-2,0.1v0.1c0,0.2,0,0.3,0.3,0.3h1.7c0.3,0,0.7,0,0.9-0.1c0,0.2,0,0.4,0.1,0.5c-0.2,0-0.6,0.1-0.9,0.1h-1.9
			c-0.8,0-1-0.2-1-0.8v0l-1.5,0.1l0-0.5l1.5-0.1v-0.4h-1.8v1.3c0,0.6,0,1.2-0.1,1.9c0.5-0.4,0.9-1.1,1.1-1.7l0.6,0.1
			c-0.1,0.2-0.1,0.3-0.2,0.5h0.8l0.1,0L204.7,236.8z M203.1,237.3c0.1,0.3,0.2,0.6,0.4,0.8c0.2-0.3,0.4-0.6,0.5-1h-0.8L203.1,237.3z
			 M206.9,238.7c-0.4,0-0.6-0.1-0.6-0.6v-0.9h-0.7v0.1c0,0.5-0.1,1.2-0.7,1.6c-0.1-0.1-0.3-0.3-0.5-0.4c0.5-0.4,0.6-0.9,0.6-1.2
			v-0.6h1.8v1.5c0,0.2,0,0.2,0.1,0.2h0.2c0.1,0,0.1-0.1,0.1-0.5c0.1,0.1,0.3,0.1,0.4,0.2c0,0.6-0.2,0.8-0.5,0.8H206.9z"/>
	</g>
	<g>
		<path class="st2" d="M230.7,161.7v0.7h-7.2v-0.7h3.1v-4.4H224v-0.8h6.3v0.8h-2.8v4.4H230.7z"/>
		<path class="st2" d="M225.9,170.3c-0.1-0.2-0.3-0.7-0.6-1.1v3.4h-0.7v-3.3c-0.3,0.8-0.6,1.5-0.9,2c-0.1-0.2-0.2-0.5-0.3-0.7
			c0.4-0.5,0.9-1.5,1.1-2.3h-1v-0.7h1.2v-1.1c-0.3,0.1-0.6,0.1-0.9,0.1c0-0.2-0.1-0.4-0.2-0.6c0.8-0.2,1.7-0.4,2.3-0.6l0.4,0.6
			c-0.3,0.1-0.6,0.2-0.9,0.3v1.3h1v0.7h-1v0.2c0.2,0.3,0.8,1.1,1,1.3L225.9,170.3z M230.8,171.8v0.7h-4.6v-0.7h2v-0.9h-1.6v-0.6h1.6
			v-0.8c-0.4,0-0.9,0.1-1.3,0.1c0-0.2-0.1-0.4-0.2-0.6c1.1-0.1,2.4-0.2,3.2-0.4l0.5,0.6c-0.4,0.1-0.9,0.2-1.4,0.3v0.9h1.5v0.6h-1.5
			v0.9H230.8z M230.4,168.3h-3.7v-2.6h3.7V168.3z M229.6,166.3h-2.3v1.3h2.3V166.3z"/>
		<path class="st2" d="M230.8,178.1v0.8h-7.3v-0.8H230.8z"/>
		<path class="st2" d="M227.4,188.8c-0.1,0.8-0.4,1.4-0.8,1.8c0.5,0.4,1.3,0.5,2.1,0.5c0.3,0,1.7,0,2.1,0c-0.1,0.2-0.2,0.4-0.2,0.6
			h-1.9c-1,0-1.9-0.1-2.5-0.7c-0.4,0.4-0.8,0.6-1.4,0.8c-0.1-0.2-0.2-0.4-0.3-0.5c0.5-0.1,0.9-0.4,1.3-0.8c-0.1-0.2-0.3-0.4-0.4-0.7
			c-0.1,0.2-0.3,0.3-0.4,0.5c-0.1-0.1-0.2-0.2-0.3-0.3c-0.1,0.7-0.3,1.3-0.6,1.9c-0.1-0.1-0.4-0.4-0.6-0.4c0.6-1,0.7-2.5,0.7-3.6
			v-1.9h2.5v-1.4h0.7v0.5h2.6v0.6h-2.6v0.4h2.6l0.1,0l0.5,0.1c-0.2,0.5-0.4,1-0.6,1.4l-0.6-0.2c0.1-0.2,0.2-0.4,0.3-0.7h-2.4v0.4
			l1.9-0.1l0,0.5l-2,0.1v0.1c0,0.2,0,0.3,0.3,0.3h1.7c0.3,0,0.7,0,0.9-0.1c0,0.2,0,0.4,0.1,0.5c-0.2,0-0.6,0.1-0.9,0.1h-1.9
			c-0.8,0-1-0.2-1-0.8v0l-1.5,0.1l0-0.5l1.5-0.1v-0.4h-1.8v1.3c0,0.6,0,1.2-0.1,1.9c0.5-0.4,0.9-1.1,1.1-1.7l0.6,0.1
			c-0.1,0.2-0.1,0.3-0.2,0.5h0.8l0.1,0L227.4,188.8z M225.8,189.3c0.1,0.3,0.2,0.6,0.4,0.8c0.2-0.3,0.4-0.6,0.5-1h-0.8L225.8,189.3z
			 M229.6,190.7c-0.4,0-0.6-0.1-0.6-0.6v-0.9h-0.7v0.1c0,0.5-0.1,1.2-0.7,1.6c-0.1-0.1-0.3-0.3-0.5-0.4c0.5-0.4,0.6-0.9,0.6-1.2
			v-0.6h1.8v1.5c0,0.2,0,0.2,0.1,0.2h0.2c0.1,0,0.1-0.1,0.1-0.5c0.1,0.1,0.3,0.1,0.4,0.2c0,0.6-0.2,0.8-0.5,0.8H229.6z"/>
	</g>
	<g>
		<path class="st2" d="M253.4,161.7v0.7h-7.2v-0.7h3.1v-4.4h-2.7v-0.8h6.3v0.8h-2.8v4.4H253.4z"/>
		<path class="st2" d="M248.6,170.3c-0.1-0.2-0.3-0.7-0.6-1.1v3.4h-0.7v-3.3c-0.3,0.8-0.6,1.5-0.9,2c-0.1-0.2-0.2-0.5-0.3-0.7
			c0.4-0.5,0.9-1.5,1.1-2.3h-1v-0.7h1.2v-1.1c-0.3,0.1-0.6,0.1-0.9,0.1c0-0.2-0.1-0.4-0.2-0.6c0.8-0.2,1.7-0.4,2.3-0.6l0.4,0.6
			c-0.3,0.1-0.6,0.2-0.9,0.3v1.3h1v0.7h-1v0.2c0.2,0.3,0.8,1.1,1,1.3L248.6,170.3z M253.5,171.8v0.7h-4.6v-0.7h2v-0.9h-1.6v-0.6h1.6
			v-0.8c-0.4,0-0.9,0.1-1.3,0.1c0-0.2-0.1-0.4-0.2-0.6c1.1-0.1,2.4-0.2,3.2-0.4l0.5,0.6c-0.4,0.1-0.9,0.2-1.4,0.3v0.9h1.5v0.6h-1.5
			v0.9H253.5z M253.1,168.3h-3.7v-2.6h3.7V168.3z M252.3,166.3h-2.3v1.3h2.3V166.3z"/>
		<path class="st2" d="M253.4,180.7v0.8h-7v-0.8H253.4z M252.7,176v0.8H247V176H252.7z"/>
		<path class="st2" d="M250.1,188.8c-0.1,0.8-0.4,1.4-0.8,1.8c0.5,0.4,1.3,0.5,2.1,0.5c0.3,0,1.7,0,2.1,0c-0.1,0.2-0.2,0.4-0.2,0.6
			h-1.9c-1,0-1.9-0.1-2.5-0.7c-0.4,0.4-0.8,0.6-1.4,0.8c-0.1-0.2-0.2-0.4-0.3-0.5c0.5-0.1,0.9-0.4,1.3-0.8c-0.1-0.2-0.3-0.4-0.4-0.7
			c-0.1,0.2-0.3,0.3-0.4,0.5c-0.1-0.1-0.2-0.2-0.3-0.3c-0.1,0.7-0.3,1.3-0.6,1.9c-0.1-0.1-0.4-0.4-0.6-0.4c0.6-1,0.7-2.5,0.7-3.6
			v-1.9h2.5v-1.4h0.7v0.5h2.6v0.6h-2.6v0.4h2.6l0.1,0l0.5,0.1c-0.2,0.5-0.4,1-0.6,1.4l-0.6-0.2c0.1-0.2,0.2-0.4,0.3-0.7h-2.4v0.4
			l1.9-0.1l0,0.5l-2,0.1v0.1c0,0.2,0,0.3,0.3,0.3h1.7c0.3,0,0.7,0,0.9-0.1c0,0.2,0,0.4,0.1,0.5c-0.2,0-0.6,0.1-0.9,0.1h-1.9
			c-0.8,0-1-0.2-1-0.8v0l-1.5,0.1l0-0.5l1.5-0.1v-0.4h-1.8v1.3c0,0.6,0,1.2-0.1,1.9c0.5-0.4,0.9-1.1,1.1-1.7l0.6,0.1
			c-0.1,0.2-0.1,0.3-0.2,0.5h0.8l0.1,0L250.1,188.8z M248.5,189.3c0.1,0.3,0.2,0.6,0.4,0.8c0.2-0.3,0.4-0.6,0.5-1h-0.8L248.5,189.3z
			 M252.3,190.7c-0.4,0-0.6-0.1-0.6-0.6v-0.9h-0.7v0.1c0,0.5-0.1,1.2-0.7,1.6c-0.1-0.1-0.3-0.3-0.5-0.4c0.5-0.4,0.6-0.9,0.6-1.2
			v-0.6h1.8v1.5c0,0.2,0,0.2,0.1,0.2h0.2c0.1,0,0.1-0.1,0.1-0.5c0.1,0.1,0.3,0.1,0.4,0.2c0,0.6-0.2,0.8-0.5,0.8H252.3z"/>
	</g>
	<g>
		<path class="st2" d="M272.8,157.6h-3.1V157h1.4c-0.1-0.3-0.4-0.8-0.6-1.1l0.6-0.3c0.2,0.3,0.5,0.8,0.6,1l-0.6,0.3h1.6V157.6z
			 M272.4,158.5c0.8-0.5,1-1.1,1-1.6V156h2.5v1.8c0,0.2,0,0.3,0.1,0.3h0.4c0.1,0,0.3,0,0.4,0c0,0.2,0,0.5,0.1,0.6
			c-0.1,0-0.3,0-0.4,0H276c-0.6,0-0.7-0.3-0.7-1v-1.1h-1.2v0.2c0,0.7-0.2,1.6-1.2,2.2C272.8,158.9,272.6,158.6,272.4,158.5l0,0.2
			h-2.4v-0.6h2.4V158.5z M276.6,159.3c-0.3,1-0.7,1.7-1.3,2.3c0.5,0.3,1.1,0.5,1.8,0.7c-0.2,0.2-0.4,0.5-0.5,0.7
			c-0.7-0.2-1.4-0.5-1.9-0.9c-0.6,0.4-1.2,0.7-1.9,0.9c-0.1-0.2-0.2-0.4-0.3-0.6v0.1h-1.7v0.4h-0.6v-2.7h2.4v2.1
			c0.6-0.2,1.2-0.4,1.6-0.7c-0.5-0.5-0.8-1-1.1-1.6l0.4-0.2h-0.7v-0.7h3.4l0.1,0L276.6,159.3z M270.1,159.2h2.4v0.6h-2.4V159.2z
			 M271.8,160.8h-1.1v1.1h1.1V160.8z M273.6,159.9c0.2,0.5,0.6,1,1,1.4c0.4-0.4,0.8-0.8,1-1.4H273.6z"/>
		<path class="st2" d="M271.8,165.5c-0.2,0.5-0.4,1.1-0.6,1.6v5.5h-0.7v-4.2c-0.2,0.3-0.4,0.6-0.6,0.8c-0.1-0.2-0.2-0.6-0.4-0.8
			c0.6-0.8,1.2-2,1.6-3.2L271.8,165.5z M273.5,168.1c-0.1,0.2-0.2,0.4-0.4,0.5h3.4v3.3c0,0.3-0.1,0.5-0.3,0.6
			c-0.2,0.1-0.5,0.1-0.9,0.1c0-0.2-0.1-0.4-0.2-0.6c0.2,0,0.5,0,0.5,0c0.1,0,0.1,0,0.1-0.1v-0.5h-1.1v1h-0.7v-1h-1.2
			c-0.1,0.4-0.3,0.9-0.5,1.2c-0.1-0.1-0.4-0.4-0.6-0.4c0.5-0.6,0.5-1.4,0.5-2.1v-0.7c-0.2,0.2-0.4,0.3-0.6,0.4
			c-0.1-0.1-0.3-0.5-0.4-0.6c0.5-0.3,1.1-0.7,1.4-1.2h-1v-0.7h1.4v-0.6h-1.2V166h1.2v-0.7h0.7v0.7h1.2v-0.7h0.7v0.7h1v0.7h-1v0.6
			h1.2v0.7H273.5z M274.1,170.9v-0.6H273c0,0.2,0,0.4,0,0.6H274.1z M273,169.8h1.1v-0.6H273V169.8z M273.8,167.4h1.2v-0.6h-1.2
			V167.4z M275.9,169.2h-1.1v0.6h1.1V169.2z M275.9,170.9v-0.6h-1.1v0.6H275.9z"/>
		<path class="st2" d="M270.8,177.9v4.3H270v-7h3v2.7H270.8z M270.8,175.8v0.5h1.5v-0.5H270.8z M272.3,177.4v-0.6h-1.5v0.6H272.3z
			 M274.4,180.4v1.7h-0.7v-1.7h-1c-0.1,0.5-0.3,1.4-1,1.8c-0.1-0.1-0.3-0.3-0.5-0.4c0.6-0.4,0.8-1,0.9-1.4h-0.9v-0.6h0.9V179h-0.8
			v-0.6h3.9v0.6h-0.8v0.8h1v0.6H274.4z M273.8,179.8V179h-1v0.8H273.8z M276.6,181.3c0,0.4-0.1,0.6-0.3,0.8
			c-0.3,0.1-0.7,0.1-1.3,0.1c0-0.2-0.1-0.5-0.2-0.7c0.4,0,0.8,0,0.9,0c0.1,0,0.2,0,0.2-0.2V178h-2.3v-2.7h3V181.3z M274.3,175.8v0.5
			h1.6v-0.5H274.3z M275.9,177.4v-0.6h-1.6v0.6H275.9z"/>
		<path class="st2" d="M276.8,185.7c-0.3,0.3-0.7,0.6-1,0.8c0.4,0.2,0.8,0.4,1.3,0.5c-0.1,0.1-0.3,0.4-0.4,0.6
			c-0.4-0.1-0.7-0.3-1-0.4v0.9c0,0.2,0,0.2,0.1,0.2h0.5c0.1,0,0.3,0,0.4,0c0,0.2,0,0.4,0,0.5c-0.1,0-0.3,0-0.4,0h-0.6
			c-0.6,0-0.7-0.2-0.7-0.8v-0.6H274v0c0,0.5-0.2,1.2-0.9,1.6c-0.1-0.1-0.3-0.3-0.4-0.4v0.1h-1.6c0,0.2-0.1,0.5-0.1,0.7h1.8
			c0,0,0,0.2,0,0.3c-0.1,1.1-0.2,1.6-0.4,1.8c-0.2,0.2-0.3,0.2-0.6,0.2c-0.2,0-0.6,0-1.1,0c0-0.2-0.1-0.5-0.2-0.6c0.4,0,0.8,0,1,0
			c0.1,0,0.2,0,0.3-0.1c0.1-0.1,0.2-0.4,0.2-1.1h-1.8c0.1-0.5,0.2-1.2,0.3-1.8h1.5v-0.7h-1.2v-0.1c-0.3,0.1-0.6,0.3-0.8,0.4
			c-0.1-0.2-0.3-0.4-0.4-0.6c0.5-0.2,1-0.4,1.5-0.7c-0.2-0.2-0.6-0.4-0.8-0.6l0.4-0.4c0.3,0.2,0.7,0.4,0.9,0.6
			c0.2-0.2,0.5-0.4,0.6-0.7h-1.7v-0.6h2.1l0.1,0l0.5,0.2c-0.3,0.8-0.9,1.4-1.6,1.9h1.1v1.7c0.6-0.3,0.7-0.7,0.7-1.1v-0.6h1.7
			c-0.8-0.6-1.4-1.3-1.8-2.2l0.6-0.2c0.1,0.3,0.3,0.6,0.5,0.9c0.3-0.2,0.7-0.6,0.9-0.8l0.5,0.4c-0.3,0.3-0.7,0.6-1.1,0.9
			c0.2,0.2,0.3,0.3,0.5,0.4c0.3-0.3,0.8-0.6,1-0.9L276.8,185.7z M276.2,189.3c-0.2,0.6-0.5,1.1-1,1.4c0.4,0.2,0.8,0.5,1,0.6
			l-0.4,0.5c-0.3-0.2-0.7-0.5-1.1-0.7c-0.5,0.3-1.1,0.6-1.8,0.7c-0.1-0.2-0.2-0.4-0.3-0.5c0.6-0.1,1.1-0.3,1.5-0.5
			c-0.4-0.2-0.8-0.5-1.2-0.7l0.3-0.4h-0.3v-0.5h2.7l0.1,0L276.2,189.3z M273.4,189.7c0.4,0.2,0.9,0.5,1.3,0.7
			c0.2-0.2,0.5-0.5,0.6-0.7H273.4z"/>
		<path class="st2" d="M273.4,195.8c-0.2,0.4-0.4,0.9-0.6,1.3h1.1v0.7h-4.2v-0.7h1.1c-0.1-0.4-0.3-0.9-0.5-1.3l0.6-0.2
			c0.2,0.4,0.4,0.9,0.5,1.3l-0.6,0.2h1.2c0.2-0.4,0.4-1,0.5-1.5L273.4,195.8z M273.7,195.7H270V195h1.6c-0.1-0.2-0.2-0.5-0.3-0.8
			l0.7-0.2c0.2,0.3,0.3,0.7,0.4,1h1.4V195.7z M270.2,198.5h3.4v2.9h-0.7V201h-2v0.4h-0.7V198.5z M270.9,199.1v1.2h2v-1.2H270.9z
			 M276.9,194.8c-0.3,0.7-0.6,1.7-1,2.4c0.7,0.7,0.8,1.4,0.8,1.9c0,0.5-0.1,0.9-0.4,1.1c-0.1,0.1-0.3,0.2-0.5,0.2
			c-0.2,0-0.4,0-0.7,0c0-0.2-0.1-0.5-0.2-0.7c0.2,0,0.4,0,0.5,0c0.1,0,0.2,0,0.3-0.1c0.2-0.1,0.2-0.3,0.2-0.6c0-0.5-0.2-1-0.9-1.7
			c0.3-0.6,0.6-1.5,0.8-2.1h-1.1v6.2h-0.7v-6.9h2l0.1,0L276.9,194.8z"/>
	</g>
	<g>
		<path class="st2" d="M295.5,157.6h-3.1V157h1.4c-0.1-0.3-0.4-0.8-0.6-1.1l0.6-0.3c0.2,0.3,0.5,0.8,0.6,1l-0.6,0.3h1.6V157.6z
			 M295.1,158.5c0.8-0.5,1-1.1,1-1.6V156h2.5v1.8c0,0.2,0,0.3,0.1,0.3h0.4c0.1,0,0.3,0,0.4,0c0,0.2,0,0.5,0.1,0.6
			c-0.1,0-0.3,0-0.4,0h-0.5c-0.6,0-0.7-0.3-0.7-1v-1.1h-1.2v0.2c0,0.7-0.2,1.6-1.2,2.2C295.5,158.9,295.3,158.6,295.1,158.5l0,0.2
			h-2.4v-0.6h2.4V158.5z M299.3,159.3c-0.3,1-0.7,1.7-1.3,2.3c0.5,0.3,1.1,0.5,1.8,0.7c-0.2,0.2-0.4,0.5-0.5,0.7
			c-0.7-0.2-1.4-0.5-1.9-0.9c-0.6,0.4-1.2,0.7-1.9,0.9c-0.1-0.2-0.2-0.4-0.3-0.6v0.1h-1.7v0.4h-0.6v-2.7h2.4v2.1
			c0.6-0.2,1.2-0.4,1.6-0.7c-0.5-0.5-0.8-1-1.1-1.6l0.4-0.2h-0.7v-0.7h3.4l0.1,0L299.3,159.3z M292.7,159.2h2.4v0.6h-2.4V159.2z
			 M294.5,160.8h-1.1v1.1h1.1V160.8z M296.3,159.9c0.2,0.5,0.6,1,1,1.4c0.4-0.4,0.8-0.8,1-1.4H296.3z"/>
		<path class="st2" d="M295.9,167.2h-3.3v-0.6h1.5c-0.1-0.3-0.4-0.8-0.6-1.1l0.6-0.3c0.2,0.3,0.5,0.8,0.6,1l-0.6,0.3h1.8V167.2z
			 M292.9,168.3v-0.6h2.6v0.6H292.9z M295.5,169.3h-2.6v-0.6h2.6V169.3z M295.5,172.2h-1.9v0.4h-0.6v-2.7h2.6V172.2z M293.6,170.4
			v1.1h1.3v-1.1H293.6z M299.6,168.7h-1.6v3.9h-0.8v-3.9h-1.5V168h1.5v-2.5h0.8v2.5h1.6V168.7z"/>
		<path class="st2" d="M292.4,175.3h2.8v0.7h-1.2c-0.1,0.6-0.3,1.2-0.5,1.8h1.5v3.5h-1.6v0.6H293v-2.7c-0.1,0.2-0.2,0.4-0.4,0.6
			c0-0.2-0.2-0.6-0.3-0.8c0.5-0.7,0.9-1.8,1.1-2.9h-0.9V175.3z M294.5,178.4h-0.9v2.2h0.9V178.4z M299.7,178.9h-0.9v3.4h-0.7v-3.4
			H297c0,1.2-0.2,2.5-1.1,3.4c-0.1-0.1-0.4-0.3-0.6-0.4c0.8-0.8,0.9-2,1-3h-0.8v-0.7h0.8V176h-0.6v-0.7h3.9v0.7h-0.7v2.1h0.9V178.9z
			 M298.1,178.2V176H297v2.1H298.1z"/>
		<path class="st2" d="M299.5,185.7c-0.3,0.3-0.7,0.6-1,0.8c0.4,0.2,0.8,0.4,1.3,0.5c-0.1,0.1-0.3,0.4-0.4,0.6
			c-0.4-0.1-0.7-0.3-1-0.4v0.9c0,0.2,0,0.2,0.1,0.2h0.5c0.1,0,0.3,0,0.4,0c0,0.2,0,0.4,0,0.5c-0.1,0-0.3,0-0.4,0h-0.6
			c-0.6,0-0.7-0.2-0.7-0.8v-0.6h-0.9v0c0,0.5-0.2,1.2-0.9,1.6c-0.1-0.1-0.3-0.3-0.4-0.4v0.1h-1.6c0,0.2-0.1,0.5-0.1,0.7h1.8
			c0,0,0,0.2,0,0.3c-0.1,1.1-0.2,1.6-0.4,1.8c-0.2,0.2-0.3,0.2-0.6,0.2c-0.2,0-0.6,0-1.1,0c0-0.2-0.1-0.5-0.2-0.6c0.4,0,0.8,0,1,0
			c0.1,0,0.2,0,0.3-0.1c0.1-0.1,0.2-0.4,0.2-1.1h-1.8c0.1-0.5,0.2-1.2,0.3-1.8h1.5v-0.7h-1.2v-0.1c-0.3,0.1-0.6,0.3-0.8,0.4
			c-0.1-0.2-0.3-0.4-0.4-0.6c0.5-0.2,1-0.4,1.5-0.7c-0.2-0.2-0.6-0.4-0.8-0.6l0.4-0.4c0.3,0.2,0.7,0.4,0.9,0.6
			c0.2-0.2,0.5-0.4,0.6-0.7h-1.7v-0.6h2.1l0.1,0l0.5,0.2c-0.3,0.8-0.9,1.4-1.6,1.9h1.1v1.7c0.6-0.3,0.7-0.7,0.7-1.1v-0.6h1.7
			c-0.8-0.6-1.4-1.3-1.8-2.2l0.6-0.2c0.1,0.3,0.3,0.6,0.5,0.9c0.3-0.2,0.7-0.6,0.9-0.8l0.5,0.4c-0.3,0.3-0.7,0.6-1.1,0.9
			c0.2,0.2,0.3,0.3,0.5,0.4c0.3-0.3,0.8-0.6,1-0.9L299.5,185.7z M298.9,189.3c-0.2,0.6-0.5,1.1-1,1.4c0.4,0.2,0.8,0.5,1,0.6
			l-0.4,0.5c-0.3-0.2-0.7-0.5-1.1-0.7c-0.5,0.3-1.1,0.6-1.8,0.7c-0.1-0.2-0.2-0.4-0.3-0.5c0.6-0.1,1.1-0.3,1.5-0.5
			c-0.4-0.2-0.8-0.5-1.2-0.7l0.3-0.4h-0.3v-0.5h2.7l0.1,0L298.9,189.3z M296.1,189.7c0.4,0.2,0.9,0.5,1.3,0.7
			c0.2-0.2,0.5-0.5,0.6-0.7H296.1z"/>
		<path class="st2" d="M299.3,196.9c-0.3,1.3-0.9,2.2-1.7,3c0.6,0.4,1.3,0.7,2.1,0.9c-0.2,0.2-0.4,0.5-0.5,0.7
			c-0.8-0.2-1.6-0.6-2.2-1.1c-0.7,0.5-1.5,0.9-2.4,1.1c-0.1-0.2-0.3-0.5-0.4-0.7c0.8-0.2,1.6-0.5,2.3-1c-0.6-0.7-1.1-1.5-1.4-2.4
			h-0.2c-0.2,1.3-0.6,2.7-1.9,3.9c-0.1-0.2-0.4-0.5-0.5-0.6c1.6-1.5,1.8-3.5,1.8-4.8v-0.7h-1.3v-0.7h5c-0.2,0.7-0.3,1.6-0.5,2.3h1.4
			l0.1,0L299.3,196.9z M294.9,195.9c0,0.3,0,0.6,0,0.9h1.5c0.1-0.5,0.3-1,0.4-1.5h-1.9V195.9z M295.7,197.4c0.3,0.8,0.7,1.4,1.3,2
			c0.6-0.5,1-1.2,1.3-2H295.7z"/>
		<path class="st2" d="M299.2,209c-0.4,0.3-0.9,0.6-1.4,0.8c0.5,0.3,1.1,0.5,1.8,0.6c-0.2,0.1-0.3,0.4-0.4,0.6
			c-1.6-0.3-2.6-1.1-3.2-2.3c-0.4,0.3-0.8,0.5-1.3,0.7v0.8l1.7-0.4c0,0.2,0,0.4,0,0.6c-2,0.5-2.3,0.5-2.4,0.6V211
			c0-0.2-0.2-0.4-0.2-0.5c0.1-0.1,0.3-0.3,0.3-0.6v-0.2c-0.4,0.2-0.9,0.3-1.3,0.4c-0.1-0.2-0.3-0.4-0.4-0.5c1-0.2,2-0.5,2.7-0.9
			h-2.6V208h3.3c-0.1-0.2-0.1-0.3-0.2-0.5l0.2,0c-0.1,0-0.3,0-0.4,0c0-0.2-0.1-0.3-0.2-0.5c0.2,0,0.4,0,0.5,0c0.1,0,0.1,0,0.1-0.1
			v-0.5h-0.8v1.2h-0.6v-1.2h-0.8v1h-0.6V206h1.4v-0.4h-1.7v-0.5h0.5c-0.1-0.1-0.3-0.2-0.5-0.2c0.3-0.3,0.5-0.8,0.6-1.2l0.6,0.1
			c0,0.1-0.1,0.3-0.1,0.4h0.6v-0.5h0.6v0.5h1.4v0.5h-1.4v0.4h1.6v0.5h-1.6v0.4h1.4v0.9c0,0.2,0,0.3-0.2,0.4l0.1,0
			c0.1,0.2,0.2,0.4,0.3,0.7h3v0.6h-2.9c0.2,0.3,0.4,0.6,0.7,0.8c0.5-0.2,1-0.6,1.3-0.8L299.2,209z M294.2,205.2v-0.4h-0.9
			c-0.1,0.2-0.2,0.3-0.3,0.4H294.2z M297.7,206.7H297v-2.6h0.7V206.7z M299.2,207c0,0.4-0.1,0.5-0.3,0.6c-0.2,0.1-0.6,0.1-1.2,0.1
			c0-0.2-0.1-0.4-0.2-0.6c0.4,0,0.8,0,0.9,0c0.1,0,0.2,0,0.2-0.1v-3.2h0.7V207z"/>
		<path class="st2" d="M294.6,217c-0.2,0.8-0.5,1.5-0.8,2.1c0.1,0.1,0.3,0.2,0.5,0.3c0.6,0.3,1.3,0.4,2.2,0.4c1,0,2.3-0.1,3.2-0.2
			c-0.1,0.2-0.2,0.6-0.2,0.8c-0.6,0-2.1,0.1-3,0.1c-1,0-1.7-0.1-2.3-0.4c-0.3-0.2-0.6-0.5-0.8-0.5c-0.2,0-0.5,0.5-0.7,1l-0.5-0.7
			c0.3-0.4,0.7-0.8,1-0.9c0.2-0.4,0.4-1,0.6-1.5h-1.1c0.2-0.5,0.4-1.1,0.7-1.7h-1v-0.7h1.9c-0.2,0.6-0.4,1.2-0.6,1.7h0.6l0.1,0
			L294.6,217z M293.3,214.9c-0.1-0.3-0.3-0.9-0.4-1.3l0.7-0.2c0.1,0.4,0.3,0.9,0.4,1.3L293.3,214.9z M295.6,214.9
			c-0.2,0.3-0.4,0.6-0.6,0.8c-0.1-0.1-0.5-0.3-0.6-0.4c0.5-0.5,0.9-1.2,1.1-1.9l0.7,0.2c-0.1,0.2-0.2,0.5-0.3,0.7h0.8v-1h0.7v1h1.8
			v0.6h-1.8v0.9h2.2v0.6h-5.1v-0.6h2.2v-0.9H295.6z M298.3,219.4v-0.2h-2.4v0.3h-0.7v-2.5h3.9v2.4H298.3z M298.3,218.5v-1h-2.4v1
			H298.3z"/>
		<path class="st2" d="M296.3,227.2c-0.1,0.8-0.4,1.4-0.8,1.8c0.5,0.4,1.3,0.5,2.1,0.5c0.3,0,1.7,0,2.1,0c-0.1,0.2-0.2,0.4-0.2,0.6
			h-1.9c-1,0-1.9-0.1-2.5-0.7c-0.4,0.4-0.8,0.6-1.4,0.8c-0.1-0.2-0.2-0.4-0.3-0.5c0.5-0.1,0.9-0.4,1.3-0.8c-0.1-0.2-0.3-0.4-0.4-0.7
			c-0.1,0.2-0.3,0.3-0.4,0.5c-0.1-0.1-0.2-0.2-0.3-0.3c-0.1,0.7-0.3,1.3-0.6,1.9c-0.1-0.1-0.4-0.4-0.6-0.4c0.6-1,0.7-2.5,0.7-3.6
			v-1.9h2.5v-1.4h0.7v0.5h2.6v0.6h-2.6v0.4h2.6l0.1,0l0.5,0.1c-0.2,0.5-0.4,1-0.6,1.4l-0.6-0.2c0.1-0.2,0.2-0.4,0.3-0.7h-2.4v0.4
			l1.9-0.1l0,0.5l-2,0.1v0.1c0,0.2,0,0.3,0.3,0.3h1.7c0.3,0,0.7,0,0.9-0.1c0,0.2,0,0.4,0.1,0.5c-0.2,0-0.6,0.1-0.9,0.1h-1.9
			c-0.8,0-1-0.2-1-0.8v0l-1.5,0.1l0-0.5l1.5-0.1v-0.4h-1.8v1.3c0,0.6,0,1.2-0.1,1.9c0.5-0.4,0.9-1.1,1.1-1.7l0.6,0.1
			c-0.1,0.2-0.1,0.3-0.2,0.5h0.8l0.1,0L296.3,227.2z M294.7,227.7c0.1,0.3,0.2,0.6,0.4,0.8c0.2-0.3,0.4-0.6,0.5-1h-0.8L294.7,227.7z
			 M298.5,229.1c-0.4,0-0.6-0.1-0.6-0.6v-0.9h-0.7v0.1c0,0.5-0.1,1.2-0.7,1.6c-0.1-0.1-0.3-0.3-0.5-0.4c0.5-0.4,0.6-0.9,0.6-1.2
			v-0.6h1.8v1.5c0,0.2,0,0.2,0.1,0.2h0.2c0.1,0,0.1-0.1,0.1-0.5c0.1,0.1,0.3,0.1,0.4,0.2c0,0.6-0.2,0.8-0.5,0.8H298.5z"/>
	</g>
	<g>
		<path class="st2" d="M318.5,157.6h-3.1V157h1.4c-0.1-0.3-0.4-0.8-0.6-1.1l0.6-0.3c0.2,0.3,0.5,0.8,0.6,1l-0.6,0.3h1.6V157.6z
			 M318.2,158.5c0.8-0.5,1-1.1,1-1.6V156h2.5v1.8c0,0.2,0,0.3,0.1,0.3h0.4c0.1,0,0.3,0,0.4,0c0,0.2,0,0.5,0.1,0.6
			c-0.1,0-0.3,0-0.4,0h-0.5c-0.6,0-0.7-0.3-0.7-1v-1.1h-1.2v0.2c0,0.7-0.2,1.6-1.2,2.2C318.6,158.9,318.4,158.6,318.2,158.5l0,0.2
			h-2.4v-0.6h2.4V158.5z M322.4,159.3c-0.3,1-0.7,1.7-1.3,2.3c0.5,0.3,1.1,0.5,1.8,0.7c-0.2,0.2-0.4,0.5-0.5,0.7
			c-0.7-0.2-1.4-0.5-1.9-0.9c-0.6,0.4-1.2,0.7-1.9,0.9c-0.1-0.2-0.2-0.4-0.3-0.6v0.1h-1.7v0.4h-0.6v-2.7h2.4v2.1
			c0.6-0.2,1.2-0.4,1.6-0.7c-0.5-0.5-0.8-1-1.1-1.6l0.4-0.2h-0.7v-0.7h3.4l0.1,0L322.4,159.3z M315.8,159.2h2.4v0.6h-2.4V159.2z
			 M317.6,160.8h-1.1v1.1h1.1V160.8z M319.4,159.9c0.2,0.5,0.6,1,1,1.4c0.4-0.4,0.8-0.8,1-1.4H319.4z"/>
		<path class="st2" d="M317.6,165.5c-0.2,0.5-0.4,1.1-0.6,1.6v5.5h-0.7v-4.2c-0.2,0.3-0.4,0.6-0.6,0.8c-0.1-0.2-0.2-0.6-0.4-0.8
			c0.6-0.8,1.2-2,1.6-3.2L317.6,165.5z M319.3,168.1c-0.1,0.2-0.2,0.4-0.4,0.5h3.4v3.3c0,0.3-0.1,0.5-0.3,0.6
			c-0.2,0.1-0.5,0.1-0.9,0.1c0-0.2-0.1-0.4-0.2-0.6c0.2,0,0.5,0,0.5,0c0.1,0,0.1,0,0.1-0.1v-0.5h-1.1v1h-0.7v-1h-1.2
			c-0.1,0.4-0.3,0.9-0.5,1.2c-0.1-0.1-0.4-0.4-0.6-0.4c0.5-0.6,0.5-1.4,0.5-2.1v-0.7c-0.2,0.2-0.4,0.3-0.6,0.4
			c-0.1-0.1-0.3-0.5-0.4-0.6c0.5-0.3,1.1-0.7,1.4-1.2h-1v-0.7h1.4v-0.6h-1.2V166h1.2v-0.7h0.7v0.7h1.2v-0.7h0.7v0.7h1v0.7h-1v0.6
			h1.2v0.7H319.3z M319.9,170.9v-0.6h-1.1c0,0.2,0,0.4,0,0.6H319.9z M318.8,169.8h1.1v-0.6h-1.1V169.8z M319.6,167.4h1.2v-0.6h-1.2
			V167.4z M321.6,169.2h-1.1v0.6h1.1V169.2z M321.6,170.9v-0.6h-1.1v0.6H321.6z"/>
		<path class="st2" d="M318.2,175.2c-0.2,0.5-0.5,1.1-0.8,1.6v5.5h-0.8v-4.4c-0.3,0.4-0.6,0.7-1,1c-0.1-0.2-0.3-0.6-0.4-0.7
			c0.9-0.8,1.7-2,2.3-3.2L318.2,175.2z M320.4,178c0.3,2,0.7,3.3,1.5,3.4c0.2,0,0.3-0.4,0.4-1.3c0.1,0.2,0.5,0.4,0.6,0.4
			c-0.2,1.4-0.6,1.8-1,1.8c-1.3-0.1-2-1.7-2.3-4.1l-1.8,0.2l-0.1-0.7l1.8-0.2c-0.1-0.7-0.1-1.5-0.1-2.4h0.8c0,0.8,0.1,1.6,0.1,2.2
			l2.3-0.3l0.1,0.7L320.4,178z M322,176.7c-0.2-0.4-0.8-0.9-1.2-1.3l0.6-0.4c0.5,0.4,1,0.9,1.2,1.3L322,176.7z"/>
		<path class="st2" d="M322.7,190.5v0.7h-7.2v-0.7h3.1v-4.4H316v-0.8h6.3v0.8h-2.8v4.4H322.7z"/>
		<path class="st2" d="M322.7,199.2h-0.8v1.4h-0.8v-0.3h-1.7v0.4c0,0.4-0.1,0.6-0.4,0.7c-0.3,0.1-0.7,0.1-1.4,0.1
			c0-0.2-0.2-0.4-0.3-0.6c0.4,0,0.9,0,1,0c0.1,0,0.2,0,0.2-0.2v-0.4h-2.5v-0.6h2.5v-0.5h-3.2v-0.6h3.2v-0.5h-2.4v-0.5h2.4v-0.5h-2.2
			v-1.5h2.2v-0.4h-3v-0.6h3v-0.6h0.8v0.6h3.1v0.6h-3.1v0.4h2.3v1.5h-2.3v0.5h2.5v1h0.8V199.2z M318.7,196.7v-0.5h-1.5v0.5H318.7z
			 M319.4,196.2v0.5h1.6v-0.5H319.4z M319.4,198.6h1.7v-0.5h-1.7V198.6z M321.2,199.2h-1.7v0.5h1.7V199.2z"/>
		<path class="st2" d="M318.4,209.8c-0.6,0.4-1.6,0.8-2.4,1c-0.1-0.2-0.3-0.4-0.4-0.5c0.8-0.1,1.8-0.4,2.3-0.7L318.4,209.8z
			 M322.6,208.6v0.6h-3.2v1.9h-0.7v-1.9h-3.1v-0.6h3.1v-0.5h-2.4v-0.6h2.4V207H316v-0.6h1.6c-0.1-0.2-0.2-0.5-0.4-0.7l0.5-0.1h-2
			v-0.6h1.2c-0.1-0.3-0.4-0.8-0.6-1.1l0.6-0.2c0.2,0.3,0.5,0.8,0.6,1.1l-0.4,0.2h0.9v-1.4h0.7v1.4h0.8v-1.4h0.7v1.4h0.9l-0.3-0.1
			c0.2-0.3,0.4-0.8,0.6-1.2l0.8,0.2c-0.2,0.4-0.5,0.8-0.7,1.1h1.1v0.6h-2.1l0.6,0.2c-0.2,0.2-0.4,0.5-0.5,0.6h1.7v0.6h-2.8v0.5h2.5
			v0.6h-2.5v0.5H322.6z M318,205.7c0.2,0.2,0.3,0.5,0.4,0.7l-0.4,0.1h2.2l-0.3-0.1c0.2-0.2,0.3-0.5,0.4-0.7H318z M320.4,209.5
			c0.7,0.3,1.7,0.6,2.2,0.9l-0.5,0.4c-0.5-0.2-1.5-0.7-2.2-1L320.4,209.5z"/>
		<path class="st2" d="M319.4,217.6c-0.1,0.8-0.4,1.4-0.8,1.8c0.5,0.4,1.3,0.5,2.1,0.5c0.3,0,1.7,0,2.1,0c-0.1,0.2-0.2,0.4-0.2,0.6
			h-1.9c-1,0-1.9-0.1-2.5-0.7c-0.4,0.4-0.8,0.6-1.4,0.8c-0.1-0.2-0.2-0.4-0.3-0.5c0.5-0.1,0.9-0.4,1.3-0.8c-0.1-0.2-0.3-0.4-0.4-0.7
			c-0.1,0.2-0.3,0.3-0.4,0.5c-0.1-0.1-0.2-0.2-0.3-0.3c-0.1,0.7-0.3,1.3-0.6,1.9c-0.1-0.1-0.4-0.4-0.6-0.4c0.6-1,0.7-2.5,0.7-3.6
			v-1.9h2.5v-1.4h0.7v0.5h2.6v0.6h-2.6v0.4h2.6l0.1,0l0.5,0.1c-0.2,0.5-0.4,1-0.6,1.4l-0.6-0.2c0.1-0.2,0.2-0.4,0.3-0.7h-2.4v0.4
			l1.9-0.1l0,0.5l-2,0.1v0.1c0,0.2,0,0.3,0.3,0.3h1.7c0.3,0,0.7,0,0.9-0.1c0,0.2,0,0.4,0.1,0.5c-0.2,0-0.6,0.1-0.9,0.1h-1.9
			c-0.8,0-1-0.2-1-0.8v0l-1.5,0.1l0-0.5l1.5-0.1v-0.4h-1.8v1.3c0,0.6,0,1.2-0.1,1.9c0.5-0.4,0.9-1.1,1.1-1.7l0.6,0.1
			c-0.1,0.2-0.1,0.3-0.2,0.5h0.8l0.1,0L319.4,217.6z M317.8,218.1c0.1,0.3,0.2,0.6,0.4,0.8c0.2-0.3,0.4-0.6,0.5-1h-0.8L317.8,218.1z
			 M321.6,219.5c-0.4,0-0.6-0.1-0.6-0.6V218h-0.7v0.1c0,0.5-0.1,1.2-0.7,1.6c-0.1-0.1-0.3-0.3-0.5-0.4c0.5-0.4,0.6-0.9,0.6-1.2v-0.6
			h1.8v1.5c0,0.2,0,0.2,0.1,0.2h0.2c0.1,0,0.1-0.1,0.1-0.5c0.1,0.1,0.3,0.1,0.4,0.2c0,0.6-0.2,0.8-0.5,0.8H321.6z"/>
	</g>
	<g>
		<path class="st2" d="M45.5,161c0,0.2,0,0.4-0.1,0.5h3.2v0.6h-3.4c-0.4,1-1.2,1.7-3.3,2.1c-0.1-0.2-0.2-0.5-0.4-0.7
			c1.8-0.2,2.5-0.7,2.9-1.4h-2.6v-0.6h2.8c0-0.2,0.1-0.3,0.1-0.5h-3v-0.7h3.1v-0.6h-2.4v-0.6h2.4v-0.5H42V158h1.6
			c-0.1-0.3-0.3-0.6-0.5-0.8l0.6-0.3c0.3,0.3,0.5,0.7,0.7,1l-0.3,0.1h2c0.2-0.3,0.5-0.8,0.6-1.1l0.8,0.2c-0.2,0.3-0.4,0.6-0.6,0.9
			h1.6v0.7h-2.9v0.5h2.5v0.6h-2.5v0.6h3.2v0.7H45.5z M48.5,164.3c-0.7-0.5-2.1-1.1-3.2-1.5l0.3-0.6c1,0.4,2.5,1,3.2,1.4L48.5,164.3z
			"/>
		<path class="st2" d="M48.6,166.8v7h-0.7v-0.4h-5.2v0.4h-0.7v-7H48.6z M47.9,172.8v-5.3h-5.2v5.3H47.9z M47.3,169.4
			c-0.2,0.7-0.5,1.4-0.9,1.9c0.1,0.3,0.3,0.6,0.5,0.6c0.1,0,0.2-0.3,0.2-0.8c0.1,0.1,0.3,0.3,0.5,0.4c-0.1,0.9-0.4,1.2-0.9,1
			c-0.3-0.1-0.5-0.3-0.7-0.7c-0.3,0.3-0.6,0.6-1,0.8c-0.1-0.1-0.3-0.4-0.4-0.5c0.2-0.1,0.4-0.3,0.6-0.4c-0.8,0.1-1.6,0.3-2.2,0.4
			l-0.1-0.6c0.6-0.1,1.5-0.2,2.3-0.4l0,0.5c0.2-0.2,0.3-0.3,0.5-0.5c-0.2-0.6-0.3-1.4-0.4-2.2H43v-0.6h2.3c0-0.3,0-0.5,0-0.8h0.6
			c0,0.3,0,0.5,0,0.8H47c-0.2-0.2-0.5-0.4-0.8-0.6l0.3-0.3c0.3,0.1,0.6,0.4,0.8,0.5l-0.4,0.4h0.5v0.6h-1.6c0.1,0.6,0.1,1.1,0.2,1.6
			c0.2-0.4,0.4-0.8,0.5-1.3L47.3,169.4z M45,169.4v1.5h-1.8v-1.5H45z M44.5,169.9h-0.8v0.7h0.8V169.9z"/>
	</g>
	<g>
		<path class="st2" d="M34.5,156.5h5v1.5c0,0.4,0,0.6-0.1,0.8c-0.1,0.2-0.2,0.4-0.5,0.6c-0.2,0.1-0.5,0.2-0.9,0.2
			c-0.5,0-0.8-0.1-1.1-0.3c-0.3-0.2-0.4-0.6-0.4-1.2v-1.1h-2V156.5z M37.2,157.1v1.1c0,0.3,0.1,0.6,0.2,0.7c0.2,0.2,0.4,0.2,0.7,0.2
			c0.2,0,0.4,0,0.5-0.1c0.1-0.1,0.2-0.2,0.3-0.3s0.1-0.3,0.1-0.6v-1.1H37.2z"/>
		<path class="st2" d="M34.5,161h3.6v0.5h-0.6c0.3,0.1,0.4,0.2,0.5,0.3c0.1,0.1,0.1,0.2,0.1,0.3c0,0.2-0.1,0.3-0.2,0.5l-0.6-0.2
			c0.1-0.1,0.1-0.2,0.1-0.4c0-0.1,0-0.2-0.1-0.3s-0.2-0.2-0.3-0.2c-0.2-0.1-0.5-0.1-0.7-0.1h-1.9V161z"/>
		<path class="st2" d="M36.4,163.4c0.6,0,1.1,0.1,1.4,0.4c0.3,0.3,0.5,0.6,0.5,1c0,0.4-0.2,0.7-0.5,1s-0.8,0.4-1.4,0.4
			c-0.7,0-1.1-0.1-1.5-0.4c-0.3-0.3-0.5-0.6-0.5-1c0-0.4,0.2-0.7,0.5-1C35.3,163.6,35.7,163.4,36.4,163.4z M36.4,163.9
			c-0.5,0-0.8,0.1-1,0.3c-0.2,0.2-0.3,0.4-0.3,0.6c0,0.2,0.1,0.4,0.3,0.6c0.2,0.2,0.6,0.3,1,0.3c0.5,0,0.8-0.1,1-0.3
			c0.2-0.2,0.3-0.4,0.3-0.6c0-0.2-0.1-0.4-0.3-0.6C37.2,164,36.8,163.9,36.4,163.9z"/>
		<path class="st2" d="M33.2,167.5h5v0.5h-0.5c0.2,0.1,0.3,0.2,0.4,0.4s0.1,0.3,0.1,0.5c0,0.2-0.1,0.4-0.2,0.6
			c-0.1,0.2-0.4,0.3-0.6,0.5c-0.3,0.1-0.6,0.2-1,0.2c-0.6,0-1.1-0.1-1.4-0.4c-0.3-0.3-0.5-0.6-0.5-0.9c0-0.2,0-0.3,0.1-0.4
			c0.1-0.1,0.2-0.3,0.3-0.3h-1.8V167.5z M36.3,168c-0.5,0-0.8,0.1-1,0.2c-0.2,0.2-0.3,0.3-0.3,0.6c0,0.2,0.1,0.4,0.3,0.6
			s0.6,0.2,1.1,0.2c0.5,0,0.8-0.1,1.1-0.2c0.2-0.2,0.3-0.3,0.3-0.6c0-0.2-0.1-0.4-0.4-0.6C37.2,168.1,36.8,168,36.3,168z"/>
		<path class="st2" d="M35.7,173.4l-0.1,0.5c-0.4-0.1-0.7-0.2-0.9-0.5c-0.2-0.2-0.3-0.5-0.3-0.8c0-0.4,0.2-0.8,0.5-1
			c0.3-0.3,0.8-0.4,1.4-0.4c0.6,0,1.1,0.1,1.4,0.4c0.3,0.3,0.5,0.6,0.5,1c0,0.4-0.2,0.7-0.5,1c-0.3,0.3-0.8,0.4-1.4,0.4l-0.2,0v-2.2
			c-0.4,0-0.7,0.1-0.9,0.3c-0.2,0.2-0.3,0.4-0.3,0.6C35,173,35.2,173.3,35.7,173.4z M36.7,171.8v1.7c0.3,0,0.5-0.1,0.7-0.2
			c0.2-0.2,0.3-0.4,0.3-0.6c0-0.2-0.1-0.4-0.3-0.6C37.3,171.9,37,171.8,36.7,171.8z"/>
		<path class="st2" d="M34.5,175.3h3.6v0.5h-0.6c0.3,0.1,0.4,0.2,0.5,0.3c0.1,0.1,0.1,0.2,0.1,0.3c0,0.2-0.1,0.3-0.2,0.5l-0.6-0.2
			c0.1-0.1,0.1-0.2,0.1-0.4c0-0.1,0-0.2-0.1-0.3s-0.2-0.2-0.3-0.2c-0.2-0.1-0.5-0.1-0.7-0.1h-1.9V175.3z"/>
		<path class="st2" d="M35.6,177.7l0.1,0.5c-0.3,0-0.4,0.1-0.6,0.2c-0.1,0.1-0.2,0.3-0.2,0.5c0,0.2,0.1,0.4,0.2,0.5
			c0.1,0.1,0.2,0.2,0.4,0.2c0.1,0,0.3-0.1,0.3-0.2c0.1-0.1,0.1-0.2,0.2-0.5c0.1-0.4,0.2-0.7,0.3-0.8c0.1-0.1,0.2-0.2,0.3-0.3
			c0.1-0.1,0.3-0.1,0.5-0.1c0.3,0,0.6,0.1,0.8,0.3s0.3,0.5,0.3,0.8c0,0.2,0,0.4-0.1,0.6c-0.1,0.2-0.2,0.3-0.3,0.4s-0.3,0.2-0.6,0.2
			l-0.1-0.5c0.4,0,0.6-0.3,0.6-0.6c0-0.2,0-0.4-0.1-0.5c-0.1-0.1-0.2-0.2-0.3-0.2c-0.1,0-0.2,0.1-0.3,0.2c0,0.1-0.1,0.2-0.2,0.5
			c-0.1,0.4-0.2,0.7-0.3,0.8c-0.1,0.1-0.2,0.2-0.3,0.3c-0.1,0.1-0.3,0.1-0.5,0.1c-0.3,0-0.6-0.1-0.8-0.3c-0.2-0.2-0.3-0.5-0.3-0.9
			C34.5,178.2,34.9,177.8,35.6,177.7z"/>
		<path class="st2" d="M33.2,181.5l0.6-0.1c0,0.1-0.1,0.2-0.1,0.3c0,0.1,0,0.2,0.1,0.3s0.1,0.1,0.2,0.2c0,0,0.2,0.1,0.6,0.2l3.6-1.1
			v0.5l-2.1,0.6c-0.3,0.1-0.5,0.1-0.8,0.2c0.3,0.1,0.6,0.1,0.8,0.2l2.1,0.6v0.5l-3.7-1.1c-0.5-0.1-0.8-0.3-1-0.4
			c-0.2-0.1-0.3-0.2-0.3-0.3s-0.1-0.2-0.1-0.4C33.1,181.7,33.1,181.6,33.2,181.5z"/>
		<path class="st2" d="M35.6,184.9l0.1,0.5c-0.3,0-0.4,0.1-0.6,0.2c-0.1,0.1-0.2,0.3-0.2,0.5c0,0.2,0.1,0.4,0.2,0.5
			c0.1,0.1,0.2,0.2,0.4,0.2c0.1,0,0.3-0.1,0.3-0.2c0.1-0.1,0.1-0.2,0.2-0.5c0.1-0.4,0.2-0.7,0.3-0.8c0.1-0.1,0.2-0.2,0.3-0.3
			c0.1-0.1,0.3-0.1,0.5-0.1c0.3,0,0.6,0.1,0.8,0.3s0.3,0.5,0.3,0.8c0,0.2,0,0.4-0.1,0.6c-0.1,0.2-0.2,0.3-0.3,0.4s-0.3,0.2-0.6,0.2
			l-0.1-0.5c0.4,0,0.6-0.3,0.6-0.6c0-0.2,0-0.4-0.1-0.5c-0.1-0.1-0.2-0.2-0.3-0.2c-0.1,0-0.2,0.1-0.3,0.2c0,0.1-0.1,0.2-0.2,0.5
			c-0.1,0.4-0.2,0.7-0.3,0.8c-0.1,0.1-0.2,0.2-0.3,0.3s-0.3,0.1-0.5,0.1c-0.3,0-0.6-0.1-0.8-0.3c-0.2-0.2-0.3-0.5-0.3-0.9
			C34.5,185.4,34.9,185,35.6,184.9z"/>
		<path class="st2" d="M36.3,193.9l-0.2,0.5c-0.6-0.1-1-0.3-1.3-0.6c-0.3-0.3-0.4-0.7-0.4-1.1c0-0.4,0.1-0.7,0.3-1
			c0.2-0.3,0.5-0.5,0.9-0.7c0.4-0.2,0.9-0.3,1.5-0.3c0.6,0,1,0.1,1.4,0.3c0.4,0.2,0.7,0.4,0.9,0.7s0.3,0.6,0.3,1
			c0,0.4-0.1,0.7-0.4,1s-0.6,0.5-1.1,0.6l-0.2-0.5c0.7-0.2,1-0.5,1-1.1c0-0.3-0.1-0.5-0.2-0.7c-0.1-0.2-0.4-0.4-0.7-0.5
			c-0.3-0.1-0.7-0.2-1.1-0.2c-0.7,0-1.2,0.1-1.5,0.4c-0.3,0.2-0.5,0.6-0.5,1c0,0.3,0.1,0.6,0.3,0.8
			C35.6,193.7,35.9,193.8,36.3,193.9z"/>
		<path class="st2" d="M36.4,195.6c0.6,0,1.1,0.1,1.4,0.4c0.3,0.3,0.5,0.6,0.5,1c0,0.4-0.2,0.7-0.5,1s-0.8,0.4-1.4,0.4
			c-0.7,0-1.1-0.1-1.5-0.4c-0.3-0.3-0.5-0.6-0.5-1c0-0.4,0.2-0.7,0.5-1C35.3,195.7,35.7,195.6,36.4,195.6z M36.4,196.1
			c-0.5,0-0.8,0.1-1,0.3c-0.2,0.2-0.3,0.4-0.3,0.6c0,0.2,0.1,0.4,0.3,0.6c0.2,0.2,0.6,0.3,1,0.3c0.5,0,0.8-0.1,1-0.3
			c0.2-0.2,0.3-0.4,0.3-0.6c0-0.2-0.1-0.4-0.3-0.6C37.2,196.2,36.8,196.1,36.4,196.1z"/>
		<path class="st2" d="M34.5,199.7h3.6v0.5h-0.6c0.3,0.1,0.4,0.2,0.5,0.3c0.1,0.1,0.1,0.2,0.1,0.3c0,0.2-0.1,0.3-0.2,0.5l-0.6-0.2
			c0.1-0.1,0.1-0.2,0.1-0.4c0-0.1,0-0.2-0.1-0.3s-0.2-0.2-0.3-0.2c-0.2-0.1-0.5-0.1-0.7-0.1h-1.9V199.7z"/>
		<path class="st2" d="M33.2,202.3h5v0.5h-0.5c0.2,0.1,0.3,0.2,0.4,0.4s0.1,0.3,0.1,0.5c0,0.2-0.1,0.4-0.2,0.6
			c-0.1,0.2-0.4,0.3-0.6,0.5c-0.3,0.1-0.6,0.2-1,0.2c-0.6,0-1.1-0.1-1.4-0.4c-0.3-0.3-0.5-0.6-0.5-0.9c0-0.2,0-0.3,0.1-0.4
			c0.1-0.1,0.2-0.3,0.3-0.3h-1.8V202.3z M36.3,202.7c-0.5,0-0.8,0.1-1,0.2c-0.2,0.2-0.3,0.3-0.3,0.6c0,0.2,0.1,0.4,0.3,0.6
			c0.2,0.2,0.6,0.2,1.1,0.2c0.5,0,0.8-0.1,1.1-0.2c0.2-0.2,0.3-0.3,0.3-0.6c0-0.2-0.1-0.4-0.4-0.6C37.2,202.8,36.8,202.7,36.3,202.7
			z"/>
		<path class="st2" d="M34.5,206.3h0.7v0.6h-0.7V206.3z"/>
	</g>
</g>
<line class="st0" x1="113.6" y1="131.9" x2="113.6" y2="149.1"/>
<line class="st0" x1="90.8" y1="131.9" x2="90.8" y2="149.1"/>
<line class="st0" x1="170.2" y1="60.9" x2="218.6" y2="60.9"/>
<line class="st0" x1="68.1" y1="131.9" x2="68.1" y2="149.1"/>
<line class="st0" x1="181.8" y1="131.9" x2="181.8" y2="149.1"/>
<line class="st0" x1="159.1" y1="131.9" x2="159.1" y2="149.1"/>
<line class="st0" x1="136.3" y1="131.9" x2="136.3" y2="149.1"/>
<line class="st0" x1="250.1" y1="131.9" x2="250.1" y2="149.1"/>
<line class="st0" x1="227.4" y1="131.9" x2="227.4" y2="149.1"/>
<line class="st0" x1="204.6" y1="131.9" x2="204.6" y2="149.1"/>
<line class="st0" x1="318.4" y1="131.9" x2="318.4" y2="149.1"/>
<line class="st0" x1="295.6" y1="131.9" x2="295.6" y2="149.1"/>
<line class="st0" x1="272.9" y1="131.9" x2="272.9" y2="149.1"/>
<line class="st0" x1="41.4" y1="131.9" x2="41.4" y2="149.1"/>
<g>
</g>
<g>
</g>
<g>
</g>
<g>
</g>
<g>
</g>
<g>
</g>
<g>
</g>
<g>
</g>
<g>
</g>
<g>
</g>
<g>
</g>
<g>
</g>
<g>
</g>
<g>
</g>
<g>
</g>
</svg>
