<?xml version="1.0" encoding="utf-8"?>
<!-- Generator: Adobe Illustrator 23.0.5, SVG Export Plug-In . SVG Version: 6.00 Build 0)  -->
<svg version="1.1" id="圖層_1" xmlns="http://www.w3.org/2000/svg" xmlns:xlink="http://www.w3.org/1999/xlink" x="0px" y="0px"
	 viewBox="0 0 332.2 257" style="enable-background:new 0 0 332.2 257;" xml:space="preserve">
<style type="text/css">
	.st0{fill:none;stroke:#D1D1D1;stroke-width:0.5;stroke-miterlimit:10;}
	.st1{fill:#2150A2;}
	.st2{fill:#FFFFFF;}
	.st3{fill:#3176EF;}
</style>
<line class="st0" x1="170.7" y1="8.6" x2="170.7" y2="132.6"/>
<line class="st0" x1="319" y1="132.7" x2="41.6" y2="132.7"/>
<g>
	<path class="st1" d="M133.6,22.6c0,1.1,0.9,2,2,2h69c1.1,0,2-0.9,2-2v-13c0-1.1-0.9-2-2-2h-69c-1.1,0-2,0.9-2,2V22.6z"/>
</g>
<g>
	<path class="st2" d="M160.9,19.1c0,0.3-0.1,0.4-0.2,0.5c-0.2,0.1-0.5,0.1-1,0.1c0-0.1-0.1-0.4-0.2-0.5c0.4,0,0.7,0,0.8,0
		c0.1,0,0.1,0,0.1-0.2v-2.3c-0.4,0.2-0.7,0.4-1,0.6l-0.2-0.4c-0.1,1-0.2,2-0.6,2.8c-0.1-0.1-0.3-0.2-0.4-0.3
		c0.6-1.1,0.6-2.7,0.6-3.9v-2.9h2.2V19.1z M159.2,15.6c0,0.4,0,0.8,0,1.3c0.3-0.1,0.8-0.4,1.2-0.6v-0.9l-0.3,0.2
		c-0.2-0.3-0.6-0.7-0.9-1V15.6z M159.2,13.3v1.3l0.3-0.2c0.3,0.3,0.7,0.7,0.9,1v-2H159.2z M165.1,16.1c-0.3,1-0.8,1.8-1.5,2.4
		c0.5,0.4,1.1,0.7,1.8,0.8c-0.1,0.1-0.3,0.3-0.4,0.5c-0.7-0.2-1.3-0.5-1.8-1c-0.6,0.4-1.3,0.8-1.9,1c-0.1-0.1-0.2-0.3-0.3-0.5
		c0.6-0.2,1.3-0.5,1.8-0.9c-0.5-0.5-0.9-1.2-1.2-1.9l0,0h-0.4V16h3.4l0.1,0L165.1,16.1z M162.6,13.7c0,0.7-0.2,1.5-1.2,2.1
		c-0.1-0.1-0.2-0.3-0.3-0.4c0.9-0.5,1-1.2,1-1.8v-0.9h2.4v1.9c0,0.2,0,0.3,0.1,0.3h0.5c0.1,0,0.2,0,0.3,0c0,0.1,0,0.3,0,0.4
		c-0.1,0-0.2,0-0.4,0h-0.5c-0.5,0-0.6-0.2-0.6-0.8v-1.4h-1.4V13.7z M162.1,16.5c0.3,0.6,0.6,1.2,1.1,1.6c0.5-0.4,0.9-1,1.2-1.6
		H162.1z"/>
	<path class="st2" d="M171.1,17.4c0.7,0.8,1.9,1.5,2.9,1.8c-0.1,0.1-0.3,0.3-0.4,0.5c-1.1-0.4-2.3-1.2-3-2.1v2.2h-0.5v-2.2
		c-0.8,0.9-2,1.6-3,2.1c-0.1-0.1-0.2-0.3-0.4-0.4c1-0.4,2.2-1.1,2.9-1.8h-2v-2.9h2.5v-0.7H167v-0.5h3.2v-0.8h0.5v0.8h3.2v0.5h-3.2
		v0.7h2.6v2.9H171.1z M168.2,15.7h1.9v-0.8h-1.9V15.7z M168.2,17h1.9v-0.8h-1.9V17z M170.6,14.9v0.8h2.1v-0.8H170.6z M172.7,16.1
		h-2.1V17h2.1V16.1z"/>
	<path class="st2" d="M179.4,12.7c0,0-0.1,0.1-0.1,0.1c0.8,0.8,2.2,1.4,3.4,1.7c-0.1,0.1-0.3,0.3-0.3,0.4c-0.6-0.2-1.4-0.5-2-0.8
		v0.3h-2.8v-0.2c-0.6,0.3-1.3,0.6-2,0.8c-0.1-0.1-0.2-0.3-0.3-0.4c1.4-0.4,2.9-1.1,3.6-2.1L179.4,12.7z M176.3,14.8h5.3v2h-5.3V14.8
		z M176.8,16.4h2v-1.2h-2V16.4z M176.8,17.2h4.5v2.6h-0.5v-0.2h-3.4v0.3h-0.5V17.2z M177.7,15.3c0.2,0.3,0.4,0.7,0.5,0.9l-0.4,0.2
		c-0.1-0.3-0.3-0.6-0.5-0.9L177.7,15.3z M177.3,17.6v0.6h3.4v-0.6H177.3z M180.7,19.1v-0.6h-3.4v0.6H180.7z M180.2,14
		c-0.4-0.3-0.8-0.6-1.1-0.9c-0.3,0.3-0.7,0.6-1.1,0.9H180.2z M181.2,15.2h-2v1.2h2V15.2z M179.8,16.2c0.2-0.3,0.4-0.7,0.5-1l0.4,0.1
		c-0.2,0.4-0.4,0.7-0.6,1L179.8,16.2z"/>
</g>
<g>
	<path class="st1" d="M133.6,52.9c0,1.1,0.9,2,2,2h69c1.1,0,2-0.9,2-2v-13c0-1.1-0.9-2-2-2h-69c-1.1,0-2,0.9-2,2V52.9z"/>
</g>
<g>
	<path class="st2" d="M165.6,49.2v0.4h-7.1v-0.4h3.2v-0.5h-2.6v-0.4h2.6v-0.4h-2.4v-2h2.4v-0.4h-3.2v-0.4h3.2v-0.4
		c-0.9,0-1.7,0.1-2.6,0.1c0-0.1-0.1-0.3-0.1-0.4c1.9,0,4.2-0.1,5.4-0.3l0.4,0.4c-0.7,0.1-1.6,0.2-2.6,0.2v0.5h3.2v0.4h-3.2v0.4h2.5
		v2h-2.5v0.4h2.7v0.4h-2.7v0.5H165.6z M160.2,43.6h-1.6v-0.5h1.6v-0.5h0.6v0.5h1.1v0.5h-1.1v0.5h-0.6V43.6z M160,46.7h1.8v-0.5H160
		V46.7z M161.8,47.5v-0.5H160v0.5H161.8z M163.4,43.6h-1.2v-0.5h1.2v-0.5h0.6v0.5h1.6v0.5H164V44h-0.6V43.6z M162.4,46.2v0.5h1.9
		v-0.5H162.4z M164.2,47.1h-1.9v0.5h1.9V47.1z"/>
	<path class="st2" d="M174.3,47.7h-0.8v1.4h-0.6v-0.4H171v0.6c0,0.4-0.1,0.5-0.4,0.6c-0.2,0.1-0.7,0.1-1.3,0.1
		c0-0.2-0.1-0.4-0.2-0.5c0.5,0,1,0,1.1,0c0.2,0,0.2-0.1,0.2-0.2v-0.6h-2.6v-0.5h2.6v-0.6h-3.3v-0.5h3.3v-0.6h-2.5v-0.4h2.5v-0.6
		h-2.3v-1.4h2.3v-0.5h-3.1v-0.5h3.1v-0.6h0.6v0.6h3.2v0.5H171v0.5h2.4v1.4H171v0.6h2.5v1h0.8V47.7z M170.4,45.2v-0.6h-1.7v0.6H170.4
		z M171,44.6v0.6h1.8v-0.6H171z M171,47.2h1.9v-0.6H171V47.2z M172.9,47.7H171v0.6h1.9V47.7z"/>
	<path class="st2" d="M179.8,42.8c0,0-0.1,0.1-0.1,0.2c0.7,0.7,2.1,1.4,3.4,1.7c-0.1,0.1-0.3,0.3-0.4,0.5c-0.6-0.2-1.3-0.5-2-0.8
		v0.2h-2.8v-0.2c-0.6,0.3-1.3,0.6-2,0.8c-0.1-0.1-0.2-0.3-0.3-0.5c1.4-0.4,2.9-1.1,3.6-2.1L179.8,42.8z M176.6,44.9h5.3v2h-5.3V44.9
		z M177.1,47.3h4.5v2.6H181v-0.2h-3.3v0.3h-0.6V47.3z M177.1,46.5h1.9v-1.2h-1.9V46.5z M178,45.4c0.2,0.3,0.4,0.6,0.5,0.9l-0.5,0.2
		c-0.1-0.3-0.2-0.6-0.4-0.9L178,45.4z M177.7,47.7v0.5h3.3v-0.5H177.7z M181,49.2v-0.5h-3.3v0.5H181z M180.4,44.1
		c-0.4-0.2-0.8-0.5-1.1-0.8c-0.3,0.3-0.7,0.6-1,0.8H180.4z M181.4,45.3h-1.9v1.2h1.9V45.3z M180,46.3c0.1-0.3,0.4-0.7,0.4-1l0.5,0.2
		c-0.2,0.3-0.4,0.7-0.5,0.9L180,46.3z"/>
</g>
<g>
	<path class="st1" d="M133.6,83.3c0,1.1,0.9,2,2,2h69c1.1,0,2-0.9,2-2v-13c0-1.1-0.9-2-2-2h-69c-1.1,0-2,0.9-2,2V83.3z"/>
</g>
<g>
	<path class="st2" d="M165.6,79.6V80h-7.1v-0.4h3.2v-0.5h-2.6v-0.4h2.6v-0.4h-2.4v-2h2.4v-0.4h-3.2v-0.4h3.2V75
		c-0.9,0-1.7,0.1-2.6,0.1c0-0.1-0.1-0.3-0.1-0.4c1.9,0,4.2-0.1,5.4-0.3l0.4,0.4c-0.7,0.1-1.6,0.2-2.6,0.2v0.5h3.2v0.4h-3.2v0.4h2.5
		v2h-2.5v0.4h2.7v0.4h-2.7v0.5H165.6z M160.2,74h-1.6v-0.5h1.6V73h0.6v0.5h1.1V74h-1.1v0.5h-0.6V74z M160,77.1h1.8v-0.5H160V77.1z
		 M161.8,77.9v-0.5H160v0.5H161.8z M163.4,74h-1.2v-0.5h1.2V73h0.6v0.5h1.6V74H164v0.3h-0.6V74z M162.4,76.6v0.5h1.9v-0.5H162.4z
		 M164.2,77.4h-1.9v0.5h1.9V77.4z"/>
	<path class="st2" d="M174.3,78h-0.8v1.4h-0.6v-0.4H171v0.6c0,0.4-0.1,0.5-0.4,0.6c-0.2,0.1-0.7,0.1-1.3,0.1c0-0.2-0.1-0.4-0.2-0.5
		c0.5,0,1,0,1.1,0c0.2,0,0.2-0.1,0.2-0.2v-0.6h-2.6v-0.5h2.6V78h-3.3v-0.5h3.3V77h-2.5v-0.4h2.5V76h-2.3v-1.4h2.3v-0.5h-3.1v-0.5
		h3.1V73h0.6v0.6h3.2v0.5H171v0.5h2.4V76H171v0.6h2.5v1h0.8V78z M170.4,75.6V75h-1.7v0.6H170.4z M171,75v0.6h1.8V75H171z M171,77.6
		h1.9V77H171V77.6z M172.9,78H171v0.6h1.9V78z"/>
	<path class="st2" d="M182.5,77.8c-0.5,0.4-1.2,0.8-1.7,1c0.6,0.4,1.4,0.7,2.3,0.9c-0.1,0.1-0.3,0.4-0.4,0.5
		c-1.8-0.4-3.1-1.4-3.8-2.9h-1.3v2.1l2.2-0.5c0,0.2,0,0.4,0,0.5c-2.2,0.6-2.6,0.7-2.8,0.8l0,0c0-0.1-0.2-0.4-0.3-0.6
		c0.2-0.1,0.4-0.2,0.4-0.6v-1.8h-1.3v-0.5h1.4v-3.5h4.9v0.5h-4.3v0.7h4.1V75h-4.1v0.7h4.1v0.5h-4.1v0.7h5.1v0.5h-3.3
		c0.2,0.4,0.5,0.8,0.9,1.1c0.6-0.3,1.2-0.7,1.6-1.1L182.5,77.8z"/>
</g>
<g>
	<path class="st3" d="M219.1,67.5c0,1.1,0.9,2,2,2h64.1c1.1,0,2-0.9,2-2V55.6c0-1.1-0.9-2-2-2h-64.1c-1.1,0-2,0.9-2,2V67.5z"/>
</g>
<g>
	<path class="st2" d="M243.9,61.3c0.2,0.2,0.8,0.9,0.9,1.1l-0.3,0.5c-0.1-0.2-0.4-0.7-0.6-1V65h-0.5v-3.3c-0.3,0.8-0.6,1.5-1,1.9
		c-0.1-0.2-0.2-0.4-0.3-0.5c0.4-0.5,0.9-1.5,1.2-2.4h-1v-0.5h1.1v-1.2c-0.3,0.1-0.6,0.1-0.9,0.2c0-0.1-0.1-0.3-0.1-0.5
		c0.7-0.1,1.6-0.4,2.1-0.6l0.3,0.5c-0.2,0.1-0.5,0.2-0.8,0.3v1.3h0.8v0.5h-0.8V61.3z M247.5,60.6c-0.6,0-0.7-0.1-0.7-0.6v-0.5h-0.1
		c-0.2,0.4-0.6,0.8-1.4,1.1h0.4v0.5c0.9-0.1,2-0.2,2.5-0.3l0.4,0.3c-0.8,0.2-1.9,0.3-2.9,0.3v0.1c0,0.2,0,0.3,0.3,0.3h1.9
		c0.2,0,0.6,0,0.8,0c0,0.1,0,0.3,0.1,0.4c-0.1,0-0.5,0-0.8,0h-2c-0.6,0-0.8-0.2-0.8-0.7v-0.9c-0.1,0-0.1,0-0.2,0.1
		c0-0.1-0.2-0.3-0.2-0.4c0.7-0.2,1.1-0.5,1.3-0.8h-1.3v-0.4h1.4c0-0.1,0-0.2,0-0.3v-0.6h0.5v0.6c0,0.1,0,0.2,0,0.3h1.4
		c-0.2-0.2-0.6-0.4-0.9-0.6l0.3-0.3c0.3,0.2,0.8,0.4,1,0.6l-0.3,0.3h0.7v0.4h-1.7V60c0,0.2,0,0.2,0.3,0.2h0.8c0.2,0,0.2,0,0.2-0.5
		c0.1,0.1,0.3,0.1,0.4,0.2c0,0.6-0.2,0.7-0.6,0.7H247.5z M245.2,62.6h3.4V65h-0.5v-0.2h-2.4V65h-0.5V62.6z M245.7,63v0.5h2.4V63
		H245.7z M248.1,64.4v-0.5h-2.4v0.5H248.1z"/>
	<path class="st2" d="M251.9,62.2c-0.1-0.2-0.3-0.7-0.5-1V65h-0.5v-3.6c-0.2,0.8-0.6,1.6-0.9,2.1c-0.1-0.2-0.2-0.4-0.3-0.5
		c0.5-0.6,0.9-1.8,1.2-2.8h-1v-0.5h1v-1.4h0.5v1.4h0.8v0.5h-0.8v0.3c0.2,0.3,0.8,1.1,0.9,1.3L251.9,62.2z M256.4,61.9
		c-0.3,0.5-0.7,1-1.2,1.5c0.5,0.4,1.1,0.9,1.4,1.2l-0.4,0.4c-0.3-0.3-0.9-0.8-1.4-1.3c-0.7,0.6-1.5,1-2.5,1.3
		c-0.1-0.1-0.2-0.3-0.3-0.5c1.7-0.6,3.2-1.6,3.8-2.9L256.4,61.9z M255.8,60.5c-0.6,1.1-1.8,2.2-3.1,2.8c-0.1-0.1-0.2-0.3-0.3-0.4
		c0.8-0.3,1.4-0.8,2-1.4c-1.3,0.1-1.6,0.1-1.7,0.2c0-0.1-0.1-0.4-0.2-0.5c0.1,0,0.4-0.1,0.5-0.2c0.1-0.2,0.6-0.8,0.8-1.3h-1.4v-0.5
		h2c-0.1-0.3-0.2-0.6-0.4-0.9l0.5-0.2c0.2,0.3,0.4,0.7,0.4,1l-0.1,0h1.7v0.5h-2.1c-0.3,0.4-0.6,1-0.9,1.4l1.3-0.1
		c0.2-0.2,0.3-0.5,0.4-0.7L255.8,60.5z"/>
	<path class="st2" d="M264,64.3v0.5h-6.6v-0.5h3v-1H258v-0.5h2.3v-0.8h0.6v0.8h2.4v0.5h-2.4v1H264z M258,60.2h-0.5v-1.3h3
		c-0.1-0.2-0.2-0.4-0.3-0.6l0.5-0.2c0.1,0.2,0.3,0.5,0.4,0.7h2.8v1.3h-0.6v-0.8H258V60.2z M262.9,62.3c-0.1-0.1-0.2-0.3-0.4-0.5
		c-3.6,0.3-3.9,0.3-4.1,0.4c0-0.1-0.1-0.4-0.2-0.5c0.1,0,0.3-0.1,0.5-0.3c0.2-0.1,0.6-0.5,1-0.9h-1.5V60h4.9v0.5h-2.7
		c-0.4,0.4-0.8,0.8-1.3,1.1l2.9-0.2c-0.2-0.2-0.4-0.4-0.6-0.5l0.4-0.3c0.5,0.4,1.2,1,1.5,1.4L262.9,62.3z"/>
</g>
<g>
	<path class="st1" d="M133.6,113.6c0,1.1,0.9,2,2,2h69c1.1,0,2-0.9,2-2v-13c0-1.1-0.9-2-2-2h-69c-1.1,0-2,0.9-2,2V113.6z"/>
</g>
<g>
	<path class="st2" d="M160.8,108.2c0-0.1-0.1-0.3-0.1-0.5c-1.7,0.3-1.9,0.4-2.1,0.5c0-0.1-0.1-0.4-0.2-0.5c0.2,0,0.3-0.2,0.6-0.5
		c0.1-0.1,0.4-0.5,0.7-1c-0.8,0.1-1,0.1-1.1,0.2c0-0.1-0.1-0.4-0.2-0.5c0.1,0,0.3-0.2,0.4-0.4c0.2-0.2,0.7-1.2,0.9-2l0.5,0.2
		c-0.3,0.8-0.7,1.5-1.1,2.2l0.8-0.1c0.2-0.3,0.4-0.7,0.6-1.1l0.5,0.2c-0.5,0.9-1.1,1.9-1.7,2.6l1.2-0.2c-0.1-0.2-0.2-0.5-0.2-0.7
		l0.4-0.1c0.2,0.5,0.4,1.1,0.5,1.5L160.8,108.2z M159.3,108.6c-0.1,0.7-0.3,1.4-0.5,1.9c-0.1-0.1-0.3-0.1-0.4-0.2
		c0.2-0.5,0.4-1.2,0.4-1.8L159.3,108.6z M160,108.5c0.1,0.5,0.2,1.2,0.2,1.7l-0.4,0.1c0-0.5-0.1-1.2-0.2-1.7L160,108.5z
		 M160.8,108.3c0.1,0.4,0.3,1,0.4,1.4l-0.4,0.1c-0.1-0.4-0.2-0.9-0.3-1.4L160.8,108.3z M161,110.1c0.2-0.4,0.4-1.1,0.5-1.6l0.4,0.2
		c-0.1,0.5-0.3,1.3-0.5,1.7L161,110.1z M165.3,107.8h-3.7v-3.7h1.1c0.1-0.2,0.2-0.6,0.3-0.8l0.6,0.1c-0.1,0.2-0.2,0.5-0.3,0.7h2.1
		V107.8z M164.8,104.6h-2.7v2.7h2.7V104.6z M164.1,110c0.2,0,0.3-0.1,0.3-0.8c0.1,0.1,0.3,0.2,0.4,0.2c-0.1,0.9-0.2,1.1-0.7,1.1H163
		c-0.6,0-0.8-0.1-0.8-0.7v-1.4h0.5v1.4c0,0.2,0,0.2,0.4,0.2H164.1z M164.3,107.1c-0.1-0.2-0.3-0.4-0.5-0.6c-0.3,0.3-0.6,0.6-1,0.8
		c-0.1-0.1-0.2-0.2-0.3-0.3c0.4-0.2,0.7-0.5,1-0.8c-0.1-0.1-0.2-0.2-0.3-0.4c-0.2,0.2-0.4,0.4-0.7,0.6c-0.1-0.1-0.2-0.2-0.3-0.3
		c0.3-0.2,0.5-0.4,0.7-0.6c-0.2-0.2-0.3-0.3-0.5-0.4l0.3-0.2c0.1,0.1,0.3,0.2,0.4,0.4c0.1-0.2,0.2-0.3,0.3-0.5l0.4,0.1
		c-0.1,0.2-0.3,0.5-0.5,0.7c0.1,0.1,0.2,0.2,0.4,0.4c0.2-0.2,0.3-0.5,0.4-0.7l0.4,0.1c-0.2,0.3-0.4,0.6-0.6,0.9
		c0.2,0.2,0.4,0.5,0.6,0.7L164.3,107.1z M163.8,109.4c-0.2-0.3-0.5-0.9-0.8-1.3l0.4-0.2c0.3,0.4,0.6,0.9,0.8,1.2L163.8,109.4z
		 M165.1,108.4c0.3,0.5,0.6,1.1,0.7,1.6l-0.4,0.2c-0.1-0.4-0.4-1.1-0.7-1.6L165.1,108.4z"/>
	<path class="st2" d="M169.4,108.2c0-0.1,0-0.3-0.1-0.4c-1.7,0.3-1.9,0.3-2.1,0.4c0-0.1-0.1-0.4-0.2-0.6c0.2,0,0.4-0.2,0.6-0.5
		c0.1-0.1,0.4-0.5,0.7-0.9c-0.8,0.1-1,0.1-1.1,0.2c0-0.1-0.1-0.4-0.2-0.5c0.1,0,0.3-0.2,0.4-0.4c0.2-0.2,0.7-1.2,1.1-2l0.5,0.2
		c-0.4,0.8-0.8,1.5-1.2,2.1l0.8-0.1c0.2-0.3,0.4-0.7,0.6-1.1l0.5,0.3c-0.5,0.9-1.1,1.8-1.8,2.6l1.3-0.2c-0.1-0.3-0.2-0.5-0.3-0.8
		l0.5-0.1c0.2,0.5,0.4,1.2,0.5,1.6L169.4,108.2z M167.9,108.6c-0.1,0.7-0.2,1.5-0.4,2c-0.1-0.1-0.4-0.1-0.5-0.2
		c0.2-0.5,0.3-1.2,0.4-1.9L167.9,108.6z M168.7,108.5c0.1,0.5,0.2,1.2,0.2,1.7l-0.5,0.1c0-0.4-0.1-1.1-0.2-1.7L168.7,108.5z
		 M169.4,108.3c0.2,0.4,0.3,1,0.4,1.3l-0.4,0.2c-0.1-0.4-0.2-0.9-0.4-1.4L169.4,108.3z M174.3,110v0.5h-4.5V110h2v-1.5h-1.6v-0.5
		h3.8v0.5h-1.6v1.5H174.3z M170.9,107.6c-0.2-0.4-0.5-1-1-1.6c0.3-0.5,0.7-1.1,0.8-1.5l0.5,0.1c-0.2,0.4-0.5,0.9-0.8,1.3
		c0.4,0.5,0.7,1,0.9,1.4L170.9,107.6z M174.2,104.3H170v-0.5h4.2V104.3z M172.7,104.7c-0.2,0.4-0.5,0.9-0.8,1.3
		c0.4,0.5,0.7,1,0.9,1.4l-0.5,0.2c-0.2-0.4-0.6-1-1-1.6c0.3-0.5,0.7-1.1,0.9-1.5L172.7,104.7z M173.7,107.6c-0.2-0.4-0.6-1-1.1-1.6
		c0.3-0.5,0.7-1.1,0.9-1.5l0.5,0.1c-0.2,0.4-0.6,0.9-0.8,1.3c0.4,0.4,0.8,1,1,1.4L173.7,107.6z"/>
	<path class="st2" d="M178.2,109c-0.9,0.3-1.8,0.6-2.5,0.8l-0.1-0.6c0.3-0.1,0.7-0.2,1.1-0.3v-2.2h-0.9v-0.6h0.9v-1.7h-1v-0.6h2.5
		v0.6h-0.9v1.7h0.8v0.6h-0.8v2l0.9-0.3L178.2,109z M183,109.9v0.5h-5.1v-0.5h2.4v-1.1h-1.8v-0.5h1.8v-0.9h-1.7v-3.6h4.1v3.6h-1.7
		v0.9h1.9v0.5h-1.9v1.1H183z M179.1,105.3h1.2v-1h-1.2V105.3z M179.1,106.8h1.2v-1h-1.2V106.8z M182,104.3h-1.2v1h1.2V104.3z
		 M182,105.8h-1.2v1h1.2V105.8z"/>
</g>
<path class="st0" d="M52.6,149.8H30.5c-0.8,0-1.5,0.7-1.5,1.5v95c0,0.8,0.7,1.5,1.5,1.5h22.1c0.8,0,1.5-0.7,1.5-1.5v-95
	C54.1,150.5,53.4,149.8,52.6,149.8z"/>
<path class="st0" d="M5.7,151.3v95c0,0.8,0.7,1.5,1.5,1.5h14.8c0.8,0,1.5-0.7,1.5-1.5v-95c0-0.8-0.7-1.5-1.5-1.5H7.2
	C6.4,149.8,5.7,150.5,5.7,151.3z"/>
<path class="st0" d="M75.4,149.8H60.6c-0.8,0-1.5,0.7-1.5,1.5v95c0,0.8,0.7,1.5,1.5,1.5h14.8c0.8,0,1.5-0.7,1.5-1.5v-95
	C76.9,150.5,76.3,149.8,75.4,149.8z"/>
<path class="st0" d="M98.3,149.8H83.4c-0.8,0-1.5,0.7-1.5,1.5v95c0,0.8,0.7,1.5,1.5,1.5h14.8c0.8,0,1.5-0.7,1.5-1.5v-95
	C99.8,150.5,99.1,149.8,98.3,149.8z"/>
<path class="st0" d="M121.1,149.8h-14.8c-0.8,0-1.5,0.7-1.5,1.5v95c0,0.8,0.7,1.5,1.5,1.5h14.8c0.8,0,1.5-0.7,1.5-1.5v-95
	C122.6,150.5,122,149.8,121.1,149.8z"/>
<path class="st0" d="M144,149.8h-14.8c-0.8,0-1.5,0.7-1.5,1.5v95c0,0.8,0.7,1.5,1.5,1.5H144c0.8,0,1.5-0.7,1.5-1.5v-95
	C145.5,150.5,144.8,149.8,144,149.8z"/>
<path class="st0" d="M166.8,149.8H152c-0.8,0-1.5,0.7-1.5,1.5v95c0,0.8,0.7,1.5,1.5,1.5h14.8c0.8,0,1.5-0.7,1.5-1.5v-95
	C168.3,150.5,167.6,149.8,166.8,149.8z"/>
<path class="st0" d="M189.7,149.8h-14.8c-0.8,0-1.5,0.7-1.5,1.5v95c0,0.8,0.7,1.5,1.5,1.5h14.8c0.8,0,1.5-0.7,1.5-1.5v-95
	C191.2,150.5,190.5,149.8,189.7,149.8z"/>
<path class="st0" d="M212.5,149.8h-14.8c-0.8,0-1.5,0.7-1.5,1.5v95c0,0.8,0.7,1.5,1.5,1.5h14.8c0.8,0,1.5-0.7,1.5-1.5v-95
	C214,150.5,213.3,149.8,212.5,149.8z"/>
<path class="st0" d="M235.4,149.8h-14.8c-0.8,0-1.5,0.7-1.5,1.5v95c0,0.8,0.7,1.5,1.5,1.5h14.8c0.8,0,1.5-0.7,1.5-1.5v-95
	C236.9,150.5,236.2,149.8,235.4,149.8z"/>
<path class="st0" d="M258.2,149.8h-14.8c-0.8,0-1.5,0.7-1.5,1.5v95c0,0.8,0.7,1.5,1.5,1.5h14.8c0.8,0,1.5-0.7,1.5-1.5v-95
	C259.7,150.5,259,149.8,258.2,149.8z"/>
<path class="st0" d="M281,149.8h-14.8c-0.8,0-1.5,0.7-1.5,1.5v95c0,0.8,0.7,1.5,1.5,1.5H281c0.8,0,1.5-0.7,1.5-1.5v-95
	C282.5,150.5,281.9,149.8,281,149.8z"/>
<path class="st0" d="M311.9,247.8h14.8c0.8,0,1.5-0.7,1.5-1.5v-95c0-0.8-0.7-1.5-1.5-1.5h-14.8c-0.8,0-1.5,0.7-1.5,1.5v95
	C310.4,247.2,311.1,247.8,311.9,247.8z"/>
<path class="st0" d="M303.9,149.8H289c-0.8,0-1.5,0.7-1.5,1.5v95c0,0.8,0.7,1.5,1.5,1.5h14.8c0.8,0,1.5-0.7,1.5-1.5v-95
	C305.4,150.5,304.7,149.8,303.9,149.8z"/>
<g>
	<path class="st1" d="M18.2,162.7v0.6h-7.1v-0.6h3v-6.2h0.6v2.4h3v0.6h-3v3.2H18.2z"/>
	<path class="st1" d="M12.3,169.6c-0.3-0.3-0.8-0.6-1.3-0.8l0.3-0.4c0.5,0.2,1,0.5,1.3,0.8L12.3,169.6z M11.3,172.8
		c0.3-0.6,0.8-1.7,1.1-2.6l0.5,0.3c-0.3,0.8-0.7,1.8-1,2.6L11.3,172.8z M11.8,166.1c0.5,0.2,1.1,0.6,1.4,0.8l-0.4,0.5
		c-0.3-0.3-0.9-0.6-1.4-0.8L11.8,166.1z M14.2,167.4c-0.3,0.5-0.6,1-0.9,1.3c-0.1-0.1-0.4-0.3-0.5-0.3c0.6-0.6,1.1-1.5,1.3-2.5
		l0.6,0.1c-0.1,0.3-0.2,0.5-0.3,0.8h3.7v0.5H14.2z M17.7,170.4c0,0.5-0.1,0.9-0.1,1.2h0.5v0.5h-0.6c-0.1,0.4-0.2,0.7-0.3,0.8
		c-0.1,0.2-0.3,0.3-0.6,0.3c-0.2,0-0.6,0-1,0c0-0.2-0.1-0.4-0.2-0.5c0.4,0,0.8,0,0.9,0c0.1,0,0.2,0,0.3-0.1c0.1-0.1,0.1-0.2,0.2-0.5
		h-3.5c0.1-0.5,0.2-1.1,0.3-1.8H13v-0.5h0.8c0.1-0.6,0.1-1.1,0.2-1.6h3.8c0,0,0,0.2,0,0.3c0,0.5,0,1-0.1,1.4h0.6v0.5H17.7z
		 M17,171.6c0-0.3,0.1-0.7,0.1-1.2h-2.9c-0.1,0.4-0.1,0.9-0.2,1.2H17z M14.5,168.7c0,0.4-0.1,0.7-0.1,1.1H16
		c-0.2-0.3-0.5-0.6-0.9-0.9l0.3-0.2c0.3,0.2,0.7,0.6,0.9,0.9l-0.3,0.2h1.1c0-0.3,0-0.7,0.1-1.1H14.5z M15.3,170.4
		c0.4,0.3,0.8,0.7,1,1l-0.4,0.2c-0.2-0.3-0.6-0.7-0.9-1L15.3,170.4z"/>
	<path class="st1" d="M13.4,178H15v0.6h-1.6v0.2c0.4,0.4,1.3,1.3,1.5,1.5l-0.4,0.5c-0.2-0.3-0.8-0.9-1.2-1.3v3.5h-0.6v-3.4
		c-0.4,0.9-1,1.8-1.5,2.3c-0.1-0.2-0.2-0.4-0.3-0.6c0.6-0.6,1.3-1.7,1.7-2.7h-1.6V178h1.7v-1.4c-0.5,0.1-1,0.2-1.5,0.3
		c0-0.1-0.1-0.3-0.2-0.5c1.2-0.2,2.6-0.4,3.3-0.8l0.4,0.5c-0.4,0.2-0.9,0.3-1.4,0.4V178z M16.2,180.9h-0.6v-4.4h0.6V180.9z
		 M17.9,175.7v6.4c0,0.4-0.1,0.6-0.4,0.7c-0.3,0.1-0.7,0.1-1.4,0.1c0-0.2-0.1-0.4-0.2-0.6c0.6,0,1.1,0,1.2,0c0.1,0,0.2,0,0.2-0.2
		v-6.4H17.9z"/>
	<path class="st1" d="M13.6,190.5l0.1,0.5c-0.9,0.2-1.8,0.5-2.5,0.6l-0.1-0.6c0.4-0.1,0.8-0.2,1.3-0.3c0.2-0.9,0.4-2.3,0.5-3.2
		l0.5,0.1c-0.1,0.9-0.3,2.2-0.5,3L13.6,190.5z M13.5,187.2h-2.4v-0.6h2.4V187.2z M11.7,190.5c0-0.8-0.2-2-0.4-2.8l0.5-0.1
		c0.2,0.9,0.4,2.1,0.4,2.8L11.7,190.5z M12.2,186.6c-0.1-0.3-0.2-0.8-0.4-1.2l0.5-0.2c0.1,0.4,0.3,0.8,0.4,1.2L12.2,186.6z
		 M15.9,191.7c0,0.3-0.1,0.5-0.3,0.6c-0.2,0.1-0.6,0.1-1.2,0.1c0-0.1-0.1-0.4-0.2-0.5c0.4,0,0.8,0,0.9,0c0.1,0,0.2,0,0.2-0.2v-2.1
		c-0.5,0.4-0.9,0.9-1.3,1.2l-0.3-0.5c0.4-0.3,1-0.9,1.6-1.4v-2.9h-1.5v-0.5h2V191.7z M14.4,187c0.2,0.5,0.5,1.2,0.6,1.5l-0.4,0.2
		c-0.1-0.4-0.3-1.1-0.6-1.6L14.4,187z M18.1,191.7c0,0.4-0.1,0.5-0.3,0.6c-0.2,0.1-0.6,0.1-1.2,0.1c0-0.2-0.1-0.4-0.2-0.5
		c0.4,0,0.8,0,0.9,0c0.1,0,0.2,0,0.2-0.2v-2.3c-0.4,0.4-0.9,0.8-1.2,1.2l-0.3-0.4c0.4-0.3,1-0.8,1.5-1.3v-2.8h-1.4v-0.5h2V191.7z
		 M16.5,186.9c0.2,0.5,0.5,1.2,0.6,1.5l-0.4,0.2c-0.1-0.4-0.4-1.1-0.6-1.6L16.5,186.9z"/>
</g>
<g>
	<path class="st1" d="M66.9,158.3c-0.2,0.4-0.6,0.8-0.9,1.2v4.2h-0.6v-3.6c-0.3,0.3-0.6,0.6-0.9,0.8c-0.1-0.1-0.3-0.4-0.4-0.5
		c0.8-0.6,1.7-1.5,2.2-2.4L66.9,158.3z M66.6,156.6c-0.5,0.7-1.3,1.5-2,2c-0.1-0.1-0.2-0.4-0.4-0.5c0.7-0.4,1.4-1.2,1.8-1.7
		L66.6,156.6z M71.5,159.6h-1.2v3.3c0,0.4-0.1,0.6-0.4,0.6c-0.3,0.1-0.7,0.1-1.5,0.1c0-0.2-0.1-0.4-0.2-0.6c0.6,0,1.1,0,1.2,0
		s0.2,0,0.2-0.2v-3.3H67V159h4.5V159.6z M71.3,157.4h-3.9v-0.6h3.9V157.4z"/>
	<path class="st1" d="M71,168c-0.2,1.3-0.5,2.4-1.1,3.3c0.4,0.7,1,1.2,1.7,1.5c-0.1,0.1-0.3,0.4-0.4,0.5c-0.7-0.3-1.2-0.8-1.6-1.5
		c-0.5,0.6-1,1.1-1.8,1.5c-0.1-0.1-0.2-0.4-0.3-0.5c0.8-0.4,1.4-0.9,1.8-1.5c-0.4-0.7-0.6-1.4-0.8-2.3c-0.2,0.3-0.3,0.6-0.5,0.9
		c-0.1-0.1-0.3-0.3-0.5-0.4l0-0.1h-0.9v2l1.4-0.3l0.1,0.5c-1.3,0.3-2.7,0.7-3.7,0.9l-0.1-0.6l0.5-0.1v-3.6h0.5v3.4l0.8-0.2v-4.5
		h-1.7v-0.6H68v0.6h-1.4v1.7h1.1v0.3c0.5-0.8,0.9-2,1.1-3.2l0.6,0.1c-0.1,0.5-0.2,0.9-0.3,1.4h2.5v0.6H71z M68.8,168.1
		c0.2,0.9,0.4,1.8,0.8,2.6c0.4-0.7,0.6-1.6,0.8-2.7h-1.5L68.8,168.1z"/>
	<path class="st1" d="M65.5,176.6c-0.3,0.4-0.5,0.8-0.8,1c-0.1-0.1-0.3-0.3-0.4-0.4c0.5-0.4,1-1.1,1.2-1.7l0.5,0.1
		c-0.1,0.2-0.1,0.3-0.2,0.5h2.1v0.5h-1.5c0.2,0.2,0.5,0.5,0.7,0.7l-0.4,0.3c-0.2-0.2-0.5-0.5-0.7-0.8l0.3-0.2H65.5z M67.9,177.2
		c0.1,0.2,0.2,0.4,0.3,0.6h2.9v1.3h-0.6v-0.8h-5.3v0.8h-0.6v-1.3h2.9c-0.1-0.2-0.2-0.4-0.2-0.5L67.9,177.2z M66.2,180.9h4.4v2H70
		v-0.3h-3.8v0.3h-0.6v-4.1h4.6v1.6h-4V180.9z M66.2,179.2v0.7h3.4v-0.7H66.2z M66.2,181.4v0.8H70v-0.8H66.2z M71.5,176.2v0.5h-1.7
		c0.3,0.2,0.6,0.5,0.8,0.7l-0.4,0.4c-0.2-0.2-0.6-0.6-0.8-0.8l0.3-0.3h-0.9c-0.2,0.2-0.4,0.5-0.6,0.7c-0.1-0.1-0.3-0.3-0.4-0.4
		c0.4-0.3,0.8-0.9,1-1.4l0.5,0.1c-0.1,0.2-0.1,0.3-0.2,0.5H71.5z"/>
	<path class="st1" d="M66.8,190.8c-0.9,0.3-1.8,0.6-2.5,0.8l-0.1-0.6c0.3-0.1,0.7-0.2,1.1-0.3v-2.2h-0.9V188h0.9v-1.7h-1v-0.6h2.5
		v0.6h-0.9v1.7h0.8v0.6h-0.8v2l0.9-0.3L66.8,190.8z M71.6,191.7v0.5h-5.1v-0.5h2.4v-1.1h-1.8V190h1.8v-0.9h-1.7v-3.6h4.1v3.6h-1.7
		v0.9h1.9v0.5h-1.9v1.1H71.6z M67.7,187.1h1.2v-1h-1.2V187.1z M67.7,188.6h1.2v-1h-1.2V188.6z M70.6,186.1h-1.2v1h1.2V186.1z
		 M70.6,187.6h-1.2v1h1.2V187.6z"/>
	<path class="st1" d="M68.1,199c-0.2,0.8-0.4,1.4-0.8,1.9c0.6,0.5,1.3,0.6,2.3,0.6c0.2,0,1.7,0,2.1,0c-0.1,0.1-0.2,0.4-0.2,0.5h-1.9
		c-1.1,0-1.9-0.1-2.6-0.7c-0.4,0.4-0.9,0.7-1.5,0.9c-0.1-0.1-0.2-0.3-0.3-0.4c0.5-0.2,1-0.4,1.4-0.8c-0.2-0.2-0.3-0.5-0.5-0.9
		c-0.2,0.2-0.3,0.4-0.5,0.6c-0.1-0.1-0.2-0.2-0.3-0.3c-0.1,0.7-0.3,1.3-0.6,1.9c-0.1-0.1-0.3-0.3-0.5-0.4c0.6-1,0.7-2.5,0.7-3.5v-2
		h2.6v-1.5h0.6v0.5h2.7v0.4h-2.7v0.5h2.8l0.1,0l0.4,0.1c-0.2,0.5-0.4,1-0.6,1.3l-0.5-0.2c0.1-0.2,0.2-0.5,0.3-0.8h-2.6v0.5l2-0.1
		l0,0.4l-2.1,0.1v0.2c0,0.2,0,0.3,0.3,0.3h1.9c0.2,0,0.7,0,0.8,0c0,0.2,0,0.3,0,0.4c-0.1,0-0.5,0-0.8,0h-2c-0.7,0-0.8-0.2-0.8-0.7
		v-0.1l-1.6,0.1l0-0.4l1.6-0.1v-0.5h-2v1.5c0,0.6,0,1.3-0.1,2c0.5-0.4,1-1.1,1.2-1.9l0.5,0.1c-0.1,0.2-0.1,0.4-0.2,0.5h0.9l0.1,0
		L68.1,199z M66.6,199.4c0,0.1-0.1,0.1-0.1,0.2c0.1,0.4,0.3,0.7,0.5,1c0.2-0.3,0.4-0.7,0.6-1.1H66.6z M70.4,201
		c-0.4,0-0.5-0.1-0.5-0.5v-1.1h-0.8v0.2c0,0.5-0.1,1.2-0.8,1.6c-0.1-0.1-0.3-0.3-0.4-0.3c0.5-0.4,0.6-0.9,0.6-1.3v-0.6h1.8v1.6
		c0,0.2,0,0.2,0.1,0.2h0.3c0.1,0,0.1-0.1,0.1-0.5c0.1,0.1,0.2,0.1,0.4,0.1c0,0.5-0.2,0.7-0.4,0.7H70.4z"/>
</g>
<g>
	<path class="st1" d="M89.3,158.6H87v-0.5h2.3V158.6z M89.9,162.7c-0.6,0.4-1.6,0.8-2.4,1c-0.1-0.1-0.3-0.3-0.4-0.4
		c0.8-0.2,1.8-0.5,2.3-0.8L89.9,162.7z M89.1,157.3h-1.9v-0.5h1.9V157.3z M88,159.2h5.2v3.2H88V159.2z M88.6,160.1h4v-0.5h-4V160.1z
		 M88.6,161.1h4v-0.5h-4V161.1z M88.6,162h4v-0.6h-4V162z M90.5,157.4c-0.2,0.3-0.4,0.6-0.6,0.8c-0.1-0.1-0.3-0.2-0.4-0.3
		c0.4-0.4,0.7-0.9,0.9-1.5l0.5,0.1c0,0.2-0.1,0.3-0.2,0.4h2.7l0.1,0L94,157c-0.2,0.4-0.5,0.9-0.7,1.2l-0.5-0.2
		c0.1-0.2,0.3-0.4,0.4-0.6h-1.3v0.1c0,0.1,0,0.2,0,0.3c0.4,0.5,1.3,0.8,2.3,0.9c-0.1,0.1-0.3,0.3-0.3,0.5c-0.9-0.1-1.7-0.4-2.2-0.9
		c-0.3,0.4-0.9,0.8-2.3,1c-0.1-0.1-0.2-0.3-0.3-0.4c2.1-0.3,2.3-0.8,2.3-1.2v-0.1H90.5z M91.7,162.4c0.9,0.3,1.8,0.6,2.4,0.9
		l-0.5,0.3c-0.5-0.3-1.4-0.6-2.2-0.9L91.7,162.4z"/>
	<path class="st1" d="M89.9,170.5c-0.2-0.3-0.6-0.8-0.9-1.3v4.1h-0.6v-3.8c-0.3,0.9-0.8,1.8-1.3,2.4c-0.1-0.2-0.2-0.4-0.3-0.6
		c0.6-0.7,1.2-1.9,1.5-3h-1.2v-0.6h1.3V166H89v1.7h1.1v0.6H89v0.2c0.3,0.3,1.1,1.3,1.3,1.5L89.9,170.5z M94.2,168.3h-0.8v4.2
		c0,0.4-0.1,0.6-0.4,0.7c-0.3,0.1-0.7,0.1-1.4,0.1c0-0.2-0.1-0.4-0.2-0.6c0.5,0,1,0,1.2,0c0.1,0,0.2,0,0.2-0.2v-3.4
		c-0.6,1.2-1.5,2.3-2.4,2.9c-0.1-0.2-0.3-0.4-0.4-0.5c1-0.7,2-2,2.6-3.3h-2.2v-0.6h2.4V166h0.6v1.7h0.8V168.3z"/>
	<path class="st1" d="M90.8,179.8c-0.2,0.8-0.4,1.4-0.8,1.9c0.6,0.5,1.3,0.6,2.3,0.6c0.2,0,1.7,0,2.1,0c-0.1,0.1-0.2,0.4-0.2,0.5
		h-1.9c-1.1,0-1.9-0.1-2.6-0.7c-0.4,0.4-0.9,0.7-1.5,0.9c-0.1-0.1-0.2-0.3-0.3-0.4c0.5-0.2,1-0.4,1.4-0.8c-0.2-0.2-0.3-0.5-0.5-0.9
		c-0.2,0.2-0.3,0.4-0.5,0.6c-0.1-0.1-0.2-0.2-0.3-0.3c-0.1,0.7-0.3,1.3-0.6,1.9c-0.1-0.1-0.3-0.3-0.5-0.4c0.6-1,0.7-2.5,0.7-3.5v-2
		h2.6v-1.5h0.6v0.5h2.7v0.4h-2.7v0.5h2.8l0.1,0l0.4,0.1c-0.2,0.5-0.4,1-0.6,1.3l-0.5-0.2c0.1-0.2,0.2-0.5,0.3-0.8h-2.6v0.5l2-0.1
		l0,0.4l-2.1,0.1v0.2c0,0.2,0,0.3,0.3,0.3h1.9c0.2,0,0.7,0,0.8,0c0,0.2,0,0.3,0,0.4c-0.1,0-0.5,0-0.8,0h-2c-0.7,0-0.8-0.2-0.8-0.7
		v-0.1l-1.6,0.1l0-0.4l1.6-0.1v-0.5h-2v1.5c0,0.6,0,1.3-0.1,2c0.5-0.4,1-1.1,1.2-1.9l0.5,0.1c-0.1,0.2-0.1,0.4-0.2,0.5h0.9l0.1,0
		L90.8,179.8z M89.3,180.2c0,0.1-0.1,0.1-0.1,0.2c0.1,0.4,0.3,0.7,0.5,1c0.2-0.3,0.4-0.7,0.6-1.1H89.3z M93.1,181.8
		c-0.4,0-0.5-0.1-0.5-0.5v-1.1h-0.8v0.2c0,0.5-0.1,1.2-0.8,1.6c-0.1-0.1-0.3-0.3-0.4-0.3c0.5-0.4,0.6-0.9,0.6-1.3v-0.6H93v1.6
		c0,0.2,0,0.2,0.1,0.2h0.3c0.1,0,0.1-0.1,0.1-0.5c0.1,0.1,0.2,0.1,0.4,0.1c0,0.5-0.2,0.7-0.4,0.7H93.1z"/>
</g>
<g>
	<path class="st1" d="M116.5,162.5v0.6h-7.1v-0.6h3.2v-4.6h-2.8v-0.6h6.3v0.6h-2.9v4.6H116.5z"/>
	<path class="st1" d="M114.7,169.7c-0.2,0.7-0.5,1.3-0.9,1.8c1,0.4,1.8,0.9,2.5,1.2l-0.4,0.5c-0.6-0.4-1.5-0.9-2.5-1.3
		c-0.8,0.7-1.9,1.1-3.4,1.3c-0.1-0.2-0.2-0.4-0.4-0.6c1.4-0.2,2.4-0.5,3.2-1c-0.7-0.3-1.5-0.6-2.2-0.8c0.2-0.3,0.5-0.7,0.7-1.1h-1.7
		v-0.6h2c0.3-0.5,0.5-1,0.7-1.4l0.7,0.1c-0.2,0.4-0.4,0.8-0.6,1.3h1.9c0.1-0.2,0.1-0.5,0.1-0.8l0.7,0.1c0,0.3-0.1,0.5-0.1,0.7h1.5
		v0.6H114.7z M110.2,168.5h-0.6v-1.6h3c-0.1-0.3-0.3-0.6-0.4-0.8l0.6-0.2c0.2,0.3,0.4,0.7,0.5,1h2.8v1.6h-0.6v-1h-5.3V168.5z
		 M111.9,169.7c-0.2,0.3-0.4,0.6-0.5,0.9c0.6,0.2,1.2,0.4,1.8,0.6c0.4-0.4,0.7-0.9,0.9-1.5H111.9z"/>
	<path class="st1" d="M116.1,177v3.7h-0.6v-0.5h-2.3v2.6h-0.6v-2.6h-2.3v0.5h-0.6V177h2.9v-1.4h0.6v1.4H116.1z M112.6,179.7v-2.1
		h-2.3v2.1H112.6z M115.5,179.7v-2.1h-2.3v2.1H115.5z"/>
	<path class="st1" d="M110.6,188.1c-0.1,0.9-0.4,2.3-0.7,3.1l-0.6-0.2c0.3-0.8,0.6-2.1,0.7-3L110.6,188.1z M111.9,187.4v3.9
		c0,0.4,0.1,0.4,0.6,0.4h1.5c0.5,0,0.6-0.3,0.6-1.7c0.1,0.1,0.4,0.2,0.6,0.3c-0.1,1.5-0.3,2-1.2,2h-1.6c-0.9,0-1.1-0.2-1.1-1v-3.9
		H111.9z M112,185.4c0.7,0.5,1.7,1.3,2.2,1.8l-0.4,0.4c-0.4-0.5-1.4-1.3-2.1-1.8L112,185.4z M115.5,187.8c0.5,1,0.9,2.2,1.1,3
		L116,191c-0.2-0.8-0.6-2.1-1-3L115.5,187.8z"/>
</g>
<g>
	<path class="st1" d="M133.1,160.2h2.8v3.4h-0.6v-0.4h-1.7v0.4h-0.6V160.2z M133.6,160.8v1.9h1.7v-1.9H133.6z M138.6,159.4h-4.3
		v-2.6h4.3V159.4z M138,157.3h-3.2v1.5h3.2V157.3z M139.7,160.2v3.4h-0.6v-0.4h-1.8v0.4h-0.6v-3.5H139.7z M139.1,162.7v-1.9h-1.8
		v1.9H139.1z"/>
	<path class="st1" d="M135.2,166.2c-0.2,0.6-0.5,1.2-0.8,1.7v5.4h-0.6v-4.5c-0.3,0.4-0.6,0.7-0.8,1c-0.1-0.1-0.2-0.4-0.3-0.6
		c0.8-0.8,1.6-1.9,2-3.2L135.2,166.2z M136.6,170.9c-0.4,0.7-0.9,1.4-1.4,2c-0.1-0.1-0.3-0.3-0.5-0.3c0.5-0.5,1-1.2,1.3-1.8
		L136.6,170.9z M137.7,170.4v2.9h-0.6v-2.9h-2.3v-0.5h2.3v-1h-1.7v-2.5h4.1v2.5h-1.8v1h2.3v0.5H137.7z M136,168.3h3v-1.5h-3V168.3z
		 M138.6,170.7c0.5,0.6,1.1,1.3,1.4,1.8l-0.5,0.3c-0.3-0.5-0.9-1.3-1.4-1.8L138.6,170.7z"/>
	<path class="st1" d="M139.6,177v3.7h-0.6v-0.5h-2.3v2.6H136v-2.6h-2.3v0.5h-0.6V177h2.9v-1.4h0.6v1.4H139.6z M136,179.7v-2.1h-2.3
		v2.1H136z M138.9,179.7v-2.1h-2.3v2.1H138.9z"/>
	<path class="st1" d="M134,188.1c-0.1,0.9-0.4,2.3-0.7,3.1l-0.6-0.2c0.3-0.8,0.6-2.1,0.7-3L134,188.1z M135.3,187.4v3.9
		c0,0.4,0.1,0.4,0.6,0.4h1.5c0.5,0,0.6-0.3,0.6-1.7c0.1,0.1,0.4,0.2,0.6,0.3c-0.1,1.5-0.3,2-1.2,2h-1.6c-0.9,0-1.1-0.2-1.1-1v-3.9
		H135.3z M135.5,185.4c0.7,0.5,1.7,1.3,2.2,1.8l-0.4,0.4c-0.4-0.5-1.4-1.3-2.1-1.8L135.5,185.4z M139,187.8c0.5,1,0.9,2.2,1.1,3
		l-0.6,0.2c-0.2-0.8-0.6-2.1-1-3L139,187.8z"/>
</g>
<g>
	<path class="st1" d="M156.6,159.6v1.2c0,0.9-0.1,2.1-0.9,3c-0.1-0.1-0.3-0.3-0.4-0.4c0.6-0.7,0.7-1.8,0.7-2.6v-1.7h1
		c-0.1-0.1-0.2-0.2-0.3-0.3c0.6-0.1,1.4-0.3,2-0.5c-0.6-0.2-1.2-0.3-1.8-0.5l0.4-0.3h-1.3v-0.5h3c-0.1-0.2-0.3-0.4-0.4-0.6l0.4-0.2
		c0.2,0.2,0.5,0.6,0.6,0.8h2.7v0.5h-1.2l0.3,0.2c-0.4,0.2-0.8,0.4-1.2,0.5c0.6,0.2,1.1,0.4,1.5,0.5l-0.3,0.3h1.2v0.5H156.6z
		 M162.7,162.9v0.5h-5.9v-0.5h2.6v-0.8h-1.9v-0.5h1.9v-0.7h-1.7c-0.2,0.4-0.5,0.7-0.8,1c-0.1-0.1-0.2-0.4-0.3-0.5
		c0.4-0.4,0.8-1,1.1-1.7l0.5,0.1c-0.1,0.2-0.1,0.4-0.2,0.5h1.4v-0.7h0.6v0.7h2.2v0.5H160v0.7h2v0.5h-2v0.8H162.7z M161.2,159.1
		c-0.5-0.2-1-0.4-1.7-0.6c-0.7,0.2-1.5,0.4-2.2,0.6H161.2z M157.6,157.6c0.6,0.2,1.3,0.3,2,0.5c0.5-0.2,1-0.3,1.3-0.5H157.6z"/>
	<path class="st1" d="M155.8,169.8h2.8v3.4H158v-0.4h-1.7v0.4h-0.6V169.8z M156.3,170.4v1.9h1.7v-1.9H156.3z M161.3,169h-4.3v-2.6
		h4.3V169z M160.7,166.9h-3.2v1.5h3.2V166.9z M162.4,169.8v3.4h-0.6v-0.4H160v0.4h-0.6v-3.5H162.4z M161.8,172.3v-1.9H160v1.9H161.8
		z"/>
	<path class="st1" d="M161.7,178.8c-0.5,1.1-1.2,1.9-2.1,2.5c0.9,0.4,1.9,0.8,3.1,0.9c-0.1,0.1-0.3,0.4-0.4,0.6
		c-1.3-0.2-2.4-0.6-3.3-1.1c-1,0.6-2.2,0.9-3.4,1.1c-0.1-0.2-0.2-0.4-0.3-0.6c1.1-0.2,2.2-0.5,3.1-0.9c-0.8-0.6-1.4-1.3-1.8-2.1
		l0.2-0.1h-0.8v-0.6h2.7v-1.2h-3v-0.6h3v-1.2h0.6v1.2h3v0.6h-3v1.2h1.9l0.1,0L161.7,178.8z M157.4,179.2c0.4,0.8,1,1.4,1.7,1.9
		c0.8-0.5,1.4-1.1,1.8-1.9H157.4z"/>
	<path class="st1" d="M157,189.7v2.1c0,0.3-0.1,0.5-0.3,0.6c-0.2,0.1-0.5,0.1-1,0.1c0-0.1-0.1-0.4-0.2-0.6c0.3,0,0.7,0,0.8,0
		c0.1,0,0.1,0,0.1-0.1v-1.9c-0.3,0.1-0.7,0.2-1,0.3l-0.1-0.6c0.3-0.1,0.7-0.2,1.1-0.3v-1.9h-1v-0.6h1v-1.6h0.6v1.6h0.9v0.6H157v1.8
		l0.8-0.3l0.1,0.5L157,189.7z M162.1,189.6c-0.2,0.8-0.6,1.3-1.1,1.8c0.5,0.3,1.1,0.5,1.8,0.6c-0.1,0.1-0.3,0.4-0.4,0.5
		c-0.7-0.2-1.3-0.4-1.9-0.8c-0.5,0.4-1.1,0.6-1.7,0.7c-0.1-0.1-0.2-0.4-0.3-0.4c0.6-0.1,1.2-0.3,1.6-0.6c-0.4-0.3-0.7-0.6-0.9-1
		c-0.3,0.8-0.8,1.6-1.6,2.1c-0.1-0.1-0.3-0.3-0.4-0.4c1.1-0.7,1.6-2,1.8-3.1h-1.1v-0.5h1.2c0-0.2,0-0.4,0.1-0.6h-1v-0.5h2.8
		c0.3-0.4,0.6-0.9,0.7-1.3l0.6,0.2c-0.2,0.4-0.5,0.8-0.7,1.2h1v0.5h-2.7c0,0.2,0,0.4-0.1,0.6h3v0.5h-3.1c0,0.2-0.1,0.4-0.1,0.5h2.2
		l0.1,0L162.1,189.6z M162.3,185.7c-1.1,0.2-2.8,0.4-4.2,0.4c0-0.1-0.1-0.3-0.1-0.5c1.4,0,3.1-0.2,4-0.4L162.3,185.7z M158.7,186.2
		c0.1,0.3,0.3,0.7,0.4,1l-0.5,0.2c-0.1-0.3-0.2-0.7-0.4-1L158.7,186.2z M159.5,189.9c0.3,0.4,0.6,0.8,1.1,1.2
		c0.4-0.3,0.6-0.7,0.8-1.2H159.5z M159.9,187.2c0-0.3-0.1-0.7-0.2-1.1l0.5-0.1c0.1,0.3,0.2,0.8,0.2,1.1L159.9,187.2z"/>
	<path class="st1" d="M162.7,199.8h-0.8v1.4h-0.6v-0.4h-1.9v0.6c0,0.4-0.1,0.5-0.4,0.6c-0.2,0.1-0.7,0.1-1.3,0.1
		c0-0.2-0.1-0.4-0.2-0.5c0.5,0,1,0,1.1,0c0.2,0,0.2-0.1,0.2-0.2v-0.6h-2.6v-0.5h2.6v-0.6h-3.3v-0.5h3.3v-0.6h-2.5v-0.4h2.5v-0.6
		h-2.3v-1.4h2.3v-0.5h-3.1v-0.5h3.1v-0.6h0.6v0.6h3.2v0.5h-3.2v0.5h2.4v1.4h-2.4v0.6h2.5v1h0.8V199.8z M158.7,197.4v-0.6H157v0.6
		H158.7z M159.3,196.8v0.6h1.8v-0.6H159.3z M159.3,199.3h1.9v-0.6h-1.9V199.3z M161.3,199.8h-1.9v0.6h1.9V199.8z"/>
	<path class="st1" d="M158.4,210.4c-0.6,0.4-1.6,0.8-2.5,1c-0.1-0.1-0.2-0.3-0.4-0.4c0.8-0.1,1.8-0.4,2.4-0.8L158.4,210.4z
		 M162.5,209.3v0.5h-3.2v1.9h-0.6v-1.9h-3.2v-0.5h3.2v-0.6h-2.4v-0.5h2.4v-0.6h-2.8v-0.5h1.7c-0.1-0.2-0.2-0.5-0.4-0.8l0.4-0.1h-2.1
		v-0.5h1.3c-0.1-0.3-0.4-0.8-0.6-1.2l0.5-0.2c0.3,0.4,0.6,0.9,0.7,1.2l-0.4,0.2h1v-1.4h0.6v1.4h1v-1.4h0.6v1.4h1l-0.3-0.1
		c0.2-0.3,0.5-0.9,0.6-1.2l0.6,0.2c-0.2,0.4-0.5,0.8-0.7,1.2h1.2v0.5h-2.1l0.5,0.1c-0.2,0.3-0.4,0.5-0.6,0.7h1.8v0.5h-2.9v0.6h2.5
		v0.5h-2.5v0.6H162.5z M157.8,206.3c0.2,0.2,0.4,0.6,0.4,0.8l-0.3,0.1h2.2l-0.3-0.1c0.2-0.2,0.4-0.6,0.5-0.8H157.8z M160.2,210.1
		c0.8,0.2,1.8,0.6,2.3,0.9l-0.4,0.4c-0.5-0.3-1.5-0.7-2.3-0.9L160.2,210.1z"/>
	<path class="st1" d="M159.3,218.2c-0.2,0.8-0.4,1.4-0.8,1.9c0.6,0.5,1.3,0.6,2.3,0.6c0.2,0,1.7,0,2.1,0c-0.1,0.1-0.2,0.4-0.2,0.5
		h-1.9c-1.1,0-1.9-0.1-2.6-0.7c-0.4,0.4-0.9,0.7-1.5,0.9c-0.1-0.1-0.2-0.3-0.3-0.4c0.5-0.2,1-0.4,1.4-0.8c-0.2-0.2-0.3-0.5-0.5-0.9
		c-0.2,0.2-0.3,0.4-0.5,0.6c-0.1-0.1-0.2-0.2-0.3-0.3c-0.1,0.7-0.3,1.3-0.6,1.9c-0.1-0.1-0.3-0.3-0.5-0.4c0.6-1,0.7-2.5,0.7-3.5v-2
		h2.6V214h0.6v0.5h2.7v0.4h-2.7v0.5h2.8l0.1,0l0.4,0.1c-0.2,0.5-0.4,1-0.6,1.3l-0.5-0.2c0.1-0.2,0.2-0.5,0.3-0.8h-2.6v0.5l2-0.1
		l0,0.4l-2.1,0.1v0.2c0,0.2,0,0.3,0.3,0.3h1.9c0.2,0,0.7,0,0.8,0c0,0.2,0,0.3,0,0.4c-0.1,0-0.5,0-0.8,0h-2c-0.7,0-0.8-0.2-0.8-0.7
		v-0.1l-1.6,0.1l0-0.4l1.6-0.1v-0.5h-2v1.5c0,0.6,0,1.3-0.1,2c0.5-0.4,1-1.1,1.2-1.9l0.5,0.1c-0.1,0.2-0.1,0.4-0.2,0.5h0.9l0.1,0
		L159.3,218.2z M157.7,218.6c0,0.1-0.1,0.1-0.1,0.2c0.1,0.4,0.3,0.7,0.5,1c0.2-0.3,0.4-0.7,0.6-1.1H157.7z M161.6,220.2
		c-0.4,0-0.5-0.1-0.5-0.5v-1.1h-0.8v0.2c0,0.5-0.1,1.2-0.8,1.6c-0.1-0.1-0.3-0.3-0.4-0.3c0.5-0.4,0.6-0.9,0.6-1.3v-0.6h1.8v1.6
		c0,0.2,0,0.2,0.1,0.2h0.3c0.1,0,0.1-0.1,0.1-0.5c0.1,0.1,0.2,0.1,0.4,0.1c0,0.5-0.2,0.7-0.4,0.7H161.6z"/>
</g>
<g>
	<path class="st1" d="M179.6,157.6v1.9c0,1.2-0.1,3-0.7,4.1c-0.1-0.1-0.3-0.3-0.5-0.3c0.5-1.1,0.6-2.7,0.6-3.8v-2.5h3.2
		c-0.1-0.2-0.2-0.5-0.4-0.6l0.5-0.2c0.2,0.2,0.4,0.6,0.5,0.8l-0.2,0.1h3v0.5H179.6z M180.4,159.3c-0.1-0.3-0.3-0.7-0.6-1.1l0.4-0.2
		c0.3,0.3,0.5,0.8,0.6,1L180.4,159.3z M185.4,159.5c-0.1,0.9-0.4,1.8-0.8,2.5c0.3,0.5,0.7,1,1.2,1.2c-0.1,0.1-0.3,0.3-0.4,0.4
		c-0.5-0.3-0.9-0.7-1.2-1.2c-0.3,0.5-0.8,0.9-1.3,1.2c-0.1-0.1-0.2-0.2-0.3-0.3c0,0-0.1,0.1-0.1,0.1c-0.2,0.1-0.5,0.1-1,0.1
		c0-0.1-0.1-0.3-0.2-0.4c0.4,0,0.7,0,0.8,0c0.1,0,0.1,0,0.1-0.1v-3h-2.1v3.6h-0.4v-4.1h1.2v-1.7h0.5v1.7h1.3v0.7
		c0.4-0.6,0.6-1.5,0.8-2.4l0.5,0.1c-0.1,0.4-0.2,0.7-0.3,1.1h1.8v0.5H185.4z M181.1,162.4v0.3h-0.3v-2.1h1.3v1.8H181.1z M181.1,161
		v1h0.7v-1H181.1z M181.8,159.2c0.2-0.3,0.5-0.8,0.6-1.1l0.5,0.2c-0.2,0.4-0.5,0.8-0.7,1.1L181.8,159.2z M182.9,163
		c0,0.1,0,0.2,0,0.3c0.5-0.3,0.9-0.8,1.2-1.3c-0.3-0.5-0.4-1.1-0.6-1.8c-0.1,0.2-0.2,0.4-0.4,0.6c0,0-0.1-0.1-0.2-0.2V163z
		 M183.8,159.5c0.1,0.7,0.3,1.4,0.6,2c0.3-0.6,0.4-1.3,0.5-2H183.8z"/>
	<path class="st1" d="M180.8,170.6c0.2-0.3,0.3-0.8,0.4-1.3h-0.8v3.3c0,0.3-0.1,0.5-0.3,0.6c-0.2,0.1-0.5,0.1-1,0.1
		c0-0.1-0.1-0.4-0.2-0.5c0.3,0,0.7,0,0.8,0c0.1,0,0.1,0,0.1-0.1V170c-0.3,0.8-0.7,1.5-1.2,2c-0.1-0.2-0.2-0.4-0.3-0.6
		c0.5-0.5,1-1.3,1.3-2.1h-1.2v-0.5h2.1c-0.4-0.4-1.2-0.8-1.8-1.1l0.4-0.4c0.2,0.1,0.5,0.2,0.8,0.4c0.3-0.2,0.6-0.5,0.8-0.8h-2.3
		v-0.5h2.7l0.1,0l0.4,0.2c-0.3,0.5-0.8,1-1.3,1.4c0.3,0.2,0.5,0.3,0.7,0.5l-0.3,0.3h0.6l0.1,0l0.4,0.1c0,0.1-0.1,0.3-0.1,0.4
		c0.5-0.2,1-0.4,1.4-0.6c-0.3-0.3-0.6-0.6-0.8-1c-0.2,0.2-0.4,0.4-0.6,0.6c-0.1-0.1-0.3-0.3-0.5-0.3c0.6-0.5,1.2-1.2,1.5-2l0.6,0.2
		c-0.1,0.2-0.2,0.5-0.4,0.7h2.7v0.5h-0.6c-0.2,0.5-0.6,1-1,1.4c0.5,0.3,1.1,0.6,1.7,0.7c-0.1,0.1-0.3,0.4-0.4,0.5
		c-0.7-0.2-1.3-0.5-1.8-0.8c-0.5,0.4-1.1,0.6-1.7,0.8c0-0.1-0.1-0.2-0.2-0.3c-0.1,0.5-0.3,0.9-0.5,1.2L180.8,170.6z M185.5,170.4
		c0,0,0,0.2,0,0.3c-0.1,1.5-0.3,2.1-0.5,2.3c-0.1,0.1-0.3,0.2-0.5,0.2c-0.2,0-0.5,0-0.9,0c0-0.2-0.1-0.4-0.2-0.6c0.3,0,0.7,0,0.8,0
		s0.2,0,0.3-0.1c0.2-0.2,0.3-0.6,0.4-1.7h-1.3c-0.3,1-0.8,1.8-2.1,2.3c-0.1-0.1-0.2-0.4-0.4-0.5c1.1-0.4,1.6-1.1,1.9-1.9h-1.2v-0.5
		h1.4c0-0.3,0.1-0.5,0.1-0.8h0.6c0,0.3-0.1,0.5-0.1,0.8H185.5z M182.8,167.3c0.2,0.4,0.5,0.7,0.9,1c0.3-0.3,0.6-0.6,0.8-1H182.8z"/>
	<path class="st1" d="M180.9,175.8c-0.2,0.6-0.5,1.2-0.8,1.7v5.4h-0.6v-4.5c-0.2,0.4-0.5,0.7-0.8,1c-0.1-0.1-0.2-0.4-0.3-0.6
		c0.8-0.8,1.5-2,2-3.2L180.9,175.8z M182.6,181c-0.4,0.7-1,1.4-1.5,1.8c-0.1-0.1-0.3-0.3-0.5-0.4c0.5-0.4,1.1-1,1.4-1.7L182.6,181z
		 M185.8,179.8v0.6h-5.2v-0.6h1.2v-2h-1v-0.6h1v-1.6h0.6v1.6h1.6v-1.6h0.6v1.6h1.1v0.6h-1.1v2H185.8z M182.4,179.8h1.6v-2h-1.6
		V179.8z M184.3,180.9c0.6,0.5,1.1,1.2,1.4,1.7l-0.5,0.3c-0.3-0.5-0.9-1.2-1.4-1.8L184.3,180.9z"/>
	<path class="st1" d="M185.7,185.8v0.5h-6.1v1.9v0c0.6-0.5,1.1-1.2,1.4-1.9l0.5,0.1c-0.2,0.3-0.3,0.6-0.5,0.9v2.8h-0.5v-2.1
		c-0.2,0.2-0.4,0.4-0.6,0.6c-0.1-0.1-0.2-0.2-0.3-0.3c0,1.2-0.1,2.9-0.7,4.1c-0.1-0.1-0.3-0.3-0.4-0.4c0.6-1.2,0.6-2.8,0.6-3.9v-2.4
		h3.2c-0.1-0.2-0.2-0.4-0.4-0.6l0.5-0.2c0.2,0.2,0.4,0.5,0.5,0.8H185.7z M179.6,192c0.4-0.3,0.7-0.9,0.9-1.4l0.5,0.2
		c-0.2,0.6-0.5,1.2-0.9,1.5L179.6,192z M181.8,188c-0.1,0.2-0.3,0.3-0.4,0.5c-0.1-0.1-0.3-0.2-0.4-0.3c0.5-0.5,1-1.2,1.3-1.8
		l0.5,0.1c-0.1,0.2-0.2,0.4-0.3,0.6h1.2c-0.1-0.2-0.3-0.4-0.4-0.6l0.4-0.2c0.2,0.2,0.4,0.5,0.5,0.7l-0.2,0.1h1.5v0.4h-1.4v0.4h1.2
		v0.3h-1.2v0.4h1.2v0.4h-1.2v0.5h1.5v0.4h-3.2v0.2h-0.5V188z M183.6,191.9c0.3,0,0.3-0.1,0.3-0.7c0.1,0.1,0.3,0.2,0.5,0.2
		c-0.1,0.8-0.2,1-0.8,1h-1.3c-0.7,0-0.9-0.1-0.9-0.7v-1.1h0.5v1.1c0,0.2,0.1,0.2,0.4,0.2H183.6z M183.4,191.2
		c-0.3-0.2-0.8-0.6-1.3-0.8l0.3-0.3c0.5,0.2,1,0.5,1.3,0.8L183.4,191.2z M183.6,187.5h-1.2v0.4h1.2V187.5z M183.6,188.2h-1.2v0.4
		h1.2V188.2z M183.6,189h-1.2v0.5h1.2V189z M184.6,190.5c0.4,0.5,0.9,1.1,1.2,1.5l-0.5,0.2c-0.2-0.4-0.7-1.1-1.1-1.6L184.6,190.5z"
		/>
	<path class="st1" d="M185.8,199.8h-0.8v1.4h-0.6v-0.4h-1.9v0.6c0,0.4-0.1,0.5-0.4,0.6c-0.2,0.1-0.7,0.1-1.3,0.1
		c0-0.2-0.1-0.4-0.2-0.5c0.5,0,1,0,1.1,0c0.2,0,0.2-0.1,0.2-0.2v-0.6h-2.6v-0.5h2.6v-0.6h-3.3v-0.5h3.3v-0.6h-2.5v-0.4h2.5v-0.6
		h-2.3v-1.4h2.3v-0.5h-3.1v-0.5h3.1v-0.6h0.6v0.6h3.2v0.5h-3.2v0.5h2.4v1.4h-2.4v0.6h2.5v1h0.8V199.8z M181.8,197.4v-0.6h-1.7v0.6
		H181.8z M182.4,196.8v0.6h1.8v-0.6H182.4z M182.4,199.3h1.9v-0.6h-1.9V199.3z M184.3,199.8h-1.9v0.6h1.9V199.8z"/>
	<path class="st1" d="M181.5,210.4c-0.6,0.4-1.6,0.8-2.5,1c-0.1-0.1-0.2-0.3-0.4-0.4c0.8-0.1,1.8-0.4,2.4-0.8L181.5,210.4z
		 M185.6,209.3v0.5h-3.2v1.9h-0.6v-1.9h-3.2v-0.5h3.2v-0.6h-2.4v-0.5h2.4v-0.6H179v-0.5h1.7c-0.1-0.2-0.2-0.5-0.4-0.8l0.4-0.1h-2.1
		v-0.5h1.3c-0.1-0.3-0.4-0.8-0.6-1.2l0.5-0.2c0.3,0.4,0.6,0.9,0.7,1.2l-0.4,0.2h1v-1.4h0.6v1.4h1v-1.4h0.6v1.4h1l-0.3-0.1
		c0.2-0.3,0.5-0.9,0.6-1.2l0.6,0.2c-0.2,0.4-0.5,0.8-0.7,1.2h1.2v0.5h-2.1l0.5,0.1c-0.2,0.3-0.4,0.5-0.6,0.7h1.8v0.5h-2.9v0.6h2.5
		v0.5h-2.5v0.6H185.6z M180.9,206.3c0.2,0.2,0.4,0.6,0.4,0.8l-0.3,0.1h2.2l-0.3-0.1c0.2-0.2,0.4-0.6,0.5-0.8H180.9z M183.3,210.1
		c0.8,0.2,1.8,0.6,2.3,0.9l-0.4,0.4c-0.5-0.3-1.5-0.7-2.3-0.9L183.3,210.1z"/>
	<path class="st1" d="M182.3,218.2c-0.2,0.8-0.4,1.4-0.8,1.9c0.6,0.5,1.3,0.6,2.3,0.6c0.2,0,1.7,0,2.1,0c-0.1,0.1-0.2,0.4-0.2,0.5
		h-1.9c-1.1,0-1.9-0.1-2.6-0.7c-0.4,0.4-0.9,0.7-1.5,0.9c-0.1-0.1-0.2-0.3-0.3-0.4c0.5-0.2,1-0.4,1.4-0.8c-0.2-0.2-0.3-0.5-0.5-0.9
		c-0.2,0.2-0.3,0.4-0.5,0.6c-0.1-0.1-0.2-0.2-0.3-0.3c-0.1,0.7-0.3,1.3-0.6,1.9c-0.1-0.1-0.3-0.3-0.5-0.4c0.6-1,0.7-2.5,0.7-3.5v-2
		h2.6V214h0.6v0.5h2.7v0.4h-2.7v0.5h2.8l0.1,0l0.4,0.1c-0.2,0.5-0.4,1-0.6,1.3l-0.5-0.2c0.1-0.2,0.2-0.5,0.3-0.8h-2.6v0.5l2-0.1
		l0,0.4l-2.1,0.1v0.2c0,0.2,0,0.3,0.3,0.3h1.9c0.2,0,0.7,0,0.8,0c0,0.2,0,0.3,0,0.4c-0.1,0-0.5,0-0.8,0h-2c-0.7,0-0.8-0.2-0.8-0.7
		v-0.1l-1.6,0.1l0-0.4l1.6-0.1v-0.5h-2v1.5c0,0.6,0,1.3-0.1,2c0.5-0.4,1-1.1,1.2-1.9l0.5,0.1c-0.1,0.2-0.1,0.4-0.2,0.5h0.9l0.1,0
		L182.3,218.2z M180.8,218.6c0,0.1-0.1,0.1-0.1,0.2c0.1,0.4,0.3,0.7,0.5,1c0.2-0.3,0.4-0.7,0.6-1.1H180.8z M184.6,220.2
		c-0.4,0-0.5-0.1-0.5-0.5v-1.1h-0.8v0.2c0,0.5-0.1,1.2-0.8,1.6c-0.1-0.1-0.3-0.3-0.4-0.3c0.5-0.4,0.6-0.9,0.6-1.3v-0.6h1.8v1.6
		c0,0.2,0,0.2,0.1,0.2h0.3c0.1,0,0.1-0.1,0.1-0.5c0.1,0.1,0.2,0.1,0.4,0.1c0,0.5-0.2,0.7-0.4,0.7H184.6z"/>
</g>
<g>
	<path class="st1" d="M205.8,160.6v0.4h1.9v2.7h-0.6v-0.3h-4.6v0.3H202V161h2v-0.4h-2.8v-0.4h7.3v0.4H205.8z M201.7,157h-0.2v-0.4
		h3.5v0.4h-2.8v2.2c0,0.3,0.1,0.4,0.4,0.4h1.7c0.2,0,0.6,0,0.7,0c0,0.1,0,0.3,0.1,0.4c-0.1,0-0.4,0-0.7,0h-1.7
		c-0.6,0-0.8-0.2-0.8-0.8V157z M203.7,158.5L203.7,158.5c0.4,0.2,0.8,0.5,1,0.7l-0.3,0.3c-0.2-0.2-0.6-0.4-0.9-0.6
		c-0.2,0.2-0.4,0.5-1,0.7c-0.1-0.1-0.2-0.2-0.3-0.3c0.6-0.2,0.8-0.5,0.9-0.7h-1v-0.3h1.1v-0.1v-0.4h-0.5c-0.1,0.1-0.2,0.3-0.3,0.4
		c-0.1-0.1-0.2-0.2-0.3-0.2c0.3-0.2,0.5-0.6,0.6-0.9l0.4,0.1c0,0.1-0.1,0.2-0.1,0.3h1.6v0.3h-0.9v0.4v0h1v0.3H203.7z M207.2,163
		v-0.9h-0.1h-1c-0.6,0-0.7-0.1-0.7-0.5v-0.2h-0.9c-0.1,0.4-0.5,0.7-1.6,0.9c-0.1-0.1-0.2-0.3-0.3-0.4c0.9-0.1,1.3-0.3,1.4-0.5h-1.4
		v1.6H207.2z M203.3,162.3h3.3v0.3h-3.3V162.3z M205.3,160.6h-0.8v0.4h0.8V160.6z M205.2,158.2c-0.1-0.1-0.2-0.3-0.3-0.4
		c0.6-0.2,0.7-0.5,0.7-0.8v-0.4h1.9v0.7c0,0.2,0,0.2,0.1,0.2h0.4c0.1,0,0.2,0,0.3,0c0,0.1,0,0.3,0,0.4c-0.1,0-0.2,0-0.4,0h-0.4
		c-0.4,0-0.5-0.2-0.5-0.6V157H206c0,0.4-0.2,0.8-0.7,1.1h2.2l0.1,0l0.3,0.1c-0.2,0.4-0.5,0.8-0.8,1.1c0.4,0.2,0.7,0.4,1,0.5
		l-0.2,0.4c-0.3-0.2-0.7-0.4-1.1-0.6c-0.4,0.3-0.9,0.5-1.4,0.6c-0.1-0.1-0.2-0.3-0.3-0.4c0.4-0.1,0.8-0.2,1.2-0.4
		c-0.3-0.2-0.7-0.3-1-0.4l0.2-0.3c0.4,0.1,0.8,0.3,1.2,0.5c0.2-0.2,0.4-0.4,0.6-0.6h-2L205.2,158.2L205.2,158.2z M205.8,161.3v0.2
		c0,0.2,0,0.2,0.3,0.2h0.9c0.1,0,0.1,0,0.2,0v-0.4H205.8z"/>
	<path class="st1" d="M204.2,170.5c-0.2-0.3-0.6-0.8-0.9-1.3v4.1h-0.6v-3.8c-0.3,0.9-0.8,1.8-1.3,2.4c-0.1-0.2-0.2-0.4-0.3-0.6
		c0.6-0.7,1.2-1.9,1.5-3h-1.2v-0.6h1.3V166h0.6v1.7h1.1v0.6h-1.1v0.2c0.3,0.3,1.1,1.3,1.3,1.5L204.2,170.5z M208.5,168.3h-0.8v4.2
		c0,0.4-0.1,0.6-0.4,0.7c-0.3,0.1-0.7,0.1-1.4,0.1c0-0.2-0.1-0.4-0.2-0.6c0.5,0,1,0,1.2,0c0.1,0,0.2,0,0.2-0.2v-3.4
		c-0.6,1.2-1.5,2.3-2.4,2.9c-0.1-0.2-0.3-0.4-0.4-0.5c1-0.7,2-2,2.6-3.3h-2.2v-0.6h2.4V166h0.6v1.7h0.8V168.3z"/>
	<path class="st1" d="M202.2,178.6v4.3h-0.6v-7h2.9v2.7H202.2z M202.2,176.4v0.6h1.8v-0.6H202.2z M203.9,178.1v-0.7h-1.8v0.7H203.9z
		 M205.9,180.9v1.8h-0.5v-1.8h-1.1c0,0.5-0.3,1.4-1.1,1.9c-0.1-0.1-0.3-0.3-0.4-0.4c0.7-0.4,0.9-1.1,0.9-1.5h-1v-0.5h1v-0.9h-0.9
		v-0.5h3.9v0.5h-0.9v0.9h1.1v0.5H205.9z M205.4,180.4v-0.9h-1.1v0.9H205.4z M208.1,182.1c0,0.4-0.1,0.5-0.3,0.6
		c-0.2,0.1-0.6,0.1-1.2,0.1c0-0.2-0.1-0.4-0.2-0.6c0.4,0,0.9,0,1,0c0.1,0,0.2,0,0.2-0.2v-3.5h-2.4v-2.7h3V182.1z M205.7,176.4v0.6
		h1.8v-0.6H205.7z M207.6,178.1v-0.7h-1.8v0.7H207.6z"/>
	<path class="st1" d="M204.2,190.2c0,0,0,0.2,0,0.2c-0.1,1.1-0.2,1.6-0.4,1.8c-0.1,0.1-0.3,0.2-0.5,0.2c-0.2,0-0.6,0-1.1,0
		c0-0.2-0.1-0.4-0.2-0.5c0.4,0,0.9,0,1,0c0.1,0,0.2,0,0.3-0.1c0.1-0.1,0.2-0.4,0.3-1.2h-1.8c0.1-0.5,0.2-1.2,0.3-1.8h1.6v-0.8h-1.3
		V188c-0.3,0.2-0.6,0.3-0.9,0.4c-0.1-0.1-0.2-0.3-0.3-0.4c0.5-0.2,1.1-0.4,1.6-0.8c-0.2-0.2-0.6-0.5-0.9-0.7l0.3-0.3
		c0.3,0.2,0.7,0.5,1,0.7c0.3-0.3,0.6-0.5,0.8-0.8H202v-0.5h2.2l0.1,0l0.4,0.2c-0.4,0.8-1,1.4-1.7,1.9h1.2v1.8h-1.7
		c0,0.3-0.1,0.6-0.1,0.8H204.2z M207.7,190c-0.2,0.6-0.6,1.1-1,1.4c0.4,0.3,0.8,0.5,1.1,0.7l-0.3,0.4c-0.3-0.2-0.7-0.5-1.2-0.8
		c-0.5,0.4-1.2,0.6-1.8,0.8c-0.1-0.1-0.2-0.3-0.3-0.4c0.6-0.1,1.2-0.3,1.6-0.6c-0.4-0.3-0.9-0.5-1.3-0.7l0.3-0.3
		c0.4,0.2,0.9,0.5,1.4,0.8c0.3-0.2,0.6-0.5,0.8-0.9h-2.4v-0.4h2.7l0.1,0L207.7,190z M208.3,186.3c-0.3,0.3-0.8,0.6-1.1,0.9
		c0.4,0.2,0.9,0.4,1.4,0.6c-0.1,0.1-0.3,0.3-0.4,0.5c-0.4-0.1-0.8-0.3-1.1-0.5v1.1c0,0.2,0,0.2,0.1,0.2h0.6c0.1,0,0.3,0,0.4,0
		c0,0.1,0,0.3,0,0.4c-0.1,0-0.2,0-0.4,0h-0.7c-0.5,0-0.6-0.2-0.6-0.7V188h-1.1v0.2c0,0.5-0.2,1.1-0.9,1.5c-0.1-0.1-0.3-0.3-0.4-0.4
		c0.6-0.3,0.7-0.8,0.7-1.2v-0.6h1.8c-0.8-0.6-1.5-1.3-1.9-2.2l0.5-0.1c0.2,0.3,0.4,0.7,0.6,1c0.3-0.3,0.8-0.7,1-0.9l0.4,0.3
		c-0.3,0.3-0.8,0.7-1.2,0.9c0.2,0.2,0.4,0.3,0.6,0.5c0.4-0.3,0.8-0.6,1.1-0.9L208.3,186.3z"/>
	<path class="st1" d="M208,200c-0.4,0.3-1,0.6-1.4,0.8c0.5,0.3,1.2,0.6,1.9,0.7c-0.1,0.1-0.3,0.3-0.3,0.5c-1.6-0.3-2.7-1.1-3.3-2.3
		c-0.4,0.3-0.9,0.6-1.4,0.8v0.9l1.8-0.4c0,0.1,0,0.4,0,0.5c-2.1,0.5-2.4,0.6-2.5,0.7v0c0-0.1-0.1-0.3-0.2-0.4
		c0.1-0.1,0.3-0.2,0.3-0.6v-0.4c-0.5,0.2-0.9,0.3-1.4,0.4c-0.1-0.1-0.2-0.3-0.3-0.4c1-0.2,2.1-0.6,2.9-1h-2.8v-0.5h3.4
		c-0.1-0.2-0.2-0.3-0.2-0.5l0.6-0.2c0.1,0.2,0.2,0.4,0.3,0.6h3v0.5h-3c0.2,0.3,0.4,0.6,0.7,0.9c0.5-0.2,1.1-0.6,1.4-0.8L208,200z
		 M203.1,196.7h-1.8v-0.4h1.8v-0.5h-1c-0.1,0.2-0.2,0.3-0.3,0.5c-0.1-0.1-0.3-0.2-0.4-0.2c0.3-0.3,0.5-0.8,0.6-1.2l0.5,0.1
		c0,0.1-0.1,0.3-0.2,0.4h0.8v-0.6h0.5v0.6h1.4v0.4h-1.4v0.5h1.7v0.4h-1.7v0.4h1.5v1c0,0.2,0,0.3-0.2,0.4c-0.2,0.1-0.4,0.1-0.8,0.1
		c0-0.1-0.1-0.3-0.2-0.4c0.3,0,0.5,0,0.5,0c0.1,0,0.1,0,0.1-0.1v-0.6h-1v1.3h-0.5v-1.3h-0.9v1.1h-0.5v-1.5h1.4V196.7z M206.4,197.8
		h-0.5v-2.6h0.5V197.8z M208,198.1c0,0.3-0.1,0.4-0.3,0.5c-0.2,0.1-0.6,0.1-1.2,0.1c0-0.2-0.1-0.3-0.2-0.5c0.4,0,0.8,0,0.9,0
		c0.1,0,0.2,0,0.2-0.1v-3.3h0.5V198.1z"/>
	<path class="st1" d="M203.4,208.2c-0.2,0.7-0.5,1.5-0.8,2.1c0.1,0.1,0.3,0.2,0.6,0.4c0.6,0.3,1.3,0.4,2.2,0.4c1,0,2.3-0.1,3.2-0.2
		c-0.1,0.2-0.2,0.4-0.2,0.6c-0.6,0-2.1,0.1-3,0.1c-1,0-1.7-0.1-2.3-0.4c-0.3-0.2-0.6-0.5-0.8-0.5c-0.2,0-0.4,0.5-0.7,1l-0.4-0.5
		c0.3-0.5,0.7-0.8,0.9-0.9c0.2-0.4,0.5-1.1,0.6-1.6h-1.1c0.2-0.5,0.5-1.1,0.7-1.8h-1.1v-0.5h1.8c-0.2,0.6-0.5,1.2-0.7,1.8h0.7l0.1,0
		L203.4,208.2z M202.2,205.9c-0.1-0.3-0.3-0.9-0.4-1.3l0.5-0.2c0.1,0.4,0.3,0.9,0.4,1.3L202.2,205.9z M204.4,205.9
		c-0.2,0.3-0.4,0.6-0.6,0.8c-0.1-0.1-0.4-0.2-0.5-0.3c0.5-0.5,0.9-1.2,1.2-2l0.6,0.1c-0.1,0.3-0.2,0.5-0.3,0.8h0.9v-1h0.6v1h1.9v0.5
		h-1.9v1h2.2v0.5h-5.1v-0.5h2.3v-1H204.4z M207.2,210.5v-0.3h-2.7v0.3H204V208h3.8v2.4H207.2z M207.2,209.7v-1.2h-2.7v1.2H207.2z"/>
	<path class="st1" d="M208.4,219h-0.8v1.4H207v-0.4h-1.9v0.6c0,0.4-0.1,0.5-0.4,0.6c-0.2,0.1-0.7,0.1-1.3,0.1c0-0.2-0.1-0.4-0.2-0.5
		c0.5,0,1,0,1.1,0c0.2,0,0.2-0.1,0.2-0.2v-0.6h-2.6v-0.5h2.6V219h-3.3v-0.5h3.3V218H202v-0.4h2.5V217h-2.3v-1.4h2.3v-0.5h-3.1v-0.5
		h3.1V214h0.6v0.6h3.2v0.5h-3.2v0.5h2.4v1.4h-2.4v0.6h2.5v1h0.8V219z M204.5,216.6V216h-1.7v0.6H204.5z M205.1,216v0.6h1.8V216
		H205.1z M205.1,218.5h1.9V218h-1.9V218.5z M207,219h-1.9v0.6h1.9V219z"/>
	<path class="st1" d="M204.2,229.6c-0.6,0.4-1.6,0.8-2.5,1c-0.1-0.1-0.2-0.3-0.4-0.4c0.8-0.1,1.8-0.4,2.4-0.8L204.2,229.6z
		 M208.3,228.5v0.5h-3.2v1.9h-0.6V229h-3.2v-0.5h3.2v-0.6h-2.4v-0.5h2.4v-0.6h-2.8v-0.5h1.7c-0.1-0.2-0.2-0.5-0.4-0.8l0.4-0.1h-2.1
		V225h1.3c-0.1-0.3-0.4-0.8-0.6-1.2l0.5-0.2c0.3,0.4,0.6,0.9,0.7,1.2l-0.4,0.2h1v-1.4h0.6v1.4h1v-1.4h0.6v1.4h1l-0.3-0.1
		c0.2-0.3,0.5-0.9,0.6-1.2l0.6,0.2c-0.2,0.4-0.5,0.8-0.7,1.2h1.2v0.5h-2.1l0.5,0.1c-0.2,0.3-0.4,0.5-0.6,0.7h1.8v0.5h-2.9v0.6h2.5
		v0.5h-2.5v0.6H208.3z M203.6,225.5c0.2,0.2,0.4,0.6,0.4,0.8l-0.3,0.1h2.2l-0.3-0.1c0.2-0.2,0.4-0.6,0.5-0.8H203.6z M206,229.3
		c0.8,0.2,1.8,0.6,2.3,0.9l-0.4,0.4c-0.5-0.3-1.5-0.7-2.3-0.9L206,229.3z"/>
	<path class="st1" d="M205,237.4c-0.2,0.8-0.4,1.4-0.8,1.9c0.6,0.5,1.3,0.6,2.3,0.6c0.2,0,1.7,0,2.1,0c-0.1,0.1-0.2,0.4-0.2,0.5
		h-1.9c-1.1,0-1.9-0.1-2.6-0.7c-0.4,0.4-0.9,0.7-1.5,0.9c-0.1-0.1-0.2-0.3-0.3-0.4c0.5-0.2,1-0.4,1.4-0.8c-0.2-0.2-0.3-0.5-0.5-0.9
		c-0.2,0.2-0.3,0.4-0.5,0.6c-0.1-0.1-0.2-0.2-0.3-0.3c-0.1,0.7-0.3,1.3-0.6,1.9c-0.1-0.1-0.3-0.3-0.5-0.4c0.6-1,0.7-2.5,0.7-3.5v-2
		h2.6v-1.5h0.6v0.5h2.7v0.4H205v0.5h2.8l0.1,0l0.4,0.1c-0.2,0.5-0.4,1-0.6,1.3l-0.5-0.2c0.1-0.2,0.2-0.5,0.3-0.8H205v0.5l2-0.1
		l0,0.4L205,236v0.2c0,0.2,0,0.3,0.3,0.3h1.9c0.2,0,0.7,0,0.8,0c0,0.2,0,0.3,0,0.4c-0.1,0-0.5,0-0.8,0h-2c-0.7,0-0.8-0.2-0.8-0.7
		V236l-1.6,0.1l0-0.4l1.6-0.1v-0.5h-2v1.5c0,0.6,0,1.3-0.1,2c0.5-0.4,1-1.1,1.2-1.9l0.5,0.1c-0.1,0.2-0.1,0.4-0.2,0.5h0.9l0.1,0
		L205,237.4z M203.5,237.8c0,0.1-0.1,0.1-0.1,0.2c0.1,0.4,0.3,0.7,0.5,1c0.2-0.3,0.4-0.7,0.6-1.1H203.5z M207.3,239.4
		c-0.4,0-0.5-0.1-0.5-0.5v-1.1H206v0.2c0,0.5-0.1,1.2-0.8,1.6c-0.1-0.1-0.3-0.3-0.4-0.3c0.5-0.4,0.6-0.9,0.6-1.3v-0.6h1.8v1.6
		c0,0.2,0,0.2,0.1,0.2h0.3c0.1,0,0.1-0.1,0.1-0.5c0.1,0.1,0.2,0.1,0.4,0.1c0,0.5-0.2,0.7-0.4,0.7H207.3z"/>
</g>
<g>
	<path class="st1" d="M231.1,162.5v0.6H224v-0.6h3.2v-4.6h-2.8v-0.6h6.3v0.6h-2.9v4.6H231.1z"/>
	<path class="st1" d="M226.3,170.8c-0.1-0.2-0.4-0.7-0.6-1.1v3.6h-0.6v-3.6c-0.3,0.8-0.7,1.7-1.1,2.2c-0.1-0.2-0.2-0.4-0.3-0.6
		c0.4-0.6,0.9-1.6,1.2-2.5h-1.1v-0.6h1.2V167c-0.3,0.1-0.6,0.1-1,0.2c0-0.1-0.1-0.3-0.2-0.5c0.8-0.1,1.7-0.4,2.2-0.6l0.4,0.5
		c-0.3,0.1-0.6,0.2-0.9,0.3v1.4h1v0.6h-1v0.2c0.2,0.2,0.8,1.1,1,1.3L226.3,170.8z M231.2,172.5v0.5h-4.6v-0.5h2v-1.1H227V171h1.6v-1
		c-0.5,0-0.9,0.1-1.4,0.1c0-0.1-0.1-0.3-0.2-0.5c1.1-0.1,2.4-0.2,3.2-0.5l0.4,0.4c-0.4,0.1-0.9,0.2-1.5,0.3v1h1.6v0.5h-1.6v1.1
		H231.2z M230.7,168.9h-3.6v-2.5h3.6V168.9z M230.1,166.9h-2.5v1.5h2.5V166.9z"/>
	<path class="st1" d="M231.2,178.8v0.6h-7.3v-0.6H231.2z"/>
	<path class="st1" d="M227.7,189.4c-0.2,0.8-0.4,1.4-0.8,1.9c0.6,0.5,1.3,0.6,2.3,0.6c0.2,0,1.7,0,2.1,0c-0.1,0.1-0.2,0.4-0.2,0.5
		h-1.9c-1.1,0-1.9-0.1-2.6-0.7c-0.4,0.4-0.9,0.7-1.5,0.9c-0.1-0.1-0.2-0.3-0.3-0.4c0.5-0.2,1-0.4,1.4-0.8c-0.2-0.2-0.3-0.5-0.5-0.9
		c-0.2,0.2-0.3,0.4-0.5,0.6c-0.1-0.1-0.2-0.2-0.3-0.3c-0.1,0.7-0.3,1.3-0.6,1.9c-0.1-0.1-0.3-0.3-0.5-0.4c0.6-1,0.7-2.5,0.7-3.5v-2
		h2.6v-1.5h0.6v0.5h2.7v0.4h-2.7v0.5h2.8l0.1,0l0.4,0.1c-0.2,0.5-0.4,1-0.6,1.3l-0.5-0.2c0.1-0.2,0.2-0.5,0.3-0.8h-2.6v0.5l2-0.1
		l0,0.4l-2.1,0.1v0.2c0,0.2,0,0.3,0.3,0.3h1.9c0.2,0,0.7,0,0.8,0c0,0.2,0,0.3,0,0.4c-0.1,0-0.5,0-0.8,0h-2c-0.7,0-0.8-0.2-0.8-0.7
		V188l-1.6,0.1l0-0.4l1.6-0.1v-0.5h-2v1.5c0,0.6,0,1.3-0.1,2c0.5-0.4,1-1.1,1.2-1.9l0.5,0.1c-0.1,0.2-0.1,0.4-0.2,0.5h0.9l0.1,0
		L227.7,189.4z M226.2,189.8c0,0.1-0.1,0.1-0.1,0.2c0.1,0.4,0.3,0.7,0.5,1c0.2-0.3,0.4-0.7,0.6-1.1H226.2z M230,191.4
		c-0.4,0-0.5-0.1-0.5-0.5v-1.1h-0.8v0.2c0,0.5-0.1,1.2-0.8,1.6c-0.1-0.1-0.3-0.3-0.4-0.3c0.5-0.4,0.6-0.9,0.6-1.3v-0.6h1.8v1.6
		c0,0.2,0,0.2,0.1,0.2h0.3c0.1,0,0.1-0.1,0.1-0.5c0.1,0.1,0.2,0.1,0.4,0.1c0,0.5-0.2,0.7-0.4,0.7H230z"/>
</g>
<g>
	<path class="st1" d="M253.8,162.5v0.6h-7.1v-0.6h3.2v-4.6h-2.8v-0.6h6.3v0.6h-2.9v4.6H253.8z"/>
	<path class="st1" d="M249,170.8c-0.1-0.2-0.4-0.7-0.6-1.1v3.6h-0.6v-3.6c-0.3,0.8-0.7,1.7-1.1,2.2c-0.1-0.2-0.2-0.4-0.3-0.6
		c0.4-0.6,0.9-1.6,1.2-2.5h-1.1v-0.6h1.2V167c-0.3,0.1-0.6,0.1-1,0.2c0-0.1-0.1-0.3-0.2-0.5c0.8-0.1,1.7-0.4,2.2-0.6l0.4,0.5
		c-0.3,0.1-0.6,0.2-0.9,0.3v1.4h1v0.6h-1v0.2c0.2,0.2,0.8,1.1,1,1.3L249,170.8z M253.9,172.5v0.5h-4.6v-0.5h2v-1.1h-1.6V171h1.6v-1
		c-0.5,0-0.9,0.1-1.4,0.1c0-0.1-0.1-0.3-0.2-0.5c1.1-0.1,2.4-0.2,3.2-0.5l0.4,0.4c-0.4,0.1-0.9,0.2-1.5,0.3v1h1.6v0.5h-1.6v1.1
		H253.9z M253.4,168.9h-3.6v-2.5h3.6V168.9z M252.8,166.9h-2.5v1.5h2.5V166.9z"/>
	<path class="st1" d="M253.8,181.4v0.6h-7v-0.6H253.8z M253.1,176.7v0.6h-5.7v-0.6H253.1z"/>
	<path class="st1" d="M250.4,189.4c-0.2,0.8-0.4,1.4-0.8,1.9c0.6,0.5,1.3,0.6,2.3,0.6c0.2,0,1.7,0,2.1,0c-0.1,0.1-0.2,0.4-0.2,0.5
		h-1.9c-1.1,0-1.9-0.1-2.6-0.7c-0.4,0.4-0.9,0.7-1.5,0.9c-0.1-0.1-0.2-0.3-0.3-0.4c0.5-0.2,1-0.4,1.4-0.8c-0.2-0.2-0.3-0.5-0.5-0.9
		c-0.2,0.2-0.3,0.4-0.5,0.6c-0.1-0.1-0.2-0.2-0.3-0.3c-0.1,0.7-0.3,1.3-0.6,1.9c-0.1-0.1-0.3-0.3-0.5-0.4c0.6-1,0.7-2.5,0.7-3.5v-2
		h2.6v-1.5h0.6v0.5h2.7v0.4h-2.7v0.5h2.8l0.1,0l0.4,0.1c-0.2,0.5-0.4,1-0.6,1.3l-0.5-0.2c0.1-0.2,0.2-0.5,0.3-0.8h-2.6v0.5l2-0.1
		l0,0.4l-2.1,0.1v0.2c0,0.2,0,0.3,0.3,0.3h1.9c0.2,0,0.7,0,0.8,0c0,0.2,0,0.3,0,0.4c-0.1,0-0.5,0-0.8,0h-2c-0.7,0-0.8-0.2-0.8-0.7
		V188l-1.6,0.1l0-0.4l1.6-0.1v-0.5h-2v1.5c0,0.6,0,1.3-0.1,2c0.5-0.4,1-1.1,1.2-1.9l0.5,0.1c-0.1,0.2-0.1,0.4-0.2,0.5h0.9l0.1,0
		L250.4,189.4z M248.9,189.8c0,0.1-0.1,0.1-0.1,0.2c0.1,0.4,0.3,0.7,0.5,1c0.2-0.3,0.4-0.7,0.6-1.1H248.9z M252.7,191.4
		c-0.4,0-0.5-0.1-0.5-0.5v-1.1h-0.8v0.2c0,0.5-0.1,1.2-0.8,1.6c-0.1-0.1-0.3-0.3-0.4-0.3c0.5-0.4,0.6-0.9,0.6-1.3v-0.6h1.8v1.6
		c0,0.2,0,0.2,0.1,0.2h0.3c0.1,0,0.1-0.1,0.1-0.5c0.1,0.1,0.2,0.1,0.4,0.1c0,0.5-0.2,0.7-0.4,0.7H252.7z"/>
</g>
<g>
	<path class="st1" d="M273.1,158.2h-3v-0.5h3V158.2z M276.9,160c-0.3,1-0.8,1.7-1.4,2.3c0.5,0.4,1.2,0.6,1.9,0.8
		c-0.1,0.1-0.3,0.4-0.4,0.5c-0.8-0.2-1.4-0.5-2-1c-0.6,0.4-1.3,0.8-2,1c-0.1-0.2-0.2-0.4-0.3-0.5H271v0.4h-0.5v-2.7h2.4v2.3
		c0.6-0.2,1.2-0.4,1.8-0.8c-0.5-0.5-0.9-1.1-1.2-1.8l0.3-0.1H273v-0.6h3.4l0.1,0L276.9,160z M272.8,158.8v0.5h-2.4v-0.5H272.8z
		 M270.5,159.8h2.4v0.5h-2.4V159.8z M272.3,161.4H271v1.3h1.3V161.4z M271.6,157.6c-0.1-0.3-0.4-0.7-0.6-1.1l0.5-0.2
		c0.2,0.3,0.5,0.7,0.6,1L271.6,157.6z M274.4,157.6c0,0.7-0.2,1.6-1.2,2.1c-0.1-0.1-0.3-0.3-0.4-0.4c0.9-0.5,1-1.1,1-1.7v-0.9h2.4
		v1.9c0,0.2,0,0.3,0.1,0.3h0.5c0.1,0,0.3,0,0.4,0c0,0.2,0,0.4,0,0.5c-0.1,0-0.2,0-0.4,0h-0.5c-0.5,0-0.6-0.2-0.6-0.8v-1.3h-1.3
		V157.6z M273.9,160.4c0.3,0.6,0.6,1.1,1.1,1.5c0.5-0.4,0.9-0.9,1.1-1.5H273.9z"/>
	<path class="st1" d="M272.1,166.1c-0.2,0.5-0.4,1.1-0.6,1.6v5.5H271v-4.4c-0.2,0.3-0.4,0.7-0.6,0.9c-0.1-0.1-0.2-0.5-0.3-0.6
		c0.7-0.8,1.2-2,1.6-3.2L272.1,166.1z M273.8,168.7c-0.1,0.2-0.3,0.4-0.5,0.6h3.5v3.4c0,0.3,0,0.4-0.2,0.5c-0.2,0.1-0.4,0.1-0.8,0.1
		c0-0.1-0.1-0.3-0.2-0.5c0.2,0,0.5,0,0.5,0c0.1,0,0.1,0,0.1-0.1v-0.6h-1.2v1h-0.5v-1h-1.4c-0.1,0.4-0.2,0.9-0.5,1.2
		c-0.1-0.1-0.3-0.3-0.5-0.4c0.5-0.6,0.5-1.5,0.5-2.1V170c-0.2,0.2-0.5,0.3-0.7,0.5c-0.1-0.1-0.2-0.4-0.4-0.5
		c0.6-0.3,1.2-0.8,1.6-1.3h-1.2v-0.6h1.4v-0.8h-1.2v-0.5h1.2V166h0.6v0.8h1.3V166h0.6v0.8h1.1v0.5H276v0.8h1.3v0.6H273.8z
		 M274.5,171.6v-0.7h-1.3c0,0.2,0,0.5,0,0.7H274.5z M273.2,170.5h1.3v-0.7h-1.3V170.5z M274,168.1h1.3v-0.8H274V168.1z M276.3,169.8
		h-1.2v0.7h1.2V169.8z M276.3,171.6v-0.7h-1.2v0.7H276.3z"/>
	<path class="st1" d="M271,178.6v4.3h-0.6v-7h2.9v2.7H271z M271,176.4v0.6h1.8v-0.6H271z M272.8,178.1v-0.7H271v0.7H272.8z
		 M274.8,180.9v1.8h-0.5v-1.8h-1.1c0,0.5-0.3,1.4-1.1,1.9c-0.1-0.1-0.3-0.3-0.4-0.4c0.7-0.4,0.9-1.1,0.9-1.5h-1v-0.5h1v-0.9h-0.9
		v-0.5h3.9v0.5h-0.9v0.9h1.1v0.5H274.8z M274.2,180.4v-0.9h-1.1v0.9H274.2z M277,182.1c0,0.4-0.1,0.5-0.3,0.6
		c-0.2,0.1-0.6,0.1-1.2,0.1c0-0.2-0.1-0.4-0.2-0.6c0.4,0,0.9,0,1,0c0.1,0,0.2,0,0.2-0.2v-3.5H274v-2.7h3V182.1z M274.6,176.4v0.6
		h1.8v-0.6H274.6z M276.4,178.1v-0.7h-1.8v0.7H276.4z"/>
	<path class="st1" d="M273.1,190.2c0,0,0,0.2,0,0.2c-0.1,1.1-0.2,1.6-0.4,1.8c-0.1,0.1-0.3,0.2-0.5,0.2c-0.2,0-0.6,0-1.1,0
		c0-0.2-0.1-0.4-0.2-0.5c0.4,0,0.9,0,1,0c0.1,0,0.2,0,0.3-0.1c0.1-0.1,0.2-0.4,0.3-1.2h-1.8c0.1-0.5,0.2-1.2,0.3-1.8h1.6v-0.8h-1.3
		V188c-0.3,0.2-0.6,0.3-0.9,0.4c-0.1-0.1-0.2-0.3-0.3-0.4c0.5-0.2,1.1-0.4,1.6-0.8c-0.2-0.2-0.6-0.5-0.9-0.7l0.3-0.3
		c0.3,0.2,0.7,0.5,1,0.7c0.3-0.3,0.6-0.5,0.8-0.8h-1.9v-0.5h2.2l0.1,0l0.4,0.2c-0.4,0.8-1,1.4-1.7,1.9h1.2v1.8h-1.7
		c0,0.3-0.1,0.6-0.1,0.8H273.1z M276.6,190c-0.2,0.6-0.6,1.1-1,1.4c0.4,0.3,0.8,0.5,1.1,0.7l-0.3,0.4c-0.3-0.2-0.7-0.5-1.2-0.8
		c-0.5,0.4-1.2,0.6-1.8,0.8c-0.1-0.1-0.2-0.3-0.3-0.4c0.6-0.1,1.2-0.3,1.6-0.6c-0.4-0.3-0.9-0.5-1.3-0.7l0.3-0.3
		c0.4,0.2,0.9,0.5,1.4,0.8c0.3-0.2,0.6-0.5,0.8-0.9h-2.4v-0.4h2.7l0.1,0L276.6,190z M277.2,186.3c-0.3,0.3-0.8,0.6-1.1,0.9
		c0.4,0.2,0.9,0.4,1.4,0.6c-0.1,0.1-0.3,0.3-0.4,0.5c-0.4-0.1-0.8-0.3-1.1-0.5v1.1c0,0.2,0,0.2,0.1,0.2h0.6c0.1,0,0.3,0,0.4,0
		c0,0.1,0,0.3,0,0.4c-0.1,0-0.2,0-0.4,0H276c-0.5,0-0.6-0.2-0.6-0.7V188h-1.1v0.2c0,0.5-0.2,1.1-0.9,1.5c-0.1-0.1-0.3-0.3-0.4-0.4
		c0.6-0.3,0.7-0.8,0.7-1.2v-0.6h1.8c-0.8-0.6-1.5-1.3-1.9-2.2l0.5-0.1c0.2,0.3,0.4,0.7,0.6,1c0.3-0.3,0.8-0.7,1-0.9l0.4,0.3
		c-0.3,0.3-0.8,0.7-1.2,0.9c0.2,0.2,0.4,0.3,0.6,0.5c0.4-0.3,0.8-0.6,1.1-0.9L277.2,186.3z"/>
	<path class="st1" d="M273.8,196.4c-0.2,0.5-0.4,1-0.6,1.4h1.1v0.5h-4.2v-0.5h2.4c0.2-0.4,0.5-1.1,0.6-1.6L273.8,196.4z
		 M274.1,196.3h-3.7v-0.5h1.7c-0.1-0.3-0.2-0.6-0.3-0.8l0.5-0.2c0.2,0.3,0.3,0.7,0.4,1h1.5V196.3z M270.6,199.1h3.3v2.8h-0.6v-0.3
		h-2.2v0.4h-0.6V199.1z M271.4,197.8c-0.1-0.4-0.3-0.9-0.5-1.4l0.5-0.1c0.2,0.4,0.4,1,0.5,1.4L271.4,197.8z M271.2,199.7v1.4h2.2
		v-1.4H271.2z M277.3,195.4c-0.3,0.7-0.7,1.6-1,2.4c0.7,0.8,0.9,1.4,0.9,1.9c0,0.5-0.1,0.8-0.4,1c-0.1,0.1-0.3,0.2-0.5,0.2
		c-0.2,0-0.5,0-0.7,0c0-0.2-0.1-0.4-0.2-0.6c0.2,0,0.5,0,0.6,0c0.1,0,0.2,0,0.3-0.1c0.2-0.1,0.2-0.4,0.2-0.6c0-0.5-0.2-1.1-0.9-1.8
		c0.3-0.7,0.6-1.5,0.8-2.1h-1.3v6.3h-0.5v-6.9h2l0.1,0L277.3,195.4z"/>
</g>
<g>
	<path class="st1" d="M295.8,158.2h-3v-0.5h3V158.2z M299.6,160c-0.3,1-0.8,1.7-1.4,2.3c0.5,0.4,1.2,0.6,1.9,0.8
		c-0.1,0.1-0.3,0.4-0.4,0.5c-0.8-0.2-1.4-0.5-2-1c-0.6,0.4-1.3,0.8-2,1c-0.1-0.2-0.2-0.4-0.3-0.5h-1.8v0.4h-0.5v-2.7h2.4v2.3
		c0.6-0.2,1.2-0.4,1.8-0.8c-0.5-0.5-0.9-1.1-1.2-1.8l0.3-0.1h-0.7v-0.6h3.4l0.1,0L299.6,160z M295.5,158.8v0.5h-2.4v-0.5H295.5z
		 M293.2,159.8h2.4v0.5h-2.4V159.8z M295,161.4h-1.3v1.3h1.3V161.4z M294.3,157.6c-0.1-0.3-0.4-0.7-0.6-1.1l0.5-0.2
		c0.2,0.3,0.5,0.7,0.6,1L294.3,157.6z M297.1,157.6c0,0.7-0.2,1.6-1.2,2.1c-0.1-0.1-0.3-0.3-0.4-0.4c0.9-0.5,1-1.1,1-1.7v-0.9h2.4
		v1.9c0,0.2,0,0.3,0.1,0.3h0.5c0.1,0,0.3,0,0.4,0c0,0.2,0,0.4,0,0.5c-0.1,0-0.2,0-0.4,0H299c-0.5,0-0.6-0.2-0.6-0.8v-1.3h-1.3V157.6
		z M296.6,160.4c0.3,0.6,0.6,1.1,1.1,1.5c0.5-0.4,0.9-0.9,1.1-1.5H296.6z"/>
	<path class="st1" d="M296.2,167.8h-3.3v-0.5h3.3V167.8z M293.3,168.4h2.6v0.5h-2.6V168.4z M295.9,169.9h-2.6v-0.5h2.6V169.9z
		 M295.9,172.8h-2v0.4h-0.5v-2.7h2.5V172.8z M293.9,171v1.3h1.5V171H293.9z M294.5,167.2c-0.1-0.3-0.4-0.7-0.6-1.1l0.4-0.2
		c0.2,0.3,0.5,0.7,0.6,1L294.5,167.2z M300,169.3h-1.6v4h-0.6v-4h-1.6v-0.6h1.6v-2.6h0.6v2.6h1.6V169.3z"/>
	<path class="st1" d="M292.8,176h2.8v0.5h-1.2c-0.1,0.7-0.3,1.3-0.5,1.9h1.6v3.4h-1.6v0.6h-0.5v-2.9c-0.1,0.2-0.3,0.5-0.4,0.6
		c0-0.1-0.2-0.5-0.3-0.6c0.6-0.8,0.9-1.9,1.1-3.1h-1V176z M295,179h-1.1v2.4h1.1V179z M300.1,179.4h-0.9v3.4h-0.6v-3.4h-1.3
		c0,1.2-0.2,2.5-1.1,3.5c-0.1-0.1-0.3-0.3-0.4-0.3c0.8-0.9,1-2.1,1-3.1h-0.9v-0.6h0.9v-2.3h-0.7V176h3.8v0.6h-0.7v2.3h0.9V179.4z
		 M298.6,178.9v-2.3h-1.3v2.3H298.6z"/>
	<path class="st1" d="M295.8,190.2c0,0,0,0.2,0,0.2c-0.1,1.1-0.2,1.6-0.4,1.8c-0.1,0.1-0.3,0.2-0.5,0.2c-0.2,0-0.6,0-1.1,0
		c0-0.2-0.1-0.4-0.2-0.5c0.4,0,0.9,0,1,0c0.1,0,0.2,0,0.3-0.1c0.1-0.1,0.2-0.4,0.3-1.2h-1.8c0.1-0.5,0.2-1.2,0.3-1.8h1.6v-0.8h-1.3
		V188c-0.3,0.2-0.6,0.3-0.9,0.4c-0.1-0.1-0.2-0.3-0.3-0.4c0.5-0.2,1.1-0.4,1.6-0.8c-0.2-0.2-0.6-0.5-0.9-0.7l0.3-0.3
		c0.3,0.2,0.7,0.5,1,0.7c0.3-0.3,0.6-0.5,0.8-0.8h-1.9v-0.5h2.2l0.1,0l0.4,0.2c-0.4,0.8-1,1.4-1.7,1.9h1.2v1.8h-1.7
		c0,0.3-0.1,0.6-0.1,0.8H295.8z M299.3,190c-0.2,0.6-0.6,1.1-1,1.4c0.4,0.3,0.8,0.5,1.1,0.7l-0.3,0.4c-0.3-0.2-0.7-0.5-1.2-0.8
		c-0.5,0.4-1.2,0.6-1.8,0.8c-0.1-0.1-0.2-0.3-0.3-0.4c0.6-0.1,1.2-0.3,1.6-0.6c-0.4-0.3-0.9-0.5-1.3-0.7l0.3-0.3
		c0.4,0.2,0.9,0.5,1.4,0.8c0.3-0.2,0.6-0.5,0.8-0.9h-2.4v-0.4h2.7l0.1,0L299.3,190z M299.9,186.3c-0.3,0.3-0.8,0.6-1.1,0.9
		c0.4,0.2,0.9,0.4,1.4,0.6c-0.1,0.1-0.3,0.3-0.4,0.5c-0.4-0.1-0.8-0.3-1.1-0.5v1.1c0,0.2,0,0.2,0.1,0.2h0.6c0.1,0,0.3,0,0.4,0
		c0,0.1,0,0.3,0,0.4c-0.1,0-0.2,0-0.4,0h-0.7c-0.5,0-0.6-0.2-0.6-0.7V188H297v0.2c0,0.5-0.2,1.1-0.9,1.5c-0.1-0.1-0.3-0.3-0.4-0.4
		c0.6-0.3,0.7-0.8,0.7-1.2v-0.6h1.8c-0.8-0.6-1.5-1.3-1.9-2.2l0.5-0.1c0.2,0.3,0.4,0.7,0.6,1c0.3-0.3,0.8-0.7,1-0.9l0.4,0.3
		c-0.3,0.3-0.8,0.7-1.2,0.9c0.2,0.2,0.4,0.3,0.6,0.5c0.4-0.3,0.8-0.6,1.1-0.9L299.9,186.3z"/>
	<path class="st1" d="M299.7,197.6c-0.3,1.3-1,2.3-1.8,3c0.6,0.4,1.3,0.8,2.2,1c-0.1,0.1-0.3,0.4-0.4,0.6c-0.9-0.2-1.6-0.6-2.2-1.1
		c-0.7,0.6-1.6,0.9-2.5,1.2c-0.1-0.2-0.2-0.4-0.3-0.5c0.9-0.2,1.7-0.5,2.4-1c-0.7-0.7-1.2-1.6-1.6-2.6h-0.3
		c-0.2,1.3-0.6,2.7-1.9,3.9c-0.1-0.2-0.3-0.4-0.4-0.5c1.7-1.6,1.8-3.6,1.8-5v-0.7h-1.4v-0.6h4.9c-0.2,0.7-0.4,1.6-0.5,2.3h1.6l0.1,0
		L299.7,197.6z M295.2,196.4c0,0.3,0,0.6,0,1h1.8c0.1-0.5,0.3-1.1,0.4-1.7h-2.2V196.4z M296,198c0.3,0.9,0.8,1.6,1.5,2.2
		c0.6-0.6,1.2-1.3,1.5-2.2H296z"/>
	<path class="st1" d="M299.6,209.6c-0.4,0.3-1,0.6-1.4,0.8c0.5,0.3,1.2,0.6,1.9,0.7c-0.1,0.1-0.3,0.3-0.3,0.5
		c-1.6-0.3-2.7-1.1-3.3-2.3c-0.4,0.3-0.9,0.6-1.4,0.8v0.9l1.8-0.4c0,0.1,0,0.4,0,0.5c-2.1,0.5-2.4,0.6-2.5,0.7v0
		c0-0.1-0.1-0.3-0.2-0.4c0.1-0.1,0.3-0.2,0.3-0.6v-0.4c-0.5,0.2-0.9,0.3-1.4,0.4c-0.1-0.1-0.2-0.3-0.3-0.4c1-0.2,2.1-0.6,2.9-1h-2.8
		v-0.5h3.4c-0.1-0.2-0.2-0.3-0.2-0.5l0.6-0.2c0.1,0.2,0.2,0.4,0.3,0.6h3v0.5h-3c0.2,0.3,0.4,0.6,0.7,0.9c0.5-0.2,1.1-0.6,1.4-0.8
		L299.6,209.6z M294.6,206.3h-1.8v-0.4h1.8v-0.5h-1c-0.1,0.2-0.2,0.3-0.3,0.5c-0.1-0.1-0.3-0.2-0.4-0.2c0.3-0.3,0.5-0.8,0.6-1.2
		l0.5,0.1c0,0.1-0.1,0.3-0.2,0.4h0.8v-0.6h0.5v0.6h1.4v0.4h-1.4v0.5h1.7v0.4h-1.7v0.4h1.5v1c0,0.2,0,0.3-0.2,0.4
		c-0.2,0.1-0.4,0.1-0.8,0.1c0-0.1-0.1-0.3-0.2-0.4c0.3,0,0.5,0,0.5,0c0.1,0,0.1,0,0.1-0.1v-0.6h-1v1.3h-0.5v-1.3h-0.9v1.1h-0.5v-1.5
		h1.4V206.3z M298,207.4h-0.5v-2.6h0.5V207.4z M299.5,207.7c0,0.3-0.1,0.4-0.3,0.5c-0.2,0.1-0.6,0.1-1.2,0.1c0-0.2-0.1-0.3-0.2-0.5
		c0.4,0,0.8,0,0.9,0c0.1,0,0.2,0,0.2-0.1v-3.3h0.5V207.7z"/>
	<path class="st1" d="M294.9,217.8c-0.2,0.7-0.5,1.5-0.8,2.1c0.1,0.1,0.3,0.2,0.6,0.4c0.6,0.3,1.3,0.4,2.2,0.4c1,0,2.3-0.1,3.2-0.2
		c-0.1,0.2-0.2,0.4-0.2,0.6c-0.6,0-2.1,0.1-3,0.1c-1,0-1.7-0.1-2.3-0.4c-0.3-0.2-0.6-0.5-0.8-0.5c-0.2,0-0.4,0.5-0.7,1l-0.4-0.5
		c0.3-0.5,0.7-0.8,0.9-0.9c0.2-0.4,0.5-1.1,0.6-1.6h-1.1c0.2-0.5,0.5-1.1,0.7-1.8h-1.1v-0.5h1.8c-0.2,0.6-0.5,1.2-0.7,1.8h0.7l0.1,0
		L294.9,217.8z M293.7,215.5c-0.1-0.3-0.3-0.9-0.4-1.3l0.5-0.2c0.1,0.4,0.3,0.9,0.4,1.3L293.7,215.5z M295.9,215.5
		c-0.2,0.3-0.4,0.6-0.6,0.8c-0.1-0.1-0.4-0.2-0.5-0.3c0.5-0.5,0.9-1.2,1.2-2l0.6,0.1c-0.1,0.3-0.2,0.5-0.3,0.8h0.9v-1h0.6v1h1.9v0.5
		h-1.9v1h2.2v0.5h-5.1v-0.5h2.3v-1H295.9z M298.8,220.1v-0.3h-2.7v0.3h-0.6v-2.5h3.8v2.4H298.8z M298.8,219.3v-1.2h-2.7v1.2H298.8z"
		/>
	<path class="st1" d="M296.6,227.8c-0.2,0.8-0.4,1.4-0.8,1.9c0.6,0.5,1.3,0.6,2.3,0.6c0.2,0,1.7,0,2.1,0c-0.1,0.1-0.2,0.4-0.2,0.5
		H298c-1.1,0-1.9-0.1-2.6-0.7c-0.4,0.4-0.9,0.7-1.5,0.9c-0.1-0.1-0.2-0.3-0.3-0.4c0.5-0.2,1-0.4,1.4-0.8c-0.2-0.2-0.3-0.5-0.5-0.9
		c-0.2,0.2-0.3,0.4-0.5,0.6c-0.1-0.1-0.2-0.2-0.3-0.3c-0.1,0.7-0.3,1.3-0.6,1.9c-0.1-0.1-0.3-0.3-0.5-0.4c0.6-1,0.7-2.5,0.7-3.5v-2
		h2.6v-1.5h0.6v0.5h2.7v0.4h-2.7v0.5h2.8l0.1,0l0.4,0.1c-0.2,0.5-0.4,1-0.6,1.3l-0.5-0.2c0.1-0.2,0.2-0.5,0.3-0.8h-2.6v0.5l2-0.1
		l0,0.4l-2.1,0.1v0.2c0,0.2,0,0.3,0.3,0.3h1.9c0.2,0,0.7,0,0.8,0c0,0.2,0,0.3,0,0.4c-0.1,0-0.5,0-0.8,0h-2c-0.7,0-0.8-0.2-0.8-0.7
		v-0.1l-1.6,0.1l0-0.4l1.6-0.1v-0.5h-2v1.5c0,0.6,0,1.3-0.1,2c0.5-0.4,1-1.1,1.2-1.9l0.5,0.1c-0.1,0.2-0.1,0.4-0.2,0.5h0.9l0.1,0
		L296.6,227.8z M295.1,228.2c0,0.1-0.1,0.1-0.1,0.2c0.1,0.4,0.3,0.7,0.5,1c0.2-0.3,0.4-0.7,0.6-1.1H295.1z M298.9,229.8
		c-0.4,0-0.5-0.1-0.5-0.5v-1.1h-0.8v0.2c0,0.5-0.1,1.2-0.8,1.6c-0.1-0.1-0.3-0.3-0.4-0.3c0.5-0.4,0.6-0.9,0.6-1.3v-0.6h1.8v1.6
		c0,0.2,0,0.2,0.1,0.2h0.3c0.1,0,0.1-0.1,0.1-0.5c0.1,0.1,0.2,0.1,0.4,0.1c0,0.5-0.2,0.7-0.4,0.7H298.9z"/>
</g>
<g>
	<path class="st1" d="M318.9,158.2h-3v-0.5h3V158.2z M322.7,160c-0.3,1-0.8,1.7-1.4,2.3c0.5,0.4,1.2,0.6,1.9,0.8
		c-0.1,0.1-0.3,0.4-0.4,0.5c-0.8-0.2-1.4-0.5-2-1c-0.6,0.4-1.3,0.8-2,1c-0.1-0.2-0.2-0.4-0.3-0.5h-1.8v0.4h-0.5v-2.7h2.4v2.3
		c0.6-0.2,1.2-0.4,1.8-0.8c-0.5-0.5-0.9-1.1-1.2-1.8l0.3-0.1h-0.7v-0.6h3.4l0.1,0L322.7,160z M318.6,158.8v0.5h-2.4v-0.5H318.6z
		 M316.2,159.8h2.4v0.5h-2.4V159.8z M318.1,161.4h-1.3v1.3h1.3V161.4z M317.4,157.6c-0.1-0.3-0.4-0.7-0.6-1.1l0.5-0.2
		c0.2,0.3,0.5,0.7,0.6,1L317.4,157.6z M320.2,157.6c0,0.7-0.2,1.6-1.2,2.1c-0.1-0.1-0.3-0.3-0.4-0.4c0.9-0.5,1-1.1,1-1.7v-0.9h2.4
		v1.9c0,0.2,0,0.3,0.1,0.3h0.5c0.1,0,0.3,0,0.4,0c0,0.2,0,0.4,0,0.5c-0.1,0-0.2,0-0.4,0h-0.5c-0.5,0-0.6-0.2-0.6-0.8v-1.3h-1.3
		V157.6z M319.7,160.4c0.3,0.6,0.6,1.1,1.1,1.5c0.5-0.4,0.9-0.9,1.1-1.5H319.7z"/>
	<path class="st1" d="M317.9,166.1c-0.2,0.5-0.4,1.1-0.6,1.6v5.5h-0.6v-4.4c-0.2,0.3-0.4,0.7-0.6,0.9c-0.1-0.1-0.2-0.5-0.3-0.6
		c0.7-0.8,1.2-2,1.6-3.2L317.9,166.1z M319.6,168.7c-0.1,0.2-0.3,0.4-0.5,0.6h3.5v3.4c0,0.3,0,0.4-0.2,0.5c-0.2,0.1-0.4,0.1-0.8,0.1
		c0-0.1-0.1-0.3-0.2-0.5c0.2,0,0.5,0,0.5,0c0.1,0,0.1,0,0.1-0.1v-0.6h-1.2v1h-0.5v-1h-1.4c-0.1,0.4-0.2,0.9-0.5,1.2
		c-0.1-0.1-0.3-0.3-0.5-0.4c0.5-0.6,0.5-1.5,0.5-2.1V170c-0.2,0.2-0.5,0.3-0.7,0.5c-0.1-0.1-0.2-0.4-0.4-0.5
		c0.6-0.3,1.2-0.8,1.6-1.3h-1.2v-0.6h1.4v-0.8h-1.2v-0.5h1.2V166h0.6v0.8h1.3V166h0.6v0.8h1.1v0.5h-1.1v0.8h1.3v0.6H319.6z
		 M320.3,171.6v-0.7H319c0,0.2,0,0.5,0,0.7H320.3z M319,170.5h1.3v-0.7H319V170.5z M319.8,168.1h1.3v-0.8h-1.3V168.1z M322.1,169.8
		h-1.2v0.7h1.2V169.8z M322.1,171.6v-0.7h-1.2v0.7H322.1z"/>
	<path class="st1" d="M318.6,175.8c-0.2,0.6-0.5,1.1-0.9,1.6v5.4h-0.6v-4.5c-0.3,0.4-0.7,0.8-1.1,1.2c-0.1-0.1-0.2-0.4-0.3-0.6
		c0.9-0.8,1.8-2,2.3-3.2L318.6,175.8z M320.7,178.5c0.3,2.1,0.8,3.5,1.6,3.6c0.2,0,0.4-0.5,0.4-1.4c0.1,0.1,0.4,0.3,0.5,0.3
		c-0.2,1.4-0.5,1.8-0.9,1.8c-1.3-0.1-2-1.8-2.3-4.2l-1.9,0.2l-0.1-0.6l1.9-0.2c-0.1-0.7-0.1-1.5-0.2-2.4h0.6c0,0.8,0.1,1.6,0.2,2.3
		l2.4-0.3l0.1,0.6L320.7,178.5z M322.5,177.3c-0.3-0.4-0.8-0.9-1.3-1.3l0.4-0.3c0.5,0.4,1,0.9,1.3,1.3L322.5,177.3z"/>
	<path class="st1" d="M323.1,191.3v0.6h-7.1v-0.6h3.2v-4.6h-2.8v-0.6h6.3v0.6h-2.9v4.6H323.1z"/>
	<path class="st1" d="M323.1,199.8h-0.8v1.4h-0.6v-0.4h-1.9v0.6c0,0.4-0.1,0.5-0.4,0.6c-0.2,0.1-0.7,0.1-1.3,0.1
		c0-0.2-0.1-0.4-0.2-0.5c0.5,0,1,0,1.1,0c0.2,0,0.2-0.1,0.2-0.2v-0.6h-2.6v-0.5h2.6v-0.6h-3.3v-0.5h3.3v-0.6h-2.5v-0.4h2.5v-0.6
		h-2.3v-1.4h2.3v-0.5h-3.1v-0.5h3.1v-0.6h0.6v0.6h3.2v0.5h-3.2v0.5h2.4v1.4h-2.4v0.6h2.5v1h0.8V199.8z M319.2,197.4v-0.6h-1.7v0.6
		H319.2z M319.8,196.8v0.6h1.8v-0.6H319.8z M319.8,199.3h1.9v-0.6h-1.9V199.3z M321.7,199.8h-1.9v0.6h1.9V199.8z"/>
	<path class="st1" d="M318.8,210.4c-0.6,0.4-1.6,0.8-2.5,1c-0.1-0.1-0.2-0.3-0.4-0.4c0.8-0.1,1.8-0.4,2.4-0.8L318.8,210.4z
		 M323,209.3v0.5h-3.2v1.9h-0.6v-1.9H316v-0.5h3.2v-0.6h-2.4v-0.5h2.4v-0.6h-2.8v-0.5h1.7c-0.1-0.2-0.2-0.5-0.4-0.8l0.4-0.1h-2.1
		v-0.5h1.3c-0.1-0.3-0.4-0.8-0.6-1.2l0.5-0.2c0.3,0.4,0.6,0.9,0.7,1.2l-0.4,0.2h1v-1.4h0.6v1.4h1v-1.4h0.6v1.4h1l-0.3-0.1
		c0.2-0.3,0.5-0.9,0.6-1.2l0.6,0.2c-0.2,0.4-0.5,0.8-0.7,1.2h1.2v0.5h-2.1l0.5,0.1c-0.2,0.3-0.4,0.5-0.6,0.7h1.8v0.5h-2.9v0.6h2.5
		v0.5h-2.5v0.6H323z M318.3,206.3c0.2,0.2,0.4,0.6,0.4,0.8l-0.3,0.1h2.2l-0.3-0.1c0.2-0.2,0.4-0.6,0.5-0.8H318.3z M320.6,210.1
		c0.8,0.2,1.8,0.6,2.3,0.9l-0.4,0.4c-0.5-0.3-1.5-0.7-2.3-0.9L320.6,210.1z"/>
	<path class="st1" d="M319.7,218.2c-0.2,0.8-0.4,1.4-0.8,1.9c0.6,0.5,1.3,0.6,2.3,0.6c0.2,0,1.7,0,2.1,0c-0.1,0.1-0.2,0.4-0.2,0.5
		h-1.9c-1.1,0-1.9-0.1-2.6-0.7c-0.4,0.4-0.9,0.7-1.5,0.9c-0.1-0.1-0.2-0.3-0.3-0.4c0.5-0.2,1-0.4,1.4-0.8c-0.2-0.2-0.3-0.5-0.5-0.9
		c-0.2,0.2-0.3,0.4-0.5,0.6c-0.1-0.1-0.2-0.2-0.3-0.3c-0.1,0.7-0.3,1.3-0.6,1.9c-0.1-0.1-0.3-0.3-0.5-0.4c0.6-1,0.7-2.5,0.7-3.5v-2
		h2.6V214h0.6v0.5h2.7v0.4h-2.7v0.5h2.8l0.1,0l0.4,0.1c-0.2,0.5-0.4,1-0.6,1.3l-0.5-0.2c0.1-0.2,0.2-0.5,0.3-0.8h-2.6v0.5l2-0.1
		l0,0.4l-2.1,0.1v0.2c0,0.2,0,0.3,0.3,0.3h1.9c0.2,0,0.7,0,0.8,0c0,0.2,0,0.3,0,0.4c-0.1,0-0.5,0-0.8,0h-2c-0.7,0-0.8-0.2-0.8-0.7
		v-0.1l-1.6,0.1l0-0.4l1.6-0.1v-0.5h-2v1.5c0,0.6,0,1.3-0.1,2c0.5-0.4,1-1.1,1.2-1.9l0.5,0.1c-0.1,0.2-0.1,0.4-0.2,0.5h0.9l0.1,0
		L319.7,218.2z M318.2,218.6c0,0.1-0.1,0.1-0.1,0.2c0.1,0.4,0.3,0.7,0.5,1c0.2-0.3,0.4-0.7,0.6-1.1H318.2z M322,220.2
		c-0.4,0-0.5-0.1-0.5-0.5v-1.1h-0.8v0.2c0,0.5-0.1,1.2-0.8,1.6c-0.1-0.1-0.3-0.3-0.4-0.3c0.5-0.4,0.6-0.9,0.6-1.3v-0.6h1.8v1.6
		c0,0.2,0,0.2,0.1,0.2h0.3c0.1,0,0.1-0.1,0.1-0.5c0.1,0.1,0.2,0.1,0.4,0.1c0,0.5-0.2,0.7-0.4,0.7H322z"/>
</g>
<g>
	<path class="st1" d="M49.2,161.1v0.5h-3.3c0,0.2-0.1,0.4-0.1,0.6h3.3v0.5h-3.4c-0.4,1.1-1.2,1.8-3.3,2.1c0-0.2-0.2-0.4-0.3-0.5
		c1.8-0.3,2.6-0.8,3-1.6h-2.7v-0.5h2.9c0-0.2,0.1-0.4,0.1-0.6h-3.1v-0.5h3.2v-0.7h-2.5v-0.5h2.5v-0.6h-2.9v-0.5h1.7
		c-0.1-0.3-0.4-0.6-0.6-0.9l0.5-0.2c0.3,0.3,0.6,0.7,0.7,1l-0.3,0.1h2.1c0.2-0.3,0.5-0.8,0.7-1.1l0.6,0.2c-0.2,0.3-0.4,0.7-0.6,1
		h1.7v0.5h-2.9v0.6h2.6v0.5h-2.6v0.7H49.2z M45.9,162.8c1.1,0.4,2.5,1.1,3.3,1.6l-0.3,0.5c-0.7-0.5-2.1-1.2-3.2-1.7L45.9,162.8z"/>
	<path class="st1" d="M49,167.5v7h-0.6v-0.4h-5.5v0.4h-0.6v-7H49z M48.4,173.6v-5.5h-5.5v5.5H48.4z M45.7,172.4
		c-0.8,0.2-1.7,0.3-2.3,0.4l-0.1-0.4c0.6-0.1,1.5-0.3,2.4-0.4L45.7,172.4z M47.7,170c-0.2,0.8-0.5,1.4-0.9,2
		c0.2,0.4,0.4,0.7,0.6,0.7c0.1,0,0.2-0.3,0.2-0.8c0.1,0.1,0.3,0.2,0.4,0.3c-0.1,0.9-0.4,1.2-0.8,1c-0.4-0.1-0.6-0.4-0.8-0.8
		c-0.3,0.4-0.7,0.7-1.1,0.9c-0.1-0.1-0.2-0.3-0.4-0.4c0.5-0.3,0.9-0.6,1.2-1c-0.2-0.6-0.3-1.5-0.4-2.4h-2.4v-0.4h2.4
		c0-0.3,0-0.6-0.1-0.8h0.5c0,0.3,0,0.6,0,0.8H48v0.4h-1.7c0.1,0.7,0.2,1.3,0.3,1.8c0.3-0.4,0.5-0.9,0.6-1.5L47.7,170z M45.4,170.1
		v1.6h-1.8v-1.6H45.4z M45,170.5H44v0.8H45V170.5z M47.5,169c-0.2-0.2-0.5-0.4-0.9-0.6l0.3-0.3c0.3,0.1,0.7,0.4,0.9,0.5L47.5,169z"
		/>
</g>
<g>
	<path class="st1" d="M40.1,157.5v1.5c0,1.2-0.4,1.9-1.5,1.9c-1.1,0-1.6-0.8-1.6-1.9v-0.8h-2v-0.7H40.1z M37.5,158.9
		c0,0.9,0.3,1.3,1.1,1.3c0.7,0,1-0.5,1-1.4v-0.7h-2V158.9z"/>
	<path class="st1" d="M38.7,162.5v0.5l-0.7,0.1v0c0.5,0.3,0.8,0.7,0.8,1.1c0,0.2,0,0.3-0.1,0.4l-0.6-0.1c0-0.1,0.1-0.2,0.1-0.4
		c0-0.3-0.2-0.7-0.9-1h-2.4v-0.6H38.7z"/>
	<path class="st1" d="M36.8,165.6c1.3,0,2,0.8,2,1.8s-0.7,1.8-2,1.8c-1.3,0-2-0.8-2-1.8S35.6,165.6,36.8,165.6z M36.8,168.5
		c0.9,0,1.5-0.4,1.5-1.1s-0.6-1.1-1.5-1.1s-1.5,0.4-1.5,1.1S36,168.5,36.8,168.5z"/>
	<path class="st1" d="M38.7,170.8v0.5l-0.4,0.1v0c0.3,0.3,0.5,0.8,0.5,1.2c0,1-0.8,1.5-1.9,1.5c-1.3,0-2.1-0.8-2.1-1.7
		c0-0.3,0.2-0.7,0.4-1.1l-0.7,0h-1.3v-0.6H38.7z M36.9,173.5c0.8,0,1.4-0.3,1.4-1c0-0.3-0.2-0.7-0.5-1h-2c-0.3,0.3-0.4,0.7-0.4,0.9
		C35.4,173,35.9,173.5,36.9,173.5z"/>
	<path class="st1" d="M36.8,175.6c1.2,0,2,0.8,2,1.7c0,1-0.7,1.5-1.8,1.5c-0.1,0-0.3,0-0.4,0v-2.6c-0.8,0-1.3,0.5-1.3,1.3
		c0,0.4,0.1,0.7,0.3,1l-0.4,0.2c-0.2-0.3-0.4-0.7-0.4-1.3C34.8,176.4,35.6,175.6,36.8,175.6z M37.1,178.2c0.8,0,1.2-0.4,1.2-0.9
		c0-0.5-0.4-1-1.2-1.1V178.2z"/>
	<path class="st1" d="M38.7,180.4v0.5L38,181v0c0.5,0.3,0.8,0.7,0.8,1.1c0,0.2,0,0.3-0.1,0.4l-0.6-0.1c0-0.1,0.1-0.2,0.1-0.4
		c0-0.3-0.2-0.7-0.9-1h-2.4v-0.6H38.7z"/>
	<path class="st1" d="M35.4,183.4l0.4,0.3c-0.3,0.3-0.4,0.7-0.4,1.1c0,0.5,0.3,0.7,0.6,0.7c0.4,0,0.6-0.4,0.7-0.9
		c0.2-0.5,0.5-1.1,1.1-1.1c0.6,0,1.1,0.5,1.1,1.3c0,0.5-0.2,0.9-0.4,1.2l-0.4-0.3c0.2-0.3,0.3-0.5,0.3-0.9c0-0.5-0.3-0.7-0.5-0.7
		c-0.4,0-0.5,0.4-0.7,0.8c-0.2,0.6-0.4,1.2-1.2,1.2c-0.6,0-1.1-0.5-1.1-1.4C34.8,184.3,35.1,183.8,35.4,183.4z"/>
	<path class="st1" d="M33.4,187.4l0.5,0.1c0,0.1-0.1,0.2-0.1,0.3c0,0.4,0.4,0.7,0.8,0.9l0.3,0.1l3.8-1.5v0.7l-2.1,0.8
		c-0.3,0.1-0.7,0.2-1.1,0.4v0c0.3,0.1,0.7,0.2,1.1,0.3l2.1,0.7v0.6l-4.1-1.4c-0.7-0.3-1.3-0.7-1.3-1.4
		C33.3,187.7,33.3,187.5,33.4,187.4z"/>
	<path class="st1" d="M35.4,191.7l0.4,0.3c-0.3,0.3-0.4,0.7-0.4,1.1c0,0.5,0.3,0.8,0.6,0.8c0.4,0,0.6-0.4,0.7-0.9
		c0.2-0.5,0.5-1.1,1.1-1.1c0.6,0,1.1,0.5,1.1,1.3c0,0.5-0.2,0.9-0.4,1.2l-0.4-0.3c0.2-0.3,0.3-0.5,0.3-0.9c0-0.5-0.3-0.7-0.5-0.7
		c-0.4,0-0.5,0.4-0.7,0.8c-0.2,0.6-0.4,1.2-1.2,1.2c-0.6,0-1.1-0.5-1.1-1.4C34.8,192.6,35.1,192.1,35.4,191.7z"/>
	<path class="st1" d="M37.5,198.1c1.7,0,2.7,1,2.7,2.3c0,0.6-0.3,1.1-0.6,1.4l-0.4-0.3c0.3-0.3,0.5-0.6,0.5-1.1c0-1-0.8-1.6-2.1-1.6
		c-1.3,0-2.1,0.6-2.1,1.6c0,0.5,0.2,0.9,0.6,1.2l-0.4,0.4c-0.5-0.4-0.7-0.9-0.7-1.6C34.8,199.1,35.8,198.1,37.5,198.1z"/>
	<path class="st1" d="M36.8,203.3c1.3,0,2,0.8,2,1.8s-0.7,1.8-2,1.8c-1.3,0-2-0.8-2-1.8S35.6,203.3,36.8,203.3z M36.8,206.1
		c0.9,0,1.5-0.4,1.5-1.1s-0.6-1.1-1.5-1.1s-1.5,0.4-1.5,1.1S36,206.1,36.8,206.1z"/>
	<path class="st1" d="M38.7,208.5v0.5l-0.7,0.1v0c0.5,0.3,0.8,0.7,0.8,1.1c0,0.2,0,0.3-0.1,0.4l-0.6-0.1c0-0.1,0.1-0.2,0.1-0.4
		c0-0.3-0.2-0.7-0.9-1h-2.4v-0.6H38.7z"/>
	<path class="st1" d="M38.7,211.9v0.5l-0.4,0.1v0c0.3,0.3,0.5,0.8,0.5,1.2c0,1-0.8,1.5-1.9,1.5c-1.3,0-2.1-0.8-2.1-1.7
		c0-0.3,0.2-0.7,0.4-1.1l-0.7,0h-1.3v-0.6H38.7z M36.9,214.6c0.8,0,1.4-0.3,1.4-1c0-0.3-0.2-0.7-0.5-1h-2c-0.3,0.3-0.4,0.7-0.4,0.9
		C35.4,214.1,35.9,214.6,36.9,214.6z"/>
	<path class="st1" d="M35.3,216.7c0.3,0,0.5,0.2,0.5,0.5s-0.2,0.5-0.5,0.5s-0.5-0.2-0.5-0.5S35,216.7,35.3,216.7z"/>
</g>
<line class="st0" x1="114" y1="132.6" x2="114" y2="149.8"/>
<line class="st0" x1="91.2" y1="132.6" x2="91.2" y2="149.8"/>
<line class="st0" x1="170.6" y1="61.6" x2="219" y2="61.6"/>
<line class="st0" x1="68.5" y1="132.6" x2="68.5" y2="149.8"/>
<line class="st0" x1="182.2" y1="132.6" x2="182.2" y2="149.8"/>
<line class="st0" x1="159.5" y1="132.6" x2="159.5" y2="149.8"/>
<line class="st0" x1="136.7" y1="132.6" x2="136.7" y2="149.8"/>
<line class="st0" x1="250.5" y1="132.6" x2="250.5" y2="149.8"/>
<line class="st0" x1="227.8" y1="132.6" x2="227.8" y2="149.8"/>
<line class="st0" x1="205" y1="132.6" x2="205" y2="149.8"/>
<line class="st0" x1="318.8" y1="132.6" x2="318.8" y2="149.8"/>
<line class="st0" x1="296" y1="132.6" x2="296" y2="149.8"/>
<line class="st0" x1="273.3" y1="132.6" x2="273.3" y2="149.8"/>
<line class="st0" x1="41.8" y1="132.6" x2="41.8" y2="149.8"/>
<g>
</g>
<g>
</g>
<g>
</g>
<g>
</g>
<g>
</g>
<g>
</g>
<g>
</g>
<g>
</g>
<g>
</g>
<g>
</g>
<g>
</g>
<g>
</g>
<g>
</g>
<g>
</g>
<g>
</g>
</svg>
