<?xml version="1.0" encoding="utf-8"?>
<!-- Generator: Adobe Illustrator 23.0.5, SVG Export Plug-In . SVG Version: 6.00 Build 0)  -->
<svg version="1.1" id="圖層_1" xmlns="http://www.w3.org/2000/svg" xmlns:xlink="http://www.w3.org/1999/xlink" x="0px" y="0px"
	 viewBox="0 0 325.7 244.2" style="enable-background:new 0 0 325.7 244.2;" xml:space="preserve">
<style type="text/css">
	.st0{fill:none;stroke:#CCCCCC;stroke-width:0.5;stroke-miterlimit:10;}
	.st1{fill:#2458B3;}
	.st2{fill:#FFFFFF;}
	.st3{fill:#1C7DF2;}
	.st4{fill:#7FAFDB;}
	.st5{fill:none;stroke:#FFFFFF;stroke-width:5;stroke-miterlimit:10;}
	.st6{fill:#6186A8;}
	.st7{fill:#6795B2;}
	.st8{fill:#86929D;}
	.st9{fill:#AEB6BE;}
	.st10{fill:#949FA9;}
	.st11{fill:#A0B7CB;}
	.st12{fill:#819EB9;}
	.st13{fill:#49657E;}
	.st14{fill:#3A6E8E;}
	.st15{fill:#7B97AA;}
</style>
<line class="st0" x1="166.7" y1="3" x2="166.7" y2="127"/>
<line class="st0" x1="315" y1="127" x2="37.5" y2="127"/>
<path class="st1" d="M129.5,17c0,1.1,0.9,2,2,2h69c1.1,0,2-0.9,2-2V4c0-1.1-0.9-2-2-2h-69c-1.1,0-2,0.9-2,2V17z"/>
<g>
	<path class="st2" d="M156.8,13.5c0,0.3-0.1,0.4-0.2,0.5c-0.2,0.1-0.5,0.1-1,0.1c0-0.1-0.1-0.4-0.2-0.5c0.4,0,0.7,0,0.8,0
		c0.1,0,0.1,0,0.1-0.2v-2.3c-0.4,0.2-0.7,0.4-1,0.6l-0.2-0.4c-0.1,1-0.2,2-0.6,2.8c-0.1-0.1-0.3-0.2-0.4-0.3
		c0.6-1.1,0.6-2.7,0.6-3.9V7.2h2.2V13.5z M155.1,10c0,0.4,0,0.8,0,1.3c0.3-0.1,0.8-0.4,1.2-0.6V9.8L156,10c-0.2-0.3-0.6-0.7-0.9-1
		V10z M155.1,7.7V9l0.3-0.2c0.3,0.3,0.7,0.7,0.9,1v-2H155.1z M161.1,10.5c-0.3,1-0.8,1.8-1.5,2.4c0.5,0.4,1.1,0.7,1.8,0.8
		c-0.1,0.1-0.3,0.3-0.4,0.5c-0.7-0.2-1.3-0.5-1.8-1c-0.6,0.4-1.3,0.8-1.9,1c-0.1-0.1-0.2-0.3-0.3-0.5c0.6-0.2,1.3-0.5,1.8-0.9
		c-0.5-0.5-0.9-1.2-1.2-1.9l0,0h-0.4v-0.5h3.4l0.1,0L161.1,10.5z M158.5,8.1c0,0.7-0.2,1.5-1.2,2.1c-0.1-0.1-0.2-0.3-0.3-0.4
		c0.9-0.5,1-1.2,1-1.8V7.2h2.4v1.9c0,0.2,0,0.3,0.1,0.3h0.5c0.1,0,0.2,0,0.3,0c0,0.1,0,0.3,0,0.4c-0.1,0-0.2,0-0.4,0h-0.5
		c-0.5,0-0.6-0.2-0.6-0.8V7.7h-1.4V8.1z M158.1,10.9c0.3,0.6,0.6,1.2,1.1,1.6c0.5-0.4,0.9-1,1.2-1.6H158.1z"/>
	<path class="st2" d="M167.1,11.8c0.7,0.8,1.9,1.5,2.9,1.8c-0.1,0.1-0.3,0.3-0.4,0.5c-1.1-0.4-2.3-1.2-3-2.1v2.2h-0.5V12
		c-0.8,0.9-2,1.6-3,2.1c-0.1-0.1-0.2-0.3-0.4-0.4c1-0.4,2.2-1.1,2.9-1.8h-2V8.9h2.5V8.2h-3.2V7.7h3.2V6.9h0.5v0.8h3.2v0.5h-3.2v0.7
		h2.6v2.9H167.1z M164.1,10.1h1.9V9.3h-1.9V10.1z M164.1,11.3h1.9v-0.8h-1.9V11.3z M166.6,9.3v0.8h2.1V9.3H166.6z M168.7,10.5h-2.1
		v0.8h2.1V10.5z"/>
	<path class="st2" d="M175.4,7c0,0-0.1,0.1-0.1,0.1c0.8,0.8,2.2,1.4,3.4,1.7c-0.1,0.1-0.3,0.3-0.3,0.4c-0.6-0.2-1.4-0.5-2-0.8v0.3
		h-2.8V8.5c-0.6,0.3-1.3,0.6-2,0.8c-0.1-0.1-0.2-0.3-0.3-0.4c1.4-0.4,2.9-1.1,3.6-2.1L175.4,7z M172.3,9.2h5.3v2h-5.3V9.2z
		 M172.8,10.8h2V9.5h-2V10.8z M172.8,11.6h4.5v2.6h-0.5v-0.2h-3.4v0.3h-0.5V11.6z M173.7,9.7c0.2,0.3,0.4,0.7,0.5,0.9l-0.4,0.2
		c-0.1-0.3-0.3-0.6-0.5-0.9L173.7,9.7z M173.3,11.9v0.6h3.4v-0.6H173.3z M176.7,13.5v-0.6h-3.4v0.6H176.7z M176.1,8.4
		c-0.4-0.3-0.8-0.6-1.1-0.9c-0.3,0.3-0.7,0.6-1.1,0.9H176.1z M177.1,9.5h-2v1.2h2V9.5z M175.7,10.6c0.2-0.3,0.4-0.7,0.5-1l0.4,0.1
		c-0.2,0.4-0.4,0.7-0.6,1L175.7,10.6z"/>
</g>
<path class="st1" d="M129.5,47.3c0,1.1,0.9,2,2,2h69c1.1,0,2-0.9,2-2v-13c0-1.1-0.9-2-2-2h-69c-1.1,0-2,0.9-2,2V47.3z"/>
<g>
	<path class="st2" d="M161.6,43.6v0.4h-7.1v-0.4h3.3v-0.5h-2.7v-0.4h2.7v-0.4h-2.4v-2h2.4v-0.4h-3.2v-0.4h3.2V39
		c-0.9,0-1.8,0.1-2.6,0.1c0-0.1,0-0.3-0.1-0.4c1.9,0,4.2-0.1,5.4-0.3l0.4,0.3c-0.7,0.1-1.6,0.2-2.6,0.2v0.5h3.3v0.4h-3.3v0.4h2.5v2
		h-2.5v0.4h2.7v0.4h-2.7v0.5H161.6z M156.2,38h-1.6v-0.4h1.6V37h0.5v0.5h1.1V38h-1.1v0.5h-0.5V38z M155.9,41.1h1.9v-0.5h-1.9V41.1z
		 M157.8,42v-0.5h-1.9V42H157.8z M159.4,38h-1.2v-0.4h1.2V37h0.5v0.5h1.7V38h-1.7v0.4h-0.5V38z M158.3,40.6v0.5h2v-0.5H158.3z
		 M160.2,41.4h-2V42h2V41.4z"/>
	<path class="st2" d="M170.2,42h-0.8v1.4h-0.5v-0.4h-2v0.6c0,0.4-0.1,0.5-0.3,0.6c-0.2,0.1-0.7,0.1-1.3,0.1c0-0.1-0.1-0.3-0.2-0.5
		c0.5,0,1,0,1.1,0c0.2,0,0.2,0,0.2-0.2v-0.6h-2.6v-0.4h2.6V42h-3.3v-0.4h3.3V41h-2.5v-0.4h2.5V40H164v-1.4h2.3v-0.5h-3.2v-0.4h3.2
		V37h0.5v0.7h3.2v0.4h-3.2v0.5h2.4V40h-2.4v0.6h2.5v1h0.8V42z M166.4,39.6V39h-1.8v0.6H166.4z M166.9,39v0.6h1.9V39H166.9z
		 M166.9,41.6h2V41h-2V41.6z M168.9,42h-2v0.6h2V42z"/>
	<path class="st2" d="M175.7,37.2c0,0-0.1,0.1-0.1,0.1c0.8,0.8,2.2,1.4,3.4,1.7c-0.1,0.1-0.3,0.3-0.3,0.4c-0.6-0.2-1.4-0.5-2-0.8
		v0.3h-2.8v-0.2c-0.6,0.3-1.3,0.6-2,0.8c-0.1-0.1-0.2-0.3-0.3-0.4c1.4-0.4,2.9-1.1,3.6-2.1L175.7,37.2z M172.6,39.3h5.3v2h-5.3V39.3
		z M173,40.9h2v-1.2h-2V40.9z M173.1,41.7h4.5v2.6H177V44h-3.4v0.3h-0.5V41.7z M173.9,39.8c0.2,0.3,0.4,0.7,0.5,0.9l-0.4,0.2
		c-0.1-0.3-0.3-0.6-0.5-0.9L173.9,39.8z M173.6,42.1v0.6h3.4v-0.6H173.6z M177,43.6v-0.6h-3.4v0.6H177z M176.4,38.5
		c-0.4-0.3-0.8-0.6-1.1-0.9c-0.3,0.3-0.7,0.6-1.1,0.9H176.4z M177.4,39.7h-2v1.2h2V39.7z M176,40.7c0.2-0.3,0.4-0.7,0.5-1l0.4,0.1
		c-0.2,0.4-0.4,0.7-0.6,1L176,40.7z"/>
</g>
<path class="st1" d="M129.5,77.7c0,1.1,0.9,2,2,2h69c1.1,0,2-0.9,2-2v-13c0-1.1-0.9-2-2-2h-69c-1.1,0-2,0.9-2,2V77.7z"/>
<g>
	<path class="st2" d="M161.6,74v0.4h-7.1V74h3.3v-0.5h-2.7v-0.4h2.7v-0.4h-2.4v-2h2.4v-0.4h-3.2v-0.4h3.2v-0.5
		c-0.9,0-1.8,0.1-2.6,0.1c0-0.1,0-0.3-0.1-0.4c1.9,0,4.2-0.1,5.4-0.3l0.4,0.3c-0.7,0.1-1.6,0.2-2.6,0.2v0.5h3.3v0.4h-3.3v0.4h2.5v2
		h-2.5v0.4h2.7v0.4h-2.7V74H161.6z M156.2,68.4h-1.6v-0.4h1.6v-0.5h0.5v0.5h1.1v0.4h-1.1v0.5h-0.5V68.4z M155.9,71.5h1.9V71h-1.9
		V71.5z M157.8,72.3v-0.5h-1.9v0.5H157.8z M159.4,68.4h-1.2v-0.4h1.2v-0.5h0.5v0.5h1.7v0.4h-1.7v0.4h-0.5V68.4z M158.3,71v0.5h2V71
		H158.3z M160.2,71.8h-2v0.5h2V71.8z"/>
	<path class="st2" d="M170.2,72.4h-0.8v1.4h-0.5v-0.4h-2v0.6c0,0.4-0.1,0.5-0.3,0.6c-0.2,0.1-0.7,0.1-1.3,0.1c0-0.1-0.1-0.3-0.2-0.5
		c0.5,0,1,0,1.1,0c0.2,0,0.2,0,0.2-0.2v-0.6h-2.6V73h2.6v-0.6h-3.3V72h3.3v-0.6h-2.5V71h2.5v-0.6H164V69h2.3v-0.5h-3.2v-0.4h3.2
		v-0.7h0.5v0.7h3.2v0.4h-3.2V69h2.4v1.4h-2.4V71h2.5v1h0.8V72.4z M166.4,70v-0.6h-1.8V70H166.4z M166.9,69.4V70h1.9v-0.6H166.9z
		 M166.9,72h2v-0.6h-2V72z M168.9,72.4h-2V73h2V72.4z"/>
	<path class="st2" d="M178.4,72.1c-0.5,0.4-1.2,0.8-1.8,1.1c0.6,0.5,1.4,0.8,2.4,1c-0.1,0.1-0.3,0.3-0.3,0.5
		c-1.8-0.4-3.1-1.4-3.8-2.9h-1.3v2.2l2.2-0.5c0,0.1,0,0.4,0,0.5c-2.3,0.6-2.7,0.7-2.8,0.8l0,0c0-0.1-0.2-0.4-0.2-0.5
		c0.2-0.1,0.4-0.2,0.4-0.6v-1.9h-1.3v-0.5h1.4v-3.5h4.9v0.5h-4.4v0.7h4.1v0.4h-4.1v0.7h4.1v0.4h-4.1v0.7h5.1v0.5h-3.4
		c0.2,0.4,0.5,0.8,0.9,1.2c0.6-0.3,1.3-0.7,1.7-1.1L178.4,72.1z"/>
</g>
<path class="st3" d="M215,61.9c0,1.1,0.9,2,2,2h64.1c1.1,0,2-0.9,2-2V50c0-1.1-0.9-2-2-2H217c-1.1,0-2,0.9-2,2V61.9z"/>
<g>
	<path class="st2" d="M239.8,55.7c0.2,0.2,0.8,0.9,0.9,1.1l-0.3,0.4c-0.1-0.2-0.4-0.7-0.7-1v3.2h-0.5v-3.3c-0.3,0.8-0.6,1.5-1,2
		c-0.1-0.1-0.2-0.4-0.3-0.5c0.4-0.5,0.9-1.5,1.2-2.4h-1.1v-0.5h1.1v-1.3c-0.3,0.1-0.6,0.1-0.9,0.2c0-0.1-0.1-0.3-0.1-0.4
		c0.7-0.1,1.6-0.4,2.1-0.6l0.3,0.4c-0.2,0.1-0.5,0.2-0.8,0.3v1.4h0.9v0.5h-0.9V55.7z M243.4,54.9c-0.5,0-0.7-0.1-0.7-0.5v-0.5h-0.2
		c-0.2,0.4-0.6,0.8-1.4,1.2h0.5v0.5c0.9-0.1,2-0.2,2.6-0.3l0.3,0.3c-0.8,0.2-1.9,0.3-2.9,0.3V56c0,0.2,0,0.3,0.3,0.3h2
		c0.2,0,0.6,0,0.8,0c0,0.1,0,0.3,0,0.4c-0.1,0-0.5,0-0.8,0h-2.1c-0.6,0-0.7-0.2-0.7-0.6v-1c-0.1,0-0.1,0.1-0.2,0.1
		c0-0.1-0.1-0.3-0.2-0.4c0.7-0.2,1.1-0.5,1.3-0.9h-1.3v-0.4h1.5c0-0.1,0-0.2,0-0.4v-0.5h0.5v0.5c0,0.1,0,0.2,0,0.3h2.2v0.4h-1.7v0.5
		c0,0.1,0,0.2,0.3,0.2h0.8c0.2,0,0.2,0,0.2-0.5c0.1,0.1,0.3,0.1,0.4,0.1c0,0.5-0.2,0.7-0.6,0.7H243.4z M241.2,57h3.4v2.4h-0.5v-0.2
		h-2.4v0.3h-0.5V57z M241.6,57.4v0.5h2.4v-0.5H241.6z M244.1,58.8v-0.5h-2.4v0.5H244.1z M244.2,53.5c-0.2-0.2-0.7-0.5-1-0.6l0.3-0.3
		c0.3,0.2,0.8,0.4,1,0.6L244.2,53.5z"/>
	<path class="st2" d="M247.9,56.5c-0.1-0.2-0.4-0.7-0.6-1.1v4h-0.5v-3.7c-0.2,0.8-0.6,1.7-0.9,2.2c-0.1-0.1-0.2-0.4-0.3-0.5
		c0.5-0.6,0.9-1.8,1.2-2.9h-1V54h1v-1.4h0.5V54h0.9v0.5h-0.9v0.3c0.2,0.3,0.8,1.1,0.9,1.3L247.9,56.5z M252.3,56.3
		c-0.3,0.5-0.7,1-1.2,1.5c0.5,0.4,1.1,0.9,1.4,1.3l-0.4,0.3c-0.3-0.3-0.9-0.9-1.4-1.3c-0.7,0.6-1.6,1-2.5,1.4
		c-0.1-0.1-0.2-0.3-0.3-0.4c1.7-0.6,3.2-1.7,3.8-2.9L252.3,56.3z M251.7,54.9c-0.6,1.1-1.8,2.2-3.1,2.8c-0.1-0.1-0.2-0.3-0.3-0.4
		c0.8-0.4,1.5-0.9,2-1.5c-1.4,0.1-1.6,0.1-1.7,0.2c0-0.1-0.1-0.4-0.1-0.5c0.1,0,0.3-0.1,0.5-0.2c0.2-0.2,0.6-0.9,0.9-1.3h-1.5v-0.5
		h2c-0.1-0.3-0.2-0.6-0.4-0.9l0.5-0.2c0.2,0.3,0.4,0.7,0.4,1l-0.1,0.1h1.8v0.5h-2.1c-0.3,0.4-0.6,1-0.9,1.5l1.3-0.1
		c0.2-0.2,0.3-0.5,0.5-0.7L251.7,54.9z"/>
	<path class="st2" d="M259.9,58.8v0.5h-6.6v-0.5h3v-1.1H254v-0.4h2.3v-0.8h0.5v0.8h2.4v0.4h-2.4v1.1H259.9z M253.9,54.6h-0.5v-1.3h3
		c-0.1-0.2-0.2-0.4-0.3-0.6l0.5-0.1c0.2,0.2,0.3,0.5,0.4,0.7h2.8v1.3h-0.5v-0.8h-5.4V54.6z M258.9,56.6c-0.1-0.1-0.3-0.3-0.4-0.5
		c-3.6,0.3-3.9,0.3-4.2,0.4c0-0.1-0.1-0.3-0.2-0.5c0.1,0,0.3-0.1,0.5-0.3c0.2-0.1,0.6-0.5,1.1-0.9h-1.6v-0.4h4.9v0.4h-2.7
		c-0.4,0.4-0.9,0.8-1.3,1.1l3-0.2c-0.2-0.2-0.4-0.4-0.6-0.6l0.4-0.2c0.5,0.4,1.2,1,1.5,1.4L258.9,56.6z"/>
</g>
<path class="st1" d="M129.5,108c0,1.1,0.9,2,2,2h69c1.1,0,2-0.9,2-2V95c0-1.1-0.9-2-2-2h-69c-1.1,0-2,0.9-2,2V108z"/>
<g>
	<path class="st2" d="M156.8,102.5c0-0.1-0.1-0.3-0.1-0.5c-1.7,0.3-1.9,0.4-2.1,0.5c0-0.1-0.1-0.3-0.2-0.5c0.2,0,0.3-0.2,0.6-0.5
		c0.1-0.2,0.4-0.5,0.7-1c-0.9,0.1-1,0.2-1.2,0.2c0-0.1-0.1-0.4-0.2-0.5c0.1,0,0.3-0.2,0.4-0.4c0.2-0.2,0.7-1.2,1-2l0.5,0.2
		c-0.3,0.8-0.7,1.6-1.1,2.2l0.9-0.1c0.2-0.3,0.4-0.7,0.6-1.1l0.4,0.2c-0.5,1-1.1,1.9-1.8,2.7l1.3-0.2c-0.1-0.2-0.2-0.5-0.3-0.7
		l0.4-0.1c0.2,0.5,0.4,1.1,0.5,1.5L156.8,102.5z M155.3,103c-0.1,0.7-0.3,1.4-0.5,1.9c-0.1,0-0.3-0.1-0.4-0.1
		c0.2-0.5,0.4-1.2,0.4-1.8L155.3,103z M156,102.9c0.1,0.5,0.2,1.2,0.2,1.7l-0.4,0.1c0-0.5-0.1-1.2-0.2-1.7L156,102.9z M156.7,102.7
		c0.1,0.4,0.3,1,0.4,1.4l-0.4,0.1c-0.1-0.4-0.2-1-0.4-1.4L156.7,102.7z M157,104.4c0.2-0.4,0.4-1.1,0.5-1.6l0.4,0.1
		c-0.1,0.5-0.3,1.2-0.5,1.7L157,104.4z M161.3,102.2h-3.7v-3.7h1.1c0.1-0.2,0.2-0.6,0.3-0.8l0.5,0.1c-0.1,0.2-0.2,0.5-0.4,0.7h2.2
		V102.2z M160.8,99h-2.7v2.8h2.7V99z M160.1,104.5c0.3,0,0.3-0.1,0.3-0.9c0.1,0.1,0.3,0.1,0.4,0.2c-0.1,0.9-0.2,1.1-0.7,1.1h-1.2
		c-0.6,0-0.8-0.1-0.8-0.6v-1.4h0.5v1.4c0,0.2,0.1,0.2,0.4,0.2H160.1z M160.3,101.5c-0.1-0.2-0.3-0.4-0.5-0.7c-0.3,0.3-0.6,0.6-1,0.9
		c-0.1-0.1-0.2-0.2-0.3-0.3c0.4-0.2,0.7-0.6,1-0.9c-0.1-0.1-0.2-0.3-0.4-0.4c-0.2,0.2-0.4,0.4-0.7,0.6c-0.1-0.1-0.2-0.2-0.3-0.2
		c0.3-0.2,0.5-0.4,0.7-0.6c-0.2-0.2-0.3-0.3-0.5-0.5l0.3-0.2c0.2,0.1,0.3,0.2,0.4,0.4c0.1-0.2,0.3-0.4,0.3-0.5l0.4,0.1
		c-0.1,0.2-0.3,0.5-0.5,0.7c0.1,0.1,0.3,0.2,0.4,0.4c0.2-0.2,0.4-0.5,0.5-0.7l0.4,0.1c-0.2,0.3-0.4,0.6-0.6,0.9
		c0.2,0.3,0.4,0.5,0.6,0.7L160.3,101.5z M159.8,103.8c-0.2-0.3-0.5-0.9-0.8-1.3l0.4-0.2c0.3,0.4,0.6,0.9,0.8,1.2L159.8,103.8z
		 M161,102.8c0.3,0.5,0.6,1.1,0.7,1.5l-0.4,0.2c-0.1-0.4-0.4-1.1-0.7-1.6L161,102.8z"/>
	<path class="st2" d="M163.8,103c-0.1,0.7-0.2,1.4-0.4,2c-0.1,0-0.3-0.1-0.4-0.2c0.2-0.5,0.3-1.2,0.4-1.9L163.8,103z M165.4,102.6
		c0-0.1-0.1-0.3-0.1-0.4c-1.7,0.3-2,0.3-2.1,0.4c0-0.1-0.1-0.4-0.2-0.5c0.2,0,0.4-0.2,0.6-0.5c0.1-0.2,0.4-0.5,0.7-1
		c-0.9,0.1-1,0.1-1.2,0.2c0-0.1-0.1-0.4-0.2-0.5c0.1,0,0.3-0.2,0.4-0.4c0.2-0.2,0.7-1.2,1.1-2L165,98c-0.4,0.8-0.8,1.6-1.2,2.2
		l0.9-0.1c0.2-0.3,0.4-0.7,0.6-1.1l0.5,0.3c-0.5,0.9-1.2,1.9-1.8,2.6l1.3-0.2c-0.1-0.3-0.2-0.6-0.3-0.8l0.4-0.1
		c0.2,0.5,0.4,1.2,0.5,1.6L165.4,102.6z M164.6,102.9c0.1,0.5,0.2,1.2,0.2,1.7l-0.4,0.1c0-0.5-0.1-1.2-0.2-1.7L164.6,102.9z
		 M165.3,102.7c0.2,0.4,0.4,1,0.4,1.4l-0.4,0.1c-0.1-0.4-0.2-0.9-0.4-1.4L165.3,102.7z M170.2,104.4v0.5h-4.6v-0.5h2.1v-1.6h-1.6
		v-0.5h3.8v0.5h-1.6v1.6H170.2z M166.8,102c-0.2-0.4-0.6-1-1-1.6c0.3-0.5,0.7-1.1,0.8-1.5l0.5,0.1c-0.2,0.4-0.5,0.9-0.8,1.3
		c0.4,0.5,0.7,1,0.9,1.4L166.8,102z M170.2,98.7H166v-0.5h4.2V98.7z M168.6,99.1c-0.2,0.4-0.5,0.9-0.8,1.3c0.4,0.5,0.7,1,0.9,1.4
		l-0.4,0.2c-0.2-0.4-0.6-1-1-1.6c0.3-0.5,0.7-1.1,0.9-1.5L168.6,99.1z M169.7,102c-0.2-0.4-0.6-1-1.1-1.6c0.3-0.5,0.7-1.1,0.9-1.5
		l0.5,0.1c-0.2,0.4-0.6,0.9-0.8,1.3c0.4,0.5,0.8,1,1,1.4L169.7,102z"/>
	<path class="st2" d="M174.1,103.4c-0.8,0.3-1.8,0.6-2.5,0.8l-0.1-0.5c0.3-0.1,0.7-0.2,1.1-0.3v-2.2h-0.9v-0.5h0.9v-1.8h-1v-0.5h2.4
		v0.5h-0.9v1.8h0.8v0.5h-0.8v2.1c0.3-0.1,0.6-0.2,0.9-0.3L174.1,103.4z M178.9,104.3v0.5h-5.2v-0.5h2.5v-1.2h-1.8v-0.5h1.8v-1h-1.7
		v-3.5h4.1v3.5h-1.8v1h1.9v0.5h-1.9v1.2H178.9z M175,99.7h1.3v-1.1H175V99.7z M175,101.2h1.3v-1.1H175V101.2z M178,98.6h-1.3v1.1
		h1.3V98.6z M178,100.1h-1.3v1.1h1.3V100.1z"/>
</g>
<g>
	<g>
		<path class="st4" d="M22.5,240.7c0,2.2,1.8,4,4,4h22.1c2.2,0,4-1.8,4-4v-95c0-2.2-1.8-4-4-4H26.5c-2.2,0-4,1.8-4,4V240.7z"/>
		<path class="st5" d="M22.5,240.7c0,2.2,1.8,4,4,4h22.1c2.2,0,4-1.8,4-4v-95c0-2.2-1.8-4-4-4H26.5c-2.2,0-4,1.8-4,4V240.7z"/>
	</g>
	<g>
		<path class="st4" d="M-0.8,240.7c0,2.2,1.8,4,4,4H18c2.2,0,4-1.8,4-4v-95c0-2.2-1.8-4-4-4H3.2c-2.2,0-4,1.8-4,4V240.7z"/>
		<path class="st5" d="M-0.8,240.7c0,2.2,1.8,4,4,4H18c2.2,0,4-1.8,4-4v-95c0-2.2-1.8-4-4-4H3.2c-2.2,0-4,1.8-4,4V240.7z"/>
	</g>
	<g>
		<path class="st6" d="M52.5,240.7c0,2.2,1.8,4,4,4h14.8c2.2,0,4-1.8,4-4v-95c0-2.2-1.8-4-4-4H56.5c-2.2,0-4,1.8-4,4V240.7z"/>
		<path class="st5" d="M52.5,240.7c0,2.2,1.8,4,4,4h14.8c2.2,0,4-1.8,4-4v-95c0-2.2-1.8-4-4-4H56.5c-2.2,0-4,1.8-4,4V240.7z"/>
	</g>
	<g>
		<path class="st7" d="M75.4,240.7c0,2.2,1.8,4,4,4h14.8c2.2,0,4-1.8,4-4v-95c0-2.2-1.8-4-4-4H79.4c-2.2,0-4,1.8-4,4V240.7z"/>
		<path class="st5" d="M75.4,240.7c0,2.2,1.8,4,4,4h14.8c2.2,0,4-1.8,4-4v-95c0-2.2-1.8-4-4-4H79.4c-2.2,0-4,1.8-4,4V240.7z"/>
	</g>
	<g>
		<path class="st8" d="M98.2,240.7c0,2.2,1.8,4,4,4h14.8c2.2,0,4-1.8,4-4v-95c0-2.2-1.8-4-4-4h-14.8c-2.2,0-4,1.8-4,4V240.7z"/>
		<path class="st5" d="M98.2,240.7c0,2.2,1.8,4,4,4h14.8c2.2,0,4-1.8,4-4v-95c0-2.2-1.8-4-4-4h-14.8c-2.2,0-4,1.8-4,4V240.7z"/>
	</g>
	<g>
		<path class="st9" d="M121.1,240.7c0,2.2,1.8,4,4,4h14.8c2.2,0,4-1.8,4-4v-95c0-2.2-1.8-4-4-4h-14.8c-2.2,0-4,1.8-4,4V240.7z"/>
		<path class="st5" d="M121.1,240.7c0,2.2,1.8,4,4,4h14.8c2.2,0,4-1.8,4-4v-95c0-2.2-1.8-4-4-4h-14.8c-2.2,0-4,1.8-4,4V240.7z"/>
	</g>
	<g>
		<path class="st10" d="M143.9,240.7c0,2.2,1.8,4,4,4h14.8c2.2,0,4-1.8,4-4v-95c0-2.2-1.8-4-4-4h-14.8c-2.2,0-4,1.8-4,4V240.7z"/>
		<path class="st5" d="M143.9,240.7c0,2.2,1.8,4,4,4h14.8c2.2,0,4-1.8,4-4v-95c0-2.2-1.8-4-4-4h-14.8c-2.2,0-4,1.8-4,4V240.7z"/>
	</g>
	<g>
		<path class="st9" d="M166.8,240.7c0,2.2,1.8,4,4,4h14.8c2.2,0,4-1.8,4-4v-95c0-2.2-1.8-4-4-4h-14.8c-2.2,0-4,1.8-4,4V240.7z"/>
		<path class="st5" d="M166.8,240.7c0,2.2,1.8,4,4,4h14.8c2.2,0,4-1.8,4-4v-95c0-2.2-1.8-4-4-4h-14.8c-2.2,0-4,1.8-4,4V240.7z"/>
	</g>
	<g>
		<path class="st11" d="M189.6,240.7c0,2.2,1.8,4,4,4h14.8c2.2,0,4-1.8,4-4v-95c0-2.2-1.8-4-4-4h-14.8c-2.2,0-4,1.8-4,4V240.7z"/>
		<path class="st5" d="M189.6,240.7c0,2.2,1.8,4,4,4h14.8c2.2,0,4-1.8,4-4v-95c0-2.2-1.8-4-4-4h-14.8c-2.2,0-4,1.8-4,4V240.7z"/>
	</g>
	<g>
		<path class="st12" d="M212.5,240.7c0,2.2,1.8,4,4,4h14.8c2.2,0,4-1.8,4-4v-95c0-2.2-1.8-4-4-4h-14.8c-2.2,0-4,1.8-4,4V240.7z"/>
		<path class="st5" d="M212.5,240.7c0,2.2,1.8,4,4,4h14.8c2.2,0,4-1.8,4-4v-95c0-2.2-1.8-4-4-4h-14.8c-2.2,0-4,1.8-4,4V240.7z"/>
	</g>
	<g>
		<path class="st6" d="M235.3,240.7c0,2.2,1.8,4,4,4h14.8c2.2,0,4-1.8,4-4v-95c0-2.2-1.8-4-4-4h-14.8c-2.2,0-4,1.8-4,4V240.7z"/>
		<path class="st5" d="M235.3,240.7c0,2.2,1.8,4,4,4h14.8c2.2,0,4-1.8,4-4v-95c0-2.2-1.8-4-4-4h-14.8c-2.2,0-4,1.8-4,4V240.7z"/>
	</g>
	<g>
		<path class="st13" d="M258.2,240.7c0,2.2,1.8,4,4,4H277c2.2,0,4-1.8,4-4v-95c0-2.2-1.8-4-4-4h-14.8c-2.2,0-4,1.8-4,4V240.7z"/>
		<path class="st5" d="M258.2,240.7c0,2.2,1.8,4,4,4H277c2.2,0,4-1.8,4-4v-95c0-2.2-1.8-4-4-4h-14.8c-2.2,0-4,1.8-4,4V240.7z"/>
	</g>
	<g>
		<path class="st14" d="M303.8,240.7c0,2.2,1.8,4,4,4h14.8c2.2,0,4-1.8,4-4v-95c0-2.2-1.8-4-4-4h-14.8c-2.2,0-4,1.8-4,4V240.7z"/>
		<path class="st5" d="M303.8,240.7c0,2.2,1.8,4,4,4h14.8c2.2,0,4-1.8,4-4v-95c0-2.2-1.8-4-4-4h-14.8c-2.2,0-4,1.8-4,4V240.7z"/>
	</g>
	<g>
		<path class="st15" d="M281,240.7c0,2.2,1.8,4,4,4h14.8c2.2,0,4-1.8,4-4v-95c0-2.2-1.8-4-4-4H285c-2.2,0-4,1.8-4,4V240.7z"/>
		<path class="st5" d="M281,240.7c0,2.2,1.8,4,4,4h14.8c2.2,0,4-1.8,4-4v-95c0-2.2-1.8-4-4-4H285c-2.2,0-4,1.8-4,4V240.7z"/>
	</g>
	<g>
		<path class="st2" d="M14.2,157.1v0.5H7.1v-0.5h3v-6.2h0.6v2.5h3v0.5h-3v3.2H14.2z"/>
		<path class="st2" d="M8.3,164c-0.3-0.2-0.8-0.6-1.3-0.8l0.3-0.4c0.5,0.2,1,0.5,1.3,0.8L8.3,164z M7.2,167.2
			c0.3-0.6,0.8-1.7,1.1-2.6l0.4,0.3c-0.3,0.8-0.7,1.8-1,2.6L7.2,167.2z M7.7,160.5c0.5,0.2,1.1,0.6,1.4,0.8l-0.3,0.4
			c-0.3-0.3-0.9-0.6-1.4-0.8L7.7,160.5z M10.2,161.8c-0.3,0.5-0.6,1-0.9,1.4c-0.1-0.1-0.3-0.2-0.5-0.3c0.6-0.6,1.1-1.5,1.4-2.5
			l0.5,0.1c-0.1,0.3-0.2,0.5-0.3,0.8h3.7v0.5H10.2z M13.6,164.7c0,0.5-0.1,1-0.1,1.3h0.6v0.5h-0.6c-0.1,0.4-0.2,0.7-0.3,0.8
			c-0.1,0.2-0.3,0.2-0.5,0.3c-0.2,0-0.6,0-1,0c0-0.1-0.1-0.3-0.1-0.5c0.4,0,0.8,0,1,0c0.1,0,0.2,0,0.3-0.1c0.1-0.1,0.1-0.2,0.2-0.5
			H9.4c0.1-0.5,0.2-1.1,0.3-1.8H8.9v-0.5h0.8c0.1-0.6,0.2-1.2,0.2-1.6h3.8v0.3c0,0.5,0,1-0.1,1.4h0.6v0.5H13.6z M13,166
			c0-0.3,0.1-0.8,0.1-1.3h-3c-0.1,0.5-0.1,0.9-0.2,1.3H13z M10.4,163.1c0,0.4-0.1,0.8-0.2,1.2h2.9c0-0.4,0-0.7,0.1-1.2H10.4z
			 M11.8,166c-0.2-0.3-0.6-0.7-1-1l0.3-0.2c0.4,0.3,0.8,0.7,1,1L11.8,166z M11.4,163.1c0.4,0.3,0.8,0.6,0.9,0.9l-0.3,0.2
			c-0.2-0.3-0.6-0.7-0.9-0.9L11.4,163.1z"/>
		<path class="st2" d="M9.3,172.4H11v0.5H9.3v0.2c0.4,0.4,1.3,1.3,1.6,1.6l-0.3,0.4c-0.3-0.3-0.8-0.9-1.3-1.4v3.6H8.8v-3.6
			c-0.4,0.9-1,1.9-1.6,2.4c-0.1-0.2-0.2-0.4-0.3-0.5c0.6-0.6,1.4-1.8,1.8-2.8H7.1v-0.5h1.7V171c-0.5,0.1-1.1,0.2-1.6,0.2
			c0-0.1-0.1-0.3-0.2-0.4c1.2-0.2,2.6-0.4,3.3-0.8l0.4,0.4c-0.4,0.2-0.9,0.3-1.5,0.4V172.4z M12.2,175.3h-0.5v-4.4h0.5V175.3z
			 M13.9,170.1v6.4c0,0.4-0.1,0.5-0.3,0.6c-0.3,0.1-0.7,0.1-1.4,0.1c0-0.1-0.1-0.4-0.2-0.5c0.6,0,1.1,0,1.2,0c0.1,0,0.2,0,0.2-0.2
			v-6.4H13.9z"/>
		<path class="st2" d="M9.5,184.9l0.1,0.5c-0.9,0.2-1.8,0.5-2.4,0.6L7,185.5c0.3-0.1,0.8-0.2,1.3-0.3c0.2-0.9,0.4-2.3,0.5-3.3
			l0.5,0.1c-0.1,1-0.3,2.2-0.5,3.1L9.5,184.9z M9.5,181.6H7.1v-0.5h2.4V181.6z M7.7,184.9c0-0.8-0.2-2-0.4-2.9l0.4-0.1
			c0.2,0.9,0.4,2.1,0.4,2.9L7.7,184.9z M8.2,181c-0.1-0.3-0.2-0.8-0.4-1.2l0.5-0.2c0.1,0.4,0.3,0.9,0.4,1.2L8.2,181z M11.8,186.1
			c0,0.3-0.1,0.5-0.3,0.6c-0.2,0.1-0.6,0.1-1.2,0.1c0-0.1-0.1-0.3-0.1-0.5c0.4,0,0.8,0,0.9,0c0.1,0,0.2,0,0.2-0.2v-2.2
			c-0.5,0.5-1,0.9-1.4,1.3l-0.3-0.4c0.4-0.3,1-0.9,1.6-1.4v-2.9H9.8V180h2V186.1z M10.3,181.3c0.2,0.5,0.5,1.2,0.6,1.5l-0.4,0.1
			c-0.1-0.4-0.4-1.1-0.6-1.6L10.3,181.3z M14,186.2c0,0.3-0.1,0.5-0.3,0.6c-0.2,0.1-0.6,0.1-1.2,0.1c0-0.1-0.1-0.3-0.1-0.5
			c0.4,0,0.8,0,1,0c0.1,0,0.2,0,0.2-0.2v-2.4c-0.4,0.4-0.9,0.9-1.3,1.2l-0.3-0.4c0.4-0.3,1-0.9,1.6-1.4v-2.8H12V180h2V186.2z
			 M12.4,181.3c0.2,0.5,0.5,1.2,0.6,1.5l-0.4,0.2c-0.1-0.4-0.4-1.1-0.6-1.6L12.4,181.3z"/>
	</g>
	<g>
		<path class="st2" d="M62.8,152.7c-0.3,0.4-0.6,0.8-0.9,1.2v4.2h-0.5v-3.6c-0.3,0.3-0.6,0.6-1,0.9c-0.1-0.1-0.3-0.3-0.4-0.4
			c0.8-0.6,1.7-1.5,2.2-2.4L62.8,152.7z M62.5,151c-0.5,0.7-1.3,1.5-2,2c-0.1-0.1-0.2-0.3-0.3-0.4c0.7-0.4,1.4-1.2,1.8-1.7L62.5,151
			z M67.5,154h-1.2v3.4c0,0.3-0.1,0.5-0.3,0.6c-0.3,0.1-0.7,0.1-1.5,0.1c0-0.1-0.1-0.4-0.2-0.5c0.6,0,1.1,0,1.3,0
			c0.1,0,0.2,0,0.2-0.2V154H63v-0.5h4.5V154z M67.2,151.8h-3.9v-0.5h3.9V151.8z"/>
		<path class="st2" d="M66.9,162.3c-0.2,1.3-0.6,2.4-1.1,3.3c0.4,0.7,1,1.2,1.7,1.6c-0.1,0.1-0.3,0.3-0.4,0.4
			c-0.7-0.4-1.2-0.9-1.6-1.5c-0.5,0.6-1.1,1.1-1.8,1.5c0-0.1-0.2-0.3-0.3-0.5c0.8-0.4,1.4-0.9,1.9-1.6c-0.4-0.7-0.6-1.5-0.9-2.4
			c-0.2,0.4-0.4,0.7-0.6,1c-0.1-0.1-0.3-0.3-0.4-0.3l0.1-0.1h-1v2.1c0.5-0.1,1-0.2,1.4-0.3l0,0.5c-1.3,0.3-2.7,0.7-3.7,0.9l-0.1-0.5
			c0.2,0,0.3-0.1,0.5-0.1v-3.6h0.5v3.5c0.3-0.1,0.6-0.1,0.9-0.2v-4.5h-1.7V161h3.7v0.5h-1.4v1.8h1.1v0.3c0.5-0.8,0.9-2,1.1-3.2
			l0.5,0.1c-0.1,0.5-0.2,1-0.4,1.4h2.5v0.5H66.9z M64.7,162.5c0.2,1,0.4,1.9,0.8,2.7c0.4-0.8,0.7-1.7,0.8-2.8h-1.6L64.7,162.5z"/>
		<path class="st2" d="M61.4,171c-0.2,0.4-0.5,0.8-0.8,1c-0.1-0.1-0.3-0.3-0.4-0.4c0.5-0.4,1-1.1,1.2-1.8l0.5,0.1
			c-0.1,0.2-0.2,0.3-0.2,0.5h2.1v0.4h-1.6c0.2,0.2,0.6,0.5,0.7,0.7l-0.4,0.3c-0.2-0.2-0.5-0.5-0.8-0.8l0.3-0.2H61.4z M63.9,171.6
			c0.1,0.2,0.2,0.4,0.3,0.6h2.9v1.3h-0.5v-0.9h-5.4v0.9h-0.5v-1.3h2.9c-0.1-0.2-0.2-0.4-0.3-0.5L63.9,171.6z M62.1,175.3h4.5v1.9H66
			V177h-3.9v0.3h-0.5v-4.1h4.6v1.6h-4V175.3z M62.1,173.6v0.7h3.5v-0.7H62.1z M62.1,175.7v0.8H66v-0.8H62.1z M67.5,170.6v0.4h-2.8
			c-0.2,0.3-0.4,0.5-0.6,0.7c-0.1-0.1-0.3-0.2-0.4-0.3c0.4-0.3,0.8-0.9,1-1.4l0.5,0.1c-0.1,0.2-0.2,0.4-0.2,0.5H67.5z M66.2,172.1
			c-0.2-0.2-0.6-0.6-0.8-0.8l0.3-0.3c0.3,0.2,0.7,0.6,0.9,0.8L66.2,172.1z"/>
		<path class="st2" d="M62.7,185.2c-0.8,0.3-1.8,0.6-2.5,0.8l-0.1-0.5c0.3-0.1,0.7-0.2,1.1-0.3v-2.2h-0.9v-0.5h0.9v-1.8h-1v-0.5h2.4
			v0.5h-0.9v1.8h0.8v0.5h-0.8v2.1c0.3-0.1,0.6-0.2,0.9-0.3L62.7,185.2z M67.5,186.1v0.5h-5.2v-0.5h2.5v-1.2H63v-0.5h1.8v-1h-1.7
			v-3.5h4.1v3.5h-1.8v1h1.9v0.5h-1.9v1.2H67.5z M63.6,181.5h1.3v-1.1h-1.3V181.5z M63.6,183h1.3v-1.1h-1.3V183z M66.7,180.4h-1.3
			v1.1h1.3V180.4z M66.7,181.9h-1.3v1.1h1.3V181.9z"/>
		<path class="st2" d="M64,193.4c-0.2,0.8-0.4,1.4-0.8,1.9c0.6,0.5,1.4,0.6,2.3,0.6c0.2,0,1.7,0,2,0c-0.1,0.1-0.1,0.3-0.2,0.5h-1.9
			c-1.1,0-2-0.2-2.6-0.8c-0.4,0.4-0.9,0.7-1.5,0.9c0-0.1-0.2-0.3-0.3-0.4c0.6-0.2,1.1-0.5,1.5-0.9c-0.2-0.3-0.3-0.6-0.5-1
			c-0.2,0.2-0.4,0.4-0.6,0.6c-0.1-0.1-0.2-0.2-0.3-0.3c-0.1,0.7-0.3,1.3-0.6,1.9c-0.1-0.1-0.3-0.3-0.4-0.3c0.6-1,0.7-2.5,0.7-3.5v-2
			h2.6v-1.5H64v0.5h2.8v0.4H64v0.5h2.9l0.1,0l0.4,0.1c-0.2,0.4-0.4,1-0.6,1.3l-0.4-0.1c0.1-0.2,0.2-0.5,0.3-0.8H64v0.5l2.1-0.1
			l0,0.4L64,192v0.2c0,0.2,0,0.3,0.3,0.3h1.9c0.2,0,0.6,0,0.8,0c0,0.1,0,0.3,0,0.4c-0.1,0-0.5,0-0.8,0h-2c-0.6,0-0.8-0.2-0.8-0.7
			V192l-1.6,0.1l0-0.4l1.7-0.1v-0.6h-2.1v1.5c0,0.6,0,1.3-0.1,2c0.6-0.5,1-1.1,1.3-1.9l0.4,0.1c-0.1,0.2-0.1,0.4-0.2,0.5h1l0.1,0
			L64,193.4z M62.5,193.7c0,0.1-0.1,0.1-0.1,0.2c0.1,0.4,0.3,0.8,0.5,1c0.3-0.3,0.5-0.7,0.6-1.2H62.5z M66.3,195.4
			c-0.4,0-0.5-0.1-0.5-0.5v-1.2H65v0.2c0,0.5-0.1,1.2-0.8,1.6c-0.1-0.1-0.2-0.3-0.3-0.3c0.5-0.4,0.6-0.9,0.6-1.3v-0.6h1.7v1.6
			c0,0.2,0,0.2,0.1,0.2h0.3c0.1,0,0.1-0.1,0.2-0.5c0.1,0.1,0.2,0.1,0.3,0.1c0,0.5-0.2,0.7-0.4,0.7H66.3z"/>
	</g>
	<g>
		<path class="st2" d="M85.2,152.9H83v-0.4h2.3V152.9z M85.8,157.1c-0.6,0.4-1.6,0.7-2.4,1c-0.1-0.1-0.3-0.3-0.4-0.4
			c0.8-0.2,1.8-0.5,2.4-0.8L85.8,157.1z M85,151.7h-1.9v-0.4H85V151.7z M89.2,156.8H84v-3.2h5.1V156.8z M88.6,154h-4.1v0.6h4.1V154z
			 M88.6,154.9h-4.1v0.6h4.1V154.9z M88.6,155.8h-4.1v0.6h4.1V155.8z M87.9,151.8c0,0.1,0,0.2,0,0.3c0.4,0.5,1.3,0.8,2.3,0.9
			c-0.1,0.1-0.2,0.3-0.3,0.4c-0.9-0.1-1.7-0.5-2.2-1c-0.3,0.4-0.9,0.8-2.3,1c-0.1-0.1-0.2-0.3-0.3-0.4c2.1-0.3,2.3-0.9,2.3-1.3v-0.1
			h-0.9c-0.2,0.3-0.4,0.6-0.6,0.8c-0.1-0.1-0.3-0.2-0.4-0.3c0.4-0.4,0.7-1,0.9-1.5l0.5,0.1c-0.1,0.2-0.1,0.3-0.2,0.5h2.8l0.1,0
			l0.4,0.1c-0.2,0.4-0.5,0.9-0.7,1.1l-0.4-0.2c0.1-0.2,0.3-0.4,0.4-0.7L87.9,151.8L87.9,151.8z M87.7,156.9c0.9,0.3,1.8,0.6,2.4,0.8
			l-0.5,0.3c-0.5-0.2-1.4-0.6-2.3-0.9L87.7,156.9z"/>
		<path class="st2" d="M85.9,164.8c-0.2-0.3-0.6-0.9-1-1.3v4.2h-0.5v-4c-0.4,1-0.8,1.9-1.3,2.5c-0.1-0.2-0.2-0.4-0.3-0.5
			c0.6-0.7,1.2-1.9,1.5-3.1h-1.3v-0.5h1.4v-1.7h0.5v1.7h1.1v0.5h-1.1v0.2c0.3,0.3,1.1,1.3,1.3,1.5L85.9,164.8z M90.2,162.6h-0.8v4.3
			c0,0.4-0.1,0.6-0.4,0.6c-0.3,0.1-0.7,0.1-1.4,0.1c0-0.2-0.1-0.4-0.2-0.6c0.5,0,1.1,0,1.2,0c0.1,0,0.2,0,0.2-0.2v-3.6
			c-0.6,1.2-1.6,2.4-2.5,3c-0.1-0.1-0.2-0.3-0.4-0.4c1-0.7,2.1-2.1,2.7-3.3h-2.2v-0.5h2.4v-1.7h0.6v1.7h0.8V162.6z"/>
		<path class="st2" d="M86.7,174.2c-0.2,0.8-0.4,1.4-0.8,1.9c0.6,0.5,1.4,0.6,2.3,0.6c0.2,0,1.7,0,2,0c-0.1,0.1-0.1,0.3-0.2,0.5
			h-1.9c-1.1,0-2-0.2-2.6-0.8c-0.4,0.4-0.9,0.7-1.5,0.9c0-0.1-0.2-0.3-0.3-0.4c0.6-0.2,1.1-0.5,1.5-0.9c-0.2-0.3-0.3-0.6-0.5-1
			c-0.2,0.2-0.4,0.4-0.6,0.6c-0.1-0.1-0.2-0.2-0.3-0.3c-0.1,0.7-0.3,1.3-0.6,1.9c-0.1-0.1-0.3-0.3-0.4-0.3c0.6-1,0.7-2.5,0.7-3.5v-2
			h2.6V170h0.5v0.5h2.8v0.4h-2.8v0.5h2.9l0.1,0l0.4,0.1c-0.2,0.4-0.4,1-0.6,1.3l-0.4-0.1c0.1-0.2,0.2-0.5,0.3-0.8h-2.7v0.5l2.1-0.1
			l0,0.4l-2.1,0.1v0.2c0,0.2,0,0.3,0.3,0.3h1.9c0.2,0,0.6,0,0.8,0c0,0.1,0,0.3,0,0.4c-0.1,0-0.5,0-0.8,0h-2c-0.6,0-0.8-0.2-0.8-0.7
			v-0.2l-1.6,0.1l0-0.4l1.7-0.1v-0.6h-2.1v1.5c0,0.6,0,1.3-0.1,2c0.6-0.5,1-1.1,1.3-1.9l0.4,0.1c-0.1,0.2-0.1,0.4-0.2,0.5h1l0.1,0
			L86.7,174.2z M85.2,174.5c0,0.1-0.1,0.1-0.1,0.2c0.1,0.4,0.3,0.8,0.5,1c0.3-0.3,0.5-0.7,0.6-1.2H85.2z M89,176.2
			c-0.4,0-0.5-0.1-0.5-0.5v-1.2h-0.9v0.2c0,0.5-0.1,1.2-0.8,1.6c-0.1-0.1-0.2-0.3-0.3-0.3c0.5-0.4,0.6-0.9,0.6-1.3v-0.6H89v1.6
			c0,0.2,0,0.2,0.1,0.2h0.3c0.1,0,0.1-0.1,0.2-0.5c0.1,0.1,0.2,0.1,0.3,0.1c0,0.5-0.2,0.7-0.4,0.7H89z"/>
	</g>
	<g>
		<path class="st2" d="M112.4,156.9v0.5h-7.1v-0.5h3.2v-4.7h-2.8v-0.5h6.3v0.5h-2.9v4.7H112.4z"/>
		<path class="st2" d="M110.6,164.1c-0.2,0.7-0.5,1.3-1,1.8c1,0.4,1.9,0.9,2.5,1.3l-0.4,0.5c-0.6-0.4-1.5-0.9-2.5-1.3
			c-0.8,0.7-1.9,1.1-3.4,1.4c-0.1-0.1-0.2-0.4-0.4-0.5c1.4-0.2,2.4-0.5,3.2-1.1c-0.8-0.3-1.5-0.6-2.2-0.8c0.2-0.3,0.5-0.7,0.8-1.2
			h-1.8v-0.5h2.1c0.3-0.5,0.5-1,0.7-1.4l0.6,0.1c-0.2,0.4-0.4,0.9-0.6,1.3h2c0.1-0.2,0.1-0.5,0.2-0.8l0.6,0.1c0,0.3-0.1,0.5-0.2,0.7
			h1.5v0.5H110.6z M106.2,162.9h-0.5v-1.6h3c-0.1-0.3-0.3-0.6-0.4-0.8l0.5-0.1c0.2,0.3,0.4,0.7,0.5,1h2.8v1.6h-0.6v-1.1h-5.3V162.9z
			 M107.8,164.1c-0.2,0.3-0.4,0.6-0.6,0.9c0.6,0.2,1.2,0.4,1.9,0.7c0.4-0.4,0.7-0.9,0.9-1.6H107.8z"/>
		<path class="st2" d="M112,171.4v3.7h-0.5v-0.5h-2.4v2.6h-0.6v-2.6h-2.4v0.5h-0.5v-3.7h2.9V170h0.6v1.4H112z M108.5,174.1v-2.2
			h-2.4v2.2H108.5z M111.5,174.1v-2.2h-2.4v2.2H111.5z"/>
		<path class="st2" d="M106.5,182.5c-0.1,0.9-0.4,2.3-0.7,3.1l-0.5-0.2c0.4-0.8,0.6-2.1,0.7-3L106.5,182.5z M107.8,181.8v4
			c0,0.4,0.1,0.4,0.6,0.4h1.6c0.5,0,0.6-0.3,0.6-1.7c0.1,0.1,0.4,0.2,0.5,0.2c-0.1,1.5-0.2,2-1.1,2h-1.7c-0.8,0-1.1-0.2-1.1-1v-4
			H107.8z M108,179.9c0.7,0.5,1.7,1.3,2.1,1.8l-0.4,0.4c-0.4-0.5-1.4-1.3-2.1-1.8L108,179.9z M111.4,182.2c0.5,1,0.9,2.2,1.1,3
			l-0.5,0.2c-0.2-0.8-0.6-2.1-1.1-3L111.4,182.2z"/>
	</g>
	<g>
		<path class="st2" d="M129,154.6h2.8v3.4h-0.5v-0.4h-1.8v0.4H129V154.6z M129.5,155.1v2h1.8v-2H129.5z M134.5,153.7h-4.3v-2.6h4.3
			V153.7z M134,151.6h-3.2v1.6h3.2V151.6z M135.7,154.6v3.4h-0.5v-0.4h-1.9v0.4h-0.5v-3.5H135.7z M135.2,157.1v-2h-1.9v2H135.2z"/>
		<path class="st2" d="M131.1,160.6c-0.2,0.6-0.5,1.2-0.8,1.7v5.4h-0.5V163c-0.3,0.4-0.6,0.8-0.9,1.1c-0.1-0.1-0.2-0.4-0.3-0.5
			c0.8-0.8,1.6-2,2-3.2L131.1,160.6z M132.5,165.3c-0.4,0.7-0.9,1.5-1.4,2c-0.1-0.1-0.3-0.2-0.4-0.3c0.5-0.5,1-1.2,1.3-1.8
			L132.5,165.3z M133.7,164.7v2.9h-0.5v-2.9h-2.4v-0.5h2.4v-1h-1.8v-2.5h4.1v2.5h-1.8v1h2.3v0.5H133.7z M131.9,162.8h3.1v-1.5h-3.1
			V162.8z M134.5,165.1c0.5,0.6,1.1,1.3,1.4,1.8l-0.4,0.3c-0.3-0.5-0.9-1.3-1.4-1.9L134.5,165.1z"/>
		<path class="st2" d="M135.5,171.4v3.7H135v-0.5h-2.4v2.6H132v-2.6h-2.4v0.5h-0.5v-3.7h2.9V170h0.6v1.4H135.5z M132,174.1v-2.2
			h-2.4v2.2H132z M135,174.1v-2.2h-2.4v2.2H135z"/>
		<path class="st2" d="M130,182.5c-0.1,0.9-0.4,2.3-0.7,3.1l-0.5-0.2c0.4-0.8,0.6-2.1,0.7-3L130,182.5z M131.2,181.8v4
			c0,0.4,0.1,0.4,0.6,0.4h1.6c0.5,0,0.6-0.3,0.6-1.7c0.1,0.1,0.4,0.2,0.5,0.2c-0.1,1.5-0.2,2-1.1,2h-1.7c-0.8,0-1.1-0.2-1.1-1v-4
			H131.2z M131.4,179.9c0.7,0.5,1.7,1.3,2.1,1.8l-0.4,0.4c-0.4-0.5-1.4-1.3-2.1-1.8L131.4,179.9z M134.9,182.2c0.5,1,0.9,2.2,1.1,3
			l-0.5,0.2c-0.2-0.8-0.6-2.1-1.1-3L134.9,182.2z"/>
	</g>
	<g>
		<path class="st2" d="M152.6,154v1.3c0,0.9-0.1,2.1-0.8,2.9c-0.1-0.1-0.3-0.3-0.4-0.3c0.7-0.7,0.7-1.8,0.7-2.6v-1.7h1
			c-0.1-0.1-0.2-0.2-0.3-0.3c0.6-0.1,1.4-0.3,2.1-0.5c-0.6-0.2-1.3-0.4-1.8-0.5l0.3-0.3h-1.3v-0.4h3c-0.1-0.2-0.3-0.4-0.5-0.6
			l0.4-0.2c0.2,0.2,0.5,0.6,0.6,0.8h2.7v0.4h-1.2l0.3,0.2c-0.4,0.2-0.8,0.4-1.3,0.6c0.6,0.2,1.2,0.4,1.6,0.5l-0.3,0.3h1.1v0.4H152.6
			z M158.7,157.3v0.5h-5.9v-0.5h2.7v-0.9h-1.9V156h1.9v-0.8h-1.7c-0.2,0.4-0.5,0.7-0.8,1c-0.1-0.1-0.2-0.3-0.3-0.4
			c0.4-0.4,0.8-1.1,1.1-1.7l0.5,0.1c-0.1,0.2-0.2,0.4-0.2,0.6h1.5v-0.7h0.5v0.7h2.2v0.4h-2.2v0.8h2v0.4h-2v0.9H158.7z M157.2,153.5
			c-0.5-0.2-1.1-0.4-1.8-0.6c-0.7,0.2-1.5,0.4-2.2,0.6H157.2z M153.4,152c0.6,0.2,1.4,0.4,2.1,0.6c0.5-0.2,1-0.4,1.4-0.6H153.4z"/>
		<path class="st2" d="M151.7,164.2h2.8v3.4H154v-0.4h-1.8v0.4h-0.5V164.2z M152.2,164.7v2h1.8v-2H152.2z M157.2,163.3h-4.3v-2.6
			h4.3V163.3z M156.7,161.2h-3.2v1.6h3.2V161.2z M158.4,164.2v3.4h-0.5v-0.4h-1.9v0.4h-0.5v-3.5H158.4z M157.8,166.7v-2h-1.9v2
			H157.8z"/>
		<path class="st2" d="M157.7,173.2c-0.5,1.1-1.2,1.9-2.1,2.5c0.9,0.5,1.9,0.8,3.2,0.9c-0.1,0.1-0.3,0.4-0.3,0.5
			c-1.3-0.2-2.4-0.6-3.4-1.1c-1,0.6-2.2,0.9-3.4,1.2c-0.1-0.1-0.2-0.4-0.3-0.5c1.2-0.2,2.2-0.5,3.2-1c-0.8-0.6-1.4-1.3-1.8-2.2
			l0.2-0.1H152V173h2.7v-1.3h-3.1v-0.5h3.1V170h0.5v1.2h3.1v0.5h-3.1v1.3h1.9l0.1,0L157.7,173.2z M153.3,173.5
			c0.4,0.8,1,1.4,1.8,1.9c0.8-0.5,1.4-1.1,1.9-1.9H153.3z"/>
		<path class="st2" d="M153.8,183.7c-0.3,0.1-0.6,0.2-0.9,0.3v2.2c0,0.3-0.1,0.5-0.3,0.5c-0.2,0.1-0.5,0.1-1,0.1
			c0-0.1-0.1-0.3-0.2-0.5c0.4,0,0.7,0,0.8,0c0.1,0,0.1,0,0.1-0.2v-2l-1,0.3l-0.1-0.5c0.3-0.1,0.7-0.2,1.1-0.3v-2h-1v-0.5h1v-1.6h0.5
			v1.6h0.9v0.5h-0.9v1.8l0.9-0.3L153.8,183.7z M158,184c-0.2,0.8-0.6,1.3-1.1,1.8c0.5,0.3,1.2,0.5,1.8,0.6c-0.1,0.1-0.3,0.3-0.3,0.4
			c-0.7-0.2-1.4-0.4-1.9-0.8c-0.5,0.4-1.1,0.6-1.8,0.8c-0.1-0.1-0.2-0.3-0.3-0.4c0.6-0.1,1.2-0.4,1.7-0.6c-0.4-0.3-0.7-0.7-1-1.1
			c-0.3,0.8-0.8,1.6-1.6,2.2c-0.1-0.1-0.2-0.3-0.4-0.4c1.2-0.7,1.6-2,1.8-3.2h-1.1v-0.4h1.2c0-0.2,0.1-0.5,0.1-0.7H154v-0.4h2.8
			c0.3-0.4,0.6-1,0.8-1.4l0.5,0.2c-0.2,0.4-0.5,0.8-0.7,1.2h1v0.4h-2.8c0,0.2,0,0.5-0.1,0.7h3.1v0.4h-3.2c0,0.2-0.1,0.4-0.1,0.6h2.3
			l0.1,0L158,184z M158.2,180c-1.1,0.2-2.8,0.4-4.2,0.4c0-0.1-0.1-0.3-0.1-0.4c1.4-0.1,3.1-0.2,4-0.4L158.2,180z M154.6,181.7
			c-0.1-0.3-0.2-0.7-0.4-1l0.4-0.1c0.2,0.3,0.3,0.7,0.4,1L154.6,181.7z M155.4,184.3c0.3,0.5,0.6,0.9,1.1,1.2
			c0.4-0.3,0.7-0.7,0.9-1.2H155.4z M155.9,181.6c0-0.3-0.1-0.7-0.2-1.1l0.4-0.1c0.1,0.3,0.2,0.8,0.2,1.1L155.9,181.6z"/>
		<path class="st2" d="M158.6,194.2h-0.8v1.4h-0.5v-0.4h-2v0.6c0,0.4-0.1,0.5-0.3,0.6c-0.2,0.1-0.7,0.1-1.3,0.1
			c0-0.1-0.1-0.3-0.2-0.5c0.5,0,1,0,1.1,0c0.2,0,0.2,0,0.2-0.2v-0.6h-2.6v-0.4h2.6v-0.6h-3.3v-0.4h3.3v-0.6h-2.5v-0.4h2.5v-0.6h-2.3
			v-1.4h2.3v-0.5h-3.2v-0.4h3.2v-0.7h0.5v0.7h3.2v0.4h-3.2v0.5h2.4v1.4h-2.4v0.6h2.5v1h0.8V194.2z M154.7,191.8v-0.6h-1.8v0.6H154.7
			z M155.3,191.2v0.6h1.9v-0.6H155.3z M155.3,193.7h2v-0.6h-2V193.7z M157.3,194.2h-2v0.6h2V194.2z"/>
		<path class="st2" d="M154.3,204.8c-0.6,0.4-1.6,0.8-2.5,1c-0.1-0.1-0.2-0.3-0.3-0.4c0.8-0.1,1.9-0.5,2.4-0.8L154.3,204.8z
			 M158.5,203.7v0.5h-3.2v1.9h-0.5v-1.9h-3.2v-0.5h3.2v-0.6h-2.4v-0.4h2.4V202h-2.8v-0.4h1.8c-0.1-0.2-0.3-0.6-0.4-0.8l0.4-0.1h-2.1
			v-0.4h1.3c-0.1-0.3-0.4-0.8-0.7-1.2l0.4-0.2c0.3,0.4,0.6,0.9,0.7,1.2l-0.4,0.2h1v-1.4h0.5v1.4h1v-1.4h0.5v1.4h1l-0.3-0.1
			c0.2-0.3,0.5-0.9,0.6-1.2l0.5,0.2c-0.2,0.4-0.5,0.9-0.7,1.2h1.3v0.4h-2.1l0.5,0.1c-0.2,0.3-0.4,0.6-0.6,0.8h1.9v0.4h-2.9v0.6h2.5
			v0.4h-2.5v0.6H158.5z M153.8,200.7c0.2,0.3,0.4,0.6,0.4,0.8l-0.3,0.1h2.2l-0.3-0.1c0.2-0.2,0.4-0.6,0.5-0.8H153.8z M156.1,204.5
			c0.8,0.2,1.8,0.6,2.4,0.9l-0.3,0.4c-0.5-0.3-1.6-0.7-2.4-0.9L156.1,204.5z"/>
		<path class="st2" d="M155.2,212.6c-0.2,0.8-0.4,1.4-0.8,1.9c0.6,0.5,1.4,0.6,2.3,0.6c0.2,0,1.7,0,2,0c-0.1,0.1-0.1,0.3-0.2,0.5
			h-1.9c-1.1,0-2-0.2-2.6-0.8c-0.4,0.4-0.9,0.7-1.5,0.9c0-0.1-0.2-0.3-0.3-0.4c0.6-0.2,1.1-0.5,1.5-0.9c-0.2-0.3-0.3-0.6-0.5-1
			c-0.2,0.2-0.4,0.4-0.6,0.6c-0.1-0.1-0.2-0.2-0.3-0.3c-0.1,0.7-0.3,1.3-0.6,1.9c-0.1-0.1-0.3-0.3-0.4-0.3c0.6-1,0.7-2.5,0.7-3.5v-2
			h2.6v-1.5h0.5v0.5h2.8v0.4h-2.8v0.5h2.9l0.1,0l0.4,0.1c-0.2,0.4-0.4,1-0.6,1.3l-0.4-0.1c0.1-0.2,0.2-0.5,0.3-0.8h-2.7v0.5l2.1-0.1
			l0,0.4l-2.1,0.1v0.2c0,0.2,0,0.3,0.3,0.3h1.9c0.2,0,0.6,0,0.8,0c0,0.1,0,0.3,0,0.4c-0.1,0-0.5,0-0.8,0h-2c-0.6,0-0.8-0.2-0.8-0.7
			v-0.2l-1.6,0.1l0-0.4l1.7-0.1v-0.6h-2.1v1.5c0,0.6,0,1.3-0.1,2c0.6-0.5,1-1.1,1.3-1.9l0.4,0.1c-0.1,0.2-0.1,0.4-0.2,0.5h1l0.1,0
			L155.2,212.6z M153.7,212.9c0,0.1-0.1,0.1-0.1,0.2c0.1,0.4,0.3,0.8,0.5,1c0.3-0.3,0.5-0.7,0.6-1.2H153.7z M157.5,214.6
			c-0.4,0-0.5-0.1-0.5-0.5v-1.2h-0.9v0.2c0,0.5-0.1,1.2-0.8,1.6c-0.1-0.1-0.2-0.3-0.3-0.3c0.5-0.4,0.6-0.9,0.6-1.3v-0.6h1.7v1.6
			c0,0.2,0,0.2,0.1,0.2h0.3c0.1,0,0.1-0.1,0.2-0.5c0.1,0.1,0.2,0.1,0.3,0.1c0,0.5-0.2,0.7-0.4,0.7H157.5z"/>
	</g>
	<g>
		<path class="st2" d="M175.7,152v2c0,1.2-0.1,2.9-0.7,4.1c-0.1-0.1-0.3-0.3-0.4-0.3c0.5-1.1,0.6-2.7,0.6-3.8v-2.5h3.2
			c-0.1-0.2-0.3-0.5-0.4-0.7l0.5-0.2c0.2,0.2,0.4,0.6,0.5,0.8l-0.2,0.1h3.1v0.5H175.7z M176.7,153.7c-0.1-0.3-0.4-0.7-0.6-1.1
			l0.4-0.2c0.3,0.3,0.5,0.8,0.6,1L176.7,153.7z M181.6,153.8c-0.1,0.9-0.4,1.8-0.8,2.6c0.3,0.6,0.7,1,1.2,1.3
			c-0.1,0.1-0.2,0.2-0.3,0.4c-0.5-0.3-0.9-0.7-1.2-1.2c-0.3,0.5-0.8,0.9-1.3,1.2c-0.1-0.1-0.2-0.2-0.2-0.3c0,0-0.1,0.1-0.1,0.1
			c-0.2,0.1-0.5,0.1-1,0.1c0-0.1-0.1-0.3-0.1-0.4c0.4,0,0.7,0,0.8,0c0.1,0,0.1,0,0.1-0.1v-3.1h-2.2v3.7h-0.4v-4.1h1.2v-1.8h0.5v1.8
			h1.3v0.7c0.4-0.6,0.7-1.5,0.8-2.4l0.5,0.1c-0.1,0.4-0.2,0.8-0.3,1.1h1.9v0.5H181.6z M177.2,156.8v0.3h-0.3v-2.1h1.3v1.8H177.2z
			 M177.2,155.3v1.1h0.7v-1.1H177.2z M178,153.5c0.2-0.3,0.5-0.8,0.6-1.1l0.4,0.1c-0.2,0.4-0.5,0.8-0.7,1.1L178,153.5z M179.1,157.4
			c0,0.1,0,0.2,0,0.3c0.6-0.3,1-0.8,1.3-1.3c-0.3-0.6-0.5-1.2-0.6-1.9c-0.1,0.3-0.2,0.5-0.4,0.7c0,0-0.1-0.1-0.2-0.2V157.4z
			 M180,153.8c0.1,0.8,0.3,1.5,0.6,2.1c0.3-0.6,0.5-1.4,0.6-2.1H180z"/>
		<path class="st2" d="M181.3,161.7c-0.2,0.6-0.6,1-1,1.4c0.5,0.3,1.1,0.6,1.8,0.7c-0.1,0.1-0.3,0.3-0.3,0.5
			c-0.7-0.2-1.3-0.5-1.8-0.9c-0.5,0.4-1.1,0.6-1.8,0.8c0-0.1-0.1-0.2-0.2-0.3c-0.1,0.5-0.3,0.9-0.5,1.2l-0.4-0.2
			c0.2-0.3,0.3-0.8,0.5-1.3h-0.8v3.4c0,0.3-0.1,0.4-0.2,0.5c-0.2,0.1-0.5,0.1-1,0.1c0-0.1-0.1-0.3-0.2-0.5c0.4,0,0.7,0,0.8,0
			c0.1,0,0.1,0,0.1-0.1v-2.7c-0.3,0.8-0.8,1.6-1.2,2.1c-0.1-0.1-0.2-0.4-0.3-0.5c0.5-0.5,1-1.4,1.3-2.2h-1.2v-0.5h2.2
			c-0.4-0.4-1.2-0.8-1.8-1.1l0.3-0.3c0.3,0.1,0.5,0.2,0.8,0.4c0.3-0.2,0.6-0.6,0.9-0.9h-2.3v-0.5h2.7l0.1,0l0.3,0.2
			c-0.3,0.5-0.8,1-1.3,1.4c0.3,0.2,0.5,0.4,0.7,0.5l-0.3,0.3h0.6l0.1,0l0.3,0.1c0,0.2-0.1,0.3-0.1,0.5c0.6-0.2,1.1-0.4,1.5-0.7
			c-0.3-0.3-0.6-0.7-0.9-1c-0.2,0.2-0.4,0.4-0.6,0.6c-0.1-0.1-0.3-0.2-0.4-0.3c0.6-0.5,1.2-1.2,1.5-2l0.5,0.1
			c-0.1,0.2-0.2,0.5-0.4,0.7h2.7v0.5H181.3z M181.7,164.8c0,0,0,0.2,0,0.2c-0.1,1.5-0.3,2.1-0.5,2.4c-0.1,0.1-0.3,0.2-0.5,0.2
			c-0.2,0-0.5,0-0.9,0c0-0.1-0.1-0.4-0.1-0.5c0.4,0,0.7,0,0.8,0c0.1,0,0.2,0,0.3-0.1c0.2-0.2,0.3-0.6,0.4-1.8h-1.4
			c-0.3,1-0.8,1.9-2.1,2.4c-0.1-0.1-0.2-0.3-0.3-0.4c1.1-0.4,1.6-1.1,1.9-2h-1.3v-0.4h1.4c0.1-0.3,0.1-0.5,0.1-0.8h0.5
			c0,0.3-0.1,0.5-0.1,0.8H181.7z M178.9,161.7c0.2,0.4,0.5,0.8,0.9,1.1c0.3-0.3,0.6-0.7,0.8-1.1H178.9z"/>
		<path class="st2" d="M177.1,170.1c-0.2,0.6-0.5,1.2-0.8,1.7v5.4h-0.5v-4.6c-0.3,0.4-0.6,0.7-0.8,1c-0.1-0.1-0.2-0.4-0.3-0.5
			c0.8-0.8,1.6-2,2-3.2L177.1,170.1z M178.8,175.4c-0.4,0.7-1,1.4-1.5,1.9c-0.1-0.1-0.3-0.3-0.4-0.3c0.6-0.4,1.1-1.1,1.4-1.7
			L178.8,175.4z M182,174.2v0.5h-5.2v-0.5h1.3v-2H177v-0.5h1.1v-1.6h0.5v1.6h1.6v-1.6h0.5v1.6h1.2v0.5h-1.2v2H182z M178.6,174.2h1.6
			v-2h-1.6V174.2z M180.5,175.3c0.6,0.5,1.2,1.2,1.4,1.7l-0.4,0.3c-0.3-0.5-0.9-1.2-1.4-1.8L180.5,175.3z"/>
		<path class="st2" d="M182,180.2v0.5h-6.2v2v0.1c0.6-0.5,1.1-1.2,1.5-1.9l0.4,0.1c-0.2,0.3-0.3,0.6-0.5,0.9v2.8h-0.5v-2.1
			c-0.2,0.3-0.4,0.5-0.6,0.7c-0.1-0.1-0.2-0.2-0.3-0.3c0,1.2-0.1,2.9-0.7,4.1c-0.1-0.1-0.3-0.3-0.4-0.3c0.6-1.2,0.6-2.8,0.6-3.9
			v-2.4h3.2c-0.1-0.2-0.3-0.4-0.4-0.6l0.4-0.2c0.2,0.2,0.4,0.5,0.5,0.8H182z M175.8,186.4c0.5-0.3,0.8-0.9,0.9-1.4l0.4,0.2
			c-0.2,0.6-0.5,1.2-1,1.5L175.8,186.4z M178.1,182.3c-0.2,0.2-0.3,0.4-0.5,0.6c-0.1-0.1-0.3-0.2-0.4-0.3c0.5-0.5,1-1.2,1.3-1.9
			l0.5,0.1c-0.1,0.2-0.2,0.4-0.3,0.6h1.3c-0.1-0.2-0.3-0.4-0.4-0.6l0.4-0.2c0.2,0.2,0.4,0.5,0.5,0.7l-0.2,0.1h1.5v0.4h-1.4v0.4h1.2
			v0.3h-1.2v0.5h1.2v0.3h-1.2v0.5h1.6v0.4h-3.3v0.2h-0.5V182.3z M179.8,186.3c0.3,0,0.3-0.1,0.4-0.7c0.1,0.1,0.3,0.1,0.4,0.2
			c-0.1,0.8-0.2,1-0.7,1h-1.3c-0.7,0-0.9-0.1-0.9-0.6V185h0.5v1.2c0,0.2,0.1,0.2,0.4,0.2H179.8z M179.7,185.6
			c-0.3-0.2-0.8-0.6-1.3-0.8l0.3-0.3c0.5,0.2,1,0.5,1.4,0.8L179.7,185.6z M179.8,181.8h-1.3v0.4h1.3V181.8z M179.8,182.6h-1.3v0.5
			h1.3V182.6z M179.8,183.4h-1.3v0.5h1.3V183.4z M180.8,184.9c0.5,0.5,1,1.1,1.2,1.5l-0.4,0.2c-0.2-0.4-0.7-1.1-1.1-1.6L180.8,184.9
			z"/>
		<path class="st2" d="M182,194.2h-0.8v1.4h-0.5v-0.4h-2v0.6c0,0.4-0.1,0.5-0.3,0.6c-0.2,0.1-0.7,0.1-1.3,0.1c0-0.1-0.1-0.3-0.2-0.5
			c0.5,0,1,0,1.1,0c0.2,0,0.2,0,0.2-0.2v-0.6h-2.6v-0.4h2.6v-0.6h-3.3v-0.4h3.3v-0.6h-2.5v-0.4h2.5v-0.6h-2.3v-1.4h2.3v-0.5h-3.2
			v-0.4h3.2v-0.7h0.5v0.7h3.2v0.4h-3.2v0.5h2.4v1.4h-2.4v0.6h2.5v1h0.8V194.2z M178.1,191.8v-0.6h-1.8v0.6H178.1z M178.6,191.2v0.6
			h1.9v-0.6H178.6z M178.6,193.7h2v-0.6h-2V193.7z M180.6,194.2h-2v0.6h2V194.2z"/>
		<path class="st2" d="M177.7,204.8c-0.6,0.4-1.6,0.8-2.5,1c-0.1-0.1-0.2-0.3-0.3-0.4c0.8-0.1,1.9-0.5,2.4-0.8L177.7,204.8z
			 M181.9,203.7v0.5h-3.2v1.9h-0.5v-1.9h-3.2v-0.5h3.2v-0.6h-2.4v-0.4h2.4V202h-2.8v-0.4h1.8c-0.1-0.2-0.3-0.6-0.4-0.8l0.4-0.1h-2.1
			v-0.4h1.3c-0.1-0.3-0.4-0.8-0.7-1.2l0.4-0.2c0.3,0.4,0.6,0.9,0.7,1.2l-0.4,0.2h1v-1.4h0.5v1.4h1v-1.4h0.5v1.4h1l-0.3-0.1
			c0.2-0.3,0.5-0.9,0.6-1.2l0.5,0.2c-0.2,0.4-0.5,0.9-0.7,1.2h1.3v0.4h-2.1l0.5,0.1c-0.2,0.3-0.4,0.6-0.6,0.8h1.9v0.4h-2.9v0.6h2.5
			v0.4h-2.5v0.6H181.9z M177.1,200.7c0.2,0.3,0.4,0.6,0.4,0.8l-0.3,0.1h2.2l-0.3-0.1c0.2-0.2,0.4-0.6,0.5-0.8H177.1z M179.5,204.5
			c0.8,0.2,1.8,0.6,2.4,0.9l-0.3,0.4c-0.5-0.3-1.6-0.7-2.4-0.9L179.5,204.5z"/>
		<path class="st2" d="M178.5,212.6c-0.2,0.8-0.4,1.4-0.8,1.9c0.6,0.5,1.4,0.6,2.3,0.6c0.2,0,1.7,0,2,0c-0.1,0.1-0.1,0.3-0.2,0.5
			H180c-1.1,0-2-0.2-2.6-0.8c-0.4,0.4-0.9,0.7-1.5,0.9c0-0.1-0.2-0.3-0.3-0.4c0.6-0.2,1.1-0.5,1.5-0.9c-0.2-0.3-0.3-0.6-0.5-1
			c-0.2,0.2-0.4,0.4-0.6,0.6c-0.1-0.1-0.2-0.2-0.3-0.3c-0.1,0.7-0.3,1.3-0.6,1.9c-0.1-0.1-0.3-0.3-0.4-0.3c0.6-1,0.7-2.5,0.7-3.5v-2
			h2.6v-1.5h0.5v0.5h2.8v0.4h-2.8v0.5h2.9l0.1,0l0.4,0.1c-0.2,0.4-0.4,1-0.6,1.3l-0.4-0.1c0.1-0.2,0.2-0.5,0.3-0.8h-2.7v0.5l2.1-0.1
			l0,0.4l-2.1,0.1v0.2c0,0.2,0,0.3,0.3,0.3h1.9c0.2,0,0.6,0,0.8,0c0,0.1,0,0.3,0,0.4c-0.1,0-0.5,0-0.8,0h-2c-0.6,0-0.8-0.2-0.8-0.7
			v-0.2l-1.6,0.1l0-0.4l1.7-0.1v-0.6h-2.1v1.5c0,0.6,0,1.3-0.1,2c0.6-0.5,1-1.1,1.3-1.9l0.4,0.1c-0.1,0.2-0.1,0.4-0.2,0.5h1l0.1,0
			L178.5,212.6z M177,212.9c0,0.1-0.1,0.1-0.1,0.2c0.1,0.4,0.3,0.8,0.5,1c0.3-0.3,0.5-0.7,0.6-1.2H177z M180.9,214.6
			c-0.4,0-0.5-0.1-0.5-0.5v-1.2h-0.9v0.2c0,0.5-0.1,1.2-0.8,1.6c-0.1-0.1-0.2-0.3-0.3-0.3c0.5-0.4,0.6-0.9,0.6-1.3v-0.6h1.7v1.6
			c0,0.2,0,0.2,0.1,0.2h0.3c0.1,0,0.1-0.1,0.2-0.5c0.1,0.1,0.2,0.1,0.3,0.1c0,0.5-0.2,0.7-0.4,0.7H180.9z"/>
	</g>
	<g>
		<path class="st2" d="M201.8,155v0.4h1.9v2.7h-0.5v-0.3h-4.7v0.3H198v-2.7h2V155h-2.8v-0.4h7.2v0.4H201.8z M197.7,151.4h-0.2V151
			h3.5v0.4h-2.8v2.2c0,0.3,0.1,0.4,0.4,0.4h1.7c0.2,0,0.5,0,0.7,0c0,0.1,0,0.3,0,0.4c-0.1,0-0.4,0-0.7,0h-1.8
			c-0.6,0-0.8-0.2-0.8-0.8V151.4z M199.7,152.9L199.7,152.9c0.4,0.2,0.8,0.5,1,0.7l-0.2,0.3c-0.2-0.2-0.6-0.5-0.9-0.7
			c-0.2,0.3-0.4,0.5-1,0.7c-0.1-0.1-0.2-0.2-0.2-0.3c0.6-0.2,0.9-0.5,1-0.8h-1v-0.3h1.1v-0.1v-0.4h-0.5c-0.1,0.1-0.2,0.3-0.3,0.4
			c-0.1,0-0.2-0.1-0.3-0.2c0.3-0.3,0.5-0.6,0.6-0.9l0.3,0.1c0,0.1-0.1,0.2-0.1,0.3h1.6v0.3h-0.9v0.4v0.1h1.1v0.3H199.7z
			 M203.2,157.4v-0.9h-0.1H202c-0.5,0-0.7-0.1-0.7-0.5v-0.3h-0.9c-0.1,0.4-0.5,0.7-1.6,0.9c0-0.1-0.2-0.3-0.2-0.3
			c1-0.1,1.3-0.3,1.4-0.6h-1.5v1.7H203.2z M199.2,156.7h3.4v0.3h-3.4V156.7z M201.3,155h-0.9v0.4h0.9V155z M201.1,152.5
			c-0.1-0.1-0.2-0.3-0.3-0.3c0.6-0.2,0.7-0.5,0.7-0.8V151h1.9v0.8c0,0.2,0,0.2,0.1,0.2h0.4c0.1,0,0.2,0,0.3,0c0,0.1,0,0.3,0,0.4
			c-0.1,0-0.2,0-0.3,0h-0.4c-0.4,0-0.5-0.2-0.5-0.6v-0.4h-1v0C202,151.8,201.8,152.2,201.1,152.5l2.3,0l0.1,0l0.3,0.1
			c-0.2,0.4-0.5,0.8-0.8,1.1c0.4,0.2,0.8,0.4,1,0.5l-0.2,0.3c-0.3-0.2-0.7-0.4-1.2-0.6c-0.4,0.3-0.9,0.5-1.4,0.6
			c0-0.1-0.2-0.3-0.2-0.4c0.4-0.1,0.9-0.2,1.2-0.5c-0.3-0.2-0.7-0.3-1-0.5l0.2-0.3c0.4,0.1,0.8,0.3,1.2,0.5c0.2-0.2,0.5-0.4,0.6-0.6
			h-2L201.1,152.5L201.1,152.5z M201.8,155.7v0.3c0,0.2,0,0.2,0.3,0.2h1c0.1,0,0.1,0,0.2,0v-0.4H201.8z"/>
		<path class="st2" d="M200.2,164.8c-0.2-0.3-0.6-0.9-1-1.3v4.2h-0.5v-4c-0.4,1-0.8,1.9-1.3,2.5c-0.1-0.2-0.2-0.4-0.3-0.5
			c0.6-0.7,1.2-1.9,1.5-3.1h-1.3v-0.5h1.4v-1.7h0.5v1.7h1.1v0.5h-1.1v0.2c0.3,0.3,1.1,1.3,1.3,1.5L200.2,164.8z M204.4,162.6h-0.8
			v4.3c0,0.4-0.1,0.6-0.4,0.6c-0.3,0.1-0.7,0.1-1.4,0.1c0-0.2-0.1-0.4-0.2-0.6c0.5,0,1.1,0,1.2,0c0.1,0,0.2,0,0.2-0.2v-3.6
			c-0.6,1.2-1.6,2.4-2.5,3c-0.1-0.1-0.2-0.3-0.4-0.4c1-0.7,2.1-2.1,2.7-3.3h-2.2v-0.5h2.4v-1.7h0.6v1.7h0.8V162.6z"/>
		<path class="st2" d="M198.1,173v4.3h-0.5v-6.9h2.9v2.6H198.1z M198.1,170.7v0.7h1.8v-0.7H198.1z M199.9,172.6v-0.7h-1.8v0.7H199.9
			z M201.8,175.3v1.8h-0.5v-1.8h-1.2c-0.1,0.5-0.3,1.4-1.1,1.9c-0.1-0.1-0.2-0.2-0.4-0.3c0.7-0.4,0.9-1.1,1-1.6h-1v-0.4h1v-0.9h-0.9
			v-0.4h4v0.4h-0.9v0.9h1.1v0.4H201.8z M201.4,174.8v-0.9h-1.2v0.9H201.4z M204.1,176.5c0,0.3-0.1,0.5-0.3,0.6
			c-0.2,0.1-0.6,0.1-1.2,0.1c0-0.1-0.1-0.4-0.2-0.5c0.5,0,0.9,0,1,0c0.1,0,0.2,0,0.2-0.2V173h-2.4v-2.7h2.9V176.5z M201.7,170.7v0.7
			h1.9v-0.7H201.7z M203.6,172.6v-0.7h-1.9v0.7H203.6z"/>
		<path class="st2" d="M200.1,184.6c0,0,0,0.2,0,0.2c-0.1,1.1-0.2,1.6-0.4,1.8c-0.1,0.1-0.3,0.2-0.5,0.2c-0.2,0-0.6,0-1.1,0
			c0-0.1-0.1-0.3-0.2-0.5c0.4,0,0.9,0,1,0c0.1,0,0.2,0,0.3-0.1c0.1-0.1,0.2-0.5,0.3-1.3h-1.9c0.1-0.5,0.2-1.2,0.3-1.7h1.6v-0.9h-1.4
			v-0.1c-0.3,0.2-0.6,0.3-0.9,0.4c-0.1-0.1-0.2-0.3-0.3-0.4c0.5-0.2,1.1-0.4,1.6-0.8c-0.2-0.2-0.6-0.5-0.9-0.7l0.3-0.3
			c0.3,0.2,0.7,0.5,1,0.7c0.3-0.3,0.6-0.6,0.8-0.9h-1.9v-0.4h2.2l0.1,0l0.3,0.2c-0.4,0.8-1,1.4-1.7,1.9h1.3v1.7h-1.7
			c0,0.3-0.1,0.6-0.1,0.9H200.1z M204.2,180.7c-0.3,0.3-0.8,0.7-1.2,0.9c0.4,0.3,0.9,0.5,1.4,0.6c-0.1,0.1-0.2,0.3-0.3,0.4
			c-0.4-0.1-0.8-0.3-1.2-0.5v1.1c0,0.2,0,0.2,0.1,0.2h0.6c0.1,0,0.3,0,0.4,0c0,0.1,0,0.3,0,0.4c-0.1,0-0.2,0-0.4,0h-0.7
			c-0.4,0-0.5-0.2-0.5-0.6v-0.8h-1.2v0.2c0,0.5-0.2,1.1-0.9,1.5c-0.1-0.1-0.2-0.3-0.3-0.3c0.6-0.3,0.8-0.8,0.8-1.2V182h1.8
			c-0.9-0.6-1.6-1.3-2-2.2l0.4-0.1c0.2,0.4,0.4,0.7,0.6,1c0.4-0.3,0.8-0.7,1.1-0.9l0.4,0.3c-0.4,0.3-0.8,0.7-1.2,1
			c0.2,0.2,0.4,0.3,0.6,0.5c0.4-0.3,0.8-0.7,1.1-0.9L204.2,180.7z M203.6,184.4c-0.2,0.6-0.6,1.1-1.1,1.4c0.4,0.3,0.8,0.5,1.1,0.7
			l-0.3,0.4c-0.3-0.2-0.7-0.5-1.2-0.8c-0.6,0.4-1.2,0.6-1.8,0.8c0-0.1-0.2-0.3-0.2-0.4c0.6-0.1,1.2-0.4,1.7-0.7
			c-0.4-0.3-0.9-0.5-1.3-0.8l0.3-0.3c0.4,0.2,0.9,0.5,1.4,0.8c0.3-0.3,0.6-0.6,0.8-0.9h-2.5v-0.4h2.8l0.1,0L203.6,184.4z"/>
		<path class="st2" d="M203.9,194.3c-0.4,0.3-1,0.6-1.5,0.8c0.5,0.4,1.2,0.6,2,0.7c-0.1,0.1-0.2,0.3-0.3,0.4
			c-1.6-0.3-2.7-1.1-3.3-2.4c-0.4,0.3-0.9,0.6-1.5,0.8v1l1.9-0.4c0,0.1,0,0.3,0,0.4c-2.1,0.5-2.4,0.6-2.5,0.7v0
			c0-0.1-0.1-0.3-0.2-0.4c0.1-0.1,0.3-0.2,0.3-0.6V195c-0.5,0.2-1,0.3-1.4,0.4c-0.1-0.1-0.2-0.3-0.3-0.4c1-0.2,2.2-0.6,3-1.1h-2.9
			v-0.4h3.4c-0.1-0.2-0.2-0.4-0.3-0.5l0.5-0.1c0.1,0.2,0.3,0.4,0.4,0.6h3.1v0.4h-3c0.2,0.4,0.5,0.7,0.8,1c0.5-0.2,1.1-0.6,1.5-0.9
			L203.9,194.3z M199.1,191.1h-1.8v-0.4h1.8v-0.5h-1c-0.1,0.2-0.2,0.4-0.3,0.5c-0.1-0.1-0.3-0.2-0.4-0.2c0.3-0.3,0.5-0.8,0.6-1.2
			l0.4,0.1c-0.1,0.2-0.1,0.3-0.2,0.4h0.8v-0.6h0.5v0.6h1.4v0.4h-1.4v0.5h1.7v0.4h-1.7v0.4h1.5v1c0,0.2,0,0.3-0.2,0.4
			c-0.2,0.1-0.4,0.1-0.8,0.1c0-0.1-0.1-0.2-0.1-0.4c0.3,0,0.5,0,0.5,0c0.1,0,0.1,0,0.1-0.1v-0.6h-1v1.3h-0.5v-1.3h-1v1.1h-0.4v-1.5
			h1.4V191.1z M202.4,192.2h-0.5v-2.6h0.5V192.2z M203.9,192.6c0,0.3-0.1,0.4-0.3,0.5c-0.2,0.1-0.6,0.1-1.1,0.1
			c0-0.1-0.1-0.3-0.2-0.4c0.4,0,0.8,0,1,0c0.1,0,0.2,0,0.2-0.1v-3.3h0.5V192.6z"/>
		<path class="st2" d="M199.3,202.6c-0.2,0.7-0.5,1.5-0.8,2.1c0.1,0.1,0.3,0.2,0.6,0.4c0.6,0.3,1.3,0.4,2.2,0.4c1,0,2.3-0.1,3.2-0.2
			c-0.1,0.1-0.2,0.4-0.2,0.6c-0.6,0-2.1,0.1-3,0.1c-1,0-1.7-0.1-2.3-0.4c-0.3-0.2-0.6-0.5-0.8-0.5c-0.2,0-0.5,0.5-0.7,1l-0.4-0.5
			c0.3-0.5,0.6-0.9,0.9-1c0.3-0.5,0.5-1.1,0.6-1.7h-1.1c0.2-0.5,0.5-1.2,0.7-1.8h-1.1v-0.5h1.8c-0.2,0.6-0.5,1.3-0.7,1.8h0.7l0.1,0
			L199.3,202.6z M198.1,200.3c-0.1-0.3-0.3-0.9-0.4-1.3l0.5-0.1c0.1,0.4,0.3,0.9,0.4,1.3L198.1,200.3z M200.3,200.3
			c-0.2,0.3-0.4,0.6-0.6,0.9c-0.1-0.1-0.3-0.2-0.5-0.3c0.5-0.5,0.9-1.2,1.2-2l0.5,0.1c-0.1,0.3-0.2,0.5-0.3,0.8h1v-1h0.5v1h1.9v0.5
			h-1.9v1.1h2.3v0.5h-5.1v-0.5h2.3v-1.1H200.3z M203.2,204.9v-0.3h-2.8v0.3h-0.5v-2.4h3.8v2.4H203.2z M203.2,204.1v-1.2h-2.8v1.2
			H203.2z"/>
		<path class="st2" d="M204.4,213.4h-0.8v1.4H203v-0.4h-2v0.6c0,0.4-0.1,0.5-0.3,0.6c-0.2,0.1-0.7,0.1-1.3,0.1
			c0-0.1-0.1-0.3-0.2-0.5c0.5,0,1,0,1.1,0c0.2,0,0.2,0,0.2-0.2v-0.6h-2.6V214h2.6v-0.6h-3.3v-0.4h3.3v-0.6H198v-0.4h2.5v-0.6h-2.3
			V210h2.3v-0.5h-3.2V209h3.2v-0.7h0.5v0.7h3.2v0.4H201v0.5h2.4v1.4H201v0.6h2.5v1h0.8V213.4z M200.5,211v-0.6h-1.8v0.6H200.5z
			 M201,210.4v0.6h1.9v-0.6H201z M201,212.9h2v-0.6h-2V212.9z M203,213.4h-2v0.6h2V213.4z"/>
		<path class="st2" d="M200.1,224c-0.6,0.4-1.6,0.8-2.5,1c-0.1-0.1-0.2-0.3-0.3-0.4c0.8-0.1,1.9-0.5,2.4-0.8L200.1,224z
			 M204.3,222.9v0.5h-3.2v1.9h-0.5v-1.9h-3.2v-0.5h3.2v-0.6h-2.4v-0.4h2.4v-0.6h-2.8v-0.4h1.8c-0.1-0.2-0.3-0.6-0.4-0.8l0.4-0.1
			h-2.1v-0.4h1.3c-0.1-0.3-0.4-0.8-0.7-1.2l0.4-0.2c0.3,0.4,0.6,0.9,0.7,1.2l-0.4,0.2h1V218h0.5v1.4h1V218h0.5v1.4h1l-0.3-0.1
			c0.2-0.3,0.5-0.9,0.6-1.2l0.5,0.2c-0.2,0.4-0.5,0.9-0.7,1.2h1.3v0.4h-2.1l0.5,0.1c-0.2,0.3-0.4,0.6-0.6,0.8h1.9v0.4h-2.9v0.6h2.5
			v0.4h-2.5v0.6H204.3z M199.5,219.9c0.2,0.3,0.4,0.6,0.4,0.8l-0.3,0.1h2.2l-0.3-0.1c0.2-0.2,0.4-0.6,0.5-0.8H199.5z M201.9,223.7
			c0.8,0.2,1.8,0.6,2.4,0.9L204,225c-0.5-0.3-1.6-0.7-2.4-0.9L201.9,223.7z"/>
		<path class="st2" d="M201,231.8c-0.2,0.8-0.4,1.4-0.8,1.9c0.6,0.5,1.4,0.6,2.3,0.6c0.2,0,1.7,0,2,0c-0.1,0.1-0.1,0.3-0.2,0.5h-1.9
			c-1.1,0-2-0.2-2.6-0.8c-0.4,0.4-0.9,0.7-1.5,0.9c0-0.1-0.2-0.3-0.3-0.4c0.6-0.2,1.1-0.5,1.5-0.9c-0.2-0.3-0.3-0.6-0.5-1
			c-0.2,0.2-0.4,0.4-0.6,0.6c-0.1-0.1-0.2-0.2-0.3-0.3c-0.1,0.7-0.3,1.3-0.6,1.9c-0.1-0.1-0.3-0.3-0.4-0.3c0.6-1,0.7-2.5,0.7-3.5v-2
			h2.6v-1.5h0.5v0.5h2.8v0.4H201v0.5h2.9l0.1,0l0.4,0.1c-0.2,0.4-0.4,1-0.6,1.3l-0.4-0.1c0.1-0.2,0.2-0.5,0.3-0.8H201v0.5l2.1-0.1
			l0,0.4l-2.1,0.1v0.2c0,0.2,0,0.3,0.3,0.3h1.9c0.2,0,0.6,0,0.8,0c0,0.1,0,0.3,0,0.4c-0.1,0-0.5,0-0.8,0h-2c-0.6,0-0.8-0.2-0.8-0.7
			v-0.2l-1.6,0.1l0-0.4l1.7-0.1v-0.6h-2.1v1.5c0,0.6,0,1.3-0.1,2c0.6-0.5,1-1.1,1.3-1.9l0.4,0.1c-0.1,0.2-0.1,0.4-0.2,0.5h1l0.1,0
			L201,231.8z M199.4,232.1c0,0.1-0.1,0.1-0.1,0.2c0.1,0.4,0.3,0.8,0.5,1c0.3-0.3,0.5-0.7,0.6-1.2H199.4z M203.3,233.8
			c-0.4,0-0.5-0.1-0.5-0.5v-1.2h-0.9v0.2c0,0.5-0.1,1.2-0.8,1.6c-0.1-0.1-0.2-0.3-0.3-0.3c0.5-0.4,0.6-0.9,0.6-1.3v-0.6h1.7v1.6
			c0,0.2,0,0.2,0.1,0.2h0.3c0.1,0,0.1-0.1,0.2-0.5c0.1,0.1,0.2,0.1,0.3,0.1c0,0.5-0.2,0.7-0.4,0.7H203.3z"/>
	</g>
	<g>
		<path class="st2" d="M227.1,156.9v0.5h-7.1v-0.5h3.2v-4.7h-2.8v-0.5h6.3v0.5h-2.9v4.7H227.1z"/>
		<path class="st2" d="M222.3,165.1c-0.1-0.2-0.4-0.7-0.6-1.1v3.7h-0.5V164c-0.3,0.9-0.7,1.7-1.1,2.3c-0.1-0.2-0.2-0.4-0.3-0.5
			c0.5-0.6,1-1.6,1.3-2.6h-1.1v-0.5h1.2v-1.4c-0.3,0.1-0.7,0.1-1,0.2c0-0.1-0.1-0.3-0.2-0.4c0.8-0.1,1.7-0.4,2.2-0.6l0.3,0.4
			c-0.3,0.1-0.6,0.2-0.9,0.3v1.5h1v0.5h-1v0.2c0.2,0.3,0.8,1.1,1,1.3L222.3,165.1z M227.1,167v0.5h-4.6V167h2.1v-1.1H223v-0.5h1.6
			v-1c-0.5,0.1-0.9,0.1-1.4,0.1c0-0.1-0.1-0.3-0.1-0.4c1.1-0.1,2.4-0.2,3.2-0.5l0.4,0.4c-0.4,0.1-0.9,0.2-1.5,0.3v1.1h1.6v0.5h-1.6
			v1.1H227.1z M226.7,163.3h-3.6v-2.5h3.6V163.3z M226.1,161.2h-2.6v1.6h2.6V161.2z"/>
		<path class="st2" d="M227.1,173.2v0.6h-7.3v-0.6H227.1z"/>
		<path class="st2" d="M223.7,183.8c-0.2,0.8-0.4,1.4-0.8,1.9c0.6,0.5,1.4,0.6,2.3,0.6c0.2,0,1.7,0,2,0c-0.1,0.1-0.1,0.3-0.2,0.5
			h-1.9c-1.1,0-2-0.2-2.6-0.8c-0.4,0.4-0.9,0.7-1.5,0.9c0-0.1-0.2-0.3-0.3-0.4c0.6-0.2,1.1-0.5,1.5-0.9c-0.2-0.3-0.3-0.6-0.5-1
			c-0.2,0.2-0.4,0.4-0.6,0.6c-0.1-0.1-0.2-0.2-0.3-0.3c-0.1,0.7-0.3,1.3-0.6,1.9c-0.1-0.1-0.3-0.3-0.4-0.3c0.6-1,0.7-2.5,0.7-3.5v-2
			h2.6v-1.5h0.5v0.5h2.8v0.4h-2.8v0.5h2.9l0.1,0l0.4,0.1c-0.2,0.4-0.4,1-0.6,1.3l-0.4-0.1c0.1-0.2,0.2-0.5,0.3-0.8h-2.7v0.5l2.1-0.1
			l0,0.4l-2.1,0.1v0.2c0,0.2,0,0.3,0.3,0.3h1.9c0.2,0,0.6,0,0.8,0c0,0.1,0,0.3,0,0.4c-0.1,0-0.5,0-0.8,0h-2c-0.6,0-0.8-0.2-0.8-0.7
			v-0.2l-1.6,0.1l0-0.4l1.7-0.1v-0.6H221v1.5c0,0.6,0,1.3-0.1,2c0.6-0.5,1-1.1,1.3-1.9l0.4,0.1c-0.1,0.2-0.1,0.4-0.2,0.5h1l0.1,0
			L223.7,183.8z M222.1,184.1c0,0.1-0.1,0.1-0.1,0.2c0.1,0.4,0.3,0.8,0.5,1c0.3-0.3,0.5-0.7,0.6-1.2H222.1z M226,185.8
			c-0.4,0-0.5-0.1-0.5-0.5v-1.2h-0.9v0.2c0,0.5-0.1,1.2-0.8,1.6c-0.1-0.1-0.2-0.3-0.3-0.3c0.5-0.4,0.6-0.9,0.6-1.3v-0.6h1.7v1.6
			c0,0.2,0,0.2,0.1,0.2h0.3c0.1,0,0.1-0.1,0.2-0.5c0.1,0.1,0.2,0.1,0.3,0.1c0,0.5-0.2,0.7-0.4,0.7H226z"/>
	</g>
	<g>
		<path class="st2" d="M249.8,156.9v0.5h-7.1v-0.5h3.2v-4.7H243v-0.5h6.3v0.5h-2.9v4.7H249.8z"/>
		<path class="st2" d="M245,165.1c-0.1-0.2-0.4-0.7-0.6-1.1v3.7h-0.5V164c-0.3,0.9-0.7,1.7-1.1,2.3c-0.1-0.2-0.2-0.4-0.3-0.5
			c0.5-0.6,1-1.6,1.3-2.6h-1.1v-0.5h1.2v-1.4c-0.3,0.1-0.7,0.1-1,0.2c0-0.1-0.1-0.3-0.2-0.4c0.8-0.1,1.7-0.4,2.2-0.6l0.3,0.4
			c-0.3,0.1-0.6,0.2-0.9,0.3v1.5h1v0.5h-1v0.2c0.2,0.3,0.8,1.1,1,1.3L245,165.1z M249.8,167v0.5h-4.6V167h2.1v-1.1h-1.6v-0.5h1.6v-1
			c-0.5,0.1-0.9,0.1-1.4,0.1c0-0.1-0.1-0.3-0.1-0.4c1.1-0.1,2.4-0.2,3.2-0.5l0.4,0.4c-0.4,0.1-0.9,0.2-1.5,0.3v1.1h1.6v0.5h-1.6v1.1
			H249.8z M249.4,163.3h-3.6v-2.5h3.6V163.3z M248.8,161.2h-2.6v1.6h2.6V161.2z"/>
		<path class="st2" d="M249.7,175.9v0.6h-7v-0.6H249.7z M249,171.1v0.6h-5.7v-0.6H249z"/>
		<path class="st2" d="M246.4,183.8c-0.2,0.8-0.4,1.4-0.8,1.9c0.6,0.5,1.4,0.6,2.3,0.6c0.2,0,1.7,0,2,0c-0.1,0.1-0.1,0.3-0.2,0.5
			h-1.9c-1.1,0-2-0.2-2.6-0.8c-0.4,0.4-0.9,0.7-1.5,0.9c0-0.1-0.2-0.3-0.3-0.4c0.6-0.2,1.1-0.5,1.5-0.9c-0.2-0.3-0.3-0.6-0.5-1
			c-0.2,0.2-0.4,0.4-0.6,0.6c-0.1-0.1-0.2-0.2-0.3-0.3c-0.1,0.7-0.3,1.3-0.6,1.9c-0.1-0.1-0.3-0.3-0.4-0.3c0.6-1,0.7-2.5,0.7-3.5v-2
			h2.6v-1.5h0.5v0.5h2.8v0.4h-2.8v0.5h2.9l0.1,0l0.4,0.1c-0.2,0.4-0.4,1-0.6,1.3l-0.4-0.1c0.1-0.2,0.2-0.5,0.3-0.8h-2.7v0.5l2.1-0.1
			l0,0.4l-2.1,0.1v0.2c0,0.2,0,0.3,0.3,0.3h1.9c0.2,0,0.6,0,0.8,0c0,0.1,0,0.3,0,0.4c-0.1,0-0.5,0-0.8,0h-2c-0.6,0-0.8-0.2-0.8-0.7
			v-0.2l-1.6,0.1l0-0.4l1.7-0.1v-0.6h-2.1v1.5c0,0.6,0,1.3-0.1,2c0.6-0.5,1-1.1,1.3-1.9l0.4,0.1c-0.1,0.2-0.1,0.4-0.2,0.5h1l0.1,0
			L246.4,183.8z M244.8,184.1c0,0.1-0.1,0.1-0.1,0.2c0.1,0.4,0.3,0.8,0.5,1c0.3-0.3,0.5-0.7,0.6-1.2H244.8z M248.7,185.8
			c-0.4,0-0.5-0.1-0.5-0.5v-1.2h-0.9v0.2c0,0.5-0.1,1.2-0.8,1.6c-0.1-0.1-0.2-0.3-0.3-0.3c0.5-0.4,0.6-0.9,0.6-1.3v-0.6h1.7v1.6
			c0,0.2,0,0.2,0.1,0.2h0.3c0.1,0,0.1-0.1,0.2-0.5c0.1,0.1,0.2,0.1,0.3,0.1c0,0.5-0.2,0.7-0.4,0.7H248.7z"/>
	</g>
	<g>
		<path class="st2" d="M269.1,152.6h-3v-0.4h3V152.6z M266.9,157.6v0.4h-0.5v-2.7h2.3v2.3H266.9z M268.8,153.2v0.4h-2.3v-0.4H268.8z
			 M266.4,154.2h2.3v0.4h-2.3V154.2z M266.9,155.7v1.4h1.4v-1.4H266.9z M267.6,152c-0.1-0.3-0.4-0.7-0.6-1.1l0.4-0.2
			c0.2,0.3,0.5,0.7,0.6,1L267.6,152z M272.9,154.4c-0.3,1-0.8,1.7-1.5,2.3c0.6,0.4,1.2,0.7,1.9,0.8c-0.1,0.1-0.3,0.3-0.3,0.5
			c-0.8-0.2-1.4-0.5-2-1c-0.6,0.5-1.3,0.8-2,1c-0.1-0.1-0.2-0.4-0.3-0.5c0.7-0.2,1.3-0.5,1.9-0.9c-0.5-0.5-0.9-1.1-1.2-1.8l0.3-0.1
			H269v-0.5h3.4l0.1,0L272.9,154.4z M270.3,152c0,0.7-0.2,1.6-1.2,2.1c-0.1-0.1-0.3-0.3-0.3-0.4c0.9-0.5,1-1.2,1-1.8v-0.9h2.4v1.9
			c0,0.2,0,0.3,0.1,0.3h0.5c0.1,0,0.2,0,0.3,0c0,0.1,0,0.3,0,0.5c-0.1,0-0.2,0-0.4,0h-0.5c-0.5,0-0.6-0.2-0.6-0.8v-1.4h-1.4V152z
			 M269.8,154.8c0.3,0.6,0.7,1.2,1.2,1.6c0.5-0.4,0.9-1,1.2-1.6H269.8z"/>
		<path class="st2" d="M268.1,160.5c-0.2,0.6-0.4,1.1-0.6,1.7v5.5h-0.5v-4.5c-0.2,0.4-0.4,0.7-0.7,1c0-0.1-0.2-0.4-0.3-0.5
			c0.7-0.8,1.2-2,1.6-3.3L268.1,160.5z M269.8,163c-0.1,0.2-0.3,0.5-0.5,0.7h3.5v3.4c0,0.2,0,0.4-0.2,0.4c-0.2,0.1-0.4,0.1-0.8,0.1
			c0-0.1-0.1-0.3-0.2-0.4c0.3,0,0.5,0,0.6,0c0.1,0,0.1,0,0.1-0.1v-0.6H271v1h-0.5v-1H269c-0.1,0.4-0.2,0.9-0.5,1.2
			c-0.1-0.1-0.3-0.3-0.4-0.3c0.5-0.6,0.5-1.5,0.5-2.1v-0.9c-0.2,0.2-0.5,0.4-0.7,0.5c0-0.1-0.2-0.3-0.3-0.4c0.6-0.3,1.2-0.8,1.6-1.3
			H268v-0.5h1.4v-0.8h-1.2v-0.5h1.2v-0.8h0.5v0.8h1.4v-0.8h0.5v0.8h1.1v0.5h-1.1v0.8h1.3v0.5H269.8z M270.5,166v-0.7h-1.3
			c0,0.2,0,0.5,0,0.7H270.5z M269.2,164.9h1.3v-0.7h-1.3V164.9z M270,162.5h1.4v-0.8H270V162.5z M272.3,164.1H271v0.7h1.3V164.1z
			 M272.3,166v-0.7H271v0.7H272.3z"/>
		<path class="st2" d="M266.9,173v4.3h-0.5v-6.9h2.9v2.6H266.9z M266.9,170.7v0.7h1.8v-0.7H266.9z M268.8,172.6v-0.7h-1.8v0.7H268.8
			z M270.7,175.3v1.8h-0.5v-1.8H269c-0.1,0.5-0.3,1.4-1.1,1.9c-0.1-0.1-0.2-0.2-0.4-0.3c0.7-0.4,0.9-1.1,1-1.6h-1v-0.4h1v-0.9h-0.9
			v-0.4h4v0.4h-0.9v0.9h1.1v0.4H270.7z M270.2,174.8v-0.9H269v0.9H270.2z M273,176.5c0,0.3-0.1,0.5-0.3,0.6
			c-0.2,0.1-0.6,0.1-1.2,0.1c0-0.1-0.1-0.4-0.2-0.5c0.5,0,0.9,0,1,0c0.1,0,0.2,0,0.2-0.2V173H270v-2.7h2.9V176.5z M270.5,170.7v0.7
			h1.9v-0.7H270.5z M272.4,172.6v-0.7h-1.9v0.7H272.4z"/>
		<path class="st2" d="M269,184.6c0,0,0,0.2,0,0.2c-0.1,1.1-0.2,1.6-0.4,1.8c-0.1,0.1-0.3,0.2-0.5,0.2c-0.2,0-0.6,0-1.1,0
			c0-0.1-0.1-0.3-0.2-0.5c0.4,0,0.9,0,1,0c0.1,0,0.2,0,0.3-0.1c0.1-0.1,0.2-0.5,0.3-1.3h-1.9c0.1-0.5,0.2-1.2,0.3-1.7h1.6v-0.9h-1.4
			v-0.1c-0.3,0.2-0.6,0.3-0.9,0.4c-0.1-0.1-0.2-0.3-0.3-0.4c0.5-0.2,1.1-0.4,1.6-0.8c-0.2-0.2-0.6-0.5-0.9-0.7l0.3-0.3
			c0.3,0.2,0.7,0.5,1,0.7c0.3-0.3,0.6-0.6,0.8-0.9h-1.9v-0.4h2.2l0.1,0l0.3,0.2c-0.4,0.8-1,1.4-1.7,1.9h1.3v1.7h-1.7
			c0,0.3-0.1,0.6-0.1,0.9H269z M273.1,180.7c-0.3,0.3-0.8,0.7-1.2,0.9c0.4,0.3,0.9,0.5,1.4,0.6c-0.1,0.1-0.2,0.3-0.3,0.4
			c-0.4-0.1-0.8-0.3-1.2-0.5v1.1c0,0.2,0,0.2,0.1,0.2h0.6c0.1,0,0.3,0,0.4,0c0,0.1,0,0.3,0,0.4c-0.1,0-0.2,0-0.4,0h-0.7
			c-0.4,0-0.5-0.2-0.5-0.6v-0.8h-1.2v0.2c0,0.5-0.2,1.1-0.9,1.5c-0.1-0.1-0.2-0.3-0.3-0.3c0.6-0.3,0.8-0.8,0.8-1.2V182h1.8
			c-0.9-0.6-1.6-1.3-2-2.2l0.4-0.1c0.2,0.4,0.4,0.7,0.6,1c0.4-0.3,0.8-0.7,1.1-0.9l0.4,0.3c-0.4,0.3-0.8,0.7-1.2,1
			c0.2,0.2,0.4,0.3,0.6,0.5c0.4-0.3,0.8-0.7,1.1-0.9L273.1,180.7z M272.5,184.4c-0.2,0.6-0.6,1.1-1.1,1.4c0.4,0.3,0.8,0.5,1.1,0.7
			l-0.3,0.4c-0.3-0.2-0.7-0.5-1.2-0.8c-0.6,0.4-1.2,0.6-1.8,0.8c0-0.1-0.2-0.3-0.2-0.4c0.6-0.1,1.2-0.4,1.7-0.7
			c-0.4-0.3-0.9-0.5-1.3-0.8l0.3-0.3c0.4,0.2,0.9,0.5,1.4,0.8c0.3-0.3,0.6-0.6,0.8-0.9h-2.5v-0.4h2.8l0.1,0L272.5,184.4z"/>
		<path class="st2" d="M269.7,190.8c-0.2,0.5-0.4,1-0.6,1.5h1.2v0.5h-4.1v-0.5h2.5c0.2-0.5,0.5-1.1,0.6-1.6L269.7,190.8z
			 M270.1,190.6h-3.7v-0.5h1.7c-0.1-0.3-0.2-0.6-0.4-0.8l0.5-0.1c0.2,0.3,0.3,0.7,0.4,1h1.5V190.6z M266.6,193.5h3.3v2.8h-0.5V196
			h-2.3v0.4h-0.5V193.5z M267.4,192.2c-0.1-0.4-0.3-1-0.5-1.4l0.5-0.1c0.2,0.4,0.5,1,0.5,1.4L267.4,192.2z M267.1,194v1.5h2.3V194
			H267.1z M273.2,189.8c-0.3,0.7-0.7,1.6-1,2.4c0.7,0.8,0.9,1.4,0.9,1.9c0,0.4-0.1,0.8-0.4,1c-0.1,0.1-0.3,0.1-0.5,0.2
			c-0.2,0-0.5,0-0.7,0c0-0.1-0.1-0.4-0.2-0.5c0.2,0,0.5,0,0.7,0c0.1,0,0.2,0,0.3-0.1c0.2-0.1,0.2-0.4,0.2-0.6c0-0.5-0.2-1.1-0.9-1.8
			c0.3-0.7,0.6-1.5,0.9-2.2h-1.4v6.4h-0.5v-6.8h2.1l0.1,0L273.2,189.8z"/>
	</g>
	<g>
		<path class="st2" d="M291.8,152.6h-3v-0.4h3V152.6z M289.6,157.6v0.4h-0.5v-2.7h2.3v2.3H289.6z M291.5,153.2v0.4h-2.3v-0.4H291.5z
			 M289.1,154.2h2.3v0.4h-2.3V154.2z M289.6,155.7v1.4h1.4v-1.4H289.6z M290.3,152c-0.1-0.3-0.4-0.7-0.6-1.1l0.4-0.2
			c0.2,0.3,0.5,0.7,0.6,1L290.3,152z M295.6,154.4c-0.3,1-0.8,1.7-1.5,2.3c0.6,0.4,1.2,0.7,1.9,0.8c-0.1,0.1-0.3,0.3-0.3,0.5
			c-0.8-0.2-1.4-0.5-2-1c-0.6,0.5-1.3,0.8-2,1c-0.1-0.1-0.2-0.4-0.3-0.5c0.7-0.2,1.3-0.5,1.9-0.9c-0.5-0.5-0.9-1.1-1.2-1.8l0.3-0.1
			h-0.7v-0.5h3.4l0.1,0L295.6,154.4z M293,152c0,0.7-0.2,1.6-1.2,2.1c-0.1-0.1-0.3-0.3-0.3-0.4c0.9-0.5,1-1.2,1-1.8v-0.9h2.4v1.9
			c0,0.2,0,0.3,0.1,0.3h0.5c0.1,0,0.2,0,0.3,0c0,0.1,0,0.3,0,0.5c-0.1,0-0.2,0-0.4,0H295c-0.5,0-0.6-0.2-0.6-0.8v-1.4H293V152z
			 M292.5,154.8c0.3,0.6,0.7,1.2,1.2,1.6c0.5-0.4,0.9-1,1.2-1.6H292.5z"/>
		<path class="st2" d="M292.2,162.2h-3.3v-0.4h3.3V162.2z M289.3,162.8h2.6v0.4h-2.6V162.8z M291.8,164.2h-2.6v-0.4h2.6V164.2z
			 M291.8,167.2h-2v0.4h-0.5v-2.7h2.5V167.2z M289.8,165.3v1.4h1.6v-1.4H289.8z M290.5,161.6c-0.1-0.3-0.4-0.7-0.6-1.1l0.4-0.2
			c0.2,0.3,0.5,0.7,0.6,1L290.5,161.6z M296,163.7h-1.7v4h-0.5v-4h-1.6v-0.5h1.6v-2.6h0.5v2.6h1.7V163.7z"/>
		<path class="st2" d="M288.8,170.4h2.8v0.5h-1.3c-0.1,0.7-0.3,1.3-0.5,1.9h1.6v3.4h-1.6v0.6h-0.5v-3c-0.1,0.3-0.3,0.5-0.4,0.7
			c0-0.1-0.2-0.4-0.2-0.5c0.6-0.8,0.9-1.9,1.2-3.2h-1V170.4z M291,173.3h-1.2v2.4h1.2V173.3z M296,173.8h-0.9v3.5h-0.5v-3.5h-1.4
			c0,1.2-0.2,2.6-1.1,3.5c-0.1-0.1-0.3-0.2-0.4-0.3c0.8-0.9,1-2.1,1-3.2h-0.9v-0.5h0.9v-2.4H292v-0.5h3.8v0.5h-0.8v2.4h0.9V173.8z
			 M294.6,173.3v-2.4h-1.4v2.4H294.6z"/>
		<path class="st2" d="M291.7,184.6c0,0,0,0.2,0,0.2c-0.1,1.1-0.2,1.6-0.4,1.8c-0.1,0.1-0.3,0.2-0.5,0.2c-0.2,0-0.6,0-1.1,0
			c0-0.1-0.1-0.3-0.2-0.5c0.4,0,0.9,0,1,0c0.1,0,0.2,0,0.3-0.1c0.1-0.1,0.2-0.5,0.3-1.3h-1.9c0.1-0.5,0.2-1.2,0.3-1.7h1.6v-0.9h-1.4
			v-0.1c-0.3,0.2-0.6,0.3-0.9,0.4c-0.1-0.1-0.2-0.3-0.3-0.4c0.5-0.2,1.1-0.4,1.6-0.8c-0.2-0.2-0.6-0.5-0.9-0.7l0.3-0.3
			c0.3,0.2,0.7,0.5,1,0.7c0.3-0.3,0.6-0.6,0.8-0.9h-1.9v-0.4h2.2l0.1,0l0.3,0.2c-0.4,0.8-1,1.4-1.7,1.9h1.3v1.7H290
			c0,0.3-0.1,0.6-0.1,0.9H291.7z M295.8,180.7c-0.3,0.3-0.8,0.7-1.2,0.9c0.4,0.3,0.9,0.5,1.4,0.6c-0.1,0.1-0.2,0.3-0.3,0.4
			c-0.4-0.1-0.8-0.3-1.2-0.5v1.1c0,0.2,0,0.2,0.1,0.2h0.6c0.1,0,0.3,0,0.4,0c0,0.1,0,0.3,0,0.4c-0.1,0-0.2,0-0.4,0h-0.7
			c-0.4,0-0.5-0.2-0.5-0.6v-0.8h-1.2v0.2c0,0.5-0.2,1.1-0.9,1.5c-0.1-0.1-0.2-0.3-0.3-0.3c0.6-0.3,0.8-0.8,0.8-1.2V182h1.8
			c-0.9-0.6-1.6-1.3-2-2.2l0.4-0.1c0.2,0.4,0.4,0.7,0.6,1c0.4-0.3,0.8-0.7,1.1-0.9l0.4,0.3c-0.4,0.3-0.8,0.7-1.2,1
			c0.2,0.2,0.4,0.3,0.6,0.5c0.4-0.3,0.8-0.7,1.1-0.9L295.8,180.7z M295.2,184.4c-0.2,0.6-0.6,1.1-1.1,1.4c0.4,0.3,0.8,0.5,1.1,0.7
			l-0.3,0.4c-0.3-0.2-0.7-0.5-1.2-0.8c-0.6,0.4-1.2,0.6-1.8,0.8c0-0.1-0.2-0.3-0.2-0.4c0.6-0.1,1.2-0.4,1.7-0.7
			c-0.4-0.3-0.9-0.5-1.3-0.8l0.3-0.3c0.4,0.2,0.9,0.5,1.4,0.8c0.3-0.3,0.6-0.6,0.8-0.9h-2.5v-0.4h2.8l0.1,0L295.2,184.4z"/>
		<path class="st2" d="M295.6,192c-0.3,1.3-1,2.3-1.8,3c0.6,0.4,1.4,0.8,2.2,1c-0.1,0.1-0.3,0.3-0.4,0.5c-0.9-0.2-1.6-0.6-2.3-1.1
			c-0.8,0.6-1.6,0.9-2.6,1.2c-0.1-0.2-0.2-0.4-0.3-0.5c0.9-0.2,1.7-0.5,2.4-1.1c-0.7-0.7-1.3-1.6-1.6-2.6H291
			c-0.2,1.3-0.6,2.7-1.9,4c-0.1-0.1-0.3-0.3-0.4-0.4c1.7-1.6,1.8-3.6,1.8-5.1v-0.7h-1.4v-0.5h4.9c-0.2,0.7-0.4,1.6-0.6,2.3h1.7
			l0.1,0L295.6,192z M291.1,190.8c0,0.3,0,0.7,0,1h1.8c0.2-0.5,0.3-1.2,0.5-1.8h-2.3V190.8z M291.8,192.3c0.3,0.9,0.9,1.7,1.6,2.3
			c0.7-0.6,1.2-1.3,1.5-2.3H291.8z"/>
		<path class="st2" d="M295.5,203.9c-0.4,0.3-1,0.6-1.5,0.8c0.5,0.4,1.2,0.6,2,0.7c-0.1,0.1-0.2,0.3-0.3,0.4
			c-1.6-0.3-2.7-1.1-3.3-2.4c-0.4,0.3-0.9,0.6-1.5,0.8v1l1.9-0.4c0,0.1,0,0.3,0,0.4c-2.1,0.5-2.4,0.6-2.5,0.7v0
			c0-0.1-0.1-0.3-0.2-0.4c0.1-0.1,0.3-0.2,0.3-0.6v-0.4c-0.5,0.2-1,0.3-1.4,0.4c-0.1-0.1-0.2-0.3-0.3-0.4c1-0.2,2.2-0.6,3-1.1h-2.9
			v-0.4h3.4c-0.1-0.2-0.2-0.4-0.3-0.5l0.5-0.1c0.1,0.2,0.3,0.4,0.4,0.6h3.1v0.4h-3c0.2,0.4,0.5,0.7,0.8,1c0.5-0.2,1.1-0.6,1.5-0.9
			L295.5,203.9z M290.6,200.7h-1.8v-0.4h1.8v-0.5h-1c-0.1,0.2-0.2,0.4-0.3,0.5c-0.1-0.1-0.3-0.2-0.4-0.2c0.3-0.3,0.5-0.8,0.6-1.2
			l0.4,0.1c-0.1,0.2-0.1,0.3-0.2,0.4h0.8v-0.6h0.5v0.6h1.4v0.4h-1.4v0.5h1.7v0.4h-1.7v0.4h1.5v1c0,0.2,0,0.3-0.2,0.4
			c-0.2,0.1-0.4,0.1-0.8,0.1c0-0.1-0.1-0.2-0.1-0.4c0.3,0,0.5,0,0.5,0c0.1,0,0.1,0,0.1-0.1v-0.6h-1v1.3h-0.5v-1.3h-1v1.1h-0.4v-1.5
			h1.4V200.7z M293.9,201.8h-0.5v-2.6h0.5V201.8z M295.5,202.2c0,0.3-0.1,0.4-0.3,0.5c-0.2,0.1-0.6,0.1-1.1,0.1
			c0-0.1-0.1-0.3-0.2-0.4c0.4,0,0.8,0,1,0c0.1,0,0.2,0,0.2-0.1v-3.3h0.5V202.2z"/>
		<path class="st2" d="M290.8,212.2c-0.2,0.7-0.5,1.5-0.8,2.1c0.1,0.1,0.3,0.2,0.6,0.4c0.6,0.3,1.3,0.4,2.2,0.4c1,0,2.3-0.1,3.2-0.2
			c-0.1,0.1-0.2,0.4-0.2,0.6c-0.6,0-2.1,0.1-3,0.1c-1,0-1.7-0.1-2.3-0.4c-0.3-0.2-0.6-0.5-0.8-0.5c-0.2,0-0.5,0.5-0.7,1l-0.4-0.5
			c0.3-0.5,0.6-0.9,0.9-1c0.3-0.5,0.5-1.1,0.6-1.7h-1.1c0.2-0.5,0.5-1.2,0.7-1.8h-1.1v-0.5h1.8c-0.2,0.6-0.5,1.3-0.7,1.8h0.7l0.1,0
			L290.8,212.2z M289.7,209.9c-0.1-0.3-0.3-0.9-0.4-1.3l0.5-0.1c0.1,0.4,0.3,0.9,0.4,1.3L289.7,209.9z M291.9,209.9
			c-0.2,0.3-0.4,0.6-0.6,0.9c-0.1-0.1-0.3-0.2-0.5-0.3c0.5-0.5,0.9-1.2,1.2-2l0.5,0.1c-0.1,0.3-0.2,0.5-0.3,0.8h1v-1h0.5v1h1.9v0.5
			h-1.9v1.1h2.3v0.5h-5.1v-0.5h2.3v-1.1H291.9z M294.8,214.5v-0.3H292v0.3h-0.5v-2.4h3.8v2.4H294.8z M294.8,213.7v-1.2H292v1.2
			H294.8z"/>
		<path class="st2" d="M292.5,222.2c-0.2,0.8-0.4,1.4-0.8,1.9c0.6,0.5,1.4,0.6,2.3,0.6c0.2,0,1.7,0,2,0c-0.1,0.1-0.1,0.3-0.2,0.5
			H294c-1.1,0-2-0.2-2.6-0.8c-0.4,0.4-0.9,0.7-1.5,0.9c0-0.1-0.2-0.3-0.3-0.4c0.6-0.2,1.1-0.5,1.5-0.9c-0.2-0.3-0.3-0.6-0.5-1
			c-0.2,0.2-0.4,0.4-0.6,0.6c-0.1-0.1-0.2-0.2-0.3-0.3c-0.1,0.7-0.3,1.3-0.6,1.9c-0.1-0.1-0.3-0.3-0.4-0.3c0.6-1,0.7-2.5,0.7-3.5v-2
			h2.6V218h0.5v0.5h2.8v0.4h-2.8v0.5h2.9l0.1,0l0.4,0.1c-0.2,0.4-0.4,1-0.6,1.3l-0.4-0.1c0.1-0.2,0.2-0.5,0.3-0.8h-2.7v0.5l2.1-0.1
			l0,0.4l-2.1,0.1v0.2c0,0.2,0,0.3,0.3,0.3h1.9c0.2,0,0.6,0,0.8,0c0,0.1,0,0.3,0,0.4c-0.1,0-0.5,0-0.8,0h-2c-0.6,0-0.8-0.2-0.8-0.7
			v-0.2l-1.6,0.1l0-0.4l1.7-0.1v-0.6h-2.1v1.5c0,0.6,0,1.3-0.1,2c0.6-0.5,1-1.1,1.3-1.9l0.4,0.1c-0.1,0.2-0.1,0.4-0.2,0.5h1l0.1,0
			L292.5,222.2z M291,222.5c0,0.1-0.1,0.1-0.1,0.2c0.1,0.4,0.3,0.8,0.5,1c0.3-0.3,0.5-0.7,0.6-1.2H291z M294.9,224.2
			c-0.4,0-0.5-0.1-0.5-0.5v-1.2h-0.9v0.2c0,0.5-0.1,1.2-0.8,1.6c-0.1-0.1-0.2-0.3-0.3-0.3c0.5-0.4,0.6-0.9,0.6-1.3v-0.6h1.7v1.6
			c0,0.2,0,0.2,0.1,0.2h0.3c0.1,0,0.1-0.1,0.2-0.5c0.1,0.1,0.2,0.1,0.3,0.1c0,0.5-0.2,0.7-0.4,0.7H294.9z"/>
	</g>
	<g>
		<path class="st2" d="M314.9,152.6h-3v-0.4h3V152.6z M312.7,157.6v0.4h-0.5v-2.7h2.3v2.3H312.7z M314.5,153.2v0.4h-2.3v-0.4H314.5z
			 M312.2,154.2h2.3v0.4h-2.3V154.2z M312.7,155.7v1.4h1.4v-1.4H312.7z M313.3,152c-0.1-0.3-0.4-0.7-0.6-1.1l0.4-0.2
			c0.2,0.3,0.5,0.7,0.6,1L313.3,152z M318.7,154.4c-0.3,1-0.8,1.7-1.5,2.3c0.6,0.4,1.2,0.7,1.9,0.8c-0.1,0.1-0.3,0.3-0.3,0.5
			c-0.8-0.2-1.4-0.5-2-1c-0.6,0.5-1.3,0.8-2,1c-0.1-0.1-0.2-0.4-0.3-0.5c0.7-0.2,1.3-0.5,1.9-0.9c-0.5-0.5-0.9-1.1-1.2-1.8l0.3-0.1
			h-0.7v-0.5h3.4l0.1,0L318.7,154.4z M316.1,152c0,0.7-0.2,1.6-1.2,2.1c-0.1-0.1-0.3-0.3-0.3-0.4c0.9-0.5,1-1.2,1-1.8v-0.9h2.4v1.9
			c0,0.2,0,0.3,0.1,0.3h0.5c0.1,0,0.2,0,0.3,0c0,0.1,0,0.3,0,0.5c-0.1,0-0.2,0-0.4,0h-0.5c-0.5,0-0.6-0.2-0.6-0.8v-1.4h-1.4V152z
			 M315.6,154.8c0.3,0.6,0.7,1.2,1.2,1.6c0.5-0.4,0.9-1,1.2-1.6H315.6z"/>
		<path class="st2" d="M313.9,160.5c-0.2,0.6-0.4,1.1-0.6,1.7v5.5h-0.5v-4.5c-0.2,0.4-0.4,0.7-0.7,1c0-0.1-0.2-0.4-0.3-0.5
			c0.7-0.8,1.2-2,1.6-3.3L313.9,160.5z M315.6,163c-0.1,0.2-0.3,0.5-0.5,0.7h3.5v3.4c0,0.2,0,0.4-0.2,0.4c-0.2,0.1-0.4,0.1-0.8,0.1
			c0-0.1-0.1-0.3-0.2-0.4c0.3,0,0.5,0,0.6,0c0.1,0,0.1,0,0.1-0.1v-0.6h-1.3v1h-0.5v-1h-1.4c-0.1,0.4-0.2,0.9-0.5,1.2
			c-0.1-0.1-0.3-0.3-0.4-0.3c0.5-0.6,0.5-1.5,0.5-2.1v-0.9c-0.2,0.2-0.5,0.4-0.7,0.5c0-0.1-0.2-0.3-0.3-0.4c0.6-0.3,1.2-0.8,1.6-1.3
			h-1.2v-0.5h1.4v-0.8H314v-0.5h1.2v-0.8h0.5v0.8h1.4v-0.8h0.5v0.8h1.1v0.5h-1.1v0.8h1.3v0.5H315.6z M316.3,166v-0.7h-1.3
			c0,0.2,0,0.5,0,0.7H316.3z M314.9,164.9h1.3v-0.7h-1.3V164.9z M315.7,162.5h1.4v-0.8h-1.4V162.5z M318.1,164.1h-1.3v0.7h1.3V164.1
			z M318.1,166v-0.7h-1.3v0.7H318.1z"/>
		<path class="st2" d="M314.5,170.2c-0.2,0.6-0.5,1.1-0.9,1.6v5.4h-0.5v-4.6c-0.4,0.5-0.7,0.9-1.1,1.2c-0.1-0.1-0.2-0.4-0.3-0.5
			c0.9-0.8,1.8-2,2.4-3.3L314.5,170.2z M316.6,172.9c0.3,2.2,0.8,3.7,1.7,3.7c0.2,0,0.4-0.5,0.5-1.4c0.1,0.1,0.3,0.2,0.4,0.3
			c-0.2,1.3-0.5,1.8-0.9,1.8c-1.3-0.1-1.9-1.8-2.3-4.3l-2,0.3l-0.1-0.5l2-0.2c-0.1-0.7-0.1-1.5-0.2-2.4h0.5c0,0.8,0.1,1.6,0.2,2.3
			l2.4-0.3l0.1,0.5L316.6,172.9z M318.5,171.7c-0.3-0.4-0.8-0.9-1.3-1.3l0.4-0.2c0.5,0.4,1.1,0.9,1.4,1.3L318.5,171.7z"/>
		<path class="st2" d="M319,185.7v0.5h-7.1v-0.5h3.2V181h-2.8v-0.5h6.3v0.5h-2.9v4.7H319z"/>
		<path class="st2" d="M319.1,194.2h-0.8v1.4h-0.5v-0.4h-2v0.6c0,0.4-0.1,0.5-0.3,0.6c-0.2,0.1-0.7,0.1-1.3,0.1
			c0-0.1-0.1-0.3-0.2-0.5c0.5,0,1,0,1.1,0c0.2,0,0.2,0,0.2-0.2v-0.6h-2.6v-0.4h2.6v-0.6h-3.3v-0.4h3.3v-0.6h-2.5v-0.4h2.5v-0.6h-2.3
			v-1.4h2.3v-0.5H312v-0.4h3.2v-0.7h0.5v0.7h3.2v0.4h-3.2v0.5h2.4v1.4h-2.4v0.6h2.5v1h0.8V194.2z M315.2,191.8v-0.6h-1.8v0.6H315.2z
			 M315.7,191.2v0.6h1.9v-0.6H315.7z M315.7,193.7h2v-0.6h-2V193.7z M317.7,194.2h-2v0.6h2V194.2z"/>
		<path class="st2" d="M314.8,204.8c-0.6,0.4-1.6,0.8-2.5,1c-0.1-0.1-0.2-0.3-0.3-0.4c0.8-0.1,1.9-0.5,2.4-0.8L314.8,204.8z
			 M318.9,203.7v0.5h-3.2v1.9h-0.5v-1.9H312v-0.5h3.2v-0.6h-2.4v-0.4h2.4V202h-2.8v-0.4h1.8c-0.1-0.2-0.3-0.6-0.4-0.8l0.4-0.1H312
			v-0.4h1.3c-0.1-0.3-0.4-0.8-0.7-1.2l0.4-0.2c0.3,0.4,0.6,0.9,0.7,1.2l-0.4,0.2h1v-1.4h0.5v1.4h1v-1.4h0.5v1.4h1l-0.3-0.1
			c0.2-0.3,0.5-0.9,0.6-1.2l0.5,0.2c-0.2,0.4-0.5,0.9-0.7,1.2h1.3v0.4h-2.1l0.5,0.1c-0.2,0.3-0.4,0.6-0.6,0.8h1.9v0.4h-2.9v0.6h2.5
			v0.4h-2.5v0.6H318.9z M314.2,200.7c0.2,0.3,0.4,0.6,0.4,0.8l-0.3,0.1h2.2l-0.3-0.1c0.2-0.2,0.4-0.6,0.5-0.8H314.2z M316.6,204.5
			c0.8,0.2,1.8,0.6,2.4,0.9l-0.3,0.4c-0.5-0.3-1.6-0.7-2.4-0.9L316.6,204.5z"/>
		<path class="st2" d="M315.6,212.6c-0.2,0.8-0.4,1.4-0.8,1.9c0.6,0.5,1.4,0.6,2.3,0.6c0.2,0,1.7,0,2,0c-0.1,0.1-0.1,0.3-0.2,0.5
			h-1.9c-1.1,0-2-0.2-2.6-0.8c-0.4,0.4-0.9,0.7-1.5,0.9c0-0.1-0.2-0.3-0.3-0.4c0.6-0.2,1.1-0.5,1.5-0.9c-0.2-0.3-0.3-0.6-0.5-1
			c-0.2,0.2-0.4,0.4-0.6,0.6c-0.1-0.1-0.2-0.2-0.3-0.3c-0.1,0.7-0.3,1.3-0.6,1.9c-0.1-0.1-0.3-0.3-0.4-0.3c0.6-1,0.7-2.5,0.7-3.5v-2
			h2.6v-1.5h0.5v0.5h2.8v0.4h-2.8v0.5h2.9l0.1,0l0.4,0.1c-0.2,0.4-0.4,1-0.6,1.3l-0.4-0.1c0.1-0.2,0.2-0.5,0.3-0.8h-2.7v0.5l2.1-0.1
			l0,0.4l-2.1,0.1v0.2c0,0.2,0,0.3,0.3,0.3h1.9c0.2,0,0.6,0,0.8,0c0,0.1,0,0.3,0,0.4c-0.1,0-0.5,0-0.8,0h-2c-0.6,0-0.8-0.2-0.8-0.7
			v-0.2l-1.6,0.1l0-0.4l1.7-0.1v-0.6H313v1.5c0,0.6,0,1.3-0.1,2c0.6-0.5,1-1.1,1.3-1.9l0.4,0.1c-0.1,0.2-0.1,0.4-0.2,0.5h1l0.1,0
			L315.6,212.6z M314.1,212.9c0,0.1-0.1,0.1-0.1,0.2c0.1,0.4,0.3,0.8,0.5,1c0.3-0.3,0.5-0.7,0.6-1.2H314.1z M317.9,214.6
			c-0.4,0-0.5-0.1-0.5-0.5v-1.2h-0.9v0.2c0,0.5-0.1,1.2-0.8,1.6c-0.1-0.1-0.2-0.3-0.3-0.3c0.5-0.4,0.6-0.9,0.6-1.3v-0.6h1.7v1.6
			c0,0.2,0,0.2,0.1,0.2h0.3c0.1,0,0.1-0.1,0.2-0.5c0.1,0.1,0.2,0.1,0.3,0.1c0,0.5-0.2,0.7-0.4,0.7H317.9z"/>
	</g>
	<g>
		<path class="st2" d="M45.2,155.5v0.5h-3.4c0,0.2-0.1,0.4-0.1,0.6h3.3v0.5h-3.5c-0.4,1.1-1.2,1.8-3.3,2.2c0-0.1-0.2-0.4-0.3-0.5
			c1.9-0.3,2.7-0.8,3-1.7h-2.7v-0.5h2.9c0-0.2,0.1-0.4,0.1-0.6h-3.2v-0.5h3.2v-0.7h-2.5v-0.5h2.5v-0.7h-2.9v-0.5h1.7
			c-0.1-0.3-0.4-0.7-0.6-1l0.5-0.2c0.3,0.3,0.6,0.7,0.7,1l-0.3,0.1h2.2c0.2-0.3,0.5-0.8,0.7-1.2l0.5,0.2c-0.2,0.3-0.4,0.7-0.7,1h1.7
			v0.5h-3v0.7h2.6v0.5h-2.6v0.7H45.2z M41.9,157.2c1.1,0.4,2.5,1.1,3.3,1.6l-0.3,0.5c-0.7-0.5-2.1-1.2-3.3-1.7L41.9,157.2z"/>
		<path class="st2" d="M44.9,161.9v6.9h-0.5v-0.4h-5.6v0.4h-0.5v-6.9H44.9z M44.4,168v-5.6h-5.6v5.6H44.4z M41.6,166.7
			c-0.8,0.2-1.7,0.3-2.4,0.5l-0.1-0.4c0.6-0.1,1.5-0.3,2.4-0.4L41.6,166.7z M43.6,164.4c-0.2,0.8-0.5,1.4-0.9,2
			c0.2,0.5,0.4,0.8,0.7,0.8c0.1,0,0.2-0.3,0.3-0.8c0.1,0.1,0.3,0.2,0.4,0.2c-0.1,0.9-0.3,1.2-0.7,1c-0.4-0.1-0.7-0.4-0.9-0.8
			c-0.3,0.4-0.7,0.7-1.1,1c-0.1-0.1-0.2-0.3-0.3-0.3c0.5-0.3,0.9-0.6,1.2-1.1c-0.2-0.6-0.4-1.5-0.4-2.4h-2.5v-0.4h2.5
			c0-0.3,0-0.6-0.1-0.9h0.5c0,0.3,0,0.6,0.1,0.9H44v0.4h-1.8c0.1,0.7,0.2,1.4,0.3,2c0.3-0.5,0.5-1,0.6-1.6L43.6,164.4z M41.3,164.5
			v1.6h-1.8v-1.6H41.3z M40.9,164.8h-1v0.9h1V164.8z M43.5,163.4c-0.2-0.2-0.6-0.4-0.9-0.6l0.3-0.3c0.3,0.1,0.7,0.4,0.9,0.5
			L43.5,163.4z"/>
	</g>
	<g>
		<path class="st2" d="M35.9,151.8v1.4c0,1-0.4,1.6-1.3,1.6c-0.9,0-1.3-0.6-1.3-1.6v-0.9h-2.3v-0.5H35.9z M33.7,152.3v0.8
			c0,0.9,0.4,1.2,0.9,1.2c0.5,0,0.9-0.3,0.9-1.2v-0.8H33.7z"/>
		<path class="st2" d="M33.2,156.4c0.3,0,0.5,0,1,0v0.5h-0.6v0c0.4,0.1,0.7,0.5,0.7,1.1c0,0.1,0,0.2,0,0.3l-0.5-0.1
			c0-0.1,0-0.1,0-0.3c0-0.7-0.6-1-1.1-1h-1.8v-0.5H33.2z"/>
		<path class="st2" d="M30.8,160.8c0-1,0.7-1.7,1.7-1.7c1,0,1.7,0.7,1.7,1.7c0,1-0.7,1.7-1.7,1.7C31.5,162.6,30.8,161.9,30.8,160.8z
			 M33.8,160.8c0-0.8-0.6-1.2-1.3-1.2c-0.7,0-1.3,0.5-1.3,1.2c0,0.8,0.6,1.2,1.3,1.2C33.3,162.1,33.8,161.6,33.8,160.8z"/>
		<path class="st2" d="M34.2,164.1v0.5h-0.5v0c0.4,0.3,0.6,0.8,0.6,1.3c0,1-0.7,1.7-1.7,1.7c-1,0-1.7-0.7-1.7-1.7
			c0-0.4,0.2-1,0.6-1.3v0h-2.6v-0.5H34.2z M33.8,165.9c0-0.8-0.6-1.3-1.3-1.3c-0.7,0-1.3,0.6-1.3,1.3c0,0.8,0.6,1.2,1.3,1.2
			C33.3,167.1,33.8,166.6,33.8,165.9z"/>
		<path class="st2" d="M32.4,169.4c-0.7,0.1-1.2,0.6-1.2,1.2c0,0.5,0.3,0.9,0.6,1.1l-0.3,0.4c-0.5-0.4-0.7-0.9-0.7-1.4
			c0-1,0.7-1.7,1.7-1.7c1,0,1.7,0.7,1.7,1.7c0,1-0.7,1.6-1.6,1.6h-0.2V169.4z M32.8,171.6c0.6,0,1.1-0.4,1.1-1.1
			c0-0.6-0.5-1.1-1.1-1.1V171.6z"/>
		<path class="st2" d="M33.2,173.7c0.3,0,0.5,0,1,0v0.5h-0.6v0c0.4,0.1,0.7,0.5,0.7,1c0,0.1,0,0.2,0,0.3l-0.5-0.1c0-0.1,0-0.1,0-0.3
			c0-0.7-0.6-1-1.1-1h-1.8v-0.5H33.2z"/>
		<path class="st2" d="M33.4,178.5c0.3-0.1,0.4-0.4,0.4-0.7c0-0.3-0.1-0.7-0.5-0.7c-0.3,0-0.4,0.2-0.5,0.6l-0.1,0.5
			c-0.1,0.5-0.4,0.8-0.9,0.8c-0.7,0-1-0.6-1-1.3c0-0.5,0.2-1,0.6-1.3l0.3,0.4c-0.3,0.2-0.5,0.5-0.5,0.9c0,0.4,0.2,0.8,0.5,0.8
			c0.3,0,0.4-0.3,0.5-0.6l0.1-0.4c0.1-0.2,0.2-0.8,0.9-0.8c0.7,0,1,0.6,1,1.2c0,0.5-0.2,0.9-0.6,1.1L33.4,178.5z"/>
		<path class="st2" d="M31.5,181.6l2.7,1v0.6l-4.1-1.6c-0.5-0.2-0.8-0.5-0.8-1c0-0.1,0-0.3,0-0.4l0.4,0c-0.1,0.1-0.1,0.2-0.1,0.4
			c0,0.3,0.2,0.5,0.6,0.6l0.6,0.2l3.3-1.3v0.6L31.5,181.6z"/>
		<path class="st2" d="M33.4,186.2c0.3-0.1,0.4-0.4,0.4-0.7c0-0.3-0.1-0.7-0.5-0.7c-0.3,0-0.4,0.2-0.5,0.6l-0.1,0.5
			c-0.1,0.5-0.4,0.8-0.9,0.8c-0.7,0-1-0.6-1-1.3c0-0.5,0.2-1,0.6-1.3l0.3,0.4c-0.3,0.2-0.5,0.5-0.5,0.9c0,0.4,0.2,0.8,0.5,0.8
			c0.3,0,0.4-0.3,0.5-0.6l0.1-0.4c0.1-0.2,0.2-0.8,0.9-0.8c0.7,0,1,0.6,1,1.2c0,0.5-0.2,0.9-0.6,1.1L33.4,186.2z"/>
		<path class="st2" d="M31.7,195.1c-0.5-0.3-0.9-1-0.9-1.8c0-1.5,1.1-2.6,2.6-2.6c1.5,0,2.6,1.1,2.6,2.6c0,0.6-0.2,1.3-0.8,1.7
			l-0.3-0.4c0.3-0.2,0.7-0.8,0.7-1.3c0-1.3-1-2-2.1-2s-2.1,0.8-2.1,2c0,0.5,0.2,1.1,0.7,1.4L31.7,195.1z"/>
		<path class="st2" d="M30.8,198c0-1,0.7-1.7,1.7-1.7c1,0,1.7,0.7,1.7,1.7c0,1-0.7,1.7-1.7,1.7C31.5,199.7,30.8,199,30.8,198z
			 M33.8,198c0-0.8-0.6-1.2-1.3-1.2c-0.7,0-1.3,0.5-1.3,1.2c0,0.8,0.6,1.2,1.3,1.2C33.3,199.2,33.8,198.8,33.8,198z"/>
		<path class="st2" d="M33.2,201.3c0.3,0,0.5,0,1,0v0.5h-0.6v0c0.4,0.1,0.7,0.5,0.7,1c0,0.1,0,0.2,0,0.3l-0.5-0.1c0-0.1,0-0.1,0-0.3
			c0-0.7-0.6-1-1.1-1h-1.8v-0.5H33.2z"/>
		<path class="st2" d="M34.2,204.3v0.5h-0.5v0c0.4,0.3,0.6,0.8,0.6,1.3c0,1-0.7,1.7-1.7,1.7c-1,0-1.7-0.7-1.7-1.7
			c0-0.4,0.2-1,0.6-1.3v0h-2.6v-0.5H34.2z M33.8,206.1c0-0.8-0.6-1.3-1.3-1.3c-0.7,0-1.3,0.6-1.3,1.3c0,0.8,0.6,1.2,1.3,1.2
			C33.3,207.3,33.8,206.8,33.8,206.1z"/>
		<path class="st2" d="M30.9,209.7c0-0.2,0.2-0.4,0.4-0.4c0.2,0,0.4,0.2,0.4,0.4c0,0.2-0.2,0.4-0.4,0.4
			C31,210.1,30.9,210,30.9,209.7z"/>
	</g>
</g>
<line class="st0" x1="109.9" y1="127" x2="109.9" y2="144.2"/>
<line class="st0" x1="87.2" y1="127" x2="87.2" y2="144.2"/>
<line class="st0" x1="166.5" y1="56" x2="214.9" y2="56"/>
<line class="st0" x1="64.4" y1="127" x2="64.4" y2="144.2"/>
<line class="st0" x1="178.2" y1="127" x2="178.2" y2="144.2"/>
<line class="st0" x1="155.4" y1="127" x2="155.4" y2="144.2"/>
<line class="st0" x1="132.7" y1="127" x2="132.7" y2="144.2"/>
<line class="st0" x1="246.5" y1="127" x2="246.5" y2="144.2"/>
<line class="st0" x1="223.7" y1="127" x2="223.7" y2="144.2"/>
<line class="st0" x1="201" y1="127" x2="201" y2="144.2"/>
<line class="st0" x1="314.7" y1="127" x2="314.7" y2="144.2"/>
<line class="st0" x1="292" y1="127" x2="292" y2="144.2"/>
<line class="st0" x1="269.2" y1="127" x2="269.2" y2="144.2"/>
<line class="st0" x1="37.7" y1="127" x2="37.7" y2="144.2"/>
<g>
</g>
<g>
</g>
<g>
</g>
<g>
</g>
<g>
</g>
<g>
</g>
<g>
</g>
<g>
</g>
<g>
</g>
<g>
</g>
<g>
</g>
<g>
</g>
<g>
</g>
<g>
</g>
<g>
</g>
</svg>
