<?xml version="1.0" encoding="utf-8"?>
<!-- Generator: Adobe Illustrator 23.0.5, SVG Export Plug-In . SVG Version: 6.00 Build 0)  -->
<svg version="1.1" id="Layer_1" xmlns="http://www.w3.org/2000/svg" xmlns:xlink="http://www.w3.org/1999/xlink" x="0px" y="0px"
	 viewBox="0 0 512 512" style="enable-background:new 0 0 512 512;" xml:space="preserve">
<style type="text/css">
	.st0{fill:url(#SVGID_1_);}
	.st1{fill:url(#SVGID_2_);}
</style>
<g>
	<linearGradient id="SVGID_1_" gradientUnits="userSpaceOnUse" x1="260.75" y1="506.7" x2="260.75" y2="15.5">
		<stop  offset="0" style="stop-color:#002E8C"/>
		<stop  offset="1" style="stop-color:#009EC0"/>
	</linearGradient>
	<path class="st0" d="M425.4,180.2c0-90.8-73.9-164.7-164.7-164.7S96.1,89.4,96.1,180.2c0,63.5,37.1,122,94.6,149l1.7,0.8v136
		c0,3.9,5.1,8.9,8.9,8.9h29.9l0.1,2.9c0.3,15.9,13.6,28.9,29.5,28.9s29.2-13,29.5-28.9l0.1-2.9h29.9c3.9,0,8.9-5.1,8.9-8.9V330
		l1.7-0.8C388.3,302.2,425.4,243.7,425.4,180.2z M276.2,478c-0.4,8.2-7.3,14.7-15.5,14.7c-8.3,0-15.1-6.5-15.5-14.7l-0.2-3.1h31.4
		L276.2,478z M315.2,400.5h-60.6c-3.9,0-7,3.1-7,7s3.1,7,7,7h60.6v15.7h-48.6c-3.9,0-7,3.1-7,7s3.1,7,7,7h48.6l-1,16.7h-107l-1-76.1
		h108.9v15.7H315.2z M319.4,319c-2.6,1.1-4.3,3.6-4.3,6.4v45.4h-47.5V260.9l55.8-55.8c2.7-2.7,2.7-7.2,0-9.9c-1.3-1.3-3.1-2-4.9-2
		c-1.9,0-3.6,0.7-4.9,2L255.8,253c-1.3,1.3-2,3.1-2,4.9v112.8h-47.5v-45.4c0-2.8-1.7-5.3-4.3-6.4c-55.9-23.7-92-78.2-92-138.8
		C110,97,177.6,29.4,260.7,29.4S411.4,97,411.4,180.1C411.4,240.9,375.3,295.4,319.4,319z"/>
	<linearGradient id="SVGID_2_" gradientUnits="userSpaceOnUse" x1="219.6" y1="238.4" x2="219.6" y2="195.3">
		<stop  offset="0" style="stop-color:#002E8C"/>
		<stop  offset="1" style="stop-color:#009EC0"/>
	</linearGradient>
	<path class="st1" d="M209.9,197.3c-1.3-1.3-3.1-2-4.9-2c-1.9,0-3.6,0.7-4.9,2c-2.7,2.7-2.7,7.2,0,9.9l29.2,29.2
		c1.4,1.4,3.2,2,4.9,2s3.6-0.7,4.9-2c2.7-2.7,2.7-7.2,0-9.9L209.9,197.3z"/>
</g>
</svg>
