<?xml version="1.0" encoding="utf-8"?>
<!-- Generator: Adobe Illustrator 23.0.5, SVG Export Plug-In . SVG Version: 6.00 Build 0)  -->
<svg version="1.1" id="Layer_1" xmlns="http://www.w3.org/2000/svg" xmlns:xlink="http://www.w3.org/1999/xlink" x="0px" y="0px"
	 viewBox="0 0 110 110" style="enable-background:new 0 0 110 110;" xml:space="preserve">
<style type="text/css">
	.st0{clip-path:url(#SVGID_2_);fill:url(#SVGID_3_);}
	.st1{clip-path:url(#SVGID_5_);fill:url(#SVGID_6_);}
	.st2{clip-path:url(#SVGID_8_);fill:url(#SVGID_9_);}
	.st3{clip-path:url(#SVGID_11_);fill:url(#SVGID_12_);}
	.st4{fill:url(#SVGID_13_);}
	.st5{clip-path:url(#SVGID_15_);fill:url(#SVGID_16_);}
	.st6{clip-path:url(#SVGID_18_);fill:url(#SVGID_19_);}
</style>
<g>
	<defs>
		<path id="SVGID_1_" d="M65.4,55.5h-39c-0.7,0-1.3,0.6-1.3,1.3c-0.1,0.7,0.5,1.3,1.3,1.3h39c0.7,0,1.3-0.6,1.3-1.3
			S66.1,55.5,65.4,55.5z"/>
	</defs>
	<clipPath id="SVGID_2_">
		<use xlink:href="#SVGID_1_"  style="overflow:visible;"/>
	</clipPath>
	<linearGradient id="SVGID_3_" gradientUnits="userSpaceOnUse" x1="54.587" y1="93.5217" x2="54.587" y2="20.3478">
		<stop  offset="0" style="stop-color:#002E8C"/>
		<stop  offset="1" style="stop-color:#009EC0"/>
	</linearGradient>
	<rect x="7.8" y="20.3" class="st0" width="93.5" height="73.2"/>
</g>
<g>
	<defs>
		<path id="SVGID_4_" d="M81.2,52.7h-0.1c-2.1,0-3.7,1.6-3.7,3.7c0.1,2.1,1.7,3.7,3.8,3.7c2.1,0,3.7-1.6,3.7-3.7
			C84.9,54.3,83.3,52.7,81.2,52.7z"/>
	</defs>
	<clipPath id="SVGID_5_">
		<use xlink:href="#SVGID_4_"  style="overflow:visible;"/>
	</clipPath>
	<linearGradient id="SVGID_6_" gradientUnits="userSpaceOnUse" x1="54.587" y1="93.5217" x2="54.587" y2="20.3478">
		<stop  offset="0" style="stop-color:#002E8C"/>
		<stop  offset="1" style="stop-color:#009EC0"/>
	</linearGradient>
	<rect x="7.8" y="20.3" class="st1" width="93.5" height="73.2"/>
</g>
<g>
	<defs>
		<path id="SVGID_7_" d="M65.4,31.7h-39c-0.7,0-1.3,0.6-1.3,1.3s0.5,1.3,1.3,1.3h39c0.7,0,1.3-0.6,1.3-1.3S66.1,31.7,65.4,31.7z"/>
	</defs>
	<clipPath id="SVGID_8_">
		<use xlink:href="#SVGID_7_"  style="overflow:visible;"/>
	</clipPath>
	<linearGradient id="SVGID_9_" gradientUnits="userSpaceOnUse" x1="53.9783" y1="92.6087" x2="53.9783" y2="19.4348">
		<stop  offset="0" style="stop-color:#002E8C"/>
		<stop  offset="1" style="stop-color:#009EC0"/>
	</linearGradient>
	<rect x="7.2" y="19.4" class="st2" width="93.5" height="73.2"/>
</g>
<g>
	<defs>
		<path id="SVGID_10_" d="M81.2,29h-0.1c-2.1,0-3.7,1.6-3.7,3.7c0.1,2,1.7,3.7,3.8,3.7c2.1,0,3.7-1.6,3.7-3.7
			C84.9,30.6,83.2,29,81.2,29z"/>
	</defs>
	<clipPath id="SVGID_11_">
		<use xlink:href="#SVGID_10_"  style="overflow:visible;"/>
	</clipPath>
	<linearGradient id="SVGID_12_" gradientUnits="userSpaceOnUse" x1="54.587" y1="93.5217" x2="54.587" y2="20.3478">
		<stop  offset="0" style="stop-color:#002E8C"/>
		<stop  offset="1" style="stop-color:#009EC0"/>
	</linearGradient>
	<rect x="7.8" y="20.3" class="st3" width="93.5" height="73.2"/>
</g>
<linearGradient id="SVGID_13_" gradientUnits="userSpaceOnUse" x1="55.1" y1="92.8" x2="55.1" y2="20">
	<stop  offset="0" style="stop-color:#002E8C"/>
	<stop  offset="1" style="stop-color:#009EC0"/>
</linearGradient>
<path class="st4" d="M96.1,39V26.6c0-3.4-3.2-6.6-6.6-6.6h-4.1H20.6c-1.6,0-3.3,0.7-4.5,2c-1.3,1.3-2,2.9-2,4.5V39
	c0,2.3,1.4,4.4,3.3,5.6c-0.5,0.3-0.9,0.7-1.3,1.1c-1.2,1.3-2,2.9-2,4.5v12.4c0,2.2,1.4,4.3,3.3,5.6c-0.5,0.3-0.9,0.6-1.3,1
	c-1.3,1.3-2,2.9-2,4.5v12.4c0,3.4,3.2,6.6,6.6,6.6H25l60,0.1h4.5c3.4,0,6.6-3.2,6.6-6.6V73.8c0-2.2-1.4-4.3-3.2-5.5
	c1.9-1.2,3.2-3.3,3.2-5.5V50.3c0-2.3-1.4-4.5-3.4-5.7C94.7,43.5,96.1,41.3,96.1,39z M94,73.8v12.4c0,2.2-2.2,4.5-4.5,4.5H84
	l-57.9,0.1h-5.5c-2.2,0-4.5-2.2-4.5-4.5V73.8c0-2.2,2.2-4.5,4.5-4.5H85h4.2h0.3C91.7,69.3,94,71.5,94,73.8z M94,62.7
	c0,2.2-2.2,4.5-4.5,4.5h-4.1H84H26.1h-5.5c-2.2,0-4.5-2.2-4.5-4.5V50.3c0-2.2,2.2-4.5,4.5-4.5h68.6h0.3c2.2,0,4.5,2.2,4.5,4.5V62.7z
	 M94,39c0,2.2-2.2,4.5-4.5,4.5H84H26.1h-5.5c-2.2,0-4.5-2.2-4.5-4.5V26.6c0-2.2,2.2-4.5,4.5-4.5h68.6h0.3c2.2,0,4.5,2.2,4.5,4.5V39z
	"/>
<g>
	<defs>
		<path id="SVGID_14_" d="M65.4,79h-39c-0.7,0-1.3,0.6-1.3,1.3s0.5,1.3,1.3,1.3h39c0.7,0,1.3-0.6,1.3-1.3S66.1,79,65.4,79z"/>
	</defs>
	<clipPath id="SVGID_15_">
		<use xlink:href="#SVGID_14_"  style="overflow:visible;"/>
	</clipPath>
	<linearGradient id="SVGID_16_" gradientUnits="userSpaceOnUse" x1="54.587" y1="93.5217" x2="54.587" y2="20.3478">
		<stop  offset="0" style="stop-color:#002E8C"/>
		<stop  offset="1" style="stop-color:#009EC0"/>
	</linearGradient>
	<rect x="7.8" y="20.3" class="st5" width="93.5" height="73.2"/>
</g>
<g>
	<defs>
		<path id="SVGID_17_" d="M81.2,76.2h-0.1c-2.1,0-3.7,1.6-3.7,3.7c0.1,2.1,1.7,3.7,3.8,3.7c2.1,0,3.7-1.6,3.7-3.7
			C84.9,77.8,83.3,76.2,81.2,76.2z"/>
	</defs>
	<clipPath id="SVGID_18_">
		<use xlink:href="#SVGID_17_"  style="overflow:visible;"/>
	</clipPath>
	<linearGradient id="SVGID_19_" gradientUnits="userSpaceOnUse" x1="54.587" y1="93.5217" x2="54.587" y2="20.3478">
		<stop  offset="0" style="stop-color:#002E8C"/>
		<stop  offset="1" style="stop-color:#009EC0"/>
	</linearGradient>
	<rect x="7.8" y="20.3" class="st6" width="93.5" height="73.2"/>
</g>
</svg>
