<?xml version="1.0" encoding="utf-8"?>
<!-- Generator: Adobe Illustrator 23.0.5, SVG Export Plug-In . SVG Version: 6.00 Build 0)  -->
<svg version="1.1" id="Capa_1" xmlns="http://www.w3.org/2000/svg" xmlns:xlink="http://www.w3.org/1999/xlink" x="0px" y="0px"
	 viewBox="0 0 110 110" style="enable-background:new 0 0 110 110;" xml:space="preserve">
<style type="text/css">
	.st0{fill:url(#SVGID_1_);}
	.st1{fill:url(#SVGID_2_);}
	.st2{fill:url(#SVGID_3_);}
	.st3{fill:url(#SVGID_4_);}
	.st4{fill:url(#SVGID_5_);}
	.st5{fill:url(#SVGID_6_);}
	.st6{fill:url(#SVGID_7_);}
</style>
<g>
	<g>
		<linearGradient id="SVGID_1_" gradientUnits="userSpaceOnUse" x1="55.1" y1="89.5" x2="55.1" y2="15.1845">
			<stop  offset="0" style="stop-color:#002E8C"/>
			<stop  offset="1" style="stop-color:#009EC0"/>
		</linearGradient>
		<path class="st0" d="M32.8,15.9v72.9c0,0.4,0.3,0.7,0.7,0.7h43.2c0.4,0,0.7-0.3,0.7-0.7V15.9c0-0.4-0.3-0.7-0.7-0.7H33.5
			C33,15.1,32.8,15.5,32.8,15.9z M34.1,16.6H76V88H34.1V16.6z"/>
	</g>
	<g>
		<linearGradient id="SVGID_2_" gradientUnits="userSpaceOnUse" x1="55.1" y1="99" x2="55.1" y2="92.9">
			<stop  offset="0" style="stop-color:#002E8C"/>
			<stop  offset="1" style="stop-color:#009EC0"/>
		</linearGradient>
		<path class="st1" d="M56.6,92.9h-3c-1.5,0-2.6,1.2-2.6,2.6v0.9c0,1.5,1.2,2.6,2.6,2.6h3c1.5,0,2.6-1.2,2.6-2.6v-0.9
			C59.1,94.1,58,92.9,56.6,92.9z M58.1,96.4c0,0.8-0.7,1.6-1.6,1.6h-3c-0.8,0-1.6-0.7-1.6-1.6v-0.9c0-0.8,0.7-1.6,1.6-1.6h3
			c0.8,0,1.6,0.7,1.6,1.6V96.4z"/>
	</g>
	<g>
		<linearGradient id="SVGID_3_" gradientUnits="userSpaceOnUse" x1="66.7" y1="12.3" x2="66.7" y2="9.5">
			<stop  offset="0" style="stop-color:#002E8C"/>
			<stop  offset="1" style="stop-color:#009EC0"/>
		</linearGradient>
		<circle class="st2" cx="66.7" cy="10.9" r="1.4"/>
	</g>
	<g>
		<linearGradient id="SVGID_4_" gradientUnits="userSpaceOnUse" x1="69.8" y1="97.7" x2="69.8" y2="94.1">
			<stop  offset="0" style="stop-color:#002E8C"/>
			<stop  offset="1" style="stop-color:#009EC0"/>
		</linearGradient>
		<path class="st3" d="M69.6,94.6h-1.3v-0.5L67,95l1.4,0.8v-0.5h1.3c1.7,0,2.3,0.1,2.3,0.8c0,0.8-0.4,0.8-1.4,0.8h-1.7
			c-0.2,0-0.4,0.2-0.4,0.4s0.2,0.4,0.4,0.4h1.7c0.9,0,2,0,2-1.5C72.6,94.6,71.1,94.6,69.6,94.6z"/>
	</g>
	<g>
		<linearGradient id="SVGID_5_" gradientUnits="userSpaceOnUse" x1="39.6633" y1="97.3" x2="39.6633" y2="93.9">
			<stop  offset="0" style="stop-color:#002E8C"/>
			<stop  offset="1" style="stop-color:#009EC0"/>
		</linearGradient>
		<path class="st4" d="M41.1,93.9h-2.9c-0.2,0-0.3,0.1-0.3,0.3V97c0,0.2,0.1,0.3,0.3,0.3h2.9c0.2,0,0.3-0.1,0.3-0.3v-2.8
			C41.5,94.1,41.3,93.9,41.1,93.9z M40.9,96.7h-2.3v-1.2h1v-1h1.3V96.7z"/>
	</g>
	<g>
		<linearGradient id="SVGID_6_" gradientUnits="userSpaceOnUse" x1="55.15" y1="105.7" x2="55.15" y2="4.6">
			<stop  offset="0" style="stop-color:#002E8C"/>
			<stop  offset="1" style="stop-color:#009EC0"/>
		</linearGradient>
		<path class="st5" d="M77.2,105.7H32.9c-3.4,0-6.2-2.8-6.2-6.2V10.8c0-3.4,2.8-6.2,6.2-6.2h44.5c3.4,0,6.2,2.8,6.2,6.2v88.8
			C83.5,102.9,80.7,105.7,77.2,105.7z M32.9,7.1c-2,0-3.6,1.7-3.6,3.6v88.8c0,2,1.7,3.6,3.6,3.6h44.5c2,0,3.6-1.7,3.6-3.6V10.8
			c0-2-1.7-3.6-3.6-3.6L32.9,7.1L32.9,7.1z"/>
	</g>
	<g>
		<linearGradient id="SVGID_7_" gradientUnits="userSpaceOnUse" x1="55.05" y1="9.6" x2="55.05" y2="5.5">
			<stop  offset="0" style="stop-color:#002E8C"/>
			<stop  offset="1" style="stop-color:#009EC0"/>
		</linearGradient>
		<path class="st6" d="M61.3,9.6H48.8l-1.5-4.1h15.5L61.3,9.6z M50.1,7.6H60l0.1-0.2H50L50.1,7.6z"/>
	</g>
</g>
</svg>
