<?xml version="1.0" encoding="utf-8"?>
<!-- Generator: Adobe Illustrator 23.0.5, SVG Export Plug-In . SVG Version: 6.00 Build 0)  -->
<svg version="1.1" id="Layer_1" xmlns="http://www.w3.org/2000/svg" xmlns:xlink="http://www.w3.org/1999/xlink" x="0px" y="0px"
	 viewBox="0 0 110 110" style="enable-background:new 0 0 110 110;" xml:space="preserve">
<style type="text/css">
	.st0{clip-path:url(#SVGID_2_);fill:url(#SVGID_3_);}
	.st1{fill:url(#SVGID_4_);}
	.st2{clip-path:url(#SVGID_6_);fill:url(#SVGID_7_);}
	.st3{clip-path:url(#SVGID_9_);fill:url(#SVGID_10_);}
	.st4{clip-path:url(#SVGID_12_);fill:url(#SVGID_13_);}
	.st5{clip-path:url(#SVGID_15_);fill:url(#SVGID_16_);}
	.st6{clip-path:url(#SVGID_18_);fill:url(#SVGID_19_);}
	.st7{clip-path:url(#SVGID_21_);fill:url(#SVGID_22_);}
	.st8{clip-path:url(#SVGID_24_);fill:url(#SVGID_25_);}
	.st9{clip-path:url(#SVGID_27_);fill:url(#SVGID_28_);}
	.st10{clip-path:url(#SVGID_30_);fill:url(#SVGID_31_);}
</style>
<g>
	<defs>
		<path id="SVGID_1_" d="M12.9,83.2h84.3V29.3H12.9V83.2z M15.1,31.8h80V81h-80C15.1,81,15.1,31.8,15.1,31.8z"/>
	</defs>
	<clipPath id="SVGID_2_">
		<use xlink:href="#SVGID_1_"  style="overflow:visible;"/>
	</clipPath>
	<linearGradient id="SVGID_3_" gradientUnits="userSpaceOnUse" x1="54.587" y1="93.5217" x2="54.587" y2="20.3478">
		<stop  offset="0" style="stop-color:#002E8C"/>
		<stop  offset="1" style="stop-color:#009EC0"/>
	</linearGradient>
	<rect x="7.8" y="20.3" class="st0" width="93.5" height="73.2"/>
</g>
<g>
	<linearGradient id="SVGID_4_" gradientUnits="userSpaceOnUse" x1="55.1" y1="92.5" x2="55.1" y2="20.4">
		<stop  offset="0" style="stop-color:#002E8C"/>
		<stop  offset="1" style="stop-color:#009EC0"/>
	</linearGradient>
	<path class="st1" d="M98,20.4H12.2c-4.2,0-7.6,3.8-7.6,8.5V84c0,4.7,3.4,8.5,7.6,8.5H98c4.2,0,7.6-3.8,7.6-8.5V28.9
		C105.6,24.2,102.2,20.4,98,20.4z M102.7,84c0,2.9-2.1,5.2-4.7,5.2H12.2c-2.6,0-4.7-2.4-4.7-5.2V28.9c0-2.9,2.1-5.2,4.7-5.2H98
		c2.6,0,4.7,2.4,4.7,5.2C102.7,28.9,102.7,84,102.7,84z"/>
</g>
<g>
	<defs>
		<path id="SVGID_5_" d="M49.2,76.7h-30c-0.3,0-0.6-0.3-0.6-0.6V37.5c0-0.3,0.2-0.6,0.6-0.6h30c0.3,0,0.6,0.3,0.6,0.6V76
			C49.7,76.4,49.5,76.7,49.2,76.7z M19.7,75.5h28.9V38.2H19.7V75.5z"/>
	</defs>
	<clipPath id="SVGID_6_">
		<use xlink:href="#SVGID_5_"  style="overflow:visible;"/>
	</clipPath>
	<linearGradient id="SVGID_7_" gradientUnits="userSpaceOnUse" x1="54.587" y1="93.5217" x2="54.587" y2="20.3478">
		<stop  offset="0" style="stop-color:#002E8C"/>
		<stop  offset="1" style="stop-color:#009EC0"/>
	</linearGradient>
	<rect x="7.8" y="20.3" class="st2" width="93.5" height="73.2"/>
</g>
<g>
	<defs>
		<path id="SVGID_8_" d="M63.9,49H53c-0.2,0-0.4-0.2-0.4-0.5v-11c0-0.3,0.2-0.5,0.4-0.5h10.8c0.2,0,0.4,0.2,0.4,0.5v11
			C64.3,48.8,64.1,49,63.9,49z M53.5,48.1h10V38h-10V48.1z"/>
	</defs>
	<clipPath id="SVGID_9_">
		<use xlink:href="#SVGID_8_"  style="overflow:visible;"/>
	</clipPath>
	<linearGradient id="SVGID_10_" gradientUnits="userSpaceOnUse" x1="54.587" y1="93.5217" x2="54.587" y2="20.3478">
		<stop  offset="0" style="stop-color:#002E8C"/>
		<stop  offset="1" style="stop-color:#009EC0"/>
	</linearGradient>
	<rect x="7.8" y="20.3" class="st3" width="93.5" height="73.2"/>
</g>
<g>
	<defs>
		<path id="SVGID_11_" d="M77.5,49H66.7c-0.2,0-0.4-0.2-0.4-0.5v-11c0-0.3,0.2-0.5,0.4-0.5h10.8c0.2,0,0.4,0.2,0.4,0.5v11
			C77.9,48.8,77.8,49,77.5,49z M67.1,48.1h10V38h-10V48.1z"/>
	</defs>
	<clipPath id="SVGID_12_">
		<use xlink:href="#SVGID_11_"  style="overflow:visible;"/>
	</clipPath>
	<linearGradient id="SVGID_13_" gradientUnits="userSpaceOnUse" x1="54.587" y1="93.5217" x2="54.587" y2="20.3478">
		<stop  offset="0" style="stop-color:#002E8C"/>
		<stop  offset="1" style="stop-color:#009EC0"/>
	</linearGradient>
	<rect x="7.8" y="20.3" class="st4" width="93.5" height="73.2"/>
</g>
<g>
	<defs>
		<path id="SVGID_14_" d="M91.3,49H80.4c-0.2,0-0.4-0.2-0.4-0.5v-11c0-0.3,0.2-0.5,0.4-0.5h10.8c0.2,0,0.4,0.2,0.4,0.5v11
			C91.7,48.8,91.5,49,91.3,49z M80.9,48.1h10V38h-10V48.1z"/>
	</defs>
	<clipPath id="SVGID_15_">
		<use xlink:href="#SVGID_14_"  style="overflow:visible;"/>
	</clipPath>
	<linearGradient id="SVGID_16_" gradientUnits="userSpaceOnUse" x1="54.587" y1="93.5217" x2="54.587" y2="20.3478">
		<stop  offset="0" style="stop-color:#002E8C"/>
		<stop  offset="1" style="stop-color:#009EC0"/>
	</linearGradient>
	<rect x="7.8" y="20.3" class="st5" width="93.5" height="73.2"/>
</g>
<g>
	<defs>
		<path id="SVGID_17_" d="M63.9,62.6H53c-0.2,0-0.4-0.2-0.4-0.5v-11c0-0.3,0.2-0.5,0.4-0.5h10.8c0.2,0,0.4,0.2,0.4,0.5v11
			C64.3,62.4,64.1,62.6,63.9,62.6z M53.5,61.7h10V51.5h-10V61.7z"/>
	</defs>
	<clipPath id="SVGID_18_">
		<use xlink:href="#SVGID_17_"  style="overflow:visible;"/>
	</clipPath>
	<linearGradient id="SVGID_19_" gradientUnits="userSpaceOnUse" x1="54.587" y1="93.5217" x2="54.587" y2="20.3478">
		<stop  offset="0" style="stop-color:#002E8C"/>
		<stop  offset="1" style="stop-color:#009EC0"/>
	</linearGradient>
	<rect x="7.8" y="20.3" class="st6" width="93.5" height="73.2"/>
</g>
<g>
	<defs>
		<path id="SVGID_20_" d="M77.5,62.6H66.7c-0.2,0-0.4-0.2-0.4-0.5v-11c0-0.3,0.2-0.5,0.4-0.5h10.8c0.2,0,0.4,0.2,0.4,0.5v11
			C77.9,62.4,77.8,62.6,77.5,62.6z M67.1,61.7h10V51.5h-10V61.7z"/>
	</defs>
	<clipPath id="SVGID_21_">
		<use xlink:href="#SVGID_20_"  style="overflow:visible;"/>
	</clipPath>
	<linearGradient id="SVGID_22_" gradientUnits="userSpaceOnUse" x1="54.587" y1="93.5217" x2="54.587" y2="20.3478">
		<stop  offset="0" style="stop-color:#002E8C"/>
		<stop  offset="1" style="stop-color:#009EC0"/>
	</linearGradient>
	<rect x="7.8" y="20.3" class="st7" width="93.5" height="73.2"/>
</g>
<g>
	<defs>
		<path id="SVGID_23_" d="M91.3,62.4H80.4c-0.2,0-0.4-0.2-0.4-0.5v-11c0-0.3,0.2-0.5,0.4-0.5h10.8c0.2,0,0.4,0.2,0.4,0.5v11
			C91.7,62.2,91.5,62.4,91.3,62.4z M80.9,61.5h10V51.4h-10V61.5z"/>
	</defs>
	<clipPath id="SVGID_24_">
		<use xlink:href="#SVGID_23_"  style="overflow:visible;"/>
	</clipPath>
	<linearGradient id="SVGID_25_" gradientUnits="userSpaceOnUse" x1="54.587" y1="93.5217" x2="54.587" y2="20.3478">
		<stop  offset="0" style="stop-color:#002E8C"/>
		<stop  offset="1" style="stop-color:#009EC0"/>
	</linearGradient>
	<rect x="7.8" y="20.3" class="st8" width="93.5" height="73.2"/>
</g>
<g>
	<defs>
		<path id="SVGID_26_" d="M63.9,76.2H53c-0.2,0-0.4-0.2-0.4-0.5v-11c0-0.3,0.2-0.5,0.4-0.5h10.8c0.2,0,0.4,0.2,0.4,0.5v11
			C64.3,76,64.1,76.2,63.9,76.2z M53.5,75.3h10V65.2h-10V75.3z"/>
	</defs>
	<clipPath id="SVGID_27_">
		<use xlink:href="#SVGID_26_"  style="overflow:visible;"/>
	</clipPath>
	<linearGradient id="SVGID_28_" gradientUnits="userSpaceOnUse" x1="54.587" y1="93.5217" x2="54.587" y2="20.3478">
		<stop  offset="0" style="stop-color:#002E8C"/>
		<stop  offset="1" style="stop-color:#009EC0"/>
	</linearGradient>
	<rect x="7.8" y="20.3" class="st9" width="93.5" height="73.2"/>
</g>
<g>
	<defs>
		<path id="SVGID_29_" d="M91.3,76.2H66.7c-0.2,0-0.4-0.2-0.4-0.5v-11c0-0.3,0.2-0.5,0.4-0.5h24.6c0.2,0,0.4,0.2,0.4,0.5v11
			C91.7,76,91.5,76.2,91.3,76.2z M67.1,75.3h23.8V65.2H67.1V75.3z"/>
	</defs>
	<clipPath id="SVGID_30_">
		<use xlink:href="#SVGID_29_"  style="overflow:visible;"/>
	</clipPath>
	<linearGradient id="SVGID_31_" gradientUnits="userSpaceOnUse" x1="54.587" y1="93.5217" x2="54.587" y2="20.3478">
		<stop  offset="0" style="stop-color:#002E8C"/>
		<stop  offset="1" style="stop-color:#009EC0"/>
	</linearGradient>
	<rect x="7.8" y="20.3" class="st10" width="93.5" height="73.2"/>
</g>
</svg>
