<?xml version="1.0" encoding="utf-8"?>
<!-- Generator: Adobe Illustrator 23.0.5, SVG Export Plug-In . SVG Version: 6.00 Build 0)  -->
<svg version="1.1" id="Layer_1" xmlns="http://www.w3.org/2000/svg" xmlns:xlink="http://www.w3.org/1999/xlink" x="0px" y="0px"
	 viewBox="0 0 110 110" style="enable-background:new 0 0 110 110;" xml:space="preserve">
<style type="text/css">
	.st0{fill:url(#SVGID_1_);}
	.st1{fill:url(#SVGID_2_);}
	.st2{fill:url(#SVGID_3_);}
	.st3{fill:url(#SVGID_4_);}
	.st4{fill:url(#SVGID_5_);}
	.st5{fill:url(#SVGID_6_);}
	.st6{fill:url(#SVGID_7_);}
	.st7{fill:url(#SVGID_8_);}
	.st8{fill:url(#SVGID_9_);}
	.st9{fill:url(#SVGID_10_);}
	.st10{fill:url(#SVGID_11_);}
	.st11{fill:url(#SVGID_12_);}
	.st12{fill:url(#SVGID_13_);}
	.st13{fill:url(#SVGID_14_);}
	.st14{fill:url(#SVGID_15_);}
	.st15{fill:url(#SVGID_16_);}
	.st16{fill:url(#SVGID_17_);}
	.st17{fill:url(#SVGID_18_);}
	.st18{fill:url(#SVGID_19_);}
	.st19{fill:url(#SVGID_20_);}
	.st20{fill:url(#SVGID_21_);}
	.st21{fill:url(#SVGID_22_);}
	.st22{fill:url(#SVGID_23_);}
	.st23{fill:url(#SVGID_24_);}
	.st24{fill:url(#SVGID_25_);}
	.st25{fill:url(#SVGID_26_);}
	.st26{fill:url(#SVGID_27_);}
	.st27{fill:url(#SVGID_28_);}
	.st28{fill:url(#SVGID_29_);}
	.st29{fill:url(#SVGID_30_);}
	.st30{fill:url(#SVGID_31_);}
	.st31{fill:url(#SVGID_32_);}
	.st32{fill:url(#SVGID_33_);}
	.st33{fill:url(#SVGID_34_);}
	.st34{fill:url(#SVGID_35_);}
	.st35{fill:url(#SVGID_36_);}
	.st36{fill:url(#SVGID_37_);}
	.st37{fill:url(#SVGID_38_);}
	.st38{fill:url(#SVGID_39_);}
	.st39{fill:url(#SVGID_40_);}
	.st40{fill:url(#SVGID_41_);}
	.st41{fill:url(#SVGID_42_);}
	.st42{fill:url(#SVGID_43_);}
	.st43{fill:url(#SVGID_44_);}
	.st44{fill:url(#SVGID_45_);}
	.st45{fill:url(#SVGID_46_);}
	.st46{fill:url(#SVGID_47_);}
	.st47{fill:url(#SVGID_48_);}
	.st48{fill:url(#SVGID_49_);}
	.st49{fill:url(#SVGID_50_);}
	.st50{fill:url(#SVGID_51_);}
	.st51{fill:url(#SVGID_52_);}
	.st52{fill:url(#SVGID_53_);}
	.st53{fill:url(#SVGID_54_);}
	.st54{fill:url(#SVGID_55_);}
	.st55{fill:url(#SVGID_56_);}
	.st56{fill:#0E2183;}
</style>
<linearGradient id="SVGID_1_" gradientUnits="userSpaceOnUse" x1="55" y1="72.3" x2="55" y2="23">
	<stop  offset="0" style="stop-color:#002E8C"/>
	<stop  offset="1" style="stop-color:#009EC0"/>
</linearGradient>
<path class="st0" d="M6.1,72.3h97.8V23H6.1V72.3z M9,26h91.9v43.4H9V26z"/>
<linearGradient id="SVGID_2_" gradientUnits="userSpaceOnUse" x1="44.45" y1="45.2" x2="44.45" y2="43.1">
	<stop  offset="0" style="stop-color:#002E8C"/>
	<stop  offset="1" style="stop-color:#009EC0"/>
</linearGradient>
<path class="st1" d="M43.3,44.3c0.2,0.3,0.4,0.6,0.7,0.9l1.6-1.3c-0.2-0.3-0.4-0.5-0.6-0.8L43.3,44.3z"/>
<linearGradient id="SVGID_3_" gradientUnits="userSpaceOnUse" x1="46.5" y1="41" x2="46.5" y2="38.7">
	<stop  offset="0" style="stop-color:#002E8C"/>
	<stop  offset="1" style="stop-color:#009EC0"/>
</linearGradient>
<path class="st2" d="M47.3,39c-0.4-0.1-0.7-0.2-1.1-0.3l-0.5,2c0.3,0.1,0.6,0.2,0.9,0.3L47.3,39z"/>
<linearGradient id="SVGID_4_" gradientUnits="userSpaceOnUse" x1="44.45" y1="40.6" x2="44.45" y2="38.6">
	<stop  offset="0" style="stop-color:#002E8C"/>
	<stop  offset="1" style="stop-color:#009EC0"/>
</linearGradient>
<path class="st3" d="M44.9,40.6l0.2-2c-0.2,0-0.5,0-0.7,0l0,0c-0.2,0-0.4,0-0.6,0l0.3,2C44.4,40.5,44.6,40.5,44.9,40.6z"/>
<linearGradient id="SVGID_5_" gradientUnits="userSpaceOnUse" x1="59.3" y1="48.1" x2="59.3" y2="45.9">
	<stop  offset="0" style="stop-color:#002E8C"/>
	<stop  offset="1" style="stop-color:#009EC0"/>
</linearGradient>
<path class="st4" d="M60.3,46.5c-0.3-0.2-0.6-0.4-0.8-0.6l-1.2,1.6c0.3,0.2,0.5,0.4,0.8,0.6L60.3,46.5z"/>
<linearGradient id="SVGID_6_" gradientUnits="userSpaceOnUse" x1="62.4" y1="50.7" x2="62.4" y2="48.5">
	<stop  offset="0" style="stop-color:#002E8C"/>
	<stop  offset="1" style="stop-color:#009EC0"/>
</linearGradient>
<path class="st5" d="M63.5,49.2c-0.3-0.2-0.5-0.5-0.8-0.7L61.3,50c0.3,0.2,0.5,0.5,0.7,0.7L63.5,49.2z"/>
<linearGradient id="SVGID_7_" gradientUnits="userSpaceOnUse" x1="43.25" y1="43.3" x2="43.25" y2="41.5">
	<stop  offset="0" style="stop-color:#002E8C"/>
	<stop  offset="1" style="stop-color:#009EC0"/>
</linearGradient>
<path class="st6" d="M44.4,42.3c-0.2-0.3-0.3-0.5-0.4-0.8l-1.9,0.8c0.1,0.3,0.3,0.7,0.5,1L44.4,42.3z"/>
<linearGradient id="SVGID_8_" gradientUnits="userSpaceOnUse" x1="42.85" y1="41" x2="42.85" y2="39.3">
	<stop  offset="0" style="stop-color:#002E8C"/>
	<stop  offset="1" style="stop-color:#009EC0"/>
</linearGradient>
<path class="st7" d="M42.3,39.3l-0.2,0.3c-0.2,0.3-0.3,0.8-0.3,1.2V41l2.1-0.3L42.3,39.3z"/>
<linearGradient id="SVGID_9_" gradientUnits="userSpaceOnUse" x1="47.15" y1="48.2" x2="47.15" y2="46">
	<stop  offset="0" style="stop-color:#002E8C"/>
	<stop  offset="1" style="stop-color:#009EC0"/>
</linearGradient>
<path class="st8" d="M46.8,48.2l1.4-1.5c-0.3-0.2-0.5-0.5-0.7-0.7l-1.4,1.5C46.3,47.7,46.6,48,46.8,48.2z"/>
<linearGradient id="SVGID_10_" gradientUnits="userSpaceOnUse" x1="45.8" y1="46.8" x2="45.8" y2="44.6">
	<stop  offset="0" style="stop-color:#002E8C"/>
	<stop  offset="1" style="stop-color:#009EC0"/>
</linearGradient>
<path class="st9" d="M46.2,44.6L44.7,46c0.2,0.3,0.5,0.5,0.7,0.8l1.5-1.4C46.6,45.1,46.4,44.8,46.2,44.6z"/>
<linearGradient id="SVGID_11_" gradientUnits="userSpaceOnUse" x1="54.85" y1="45.6" x2="54.85" y2="42.2">
	<stop  offset="0" style="stop-color:#002E8C"/>
	<stop  offset="1" style="stop-color:#009EC0"/>
</linearGradient>
<polygon class="st10" points="53.8,44.5 54.1,44.1 54.8,44.9 54.8,44.8 54.7,45 55.5,45.6 56.7,43.9 55.8,43.3 55.4,44 54.7,43.1 
	54.9,42.7 54,42.2 53,43.9 "/>
<linearGradient id="SVGID_12_" gradientUnits="userSpaceOnUse" x1="51.9" y1="52.1" x2="51.9" y2="49.9">
	<stop  offset="0" style="stop-color:#002E8C"/>
	<stop  offset="1" style="stop-color:#009EC0"/>
</linearGradient>
<path class="st11" d="M52.9,50.5l-0.8-0.6l-1.2,1.6c0.3,0.2,0.6,0.4,0.8,0.6L52.9,50.5z"/>
<linearGradient id="SVGID_13_" gradientUnits="userSpaceOnUse" x1="50.35" y1="42.5" x2="50.35" y2="40.2">
	<stop  offset="0" style="stop-color:#002E8C"/>
	<stop  offset="1" style="stop-color:#009EC0"/>
</linearGradient>
<path class="st12" d="M51.3,40.7c-0.3-0.2-0.6-0.3-1-0.5l-0.9,1.9c0.3,0.1,0.6,0.3,0.9,0.4L51.3,40.7z"/>
<linearGradient id="SVGID_14_" gradientUnits="userSpaceOnUse" x1="53.6" y1="53.4" x2="53.6" y2="51.1">
	<stop  offset="0" style="stop-color:#002E8C"/>
	<stop  offset="1" style="stop-color:#009EC0"/>
</linearGradient>
<polygon class="st13" points="54.6,51.7 53.8,51.1 52.6,52.8 53.4,53.4 "/>
<linearGradient id="SVGID_15_" gradientUnits="userSpaceOnUse" x1="48.45" y1="41.7" x2="48.45" y2="39.4">
	<stop  offset="0" style="stop-color:#002E8C"/>
	<stop  offset="1" style="stop-color:#009EC0"/>
</linearGradient>
<path class="st14" d="M49.3,39.8c-0.3-0.1-0.7-0.3-1-0.4l-0.7,1.9c0.3,0.1,0.6,0.2,0.9,0.4L49.3,39.8z"/>
<linearGradient id="SVGID_16_" gradientUnits="userSpaceOnUse" x1="52.15" y1="43.4" x2="52.15" y2="41.1">
	<stop  offset="0" style="stop-color:#002E8C"/>
	<stop  offset="1" style="stop-color:#009EC0"/>
</linearGradient>
<path class="st15" d="M52.1,43.4l1-1.8c-0.3-0.2-0.6-0.3-0.9-0.5l-1,1.8C51.5,43.1,51.8,43.3,52.1,43.4z"/>
<linearGradient id="SVGID_17_" gradientUnits="userSpaceOnUse" x1="58.8" y1="56.6" x2="58.8" y2="54.3">
	<stop  offset="0" style="stop-color:#002E8C"/>
	<stop  offset="1" style="stop-color:#009EC0"/>
</linearGradient>
<path class="st16" d="M57.9,56.1c0.3,0.2,0.6,0.3,0.9,0.5l0.9-1.8c-0.3-0.1-0.6-0.3-0.9-0.5L57.9,56.1z"/>
<linearGradient id="SVGID_18_" gradientUnits="userSpaceOnUse" x1="64.6" y1="58.8" x2="64.6" y2="56.6">
	<stop  offset="0" style="stop-color:#002E8C"/>
	<stop  offset="1" style="stop-color:#009EC0"/>
</linearGradient>
<path class="st17" d="M63.9,58.6c0.4,0.1,0.8,0.2,1.1,0.2l0.3-2c-0.3,0-0.6-0.1-0.9-0.2L63.9,58.6z"/>
<linearGradient id="SVGID_19_" gradientUnits="userSpaceOnUse" x1="56.95" y1="55.6" x2="56.95" y2="53.3">
	<stop  offset="0" style="stop-color:#002E8C"/>
	<stop  offset="1" style="stop-color:#009EC0"/>
</linearGradient>
<path class="st18" d="M57.1,53.3L56,55.1c0.3,0.2,0.6,0.4,0.9,0.5l1-1.8L57.1,53.3z"/>
<linearGradient id="SVGID_20_" gradientUnits="userSpaceOnUse" x1="60.7" y1="57.5" x2="60.7" y2="55.2">
	<stop  offset="0" style="stop-color:#002E8C"/>
	<stop  offset="1" style="stop-color:#009EC0"/>
</linearGradient>
<path class="st19" d="M59.8,57.1c0.3,0.2,0.7,0.3,1,0.4l0.8-1.9c-0.3-0.1-0.6-0.3-0.9-0.4L59.8,57.1z"/>
<linearGradient id="SVGID_21_" gradientUnits="userSpaceOnUse" x1="62.6" y1="58.3" x2="62.6" y2="56">
	<stop  offset="0" style="stop-color:#002E8C"/>
	<stop  offset="1" style="stop-color:#009EC0"/>
</linearGradient>
<path class="st20" d="M61.8,57.9c0.4,0.1,0.7,0.3,1,0.4l0.6-2c-0.3-0.1-0.6-0.2-0.9-0.3L61.8,57.9z"/>
<linearGradient id="SVGID_22_" gradientUnits="userSpaceOnUse" x1="67.45" y1="56.5" x2="67.45" y2="55.1">
	<stop  offset="0" style="stop-color:#002E8C"/>
	<stop  offset="1" style="stop-color:#009EC0"/>
</linearGradient>
<path class="st21" d="M66.3,55.9c0.1,0.3,0.2,0.5,0.2,0.6h2.1c0-0.4-0.1-0.9-0.3-1.4L66.3,55.9z"/>
<linearGradient id="SVGID_23_" gradientUnits="userSpaceOnUse" x1="66.85" y1="58.8" x2="66.85" y2="56.6">
	<stop  offset="0" style="stop-color:#002E8C"/>
	<stop  offset="1" style="stop-color:#009EC0"/>
</linearGradient>
<path class="st22" d="M66,56.8l0.2,2c0.6-0.1,1.1-0.3,1.5-0.6l-1.3-1.6C66.4,56.7,66.3,56.8,66,56.8z"/>
<linearGradient id="SVGID_24_" gradientUnits="userSpaceOnUse" x1="66.55" y1="55.2" x2="66.55" y2="53.2">
	<stop  offset="0" style="stop-color:#002E8C"/>
	<stop  offset="1" style="stop-color:#009EC0"/>
</linearGradient>
<path class="st23" d="M67.1,53.2l-1.7,1.2c0.2,0.3,0.4,0.5,0.5,0.8l1.8-1C67.5,53.8,67.3,53.5,67.1,53.2z"/>
<linearGradient id="SVGID_25_" gradientUnits="userSpaceOnUse" x1="63.9" y1="52.1" x2="63.9" y2="49.9">
	<stop  offset="0" style="stop-color:#002E8C"/>
	<stop  offset="1" style="stop-color:#009EC0"/>
</linearGradient>
<path class="st24" d="M64.2,49.9l-1.4,1.5c0.2,0.2,0.5,0.5,0.7,0.7l1.5-1.4C64.7,50.5,64.5,50.2,64.2,49.9z"/>
<linearGradient id="SVGID_26_" gradientUnits="userSpaceOnUse" x1="65.3" y1="53.5" x2="65.3" y2="51.4">
	<stop  offset="0" style="stop-color:#002E8C"/>
	<stop  offset="1" style="stop-color:#009EC0"/>
</linearGradient>
<path class="st25" d="M64.2,52.8c0.2,0.3,0.4,0.5,0.6,0.7l1.6-1.3c-0.2-0.3-0.4-0.5-0.7-0.8L64.2,52.8z"/>
<linearGradient id="SVGID_27_" gradientUnits="userSpaceOnUse" x1="57.5" y1="46.9" x2="57.5" y2="44.5">
	<stop  offset="0" style="stop-color:#002E8C"/>
	<stop  offset="1" style="stop-color:#009EC0"/>
</linearGradient>
<polygon class="st26" points="56.4,46.1 57.4,46.9 58.6,45.2 57.6,44.5 "/>
<linearGradient id="SVGID_28_" gradientUnits="userSpaceOnUse" x1="58.5" y1="51.3" x2="58.5" y2="49.2">
	<stop  offset="0" style="stop-color:#002E8C"/>
	<stop  offset="1" style="stop-color:#009EC0"/>
</linearGradient>
<polygon class="st27" points="59.6,50.6 58.1,49.2 57.4,49.9 58.8,51.3 "/>
<linearGradient id="SVGID_29_" gradientUnits="userSpaceOnUse" x1="63.15" y1="39.5" x2="63.15" y2="37.3">
	<stop  offset="0" style="stop-color:#002E8C"/>
	<stop  offset="1" style="stop-color:#009EC0"/>
</linearGradient>
<path class="st28" d="M63.9,39.3l-0.4-2c-0.3,0.1-0.7,0.2-1.1,0.3l0.7,1.9C63.3,39.4,63.6,39.3,63.9,39.3z"/>
<linearGradient id="SVGID_30_" gradientUnits="userSpaceOnUse" x1="57.75" y1="42.4" x2="57.75" y2="40.1">
	<stop  offset="0" style="stop-color:#002E8C"/>
	<stop  offset="1" style="stop-color:#009EC0"/>
</linearGradient>
<path class="st29" d="M58.8,41.8l-1.2-1.7c-0.3,0.2-0.6,0.4-0.9,0.6l1.2,1.7C58.2,42.2,58.5,42,58.8,41.8z"/>
<linearGradient id="SVGID_31_" gradientUnits="userSpaceOnUse" x1="61.25" y1="40.3" x2="61.25" y2="38">
	<stop  offset="0" style="stop-color:#002E8C"/>
	<stop  offset="1" style="stop-color:#009EC0"/>
</linearGradient>
<path class="st30" d="M62.2,39.8L61.3,38c-0.3,0.1-0.6,0.3-1,0.5l1,1.8C61.6,40.1,61.9,40,62.2,39.8z"/>
<linearGradient id="SVGID_32_" gradientUnits="userSpaceOnUse" x1="59.45" y1="41.2" x2="59.45" y2="38.9">
	<stop  offset="0" style="stop-color:#002E8C"/>
	<stop  offset="1" style="stop-color:#009EC0"/>
</linearGradient>
<path class="st31" d="M60.4,40.7l-1-1.8c-0.3,0.2-0.6,0.4-0.9,0.6l1.1,1.7C59.9,41.1,60.2,40.9,60.4,40.7z"/>
<linearGradient id="SVGID_33_" gradientUnits="userSpaceOnUse" x1="65.5" y1="39.2" x2="65.5" y2="37.2">
	<stop  offset="0" style="stop-color:#002E8C"/>
	<stop  offset="1" style="stop-color:#009EC0"/>
</linearGradient>
<path class="st32" d="M66.2,37.9c-0.3-0.4-0.8-0.6-1.3-0.7l-0.3,2l1.8-0.9C66.4,38.2,66.3,38,66.2,37.9z"/>
<linearGradient id="SVGID_34_" gradientUnits="userSpaceOnUse" x1="60.6" y1="49.9" x2="60.6" y2="46.2">
	<stop  offset="0" style="stop-color:#002E8C"/>
	<stop  offset="1" style="stop-color:#009EC0"/>
</linearGradient>
<path class="st33" d="M61.7,48.3l0.7-0.8l-1.6-1.3L60.1,47l0.7,0.6l-0.6,0.8l-0.7-0.6c-0.2,0.2-0.4,0.5-0.7,0.7l1.5,1.4
	c0.2-0.3,0.5-0.5,0.7-0.8L60.9,49L61.7,48.3L61.7,48.3z"/>
<linearGradient id="SVGID_35_" gradientUnits="userSpaceOnUse" x1="64.85" y1="43.1" x2="64.85" y2="41.2">
	<stop  offset="0" style="stop-color:#002E8C"/>
	<stop  offset="1" style="stop-color:#009EC0"/>
</linearGradient>
<path class="st34" d="M65.5,43.1c0.2-0.3,0.4-0.7,0.5-1l-1.9-0.9c-0.1,0.3-0.3,0.6-0.4,0.8L65.5,43.1z"/>
<linearGradient id="SVGID_36_" gradientUnits="userSpaceOnUse" x1="56.8" y1="53.2" x2="56.8" y2="50.6">
	<stop  offset="0" style="stop-color:#002E8C"/>
	<stop  offset="1" style="stop-color:#009EC0"/>
</linearGradient>
<polygon class="st35" points="56.9,53.2 58.1,52.1 56.7,50.6 55.5,51.7 "/>
<linearGradient id="SVGID_37_" gradientUnits="userSpaceOnUse" x1="62.5" y1="46.7" x2="62.5" y2="44.6">
	<stop  offset="0" style="stop-color:#002E8C"/>
	<stop  offset="1" style="stop-color:#009EC0"/>
</linearGradient>
<path class="st36" d="M62,44.6c-0.2,0.3-0.4,0.5-0.6,0.8l1.6,1.3c0.2-0.3,0.4-0.6,0.6-0.8L62,44.6z"/>
<linearGradient id="SVGID_38_" gradientUnits="userSpaceOnUse" x1="65.6" y1="41.2" x2="65.6" y2="39.7">
	<stop  offset="0" style="stop-color:#002E8C"/>
	<stop  offset="1" style="stop-color:#009EC0"/>
</linearGradient>
<path class="st37" d="M66.7,39.9l-2-0.2c0,0.2-0.1,0.5-0.2,0.8l1.9,0.7C66.5,40.7,66.6,40.3,66.7,39.9z"/>
<linearGradient id="SVGID_39_" gradientUnits="userSpaceOnUse" x1="63.8" y1="45" x2="63.8" y2="43">
	<stop  offset="0" style="stop-color:#002E8C"/>
	<stop  offset="1" style="stop-color:#009EC0"/>
</linearGradient>
<path class="st38" d="M64.9,44.1L63.2,43c-0.2,0.3-0.4,0.5-0.5,0.8l1.7,1.2C64.5,44.6,64.7,44.4,64.9,44.1z"/>
<linearGradient id="SVGID_40_" gradientUnits="userSpaceOnUse" x1="55.15" y1="54.6" x2="55.15" y2="52.3">
	<stop  offset="0" style="stop-color:#002E8C"/>
	<stop  offset="1" style="stop-color:#009EC0"/>
</linearGradient>
<polygon class="st39" points="56.1,53.9 55.8,53.6 56.3,52.8 55.4,52.3 55.1,52.8 54.7,52.4 54,53 54.5,53.7 54.3,54 55.2,54.6 
	55.2,54.5 55.3,54.6 "/>
<linearGradient id="SVGID_41_" gradientUnits="userSpaceOnUse" x1="46.55" y1="60.3" x2="46.55" y2="58">
	<stop  offset="0" style="stop-color:#002E8C"/>
	<stop  offset="1" style="stop-color:#009EC0"/>
</linearGradient>
<path class="st40" d="M45.7,58.3l0.6,2c0.3-0.1,0.7-0.2,1.1-0.4L46.6,58C46.2,58.1,46,58.2,45.7,58.3z"/>
<linearGradient id="SVGID_42_" gradientUnits="userSpaceOnUse" x1="44.75" y1="55.3" x2="44.75" y2="53.4">
	<stop  offset="0" style="stop-color:#002E8C"/>
	<stop  offset="1" style="stop-color:#009EC0"/>
</linearGradient>
<path class="st41" d="M44.2,53.4c-0.2,0.3-0.4,0.6-0.6,0.9l1.8,1c0.2-0.3,0.3-0.5,0.5-0.8L44.2,53.4z"/>
<linearGradient id="SVGID_43_" gradientUnits="userSpaceOnUse" x1="48.3" y1="59.4" x2="48.3" y2="57.1">
	<stop  offset="0" style="stop-color:#002E8C"/>
	<stop  offset="1" style="stop-color:#009EC0"/>
</linearGradient>
<path class="st42" d="M47.4,57.6l0.9,1.8c0.3-0.2,0.6-0.3,0.9-0.5l-1-1.8C48,57.3,47.7,57.4,47.4,57.6z"/>
<linearGradient id="SVGID_44_" gradientUnits="userSpaceOnUse" x1="50.1" y1="58.4" x2="50.1" y2="56.1">
	<stop  offset="0" style="stop-color:#002E8C"/>
	<stop  offset="1" style="stop-color:#009EC0"/>
</linearGradient>
<path class="st43" d="M49.1,56.6l1.1,1.8c0.3-0.2,0.6-0.4,0.9-0.6L50,56.1C49.7,56.2,49.4,56.4,49.1,56.6z"/>
<linearGradient id="SVGID_45_" gradientUnits="userSpaceOnUse" x1="53.45" y1="55.9" x2="53.45" y2="53.7">
	<stop  offset="0" style="stop-color:#002E8C"/>
	<stop  offset="1" style="stop-color:#009EC0"/>
</linearGradient>
<polygon class="st44" points="52.4,54.3 53.7,55.9 54.5,55.3 53.2,53.7 "/>
<linearGradient id="SVGID_46_" gradientUnits="userSpaceOnUse" x1="44.35" y1="60.6" x2="44.35" y2="58.5">
	<stop  offset="0" style="stop-color:#002E8C"/>
	<stop  offset="1" style="stop-color:#009EC0"/>
</linearGradient>
<path class="st45" d="M44.4,58.5l-0.8,1.9c0.3,0.1,0.7,0.2,1.1,0.2l0,0c0.1,0,0.3,0,0.4,0l-0.2-2C44.5,58.5,44.4,58.5,44.4,58.5z"/>
<linearGradient id="SVGID_47_" gradientUnits="userSpaceOnUse" x1="51.8" y1="57.2" x2="51.8" y2="54.9">
	<stop  offset="0" style="stop-color:#002E8C"/>
	<stop  offset="1" style="stop-color:#009EC0"/>
</linearGradient>
<polygon class="st46" points="50.8,55.5 52,57.2 52.8,56.5 51.6,54.9 "/>
<linearGradient id="SVGID_48_" gradientUnits="userSpaceOnUse" x1="47.25" y1="52.1" x2="47.25" y2="50">
	<stop  offset="0" style="stop-color:#002E8C"/>
	<stop  offset="1" style="stop-color:#009EC0"/>
</linearGradient>
<path class="st47" d="M48.4,51.3L46.8,50c-0.2,0.3-0.5,0.5-0.7,0.8l1.6,1.3C47.9,51.8,48.1,51.6,48.4,51.3z"/>
<linearGradient id="SVGID_49_" gradientUnits="userSpaceOnUse" x1="49.3" y1="51" x2="49.3" y2="46.9">
	<stop  offset="0" style="stop-color:#002E8C"/>
	<stop  offset="1" style="stop-color:#009EC0"/>
</linearGradient>
<path class="st48" d="M49.2,50.3L50,51l1.3-1.6l-0.7-0.6c0.1-0.2,0.3-0.3,0.4-0.5l-1.5-1.4c-0.2,0.2-0.4,0.4-0.5,0.6
	c0,0,0,0-0.1-0.1l-1.4,1.5l0,0l-0.2,0.2l1.6,1.4L49.2,50.3z M49.7,49.8l-0.8-0.7l0.7-0.8l0.7,0.7L49.7,49.8z"/>
<linearGradient id="SVGID_50_" gradientUnits="userSpaceOnUse" x1="43.35" y1="58.9" x2="43.35" y2="57.4">
	<stop  offset="0" style="stop-color:#002E8C"/>
	<stop  offset="1" style="stop-color:#009EC0"/>
</linearGradient>
<path class="st49" d="M44.4,57.8l-2-0.4c-0.1,0.3-0.1,0.6-0.1,0.8s0,0.5,0.1,0.7l2-0.7C44.3,58.1,44.3,58,44.4,57.8z"/>
<linearGradient id="SVGID_51_" gradientUnits="userSpaceOnUse" x1="46" y1="53.8" x2="46" y2="51.7">
	<stop  offset="0" style="stop-color:#002E8C"/>
	<stop  offset="1" style="stop-color:#009EC0"/>
</linearGradient>
<path class="st50" d="M47.1,52.9l-1.6-1.2c-0.2,0.3-0.4,0.6-0.6,0.9l1.7,1.2C46.7,53.4,46.9,53.1,47.1,52.9z"/>
<linearGradient id="SVGID_52_" gradientUnits="userSpaceOnUse" x1="56.1" y1="43.6" x2="56.1" y2="41.4">
	<stop  offset="0" style="stop-color:#002E8C"/>
	<stop  offset="1" style="stop-color:#009EC0"/>
</linearGradient>
<path class="st51" d="M57.1,43l-1.2-1.6c-0.3,0.2-0.6,0.4-0.8,0.6l1.3,1.6C56.6,43.4,56.9,43.2,57.1,43z"/>
<linearGradient id="SVGID_53_" gradientUnits="userSpaceOnUse" x1="51.35" y1="47.6" x2="51.35" y2="45.4">
	<stop  offset="0" style="stop-color:#002E8C"/>
	<stop  offset="1" style="stop-color:#009EC0"/>
</linearGradient>
<path class="st52" d="M50.3,46.1l1.4,1.5c0.2-0.2,0.5-0.5,0.7-0.7L51,45.4C50.8,45.6,50.6,45.9,50.3,46.1z"/>
<linearGradient id="SVGID_54_" gradientUnits="userSpaceOnUse" x1="43.85" y1="57" x2="43.85" y2="55.3">
	<stop  offset="0" style="stop-color:#002E8C"/>
	<stop  offset="1" style="stop-color:#009EC0"/>
</linearGradient>
<path class="st53" d="M44.6,57c0.1-0.3,0.2-0.5,0.4-0.8l-1.8-0.9c-0.2,0.4-0.3,0.7-0.5,1L44.6,57z"/>
<linearGradient id="SVGID_55_" gradientUnits="userSpaceOnUse" x1="52.9" y1="46.2" x2="52.9" y2="44">
	<stop  offset="0" style="stop-color:#002E8C"/>
	<stop  offset="1" style="stop-color:#009EC0"/>
</linearGradient>
<path class="st54" d="M54,45.5L52.6,44c-0.3,0.2-0.5,0.5-0.8,0.7l1.4,1.5L54,45.5z"/>
<linearGradient id="SVGID_56_" gradientUnits="userSpaceOnUse" x1="55" y1="83" x2="55" y2="16.9">
	<stop  offset="0" style="stop-color:#002E8C"/>
	<stop  offset="1" style="stop-color:#009EC0"/>
</linearGradient>
<path class="st55" d="M102.2,16.9H7.8c-4.3,0-7.8,3.5-7.8,7.8v50.5C0,79.5,3.5,83,7.8,83h94.4c4.3,0,7.8-3.5,7.8-7.8V24.7
	C110,20.4,106.5,16.9,102.2,16.9z M107,75.2c0,2.7-2.2,4.8-4.8,4.8H7.8C5.1,80,3,77.8,3,75.2V24.7c0-2.7,2.2-4.8,4.8-4.8h94.4
	c2.7,0,4.8,2.2,4.8,4.8C107,24.7,107,75.2,107,75.2z"/>
<path class="st56" d="M102.1,74.9h-4.2c-0.7,0-1.3,0.6-1.3,1.3s0.6,1.3,1.3,1.3h4.2c0.7,0,1.3-0.6,1.3-1.3S102.8,74.9,102.1,74.9z"
	/>
<path class="st56" d="M69.1,93.5H56.5V92c0-1.1-0.7-2.1-1.5-2.1s-1.5,0.9-1.5,2.1v1.5H40.8c-1.1,0-2.1,0.7-2.1,1.5s0.9,1.5,2.1,1.5
	h28.3c1.1,0,2.1-0.7,2.1-1.5S70.2,93.5,69.1,93.5z"/>
</svg>
