<?xml version="1.0" encoding="utf-8"?>
<!-- Generator: Adobe Illustrator 23.0.5, SVG Export Plug-In . SVG Version: 6.00 Build 0)  -->
<svg version="1.1" id="Layer_1" xmlns="http://www.w3.org/2000/svg" xmlns:xlink="http://www.w3.org/1999/xlink" x="0px" y="0px"
	 viewBox="0 0 75.3 81.2" style="enable-background:new 0 0 75.3 81.2;" xml:space="preserve">
<style type="text/css">
	.st0{fill:url(#SVGID_1_);}
	.st1{fill:url(#SVGID_2_);}
	.st2{fill:url(#SVGID_3_);}
	.st3{fill:url(#SVGID_4_);}
	.st4{fill:url(#SVGID_5_);}
	.st5{fill:url(#SVGID_6_);}
	.st6{fill:url(#SVGID_7_);}
	.st7{fill:url(#SVGID_8_);}
	.st8{fill:url(#SVGID_9_);}
	.st9{fill:url(#SVGID_10_);}
	.st10{fill:url(#SVGID_11_);}
	.st11{fill:url(#SVGID_12_);}
	.st12{fill:url(#SVGID_13_);}
	.st13{fill:url(#SVGID_14_);}
	.st14{fill:url(#SVGID_15_);}
	.st15{fill:url(#SVGID_16_);}
	.st16{fill:url(#SVGID_17_);}
	.st17{fill:url(#SVGID_18_);}
	.st18{fill:url(#SVGID_19_);}
	.st19{fill:url(#SVGID_20_);}
	.st20{fill:url(#SVGID_21_);}
	.st21{fill:url(#SVGID_22_);}
	.st22{fill:url(#SVGID_23_);}
	.st23{fill:url(#SVGID_24_);}
	.st24{fill:url(#SVGID_25_);}
	.st25{fill:url(#SVGID_26_);}
	.st26{fill:url(#SVGID_27_);}
	.st27{fill:url(#SVGID_28_);}
	.st28{fill:url(#SVGID_29_);}
	.st29{fill:url(#SVGID_30_);}
	.st30{fill:url(#SVGID_31_);}
	.st31{fill:url(#SVGID_32_);}
	.st32{fill:url(#SVGID_33_);}
	.st33{fill:url(#SVGID_34_);}
	.st34{fill:url(#SVGID_35_);}
	.st35{fill:url(#SVGID_36_);}
	.st36{fill:url(#SVGID_37_);}
	.st37{fill:url(#SVGID_38_);}
	.st38{fill:url(#SVGID_39_);}
	.st39{fill:url(#SVGID_40_);}
	.st40{fill:url(#SVGID_41_);}
	.st41{fill:url(#SVGID_42_);}
	.st42{fill:url(#SVGID_43_);}
	.st43{fill:url(#SVGID_44_);}
	.st44{fill:url(#SVGID_45_);}
	.st45{fill:url(#SVGID_46_);}
	.st46{fill:url(#SVGID_47_);}
	.st47{fill:url(#SVGID_48_);}
	.st48{fill:url(#SVGID_49_);}
	.st49{fill:url(#SVGID_50_);}
	.st50{fill:url(#SVGID_51_);}
	.st51{fill:url(#SVGID_52_);}
	.st52{fill:url(#SVGID_53_);}
	.st53{fill:url(#SVGID_54_);}
	.st54{fill:url(#SVGID_55_);}
	.st55{fill:url(#SVGID_56_);}
	.st56{fill:url(#SVGID_57_);}
	.st57{fill:url(#SVGID_58_);}
	.st58{fill:url(#SVGID_59_);}
	.st59{fill:url(#SVGID_60_);}
	.st60{fill:url(#SVGID_61_);}
	.st61{fill:url(#SVGID_62_);}
	.st62{fill:url(#SVGID_63_);}
	.st63{fill:url(#SVGID_64_);}
	.st64{fill:url(#SVGID_65_);}
	.st65{fill:url(#SVGID_66_);}
	.st66{fill:url(#SVGID_67_);}
	.st67{fill:url(#SVGID_68_);}
	.st68{fill:url(#SVGID_69_);}
	.st69{fill:url(#SVGID_70_);}
	.st70{fill:url(#SVGID_71_);}
	.st71{fill:url(#SVGID_72_);}
</style>
<g>
	<linearGradient id="SVGID_1_" gradientUnits="userSpaceOnUse" x1="41.0811" y1="41.1716" x2="42.1279" y2="41.1716">
		<stop  offset="0" style="stop-color:#002E8C"/>
		<stop  offset="1" style="stop-color:#009EC0"/>
	</linearGradient>
	<polygon class="st0" points="42.1,41 41.8,40.6 41.1,41.4 41.4,41.7 	"/>
	<linearGradient id="SVGID_2_" gradientUnits="userSpaceOnUse" x1="31.0972" y1="34.9763" x2="31.8149" y2="34.9763">
		<stop  offset="0" style="stop-color:#002E8C"/>
		<stop  offset="1" style="stop-color:#009EC0"/>
	</linearGradient>
	<path class="st1" d="M31.8,34.6c-0.2,0-0.4-0.1-0.5-0.1l-0.2,1c0.1,0,0.3,0.1,0.5,0.1L31.8,34.6z"/>
	<linearGradient id="SVGID_3_" gradientUnits="userSpaceOnUse" x1="37.1997" y1="38.0693" x2="38.1753" y2="38.0693">
		<stop  offset="0" style="stop-color:#002E8C"/>
		<stop  offset="1" style="stop-color:#009EC0"/>
	</linearGradient>
	<polygon class="st2" points="37.2,38.3 37.6,38.6 38.2,37.8 37.8,37.5 	"/>
	<linearGradient id="SVGID_4_" gradientUnits="userSpaceOnUse" x1="29.7896" y1="37.739" x2="30.8862" y2="37.739">
		<stop  offset="0" style="stop-color:#002E8C"/>
		<stop  offset="1" style="stop-color:#009EC0"/>
	</linearGradient>
	<path class="st3" d="M29.8,37.8c0.1,0.1,0.2,0.3,0.3,0.4l0.8-0.6c-0.1-0.1-0.2-0.3-0.3-0.4L29.8,37.8z"/>
	<linearGradient id="SVGID_5_" gradientUnits="userSpaceOnUse" x1="30.1699" y1="34.8349" x2="30.7534" y2="34.8349">
		<stop  offset="0" style="stop-color:#002E8C"/>
		<stop  offset="1" style="stop-color:#009EC0"/>
	</linearGradient>
	<path class="st4" d="M30.4,35.3c0.1,0,0.2,0,0.3,0l0.1-1c-0.1,0-0.3,0-0.4,0h0c-0.1,0-0.1,0-0.2,0l0.1,1L30.4,35.3z"/>
	<linearGradient id="SVGID_6_" gradientUnits="userSpaceOnUse" x1="31.1367" y1="39.2292" x2="32.1992" y2="39.2292">
		<stop  offset="0" style="stop-color:#002E8C"/>
		<stop  offset="1" style="stop-color:#009EC0"/>
	</linearGradient>
	<path class="st5" d="M31.5,39.8l0.7-0.7c-0.1-0.1-0.2-0.2-0.3-0.3l-0.7,0.7C31.3,39.5,31.4,39.6,31.5,39.8z"/>
	<linearGradient id="SVGID_7_" gradientUnits="userSpaceOnUse" x1="28.9063" y1="34.9748" x2="29.9189" y2="34.9748">
		<stop  offset="0" style="stop-color:#002E8C"/>
		<stop  offset="1" style="stop-color:#009EC0"/>
	</linearGradient>
	<path class="st6" d="M29.9,35.4l-0.4-0.9c-0.2,0.1-0.4,0.3-0.5,0.4l-0.1,0.1L29.9,35.4C29.8,35.4,29.9,35.4,29.9,35.4z"/>
	<linearGradient id="SVGID_8_" gradientUnits="userSpaceOnUse" x1="28.8066" y1="36.0618" x2="29.8989" y2="36.0618">
		<stop  offset="0" style="stop-color:#002E8C"/>
		<stop  offset="1" style="stop-color:#009EC0"/>
	</linearGradient>
	<path class="st7" d="M29.8,35.7l-1,0.1c0,0.2,0.1,0.4,0.2,0.6l0.9-0.4C29.8,35.9,29.8,35.8,29.8,35.7z"/>
	<linearGradient id="SVGID_9_" gradientUnits="userSpaceOnUse" x1="29.207" y1="36.9265" x2="30.3223" y2="36.9265">
		<stop  offset="0" style="stop-color:#002E8C"/>
		<stop  offset="1" style="stop-color:#009EC0"/>
	</linearGradient>
	<path class="st8" d="M29.5,37.4l0.8-0.5c-0.1-0.1-0.2-0.3-0.2-0.4l-0.9,0.5C29.3,37.1,29.4,37.2,29.5,37.4z"/>
	<linearGradient id="SVGID_10_" gradientUnits="userSpaceOnUse" x1="34.6719" y1="36.5036" x2="35.5879" y2="36.5036">
		<stop  offset="0" style="stop-color:#002E8C"/>
		<stop  offset="1" style="stop-color:#009EC0"/>
	</linearGradient>
	<path class="st9" d="M35.1,37.1l0.5-0.9c-0.2-0.1-0.3-0.2-0.4-0.2l-0.5,0.9L35.1,37.1z"/>
	<linearGradient id="SVGID_11_" gradientUnits="userSpaceOnUse" x1="33.3896" y1="41.2319" x2="34.4097" y2="41.2319">
		<stop  offset="0" style="stop-color:#002E8C"/>
		<stop  offset="1" style="stop-color:#009EC0"/>
	</linearGradient>
	<polygon class="st10" points="34.4,41 34,40.7 33.4,41.5 33.8,41.8 	"/>
	<linearGradient id="SVGID_12_" gradientUnits="userSpaceOnUse" x1="34.1826" y1="41.8515" x2="35.1885" y2="41.8515">
		<stop  offset="0" style="stop-color:#002E8C"/>
		<stop  offset="1" style="stop-color:#009EC0"/>
	</linearGradient>
	<polygon class="st11" points="35.2,41.6 34.8,41.3 34.2,42.1 34.6,42.4 	"/>
	<linearGradient id="SVGID_13_" gradientUnits="userSpaceOnUse" x1="34.9902" y1="42.4504" x2="35.9834" y2="42.4504">
		<stop  offset="0" style="stop-color:#002E8C"/>
		<stop  offset="1" style="stop-color:#009EC0"/>
	</linearGradient>
	<polygon class="st12" points="36,42.2 35.6,41.9 35,42.7 35.4,43 	"/>
	<linearGradient id="SVGID_14_" gradientUnits="userSpaceOnUse" x1="31.8662" y1="39.9223" x2="32.9131" y2="39.9223">
		<stop  offset="0" style="stop-color:#002E8C"/>
		<stop  offset="1" style="stop-color:#009EC0"/>
	</linearGradient>
	<polygon class="st13" points="32.9,39.7 32.6,39.4 31.9,40.1 32.2,40.5 	"/>
	<linearGradient id="SVGID_15_" gradientUnits="userSpaceOnUse" x1="32.9082" y1="35.6262" x2="33.7627" y2="35.6262">
		<stop  offset="0" style="stop-color:#002E8C"/>
		<stop  offset="1" style="stop-color:#009EC0"/>
	</linearGradient>
	<path class="st14" d="M33.8,35.3c-0.2-0.1-0.3-0.1-0.5-0.2L32.9,36c0.1,0.1,0.3,0.1,0.4,0.2L33.8,35.3z"/>
	<linearGradient id="SVGID_16_" gradientUnits="userSpaceOnUse" x1="32.0049" y1="35.2617" x2="32.8081" y2="35.2617">
		<stop  offset="0" style="stop-color:#002E8C"/>
		<stop  offset="1" style="stop-color:#009EC0"/>
	</linearGradient>
	<path class="st15" d="M32.8,34.9c-0.2-0.1-0.3-0.1-0.5-0.2l-0.3,1c0.1,0,0.3,0.1,0.5,0.2L32.8,34.9z"/>
	<linearGradient id="SVGID_17_" gradientUnits="userSpaceOnUse" x1="35.5303" y1="36.9963" x2="36.4688" y2="36.9963">
		<stop  offset="0" style="stop-color:#002E8C"/>
		<stop  offset="1" style="stop-color:#009EC0"/>
	</linearGradient>
	<polygon class="st16" points="36,37.6 36.5,36.7 36,36.4 35.5,37.3 	"/>
	<linearGradient id="SVGID_18_" gradientUnits="userSpaceOnUse" x1="33.7969" y1="36.0442" x2="34.6855" y2="36.0442">
		<stop  offset="0" style="stop-color:#002E8C"/>
		<stop  offset="1" style="stop-color:#009EC0"/>
	</linearGradient>
	<path class="st17" d="M34.7,35.7c-0.2-0.1-0.3-0.2-0.5-0.2l-0.4,0.9l0.4,0.2L34.7,35.7z"/>
	<linearGradient id="SVGID_19_" gradientUnits="userSpaceOnUse" x1="38.8042" y1="39.2424" x2="39.8096" y2="39.2424">
		<stop  offset="0" style="stop-color:#002E8C"/>
		<stop  offset="1" style="stop-color:#009EC0"/>
	</linearGradient>
	<polygon class="st18" points="39.8,39 39.4,38.7 38.8,39.5 39.2,39.8 	"/>
	<linearGradient id="SVGID_20_" gradientUnits="userSpaceOnUse" x1="42.1904" y1="46.0996" x2="42.915" y2="46.0996">
		<stop  offset="0" style="stop-color:#002E8C"/>
		<stop  offset="1" style="stop-color:#009EC0"/>
	</linearGradient>
	<path class="st19" d="M42.2,46.5c0.2,0,0.4,0.1,0.5,0.1l0.2-1c-0.1,0-0.3-0.1-0.5-0.1L42.2,46.5z"/>
	<linearGradient id="SVGID_21_" gradientUnits="userSpaceOnUse" x1="41.2012" y1="45.8052" x2="42.0088" y2="45.8052">
		<stop  offset="0" style="stop-color:#002E8C"/>
		<stop  offset="1" style="stop-color:#009EC0"/>
	</linearGradient>
	<path class="st20" d="M41.2,46.2c0.2,0.1,0.3,0.1,0.5,0.2l0.3-0.9c-0.1,0-0.3-0.1-0.5-0.2L41.2,46.2z"/>
	<linearGradient id="SVGID_22_" gradientUnits="userSpaceOnUse" x1="41.793" y1="41.8647" x2="42.8555" y2="41.8647">
		<stop  offset="0" style="stop-color:#002E8C"/>
		<stop  offset="1" style="stop-color:#009EC0"/>
	</linearGradient>
	<path class="st21" d="M42.5,41.3L41.8,42c0.1,0.1,0.2,0.2,0.3,0.3l0.7-0.7C42.7,41.6,42.6,41.5,42.5,41.3z"/>
	<linearGradient id="SVGID_23_" gradientUnits="userSpaceOnUse" x1="40.248" y1="45.437" x2="41.1045" y2="45.437">
		<stop  offset="0" style="stop-color:#002E8C"/>
		<stop  offset="1" style="stop-color:#009EC0"/>
	</linearGradient>
	<path class="st22" d="M40.2,45.8c0.2,0.1,0.3,0.1,0.5,0.2l0.4-0.9c-0.1-0.1-0.3-0.1-0.4-0.2L40.2,45.8z"/>
	<linearGradient id="SVGID_24_" gradientUnits="userSpaceOnUse" x1="44.0898" y1="46.1225" x2="45.0986" y2="46.1225">
		<stop  offset="0" style="stop-color:#002E8C"/>
		<stop  offset="1" style="stop-color:#009EC0"/>
	</linearGradient>
	<path class="st23" d="M44.1,45.7l0.4,0.9c0.2-0.1,0.4-0.2,0.5-0.5l0.1-0.1L44.1,45.7C44.2,45.6,44.2,45.7,44.1,45.7z"/>
	<linearGradient id="SVGID_25_" gradientUnits="userSpaceOnUse" x1="43.6719" y1="44.1675" x2="44.7861" y2="44.1675">
		<stop  offset="0" style="stop-color:#002E8C"/>
		<stop  offset="1" style="stop-color:#009EC0"/>
	</linearGradient>
	<path class="st24" d="M44.5,43.7l-0.8,0.5c0.1,0.1,0.2,0.3,0.2,0.4l0.9-0.5C44.7,44,44.6,43.9,44.5,43.7z"/>
	<linearGradient id="SVGID_26_" gradientUnits="userSpaceOnUse" x1="43.1074" y1="43.353" x2="44.2061" y2="43.353">
		<stop  offset="0" style="stop-color:#002E8C"/>
		<stop  offset="1" style="stop-color:#009EC0"/>
	</linearGradient>
	<path class="st25" d="M44.2,43.3c-0.1-0.1-0.2-0.3-0.3-0.4l-0.8,0.6c0.1,0.1,0.2,0.3,0.3,0.4L44.2,43.3z"/>
	<linearGradient id="SVGID_27_" gradientUnits="userSpaceOnUse" x1="38.4224" y1="44.56" x2="39.3369" y2="44.56">
		<stop  offset="0" style="stop-color:#002E8C"/>
		<stop  offset="1" style="stop-color:#009EC0"/>
	</linearGradient>
	<path class="st26" d="M38.9,44l-0.5,0.9c0.2,0.1,0.3,0.2,0.5,0.2l0.5-0.9C39.2,44.2,39.1,44.1,38.9,44z"/>
	<linearGradient id="SVGID_28_" gradientUnits="userSpaceOnUse" x1="43.248" y1="46.2519" x2="43.8252" y2="46.2519">
		<stop  offset="0" style="stop-color:#002E8C"/>
		<stop  offset="1" style="stop-color:#009EC0"/>
	</linearGradient>
	<path class="st27" d="M43.7,45.8c-0.1,0-0.2,0-0.3,0l-0.1,1c0.2,0,0.3,0,0.4,0l0.2,0l0-1L43.7,45.8z"/>
	<linearGradient id="SVGID_29_" gradientUnits="userSpaceOnUse" x1="39.3271" y1="45.0166" x2="40.2148" y2="45.0166">
		<stop  offset="0" style="stop-color:#002E8C"/>
		<stop  offset="1" style="stop-color:#009EC0"/>
	</linearGradient>
	<polygon class="st28" points="39.3,45.4 39.8,45.6 40.2,44.7 39.8,44.5 	"/>
	<linearGradient id="SVGID_30_" gradientUnits="userSpaceOnUse" x1="30.4414" y1="38.5034" x2="31.5205" y2="38.5034">
		<stop  offset="0" style="stop-color:#002E8C"/>
		<stop  offset="1" style="stop-color:#009EC0"/>
	</linearGradient>
	<path class="st29" d="M31.2,38l-0.8,0.7c0.1,0.1,0.2,0.3,0.3,0.4l0.7-0.7C31.4,38.2,31.3,38.1,31.2,38z"/>
	<linearGradient id="SVGID_31_" gradientUnits="userSpaceOnUse" x1="38.0093" y1="38.6445" x2="39.002" y2="38.6445">
		<stop  offset="0" style="stop-color:#002E8C"/>
		<stop  offset="1" style="stop-color:#009EC0"/>
	</linearGradient>
	<polygon class="st30" points="38,38.9 38.4,39.2 39,38.4 38.6,38.1 	"/>
	<linearGradient id="SVGID_32_" gradientUnits="userSpaceOnUse" x1="37.5415" y1="44.0708" x2="38.4771" y2="44.0708">
		<stop  offset="0" style="stop-color:#002E8C"/>
		<stop  offset="1" style="stop-color:#009EC0"/>
	</linearGradient>
	<polygon class="st31" points="38.1,43.5 37.5,44.4 38,44.6 38.5,43.8 	"/>
	<linearGradient id="SVGID_33_" gradientUnits="userSpaceOnUse" x1="42.4736" y1="42.5898" x2="43.5527" y2="42.5898">
		<stop  offset="0" style="stop-color:#002E8C"/>
		<stop  offset="1" style="stop-color:#009EC0"/>
	</linearGradient>
	<path class="st32" d="M42.5,42.7c0.1,0.1,0.2,0.2,0.3,0.4l0.8-0.7c-0.1-0.1-0.2-0.3-0.3-0.4L42.5,42.7z"/>
	<linearGradient id="SVGID_34_" gradientUnits="userSpaceOnUse" x1="44.0977" y1="45.0317" x2="45.1904" y2="45.0317">
		<stop  offset="0" style="stop-color:#002E8C"/>
		<stop  offset="1" style="stop-color:#009EC0"/>
	</linearGradient>
	<path class="st33" d="M44.2,45.4l1-0.1c0-0.2-0.1-0.4-0.2-0.6L44.1,45C44.2,45.2,44.2,45.3,44.2,45.4z"/>
	<linearGradient id="SVGID_35_" gradientUnits="userSpaceOnUse" x1="38.6221" y1="35.6941" x2="39.5918" y2="35.6941">
		<stop  offset="0" style="stop-color:#002E8C"/>
		<stop  offset="1" style="stop-color:#009EC0"/>
	</linearGradient>
	<path class="st34" d="M39.6,36L39,35.1c-0.1,0.1-0.3,0.2-0.4,0.3l0.6,0.8C39.3,36.2,39.5,36.1,39.6,36z"/>
	<linearGradient id="SVGID_36_" gradientUnits="userSpaceOnUse" x1="39.583" y1="40.0732" x2="41.4316" y2="40.0732">
		<stop  offset="0" style="stop-color:#002E8C"/>
		<stop  offset="1" style="stop-color:#009EC0"/>
	</linearGradient>
	<path class="st35" d="M40.5,40.8l0.2,0.2l0.7-0.8l-0.2-0.2c0.1-0.1,0.2-0.2,0.3-0.4l-0.8-0.6c-0.1,0.1-0.2,0.2-0.3,0.3l-0.2-0.1
		l-0.6,0.8l0.1,0.1l0,0L40.5,40.8L40.5,40.8z M41,40l-0.3,0.4l-0.4-0.3l0.3-0.4L41,40z"/>
	<linearGradient id="SVGID_37_" gradientUnits="userSpaceOnUse" x1="40.9639" y1="38.8323" x2="42.0605" y2="38.8323">
		<stop  offset="0" style="stop-color:#002E8C"/>
		<stop  offset="1" style="stop-color:#009EC0"/>
	</linearGradient>
	<path class="st36" d="M42.1,38.9l-0.8-0.6c-0.1,0.1-0.2,0.3-0.3,0.4l0.8,0.6C41.9,39.2,42,39.1,42.1,38.9z"/>
	<linearGradient id="SVGID_38_" gradientUnits="userSpaceOnUse" x1="41.3262" y1="34.2751" x2="42.1309" y2="34.2751">
		<stop  offset="0" style="stop-color:#002E8C"/>
		<stop  offset="1" style="stop-color:#009EC0"/>
	</linearGradient>
	<path class="st37" d="M42.1,34.7l-0.3-1c-0.2,0-0.3,0.1-0.5,0.2l0.4,0.9C41.9,34.8,42,34.7,42.1,34.7z"/>
	<linearGradient id="SVGID_39_" gradientUnits="userSpaceOnUse" x1="40.376" y1="34.676" x2="41.2715" y2="34.676">
		<stop  offset="0" style="stop-color:#002E8C"/>
		<stop  offset="1" style="stop-color:#009EC0"/>
	</linearGradient>
	<path class="st38" d="M41.3,35l-0.4-0.9c-0.2,0.1-0.3,0.1-0.5,0.2l0.5,0.9C41,35.2,41.1,35.1,41.3,35z"/>
	<linearGradient id="SVGID_40_" gradientUnits="userSpaceOnUse" x1="39.4795" y1="35.1584" x2="40.4219" y2="35.1584">
		<stop  offset="0" style="stop-color:#002E8C"/>
		<stop  offset="1" style="stop-color:#009EC0"/>
	</linearGradient>
	<path class="st39" d="M40.4,35.5l-0.5-0.9c-0.1,0.1-0.3,0.2-0.4,0.3l0.5,0.9C40.1,35.6,40.3,35.5,40.4,35.5z"/>
	<linearGradient id="SVGID_41_" gradientUnits="userSpaceOnUse" x1="41.5537" y1="38.0276" x2="42.6602" y2="38.0276">
		<stop  offset="0" style="stop-color:#002E8C"/>
		<stop  offset="1" style="stop-color:#009EC0"/>
	</linearGradient>
	<path class="st40" d="M42.7,38.1l-0.8-0.6c-0.1,0.1-0.2,0.3-0.3,0.4l0.8,0.6C42.5,38.4,42.6,38.2,42.7,38.1z"/>
	<linearGradient id="SVGID_42_" gradientUnits="userSpaceOnUse" x1="42.998" y1="35.4365" x2="44.0986" y2="35.4365">
		<stop  offset="0" style="stop-color:#002E8C"/>
		<stop  offset="1" style="stop-color:#009EC0"/>
	</linearGradient>
	<path class="st41" d="M44.1,35.3l-1-0.2c0,0.1-0.1,0.3-0.1,0.4l0.9,0.4C44,35.6,44.1,35.4,44.1,35.3z"/>
	<linearGradient id="SVGID_43_" gradientUnits="userSpaceOnUse" x1="42.3896" y1="34.0629" x2="43.0186" y2="34.0629">
		<stop  offset="0" style="stop-color:#002E8C"/>
		<stop  offset="1" style="stop-color:#009EC0"/>
	</linearGradient>
	<path class="st42" d="M42.9,34.6l0.1-1c-0.2,0-0.4,0-0.6,0l0.2,1C42.7,34.6,42.8,34.5,42.9,34.6z"/>
	<linearGradient id="SVGID_44_" gradientUnits="userSpaceOnUse" x1="39.0283" y1="41.1108" x2="40.0996" y2="41.1108">
		<stop  offset="0" style="stop-color:#002E8C"/>
		<stop  offset="1" style="stop-color:#009EC0"/>
	</linearGradient>
	<polygon class="st43" points="40.1,41.3 39.4,40.6 39,40.9 39.8,41.6 	"/>
	<linearGradient id="SVGID_45_" gradientUnits="userSpaceOnUse" x1="43.1104" y1="34.2837" x2="44.1445" y2="34.2837">
		<stop  offset="0" style="stop-color:#002E8C"/>
		<stop  offset="1" style="stop-color:#009EC0"/>
	</linearGradient>
	<path class="st44" d="M43.2,34.7l1-0.1c0-0.3-0.1-0.5-0.3-0.6l-0.1-0.1l-0.6,0.8l0.4-0.3L43.2,34.7z"/>
	<linearGradient id="SVGID_46_" gradientUnits="userSpaceOnUse" x1="42.6016" y1="36.3347" x2="43.7207" y2="36.3347">
		<stop  offset="0" style="stop-color:#002E8C"/>
		<stop  offset="1" style="stop-color:#009EC0"/>
	</linearGradient>
	<path class="st45" d="M42.8,35.9c-0.1,0.1-0.1,0.3-0.2,0.4l0.9,0.5c0.1-0.2,0.2-0.3,0.2-0.5L42.8,35.9z"/>
	<linearGradient id="SVGID_47_" gradientUnits="userSpaceOnUse" x1="38.3413" y1="41.8349" x2="39.4043" y2="41.8349">
		<stop  offset="0" style="stop-color:#002E8C"/>
		<stop  offset="1" style="stop-color:#009EC0"/>
	</linearGradient>
	<polygon class="st46" points="39.4,42 38.7,41.3 38.3,41.7 39,42.4 	"/>
	<linearGradient id="SVGID_48_" gradientUnits="userSpaceOnUse" x1="42.1084" y1="37.1992" x2="43.2217" y2="37.1992">
		<stop  offset="0" style="stop-color:#002E8C"/>
		<stop  offset="1" style="stop-color:#009EC0"/>
	</linearGradient>
	<path class="st47" d="M42.9,37.7c0.1-0.1,0.2-0.3,0.3-0.4l-0.9-0.5c-0.1,0.1-0.2,0.3-0.3,0.4L42.9,37.7z"/>
	<linearGradient id="SVGID_49_" gradientUnits="userSpaceOnUse" x1="37.4961" y1="42.6069" x2="38.6924" y2="42.6069">
		<stop  offset="0" style="stop-color:#002E8C"/>
		<stop  offset="1" style="stop-color:#009EC0"/>
	</linearGradient>
	<polygon class="st48" points="38.7,42.7 38,42 37.5,42.5 38.2,43.2 	"/>
	<linearGradient id="SVGID_50_" gradientUnits="userSpaceOnUse" x1="29.1426" y1="46.9941" x2="30.189" y2="46.9941">
		<stop  offset="0" style="stop-color:#002E8C"/>
		<stop  offset="1" style="stop-color:#009EC0"/>
	</linearGradient>
	<path class="st49" d="M30.1,46.6l-1,0c0,0.3,0.1,0.5,0.2,0.8l0.8-0.6C30.2,46.7,30.1,46.7,30.1,46.6z"/>
	<linearGradient id="SVGID_51_" gradientUnits="userSpaceOnUse" x1="31.0688" y1="47.1606" x2="31.8594" y2="47.1606">
		<stop  offset="0" style="stop-color:#002E8C"/>
		<stop  offset="1" style="stop-color:#009EC0"/>
	</linearGradient>
	<path class="st50" d="M31.1,46.8l0.3,1c0.2,0,0.3-0.1,0.5-0.2l-0.4-0.9C31.4,46.7,31.2,46.7,31.1,46.8z"/>
	<linearGradient id="SVGID_52_" gradientUnits="userSpaceOnUse" x1="31.9326" y1="46.7744" x2="32.8208" y2="46.7744">
		<stop  offset="0" style="stop-color:#002E8C"/>
		<stop  offset="1" style="stop-color:#009EC0"/>
	</linearGradient>
	<path class="st51" d="M31.9,46.4l0.4,0.9c0.2-0.1,0.3-0.1,0.5-0.2l-0.5-0.9C32.2,46.3,32.1,46.4,31.9,46.4z"/>
	<linearGradient id="SVGID_53_" gradientUnits="userSpaceOnUse" x1="32.7827" y1="46.2978" x2="33.7207" y2="46.2978">
		<stop  offset="0" style="stop-color:#002E8C"/>
		<stop  offset="1" style="stop-color:#009EC0"/>
	</linearGradient>
	<path class="st52" d="M32.8,46l0.5,0.9c0.1-0.1,0.3-0.2,0.4-0.3l-0.5-0.9C33.1,45.8,32.9,45.9,32.8,46z"/>
	<linearGradient id="SVGID_54_" gradientUnits="userSpaceOnUse" x1="30.0713" y1="44.0806" x2="31.1855" y2="44.0806">
		<stop  offset="0" style="stop-color:#002E8C"/>
		<stop  offset="1" style="stop-color:#009EC0"/>
	</linearGradient>
	<path class="st53" d="M30.3,43.6c-0.1,0.2-0.2,0.3-0.3,0.4l0.9,0.5c0.1-0.1,0.2-0.3,0.3-0.4L30.3,43.6z"/>
	<linearGradient id="SVGID_55_" gradientUnits="userSpaceOnUse" x1="30.1196" y1="47.3413" x2="30.7773" y2="47.3413">
		<stop  offset="0" style="stop-color:#002E8C"/>
		<stop  offset="1" style="stop-color:#009EC0"/>
	</linearGradient>
	<path class="st54" d="M30.5,46.8c-0.1,0-0.1,0-0.2,0l-0.2,1c0.1,0,0.2,0,0.4,0c0,0,0,0,0,0c0.1,0,0.2,0,0.3,0l-0.1-1
		C30.6,46.8,30.6,46.8,30.5,46.8z"/>
	<linearGradient id="SVGID_56_" gradientUnits="userSpaceOnUse" x1="33.6162" y1="45.7695" x2="34.584" y2="45.7695">
		<stop  offset="0" style="stop-color:#002E8C"/>
		<stop  offset="1" style="stop-color:#009EC0"/>
	</linearGradient>
	<path class="st55" d="M33.6,45.5l0.5,0.8c0.1-0.1,0.3-0.2,0.4-0.3L34,45.2C33.9,45.3,33.8,45.4,33.6,45.5z"/>
	<linearGradient id="SVGID_57_" gradientUnits="userSpaceOnUse" x1="29.2061" y1="45.8501" x2="30.3071" y2="45.8501">
		<stop  offset="0" style="stop-color:#002E8C"/>
		<stop  offset="1" style="stop-color:#009EC0"/>
	</linearGradient>
	<path class="st56" d="M29.2,46l1,0.2c0-0.1,0.1-0.3,0.1-0.4l-0.9-0.3C29.3,45.7,29.2,45.8,29.2,46z"/>
	<linearGradient id="SVGID_58_" gradientUnits="userSpaceOnUse" x1="35.2192" y1="44.602" x2="36.2266" y2="44.602">
		<stop  offset="0" style="stop-color:#002E8C"/>
		<stop  offset="1" style="stop-color:#009EC0"/>
	</linearGradient>
	<polygon class="st57" points="35.2,44.4 35.8,45.2 36.2,44.8 35.6,44.1 	"/>
	<linearGradient id="SVGID_59_" gradientUnits="userSpaceOnUse" x1="35.8262" y1="43.4922" x2="37.7852" y2="43.4922">
		<stop  offset="0" style="stop-color:#002E8C"/>
		<stop  offset="1" style="stop-color:#009EC0"/>
	</linearGradient>
	<path class="st58" d="M37.8,43.5l-0.2-0.2l0-0.1l-0.2-0.1l-0.3-0.3l-0.4,0.3l0.2,0.3l-0.3,0.4l-0.3-0.4l-0.1,0.1l0.5-0.8l-0.4-0.3
		l-0.6,0.8l0.4,0.3L36,43.7l0.6,0.8l0.4-0.3l-0.3-0.3c0.1,0.1,0.2,0.1,0.3,0.2l0.2-0.3l0.1,0.1L37.8,43.5z"/>
	<linearGradient id="SVGID_60_" gradientUnits="userSpaceOnUse" x1="34.4282" y1="45.2016" x2="35.417" y2="45.2016">
		<stop  offset="0" style="stop-color:#002E8C"/>
		<stop  offset="1" style="stop-color:#009EC0"/>
	</linearGradient>
	<path class="st59" d="M34.4,44.9l0.6,0.8c0.1-0.1,0.3-0.2,0.4-0.3l-0.6-0.8C34.7,44.7,34.6,44.8,34.4,44.9z"/>
	<linearGradient id="SVGID_61_" gradientUnits="userSpaceOnUse" x1="29.5767" y1="44.9473" x2="30.6948" y2="44.9473">
		<stop  offset="0" style="stop-color:#002E8C"/>
		<stop  offset="1" style="stop-color:#009EC0"/>
	</linearGradient>
	<path class="st60" d="M30.7,45l-0.9-0.5c-0.1,0.2-0.2,0.3-0.2,0.5l0.9,0.4C30.5,45.3,30.6,45.1,30.7,45z"/>
	<linearGradient id="SVGID_62_" gradientUnits="userSpaceOnUse" x1="30.6313" y1="43.251" x2="31.7373" y2="43.251">
		<stop  offset="0" style="stop-color:#002E8C"/>
		<stop  offset="1" style="stop-color:#009EC0"/>
	</linearGradient>
	<path class="st61" d="M31.7,43.3l-0.8-0.6c-0.1,0.1-0.2,0.3-0.3,0.4l0.8,0.6C31.5,43.6,31.6,43.5,31.7,43.3z"/>
	<linearGradient id="SVGID_63_" gradientUnits="userSpaceOnUse" x1="31.2349" y1="42.4519" x2="32.3311" y2="42.4519">
		<stop  offset="0" style="stop-color:#002E8C"/>
		<stop  offset="1" style="stop-color:#009EC0"/>
	</linearGradient>
	<polygon class="st62" points="32.3,42.6 31.5,41.9 31.2,42.3 32,43 	"/>
	<linearGradient id="SVGID_64_" gradientUnits="userSpaceOnUse" x1="31.873" y1="41.6758" x2="32.959" y2="41.6758">
		<stop  offset="0" style="stop-color:#002E8C"/>
		<stop  offset="1" style="stop-color:#009EC0"/>
	</linearGradient>
	<polygon class="st63" points="33,41.8 32.2,41.2 31.9,41.5 32.6,42.2 	"/>
	<linearGradient id="SVGID_65_" gradientUnits="userSpaceOnUse" x1="37.7915" y1="36.2659" x2="38.7827" y2="36.2659">
		<stop  offset="0" style="stop-color:#002E8C"/>
		<stop  offset="1" style="stop-color:#009EC0"/>
	</linearGradient>
	<polygon class="st64" points="38.8,36.5 38.2,35.7 37.8,36 38.4,36.8 	"/>
	<linearGradient id="SVGID_66_" gradientUnits="userSpaceOnUse" x1="36.9834" y1="36.8677" x2="37.9922" y2="36.8677">
		<stop  offset="0" style="stop-color:#002E8C"/>
		<stop  offset="1" style="stop-color:#009EC0"/>
	</linearGradient>
	<polygon class="st65" points="38,37.1 37.4,36.3 37,36.6 37.6,37.4 	"/>
	<linearGradient id="SVGID_67_" gradientUnits="userSpaceOnUse" x1="36.1968" y1="37.5117" x2="37.3306" y2="37.5117">
		<stop  offset="0" style="stop-color:#002E8C"/>
		<stop  offset="1" style="stop-color:#009EC0"/>
	</linearGradient>
	<polygon class="st66" points="36.2,37.3 36.5,37.6 36.4,37.8 36.8,38.1 36.8,38 36.8,38 37.2,37.7 37.1,37.6 37.3,37.2 36.9,37 
		36.8,37.2 36.6,36.9 	"/>
	<linearGradient id="SVGID_68_" gradientUnits="userSpaceOnUse" x1="35.4277" y1="38.1401" x2="36.4624" y2="38.1401">
		<stop  offset="0" style="stop-color:#002E8C"/>
		<stop  offset="1" style="stop-color:#009EC0"/>
	</linearGradient>
	<polygon class="st67" points="36.5,38.4 35.8,37.6 35.4,37.9 36.1,38.7 	"/>
	<linearGradient id="SVGID_69_" gradientUnits="userSpaceOnUse" x1="34.6768" y1="38.8061" x2="35.7207" y2="38.8061">
		<stop  offset="0" style="stop-color:#002E8C"/>
		<stop  offset="1" style="stop-color:#009EC0"/>
	</linearGradient>
	<polygon class="st68" points="35.7,39 35.1,38.3 34.7,38.6 35.4,39.3 	"/>
	<linearGradient id="SVGID_70_" gradientUnits="userSpaceOnUse" x1="32.5391" y1="40.5593" x2="34.2959" y2="40.5593">
		<stop  offset="0" style="stop-color:#002E8C"/>
		<stop  offset="1" style="stop-color:#009EC0"/>
	</linearGradient>
	<polygon class="st69" points="33.6,41.1 33.3,40.8 33.6,40.4 34,40.7 34.3,40.4 33.6,39.7 33.2,40 33.3,40.1 32.9,40.4 32.9,40.4 
		32.5,40.8 33.3,41.4 	"/>
	<linearGradient id="SVGID_71_" gradientUnits="userSpaceOnUse" x1="33.9429" y1="39.4914" x2="34.9976" y2="39.4914">
		<stop  offset="0" style="stop-color:#002E8C"/>
		<stop  offset="1" style="stop-color:#009EC0"/>
	</linearGradient>
	<polygon class="st70" points="33.9,39.3 34.6,40 35,39.7 34.3,39 	"/>
</g>
<linearGradient id="SVGID_72_" gradientUnits="userSpaceOnUse" x1="38.5" y1="78.9" x2="38.5" y2="2.3">
	<stop  offset="0" style="stop-color:#002E8C"/>
	<stop  offset="1" style="stop-color:#009EC0"/>
</linearGradient>
<path class="st71" d="M59.5,37.7h-1.9c-0.1,0-0.1,0-0.2,0l-0.1-9.6c0-3.3-1.5-5.6-4.3-7l-0.6-0.3v-0.1L47.9,3
	c-0.1-0.4-0.5-0.7-0.9-0.7L26.8,2.4c-0.4,0-0.8,0.3-0.9,0.7L21.5,21L21,21.2c-2.9,1.4-4.4,3.9-4.4,7l0.1,24.9c0,2.2,0.8,5.2,4.4,7
	l0.5,0.2v0.1l4.6,17.8c0.1,0.4,0.5,0.7,0.9,0.7l20.2-0.1c0.7,0,0.9-0.7,0.9-0.7l4.5-17.9l0.4-0.2c1.6-0.8,4.4-2.8,4.4-7v-9.5
	c0,0,0.1,0,0.1,0h1.9c0.5,0,0.9-0.4,0.9-0.9v-4C60.4,38.1,60,37.7,59.5,37.7z M27.5,4.2l18.7-0.1l4.1,16.2l-26.9,0.1L27.5,4.2z
	 M46.5,77.1h-0.2l-18.5,0.1V77l-4.1-16l26.9-0.1L46.5,77.1z M53.1,57.8c-1.2,0.9-2.7,1.3-3.6,1.3l-25,0.1c-3.3,0-6-2.7-6-6
	l-0.1-24.9c0-4.2,4.3-6,6-6l24.9-0.1c3.3,0,6,2.7,6,6l0.1,24.9C55.6,55.6,54.3,57,53.1,57.8z"/>
</svg>
