<?xml version="1.0" encoding="utf-8"?>
<!-- Generator: Adobe Illustrator 23.0.5, SVG Export Plug-In . SVG Version: 6.00 Build 0)  -->
<svg version="1.1" id="Capa_1" xmlns="http://www.w3.org/2000/svg" xmlns:xlink="http://www.w3.org/1999/xlink" x="0px" y="0px"
	 viewBox="0 0 280 280" style="enable-background:new 0 0 280 280;" xml:space="preserve">
<style type="text/css">
	.st0{fill:url(#SVGID_1_);}
	.st1{fill:url(#SVGID_2_);}
	.st2{fill:url(#SVGID_3_);}
	.st3{fill:url(#SVGID_4_);}
	.st4{fill:url(#SVGID_5_);}
</style>
<linearGradient id="SVGID_1_" gradientUnits="userSpaceOnUse" x1="138.2" y1="234.8" x2="138.2" y2="112">
	<stop  offset="0" style="stop-color:#002E8C"/>
	<stop  offset="1" style="stop-color:#009EC0"/>
</linearGradient>
<path class="st0" d="M138.2,112c-10.8,0-19.5,8.7-19.5,19.5c0,8.4,5.4,15.8,13.3,18.5l1.4,0.5V230c0,2.7,2.2,4.8,4.8,4.8
	s4.8-2.2,4.8-4.8v-79.6l1.4-0.5c8-2.7,13.3-10.1,13.3-18.5C157.7,120.7,149,112,138.2,112z"/>
<linearGradient id="SVGID_2_" gradientUnits="userSpaceOnUse" x1="186.5311" y1="176.1" x2="186.5311" y2="83.3">
	<stop  offset="0" style="stop-color:#002E8C"/>
	<stop  offset="1" style="stop-color:#009EC0"/>
</linearGradient>
<path class="st1" d="M202.6,129.5c0-18.7-9.6-35.8-25.6-45.6c-0.7-0.4-1.5-0.6-2.2-0.6c-1.5,0-2.9,0.8-3.7,2.1
	c-0.6,1-0.8,2.1-0.5,3.3c0.3,1.1,1,2.1,1.9,2.7c13.4,8.2,21.4,22.5,21.4,38.3c0,15.7-8,30-21.4,38.3c-1,0.6-1.7,1.6-1.9,2.7
	c-0.3,1.1-0.1,2.3,0.5,3.3c0.8,1.3,2.2,2.1,3.7,2.1c0.8,0,1.6-0.2,2.3-0.6C193,165.3,202.6,148.2,202.6,129.5z"/>
<linearGradient id="SVGID_3_" gradientUnits="userSpaceOnUse" x1="215.6634" y1="198.8" x2="215.6634" y2="60">
	<stop  offset="0" style="stop-color:#002E8C"/>
	<stop  offset="1" style="stop-color:#009EC0"/>
</linearGradient>
<path class="st2" d="M236.7,129.5c0-27.2-12.5-52.2-34.3-68.5c-0.8-0.6-1.8-1-2.9-1c-1.5,0-2.9,0.7-3.9,1.9c-1.6,2.1-1.2,5.1,1,6.7
	c19.3,14.5,30.4,36.7,30.4,60.8s-11.1,46.3-30.4,60.8c-2.1,1.6-2.6,4.6-1,6.7c0.9,1.2,2.3,1.9,3.9,1.9c1,0,2-0.3,2.9-1
	C224.2,181.6,236.7,156.7,236.7,129.5z"/>
<linearGradient id="SVGID_4_" gradientUnits="userSpaceOnUse" x1="89.9189" y1="175.4" x2="89.9189" y2="83">
	<stop  offset="0" style="stop-color:#002E8C"/>
	<stop  offset="1" style="stop-color:#009EC0"/>
</linearGradient>
<path class="st3" d="M105.9,170.4c-0.3-1.1-1-2.1-1.9-2.7c-13.4-8.2-21.4-22.5-21.4-38.3c0-15.7,8-30,21.4-38.3
	c1-0.6,1.7-1.6,1.9-2.7c0.3-1.1,0.1-2.3-0.5-3.3c-0.8-1.3-2.2-2.1-3.7-2.1c-0.8,0-1.6,0.2-2.3,0.6c-16,9.8-25.6,26.9-25.6,45.6
	s9.6,35.8,25.6,45.6c0.7,0.4,1.5,0.6,2.3,0.6c1.5,0,2.9-0.8,3.7-2.1C106,172.7,106.1,171.5,105.9,170.4z"/>
<linearGradient id="SVGID_5_" gradientUnits="userSpaceOnUse" x1="60.822" y1="199" x2="60.822" y2="60.04">
	<stop  offset="0" style="stop-color:#002E8C"/>
	<stop  offset="1" style="stop-color:#009EC0"/>
</linearGradient>
<path class="st4" d="M79.9,190.3c-19.3-14.5-30.4-36.7-30.4-60.8s11.1-46.3,30.4-60.8c2.1-1.6,2.6-4.6,1-6.7c-0.8-1-1.9-1.7-3.2-1.9
	c-1.3-0.2-2.5,0.1-3.6,0.9c-21.8,16.3-34.3,41.3-34.3,68.5s12.5,52.2,34.3,68.5c0.8,0.6,1.8,1,2.9,1c1.5,0,2.9-0.7,3.9-1.9
	C82.4,194.9,82,191.9,79.9,190.3z"/>
</svg>
