<?xml version="1.0" encoding="utf-8"?>
<!-- Generator: Adobe Illustrator 23.0.5, SVG Export Plug-In . SVG Version: 6.00 Build 0)  -->
<svg version="1.1" id="圖層_1" xmlns="http://www.w3.org/2000/svg" xmlns:xlink="http://www.w3.org/1999/xlink" x="0px" y="0px"
	 viewBox="0 0 110 110" style="enable-background:new 0 0 110 110;" xml:space="preserve">
<style type="text/css">
	.st0{fill:url(#SVGID_1_);}
	.st1{fill:url(#SVGID_2_);}
	.st2{fill:url(#SVGID_3_);}
</style>
<g>
	<g>
		<linearGradient id="SVGID_1_" gradientUnits="userSpaceOnUse" x1="47.9" y1="78" x2="47.9" y2="72.0338">
			<stop  offset="0" style="stop-color:#002E8C"/>
			<stop  offset="1" style="stop-color:#009EC0"/>
		</linearGradient>
		<path class="st0" d="M47.9,78c-0.7,0-1.4-0.3-2-0.8c-1.2-1.1-1.3-3-0.2-4.2l0,0c1.1-1.2,3-1.3,4.2-0.2c1.2,1.1,1.3,3,0.2,4.2
			C49.5,77.7,48.7,78,47.9,78z"/>
	</g>
	<g>
		<linearGradient id="SVGID_2_" gradientUnits="userSpaceOnUse" x1="32" y1="78" x2="32" y2="72.0338">
			<stop  offset="0" style="stop-color:#002E8C"/>
			<stop  offset="1" style="stop-color:#009EC0"/>
		</linearGradient>
		<path class="st1" d="M32,78c-0.7,0-1.4-0.3-2-0.8c-1.2-1.1-1.3-3-0.2-4.2l0,0c1.1-1.2,3-1.3,4.2-0.2c1.2,1.1,1.3,3,0.2,4.2
			C33.6,77.7,32.8,78,32,78z"/>
	</g>
	<g>
		<linearGradient id="SVGID_3_" gradientUnits="userSpaceOnUse" x1="55.8" y1="92.5" x2="55.8" y2="17.9">
			<stop  offset="0" style="stop-color:#002E8C"/>
			<stop  offset="1" style="stop-color:#009EC0"/>
		</linearGradient>
		<path class="st2" d="M93.1,92.5H18.5c-2.2,0-4-1.8-4-4V59.1L26,20.7c0.5-1.7,2.1-2.8,3.8-2.8h52c1.8,0,3.3,1.1,3.8,2.8l11.5,38.6
			l0,0v29.2C97.1,90.7,95.3,92.5,93.1,92.5z M17.7,60.8v27.8c0,0.4,0.4,0.8,0.8,0.8h74.6c0.4,0,0.8-0.4,0.8-0.8V60.8H17.7z
			 M18.3,57.6h74.9l-10.6-36c-0.1-0.3-0.4-0.6-0.8-0.6h-52c-0.3,0-0.7,0.2-0.8,0.6L18.3,57.6z"/>
	</g>
</g>
</svg>
