<?xml version="1.0" encoding="utf-8"?>
<!-- Generator: Adobe Illustrator 23.0.5, SVG Export Plug-In . SVG Version: 6.00 Build 0)  -->
<svg version="1.1" id="Layer_1" xmlns="http://www.w3.org/2000/svg" xmlns:xlink="http://www.w3.org/1999/xlink" x="0px" y="0px"
	 viewBox="0 0 110 110" style="enable-background:new 0 0 110 110;" xml:space="preserve">
<style type="text/css">
	.st0{fill:url(#SVGID_1_);}
	.st1{fill:url(#SVGID_2_);}
	.st2{fill:url(#SVGID_3_);}
	.st3{fill:url(#SVGID_4_);}
	.st4{fill:url(#SVGID_5_);}
</style>
<g>
	<linearGradient id="SVGID_1_" gradientUnits="userSpaceOnUse" x1="56.1" y1="67.9" x2="56.1" y2="18.4">
		<stop  offset="0" style="stop-color:#002E8C"/>
		<stop  offset="1" style="stop-color:#009EC0"/>
	</linearGradient>
	<path class="st0" d="M56.1,67.9c13.6,0,24.7-11.1,24.7-24.7c0-13.6-11.1-24.8-24.7-24.8c-13.6,0-24.7,11.1-24.7,24.7
		C31.4,56.7,42.5,67.9,56.1,67.9z M56.1,21.3c12,0,21.8,9.8,21.8,21.8S68.1,65,56.1,65s-21.8-9.8-21.8-21.9
		C34.3,31,44.1,21.3,56.1,21.3z"/>
	<linearGradient id="SVGID_2_" gradientUnits="userSpaceOnUse" x1="56.1" y1="55" x2="56.1" y2="31.2">
		<stop  offset="0" style="stop-color:#002E8C"/>
		<stop  offset="1" style="stop-color:#009EC0"/>
	</linearGradient>
	<path class="st1" d="M56.1,55C62.6,55,68,49.7,68,43.1c0-6.6-5.3-11.9-11.9-11.9c-6.6,0-11.9,5.3-11.9,11.9
		C44.2,49.7,49.5,55,56.1,55z M56.1,34.2c4.9,0,8.9,4,8.9,8.9c0,4.9-4,8.9-8.9,8.9c-4.9,0-8.9-4-8.9-8.9
		C47.2,38.2,51.2,34.2,56.1,34.2z"/>
	<linearGradient id="SVGID_3_" gradientUnits="userSpaceOnUse" x1="56.05" y1="49.1" x2="56.05" y2="37.2">
		<stop  offset="0" style="stop-color:#002E8C"/>
		<stop  offset="1" style="stop-color:#009EC0"/>
	</linearGradient>
	<path class="st2" d="M56.1,49.1c3.2,0,5.9-2.7,5.9-5.9c0-0.8-0.7-1.5-1.5-1.5S59,42.4,59,43.2c0,1.7-1.3,3-3,3s-3-1.3-3-3
		s1.3-3,3-3c0.8,0,1.5-0.7,1.5-1.5s-0.7-1.5-1.5-1.5c-3.2,0-5.9,2.7-5.9,5.9C50.2,46.4,52.9,49.1,56.1,49.1z"/>
	<linearGradient id="SVGID_4_" gradientUnits="userSpaceOnUse" x1="56.0514" y1="101.5" x2="56.0514" y2="8.5">
		<stop  offset="0" style="stop-color:#002E8C"/>
		<stop  offset="1" style="stop-color:#009EC0"/>
	</linearGradient>
	<path class="st3" d="M90.8,81V43.1C90.8,24,75.2,8.5,56.1,8.5C37,8.5,21.4,24.1,21.4,43.1v37.8c-3.4,0.7-5.9,3.7-5.9,7.3v5.9
		c0,4.1,3.3,7.4,7.4,7.4h66.3c4.1,0,7.4-3.3,7.4-7.4v-5.9C96.7,84.6,94.1,81.7,90.8,81z M24.4,43.1c0-17.5,14.2-31.7,31.7-31.7
		c17.5,0,31.7,14.2,31.7,31.7v37.7H30.9h-1.4h-5.1V43.1z M89.3,98.7H22.9c-2.4,0-4.5-2-4.5-4.5v-5.9c0-2.4,2-4.5,4.5-4.5h6.6h1.4
		h58.3c2.4,0,4.5,2,4.5,4.5l0.1,5.9C93.8,96.6,91.8,98.7,89.3,98.7z"/>
	<linearGradient id="SVGID_5_" gradientUnits="userSpaceOnUse" x1="21.4" y1="88.2" x2="90.7096" y2="88.2">
		<stop  offset="0" style="stop-color:#002E8C"/>
		<stop  offset="1" style="stop-color:#002E8C"/>
	</linearGradient>
	<path class="st4" d="M89.3,86.7H22.9c-0.8,0-1.5,0.7-1.5,1.5c0,0.8,0.7,1.5,1.5,1.5h66.3c0.8,0,1.5-0.7,1.5-1.5
		C90.8,87.4,90.1,86.7,89.3,86.7z"/>
</g>
</svg>
