<?xml version="1.0" encoding="utf-8"?>
<!-- Generator: Adobe Illustrator 23.0.5, SVG Export Plug-In . SVG Version: 6.00 Build 0)  -->
<svg version="1.1" id="圖層_1" xmlns="http://www.w3.org/2000/svg" xmlns:xlink="http://www.w3.org/1999/xlink" x="0px" y="0px"
	 viewBox="0 0 89.7 8.3" style="enable-background:new 0 0 89.7 8.3;" xml:space="preserve">
<g>
	<path d="M2.2,1.7H0V0.1h6.2v1.5H4v6.5H2.2V1.7z"/>
	<path d="M9.6,0.1v3.1h3V0.1h1.8v8.1h-1.8V4.8h-3v3.4H7.8V0.1H9.6z"/>
	<path d="M21.5,4.8h-3v1.9h3.3v1.5h-5.2V0.1h5v1.5h-3.2v1.7h3V4.8z"/>
	<path d="M26.4,8.2V7.1l1-0.9c1.7-1.5,2.5-2.4,2.6-3.3c0-0.6-0.4-1.1-1.3-1.1c-0.7,0-1.3,0.3-1.7,0.6l-0.5-1.3
		c0.6-0.4,1.5-0.8,2.6-0.8c1.8,0,2.7,1,2.7,2.4c0,1.3-0.9,2.4-2.1,3.4L29,6.7v0h2.9v1.5H26.4z"/>
	<path d="M34,6.4c0.3,0.2,1.1,0.5,1.8,0.5c0.9,0,1.4-0.5,1.4-1c0-0.8-0.8-1.1-1.6-1.1h-0.7V3.4h0.7c0.6,0,1.4-0.2,1.4-0.9
		c0-0.5-0.4-0.8-1.2-0.8c-0.6,0-1.3,0.3-1.6,0.5l-0.4-1.3c0.5-0.3,1.4-0.6,2.4-0.6c1.7,0,2.6,0.9,2.6,1.9c0,0.8-0.5,1.5-1.4,1.8v0
		c0.9,0.2,1.7,0.9,1.7,1.9c0,1.4-1.2,2.4-3.2,2.4c-1,0-1.9-0.3-2.3-0.6L34,6.4z"/>
	<path d="M46.1,1.9h-3l-0.2,1.2c0.2,0,0.3,0,0.5,0c0.7,0,1.5,0.2,2.1,0.6c0.6,0.4,0.9,1,0.9,2c0,1.5-1.2,2.7-3.3,2.7
		c-0.9,0-1.7-0.2-2.2-0.4l0.3-1.4c0.3,0.2,1.1,0.4,1.8,0.4c0.8,0,1.6-0.4,1.6-1.2c0-0.8-0.6-1.3-2.2-1.3c-0.4,0-0.7,0-1.1,0.1
		l0.5-4.1h4.3V1.9z"/>
	<path d="M48.1,6.2c0-0.9,0.5-1.6,1.4-2v0c-0.8-0.4-1.1-1-1.1-1.7c0-1.3,1.2-2.2,2.7-2.2c1.8,0,2.6,1.1,2.6,2c0,0.7-0.4,1.3-1.1,1.7
		v0C53.3,4.3,53.9,5,53.9,6c0,1.4-1.2,2.4-3,2.4C49,8.3,48.1,7.2,48.1,6.2z M52.1,6.1c0-0.7-0.5-1.1-1.2-1.3C50.3,5,49.9,5.4,49.9,6
		c0,0.6,0.4,1.1,1.1,1.1C51.7,7.1,52.1,6.7,52.1,6.1z M50,2.4c0,0.5,0.5,0.9,1.1,1.1c0.4-0.1,0.8-0.5,0.8-1c0-0.5-0.3-1-0.9-1
		C50.4,1.5,50,1.9,50,2.4z"/>
	<path d="M58.8,6.3c0.5,0.3,1.2,0.5,2,0.5c0.8,0,1.3-0.3,1.3-0.9c0-0.5-0.4-0.8-1.4-1.1c-1.3-0.5-2.2-1.2-2.2-2.4
		c0-1.4,1.2-2.4,3.1-2.4c0.9,0,1.6,0.2,2.1,0.4l-0.4,1.5c-0.3-0.2-0.9-0.4-1.7-0.4s-1.2,0.4-1.2,0.8c0,0.5,0.5,0.7,1.5,1.1
		C63.3,3.9,64,4.7,64,5.8c0,1.4-1,2.5-3.3,2.5c-0.9,0-1.8-0.2-2.3-0.5L58.8,6.3z"/>
	<path d="M67.7,0.1v3.1h3V0.1h1.8v8.1h-1.8V4.8h-3v3.4h-1.8V0.1H67.7z"/>
	<path d="M82.1,4.1c0,2.7-1.6,4.3-4,4.3c-2.4,0-3.8-1.8-3.8-4.1c0-2.4,1.5-4.2,3.9-4.2C80.7,0,82.1,1.9,82.1,4.1z M76.3,4.2
		c0,1.6,0.7,2.7,2,2.7c1.2,0,1.9-1.2,1.9-2.7c0-1.5-0.7-2.7-2-2.7C77,1.5,76.3,2.6,76.3,4.2z"/>
	<path d="M83.9,0.2c0.6-0.1,1.4-0.2,2.5-0.2c1.1,0,1.9,0.2,2.5,0.6c0.5,0.4,0.9,1.1,0.9,1.9S89.4,4.1,89,4.5
		c-0.6,0.6-1.5,0.9-2.6,0.9c-0.2,0-0.5,0-0.6,0v2.9h-1.8V0.2z M85.7,3.9c0.2,0,0.3,0,0.6,0c1,0,1.6-0.5,1.6-1.3
		c0-0.7-0.5-1.2-1.4-1.2c-0.4,0-0.6,0-0.8,0.1V3.9z"/>
</g>
</svg>
