<?xml version="1.0" encoding="utf-8"?>
<!-- Generator: Adobe Illustrator 23.0.5, SVG Export Plug-In . SVG Version: 6.00 Build 0)  -->
<svg version="1.1" id="Capa_1" xmlns="http://www.w3.org/2000/svg" xmlns:xlink="http://www.w3.org/1999/xlink" x="0px" y="0px"
	 viewBox="0 0 512 512" style="enable-background:new 0 0 512 512;" xml:space="preserve">
<path d="M322.5,29.4C304.8,11.7,281.2,2,256,2c-51.8,0-94,42.2-94,94v34h-57c-7.3,0-13.3,5.5-13.9,12.7L63.8,442.4
	c-1.6,17.3,4.2,34.6,16,47.4c11.7,12.8,28.4,20.2,45.8,20.2h260.9c17.4,0,34.1-7.4,45.8-20.2c11.7-12.8,17.5-30.1,16-47.4L421,142.7
	c-0.7-7.3-6.7-12.7-14-12.7h-57V96C350,70.8,340.2,47.1,322.5,29.4z M190,96c0-36.4,29.6-66,66-66c17.7,0,34.3,6.8,46.8,19.2
	C315.2,61.6,322,78.2,322,96v34H190V96z M394.2,158l0.2,1.8l25.9,285.1c0.9,9.6-2.2,18.9-8.7,26l0,0c-6.5,7.1-15.5,11-25.1,11H125.6
	c-9.7,0-18.6-3.9-25.1-11.1c-6.5-7.1-9.6-16.4-8.7-26L117.8,158H162v50c0,7.7,6.3,14,14,14s14-6.3,14-14v-50h132v50
	c0,7.7,6.3,14,14,14s14-6.3,14-14v-50H394.2z"/>
</svg>
