<?xml version="1.0" encoding="utf-8"?>
<!-- Generator: Adobe Illustrator 23.0.5, SVG Export Plug-In . SVG Version: 6.00 Build 0)  -->
<svg version="1.1" id="Capa_1" xmlns="http://www.w3.org/2000/svg" xmlns:xlink="http://www.w3.org/1999/xlink" x="0px" y="0px"
	 viewBox="0 0 19.7 19.7" style="enable-background:new 0 0 19.7 19.7;" xml:space="preserve">
<style type="text/css">
	.st0{fill:#010002;}
	.st1{fill:#010002;stroke:#000000;stroke-width:0.25;stroke-miterlimit:10;}
</style>
<path class="st0" d="M9.7,2C8.6,2,7.6,2.5,6.8,3.2S5.6,5.1,5.6,6.2c0,2.3,1.9,4.1,4.1,4.1s4.1-1.9,4.1-4.1S12,2,9.7,2z M9.7,9.2
	c-1.7,0-3-1.4-3-3s1.4-3,3-3s3,1.4,3,3S11.4,9.2,9.7,9.2z"/>
<g>
	<path class="st1" d="M17.2,17.5c-0.2,0-0.3-0.1-0.4-0.2c-1.8-2.4-4.3-3.8-6.9-3.8c-2.6,0-5,1.3-6.8,3.7c-0.2,0.2-0.5,0.3-0.7,0.1
		c-0.2-0.2-0.3-0.5-0.1-0.7c2-2.6,4.7-4.1,7.6-4.1c2.9,0,5.8,1.5,7.7,4.2c0.2,0.2,0.1,0.5-0.1,0.7C17.4,17.5,17.3,17.5,17.2,17.5z"
		/>
</g>
</svg>
