<?xml version="1.0" encoding="utf-8"?>
<!-- Generator: Adobe Illustrator 23.0.5, SVG Export Plug-In . SVG Version: 6.00 Build 0)  -->
<svg version="1.1" xmlns="http://www.w3.org/2000/svg" xmlns:xlink="http://www.w3.org/1999/xlink" x="0px" y="0px"
	 viewBox="0 0 1026 334.4" style="enable-background:new 0 0 1026 334.4;" xml:space="preserve">
<style type="text/css">
	.st0{fill:#DDDDDD;}
</style>
<g id="background">
</g>
<g id="line_art">
	<g>
		<path class="st0" d="M774.1,334.4c-4.1,0-10.1-0.7-17.3-3.9c-0.7-0.3-1.1-1-1-1.7c0.1-0.7,0.7-1.3,1.4-1.4
			c2-0.3,16.2-2.5,24.8,0.8c2.7-2.6,6-7.3,5.8-14.4c-0.4-11.8-24.3-23.6-24.6-23.7c-0.6-0.3-1-1-0.9-1.7c0-0.3,3.3-35,4.5-44.2
			c0.2-1.5,0.5-3.8,0.8-6.5c1.8-14.9,5.3-42.5,7.4-48.1c0.7-1.9,1.8-4.6,2.9-7.6c-0.1-0.2-0.2-0.4-0.2-0.7c-0.1-1.4-0.1-2.8-0.1-4
			c-1.5,1.6-3,3.5-4.5,5.7c-0.4,0.6-1.1,0.8-1.8,0.7c-0.7-0.2-1.2-0.7-1.3-1.4c-0.1-0.5-1.1-8-1.6-16.2c-2.6,11.8-5.7,26-6.9,30.2
			c-1.5,5.3-4.1,29.1-5.8,44.9c-0.6,5.5-1.1,9.9-1.4,12.4c-1.2,9.4,2,30.5,2,30.7c0.1,0.8-0.3,1.5-1.1,1.8c-0.7,0.3-1.6,0-2-0.7
			c-0.7-1-16.4-26.5-11.2-107.2c0-0.6,0.4-1.1,0.9-1.4l10.1-5.4l-8.5-4.4c-0.4-0.2-0.7-0.6-0.9-1.1c-0.1-0.5,0-1,0.2-1.4
			c0.5-0.7,10.6-15.5,17.4-20.8c-5,0.6-10.7,0.3-14.7-2.6c-1.5-1-2.6-2.3-3.5-3.9c-0.1,0-0.1,0-0.2,0c-5.5-1.2-13-2.9-22.8,6.6
			c-10.4,10-11.5,40.6-11.9,50.6c0,1.3-0.1,2.3-0.1,3c-0.3,5.4-5.1,17.6-9.1,27.6c-0.3,0.7-0.5,1.3-0.7,1.7c-1.2,3-1.7,9.6-2.1,13.9
			c-0.1,1.2-0.2,2.2-0.3,3.1c-0.3,2.6-2.5,6.8-4.9,11.3c-1.6,3.1-3.3,6.2-4.1,8.6c-0.8,2.1-2.4,5.4-4.1,8.8l15.5-17
			c0.2-0.3,0.5-0.4,0.9-0.5c2.3-0.5,4.1-0.1,5.3,1.1c1.8,1.8,1.2,4.7,1.1,5c-0.1,0.3-0.2,0.5-0.4,0.7l-16,18.8
			c3.6-0.3,8.8-0.5,11.4,0c2.4,0.5,7.6,2.5,13.7,4.8c4.3,1.7,8.8,3.4,12.5,4.6c8.1,2.7,18.6,1.6,18.7,1.5c0.2,0,0.5,0,0.7,0.1
			c6.6,2.2,11.2,9.9,13.1,15.8c1.8,5.8,1.7,11-0.5,13.9c-4.8,6.5-30.3,9.3-33.2,9.6c0,0-0.1,0-0.1,0c-1.4,0-34.6,0.8-41.2,0
			c-2.7-0.3-4.5-1.3-5.2-3c-0.3-0.7-0.4-1.3-0.3-1.9c-2.7,0.3-6.7,0.5-9.1-0.4c-1-0.4-1.7-1.1-2.2-2.1c-0.6-1.5-0.4-3.4,0.1-5
			c-2.4,0.4-5.6,0.3-7.9-2.2c-1.2-1.4-1.7-3.1-1.4-4.8c0.3-1.4,1.1-2.8,2.4-4.3c-3.4-2.3-4-6.3-1.6-10.3c1-1.7,5.6-6,8-8.2
			c-11.8-13-31.6-15.2-40.3-15.6c27.5,25.8,19.8,38.9,19.5,39.7c-0.3,0.6-0.9,1-1.5,1h-26.4c-0.3,2.7-1.3,5-3.1,6.7
			c-3.7,3.6-9.2,3.4-9.4,3.4l-194.4,0c-3.4,0-6.1-1.1-8.2-3.3c-3.9-4.1-3.7-10.7-3.6-11.4V206.2c0-13.5,11.1-14.6,11.3-14.6
			c0,0,0.1,0,0.1,0h10.4c-0.6-5.5-3.9-14.8-9.8-18.2c-3.6-2-7.7-1.7-12.2,1.1c-12.8,7.6-18.3,31.3-21.2,44c-0.8,3.5-1.4,6.1-2,7.5
			c-2.5,6.1-9,22.5-14.8,30.4c-5,6.8-12.7,30.9-16.3,44.4c-2.6,9.6,5.3,29.4,5.4,29.5c0.4,0.5,0.4,1.2,0.2,1.7
			c-0.3,0.6-0.9,0.9-1.5,0.9h-59.2c-0.8,0-1.5-0.6-1.6-1.3c0-0.2,0-0.5,0-0.7c-3.8,1.5-7.1,2.2-9.1,2c-8-0.9-13.1-16.2-22.7-30.4
			c-1.9-2.8-3.1-5.7-3.7-8.5c-2.5,5.6-6.1,11.7-8.9,16.2c5.5,4.8,8.7,19.9,8.9,20.3c0.3,0.5,0.3,1.1,0,1.6c-0.3,0.5-0.8,0.8-1.4,0.8
			H1.7c-0.9,0-1.7-0.7-1.7-1.7s0.7-1.7,1.7-1.7h246.8c-1.3-2-3.5-13.9-6.3-16.5c-1.5,2.3-2.5,12.8-2.7,13c-0.5,0.6-1.3,0.9-2,0.6
			c-0.7-0.3-1.1-1.1-1-1.9c0.1-0.3,0.5-11.6,1.4-15c-1.9-1.1-3.9-1.9-6-2.2c-4.4-0.6-12.7-1.5-21.6-2.5c-15.4-1.7-32.8-3.6-38.9-4.8
			c-8.2-1.7-19.7-3.1-22.9-3.5c-1.6,1.9-6.7,17.6-6.7,29.1c0,0.8-0.6,1.6-1.5,1.7c-0.8,0.1-1.6-0.4-1.8-1.3
			c-0.2-0.8-4.3-27.1,1.9-34.6c-0.3-0.7-1.1-1.9-3.7-2.3c-3-0.5-18,6.4-25.7,13.1c-0.6,0.5-1.2,1-1.6,1.5c3.5,6.4,7.1,20.9,7.1,21.1
			c0.4,0.6,0.4,1.3,0,1.9c-0.4,0.6-1.1,0.8-1.8,0.6c-0.4-0.1-11-11.8-11-19.9c0-1.3,0.5-2.6,1.6-4.1c-1-1.9-1.9-3.8-2.8-5.6
			c-10,7.8-18.2,25.5-20.4,28c-0.2,0.3-0.5,0.5-0.7,0.7c-0.6,0.7-1.7,0.7-2.3,0.1c-0.7-0.6-0.7-1.7-0.1-2.3c0.1-0.1,0.4-0.4,0.8-0.9
			c5.7-6.7,19.6-36.5,19.7-36.7c0.4-0.6,1.1-0.9,1.8-0.7c0.7,0.2,1.2,0.8,1.3,1.5c0.1,1.4,0.6,3.1,1.4,5.1
			c9.5-6.8,20.2-12.2,29.6-11.2c0.3-1.7,0.8-4.7,1.3-8.6c-0.2,0.6-0.7,1-1.3,1.2c-0.2,0-19.9,4.1-25.6,13.8
			c-0.3,0.5-0.9,0.9-1.6,0.8c-0.6,0-1.2-0.5-1.4-1c-0.2-0.6-5.8-14.6-5.4-25.4c0.2-4.2-0.7-12.4-1.6-21.2c-1.4-13.4-3-28.6-2-37.7
			c0.2-1.5,0.3-3.2,0.5-5c1.6-17.2,4.3-46,22-48.7c18.4-2.9,39.9,2.2,40.8,2.5c0.4,0.1,0.8,0.4,1,0.8c0.2,0.4,0.3,0.8,0.2,1.3
			c-0.1,0.3-7.6,29.5-7.7,44.9c4.4-1.7,13.9-4.3,19.7,0.8c0.3,0.3,0.5,0.6,0.5,1c0.3,2.3,1.7,8.9,4,11.2c0.5,0.5,1,1,1.6,1.6
			c-1.1-4.8-1.7-8.8-1.6-11c0.1-2.7,0.1-7.5-0.1-13.1c-0.8-3.4-1.6-7.1-2.4-11c-1.9-9.5-4.1-20.2-7.8-25.5c-0.1-0.1-0.1-0.2-0.2-0.4
			c-1.2-3.2-5.1-12.3-9.1-15c-5.5-3.8-14.3-16.9-12.4-25.6c0-0.1,0-0.1,0-0.2c-2.9,1.3-6.2,1.1-9.6-0.8c-6.1-3.2-11.3-10.8-12-17.7
			c-0.9-8,1.2-14.9,5.9-18.9c2.2-1.9,5.7-3.7,10.9-3.8c1.2-2.2,2.9-4.1,5.3-5.8c1.8-1.3,3.5-2,5-2.2c5.2-9.7,15-23.1,29.9-25.8
			c21.5-3.8,56.9-1.3,66.3,21.3c0.2,0.4,0.2,0.9,0,1.4c-0.1,0.2-0.2,0.4-0.4,0.5c0.8,0.4,1.4,0.6,1.9,0.8c7.8,2.6,16.6,25.6,16.1,29
			c-0.2,1.5-1,2.7-1.8,3.8c-1.1,1.6-2.1,3.1-1.9,5.5c0.3,3.1,6.7,11.1,10.8,15.5c0.6,0.5,2.9,2.6,2.6,5.5c-0.2,2.1-1.8,3.9-4.6,5.3
			c-5.2,2.6-4.1,5.4-2.9,8.9c0.2,0.4,0.3,0.9,0.5,1.3c1.3,3.9,0.2,11.3,0.1,12.1c-0.1,0.7-0.6,1.2-1.2,1.4c-0.6,0.2-1.3-0.1-1.7-0.6
			c-2.6-3.3-5.9-7.1-6.7-7.6c-0.9-0.4-6.1-1.2-8.7-1.6c-1.5-0.2-2.7-0.4-3.3-0.5c-1.6-0.3-7.2-0.8-9.3-0.9c0,0-0.1,0-0.1,0l-4.5-0.6
			c0,0.6,0.1,1.3,0.7,1.8c0.9,0.8,6.8,2,10.3,2.6c3.9,0.8,7.3,1.4,9,2.2c3.1,1.4,11.5,10.8,10.9,13.6c-0.2,0.9-0.9,1.5-1.8,1.5
			c-0.9,0-2.5-0.6-6.8-2.2c-3.2-1.2-8.1-3.1-9.4-3.1c-1,0-3.9,2.1-5.7,3.4c-2.2,1.6-4.1,3-5.6,3.4c-1.7,0.5-2,3.4-2,3.4
			c0,0.4-0.3,0.9-0.6,1.1c-0.4,0.3-0.8,0.4-1.3,0.3c-18.6-2.6-29.8-14.8-32.5-18.1c-6.5,0.6-15.3-5.4-20.2-13.9
			c-2.7-4.7-3-9.9-0.9-14.3c1.7-3.6,4.9-6.2,8.6-6.9c4.8-0.8,8.9,3,12.3,6.2c1.7,1.6,3.9,3.7,4.9,3.5c2.5-0.2,4-2.7,5.4-8.8
			c0.8-3.4,3.9-6.4,6.8-9.2c2.1-2,4.3-4.1,5.5-6.2c1-1.9,0.2-7-0.4-11.6c-1.1-7.1-2.1-14.4,1.1-17.9c3.1-3.3,11.3-6.6,17.5-8.7
			c-41.7-18.2-62.6-8-70.6-4.1c-5,2.4-8.6,6-10.9,10.8c0.6,1.6,0.9,3.7,1,6.4c0,5.1-1.1,12.2-2.7,18.9c4.4,24.1,20.6,50.5,22,52
			c0.7,0.7,2.3,2.3,3.7,27.8c0.3,6.1,0.6,12.3,0.7,17.6c1,4,2.1,7.2,3.4,9.2c4.5,6.4,11.5,29.5,14.5,40.1c2.3-4.4,5.2-8.8,8.8-13.1
			c1.2-1.5,2.4-2.9,3.5-4.3c1.2-6.1,3.8-14.9,9.4-22.8c6.8-9.7,6.3-19.2,5.8-23.1c-0.3-0.6-0.4-1.4-0.4-2.3c0-0.8,0.6-1.5,1.4-1.7
			c0.8-0.1,1.6,0.4,1.8,1.2c0,0.1,0.2,0.7,0.4,1.7c0.1,0.1,0.1,0.1,0.2,0.2c0.4,0.3,1,0.3,1.7,0.3c-0.1-2.2-0.4-4.4-1-6.6
			c-0.1-0.5,0-1.1,0.4-1.5c0.8-0.9,7.6-8.3,12.7-7.8c0.5,0,1,0.3,1.3,0.8c0.3,0.4,0.3,1,0.2,1.5c0,0.1-4.7,14,3.9,20.8
			c2.6,2,5.3,4.3,7.9,6.5c0.7-6.1,3.5-13.5,8.2-22.2c1.9-3.4,3.1-11.5,3.5-14.4c0.1-0.6,0.5-1.2,1.1-1.4c0.6-0.2,1.3-0.1,1.7,0.4
			c4.2,4.2,12,16.8,13.7,20.8c0.6,1.3,3.1,4.8,5.7,8.5c4.1,5.8,8.8,12.4,10.1,15.9c2.1,5.8,1.8,12.5,1.3,17.7
			c-0.4,4.2,3.6,30.9,5.6,39.6c0.5,2.1,1.3,9.2,1.3,17.8c5.2,5.1,12.8,14.7,10.1,25.1c-1.5,6-6.7,11.7-12.9,16.4
			c-2.2,3.2-5.2,15-8.7,17.3H346c-2.5-4.2-6.4-21.5-4.2-29.7c2.7-9.9,10.9-37.4,16.9-45.5c5.5-7.5,12-23.6,14.4-29.6
			c0.5-1.2,1.1-3.7,1.8-7c3-13.2,8.7-37.7,22.8-46.1c7.1-4.2,12.4-2.9,15.6-1.1c8.2,4.7,11.6,17.1,11.6,22.8c0,0.9-0.7,1.7-1.7,1.7
			h-12.1c-0.8,0.1-8.1,1.2-8.1,11.3V309c0,0,0,0.1,0,0.1c0,0.1-0.3,5.8,2.7,9c1.4,1.5,3.3,2.2,5.7,2.2h194.5c0.1,0,4.4,0.1,7.1-2.5
			c1.1-1.1,1.8-2.5,2.1-4.3H610c-0.9,0-1.7-0.7-1.7-1.7V210.2c0-4.1-0.9-7.1-2.6-8.7c-1.4-1.4-2.9-1.3-3-1.3l-4.5,0
			c-0.5,0-0.9-0.2-1.2-0.5c-0.3-0.3-0.5-0.8-0.4-1.3c0.1-1.2,0-2.4-0.2-3.5H431.3c-0.8,0-1.5-0.6-1.6-1.4c0-0.2-4-20.8-12.2-25.6
			c-0.6-0.3-0.9-1-0.8-1.6c0.1-0.7,0.5-1.2,1.2-1.4c0.2-0.1,24.2-7.7,31.2-12.4c0.5-0.3,1-0.4,1.6-0.2c0.5,0.2,0.9,0.7,1,1.2
			c0,0.1,0.5,2.4,1.6,5.6c0.1-2.9,0.5-6,1.3-9.3c0.2-0.6,0.7-1.1,1.3-1.3c0.1,0,8.8-1.6,12.9-7.5c1.9-2.7,2.6-6,2-9.7
			c-1.2-1.8-6.6-10.9-5-17.3c0.6-2.3,2-4,4.2-5.1c9.9-5,14,0.6,15.3,2.4l0.2,0.2c3.4,4.5,6.7,6.6,9.7,6.2c1.7-0.2,2-3.1,2.3-7.4
			c0.3-3.9,0.6-7.9,2.7-10.4c2-2.4,4.8-3.9,7.3-5.2c2.6-1.4,5.1-2.8,5.7-4.6c0.4-1.1,0.8-3.2,1.2-5.7c1.4-7.7,3.4-18.4,9-20.8
			c0.6-0.3,1.2-0.5,1.9-0.7c-3.6-1.8-7.6-4-12.1-6.5c-18.4-10.3-37.6-13.2-40.4-13.5c-20.4,6.2-18.3,25.6-15.9,48.1
			c1.4,12.7,2.8,25.8,0,37.3c-3.3,13.3-13.8,24.4-30.3,32.3c-12.4,5.9-23.6,7.8-24.1,7.9c-0.8,0.1-1.6-0.4-1.9-1.2
			c-0.2-0.8,0.1-1.7,0.9-2c0.5-0.2,46.7-22,36.4-49.8c-11.9-32.3,4.1-62.5,17.1-74c15.1-13.4,45.5-13.3,70.8,0.2
			C551.7,55.7,548.1,68,548,68.5c-0.2,0.5-0.6,0.9-1.1,1.1c-0.5,0.2-1.1,0-1.5-0.3c-1.1-0.9-2.9-1.7-5.1-2.4
			c4.7,2.6,7.5,4.8,8.5,7.8c1.6,4.5,4.3,13.9,3.3,17.6c-0.4,1.4-1.2,2.6-1.9,3.7c-1.1,1.6-2,3.1-2,4.9c0,2.3,5.3,12.1,9.1,18.4
			c0.3,0.5,0.3,1.2,0,1.8c-0.4,0.7-4.3,6.4-9.1,6.4c-0.1,0-0.1,0-0.1,0c-0.1,0.7,0.6,3,1.6,4.8c0.3,0.6,0.3,1.4-0.2,1.9l-3,3.3
			c0.9,1.1,1.8,2.5,1.8,3.7c0,0.5-0.2,1-0.6,1.3c-1.6,1.3-3.3,3-3.5,3.5c0,0.3,0.2,1.3,0.3,2.1c0.5,2.6,1.2,6.1-0.6,8.6
			c-1.2,1.7-4.5,3.1-8.5,3.8c-3.2,0.5-11,1.1-19.1-3.4c0.5,3.5,1.1,9,1.4,14.6c2.3-3.4,5.6-7,10.5-10.4c0.4-0.3,0.9-0.4,1.3-0.3
			c0.3,0.1,25.9,5.7,33.1,6.5c0.5,0.1,0.9,0.3,1.2,0.8c0.3,0.4,0.3,0.9,0.2,1.4c-1.8,5.6-4.3,14.1-5,18.1h4.7
			c0.5-5.8,1.7-16.2,4.1-18.3c0.3-0.3,0.8-0.4,1.2-0.4c1,0.1,23.3,2.3,28.9,19.2c0.2,0.4,0.8,1.5,1.3,3.1h4.5
			c4.5,0,8.2,1.4,10.8,4.1c4.4,4.5,4.3,11.1,4.3,11.4l0,103.1h25c0.5-1.9,1.2-0.2,0-6.1c-1.6-7.5-6.7-18.3-22.1-31.7
			c-0.5-0.4-0.7-1.2-0.5-1.8c0.2-0.6,0.8-1.1,1.5-1.1c1.3-0.1,32.2-1.4,48.4,18c0.6,0.7,0.5,1.7-0.2,2.3c-2.9,2.6-7.8,7.2-8.6,8.5
			c-1.3,2.1-1.3,3.8-0.2,5.1c3.6-2.9,9.9-8,12.3-8.4c1-0.2,3-0.2,6.5-0.1c7.4-2.8,12.6-2.8,14.5-1.5c0.7,0.5,1.1,1.2,1,2
			c-0.1,0.5-0.3,1.4-1.7,2c-1.9,0.8-6.7,0.9-13.3,0.8c-1.4,0.5-2.9,1.2-4.5,2c-12.7,6.2-14.8,10.2-15.1,11.6c-0.1,0.7,0,1.4,0.6,2
			c2.4,2.7,7.3,0.4,7.4,0.4c0.6-0.3,1.4-0.2,1.9,0.3c0.5,0.5,0.6,1.3,0.3,1.9c-0.7,1.6-1.6,4.5-1.2,5.6c0.1,0.2,0.1,0.2,0.2,0.2
			c2.1,0.8,7.3,0.4,10.1-0.1c0.7-0.1,1.3,0.2,1.7,0.8c0.4,0.6,0.3,1.3-0.1,1.9c-0.2,0.3-0.6,1.2-0.4,1.6c0.2,0.4,0.9,0.8,2.5,1
			c6.2,0.8,38.9,0,40.6,0c10.4-1.1,27.8-4.3,30.8-8.2c1.5-2,1.5-6.3,0-10.9c-1.7-5.4-5.7-11.7-10.6-13.5c-2.1,0.2-11.8,0.9-19.8-1.7
			c-3.7-1.2-8.2-3-12.6-4.6c-5.6-2.2-11-4.2-13.1-4.6c-3.1-0.6-11.5,0.1-14.5,0.4c-0.7,0.1-1.3-0.3-1.7-0.9
			c-0.3-0.6-0.2-1.3,0.2-1.9l18.3-21.5c0-0.5,0-1.2-0.3-1.6c-0.3-0.3-0.9-0.3-1.7-0.2l-24.3,26.7c-0.6,0.6-1.5,0.7-2.2,0.2
			c-0.7-0.5-0.9-1.4-0.5-2.2c0.1-0.1,8.5-14.9,10.4-20.4c0.9-2.5,2.7-5.8,4.3-9c2-3.8,4.3-8.1,4.5-10.1c0.1-0.8,0.2-1.8,0.3-3
			c0.4-4.8,0.9-11.4,2.3-14.9c0.2-0.4,0.4-1,0.7-1.7c2.3-5.7,8.6-21,8.9-26.5c0-0.7,0.1-1.7,0.1-2.9c0.4-11.5,1.6-41.9,12.9-52.9
			c9.9-9.5,18.3-9,23.9-7.8c-0.4-1.7-0.5-3.6-0.5-5.6c0-0.3,0.1-0.5,0.2-0.8c0.5-0.9,1.9-4,1-5.8c-0.5-1-1.8-1.6-3.7-1.7
			c-0.5,0-0.9-0.3-1.2-0.6c-0.3-0.4-0.4-0.8-0.3-1.3c0-0.2,0.4-2,2.1-4.5c-1.3-1-2.7-2.4-3-3.5c-0.2-0.6-0.1-1.2,0.3-1.6
			c0.1-0.1,2.7-3.3,1.4-6.8c-2.5,0-8.3-0.4-11-4.9c-0.3-0.5-0.3-1.2,0-1.7c4.4-7.6,11.5-20.7,11.8-23.6c0.1-1.4-0.9-2.4-2.6-3.8
			c-1.7-1.5-3.7-3.2-3.9-6c-0.3-3.2,1.2-6.3,2.5-9c0.7-1.5,1.4-2.9,1.6-4.1c0.1-0.7,0.3-2.1,0.4-3.7c0.4-4.4,0.9-11.3,3-17
			c-3.9-4.1-5-8.5-3.4-13.1c2.3-6.5,11-7.4,18.6-8.2c1.8-0.2,3.4-0.4,5-0.6c1-0.2,2.7-0.5,4.8-1c14.7-3.3,49.1-11.1,72.2,6.6
			c0.6,0.4,0.8,1.2,0.6,1.8c-0.2,0.7-0.8,1.1-1.6,1.1c-0.1,0-2.1,0.1-5.4,0.5c1.6,0.7,3.2,1.6,4.8,2.5c5.2,0.5,10.6,1.6,15.8,3.6
			c0.1,0,0.2,0.1,0.3,0.2c0.2,0.2,5.7,3.8,9.4,11.2c3.4,6.8,6,18.2-1.1,33.9c-8.6,18.9-14.3,30-19.4,36.1c1.7,6.4,3.6,16,1.7,22.5
			c-2.8,9.8-25.9,56.2-26.8,58.2c-0.2,0.5-0.6,0.8-1.1,0.9c-0.5,0.1-1,0-1.4-0.3l-5.6-4.5l9.1,9.4c0.5,0.5,0.6,1.2,0.4,1.8
			c-4.3,11-10.3,63.3-12.9,86.9c12.2-26.8,42-80.1,47.2-89.4l-15.8-11.3c-0.5-0.4-0.8-1.1-0.7-1.7c0.1-0.7,0.7-1.2,1.3-1.3l13.6-2.6
			c9.1-35.6,0.7-50.9-3.7-56.1c-0.3-0.2-0.5-0.4-0.8-0.6c-2.2-1.9-3.1-2.6-2.2-3.9c0.4-0.6,1.3-1.1,2.3-0.6c0.9,0.4,2.1,1.4,3.5,3.1
			c2.4,2,5.9,4.8,9.1,7.4c1.5,0.5,8.5,2.5,14.1,3.5c3.9,0.7,14.1,6.9,24.9,13.5c7.9,4.8,16.1,9.8,20,11.3c9.3,3.8,14,13.9,16.7,21.2
			c2.5,6.8,1.7,17.9,0.1,40.1l0,0.3c-1.2,16.1-5.9,30.1-9.5,39.5c0.4,9-1.2,19.3-3.1,24.2c-3.2,8.1-7.9,45.1-3.6,57.8h107.3
			c0.9,0,1.7,0.7,1.7,1.7c0,0.9-0.7,1.7-1.7,1.7H915.9c-0.7,0-1.3-0.4-1.5-1c-5.6-13.3,0.1-53.4,3.2-61.4c1.3-3.3,2.3-8.7,2.8-14.3
			c0,0,0,0.1-0.1,0.1c-0.6,1.5-1.4,3.7-2.3,6.1c-3.5,9.3-8.8,23.3-12.3,30.1c-4.7,8.9-9.7,21.1-11.2,27.2c-1.8,7-9.6,12.6-10,12.8
			c-0.3,0.2-0.6,0.3-1,0.3h-97.6c-0.5,0-1.1-0.3-1.4-0.7c-0.5-0.7-1.1-1.2-1.9-1.7c-1.3,1.1-2.3,1.6-2.5,1.7
			c-0.1,0.1-0.2,0.1-0.4,0.1C779.6,333.8,777.6,334.4,774.1,334.4z M786.6,331h96.3c1.5-1.2,7-5.6,8.2-10.6
			c1.6-6.3,6.7-18.8,11.5-27.9c3.5-6.6,8.7-20.5,12.2-29.7c0.9-2.5,1.7-4.6,2.3-6.1c0.4-0.9,0.8-2,1.3-3.2c0.6-1.5,1.3-3.1,2-5
			c-0.3-4.8-1.1-9-2.7-11.4c-3.9-5.8-0.8-15.6,3.4-29.2c1.7-5.5,3.7-11.8,5.3-18.3c3.2-12.9-1.8-22.4-5-27c-3.5-5-7.3-7.3-8.5-7.4
			c-9.8-0.9-19,3.5-27.4,13.1c-7.7,8.9-15,30.5-21.6,64.2l-0.3,1.5c-1.6,8.2-5.7,20.2-9.2,25c-2,2.8-3.3,12.1-3.9,17.7
			c2.9-1.2,7.5-2.5,11.3-0.7c2.9,1.3,4.7,4,5.4,8c0.2,1,0.4,1.9,0.7,2.9c8.6,5.6,17.2,13.6,17.5,18.4c0.1,2.3-1.2,3.2-2.4,3.4
			c-4.2,0.5-14.1-9.4-17.9-19.6c-4.3-2.8-8.6-4.8-11.5-5.1c-4.2-0.4-7.5,1.9-10.4,3.9c-2.5,1.8-4.7,3.3-7,2.5
			c-3.2-1.1-14.1,1.5-23.8,3.7c-11,2.5-24.5-3.9-25-4.2c-0.7-0.3-1-1-0.9-1.8c0.7-4.4,0.8-20,1-33.7c0.1-11.3,0.2-21.9,0.6-26.9
			c0.8-11.1-2-38.7-2-39c-0.1-0.5,0.2-1.1,0.6-1.4l14.2-12.6c0.2-0.2,0.4-0.3,0.7-0.4l-2.8-2.2c0.1,0.5-0.1,0.9-0.4,1.3
			c-0.1,0.1-7.7,8.9-9.7,11.3c-1.7,2-3.4,2.3-4.6,2.2c-1.5-0.1-2.8-1-3.9-1.9c-0.9,2.2-1.6,4.2-2.2,5.7c-2,5.2-5.5,33.7-7.2,47.4
			c-0.3,2.8-0.6,5.1-0.8,6.6c-1.1,8.2-3.8,36.9-4.3,43c4.9,2.5,25,13.7,25.4,26c0.2,7.7-3,12.9-6,16.2
			C785.7,330.1,786.2,330.5,786.6,331z M765,329.8c7.6,2,12.7,1,13.7,0.8c0,0,0.1,0,0.1-0.1C774.8,329.5,769.5,329.5,765,329.8z
			 M258.7,271.4c0.4,0,0.9,0.2,1.2,0.5c0.6,0.6,0.6,1.5,0.2,2.1c-0.4,0.6-9.3,13.8-0.8,26.5c9,13.3,13.6,28.2,20.3,28.9
			c4,0.4,14.6-13.1,23.3-19.5c1.2-1.8,2.2-3.7,2.9-5.8c1.9-5.4,2-11.2,1.3-16.5c-1.3,8.7-3.8,16.9-8.4,21.5
			c-3.4,3.4-7.6,4.5-12.4,3.3c-23.5-5.8-20.6-31.8-19.6-40.4l0.1-1.1c0.4-4,2.6-17.6,4.7-30.7c1.8-11.2,3.8-23.8,3.8-25
			c0-3.6-1.2-10.6-3.6-11.4c-2.4-0.7-6.8-4.1-12-8.4c0.3,1,0.7,1.9,1.3,2.6c8.3,11.9,3.3,34.8,3.1,35.8c-1.3,6.1-5.4,25.5-7.2,38.7
			c0.3-0.2,0.7-0.5,1-0.7C258.1,271.4,258.4,271.4,258.7,271.4z M611.7,310.1h3.5V207c0-0.1,0.1-5.6-3.3-9.1c-2-2-4.8-3-8.4-3h-3.7
			c0.1,0.6,0.1,1.3,0.2,1.9h2.7c0.5,0,3,0,5.3,2.2c2.4,2.3,3.7,6.1,3.7,11.2V310.1z M107,306.8c-0.1,0.3-0.1,0.5-0.1,0.7
			c0,2.6,1.9,4.4,3.8,5.7C109.6,311.4,108.3,309.2,107,306.8z M259.1,190.5c5.8,4.8,11.4,9.4,13.6,10c5.9,1.8,6,14.4,6,14.6
			c0,1.2-1.2,9.1-3.9,25.6c-2,12.5-4.2,26.7-4.7,30.5l-0.1,1.1c-0.5,4.3-1.4,12.4,0.5,20c2.2,9,7.8,14.6,16.6,16.8
			c3.7,0.9,6.7,0.1,9.3-2.4c5.6-5.5,7.7-18,8.3-29.6c-1.6-4.9-3.2-8.1-3.3-8.2c-0.4-0.7-0.2-1.5,0.4-2c0.6-0.5,1.5-0.5,2.1-0.1
			c0.1,0.1,0.4,0.3,1,0.7c-0.1-6.6-0.7-11.9-1.1-14c-2-8.3-6.1-35.9-5.7-40.6c0.4-4.9,0.7-11.1-1.1-16.3c-1.1-3.1-5.9-9.8-9.7-15.1
			c-3-4.2-5.3-7.4-6.1-9.1c-1.4-3-6.8-11.9-10.7-17c-0.6,3.6-1.7,8.9-3.3,11.9C261.9,176.7,259.2,184.6,259.1,190.5z M252.6,281.9
			c-5,7.4-8.4,17.5-10.5,24.9c5-8.2,10.8-18.9,10.5-23.9C252.6,282.5,252.6,282.2,252.6,281.9z M147.7,293.2c0.1,0,0.1,0,0.2,0
			c0.1,0,14.4,1.7,24.1,3.7c6,1.3,23.3,3.1,38.6,4.8c9.2,1,17.2,1.9,21.6,2.5c2.3,0.3,4.5,1.1,6.5,2.1c2.5-9,7.2-22.4,14.3-30.4
			c1.6-15.1,7.7-42.6,7.8-42.9c1.7-7.7,3.4-24.6-2.6-33.1c-1.5-2.1-2.3-4.7-2.4-7.8c-0.2-0.2-0.4-0.4-0.6-0.5
			c-2.8-2.4-5.8-4.8-8.5-7c4.2,9.5,2.9,23.9,2.9,24.7c-0.1,0.7-0.5,1.3-1.2,1.5c-0.7,0.2-1.4,0-1.8-0.6
			c-4.6-6.1-11.1-12.5-13.5-12.3c-0.3,0-0.5,0-0.7,0c-0.3,0-0.6,0-0.7,0.1c-0.1,0.1-0.7,0.9-1.3,1.8c-0.6,1-1.6,2.4-2.9,4.4
			c-6.2,14-14.5,24.7-15.1,25.4c-0.4,0.6-1.2,0.8-1.9,0.5c-0.7-0.3-1.1-0.9-1.1-1.6c0-0.1,0-0.5,0.1-1.3c-4.2,5.1-7.5,10.3-9.9,15.7
			c0.1,0.2,0.1,0.5,0.2,0.7c0.2,0.9-0.3,1.8-1.2,2c0,0-0.1,0-0.1,0c-1.4,3.3-2.5,6.6-3.4,9.9c0.1,0.1,0.1,0.2,0.2,0.3
			c3.8,7.9-0.6,38.8-1.1,42.3c-0.1,0.8-0.8,1.4-1.6,1.4c-0.8,0-1.5-0.5-1.7-1.2c-0.1-0.3-5-19.9,0.7-42.5
			c-2.7-6.5-7.9-22.5-11.3-35.7c-1.7-1.9-3.6-3.8-5.5-5.7c-3.1-3.1-4.5-10.1-4.8-12.5c-6.1-4.6-17.9,1-18,1
			c-0.5,0.2-1.1,0.2-1.6-0.1c-0.5-0.3-0.8-0.8-0.8-1.3c-0.7-13.3,5.6-39.7,7.3-46.6c-5.4-1.1-23-4.4-37.8-2
			c-15.1,2.4-17.7,29.5-19.2,45.7c-0.2,1.8-0.3,3.6-0.5,5.1c-0.9,8.7,0.6,23.7,2,37c1,9.2,1.8,17.2,1.6,21.6
			c-0.3,7.3,2.5,16.5,4.1,21.1c6.7-7.7,20.1-11.3,24.5-12.4c-0.2-3.5-0.7-13.1-1-22.6c-0.7-25.5,1.1-25.8,2.8-26.2
			c2.1-0.4,3.1,2.1,4,4.6c6.6,19.2-0.5,55.3-0.8,56.8c-0.2,0.9-1,1.5-1.9,1.3c-8.9-1.6-19.8,3.9-29.4,10.9c0.7,1.6,1.6,3.3,2.4,5
			c0.3-0.3,0.7-0.6,1.1-1c7.3-6.2,23.5-14.6,28.4-13.8c5.3,0.8,6.7,4.4,6.7,6.1c0,0.4-0.2,0.9-0.5,1.2c-2.4,2.4-3.1,6.9-3,11.5
			c2.4-7.2,6.1-10.8,6.4-11C146.8,293.4,147.3,293.2,147.7,293.2z M882.2,305.8L882.2,305.8C882.2,305.8,882.2,305.8,882.2,305.8z
			 M870.8,293c3.7,6.3,9.1,11.4,11.4,12.2C881.7,302.6,876.7,297.6,870.8,293z M308.1,276.6c2.3,7.3,4.3,17.8,1.1,27.7
			c2.9-3,5-6.2,5.8-9.4c1.9-7.4-2.7-14.7-6.9-19.5C308.1,275.8,308.1,276.2,308.1,276.6z M99.9,291.7c-1.4,2.1-3.5,5.1-5.7,8.3
			c2.1-1.8,4.4-3.7,6.7-5.5C100.6,293.6,100.2,292.6,99.9,291.7z M790.1,287.4c3.3,1.4,13.6,5.3,21.7,3.4
			c13.4-3.1,21.8-4.9,25.6-3.6c0.8,0.3,2.4-0.9,4-2.1c3-2.1,7.1-5,12.6-4.5c2.5,0.2,6.1,1.7,9.9,3.8c-0.5-2.8-1.7-4.6-3.5-5.4
			c-3.6-1.6-9.2,0.8-11,1.9c-0.5,0.3-1.2,0.3-1.7,0c-0.5-0.3-0.8-0.9-0.8-1.5c0.1-1.8,1.3-17.6,4.8-22.3c3.2-4.4,7.1-16,8.6-23.7
			l0.3-1.5c6.7-34.3,14.3-56.4,22.4-65.8c9.1-10.5,19.2-15.3,30.2-14.3c2.9,0.3,7.4,4,10.9,8.8c3.6,5,9,15.5,5.6,29.7
			c-1.6,6.6-3.6,13-5.3,18.5c-3.8,12.2-6.8,21.9-3.8,26.3c1.1,1.7,1.9,3.9,2.5,6.5c3-8.7,6.1-19.9,7-32.4l0-0.3
			c1.6-21.7,2.4-32.6,0.1-38.7c-2.5-6.7-6.8-16-14.9-19.3c-4.1-1.7-12-6.5-20.4-11.6c-9.6-5.8-20.5-12.4-23.8-13.1
			c-6.5-1.2-14.4-3.6-14.8-3.7c-0.2-0.1-0.4-0.2-0.6-0.3c0,0-1.1-0.9-2.7-2.2c3.9,9.7,6.1,26.3-0.7,52c-0.2,0.6-0.7,1.1-1.3,1.2
			l-10.8,2.1l13.9,9.9c0.7,0.5,0.9,1.4,0.5,2.2c-0.5,0.8-45.8,81.5-52.1,101c-0.3,0.8-1.1,1.3-1.9,1.1c-0.8-0.2-1.4-1-1.3-1.8
			c0.3-3.4,8.2-81.3,13.9-98.3L802,178.1L789.6,189c0.5,4.9,2.7,28.4,1.9,38.7c-0.4,4.9-0.5,15.5-0.6,26.7
			C790.8,267.9,790.6,281.7,790.1,287.4z M193.1,263.5c-1.3,8.1-1.4,15.6-1,21.4C192.8,277.6,193.4,269.3,193.1,263.5z M133.9,227.6
			c-0.8,7.2-0.2,26.7,0.9,44.5c0,0,0,0,0,0.1c1.6-12.3,3.3-32.2-0.8-44.4C133.9,227.7,133.9,227.7,133.9,227.6z M745.3,179.3
			c-2.6,40.9,0.4,67,3.4,81.7c0.9,4.3,1.8,7.8,2.7,10.8c-0.6-6.5-1.1-14-0.5-18.8c0.3-2.5,0.8-7,1.4-12.3
			c1.8-15.9,4.4-39.9,5.9-45.4c1.6-5.8,7.5-32.7,9.7-42.9c-2-2.4-3.7-4.5-4.7-5.8c-5.1,4-12.7,14.5-15.4,18.4l9.6,5
			c0.6,0.3,0.9,0.9,0.9,1.5c0,0.6-0.3,1.2-0.9,1.5L745.3,179.3z M185,225.6c2.6,9.1,5.6,18.6,7.9,24.7c0.8-2.6,1.8-5.2,3-7.8
			C194.3,238.2,190.6,232.3,185,225.6z M183,218.3c3,3.2,6.1,6.9,8.8,10.6c-3.4-11-8-24.7-11.1-29.1c-0.2-0.3-0.4-0.6-0.5-0.9
			c0,1.5,0,2.8-0.1,3.6C180,205.4,181.2,211.4,183,218.3z M229.1,177.5c0.2,5.3-0.6,13.7-6.7,22.3c-3.3,4.7-5.5,9.9-7,14.5
			c4.1-5.1,6.8-8.9,8.7-11.6c3.4-7.8,6.2-16.6,6.4-25.1C230.1,177.6,229.6,177.6,229.1,177.5z M233,194.4c4,0,9.8,6,13.3,10.2
			c0.1-6.4-0.5-18.2-5.7-23c-2.1-0.1-4.9-0.6-6.8-1.9c-0.3,5-1.4,10.1-2.9,15c0.3-0.1,0.7-0.1,1.1-0.1c0.2,0,0.4,0,0.6,0
			C232.7,194.4,232.8,194.4,233,194.4z M432.7,191.5h162.8c-0.4-1-0.7-1.5-0.7-1.5c-0.1-0.1-0.1-0.2-0.2-0.3
			c-4.3-13.2-21.1-16.4-25.2-17c-1.1,2.3-2.2,10.2-2.7,17c-0.1,0.9-0.8,1.5-1.7,1.5h-8.1c-0.9,0-1.7-0.7-1.7-1.7
			c0-3.2,3.3-14.2,4.8-18.9c-8.2-1.2-26.7-5.2-30.7-6.1c-6.7,4.9-10,10-11.6,14.1c-0.1,4.1-0.4,7.8-1.4,10.2
			c-0.3,0.7-0.9,1.1-1.7,1.1c-0.7-0.1-1.4-0.6-1.5-1.3c-0.1-0.3-0.9-4.7,1.2-10.6c0-10.4-2-23.7-2.1-23.9c-0.1-0.7,0.2-1.3,0.8-1.7
			c0.6-0.3,1.3-0.3,1.9,0.1c8,5.9,16.5,5.3,19.7,4.8c3.9-0.6,6-1.9,6.3-2.4c0.9-1.3,0.4-4,0-6c-0.3-1.5-0.5-2.6-0.3-3.6
			c0.4-1.6,2.3-3.4,3.7-4.6c-0.4-0.6-1-1.3-1.6-1.9c-0.6-0.6-0.7-1.6-0.1-2.3l3.3-3.6c-0.9-1.9-2.1-5.2-1-7.1c0.3-0.6,1.2-1.6,3-1.6
			c2.1,0,4.5-2.5,5.7-4.1c-2.4-4-9-15.4-9-19.1c0-2.8,1.4-4.9,2.6-6.8c0.7-1,1.3-1.9,1.5-2.8c0.6-2-0.9-9-3.2-15.6
			c-1.1-3.1-6.4-5.8-15.2-10.3c-2.1,0.1-4.1,0.4-5.7,1.1c-3.9,1.7-5.9,12.1-7,18.3c-0.5,2.7-0.9,4.9-1.4,6.2c-1.1,3-4.1,4.7-7.3,6.4
			c-2.3,1.3-4.8,2.6-6.4,4.5c-1.5,1.7-1.7,5.3-1.9,8.5c-0.3,4.6-0.7,9.9-5.2,10.5c-4.4,0.6-8.7-1.9-12.9-7.5l-0.2-0.2
			c-1.2-1.6-3.8-5.1-11.2-1.4c-1.3,0.6-2.1,1.6-2.4,2.9c-1.2,4.6,3,12.3,4.7,14.9c0.1,0.2,0.2,0.4,0.3,0.6c0.8,4.8,0,9-2.5,12.6
			c-4,5.7-11.2,7.9-14,8.6c-1.5,6.9-1.1,12.7,0.3,17.5c1.2,1.8,2.6,3.4,4.1,4.5c8.2,5.6,9.9,13.7,10,14c0.1,0.6-0.1,1.3-0.6,1.7
			c-0.5,0.4-1.2,0.4-1.8,0.1c-4.8-2.5-11.7-8.9-14.8-18.9c-3.1-4.9-5-10.9-5.8-14c-7,3.8-20.9,8.6-27,10.6
			C428.3,173.5,431.7,187.2,432.7,191.5z M781.6,181.4c0.8,0.9,1.9,2,2.8,2c0.2,0,0.8,0.1,1.7-1c1.5-1.9,6.3-7.3,8.5-10
			c-1.4-0.8-3.8-1.7-6.8-1.3c-0.8,0.1-1.6,0.3-2.4,0.6C784.4,174.3,783,177.9,781.6,181.4z M461.9,177.8c1.4,2,2.9,3.6,4.2,4.9
			C465.1,181.1,463.7,179.4,461.9,177.8z M791.8,163.3c1,0.3,1.8,0.5,2.2,0.6c0.2,0.1,0.4,0.2,0.5,0.3l18.6,15
			c4.4-9,23.3-47.4,25.7-55.8c1.5-5.1,0.2-12.8-1.2-18.7c-1.3,1.1-2.6,1.9-4,2.5c2.5,3.4,4.3,7.7,3.1,12.3
			c-2.5,9.7-39.7,42.2-43.1,43.7c-0.2,0.1-0.4,0.1-0.6,0.1C792.8,163.3,792.3,163.3,791.8,163.3z M233.9,173.9
			c0.1,0,0.2,0.1,0.3,0.2c0.4,0.3,0.7,0.8,0.7,1.4c0,2.3,5.1,2.8,6.4,2.8c-2.8-5.8-1.9-12.4-1.1-16c-2.3,1.1-5.2,3.5-7.2,5.6
			C233.4,169.8,233.7,171.8,233.9,173.9z M771.4,156.3c-0.1,7.1,0.8,16,1.4,21.2c1.7-2.1,3.3-3.8,5.1-5.2c0.4-3.3,1.1-5.7,1.8-7.3
			C777.1,162.6,774.2,159.4,771.4,156.3z M782.4,167.3c-0.2,0.7-0.5,1.5-0.7,2.4c0.4-0.2,0.8-0.4,1.2-0.6c0.2-0.4,0.3-0.8,0.5-1.1
			C783,167.8,782.7,167.6,782.4,167.3z M169.4,151.1c2.9,4.3,4.8,11.1,6.5,18.3c-0.7-11.6-1.7-22-2.7-23.7
			c-1.7-1.9-15.7-24.3-21.5-47.3c-1.2,3.9-2.5,7.3-3.8,9.7c0.4,1.7,0.5,3.2,0.2,4.4c-1.4,6.5,5.9,18.6,11.1,22.2
			C164.5,138.4,168.8,149.4,169.4,151.1z M789.3,167.7c2.4,0,4.4,0.6,5.9,1.3l-2.5-2c-2.2-0.7-5.3-1.4-7.5-1.7
			c0.3,0.2,0.6,0.4,0.9,0.5c0.9,0.3,1.3,1.3,0.9,2.2c0,0,0,0,0,0c0.2,0,0.4-0.1,0.6-0.1C788.1,167.8,788.7,167.7,789.3,167.7z
			 M771.7,151.5c3.4,3.9,6.9,7.9,9.8,10.6c0.1,0,0.2-0.1,0.3-0.1c1.1-0.3,2.8-0.2,4.6,0c-5.9-2.3-12.7-8.1-15.2-20.5
			c-1.5,0.5-3.7,1.1-6.3,1.6c1.2,1.5,2.5,3.2,4,4.9c0.3-0.8,1.1-1.3,1.9-1.1c0.9,0.2,1.5,1.1,1.3,2c0,0,0,0,0,0l0,0c0,0,0,0,0,0
			c0,0,0,0,0,0.1C771.9,149.8,771.8,150.6,771.7,151.5z M486.2,35c-11.7,0-22.2,3.1-29.1,9.2c-7.4,6.6-13.8,17.4-17.2,28.9
			c-2.9,9.8-5,24.9,1.1,41.4c4.7,12.8-0.5,26.2-15,38.9c-3.9,3.4-7.9,6.2-11.5,8.5c13.7-4.6,34.3-14.7,39.1-34.2
			c2.7-10.9,1.3-23.7,0-36.1c-2.4-22.1-4.8-44.9,18.6-51.8c0.2-0.1,0.4-0.1,0.7-0.1c0.9,0.1,21.6,2.6,42,14c6.4,3.6,12,6.4,16.5,8.7
			c4.9,0,10,1.2,13.5,2.9c-0.6-3.7-4-11.5-20.7-20.3C511.8,38.2,498.4,35,486.2,35z M197.1,143.7c0.5,0,1,0.2,1.3,0.7
			c0.1,0.1,10.6,14.1,29.4,17.3c0.5-1.6,1.6-3.9,4.1-4.6c1-0.3,2.9-1.7,4.5-2.9c2.9-2.1,5.5-4.1,7.7-4.1c1.8,0,5.4,1.3,10.6,3.3
			c0.8,0.3,1.8,0.7,2.6,1c-2-2.8-5.5-6.8-7.4-7.6c-1.4-0.6-4.9-1.3-8.3-2c-6.5-1.3-10.6-2.1-12-3.6c-2.2-2.2-1.8-5.3-1.2-6.7
			c0.3-0.7,1-1.1,1.8-1l6,0.8c0.7,0.1,7.6,0.6,9.6,1c0.6,0.1,1.8,0.3,3.1,0.5c4.9,0.7,8.4,1.3,9.7,1.9c1.2,0.6,3.4,3.1,5.3,5.4
			c0.2-2.4,0.2-5-0.4-6.6c-0.1-0.4-0.3-0.8-0.4-1.2c-1.3-3.4-3.3-9.1,4.5-13c1.7-0.9,2.7-1.8,2.8-2.7c0.1-1.1-1-2.3-1.5-2.6
			c-0.1-0.1-0.1-0.1-0.2-0.2c-1.2-1.2-11.3-12.3-11.8-17.6c-0.3-3.5,1.2-5.8,2.4-7.6c0.6-0.9,1.2-1.7,1.3-2.5
			c0.2-2.9-8-23.3-13.9-25.3c-1.1-0.4-2.7-1.1-4.9-2.2c-0.2-0.1-0.4-0.2-0.6-0.3c-6.5,2-16.5,5.6-19.5,8.9
			c-2.2,2.3-1.1,9.5-0.2,15.2c0.9,5.8,1.6,10.8,0.1,13.6c-1.4,2.6-3.8,4.8-6.1,7.1c-2.6,2.5-5.3,5.1-5.9,7.5
			c-0.9,3.8-2.5,10.8-8.4,11.4c-2.5,0.3-4.8-1.9-7.5-4.4c-2.9-2.7-6.3-5.9-9.4-5.3c-2.6,0.5-4.9,2.3-6.1,5
			c-1.6,3.4-1.3,7.5,0.8,11.2c4.8,8.4,13.1,13.1,17.6,12.2C196.9,143.7,197,143.7,197.1,143.7z M772.5,137.7c0.3,0,0.6,0.1,0.8,0.2
			c0.4,0.3,0.7,0.7,0.8,1.2c3.1,19.6,16.3,20.8,18.6,20.9c4.5-2.8,38.7-32.9,40.9-41.3c1-3.9-1.2-7.9-3.7-10.9
			c-2.5-0.3-5.7-1.9-6.4-6.4c-0.1-0.7,0.2-1.3,0.8-1.7c0.6-0.4,1.3-0.3,1.8,0c0.2,0.2,2.8,1.9,5.4,4.7c1.7-0.4,3.4-1.5,5.3-3.3
			c-0.8-2.7-1.4-4.5-1.4-4.5c-0.2-0.5-0.1-1.1,0.3-1.6c22.2-28.9,13.5-60.5,12.4-64.1c-4.2-4.3-8.7-7.7-13.4-10.4
			c-22-1.7-42.9,8.1-43.1,8.2c-0.8,0.4-1.8,0.1-2.2-0.7c-0.4-0.8-0.2-1.8,0.6-2.2c10.2-6.3,20.3-9.9,28.3-12
			c-11-3-21.9-3.2-30.9-2.5c-20,1.6-36.6,8.6-40.2,11.2c-1.4,1-2.5,2.5-3.3,4.3c2,1.7,4.7,3.5,8,5.2c9.8,5.1,29.4-0.1,29.6-0.1
			c0.5-0.1,1.1,0,1.5,0.3c0.4,0.4,0.6,0.9,0.6,1.4c-1.6,15.5,3.3,22.8,4.8,24.7c4.5,0.1,7.8,1.6,9.9,4.5c3.8,5.4,1.8,14.3,0.4,18.6
			l5.8-0.7c1.3-4.8,4.7-9.2,9.1-11.8c4.1-2.3,8.6-2.8,12.7-1.3c2.8,1.1,4.6,3.4,5.4,6.7c1.7,7.4-2.4,18.8-9.2,26
			c-3.5,3.6-7,5.4-10.4,5.2c-1.6-0.1-3-0.6-4-1.2c-1,4.1-4.7,11.7-17.3,22.1c-11.9,9.8-26.1,13.7-42.4,11.7c0.1,0.1,0.3,0.2,0.4,0.3
			c7.5,5.4,23.2-0.6,23.3-0.7C772.1,137.7,772.3,137.7,772.5,137.7z M173.2,145.8C173.2,145.8,173.2,145.8,173.2,145.8
			C173.2,145.8,173.2,145.8,173.2,145.8z M173.2,145.8L173.2,145.8L173.2,145.8z M544.7,141.5C544.7,141.5,544.7,141.5,544.7,141.5
			L544.7,141.5z M745.4,134.3c0.2,0,0.4,0.1,0.5,0.1l0.5,0.1c24.4,3.8,37.6-7.1,42-10.7c17.3-14.3,16.4-22.5,16.4-22.5
			c-0.1-0.8,0.3-1.5,1-1.8c0.7-0.3,1.5-0.1,2,0.5c0,0,1.6,2,4.3,2.2c2.4,0.1,5-1.3,7.8-4.2c5.9-6.2,9.8-16.7,8.4-22.9
			c-0.5-2.2-1.6-3.7-3.3-4.3c-3.1-1.2-6.6-0.8-9.8,1c-4,2.3-7,6.3-7.8,10.7c-0.1,0.7-0.7,1.3-1.4,1.4l-9.7,1.2
			c-0.6,0.1-1.2-0.2-1.5-0.6c-0.4-0.5-0.4-1.1-0.2-1.6c1.4-3.4,4.2-13.2,0.9-18.1c-1.5-2.2-4.1-3.1-7.8-3.1c-0.5,0-0.9-0.2-1.2-0.5
			c-0.3-0.3-7.6-7.5-6.4-25.6c-5.7,1.3-20.8,4-29.7-0.7c-3.1-1.6-5.6-3.2-7.7-4.9c-1.6,5-2.1,10.9-2.4,14.8
			c-0.2,1.9-0.3,3.3-0.5,4.2c-0.3,1.6-1.1,3.1-1.9,4.8c-1.2,2.4-2.4,4.9-2.1,7.3c0.1,1.5,1.4,2.5,2.8,3.8c1.8,1.5,4,3.5,3.7,6.6
			c-0.4,4.3-9.2,19.8-11.7,24.1c2.6,3,8.3,2.5,8.4,2.5c0.7-0.1,1.3,0.3,1.6,0.8c2.5,4.4,0.6,8.5-0.6,10.4c0.6,0.6,1.7,1.5,2.8,2.3
			c0.4,0.3,0.6,0.7,0.7,1.2c0.1,0.5-0.1,0.9-0.4,1.3c-0.9,1-1.4,1.9-1.8,2.7c2,0.5,3.5,1.6,4.3,3.2c1.7,3.2-0.1,7.3-0.8,8.6
			C744.5,130.7,744.8,132.7,745.4,134.3z M138.6,74c-2.9,0.3-5.4,1.2-7.3,2.9c-3.8,3.2-5.5,9-4.7,16c0.6,5.8,5.2,12.4,10.3,15.1
			c1.8,1,4.5,1.8,7,0.5c0.2-0.1,0.3-0.3,0.6-0.7c-0.5-2-1.3-4.3-2.1-6.8C139.5,92.8,136,82.5,138.6,74z M142.2,74
			c-2.9,7.6,0.5,17.5,3.3,25.9c0.4,1.1,0.7,2.2,1.1,3.2c1.1-3,2.5-7,3.6-11.8c-1.1-6.3-1.4-12.6-0.4-18.2c0.2-1,0.4-2,0.6-3
			c-1,2.2-1.5,3.6-1.5,3.7c-0.3,0.8-1.2,1.3-2,1.1C145.2,74.4,143.6,74.1,142.2,74z M838.8,96.3c0.1,0.4,0.3,1,0.6,1.7
			c4.3-5.8,9.5-16.1,17.5-33.5c12.2-26.5-5.1-39.4-7-40.8c-2.5-0.9-5-1.7-7.6-2.2c2.9,2.1,5.7,4.5,8.3,7.2c0.2,0.2,0.3,0.4,0.4,0.6
			C851.1,29.7,862.6,64.5,838.8,96.3z M152.9,74.3c-0.2,1.6-0.4,3.2-0.4,4.8C152.7,77.3,152.9,75.7,152.9,74.3z M143.8,70.8
			c0.8,0.1,1.6,0.3,2.4,0.5c0.4-1,1-2.6,1.9-4.4c-0.3,0.2-0.5,0.4-0.8,0.6C145.9,68.5,144.7,69.6,143.8,70.8z M194.5,45.7
			c20,0,37.8,7.8,47.2,12.3c0.3-0.1,0.7-0.2,1-0.3c-9.7-19-42.7-20.9-61.8-17.5c-10.4,1.8-18.2,9.8-23.5,17.5
			c2.1-2.1,4.6-3.9,7.5-5.3C174.7,47.5,184.9,45.7,194.5,45.7z M798.9,3.3c-13.4,0-25.9,2.8-33.3,4.5c-2.2,0.5-3.9,0.9-5,1.1
			c-1.6,0.2-3.3,0.4-5.1,0.6c-6.7,0.7-14.2,1.5-15.8,6c-1.1,3-0.5,5.9,1.7,8.7c1-1.8,2.3-3.4,3.8-4.5c4.3-3.2,21.6-10.2,41.9-11.8
			c10.8-0.9,24.4-0.4,37.7,4.4c2.5-0.5,4.8-0.8,6.5-1C821.4,5.2,809.9,3.3,798.9,3.3z M824.5,15.7c-2.8,0.6-6,1.3-9.4,2.4
			c3.9-0.6,8-1.1,12.3-1.2C826.4,16.4,825.5,16.1,824.5,15.7z"/>
	</g>
	<g>
	</g>
	<g>
	</g>
	<g>
	</g>
	<g>
	</g>
	<g>
	</g>
	<g>
	</g>
</g>
</svg>
