<?xml version="1.0" encoding="utf-8"?>
<!-- Generator: Adobe Illustrator 23.0.5, SVG Export Plug-In . SVG Version: 6.00 Build 0)  -->
<svg version="1.1" id="Layer_1" xmlns="http://www.w3.org/2000/svg" xmlns:xlink="http://www.w3.org/1999/xlink" x="0px" y="0px"
	 viewBox="0 0 2750 2100" style="enable-background:new 0 0 2750 2100;" xml:space="preserve">
<style type="text/css">
	.st0{fill-rule:evenodd;clip-rule:evenodd;fill:#FFFFFF;}
	
		.st1{fill-rule:evenodd;clip-rule:evenodd;fill:none;stroke:#363435;stroke-width:8.4002;stroke-linecap:round;stroke-linejoin:round;stroke-miterlimit:10;}
</style>
<rect x="0.5" y="0.5" class="st0" width="2750" height="2100"/>
<path class="st1" d="M2740.7,968.3c0,0-447.1-0.1-564,18.8c-116.9,18.9-199.8-24.5-226.2-11.3c-26.4,13.2,90.5,39.6,267.7,13.2
	c177.2-26.4,222.5-88.6,201.7-137.6c-20.7-49-99.9-84.8-133.9-84.8c-33.9,0-20.7-35.8-20.7-71.6c0-35.8-256.4-26.4-277.1-35.8
	c-20.7-9.4,7.5-28.3,105.6-35.8c98-7.5,182.9,18.9,182.9,37.7c0,18.8-7.5,17-71.6,28.3c-64.1,11.3-279,3.8-254.5-56.6
	c24.5-60.3,322.4-49,335.6,5.7c7.5,31.2-18.9,252.6-49,269.6c-30.2,17-171.6,24.5-213,9.4c-41.5-15.1-67.9-135.7-83-179.1
	c-15.1-43.4-81.1-26.4-56.6,41.5s103.7,86.7,107.5,92.4c3.8,5.7-83-5.7-122.5-52.8c-39.6-47.1-33.9-145.2,37.7-143.3
	c83.2,3.6,105.6,203.1,98,213c1.9,11.3-54.7-198-52.8-207.4c1.9-9.4,26.4,50.9,1.9,58.4c-24.5,7.5-143.3,30.2-135.7,128.2
	c7.5,98,99.9,83,99.9,113.1c0,30.2-173.4,13.2-190.4,103.7c-17,90.5,118.8,309.2,88.6,290.3c-30.2-18.9-98-32-118.8-37.7
	c-20.7-5.7-5.6-30.2,3.8-33.9c9.4-3.8-9.4,20.7-17,20.7c-7.5,0-73.5-45.2-86.7-52.8c-13.2-7.5-5.7-20.7,1.9-37.7
	c7.5-17-3.8,26.4-11.3,30.2c-7.5,3.8-158.4-132-169.7-139.5c-11.3-7.5-15.1-3.8-13.2,9.4c1.9,13.2,96.2,77.3,99.9,94.3
	c3.8,17-109.3-79.2-118.8-96.2c-9.4-17,24.5-24.5,28.3-35.8c3.8-11.3-18.9-26.4-32.1-32c-13.2-5.7-17,3.8-17,11.3
	c0,7.5,32,35.8,26.4,33.9c-5.7-1.9,11.3-30.2,28.3-32c17-1.9,231.9,167.8,277.1,203.6c45.2,35.8,62.2,60.3,67.9,66
	c5.7,5.7,147.1,113.1,167.8,145.2c20.7,32-181-522.2-188.5-533.5c-7.5-11.3-11.3-43.4-43.4-66c-32.5-31.6,143,516.3,175.3,546.7
	c13.2,17-184.8-541.1-192.3-556.2c-7.5-15.1-96.2,13.2-179.1,15.1c-83,1.9-280.9-30.2-331.8,35.8c-50.9,66,130.1,556.2,130.1,556.2
	s-58.4-67.9-181-66c-122.5,1.9-403.5,164-403.5,164s-160.2-558-141.4-563.7c18.9-5.6,126.3-64.1,250.7-120.7
	c124.4-56.6,222.5-32,269.6-7.5c47.1,24.5,220.6,603.3,220.6,603.3s137.6-75.4,288.4-75.4s262.1,30.2,267.7,32
	c5.7,1.9,47.1,37.7,47.1,37.7s-230-26.4-331.8-17c-101.8,9.4-214.9,28.3-226.2,39.6c-11.3,11.3,567.5-11.3,567.5-11.3s0,0,0,11.3
	c0,11.3-563.7,13.2-569.3,15.1c-5.7,1.9-69.8-9.4-88.6-20.7c-18.9-11.3-537.3,113.1-563.7,130.1c-26.4,17,544.8-115,573.1-126.3
	c28.3-11.3-5.7-62.2-132-60.3c-126.3,1.9-431.7,158.4-454.4,169.7c-22.6,11.3-145.2-592-145.2-592s-30.2,15.1-47.1,22.6
	c-17,7.6,118.8,599.5,154.6,599.5c35.8,0-142.8-440.1-142.8-440.1s-275.4,126.5-275.4,149c0,22.5,674.6,536.9,691.4,522.8
	c16.9-14.1,413.2-340.1,407.6-326.1c-28.9,33.2-32.4,87.4,2.8,89.9c28.1,8.4,73.1-25.3,42.2-11.2c-30.9,14-419.1,364-438.7,333.1
	c-19.7-30.9-17.4-77.2-25.8-71.6c-20.6,6.5,18.6,71.2,0.7,64.5c-33.7-5.6-677.4-505.9-683-545.3c-5.6-39.3,11.2-89.9,2.8-75.9
	c-8.4,14.1-230.6,8.4-230.6,8.4"/>
</svg>
