<?xml version="1.0" encoding="utf-8"?>
<!-- Generator: Adobe Illustrator 23.0.5, SVG Export Plug-In . SVG Version: 6.00 Build 0)  -->
<svg version="1.1" id="Capa_1" xmlns="http://www.w3.org/2000/svg" xmlns:xlink="http://www.w3.org/1999/xlink" x="0px" y="0px"
	 viewBox="0 0 293.3 293.3" style="enable-background:new 0 0 293.3 293.3;" xml:space="preserve">
<style type="text/css">
	.st0{fill:#010002;}
</style>
<g>
	<g>
		<path class="st0" d="M146.7,0C94.9,0,52.9,42,52.9,93.7c0,22.3,7.8,42.8,20.9,58.9c4.2,5.2,11.2,13.3,14.9,18.9
			c21.1,32.1,48.2,78.6,56.1,116.9c1.4,6.5,3,6.6,4.7,0.2c5.6-20.6,20.2-65.6,50.4-112.8c3.6-5.6,10.9-13.5,15.4-18.4
			c6.6-7.1,12-15.2,16.2-24.1c5.7-12.1,8.9-25.5,8.9-39.6C240.4,42,198.4,0,146.7,0z M146.7,144.4c-28.9,0-52.3-23.4-52.3-52.3
			s23.4-52.3,52.3-52.3S199,63.2,199,92C199,120.9,175.6,144.4,146.7,144.4z"/>
		<circle class="st0" cx="146.7" cy="90.2" r="21.8"/>
	</g>
</g>
</svg>
