<?xml version="1.0" encoding="utf-8"?>
<!-- Generator: Adobe Illustrator 23.0.5, SVG Export Plug-In . SVG Version: 6.00 Build 0)  -->
<svg version="1.1" id="Capa_1" xmlns="http://www.w3.org/2000/svg" xmlns:xlink="http://www.w3.org/1999/xlink" x="0px" y="0px"
	 viewBox="0 0 53.9 53.9" style="enable-background:new 0 0 53.9 53.9;" xml:space="preserve">
<path d="M48,38.1c-1.6-3-7.2-6.3-7.4-6.4c-0.7-0.4-1.4-0.6-2.2-0.6c-1,0-1.9,0.5-2.4,1.4c-0.8,1-1.8,2.1-2.1,2.3
	c-1.9,1.3-3.3,1.1-5-0.5L19.8,25c-1.6-1.6-1.8-3.1-0.5-5c0.2-0.2,1.3-1.3,2.3-2.1c0.6-0.4,1-1,1.2-1.6c0.2-0.9,0.1-1.9-0.6-2.9
	c-0.2-0.2-3.4-5.8-6.5-7.4c-0.6-0.3-1.2-0.5-1.8-0.5c-1,0-2,0.4-2.8,1.1l-2,2.1C6,11.9,4.8,15.5,5.8,19.4c0.8,3.3,2.9,6.8,6.6,10.4
	l11.7,11.7c4.5,4.5,8.9,6.9,13,6.9l0,0c2.9,0,5.7-1.3,8.2-3.7l2-2C48.5,41.5,48.8,39.6,48,38.1z"/>
</svg>
