<?xml version="1.0" encoding="utf-8"?>
<!-- Generator: Adobe Illustrator 23.0.5, SVG Export Plug-In . SVG Version: 6.00 Build 0)  -->
<svg version="1.1" id="Layer_1" xmlns="http://www.w3.org/2000/svg" xmlns:xlink="http://www.w3.org/1999/xlink" x="0px" y="0px"
	 viewBox="0 0 1866.8 1617.4" style="enable-background:new 0 0 1866.8 1617.4;" xml:space="preserve">
<style type="text/css">
	.st0{fill:#202020;}
</style>
<g>
	<g>
		<path class="st0" d="M347.2,373.9c-5.3,0-10.9-0.3-16.8-1c-10.8-1.3-21.6-3.4-32-6c-0.3,0.2-0.7,0.4-1.1,0.5
			c-2.8,1-6.1,1.5-9.9,1.5c-25.8,0-71.3-21.8-91.5-32.2c-3-1.6-6.8-3.5-10.8-5.5c-34.5-17.4-51.3-26.6-53.8-31.8
			c-0.3-0.7-0.6-1.5-0.9-2.4c-0.8,1.7-2.1,3.3-3.9,4.5c-3.9,2.8-8.6,2.8-12.7-0.1c-7-4.9-11.6-17.2-9.3-25.4c0.6-2.1,1.6-3.9,3-5.2
			c-4-2.6-8.3-4.7-12.1-5.7c-11.6-2.9-45.3-14-67.6-21.3c-5.4-1.8-10-3.3-13.3-4.3c-4.9,0-11.4-2.2-14.5-3.4l2.3-6
			c1.9,0.7,3.8,1.3,5.6,1.8c2.1-2.4,7.2-3.2,9.7-2.6c2.7,0.7,4.2,3,3.7,5.6c2.4,0.8,5.2,1.7,8.4,2.8c20.9,6.9,55.8,18.4,67.1,21.2
			c4.8,1.2,10.4,4,15.6,7.6c-1.2-1.3-2.6-2.7-4.1-4.2c-12-12.4-32-33.1-49-51.5c-9.5-10.2-16.8-18.4-21.8-24.4
			c-1.5-1.7-2.7-3.2-3.8-4.6c-2.8-0.8-6.3-3.1-9.9-7.5l4.9-4.1c0,0,0,0,0,0c0.5-0.8,1.3-1.3,2.2-1.6c1.9-0.5,4,0.3,6.6,2.5
			c1,0.8,3.3,2.9,3.8,4.7c0.5,1.6,0.2,3.2-0.7,4.3c4.5,5.4,12.1,14.1,25.1,28.1c16.6,17.8,35.7,37.6,47.1,49.4c6,6.2,9,9.3,9.9,10.3
			c1.2,0.6,5.5,1.2,9,1.7c5.8,0.9,12.4,1.9,18,3.6c4.1-12.8,10.5-29.2,18.7-47.9c13.8-31.5,52.8-87.5,92.5-133.1
			c29.2-33.5,83.9-90.1,122.3-92.5c13.2-0.8,23.4,4.6,30.3,16.2c15.7,26.3,21.5,52,17.1,76.4c-3.7,20.5-13.9,36.2-20.6,46.7
			c-2.8,4.3-5.1,8-6.2,10.6c-2.3,5.7-1.6,12.8-0.9,19.7c1,9.7,2,20.4-5.9,27.2c0.8,1.1,1.6,2.3,2.4,3.5c16.7,25.5,25.7,53.2,24.5,76
			c-2,41.1-11.3,67.3-29.2,82.5C383.1,368.9,367.3,373.9,347.2,373.9z M300.1,360.7c10.4,2.6,20.8,4.6,31.1,5.8
			c26.5,3.1,46-1,59.7-12.6c16.4-13.9,25-38.7,26.9-77.9c1.1-21.5-7.5-47.8-23.5-72.2c-0.8-1.2-1.6-2.5-2.5-3.6
			c-0.2,0.1-0.4,0.2-0.5,0.2c-5.7,2.4-16.5,5.2-30.2,8.9c-36.5,9.7-91.7,24.3-129.9,49.2c-24.9,16.2-41,33.2-43.2,45.5
			c-0.1,0.4-0.1,0.8-0.2,1.1c3.3,2.2,8.3,5.1,15.5,8.8c13.4,6.8,30.4,14.1,46.8,21.2C284.7,350,297.3,355.8,300.1,360.7z
			 M129.8,276.1c0,0,0.1,0.1,0.1,0.1c2.9,4.7,4.5,10.4,5.7,15c0.6,2.2,1.1,4.3,1.6,5.4c0.4,0.6,2.8,3.4,18.5,12
			c10.1,5.6,22.4,11.8,32.4,16.8c4,2,7.8,3.9,10.8,5.5c34.7,17.9,64.2,28.9,82.4,31.1c-18.4-5.6-34.4-12.1-44.8-16.7
			c-25.2-11-47.6-24-52.2-30.1c-1.5-2-2.4-4.3-2.7-6.9c-5.1-3.8-6.5-6.4-6.9-8.5c-4.2-19.1,2.2-28.7,29.8-56.7
			c16.4-16.7,46.8-37.4,81.1-55.6c24.4-12.9,57.5-27.5,70.4-26.5c9.9,0.8,24.4,12.6,37.7,30.3c4.7-4.4,4.3-11.4,3.3-21.3
			c-0.8-7.7-1.5-15.6,1.3-22.7c1.3-3.2,3.7-6.9,6.8-11.7c13.2-20.5,37.9-58.6,3.4-116.3c-5.7-9.5-13.6-13.8-24.4-13.1
			C323.7,10.2,201,168.2,174.6,228.3c-8.2,18.7-14.6,35.1-18.6,47.8c3,1.6,5.3,3.7,6.5,6.4c1.7,3.7,1,7.9-2,12.5
			c-3,4.6-6.7,9.5-10.5,9.5c-0.7,0-1.5-0.2-2.2-0.6c-3-1.6-3-5.7-2.8-8.6c0.3-3.6,1.2-8.5,2.9-14.5c0.1-0.3,0.2-0.6,0.3-0.9
			c-5.4-1.7-12.2-2.7-17.1-3.5C130.6,276.2,130.2,276.2,129.8,276.1z M198.6,318.7c14.9,9.5,45.4,24.8,79.4,35.7
			c-8.4-4-19.1-8.6-30.3-13.4c-16.5-7.1-33.6-14.5-47.2-21.4C199.8,319.3,199.2,319,198.6,318.7z M354.4,167.6
			c-10.1,0-36.7,10.4-65.9,25.8c-33.8,17.8-63.6,38.2-79.6,54.4c-27.3,27.7-31.5,35.3-28.1,50.8c0.1,0.3,0.4,1,1.4,2.1
			c3.8-13.9,20.1-31,45.5-47.5c39.1-25.4,94.9-40.2,131.8-50c12.8-3.4,23-6.1,28.5-8.3c-13-17.2-25.8-26.7-32.6-27.2
			C355.1,167.6,354.7,167.6,354.4,167.6z M112.9,274.7c-1.1,0.5-1.7,1.4-2.1,2.9c-1.5,5.5,2.1,15.1,6.8,18.5c2.4,1.7,4.1,1,5.3,0.1
			c1.9-1.3,2.5-3,2.1-5.4C124,286,119.1,279.9,112.9,274.7z M154.1,282.4c-2.1,7.7-2.7,12-2.8,14.2c0.9-1,2.2-2.5,3.8-5.1
			c1.7-2.6,2.2-4.8,1.5-6.4C156.2,284.1,155.3,283.2,154.1,282.4z"/>
	</g>
	<g>
		<path class="st0" d="M365.9,473c-15.1,0-51-5.2-72.9-13.3c-4.1-1.5-17.3-7-17.4-15.6c-0.1-4.4,3.1-7.9,9.6-10.5
			c2.5-1,6.1-1.5,11-1.5c25.9,0,80.5,14.4,82.8,15l0.2,0.1c9,3.1,10.5,7.8,10.1,11.2c-0.7,7.5-11.3,13.5-18.6,14.4
			C369.4,473,367.8,473,365.9,473z M296.1,438.5c-4.9,0-7.4,0.6-8.6,1.1c-3.5,1.4-5.6,3.1-5.6,4.5c0,2.4,5,6.7,13.3,9.7
			c21,7.7,56.4,12.9,70.7,12.9c1.6,0,2.9-0.1,3.9-0.2c5.8-0.8,12.8-5.4,13.1-8.7c0.1-1.5-2-3.2-5.7-4.5
			C374.3,452.5,320.6,438.5,296.1,438.5z"/>
	</g>
	<g>
		<path class="st0" d="M178.3,820.8c-8.8,0-12.1-3.1-13.4-5.6c-1.8-3.6-0.5-8.2,3.7-13.7c5.1-6.6,22.1-15.3,51.7-26.7
			c21.4-8.2,41.8-14.7,42-14.8l0.2-0.1c2.3-0.6,4.4-0.9,6.2-0.9c6.4,0,8.6,3.5,9.3,5.6c2.5,7.1-4.3,17.5-9.9,21.9
			c-9.7,7.7-52.2,26.9-78.6,32.8C185.7,820.3,181.8,820.8,178.3,820.8z M264.2,766.1c-22.3,7.1-81.7,28-90.5,39.3
			c-2.9,3.7-3.4,6.1-3,6.9c0.5,1,3,2,7.6,2c3,0,6.4-0.4,9.9-1.2c26.7-6,67.9-25.1,76-31.6c5.2-4.2,8.8-11.9,7.8-14.8
			c-0.1-0.3-0.5-1.3-3.2-1.3C267.5,765.5,266,765.7,264.2,766.1z"/>
	</g>
	<path class="st0" d="M1606.5,1484.7c-145.2-124.7-157.1-134.9-246.4-152.5c-14.4-2.8-31.2-8-49.8-15.2c8.8-2,17.3-5.6,25.4-11.1
		c15.6-10.5,27.8-25.9,36-45.8c7.8-18.9,11.7-41.4,11.3-65.1c-0.3-17.6-3-35.7-7.8-53.7c-5.1-18.7-12.4-36.8-21.9-54
		c-10-18.2-22.2-35-36.4-50.2c-15.1-16.1-32.4-30.3-51.4-42c-71-43.9-102.4-55.4-142.2-69.9c-34.4-12.6-73.5-26.9-148.8-65.4
		c-62.2-31.8-137.8-54.4-158.2-56c-1.4-0.1-3.5-0.1-6.2-0.1l0,0c-0.1,0-0.3,0-0.8,0c-4.2,0.1-9.6,0.4-16.1,0.8
		c-32.7,1.4-103.4,3.2-125.2-5.1c-8-3-15.6-6.8-22.9-10.4c-19.3-9.5-37.5-18.5-55.6-9.3c-22.7,11.5-136.1,40.2-169.2,41.2
		c-16,0.5-23,3.3-33.7,7.6c-12.2,4.9-28.9,11.7-70.1,19.7c-78.2,15.1-134-4.9-144.1-25.2c-1.8-3.5-1.7-7.2,0.1-11.2
		c7.1-15.6,39.7-31.4,54.5-35.1c17.9-4.5,158.7-56.6,178.3-65.3c9.8-4.4,55.5-16.3,106.2-27.7c60.4-13.5,109.3-22.3,134.1-24
		c29.9-2,80.5,11.1,117.8,22.5c0.5,0.1,0.9,0.3,1.4,0.4c2.1,1.2,4.2,2.3,6.1,3.4c11.6,6.5,21.6,12.1,28.5,15.8
		c11.6,6.2,23.9,10.9,34.4,13.2c4.4,1,8.3,1.5,11.3,1.5c0,0,0,0,0.1,0c2.5,0,6-0.3,7.4-2.8c0.7-1.1,1.7-4.1-3.1-7.1
		c-5-3.2-39.8-16.9-82.2-29.9c-42.8-24-102.5-57-124.3-60.2c-15.7-2.3-60.7-15.7-100.4-27.4c-36.8-10.9-59.6-17.6-65.3-18.1
		c-6.8-0.6-39.3-6.3-75.6-16.4c-32.6-9-76.6-24-101.4-43.8c-22.6-18.1-32.6-40.2-25.3-56.5c5.8-12.9,21.2-18.6,41.2-15.2
		c8.1,1.4,17.7,3.1,28.8,5.1c56.7,10.2,151.7,27.3,267.1,34.4c74.7,4.5,122.6,30.3,195.2,69.3c22.4,12.1,47.9,25.7,77,40.3
		c10.8,5.4,26.8,11,43.8,16.9c27,9.3,57.5,19.9,68.6,31c34.1,34.1,57.4,52.2,80,69.7c34.9,27.1,67.8,52.6,136.9,134
		c68.7,81,111.8,127.4,170.5,172.1c57.8,44,129.6,85.6,260,161.3c16.3,9.5,33.6,19.5,51.8,30.1c55.4,32.2,112.7,63.4,170.9,93.2
		v-7.2c-52.7-27-109.2-57.5-167.7-91.5c-18.2-10.6-35.5-20.6-51.8-30.1c-256.7-148.9-289.7-168-428.8-332
		c-69.5-81.9-102.7-107.7-137.9-135c-22.4-17.4-45.5-35.3-79.4-69.1c-12.1-12.1-42-22.5-71-32.5c-16.8-5.8-32.6-11.3-43.1-16.5
		c-29.1-14.6-54.5-28.2-76.9-40.3c-73.3-39.4-121.8-65.5-197.9-70.1c-115-7-209.8-24.1-266.4-34.3c-11.1-2-20.7-3.7-28.8-5.1
		c-11.5-1.9-22-1.1-30.5,2.3c-8.2,3.4-14.3,9.1-17.6,16.6c-4,8.9-3.7,19.8,0.6,30.7c4.6,11.7,13.8,23.2,26.5,33.4
		c25.7,20.5,70.5,35.7,103.7,44.9c36.8,10.2,69.8,16,76.8,16.6c5.4,0.5,33.9,8.9,64,17.9c39.9,11.9,85.2,25.3,101.3,27.6
		c16.8,2.5,60.2,25.2,97.6,45.8c-33.1-9.1-70.2-17-94.5-15.3c-56.5,3.9-221.1,42.7-242.5,52.2c-21.2,9.5-162,61.1-177.2,65
		c-13.7,3.5-50,19.5-58.7,38.7c-2.7,5.8-2.7,11.4,0,16.7c6.4,12.8,25.1,23.5,51.2,29.3c20.4,4.5,54.3,8.1,99.9-0.7
		c41.8-8.1,58.8-15,71.2-20c10.3-4.2,16.6-6.7,31.5-7.2c18.1-0.6,58.2-9.1,89.7-16.9c38.8-9.6,71.1-19.4,82.1-25
		c15.3-7.7,31.3,0.2,49.9,9.3c7.4,3.7,15.2,7.5,23.5,10.6c8,3,21.7,4.8,37.5,5.7c-43.5,3.3-87.3,6.2-97.7,4.5
		c-7.2-1.2-16.3,0.9-25,5.7c-9.1,5-16.4,12.3-20.6,20.4c-2.6,5.1-5.4,13.1-3.4,22.8c-4.5,3.1-8.4,6.2-11.7,9.4
		c-13.1,12.7-26.8,25.9-40,38.7c-42.6,41.1-82.9,79.9-100.9,101.7c-12.4,15-28.5,45-44.1,74c-13.7,25.6-26.7,49.8-33.7,56.7
		c-4.1,4.1-4.4,9.1-0.6,13.4c5.8,6.6,21.1,11.1,37.9,11.2c11.7,0.1,34-2,52.7-16.5c41.5-32.4,78.2-81.6,84.3-99.9
		c0.8-2.5,5.3-7.4,21.6-16.6c11.7-6.6,26.8-13.8,41.7-20.9c-28.2,25.2-45.6,41.2-47.5,51c-0.9,4.7-7.5,14.5-14.4,24.9
		c-14.2,21.4-29,43.4-21.1,54.8c4.6,6.5,14.6,10.7,27.6,11.5c19.2,1.2,46.7-5.4,66.7-27.6c11.7-13,20.3-24.3,27.3-33.3
		c10.3-13.5,17.1-22.4,25-25c15.5-5.1,55.4-21,73.1-35.1c9-7.2,30-4.7,52.2-2.2c17.1,2,36.6,4.2,53.8,2.4
		c28.1-2.8,52.1,16.6,75.2,35.4c8.4,6.9,16.4,13.3,24.5,18.7c7.9,5.2,20.8,14.4,37.1,26c44.6,31.7,112.1,79.6,149.4,97.4
		c12.6,6,29.3,18.1,48.7,32.1c43.8,31.7,100,72.3,150.1,72.3c2.1,0,4.2-0.1,6.3-0.2c23.1,9.6,43.6,16.1,61.1,19.6
		c87.7,17.3,99.5,27.4,243.5,151.1c18.8,16.2,40.1,34.5,64.1,54.9c31.1,26.5,60.2,50.8,87.3,73h10.1c-28.7-23.5-59.9-49.4-93.2-77.9
		C1646.6,1519.1,1625.3,1500.8,1606.5,1484.7z M841.8,709.9c-2.3-0.2-5.1-0.7-8.7-1.6c-6.7-1.6-17.5-5.1-30.7-12.1
		c-1.9-1-4-2.1-6.3-3.4C817.3,700.1,834,706.5,841.8,709.9z M494.3,1051.2c-5.9,17.8-43,66.3-82.1,96.9
		c-17.1,13.3-37.8,15.2-48.7,15.1c-16.6-0.1-29.3-4.6-33.2-9.1c-1.5-1.7-1.5-3,0.3-4.7c7.7-7.6,20.2-31,34.8-58.2
		c14.7-27.4,31.4-58.5,43.4-73c17.8-21.5,57.9-60.2,100.4-101.1c13.2-12.8,26.9-26,40-38.7c2.6-2.6,5.7-5.1,9.2-7.6
		c2.1,5,5.5,10.4,10.9,15.9c16.6,16.9,35.8,30.8,58.6,42.3c19.3,9.7,40.9,17.6,66,24.1c0.6,0.2,1.3,0.3,1.9,0.5
		c-6.1,0.1-12.5,0.5-18.9,1c-24.7,2.1-57.4,7.9-73.1,23.8c-7.2,7.3-15.1,14.7-23.2,22.1c-5.5,2.7-11.2,5.4-16.8,8.1
		C522.9,1028.1,497.8,1040.7,494.3,1051.2z M632.2,969.5c-2.4,1.5-4.7,3.2-6.7,5.2c-4.8,4.5-13.7,9.9-24.6,15.7
		c2.6-2.5,5.1-5,7.5-7.5C613.6,977.6,621.7,973.1,632.2,969.5z M1145,1241.6c-19.7-14.2-36.6-26.5-49.7-32.7
		c-36.8-17.5-104-65.2-148.5-96.8c-16.4-11.6-29.3-20.8-37.3-26.1c-7.8-5.2-15.7-11.6-24-18.3c-11.7-9.5-23.8-19.4-36.9-26.6
		c-12.9-7.1-25-10.6-36.9-10.6c-2,0-4.1,0.1-6.1,0.3c-16.6,1.7-34.8-0.4-52.5-2.4c-24.6-2.8-45.9-5.3-56.9,3.6
		c-17.4,13.8-58.2,29.8-71.1,34c-9.7,3.2-17,12.7-28,27.2c-6.9,9-15.4,20.1-26.9,32.9c-18.4,20.4-43.8,26.6-61.5,25.5
		c-10.7-0.7-19.4-4-22.7-8.8c-5.4-7.7,10.6-31.7,21.1-47.5c7.6-11.4,14.2-21.3,15.4-27.2c1.6-8.2,24-28.2,45.7-47.6
		c5.3-4.8,10.7-9.6,16.1-14.5c20.2-9.8,37.7-19,45.7-26.6c14.1-13.4,39.8-13.2,64.7-13.1c11.7,0.1,23.9,0.1,34.5-1.3
		c3.4-0.5,6.4-1,7.7-2.9c30.4,5,55.9,6.3,67.9,5.7c0,0,0.1,0,0.2,0c5.7,0,60.4,10.9,78.1,23.3c18.2,12.7,133.6,122.1,164.9,164.2
		c8,10.8,24.7,26.2,48.3,44.4c23.6,18.2,51.8,37.6,81.6,56.1c32.4,20,65,37.9,94.4,51.7c3.4,1.6,6.8,3.1,10.1,4.6
		C1236.3,1307.6,1185.3,1270.7,1145,1241.6z M1181,1250.4c-59.6-36.9-112.3-77.6-128.1-98.9c-19.7-26.5-68.3-74.7-88.3-94.2
		c-34.2-33.4-68.6-64.8-78.1-71.5c-19.1-13.4-74.7-24.5-82-24.5c-0.1,0-0.2,0-0.3,0c-18.2,0.9-64-2.9-108.7-14.4
		c-53.1-13.6-91.7-34.2-121.6-64.6c-5.2-5.3-8.3-10.3-10-15c0.7-0.4,1.5-0.9,2.2-1.3c-1-2.2-1.7-4.3-2.1-6.2c-0.5,0.3-1.1,0.6-1.6,1
		c-0.4-3.3-0.1-6.4,0.6-9.3c0-9.8,4.4-18.9,11.6-24.4c14.8-11.1,28.1-11.2,28.7-11.2h0.2l1.4,0.2c17.5,1.9,31.8,3.6,43.4,5.2
		c16.6-0.9,36.2-2.3,56.1-3.8c-1.9,0.3-3.9,0.7-5.8,1c-10.5,1.9-20.5,3.9-30.1,6c6.4,1.2,11.2,2.4,14.5,3.5c5.4-1.1,11-2.1,16.7-3.2
		c55.3-10.1,105.3-14.3,110.5-14.8c2.5-0.1,4.5,0,5.7,0.1c19.4,1.6,95.2,24.4,155.8,55.3c75.7,38.7,114.9,53.1,149.5,65.7
		c39.4,14.4,70.6,25.8,141,69.4c82.7,51.1,113.4,134,114.5,194.6c0.9,47.6-15.3,86-44.4,105.5c-10.5,7-21.7,10.7-33.5,11.7
		C1263.6,1297.7,1223.2,1276.5,1181,1250.4z"/>
</g>
<g>
</g>
<g>
</g>
<g>
</g>
<g>
</g>
<g>
</g>
<g>
</g>
</svg>
