<?xml version="1.0" encoding="utf-8"?>
<!-- Generator: Adobe Illustrator 23.0.5, SVG Export Plug-In . SVG Version: 6.00 Build 0)  -->
<svg version="1.1" id="圖層_1" xmlns="http://www.w3.org/2000/svg" xmlns:xlink="http://www.w3.org/1999/xlink" x="0px" y="0px"
	 viewBox="0 0 119.4 46.4" style="enable-background:new 0 0 119.4 46.4;" xml:space="preserve">
<style type="text/css">
	.st0{fill:#F6BC47;}
</style>
<g>
	<g>
		<path class="st0" d="M59.8,22C59.8,22,59.8,22,59.8,22c-1.4,0-2.5-1.1-2.5-2.5l0.1-17c0-1.4,1.1-2.5,2.5-2.5c0,0,0,0,0,0
			c1.4,0,2.5,1.1,2.5,2.5l-0.1,17C62.3,20.9,61.2,22,59.8,22z"/>
	</g>
	<g>
		<g>
			<path class="st0" d="M18.4,46c-0.3,0-0.6-0.1-0.9-0.2L1.6,39.8c-1.3-0.5-1.9-1.9-1.5-3.2c0.5-1.3,1.9-1.9,3.2-1.4l15.9,6.1
				c1.3,0.5,1.9,1.9,1.5,3.2C20.3,45.4,19.4,46,18.4,46z"/>
		</g>
		<g>
			<path class="st0" d="M35.3,29.3c-0.9,0-1.7-0.5-2.2-1.3l-8.4-14.7c-0.7-1.2-0.3-2.7,0.9-3.4c1.2-0.7,2.7-0.3,3.4,0.9l8.4,14.7
				c0.7,1.2,0.3,2.7-0.9,3.4C36.1,29.2,35.7,29.3,35.3,29.3z"/>
		</g>
		<g>
			<path class="st0" d="M100.9,46.4c-1,0-2-0.6-2.4-1.6c-0.5-1.3,0.2-2.7,1.5-3.2l15.9-5.9c1.3-0.5,2.7,0.2,3.2,1.5
				s-0.2,2.7-1.5,3.2l-15.9,5.9C101.5,46.4,101.2,46.4,100.9,46.4z"/>
		</g>
		<g>
			<path class="st0" d="M84.2,29.5c-0.4,0-0.9-0.1-1.3-0.3c-1.2-0.7-1.6-2.2-0.9-3.4l8.6-14.6c0.7-1.2,2.2-1.6,3.4-0.9
				c1.2,0.7,1.6,2.2,0.9,3.4l-8.6,14.6C85.9,29.1,85.1,29.5,84.2,29.5z"/>
		</g>
	</g>
</g>
<g>
</g>
<g>
</g>
<g>
</g>
<g>
</g>
<g>
</g>
<g>
</g>
<g>
</g>
<g>
</g>
<g>
</g>
<g>
</g>
<g>
</g>
<g>
</g>
<g>
</g>
<g>
</g>
<g>
</g>
</svg>
