<?xml version="1.0" encoding="utf-8"?>
<!-- Generator: Adobe Illustrator 23.0.5, SVG Export Plug-In . SVG Version: 6.00 Build 0)  -->
<svg version="1.1" id="圖層_1" xmlns="http://www.w3.org/2000/svg" xmlns:xlink="http://www.w3.org/1999/xlink" x="0px" y="0px"
	 viewBox="0 0 180 185" style="enable-background:new 0 0 180 185;" xml:space="preserve">
<style type="text/css">
	.st0{opacity:0.1;fill:#364E27;}
	.st1{fill:#364E27;stroke:#FFFFFF;stroke-miterlimit:10;}
	.st2{fill:#FFFFFF;}
	.st3{fill:#F6BC47;stroke:#FFFFFF;stroke-miterlimit:10;}
	.st4{fill:#F6BC47;stroke:#FFFFFF;stroke-width:2;stroke-miterlimit:10;}
</style>
<g>
	<circle class="st0" cx="94.1" cy="90.7" r="66.1"/>
	<path class="st1" d="M95.8,4c3.9,0.6,7.8,0.8,11.5,1.8c5.4,1.5,10.8,3.4,16.1,5.2c1.9,0.7,2.5,2.2,1.9,3.7c-0.7,1.5-2.1,1.9-4,1.1
		c-10.3-4.6-21-7-32.3-6.5c-28.9,1.3-50.7,14.6-64.4,40c-17,31.6-8.6,70.1,19.2,92.7c0.5,0.4,1,0.8,1.7,1.3c0.4-3,0.8-5.7,1.2-8.4
		c0.5-4,1.1-8.1,1.5-12.1c0.1-0.8-0.2-1.7-0.7-2.3C29.1,98.1,29.7,67.2,49,45.7c0.5-0.6,0.8-1.4,1-2.1c0.4-2.6,0.7-5.2,1.1-7.8
		c0.4-2.8,2.5-4.4,5.3-4.1c2.8,0.3,5.7,0.8,8.5,1.1c0.7,0.1,1.5,0,2.2-0.3c12.5-5.6,25.3-6.7,38.6-3.1c0.2,0,0.3,0,0.6,0
		c0.1-0.6,0.2-1.3,0.4-1.9c1-4.5,4.7-7.3,9.1-7.1c4.5,0.2,8.1,3.7,8.6,8.2c0.3,3.1,0.6,6.3,1.1,9.4c0.1,0.7,0.5,1.5,1.1,2
		c14.9,12.7,21.9,28.9,20.6,48.4c-0.8,11.2-4.9,21.3-11.8,30.1c-0.8,1.1-1.1,2-0.9,3.3c0.7,6.1,1.3,12.2,2,18.3
		c0.1,0.7,0.2,1.5,0.3,2.3c29.7-22.3,36.7-64.2,19.8-94c-0.1,0.2-0.3,0.4-0.3,0.6c-0.6,1.5-1.7,2.4-3.4,2.3
		c-1.7-0.1-2.7-1.1-3.2-2.7c-0.6-1.6-1.2-3.2-2-4.6c-2-3.7-4.8-6.6-8.8-8.2c-1.6-0.6-2.5-1.7-2.5-3.4c0-1.7,1-2.6,2.5-3.2
		c0.6-0.2,1.2-0.5,2.1-1c-2.3-1.8-4.4-3.5-6.6-5.1c-0.6-0.5-1.3-0.8-1.9-1.3c-1.2-1-1.5-2.4-0.7-3.6c0.8-1.2,2.4-1.6,3.7-0.7
		c2.6,1.8,5,3.8,7.5,5.7c0.6,0.5,1.1,1,1.8,1.6c2-2,3.2-4.3,4.2-6.8c0.3-0.7,0.5-1.4,0.8-2.1c0.6-1.4,1.7-2.2,3.3-2.2
		c1.5,0,2.5,0.8,3.1,2.2c0.7,1.7,1.4,3.5,2.2,5.1c2,3.7,4.8,6.6,8.7,8.2c1.5,0.6,2.6,1.6,2.6,3.4c0,1.7-1.1,2.7-2.6,3.3
		c-2.7,1.1-4.9,2.9-6.7,5.1c-0.9,1-0.8,1.8-0.1,2.9c8.7,15.2,12.2,31.6,10.1,49c-2.6,22.5-13.2,40.6-31.1,54.5
		c-1.5,1.1-1.8,2.2-1.6,3.9c0.9,7,1.6,14,2.3,21c0.6,5.7-1.5,8.5-7.7,10.8c-1.1,0-2.1,0-3.2,0c-0.3-0.1-0.5-0.3-0.8-0.3
		c-4.1-1.2-6.6-3.7-7.1-8.1c-0.3-2.9-0.6-5.8-0.9-8.7c-0.3-2.5-0.6-4.9-0.8-7.5c-9.3,3.4-18.6,5.1-28.2,5.2c-9.7,0-19.1-1.7-28.3-5
		c-0.1,0.5-0.3,0.9-0.3,1.3c-0.6,4.8-1.3,9.6-1.8,14.4c-0.5,4.1-2.5,6.9-6.4,8.3c-0.4,0.1-0.8,0.3-1.3,0.5c-1.2,0-2.3,0-3.5,0
		c-0.4-0.1-0.9-0.3-1.3-0.4c-4.2-1.4-6.8-5.3-6.3-9.7c0.2-2.2,0.6-4.4,0.9-6.6c0.3-1.9,1.4-3,2.9-2.8c1.6,0.2,2.5,1.6,2.2,3.5
		c-0.3,2-0.6,4-0.8,6.1c-0.3,2.2,0.7,3.7,2.7,4.3c3,1,5.3-0.5,5.7-3.9c1.4-11,2.9-22,4.3-32.9c1.8-13.6,3.6-27.3,5.4-40.9
		c0.1-0.5,0.1-1.1,0.1-1.7c-2.8-0.4-5.4-0.7-8-1.1c-0.1,0.6-0.2,1.1-0.3,1.7c-1.7,12.7-3.3,25.3-5,38c-0.8,5.9-1.5,11.8-2.4,17.7
		c-0.2,1.7-1.4,2.5-2.9,2.3c-1.5-0.2-2.6-1.5-2.1-3c1-3.4-0.1-5.6-3.1-7.2c-0.4-0.2-0.6-0.5-1-0.8c-22.7-19.4-32.3-44-28.5-73.5
		c2.4-18.5,11-34.1,24.6-46.9C47.6,14.7,61,8,76.3,5.3c3.1-0.5,6.2-0.9,9.3-1.3C89,4,92.4,4,95.8,4z M78.1,34.5
		c1.3,0.2,2.7,0.4,4,0.6c3.5,0.4,5,2.2,4.6,5.7c-1.3,10.1-2.5,20.2-4,30.3C82,76,79.4,79.9,74.8,82c-2.1,0.9-2.6,2.3-2.9,4.2
		c-1.8,13.8-3.6,27.5-5.4,41.3c-0.2,1.2,0.2,1.7,1.2,2.2c15.5,7.3,30.9,7.2,46.3-0.3c1.4-0.7,1.8-1.4,1.6-2.9
		c-1.4-12.5-2.9-25-4-37.6c-0.3-3.3-1.5-5.5-4.1-7.4c-2.4-1.7-3.5-4.3-3.4-7.3c0-1.7,0.1-3.4,0.2-5.1c0.5-10.8,1-21.7,1.6-32.5
		c0.1-1.3-0.4-1.9-1.6-2.1c-3-0.5-6-1.3-9.1-1.6C89.4,32.3,83.7,32.7,78.1,34.5z M116.5,134.1c-16.9,8.1-33.8,8.3-50.7,0.5
		c-0.1,0.4-0.2,0.6-0.2,0.8c-0.8,5.6-1.5,11.2-2.3,16.8c-0.2,1.2,0.7,1.3,1.4,1.6c14.2,5.2,28.7,6.1,43.5,2.5
		c3.5-0.8,7-2.1,10.4-3.1C117.8,146.6,117.2,140.4,116.5,134.1z M65.8,92.9c0.4-3.1,0.9-5.9,1.2-8.8c0.3-3.2,1.9-5.3,4.8-6.5
		c3.4-1.4,5.3-4.1,5.8-7.7c0.9-6.8,1.8-13.5,2.7-20.3c0.4-3,0.8-6.1,1.2-9.3c-1.7-0.2-3.2-0.5-4.8-0.7c-0.1,0.4-0.1,0.7-0.2,1
		c-1,7.7-2.1,15.5-3.1,23.2c-0.3,2.1-1.3,3.2-2.9,3c-1.7-0.1-2.6-1.5-2.3-3.6c0.6-4.7,1.3-9.5,1.9-14.2c0.4-3.3,0.9-6.7,1.3-10.1
		c-1.8-0.2-3.4-0.5-5.1-0.7C66.2,39,66.1,39.5,66,40c-1,7.7-2,15.4-3.1,23c-0.2,1.7-1.5,2.7-3,2.5c-1.5-0.3-2.4-1.6-2.2-3.3
		c0.6-4.6,1.2-9.2,1.9-13.9c0.5-3.6,0.9-7.1,1.4-10.8c-1.7-0.2-3.2-0.4-4.7-0.6c-0.1,0.5-0.3,0.9-0.3,1.3
		c-1.2,9.2-2.4,18.5-3.6,27.7c-0.6,4.1,0.6,7.3,3.9,9.8c2.2,1.7,3,4,2.7,6.8c-0.4,3-0.8,6.1-1.2,9.2C60.4,92.2,63.1,92.6,65.8,92.9z
		 M117.3,92.6c2.8-0.3,5.5-0.6,8.2-0.9c0-0.7,0-1.2-0.1-1.7c-0.5-4.9-1.1-9.7-1.6-14.6c-1.6-15.4-3.3-30.8-4.9-46.2
		c-0.2-2.1-1.8-3.6-3.8-3.6c-2,0-3.4,1.5-3.6,3.8c-0.7,14-1.3,28.1-2.1,42.1c-0.2,3.3,0.6,5.7,3.4,7.6c2.3,1.6,3.5,4,3.8,6.8
		C116.8,88,117.1,90.2,117.3,92.6z M117.9,97.9c0.7,6.9,1.4,13.7,2.2,20.5c1.4,12.6,2.7,25.3,4.1,37.9c0.7,6.1,1.3,12.2,2,18.3
		c0.3,2.6,2.2,3.8,4.8,3.3c2.6-0.5,3.7-2,3.3-5.2c-0.9-9-1.9-18.1-2.9-27.1c-1.4-12.8-2.7-25.5-4.1-38.3c-0.4-3.4-0.8-6.8-1.1-10.3
		C123.3,97.3,120.6,97.6,117.9,97.9z M126.1,47.2c2.3,21.8,4.6,43.2,6.9,64.8C146,94.4,145,64.7,126.1,47.2z M49.3,113.9
		c0.1-0.6,0.3-0.9,0.3-1.3c1.3-10,2.6-20.1,4-30.1c0.2-1.3-0.1-2.1-1.2-3c-4.2-3.4-6-7.9-5.4-13.3c0.4-3.6,0.9-7.2,1.4-11.1
		C37,70.5,35.5,95.5,49.3,113.9z M161.7,32.5c-4.1-2.6-6.9-6.1-9.1-10.4c-2.2,4.3-5,7.8-9.1,10.4c4.2,2.6,6.9,6.2,9.1,10.4
		C154.8,38.6,157.6,35.2,161.7,32.5z"/>
	<path class="st2" d="M52.7,183.2c0.4-0.2,0.8-0.4,1.3-0.5c4-1.4,6-4.2,6.4-8.3c0.5-4.8,1.2-9.6,1.8-14.4c0.1-0.4,0.2-0.8,0.3-1.3
		c9.2,3.3,18.6,5,28.3,5c9.6,0,19-1.8,28.2-5.2c0.3,2.6,0.6,5.1,0.8,7.5c0.3,2.9,0.6,5.8,0.9,8.7c0.4,4.4,3,6.9,7.1,8.1
		c0.3,0.1,0.5,0.2,0.8,0.3C103.4,183.2,78,183.2,52.7,183.2z"/>
	<path class="st2" d="M116.5,134.1c0.7,6.3,1.4,12.5,2.1,19.1c-3.5,1-6.9,2.3-10.4,3.1c-14.7,3.5-29.2,2.7-43.5-2.5
		c-0.7-0.3-1.6-0.3-1.4-1.6c0.8-5.6,1.5-11.2,2.3-16.8c0-0.2,0.1-0.4,0.2-0.8C82.7,142.4,99.5,142.2,116.5,134.1z"/>
	<path class="st3" d="M20.1,137.9c1.8,0,2.6,1,3.3,2.5c1.1,2.3,2.2,4.7,3.8,6.6c1.2,1.5,3.1,2.4,4.8,3.4c1.2,0.7,2,1.6,2,3
		c0,1.4-0.7,2.5-2,3c-4.5,1.8-6.8,5.4-8.5,9.6c-0.4,1.1-1.4,2.2-2.4,2.7c-1.7,0.8-3.1-0.4-4.1-2.3c-1.2-2.5-2.6-5-4.2-7.1
		c-1-1.3-2.8-2-4.3-2.9c-1.2-0.7-2-1.6-2-3c0-1.4,0.7-2.5,2-3c4.5-1.8,7-5.4,8.5-9.8C17.5,139,18.4,138,20.1,137.9z M25.9,153.4
		c-1.9-2.1-3.8-4.4-5.7-6.5c-1.9,2.1-3.9,4.4-5.7,6.5c1.9,2.2,3.9,4.4,5.7,6.5C22.1,157.8,24,155.6,25.9,153.4z"/>
	<path class="st4" d="M152.8,11.9c2.4,0.1,3.5,1.3,4.4,3.3c1.4,3,2.9,6.1,5,8.7c1.6,1.9,4.1,3.1,6.3,4.4c1.6,0.9,2.6,2.1,2.6,4
		c0,1.9-0.9,3.3-2.6,3.9c-5.9,2.4-9,7-11.2,12.7c-0.6,1.4-1.8,2.9-3.2,3.5c-2.2,1-4.1-0.5-5.3-3c-1.6-3.2-3.4-6.5-5.6-9.3
		c-1.3-1.7-3.7-2.6-5.6-3.8c-1.6-0.9-2.6-2.1-2.6-4c0-1.9,0.9-3.2,2.6-3.9c6-2.4,9.2-7.2,11.2-12.9C149.5,13.3,150.7,12,152.8,11.9z
		 M160.5,32.2c-2.5-2.8-5-5.8-7.5-8.6c-2.4,2.8-5.1,5.8-7.5,8.6c2.5,2.9,5.1,5.8,7.5,8.6C155.4,38,158,35,160.5,32.2z"/>
</g>
</svg>
