<?xml version="1.0" encoding="utf-8"?>
<!-- Generator: Adobe Illustrator 23.0.5, SVG Export Plug-In . SVG Version: 6.00 Build 0)  -->
<svg version="1.1" id="圖層_1" xmlns="http://www.w3.org/2000/svg" xmlns:xlink="http://www.w3.org/1999/xlink" x="0px" y="0px"
	 viewBox="0 0 180 185" style="enable-background:new 0 0 180 185;" xml:space="preserve">
<style type="text/css">
	.st0{opacity:9.000000e-02;}
	.st1{fill:#364E27;}
	.st2{fill:#364E27;stroke:#FFFFFF;stroke-width:1.5;stroke-miterlimit:10;}
	.st3{fill:#F6BC47;stroke:#FFFFFF;stroke-miterlimit:10;}
</style>
<g>
	<g class="st0">
		<path class="st1" d="M32,152.1c0,5,4,9,9,9h121.9c5,0,9-4,9-9V46.3c0-5-4-9-9-9H41c-5,0-9,4-9,9V152.1z"/>
	</g>
	<g>
		<g>
			<g>
				<path class="st2" d="M157.9,24.7H22.1c-4.4,0-8,3.6-8,8v114c0,4.4,3.6,8,8,8h135.8c4.4,0,8-3.6,8-8v-114
					C165.9,28.2,162.3,24.7,157.9,24.7z M51.8,29.7h98.1v5.8H51.8V29.7z M41,29.7h5.8v5.8H41V29.7z M30.1,29.7h5.8v5.8h-5.8V29.7z
					 M19.2,32.6c0-1.6,1.3-2.9,2.9-2.9H25v5.8h-5.8V32.6z M160.8,146.7c0,1.6-1.3,2.9-2.9,2.9H22.1c-1.6,0-2.9-1.3-2.9-2.9V40.6
					h141.5V146.7z M160.8,35.5H155v-5.8h2.9c1.6,0,2.9,1.3,2.9,2.9V35.5L160.8,35.5z"/>
			</g>
		</g>
		<g>
			<g>
				<path class="st2" d="M152.5,46.4H27.6c-1.4,0-2.5,1.1-2.5,2.5c0,1.4,1.1,2.5,2.5,2.5h124.9c1.4,0,2.5-1.1,2.5-2.5
					S153.9,46.4,152.5,46.4z"/>
			</g>
		</g>
		<g>
			<g>
				<path class="st2" d="M80,116.1c0.3,0,0.7,0,1-0.1l34.4-4.3c4-0.5,7-3.9,7-7.9V81.5c0-1.4-1.1-2.5-2.5-2.5h-16.3
					c-1.4,0-2.5,1.1-2.5,2.5c0,1.4,1.1,2.5,2.5,2.5h13.7v19.8c0,1.5-1.1,2.7-2.5,2.9L80.4,111c-1.3,0.2-2.6-0.6-3.1-1.8L67.9,84h14
					c1.4,0,2.5-1.1,2.5-2.5c0-1.4-1.1-2.5-2.5-2.5H66l-2.1-5.7c-1.2-3.1-4.2-5.2-7.5-5.2H52c-1.4,0-2.5,1.1-2.5,2.5
					c0,1.4,1.1,2.5,2.5,2.5h4.4c1.2,0,2.3,0.8,2.7,1.9L72.5,111c0.3,0.9,0.8,1.7,1.4,2.4l-3.9,6.6c-0.5-0.1-1.1-0.2-1.7-0.2
					c-4.4,0-8,3.6-8,8s3.6,8,8,8c3.5,0,6.5-2.3,7.6-5.4h31c1.1,3.2,4,5.4,7.6,5.4c4.4,0,8-3.6,8-8s-3.6-8-8-8
					c-3.5,0-6.5,2.3-7.6,5.4h-31c-0.3-1-0.8-1.9-1.5-2.6l3.9-6.5C78.8,116.1,79.4,116.1,80,116.1z M68.3,130.6
					c-1.6,0-2.9-1.3-2.9-2.9s1.3-2.9,2.9-2.9s2.9,1.3,2.9,2.9S69.9,130.6,68.3,130.6z M114.4,124.8c1.6,0,2.9,1.3,2.9,2.9
					s-1.3,2.9-2.9,2.9c-1.6,0-2.9-1.3-2.9-2.9C111.6,126.1,112.9,124.8,114.4,124.8z"/>
			</g>
		</g>
		<g>
			<g>
				<path class="st2" d="M102.7,90.6c-1-1-2.6-1-3.6,0l-3.8,3.8V65.2c0-1.4-1.1-2.5-2.5-2.5c-1.4,0-2.5,1.1-2.5,2.5v29.2l-3.8-3.8
					c-1-1-2.6-1-3.6,0c-1,1-1,2.6,0,3.6l8.1,8.1c0.5,0.5,1.1,0.7,1.8,0.7c0.7,0,1.3-0.2,1.8-0.7l8.1-8.1
					C103.7,93.2,103.7,91.6,102.7,90.6z"/>
			</g>
		</g>
	</g>
	<path class="st3" d="M146,121.8c2.1,0.1,3.1,1.2,4,2.9c1.3,2.7,2.6,5.5,4.5,7.8c1.4,1.7,3.7,2.8,5.7,4c1.4,0.9,2.4,1.9,2.4,3.6
		c0,1.7-0.8,2.9-2.4,3.6c-5.3,2.1-8.1,6.3-10.1,11.4c-0.5,1.3-1.7,2.6-2.8,3.2c-2,0.9-3.7-0.5-4.8-2.7c-1.5-2.9-3-5.9-5-8.4
		c-1.2-1.5-3.3-2.4-5.1-3.4c-1.4-0.8-2.4-1.9-2.4-3.6c0-1.7,0.8-2.9,2.4-3.5c5.4-2.2,8.2-6.4,10.1-11.6
		C142.9,123.1,144,121.8,146,121.8z M152.9,140.1c-2.2-2.5-4.5-5.2-6.7-7.7c-2.2,2.5-4.6,5.2-6.7,7.7c2.3,2.6,4.6,5.3,6.7,7.7
		C148.3,145.3,150.7,142.6,152.9,140.1z"/>
	<path class="st3" d="M167.7,101.7c1.1,0,1.6,0.6,2,1.5c0.7,1.4,1.3,2.8,2.3,4c0.7,0.9,1.9,1.4,2.9,2.1c0.7,0.4,1.2,1,1.2,1.8
		c0,0.9-0.4,1.5-1.2,1.8c-2.7,1.1-4.1,3.3-5.2,5.8c-0.3,0.6-0.8,1.3-1.5,1.6c-1,0.5-1.9-0.2-2.5-1.4c-0.8-1.5-1.5-3-2.6-4.3
		c-0.6-0.8-1.7-1.2-2.6-1.7c-0.7-0.4-1.2-1-1.2-1.8c0-0.9,0.4-1.5,1.2-1.8c2.8-1.1,4.2-3.3,5.2-6
		C166.1,102.3,166.7,101.7,167.7,101.7z M171.2,111.1c-1.1-1.3-2.3-2.7-3.5-4c-1.1,1.3-2.3,2.7-3.5,4c1.2,1.3,2.4,2.7,3.5,4
		C168.9,113.7,170.1,112.4,171.2,111.1z"/>
</g>
</svg>
