<?xml version="1.0" encoding="utf-8"?>
<!-- Generator: Adobe Illustrator 23.0.5, SVG Export Plug-In . SVG Version: 6.00 Build 0)  -->
<svg version="1.1" id="圖層_1" xmlns="http://www.w3.org/2000/svg" xmlns:xlink="http://www.w3.org/1999/xlink" x="0px" y="0px"
	 viewBox="0 0 180 185" style="enable-background:new 0 0 180 185;" xml:space="preserve">
<style type="text/css">
	.st0{opacity:7.000000e-02;fill:#364E27;}
	.st1{fill:#364E27;stroke:#FFFFFF;stroke-width:0.5;stroke-miterlimit:10;}
	.st2{fill:#F6BC47;stroke:#FFFFFF;stroke-width:3;stroke-miterlimit:10;}
	.st3{fill:#F6BC47;stroke:#FFFFFF;stroke-miterlimit:10;}
</style>
<g>
	<rect x="51.5" y="47.3" class="st0" width="127.4" height="125.9"/>
	<g>
		<g>
			<g>
				<path class="st1" d="M171.4,41.3V17.2h-24.1v9.6h-38.5v-9.6H84.8v9.6H46.3v-9.6H22.2v24.1h9.6v38.5h-9.6v24.1h9.6v38.5h-9.6
					v24.1h24.1v-9.6h38.5v9.6h24.1v-9.6h38.5v9.6h24.1v-24.1h-9.6v-38.5h9.6V79.8h-9.6V41.3H171.4z M89.6,22H104v14.4H89.6V22z
					 M27,36.4V22h14.4v14.4H27z M27,99V84.6h14.4V99H27z M41.4,161.6H27v-14.4h14.4V161.6z M104,161.6H89.6v-14.4H104V161.6z
					 M147.3,151.9h-38.5v-9.6H84.8v9.6H46.3v-9.6h-9.6v-38.5h9.6V79.8h-9.6V41.3h9.6v-9.6h38.5v9.6h24.1v-9.6h38.5v9.6h9.6v38.5
					h-9.6v24.1h9.6v38.5h-9.6V151.9z M166.6,147.1v14.4h-14.4v-14.4H166.6z M166.6,84.6V99h-14.4V84.6H166.6z M152.1,36.4V22h14.4
					v14.4H152.1z"/>
				<rect x="72.7" y="46.1" class="st1" width="4.8" height="9.6"/>
				
					<rect x="59.1" y="51.7" transform="matrix(0.7072 -0.707 0.707 0.7072 -21.9443 60.0469)" class="st1" width="4.8" height="9.6"/>
				<rect x="51.1" y="67.7" class="st1" width="9.6" height="4.8"/>
				
					<rect x="56.7" y="81.3" transform="matrix(0.7071 -0.7071 0.7071 0.7071 -41.1944 68.0327)" class="st1" width="9.6" height="4.8"/>
				<path class="st1" d="M99.2,72.5v-4.8h-9.6v3.5l-20.8-7.4l7.4,20.8h-3.5v9.6h4.8v-5.8L96.7,142l14-36.3l36.3-14L93.4,72.5H99.2z
					 M133.2,91.9L107,102l-10.1,26.2L76.7,71.7L133.2,91.9z"/>
				
					<rect x="83.9" y="54.1" transform="matrix(0.7071 -0.7071 0.7071 0.7071 -13.9664 79.3098)" class="st1" width="9.6" height="4.8"/>
			</g>
		</g>
	</g>
	<path class="st2" d="M22.4,18.7c3,0.1,4.4,1.7,5.5,4.1c1.8,3.8,3.6,7.7,6.3,10.9c2,2.4,5.1,3.9,7.9,5.6c2,1.2,3.3,2.7,3.3,5
		c0,2.3-1.1,4.1-3.3,5c-7.4,3-11.3,8.9-14.1,15.9c-0.7,1.8-2.3,3.7-4,4.4c-2.8,1.3-5.1-0.6-6.7-3.8c-2.1-4.1-4.2-8.2-7-11.8
		c-1.7-2.1-4.6-3.3-7.1-4.7c-2-1.1-3.3-2.6-3.3-5c0-2.4,1.1-4.1,3.3-5c7.5-3,11.5-9,14.1-16.3C18.2,20.5,19.7,18.8,22.4,18.7z
		 M32.1,44.3c-3.1-3.5-6.3-7.3-9.4-10.8c-3.1,3.5-6.4,7.3-9.4,10.8c3.2,3.6,6.4,7.4,9.4,10.8C25.7,51.6,29,47.8,32.1,44.3z"/>
	<path class="st3" d="M163.8,115.6c1.8,0,2.6,1,3.3,2.4c1.1,2.2,2.2,4.6,3.7,6.5c1.2,1.4,3,2.3,4.7,3.3c1.2,0.7,2,1.6,2,3
		c0,1.4-0.7,2.4-2,2.9c-4.4,1.8-6.7,5.3-8.3,9.4c-0.4,1-1.4,2.2-2.4,2.6c-1.7,0.8-3-0.4-4-2.2c-1.2-2.4-2.5-4.9-4.2-7
		c-1-1.3-2.7-2-4.2-2.8c-1.2-0.7-1.9-1.5-2-3c0-1.4,0.7-2.4,2-2.9c4.4-1.8,6.8-5.3,8.3-9.6C161.3,116.7,162.2,115.7,163.8,115.6z
		 M169.5,130.8c-1.8-2.1-3.7-4.3-5.6-6.4c-1.8,2.1-3.8,4.3-5.6,6.4c1.9,2.1,3.8,4.4,5.6,6.4C165.7,135.1,167.7,132.9,169.5,130.8z"
		/>
</g>
</svg>
