<?xml version="1.0" encoding="utf-8"?>
<!-- Generator: Adobe Illustrator 23.0.5, SVG Export Plug-In . SVG Version: 6.00 Build 0)  -->
<svg version="1.1" id="圖層_1" xmlns="http://www.w3.org/2000/svg" xmlns:xlink="http://www.w3.org/1999/xlink" x="0px" y="0px"
	 viewBox="0 0 180 185" style="enable-background:new 0 0 180 185;" xml:space="preserve">
<style type="text/css">
	.st0{fill:#364E27;stroke:#FFFFFF;stroke-width:0.8;stroke-miterlimit:10;}
	.st1{fill:#F6BC47;stroke:#FFFFFF;stroke-miterlimit:10;}
	.st2{opacity:0.1;fill:#364E27;}
</style>
<g>
	<g>
		<g>
			<path class="st0" d="M166.9,65.6h-23.3V32.2c0-0.5,0-1-0.3-1.6l-7.8-15.6c-1-1.8-3.9-1.8-4.7,0l-7.8,15.6
				c-0.5,0.5-0.5,1.3-0.3,2.1v32.9H115V37.1l0,0c0-0.3,0-0.5-0.3-0.8v-0.3c-0.3-0.3-0.3-0.5-0.5-0.8L93.5,14.5
				c-0.3-0.3-0.5-0.3-0.8-0.5h-0.3c-0.3,0-0.5-0.3-0.8-0.3l0,0h-57c-1.6,0-2.6,1-2.6,2.6v49.3H16.5c-1.6,0-2.6,1-2.6,2.6v98.5
				c0,1.6,1,2.6,2.6,2.6H141h25.9c1.6,0,2.6-1,2.6-2.6V68.2C169.5,66.7,168.4,65.6,166.9,65.6z M133.2,22.1l3.6,7.3h-7.3L133.2,22.1
				z M128,34.5h10.4v31.1H128V34.5z M106.2,34.5H94.3V22.6L106.2,34.5z M37.3,18.9h51.9v18.1c0,1.6,1,2.6,2.6,2.6h18.1v25.9H94.3
				H63.2H37.3V18.9z M65.8,70.8h25.9v41.5H65.8V70.8z M19.1,70.8h15.6h25.9v44.1c0,1.6,1,2.6,2.6,2.6h31.1c1.6,0,2.6-1,2.6-2.6V70.8
				h15.6h13h13v93.3H19.1L19.1,70.8z M164.3,164.1h-20.7V70.8h20.7V164.1z"/>
			<rect x="29.5" y="140.8" class="st0" width="20.7" height="5.2"/>
			<rect x="29.5" y="151.2" class="st0" width="46.7" height="5.2"/>
			<path class="st0" d="M125.4,140.8h-15.6c-1.6,0-2.6,1-2.6,2.6v10.4c0,1.6,1,2.6,2.6,2.6h15.6c1.6,0,2.6-1,2.6-2.6v-10.4
				C128,141.8,127,140.8,125.4,140.8z M122.8,151.2h-10.4V146h10.4V151.2z"/>
			<path class="st0" d="M50,51.4l-3.1-3.1l-3.6,3.6l5.2,5.2c0.5,0.5,1,0.8,1.8,0.8s1.6-0.5,2.1-1l10.4-13l-4.1-3.1L50,51.4z"/>
			<rect x="68.4" y="42.3" class="st0" width="10.4" height="5.2"/>
			<rect x="68.4" y="52.7" class="st0" width="33.7" height="5.2"/>
			<rect x="45" y="26.7" class="st0" width="10.4" height="5.2"/>
			<rect x="63.2" y="26.7" class="st0" width="10.4" height="5.2"/>
		</g>
	</g>
	<path class="st1" d="M128.2,66.8c1.5,0,2.2,0.9,2.8,2.1c0.9,1.9,1.9,4,3.2,5.6c1,1.2,2.6,2,4.1,2.9c1,0.6,1.7,1.4,1.7,2.6
		c0,1.2-0.6,2.1-1.7,2.6c-3.8,1.5-5.8,4.6-7.2,8.2c-0.4,0.9-1.2,1.9-2,2.3c-1.4,0.7-2.6-0.3-3.5-1.9c-1.1-2.1-2.2-4.2-3.6-6
		c-0.9-1.1-2.4-1.7-3.7-2.4c-1-0.6-1.7-1.3-1.7-2.6c0-1.2,0.6-2.1,1.7-2.5c3.8-1.5,5.9-4.6,7.2-8.3C126,67.7,126.8,66.9,128.2,66.8z
		 M133.1,80c-1.6-1.8-3.3-3.7-4.8-5.5c-1.6,1.8-3.3,3.7-4.8,5.5c1.6,1.9,3.3,3.8,4.8,5.6C129.9,83.7,131.6,81.8,133.1,80z"/>
	<path class="st1" d="M152.1,25.7c2.3,0.1,3.3,1.3,4.2,3.1c1.4,2.9,2.8,5.8,4.7,8.3c1.5,1.8,3.9,3,6,4.2c1.5,0.9,2.5,2,2.5,3.8
		c0,1.8-0.9,3.1-2.5,3.8c-5.6,2.2-8.5,6.7-10.7,12c-0.5,1.3-1.7,2.8-3,3.3c-2.1,1-3.9-0.5-5.1-2.9c-1.6-3.1-3.2-6.2-5.3-8.9
		c-1.3-1.6-3.5-2.5-5.4-3.6c-1.5-0.9-2.5-2-2.5-3.8c0-1.8,0.9-3.1,2.5-3.7c5.7-2.3,8.7-6.8,10.7-12.3
		C148.9,27.1,150,25.8,152.1,25.7z M159.4,45.1c-2.3-2.7-4.8-5.5-7.1-8.2c-2.3,2.7-4.8,5.5-7.1,8.1c2.4,2.7,4.8,5.6,7.1,8.2
		C154.6,50.5,157.1,47.7,159.4,45.1z"/>
	<rect x="3.1" y="83.8" class="st2" width="124.9" height="93"/>
</g>
</svg>
