<?xml version="1.0" encoding="utf-8"?>
<!-- Generator: Adobe Illustrator 23.0.5, SVG Export Plug-In . SVG Version: 6.00 Build 0)  -->
<svg version="1.1" id="圖層_1" xmlns="http://www.w3.org/2000/svg" xmlns:xlink="http://www.w3.org/1999/xlink" x="0px" y="0px"
	 viewBox="0 0 40 36.9" style="enable-background:new 0 0 40 36.9;" xml:space="preserve">
<style type="text/css">
	.st0{fill:#919191;}
</style>
<g>
	<path class="st0" d="M38.9,0H34c-0.5,0-0.9,0.3-1,0.8l-2.1,6.7H1.1c-0.3,0-0.7,0.2-0.9,0.4C0,8.2-0.1,8.5,0,8.9l0,0l4.3,17
		c0.1,0.5,0.6,0.8,1,0.8h21c0.5,0,0.9-0.3,1-0.8l5.3-17c0-0.1,2-6.6,2.1-6.6l0-0.1h4.1c0.6,0,1.1-0.5,1.1-1.1S39.5,0,38.9,0z M4,16
		L2.6,9.6h7.6l0.5,6.3H4z M6.2,24.5l-1.5-6.3h6.1l0.6,6.3H6.2z M18.1,24.5h-4.5L13,18.1h5.8L18.1,24.5z M19,16h-6.2l-0.5-6.3h7.3
		L19,16z M25.6,24.5h-5.3l0.6-6.3h6.6L25.6,24.5z M28.2,16h-7.1l0.6-6.3h8.4L28.2,16z"/>
	<path class="st0" d="M23.7,30c-1.9,0-3.4,1.5-3.4,3.4c0,1.9,1.5,3.4,3.4,3.4c1.9,0,3.4-1.5,3.4-3.4C27.1,31.6,25.6,30,23.7,30z
		 M23.7,35.2c-1,0-1.8-0.8-1.8-1.8s0.8-1.8,1.8-1.8c1,0,1.8,0.8,1.8,1.8S24.7,35.2,23.7,35.2z"/>
	<path class="st0" d="M7.9,30c-1.9,0-3.4,1.5-3.4,3.4c0,1.9,1.5,3.4,3.4,3.4s3.4-1.5,3.4-3.4C11.4,31.6,9.8,30,7.9,30z M7.9,35.2
		c-1,0-1.8-0.8-1.8-1.8s0.8-1.8,1.8-1.8c1,0,1.8,0.8,1.8,1.8S8.9,35.2,7.9,35.2z"/>
</g>
</svg>
