<?xml version="1.0" encoding="utf-8"?>
<!-- Generator: Adobe Illustrator 23.0.5, SVG Export Plug-In . SVG Version: 6.00 Build 0)  -->
<svg version="1.1" id="圖層_1" xmlns="http://www.w3.org/2000/svg" xmlns:xlink="http://www.w3.org/1999/xlink" x="0px" y="0px"
	 viewBox="0 0 397.2 145.7" style="enable-background:new 0 0 397.2 145.7;" xml:space="preserve">
<style type="text/css">
	.st0{fill:none;stroke:#070001;stroke-width:13.3106;stroke-miterlimit:10;}
	.st1{fill:#C8161D;}
	.st2{fill:#FFFFFF;}
</style>
<g id="XMLID_76_">
	<g id="XMLID_347_">
		<g id="XMLID_1962_">
			<path id="XMLID_2326_" d="M331.7,7.3c-0.9-2.2-2.9-7.3-10.5-7.3c-1.3,0-4,0.6-4.8,2.9c-0.7,1.8,0.8,4.8,4.5,5.1
				c5.2,0.4,5.6,2.5,6.3,4.5c1.9,5.6-3.2,11.4-5.8,13.2c-4,2.8-19.8,9-26.1,11.3l4.9-15.5h-9.3c0,0-0.5,1.5-1.2,4
				c-1.1,3.4-3,9-5,14.9c-7.5,2.3-17,5.2-21.9,6.6c-4.9,1.5-11.4,3.5-14.2,4.3l8.7-29.4h-8.6l-9.1,32.8c-7.9,3.2-19.4,9.3-25.3,21.2
				c-5.3,10.8,2.6,18.5,5.9,21c0.6,0.6,1.2,1.1,2,1.5c2.4,1.4,5.4,1.9,8.5,1.9c6.8,0,15.1-3.1,18.3-4.4c11.2,8,23.4,8.9,31.5,8.9
				c9.7-0.8,12.5-2.1,12.6-2.1l0,0c5.7-1.7,12.9-5.2,15-11.9c3.3-10.9-4.9-20.7-12.2-18.3c-7.1,2.3-4.2,10.8,0.2,10.6
				c3.8-0.2,6.8-0.3,8.1,2.5c1.2,2.6,3.3,9.9-10.7,15.9l0-0.1c-8,3-27,4.3-42.5-6.2c4-0.9,10.7-3,20-9.7
				c10.5-7.7,18.3-29.1,18.3-29.1l5.4-17c6.7-2.4,23.7-9.7,28.1-12.8c1.1-0.8,2.1-1.6,3-2.3C334.6,16.6,332.6,9.5,331.7,7.3z
				 M242.5,83.7c-1.6-8.9,2.8-21.4,2.8-21.4l1.5-5.2c11.3-5,28.9-11.5,37.1-14.4c-2.7,7.9-5.4,16.1-6.9,20.2
				c-3.4,9.6-10.8,19-15.2,23.1c-4.1,3.8-9.7,6.8-12.4,8.3c-0.6-0.4-1.2-0.9-1.8-1.4C245.5,90.7,243.3,87.6,242.5,83.7z M222.5,97.6
				c-1.8-1.1-3.1-2.7-3.8-4.7c-0.1-0.3-0.2-0.6-0.3-0.9c-0.2-0.6-0.3-1.3-0.4-2c-0.2-1.7-0.1-3.3,0.1-4.9c0.2-0.9,0.5-1.9,0.9-2.9
				c3.8-9.1,12.9-16.6,18.5-20.3c-0.9,3.4-3.1,13,0.1,21.1c2.9,7.4,9,11.5,9.9,12.1C241.4,97.4,228.7,101.3,222.5,97.6z"/>
			<g id="XMLID_2265_">
				<path id="XMLID_2319_" d="M198.5,30.8c-0.9-0.6-1.6-1-2.2-1.4h12.3v-0.1c2.5-0.2,3.8-1.4,3.4-2.6c-0.6-1.6-1.6,1.6-4.1,1.6
					c-0.2,0-0.4,0-0.6,0.1h-21.4c3.4-4.9,6.2-9.6,7.2-11.3c4.4-1.4,7.5-2.8,12.4-2.6c5.4,0.1,14,4.7,14,4.7s-6.8-5.6-12.2-6.5
					c-5-0.9-8.7-0.4-15.6,2.1c-7,2.5-13.4,1.7-17.3-1.1c-2.9-2-4.6-4.5-5.6-6.3c-1.8-3.6-5.7-5.7-7.2-1.5c-0.9,2.4,0.3,5.9,2.8,8.4
					c4.7,4.5,13.3,7.2,19.2,5.4c-1.5,2.2-3.7,5.5-5.9,8.7h-14l2-6.8h-8.1c0,0-3.8,12.2-7.5,23.9c-5.4,0.3-10.6,1.5-15,2.9l7.9-26.8
					h-8.8l-8.5,30.7c-0.8,0.4-1.5,0.8-2,1.1c-0.3,0.1-25.6,13.2-19.9,34c1.2,4.2,3.4,7,6.7,8.2c1.3,0.5,2.7,0.7,4.2,0.7
					c3.1,0,6.4-0.9,9.3-2.1c1.3-0.4,2.7-0.9,4.4-1.7c1.5,1.4,3.3,2.4,5.2,3.4c7.6,4.9,16.8,5.2,18.4,5.2c0.1,0,0.2,0,0.2,0l0-1
					c-0.1,0-10,0.2-18-4.9c-1.1-1-2.3-2.4-3.4-4c1.9-1,4.1-2.4,6.6-4.2c10.5-7.4,17.6-29.7,17.6-29.7l3.5-11.7
					c0.7-0.1,1.3-0.2,2.1-0.4c5.5-1,10-3,13.8-5.3c-1.4,4.9-2,11.3,1.9,13.1c1.6,0.8,3.1,1.2,4.6,1.5c-2.2,0.4-4.4,0.9-6.4,1.8
					c-5,2.3-9.1,6.6-9.1,6.6l-0.2,0.2l2.1-6.9h-7.6c0,0-6.7,20.6-6,25.7c0.6,4.8,3.1,8.8,5.6,10.7c1.2,1,2.6,1.6,3.9,1.9
					c0,0,0,0,0,0s8,2,8.2,1c0,0-4.3-0.7-8.1-2.5c-1.7-0.7-2.4-2.2-2.9-3.3c-1.7-3.5-0.2-9.2-0.2-9.2l3.1-11.6
					c8.8-13.8,20.3-13.3,22.4-13.5c11.7-1.3,12.3,11.7,12.3,11.7s0.4,8.5-3.5,18.1c-6.7,16.5-13,19.5-13,19.5s3-0.9,7.3-3
					c7.6-3.8,10.8-10.8,13-17.4c1.6-4.8,9.5-22.8-5.1-28.5c-1.4-0.5-2.7-0.9-4.1-1.2c2.3-0.8,3.9-2.4,4.7-4.5
					c1.5-4.1,4.3-11.6-3.3-16.1c-3.8-2.3-8.3-2.2-11.6-1.3c0.8-1,1.6-2.1,2.4-3.3h9.9c2.4,1.9,10.3,8.8,11,15c0.9,7.2-4,10.8,0,13.6
					c4,2.9,7.5-1.3,6.4-8.2C210.8,39.9,203.2,33.8,198.5,30.8z M111,94.6c-3-1.1-5-3.6-6.1-7.5c-0.5-2-0.8-3.8-0.8-5.7
					c0.5-2.7,1.6-6.7,4.5-11.2c3.3-5.2,10.1-11.5,16.9-16.7l-2.1,7.5c0,0-4.3,12.6-0.2,22.8c1.4,3.5,2.8,5.8,4.3,7.5
					c-0.4,0.2-0.8,0.5-1.1,0.7C121.8,94.1,115.7,96.2,111,94.6z M129.9,89.3c-0.8-1.5-1.4-3.1-1.8-4.8c-1.7-9,2.9-21.9,2.9-21.9
					l3.9-13.2c4.3-1.5,9.6-2.7,15-3.1c-2.3,7.1-4.5,14-5.7,17.7C141,73.7,134.4,84.9,129.9,89.3z M192.5,34.7
					c3.6,2.2-0.4,16.5-4.1,18.7c-1.2,0.2-2.4,0.4-3.5,0.4c0,0,0,0,0,0c-2.2,0-4.2-0.7-5.4-2.6c-2.2-3.3,3.6-17,3.8-17.5
					C186,33.1,189.5,32.9,192.5,34.7z M170.3,38.2c-3,2.9-8.2,5-11.3,6.2l4.5-15H177C174.3,33.3,171.7,36.9,170.3,38.2z"/>
				<path id="XMLID_2309_" d="M190.6,81.8c1.7-3.6,3.3-7.8,2.4-11.4c-0.9-3.6-4.9-5.7-7.2-6.4c-9.6-2.9-16.3,2.5-17.3,6.4
					c-0.2,0.9-1,3-1.2,6c-0.4,5.9,4.1,8.6,7.4,9.3c3.1,0.7,6.2,0.9,8.3,0.5C185.6,85.6,189.4,84.5,190.6,81.8z M182.6,84.3
					c-2.8,2.1-6.1,0.6-7.2,0c-3.8-2.3-3.2-7.9-0.8-13.8c1.6-4.1,7.4-7.3,12.2-4.9c3.9,1.9,0.8,9.3,0.1,11.8
					C186.4,79,185.3,82.2,182.6,84.3z"/>
			</g>
			<g id="XMLID_2179_">
				<path id="XMLID_2211_" d="M95.4,30.8c-0.9-0.6-1.6-1-2.2-1.4h12.3v-0.1c2.5-0.2,3.8-1.4,3.4-2.6c-0.6-1.6-1.6,1.6-4.1,1.6
					c-0.2,0-0.4,0-0.6,0.1H82.8c3.4-4.9,6.2-9.6,7.2-11.3c4.4-1.4,7.5-2.8,12.4-2.6c5.4,0.1,14,4.7,14,4.7s-6.8-5.6-12.2-6.5
					c-5-0.9-8.7-0.4-15.6,2.1c-7,2.5-13.4,1.7-17.3-1.1c-2.9-2-4.6-4.5-5.6-6.3c-1.8-3.6-5.7-5.7-7.2-1.5c-0.9,2.4,0.3,5.9,2.8,8.4
					c4.7,4.5,13.3,7.2,19.2,5.4c-1.5,2.2-3.7,5.5-5.9,8.7h-14l2-6.8h-8.1c0,0-3.8,12.2-7.5,23.9c-5.4,0.3-10.6,1.5-15,2.9L40,21.5
					h-8.8l-8.5,30.7c-0.8,0.4-1.5,0.8-2,1.1c-0.3,0.1-25.6,13.2-19.9,34c1.2,4.2,3.4,7,6.7,8.2c1.3,0.5,2.7,0.7,4.2,0.7
					c3.1,0,6.4-0.9,9.3-2.1c1.3-0.4,2.7-0.9,4.4-1.7c1.5,1.4,3.3,2.4,5.2,3.4c7.6,4.9,16.8,5.2,18.4,5.2c0.1,0,0.2,0,0.2,0l0-1
					c-0.1,0-10,0.2-18-4.9c-1.1-1-2.3-2.4-3.4-4c1.9-1,4.1-2.4,6.6-4.2c10.5-7.4,17.6-29.7,17.6-29.7l3.5-11.7
					c0.7-0.1,1.3-0.2,2.1-0.4c5.5-1,10-3,13.8-5.3c-1.4,4.9-2,11.3,1.9,13.1c1.6,0.8,3.1,1.2,4.6,1.5c-2.2,0.4-4.4,0.9-6.4,1.8
					c-5,2.3-9.1,6.6-9.1,6.6L62.2,63l2.1-6.9h-7.6c0,0-6.7,20.6-6,25.7c0.6,4.8,3.1,8.8,5.6,10.7c1.2,1,2.6,1.6,3.9,1.9c0,0,0,0,0,0
					s8,2,8.2,1c0,0-4.3-0.7-8.1-2.5c-1.7-0.7-2.4-2.2-2.9-3.3c-1.7-3.5-0.2-9.2-0.2-9.2L60.4,69c8.8-13.8,20.3-13.3,22.4-13.5
					c11.7-1.3,12.3,11.7,12.3,11.7s0.4,8.5-3.5,18.1c-6.7,16.5-13,19.5-13,19.5s3-0.9,7.3-3c7.6-3.8,10.8-10.8,13-17.4
					c1.6-4.8,9.5-22.8-5.1-28.5c-1.4-0.5-2.7-0.9-4.1-1.2c2.3-0.8,3.9-2.4,4.7-4.5c1.5-4.1,4.3-11.6-3.3-16.1
					c-3.8-2.3-8.3-2.2-11.6-1.3c0.8-1,1.6-2.1,2.4-3.3h9.9c2.4,1.9,10.3,8.8,11,15c0.9,7.2-4,10.8,0,13.6c4,2.9,7.5-1.3,6.4-8.2
					C107.7,39.9,100.1,33.8,95.4,30.8z M7.9,94.6c-3-1.1-5-3.6-6.1-7.5c-0.5-2-0.8-3.8-0.8-5.7c0.5-2.7,1.6-6.7,4.5-11.2
					C8.8,65,15.5,58.7,22.4,53.5l-2.1,7.5c0,0-4.3,12.6-0.2,22.8c1.4,3.5,2.8,5.8,4.3,7.5c-0.4,0.2-0.8,0.5-1.1,0.7
					C18.7,94.1,12.6,96.2,7.9,94.6z M26.8,89.3c-0.8-1.5-1.4-3.1-1.8-4.8c-1.7-9,2.9-21.9,2.9-21.9l3.9-13.2c4.3-1.5,9.6-2.7,15-3.1
					c-2.3,7.1-4.5,14-5.7,17.7C37.9,73.7,31.3,84.9,26.8,89.3z M89.4,34.7c3.6,2.2-0.4,16.5-4.1,18.7c-1.2,0.2-2.4,0.4-3.5,0.4
					c0,0,0,0,0,0c-2.2,0-4.2-0.7-5.4-2.6c-2.2-3.3,3.6-17,3.8-17.5C82.9,33.1,86.4,32.9,89.4,34.7z M67.2,38.2
					c-3,2.9-8.2,5-11.3,6.2l4.5-15h13.6C71.2,33.3,68.6,36.9,67.2,38.2z"/>
				<path id="XMLID_2182_" d="M87.5,81.8c1.7-3.6,3.3-7.8,2.4-11.4C89,66.8,85,64.7,82.7,64c-9.6-2.9-16.3,2.5-17.3,6.4
					c-0.2,0.9-1,3-1.2,6c-0.4,5.9,4.1,8.6,7.4,9.3c3.1,0.7,6.2,0.9,8.3,0.5C82.5,85.6,86.2,84.5,87.5,81.8z M79.5,84.3
					c-2.8,2.1-6.1,0.6-7.2,0c-3.8-2.3-3.2-7.9-0.8-13.8c1.6-4.1,7.4-7.3,12.2-4.9c3.9,1.9,0.8,9.3,0.1,11.8
					C83.3,79,82.2,82.2,79.5,84.3z"/>
			</g>
		</g>
		<g id="XMLID_351_">
			<path id="XMLID_1843_" d="M340.5,60.4c-0.2-2.1-1.8-5.2-4.7-4.3c-2.4,0.8-1.8,3.9,0.7,4c0.9,0,1.7-0.8,2.6-0.8
				c0.4,0,1.2,0.8,1.5,0.8"/>
			<path id="XMLID_1842_" d="M348.1,60.5c0.3-2.1,1.9-5.2,4.7-4.2c2.3,0.9,1.7,4-0.8,3.9c-0.9,0-1.7-0.9-2.6-0.9
				c-0.4,0-1.2,0.7-1.5,0.7"/>
			<path id="XMLID_1841_" d="M383.8,36.7c0-0.2,0.4-0.6,1.3-1c0.2-0.1,0.5-0.2,0.8-0.3c0.1-0.1,0.3-0.1,0.4-0.2
				c0.1,0,0.1-0.1,0.2-0.1c0,0,0.1,0,0.1,0l0,0c0,0,0,0,0,0l0,0c0.3-0.2,0.5-0.3,0.6-0.4c0,0,0.1-0.1,0.1-0.1c0,0,0,0,0,0l0,0l0,0
				l0,0c-0.2-0.1-0.3-0.2-0.4-0.2c-0.1-0.1-0.2-0.1-0.3-0.1l-0.1,0l0,0l0,0l0,0c0,0,0,0,0,0l-0.1,0c-0.2-0.2-0.4-0.3-0.7-0.4
				c-0.9-0.6-1.9-1.1-2.9-1.6c-0.5-0.2-1-0.5-1.6-0.7l-0.2-0.1l-0.2-0.1c-0.1,0-0.3-0.1-0.4-0.1c-0.3-0.1-0.6-0.2-0.8-0.3
				c-2.3-0.7-4.6-0.8-6.6-0.6c-2.1,0.2-3.9,0.7-5.5,1.2c-1.5,0.5-2.8,1.1-3.7,1.4c-0.9,0.4-1.4,0.5-1.6,0.3
				c-0.2-0.2,0.1-0.7,0.8-1.5c0.7-0.7,1.8-1.7,3.4-2.6c0.8-0.4,1.7-0.9,2.7-1.3c1-0.4,2.2-0.7,3.4-0.9c0.6-0.1,1.3-0.2,1.9-0.2
				c0.7,0,1.3,0,2,0c0.7,0,1.4,0.1,2.1,0.2c0.4,0.1,0.7,0.1,1,0.2c0.3,0.1,0.7,0.2,1,0.3c0.4,0.1,0.7,0.2,1,0.3
				c0.2,0.1,0.3,0.1,0.5,0.2c0.1,0,0.2,0.1,0.3,0.1c0.1,0,0.2,0.1,0.2,0.1c0.6,0.3,1.3,0.6,1.9,0.9c1.2,0.6,2.3,1.3,3.2,2.1
				c0.2,0.2,0.5,0.4,0.7,0.6c0.1,0.1,0.2,0.1,0.2,0.2l0.1,0.1l0.2,0.1c0.2,0.2,0.4,0.3,0.6,0.5c0.2,0.2,0.4,0.3,0.6,0.5
				c0.2,0.2,0.3,0.3,0.5,0.5c0.2,0.2,0.3,0.3,0.5,0.5c0.2,0.2,0.3,0.3,0.5,0.5c0.3,0.3,0.6,0.6,0.9,0.9c0.3,0.3,0.5,0.6,0.8,0.8
				l0,0.1l0,0l0,0l0,0c0,0,0,0,0,0l-0.2,0c-0.1,0-0.2,0-0.3,0.1c-0.2,0-0.4,0.1-0.6,0.1c-0.4,0.1-0.8,0.1-1.2,0.2
				c-1.5,0.3-2.8,0.5-3.8,0.6c0,0-0.1,0-0.1,0l0,0l0,0c0,0-0.1,0-0.1,0c-0.1,0-0.2,0-0.3,0c-0.2,0-0.3,0-0.5,0c-0.3,0-0.6,0-0.8,0
				C384.4,37.1,383.9,37,383.8,36.7z"/>
			<path id="XMLID_1832_" d="M397.1,10.7c-0.1,0.1-0.3,0.1-0.6-0.1c-0.1-0.1-0.3-0.1-0.5-0.2c-0.1-0.1-0.2-0.1-0.3-0.2
				c0,0-0.1-0.1-0.2-0.1c-0.1,0-0.1-0.1-0.2-0.1c-0.1-0.1-0.2-0.1-0.4-0.2c-0.1-0.1-0.3-0.2-0.4-0.2c-0.3-0.2-0.6-0.3-0.9-0.5
				c-0.6-0.4-1.4-0.7-2.2-1c-0.8-0.3-1.8-0.6-2.8-0.8c-0.5-0.1-1-0.2-1.6-0.2c-0.5,0-1.1-0.1-1.7,0c-0.6,0-1.2,0.1-1.8,0.1
				c-0.6,0.1-1.2,0.2-1.9,0.3c-1.3,0.3-2.6,0.6-3.9,1.1c-2.7,0.9-5.2,2.1-7.4,3.3c-1.1,0.6-2.2,1.2-3.2,1.7c-1,0.6-1.9,1.1-2.7,1.6
				c-1.7,1-3,1.8-4,2.3c-1,0.5-1.6,0.7-1.8,0.5c-0.2-0.2,0.2-0.8,0.9-1.6c0.7-0.9,1.9-2,3.4-3.3c0.8-0.6,1.6-1.3,2.6-2
				c1-0.7,2-1.4,3.1-2.1c1.1-0.7,2.4-1.4,3.7-2.1c1.3-0.7,2.7-1.3,4.2-1.8c1.5-0.5,3-0.9,4.5-1.2c0.7-0.1,1.5-0.2,2.2-0.2
				c0.7,0,1.5,0,2.2,0c0.7,0,1.4,0.1,2.1,0.2c0.7,0.1,1.3,0.3,1.9,0.5c1.2,0.4,2.3,0.9,3.2,1.4c0.9,0.6,1.7,1.1,2.3,1.7
				c0.3,0.3,0.6,0.6,0.8,0.8c0.1,0.1,0.2,0.3,0.3,0.4c0.1,0.1,0.2,0.3,0.3,0.4c0,0.1,0.1,0.1,0.1,0.2c0,0.1,0.1,0.1,0.1,0.2
				c0.1,0.1,0.1,0.2,0.2,0.3c0.1,0.2,0.2,0.4,0.3,0.5C397.2,10.4,397.2,10.6,397.1,10.7z"/>
			<path id="XMLID_1830_" d="M381.4,29.4c-0.6-0.2-1.1-0.4-1.7-0.5c0,0-0.1,0-0.2,0c-0.1,0-0.1,0-0.2-0.1c-0.3-0.1-0.5-0.1-0.8-0.2
				c-1.1-0.2-2.1-0.4-3.2-0.5c-1.8,0.2-3.5,0.5-5.3,0.5c-0.2,0.6-0.4,1.3-0.4,2c0,3.3,2.6,6,5.9,6.1c3.3,0,6-2.6,6.1-5.9
				c0-0.4,0-0.8-0.1-1.2C381.6,29.5,381.5,29.4,381.4,29.4z"/>
			<path id="XMLID_1829_" class="st0" d="M364.1,28"/>
			<path id="XMLID_1827_" d="M388.2,29.4c-0.1,0.1-0.2,0-0.4,0c-0.1,0-0.2-0.1-0.3-0.2c-0.1-0.1-0.2-0.2-0.4-0.2
				c-0.1-0.1-0.3-0.2-0.4-0.3c-0.2-0.1-0.3-0.2-0.5-0.4c-0.3-0.3-0.7-0.6-1.2-0.9c-0.9-0.7-1.9-1.4-3.2-2c-0.6-0.3-1.3-0.6-2-0.8
				c-0.4-0.1-0.7-0.2-1.1-0.3c-0.2,0-0.4-0.1-0.6-0.1c-0.1,0-0.2,0-0.3,0c-0.1,0-0.2,0-0.3,0c-1.5-0.1-3,0.2-4.4,0.6
				c-1.3,0.4-2.5,1-3.4,1.6c-1,0.5-1.7,1-2.3,1.4c-0.6,0.3-0.9,0.5-1,0.4c-0.1-0.1,0-0.5,0.4-1.1c0.4-0.6,1-1.3,1.9-2.1
				c0.9-0.8,2.1-1.6,3.6-2.3c0.4-0.2,0.8-0.3,1.2-0.4c0.4-0.1,0.8-0.2,1.3-0.3c0.9-0.2,1.8-0.2,2.8-0.2c0.1,0,0.2,0,0.4,0
				c0.1,0,0.2,0,0.4,0c0.2,0,0.5,0.1,0.7,0.1c0.5,0.1,0.9,0.2,1.4,0.4c0.9,0.3,1.7,0.7,2.4,1.1c1.4,0.8,2.5,1.8,3.3,2.7
				c0.4,0.4,0.7,0.9,1,1.3c0.1,0.2,0.3,0.4,0.4,0.5c0.1,0.2,0.2,0.3,0.3,0.5c0.1,0.1,0.1,0.3,0.2,0.4c0,0.1,0.1,0.2,0.1,0.3
				C388.3,29.2,388.3,29.3,388.2,29.4z"/>
			<path id="XMLID_1826_" class="st1" d="M327.3,91.6c4.9,5.7,12.6,9,20.3,8.4c7.6-0.7,13.3-6.1,18.7-11c0.7-0.6,0.5-1.6-0.1-2.2
				c-2.9-3-5.9-5.7-7.8-9.5c-2.2-4.2-6.6-4.7-10.5-2c-2.8,1.9-5.3-0.6-8-1.3c-1.8-0.4-3.6,0.7-4.9,2c-3.9,4.1-6.6,9.2-12.1,11.5
				c-0.5,0.2-1.3,0.8-0.8,1.5c0.9,0.9,2.3,0.4,3.3,1c-0.5-0.6-1.2-0.8-1.9-1.2c6.1-0.5,10.9-4,16.4-6.4c3-1.4,6.1-0.2,9.3-0.6
				c1.1-0.2,2.1-0.5,3.1-1c-1,0.7-1.1,2.1-0.1,2.7c3,1.9,5.1,4.9,8.6,5.3c-3,0.1-5.8-1.1-8.7-0.3c-2.7,0.7-5.5,2-8.3,1
				c-2.2-0.8-4.5-1.4-6.8-1.4c-3.1,0-6.3,0.3-9.4,0.2c-0.7-0.1-1.5,0.2-2,0.8c-0.3,0.4,0,1,0.4,1.4c0.7,0.7,1.2,1.3,2.1,1.7"/>
			<path id="XMLID_1825_" d="M351.7,73.3c0,0.1-0.3,0.4-1.1,1c-0.4,0.3-0.8,0.6-1.4,1c-0.3,0.2-0.6,0.3-0.9,0.5
				c-0.3,0.2-0.7,0.3-1.2,0.4c-0.2,0.1-0.4,0.1-0.7,0.1c-0.2,0-0.5,0-0.7,0c-0.3,0-0.5-0.1-0.8-0.2c-0.2-0.1-0.5-0.2-0.7-0.4
				c-0.1-0.1-0.2-0.1-0.3-0.2c-0.1-0.1-0.2-0.1-0.3-0.2c-0.1,0-0.1-0.1-0.2-0.1c0,0-0.1-0.1-0.1-0.1c-0.1,0-0.1-0.1-0.1-0.1
				c-0.1,0-0.1-0.1-0.2-0.1c-0.4-0.2-0.9-0.4-1.3-0.5c-1-0.2-2-0.1-3,0.3c-0.5,0.2-1,0.4-1.5,0.7c-0.5,0.3-1,0.6-1.4,1
				c-0.2,0.2-0.4,0.4-0.6,0.6c-0.2,0.2-0.4,0.4-0.6,0.7c-0.4,0.5-0.8,0.9-1.2,1.4c-0.8,0.9-1.5,1.8-2.2,2.6
				c-0.7,0.8-1.4,1.5-2.2,2.2c-0.4,0.3-0.7,0.7-1.1,0.9c-0.1,0.1-0.2,0.2-0.2,0.2c0,0-0.1,0.1-0.1,0.1c0,0-0.1,0.1-0.1,0.1
				c-0.2,0.1-0.3,0.3-0.5,0.4c-0.2,0.1-0.3,0.2-0.5,0.4c-0.2,0.1-0.3,0.2-0.5,0.3c-0.3,0.2-0.6,0.4-0.9,0.6
				c-0.3,0.2-0.6,0.3-0.8,0.4c-0.1,0.1-0.2,0.1-0.4,0.2c-0.1,0.1-0.2,0.1-0.3,0.2c-0.1,0-0.2,0.1-0.3,0.1c-0.1,0-0.2,0.1-0.3,0.1
				c-0.2,0.1-0.3,0.1-0.4,0.1c-0.2,0.1-0.4,0.1-0.4,0.1c0,0,0.1-0.1,0.3-0.3c0.1-0.1,0.2-0.2,0.4-0.2c0.1,0,0.2-0.1,0.2-0.1
				c0.1-0.1,0.2-0.1,0.3-0.2c0.1-0.1,0.2-0.1,0.3-0.2c0.1-0.1,0.2-0.1,0.3-0.2c0.2-0.2,0.5-0.3,0.7-0.5c0.3-0.2,0.5-0.4,0.8-0.6
				c0.1-0.1,0.3-0.2,0.4-0.4c0.1-0.1,0.3-0.2,0.4-0.4c0.1-0.1,0.3-0.3,0.5-0.4c0,0,0.1-0.1,0.1-0.1c0,0,0.1-0.1,0.1-0.1
				c0.1-0.1,0.2-0.1,0.2-0.2c0.3-0.3,0.6-0.6,1-1c0.7-0.7,1.3-1.4,2-2.2c0.7-0.8,1.4-1.7,2.1-2.6c0.4-0.5,0.8-0.9,1.1-1.4
				c0.2-0.2,0.4-0.5,0.6-0.7c0.2-0.2,0.5-0.5,0.7-0.7c0.5-0.4,1-0.8,1.6-1.1c0.6-0.3,1.1-0.6,1.7-0.8c1.2-0.4,2.5-0.5,3.6-0.2
				c0.6,0.1,1.1,0.3,1.6,0.6c0.1,0,0.1,0.1,0.2,0.1c0.1,0,0.1,0.1,0.2,0.1c0.1,0,0.1,0.1,0.2,0.1c0.1,0,0.1,0.1,0.2,0.1
				c0.1,0.1,0.2,0.1,0.3,0.2c0,0,0.1,0.1,0.1,0.1c0,0,0.1,0.1,0.1,0.1c0.3,0.3,0.7,0.4,1,0.5c0.2,0,0.4,0,0.6,0c0.2,0,0.4,0,0.6,0
				c0.4-0.1,0.7-0.2,1-0.3c0.3-0.1,0.6-0.3,0.9-0.4c0.6-0.3,1.1-0.5,1.5-0.8C351.1,73.4,351.6,73.2,351.7,73.3z"/>
			<path id="XMLID_1824_" d="M368.5,87.7c0,0.1-0.3,0-0.7-0.2c-0.2-0.1-0.4-0.2-0.7-0.4c-0.3-0.2-0.6-0.4-0.9-0.6
				c-0.1-0.1-0.2-0.1-0.2-0.2c-0.1-0.1-0.2-0.1-0.3-0.2c-0.2-0.1-0.3-0.3-0.5-0.4c-0.2-0.1-0.4-0.3-0.6-0.4
				c-0.2-0.2-0.4-0.3-0.6-0.5c-0.2-0.2-0.4-0.4-0.6-0.5c-0.2-0.2-0.4-0.4-0.6-0.6c-0.1-0.1-0.2-0.2-0.3-0.3c0-0.1-0.1-0.1-0.1-0.2
				c0-0.1-0.1-0.1-0.1-0.2c-0.2-0.2-0.4-0.4-0.6-0.7c-0.1-0.1-0.2-0.2-0.3-0.3c-0.1-0.1-0.2-0.2-0.3-0.3c-0.2-0.2-0.3-0.5-0.5-0.7
				c-0.2-0.2-0.3-0.5-0.5-0.7c-0.1-0.2-0.3-0.4-0.4-0.7c-0.1-0.1-0.1-0.2-0.2-0.3c0,0-0.1-0.1-0.1-0.1c0,0-0.1-0.1-0.1-0.1
				c-0.1-0.2-0.3-0.3-0.4-0.5c-0.3-0.3-0.6-0.6-0.8-0.8c-0.3-0.3-0.5-0.5-0.8-0.7c-0.2-0.2-0.4-0.4-0.5-0.6
				c-0.3-0.3-0.4-0.6-0.3-0.6c0.1-0.1,0.3,0.1,0.6,0.3c0.2,0.1,0.4,0.2,0.7,0.4c0.3,0.2,0.5,0.3,0.9,0.6c0.3,0.2,0.7,0.5,1,0.8
				c0.2,0.2,0.4,0.3,0.5,0.6c0,0,0.1,0.1,0.1,0.2c0,0.1,0.1,0.1,0.1,0.2c0.1,0.1,0.2,0.2,0.2,0.3c0.1,0.2,0.3,0.4,0.4,0.6
				c0.2,0.2,0.3,0.4,0.5,0.6c0.2,0.2,0.3,0.4,0.5,0.7c0.1,0.1,0.2,0.2,0.3,0.3c0.1,0.1,0.2,0.2,0.3,0.3c0.2,0.2,0.4,0.4,0.5,0.7
				c0,0,0.1,0.1,0.1,0.2c0,0.1,0.1,0.1,0.1,0.2c0.1,0.1,0.2,0.2,0.3,0.3c0.2,0.2,0.4,0.4,0.5,0.6c0.2,0.2,0.4,0.4,0.5,0.5
				c0.2,0.2,0.3,0.3,0.5,0.5c0.2,0.2,0.3,0.3,0.5,0.5c0.2,0.2,0.3,0.3,0.5,0.4c0.1,0.1,0.1,0.1,0.2,0.2c0.1,0.1,0.1,0.1,0.2,0.2
				c0.3,0.3,0.5,0.5,0.7,0.7c0.2,0.2,0.4,0.4,0.6,0.5C368.4,87.5,368.6,87.7,368.5,87.7z"/>
			<path id="XMLID_1820_" d="M351.7,81.1c0,0,0,0.1-0.1,0.2c0,0.1-0.1,0.1-0.2,0.2c0,0-0.1,0.1-0.1,0.1c0,0,0,0-0.1,0.1
				c0,0-0.1,0-0.1,0.1c-0.1,0-0.1,0.1-0.2,0.1c-0.1,0.1-0.1,0.1-0.2,0.2c-0.1,0.1-0.1,0.1-0.2,0.2c-0.1,0.1-0.2,0.1-0.3,0.2
				c-0.4,0.2-0.8,0.4-1.3,0.6c-0.5,0.2-1.1,0.3-1.7,0.3c-0.6,0.1-1.3,0.1-2,0c-0.7,0-1.4-0.1-2.2-0.3c-0.8-0.1-1.6-0.3-2.4-0.4
				l0.1-1.1c0.3,0,0.5-0.1,0.9-0.1c0.3,0,0.7-0.1,1.2-0.1l2.7,0.3l-2.6,0.8c-0.3,0.1-0.5,0.2-0.8,0.3c-0.1,0-0.3,0.1-0.4,0.1
				l-0.2,0.1l-0.2,0.1c-0.3,0.1-0.5,0.2-0.8,0.3l-0.2,0.1c-0.1,0-0.1,0-0.2,0.1c-0.1,0.1-0.3,0.1-0.4,0.2c-2.1,0.9-4,1.9-5.7,3
				c0,0-0.1,0.1-0.2,0.1c0,0-0.1,0.1-0.2,0.1c-0.1,0.1-0.2,0.1-0.3,0.2c-0.2,0.1-0.4,0.3-0.6,0.4c0,0-0.1,0.1-0.1,0.1l-0.1,0.1
				l-0.1,0.1c-0.1,0.1-0.2,0.1-0.3,0.2c-0.1,0.1-0.2,0.1-0.3,0.2c-0.1,0-0.2,0.1-0.3,0.2c-0.9,0.4-1.8,0.5-2.6,0.6
				c-0.8,0.1-1.5,0-2.1,0c-0.6,0-1.1-0.1-1.6-0.1c-0.9-0.1-1.3-0.2-1.3-0.2c0-0.1,0.5-0.2,1.3-0.2c0.4,0,0.9,0,1.6-0.1
				c0.6,0,1.3-0.1,2-0.2c0.7-0.1,1.5-0.3,2.2-0.6c0.1,0,0.2-0.1,0.3-0.1c0.1-0.1,0.2-0.1,0.3-0.2c0.1-0.1,0.2-0.1,0.3-0.2l0.1,0
				l0.1-0.1c0,0,0.1-0.1,0.1-0.1c0.2-0.1,0.4-0.3,0.6-0.4c0.1-0.1,0.2-0.2,0.3-0.2c0,0,0.1-0.1,0.2-0.1c0.1,0,0.1-0.1,0.2-0.1
				c0.2-0.1,0.4-0.3,0.6-0.4c0.2-0.1,0.4-0.3,0.7-0.4c0.2-0.1,0.5-0.3,0.7-0.4c0.1-0.1,0.2-0.1,0.4-0.2c0.1-0.1,0.2-0.1,0.4-0.2
				c0.5-0.3,1-0.5,1.5-0.8c0.3-0.1,0.5-0.2,0.8-0.4c0.3-0.1,0.5-0.2,0.8-0.3c0.1-0.1,0.3-0.1,0.4-0.2c0.1,0,0.1-0.1,0.2-0.1l0.2-0.1
				c0.3-0.1,0.6-0.2,0.9-0.3l0.2-0.1c0.1,0,0.1,0,0.2-0.1c0.1,0,0.3-0.1,0.4-0.1c0.3-0.1,0.6-0.2,0.8-0.3c0,0.4,0.1,0.8,0.1,1.2
				c-0.2,0-0.5,0-0.8,0c-0.3,0-0.7,0.1-1.1,0.1c0-0.4,0.1-0.8,0.1-1.1c0.8,0.2,1.6,0.3,2.3,0.5c0.7,0.1,1.4,0.3,2.1,0.3
				c0.7,0.1,1.3,0.1,1.9,0.1c0.6,0,1.1-0.1,1.6-0.2c0.5-0.1,0.9-0.2,1.2-0.4c0.1,0,0.2-0.1,0.2-0.1c0.1,0,0.2-0.1,0.2-0.1
				c0.1,0,0.1-0.1,0.2-0.1c0.1,0,0.1-0.1,0.2-0.1c0,0,0.1,0,0.1,0c0,0,0.1,0,0.1,0c0,0,0.1-0.1,0.1-0.1c0.1,0,0.2-0.1,0.2-0.1
				C351.6,81.1,351.7,81.1,351.7,81.1z"/>
			<path id="XMLID_1819_" d="M365.7,88.9c-0.1,0.1-0.4-0.1-1.1-0.2c-0.3,0-0.7,0-1.2,0.1c-0.2,0-0.5,0.1-0.7,0.2
				c-0.2,0.1-0.5,0.2-0.8,0.3l-0.7,0.4l0-0.8c0,0,0-0.1,0-0.1c0,0,0-0.1,0.1-0.1c0,0,0,0,0-0.1c0,0,0,0,0,0l0,0l0,0l0,0l0,0l0,0l0,0
				l0,0l0.3,0.2l0,0l0,0l0,0c0,0,0,0,0,0l0,0l0,0l0,0l0,0c0,0,0,0,0,0c0,0,0,0,0,0c0,0.2,0.1,0.3,0.1,0.5c-0.4,0-0.8,0-1.2,0
				c-0.4,0-0.9-0.1-1.3-0.3c-0.9-0.3-1.7-0.8-2.5-1.3c-0.6-0.4-1.1-0.8-1.5-1.2c-0.5-0.4-0.9-0.8-1.3-1.2c-0.4-0.4-0.8-0.7-1.2-1
				c-0.1-0.1-0.2-0.1-0.3-0.2c-0.1-0.1-0.2-0.1-0.3-0.2c-0.1-0.1-0.2-0.1-0.3-0.2c0,0,0,0,0,0c0,0,0,0-0.1,0c0,0-0.1-0.1-0.1-0.1
				c-0.4-0.2-0.7-0.4-0.9-0.6c-0.3-0.1-0.5-0.2-0.7-0.2c-0.2,0-0.3,0.1-0.4,0.1c0,0,0,0-0.1,0c0,0,0,0-0.1,0c0,0-0.1,0-0.1,0
				c0,0,0,0,0-0.1c0,0,0,0,0-0.1c0,0,0-0.1,0-0.1c0-0.1,0.1-0.1,0.2-0.2s0.2-0.1,0.3-0.2c0.3-0.1,0.6-0.1,1,0
				c0.4,0.1,0.7,0.3,1.1,0.5c0,0,0.1,0,0.1,0.1l0.1,0c0,0,0.1,0.1,0.1,0.1c0.1,0.1,0.2,0.1,0.3,0.2c0.1,0.1,0.2,0.1,0.3,0.2
				c0.1,0.1,0.2,0.1,0.3,0.2c0.4,0.3,0.9,0.6,1.3,1c0.4,0.3,0.9,0.7,1.4,1.1c0.5,0.4,0.9,0.8,1.5,1.1c0.7,0.5,1.5,0.9,2.2,1.2
				c0.4,0.1,0.7,0.2,1.1,0.3c0.4,0.1,0.7,0.1,1,0.1l0.5,0l0,0.5c0,0,0,0.1,0,0.1c0,0,0,0.1-0.1,0.1c0,0,0,0,0,0.1c0,0,0,0,0,0
				c0,0,0,0,0,0l0,0l0,0l0,0l0,0l0,0l0,0l0,0c0.1,0.1-0.5-0.4-0.2-0.2l0,0l0,0l0,0c0,0,0,0,0,0c0,0,0,0,0,0l0,0c0,0,0,0,0,0
				c0,0,0,0,0,0c-0.1-0.2-0.2-0.3-0.3-0.5c0.3-0.1,0.6-0.2,0.9-0.3c0.3-0.1,0.6-0.1,0.9-0.2c0.6,0,1,0,1.4,0.1
				c0.4,0.1,0.6,0.3,0.8,0.4C365.7,88.7,365.7,88.8,365.7,88.9z"/>
			<path id="XMLID_1818_" d="M360.8,92.3c0,0,0,0.1,0,0.4c0,0.1,0,0.1,0,0.2c0,0.1-0.1,0.1-0.1,0.2c-0.1,0.2-0.1,0.3-0.2,0.5
				c-0.1,0.1-0.1,0.2-0.2,0.3c-0.1,0.1-0.1,0.2-0.2,0.3c0,0.1-0.1,0.1-0.1,0.2c0,0.1-0.1,0.1-0.1,0.2c-0.1,0.1-0.2,0.2-0.3,0.4
				c-0.4,0.5-0.9,1-1.5,1.5c-1.2,1-2.9,1.9-4.8,2.5c-1.9,0.6-4.1,1-6.4,1.3c-0.3,0-0.6,0-0.9,0.1c-0.3,0-0.6,0-0.9,0
				c-0.3,0-0.6,0-0.9,0c-0.1,0-0.3,0-0.4,0c-0.1,0-0.3,0-0.4,0c-0.6,0-1.1-0.1-1.6-0.1c-0.3,0-0.5-0.1-0.8-0.1c-0.1,0-0.3,0-0.4-0.1
				c-0.1,0-0.3-0.1-0.4-0.1c-0.1,0-0.3-0.1-0.4-0.1c-0.1,0-0.2-0.1-0.4-0.1c-0.1,0-0.2-0.1-0.3-0.1c-0.1,0-0.2-0.1-0.4-0.1
				c-0.2-0.1-0.5-0.2-0.7-0.2c-0.1,0-0.1,0-0.2-0.1c-0.1,0-0.1,0-0.2-0.1c-0.1,0-0.2-0.1-0.3-0.1c-0.4-0.2-0.8-0.4-1.2-0.5
				c0,0-0.1,0-0.1-0.1c0,0-0.1,0-0.1-0.1c-0.1-0.1-0.2-0.1-0.3-0.2c-0.2-0.1-0.3-0.2-0.5-0.3c-0.2-0.1-0.3-0.2-0.5-0.3
				c-0.1,0-0.2-0.1-0.2-0.1c0,0-0.1,0-0.1-0.1c0,0-0.1-0.1-0.1-0.1c-0.1-0.1-0.3-0.2-0.4-0.3c-0.1-0.1-0.1-0.1-0.2-0.1
				c0,0-0.1-0.1-0.1-0.1c0,0-0.1,0-0.1-0.1c-0.2-0.2-0.4-0.4-0.6-0.5c-0.2-0.2-0.4-0.4-0.5-0.5c-0.1-0.1-0.1-0.2-0.2-0.2
				c-0.1-0.1-0.1-0.1-0.2-0.2c-0.1-0.1-0.2-0.2-0.3-0.3c-0.1-0.2-0.2-0.3-0.1-0.3c0,0,0.1,0,0.3,0.1c0.1,0.1,0.2,0.2,0.3,0.3
				c0.1,0,0.1,0.1,0.2,0.2c0.1,0.1,0.2,0.1,0.2,0.2c0.2,0.1,0.4,0.3,0.6,0.4c0.2,0.1,0.4,0.3,0.7,0.5c0,0,0.1,0,0.1,0.1
				c0,0,0.1,0,0.1,0.1c0.1,0,0.1,0.1,0.2,0.1c0.1,0.1,0.3,0.2,0.4,0.3c0,0,0.1,0,0.1,0.1c0,0,0.1,0,0.1,0.1c0.1,0,0.2,0.1,0.2,0.1
				c0.1,0.1,0.3,0.2,0.5,0.3c0.2,0.1,0.3,0.2,0.5,0.2c0.1,0,0.2,0.1,0.3,0.1c0,0,0.1,0,0.1,0.1c0.1,0,0.1,0,0.1,0.1
				c0.4,0.2,0.8,0.3,1.2,0.5c0.1,0,0.2,0.1,0.3,0.1c0.1,0,0.1,0,0.2,0.1c0.1,0,0.1,0,0.2,0c0.2,0.1,0.4,0.1,0.6,0.2
				c0.1,0,0.2,0.1,0.3,0.1c0.1,0,0.2,0.1,0.3,0.1c0.1,0,0.2,0.1,0.4,0.1c0.1,0,0.2,0,0.3,0.1c0.1,0,0.2,0,0.4,0.1
				c0.1,0,0.2,0,0.4,0.1c0.2,0,0.5,0.1,0.7,0.1c0.5,0.1,1,0.1,1.5,0.1c0.1,0,0.3,0,0.4,0c0.1,0,0.3,0,0.4,0c0.3,0,0.5,0,0.8,0
				c0.3,0,0.5,0,0.8-0.1c0.3,0,0.6,0,0.8-0.1c2.3-0.2,4.4-0.6,6.2-1.1c1.9-0.5,3.4-1.3,4.6-2.1c1.2-0.8,2-1.7,2.5-2.4
				c0.1-0.2,0.2-0.3,0.3-0.4c0-0.1,0.1-0.1,0.1-0.2c0-0.1,0.1-0.1,0.1-0.1C360.6,92.4,360.7,92.3,360.8,92.3z"/>
			<path id="XMLID_1817_" d="M362.4,88.5c0,0-0.1,0.1-0.3,0.2c0,0-0.1,0-0.2,0.1c-0.1,0-0.1,0-0.2,0.1c-0.1,0-0.3,0.1-0.5,0.1
				c-0.1,0-0.2,0-0.3,0.1c-0.1,0-0.2,0-0.4,0.1c-0.1,0-0.3,0-0.4,0c-0.1,0-0.3,0-0.4,0c-0.6,0-1.3,0-2-0.1c-0.7-0.1-1.5-0.2-2.3-0.4
				c-0.2,0-0.4-0.1-0.6-0.1c-0.1,0-0.2,0-0.3-0.1c-0.1,0-0.1,0-0.2,0c-0.1,0-0.1,0-0.2,0l-0.1,0l-0.1,0c0,0-0.1,0-0.1,0
				c-0.1,0-0.1,0-0.1,0c0,0-0.1,0-0.1,0c-0.2,0-0.4,0-0.6,0c0,0-0.1,0-0.1,0l0,0l0,0l-0.1,0c-0.1,0-0.2,0-0.4,0.1
				c-0.1,0-0.2,0-0.4,0.1c-0.1,0-0.1,0-0.2,0c-0.1,0-0.1,0-0.2,0c-0.3,0-0.5,0.1-0.8,0.1c-0.3,0-0.5,0.1-0.8,0.1
				c-1.1,0.1-2.1,0.1-3.3,0.1c-1.1,0-2.2-0.1-3.2-0.2c-1-0.1-2-0.2-3-0.4c-0.9-0.1-1.8-0.2-2.7-0.3c-0.4,0-0.8-0.1-1.2-0.1
				c-0.2,0-0.4,0-0.5,0c0,0-0.1,0-0.1,0c0,0-0.1,0-0.1,0c-0.1,0-0.2,0-0.3,0c-0.1,0-0.2,0-0.3,0c-0.1,0-0.2,0-0.3,0
				c-0.2,0-0.3,0-0.5,0c-0.2,0-0.3,0-0.5,0.1c-0.1,0-0.1,0-0.2,0c-0.1,0-0.1,0-0.2,0c-0.3,0-0.5,0.1-0.8,0.1
				c-0.2,0.1-0.4,0.1-0.6,0.1c-0.2,0.1-0.4,0.1-0.5,0.1c-0.1,0-0.3,0.1-0.4,0.1c-0.2,0.1-0.3,0.1-0.3,0c0,0,0.1-0.1,0.2-0.2
				c0.1-0.1,0.2-0.1,0.3-0.2c0.1-0.1,0.3-0.2,0.5-0.3c0.2-0.1,0.4-0.2,0.6-0.3c0.2-0.1,0.5-0.2,0.8-0.2c0.1,0,0.1,0,0.2-0.1
				c0.1,0,0.1,0,0.2,0c0.2,0,0.3-0.1,0.5-0.1c0.2,0,0.3,0,0.5-0.1c0.1,0,0.2,0,0.3,0c0.1,0,0.2,0,0.3,0c0.1,0,0.2,0,0.3,0
				c0.1,0,0.1,0,0.1,0c0,0,0.1,0,0.2,0c0.2,0,0.4,0,0.6,0c0.4,0,0.8,0,1.2,0.1c0.9,0.1,1.7,0.1,2.7,0.2c0.9,0.1,1.9,0.2,3,0.3
				c1,0.1,2.1,0.2,3.1,0.2c1.1,0,2.1,0,3.1,0c0.3,0,0.5,0,0.7-0.1c0.2,0,0.5-0.1,0.7-0.1c0.1,0,0.1,0,0.2,0c0.1,0,0.1,0,0.2,0
				c0.1,0,0.2,0,0.4-0.1c0.1,0,0.2,0,0.4-0.1l0.1,0l0,0l0,0c0.1,0,0.1,0,0.2,0c0.3,0,0.5,0,0.8,0c0.1,0,0.1,0,0.2,0
				c0.1,0,0.1,0,0.2,0c0.1,0,0.1,0,0.2,0l0.1,0l0.1,0c0.1,0,0.1,0,0.2,0c0.1,0,0.1,0,0.2,0c0.1,0,0.2,0.1,0.3,0.1
				c0.2,0.1,0.4,0.1,0.6,0.2c0.8,0.2,1.6,0.4,2.3,0.5c1.4,0.3,2.5,0.3,3.3,0.3c0.2,0,0.4,0,0.5,0c0.1,0,0.1,0,0.2,0
				c0.1,0,0.1,0,0.2,0C362.2,88.5,362.4,88.5,362.4,88.5z"/>
			<path id="XMLID_1742_" d="M388.4,24.4c0.2,0.1,0.2,0.3,0.2,0.6c0,0.3-0.1,0.7-0.3,1.2c-0.2,0.5-0.6,1-1,1.5
				c-0.2,0.3-0.5,0.5-0.8,0.8c-0.3,0.2-0.6,0.5-0.9,0.7c-0.7,0.4-1.4,0.7-2.1,0.9c-0.7,0.2-1.3,0.2-1.9,0.2c-0.5,0-1-0.2-1.2-0.3
				c-0.3-0.2-0.4-0.3-0.4-0.5c0-0.2,0.2-0.3,0.4-0.5c0.2-0.1,0.6-0.3,1-0.4c0.8-0.3,1.8-0.8,2.9-1.5c0.3-0.2,0.5-0.3,0.8-0.5
				c0.2-0.2,0.5-0.3,0.7-0.5c0.4-0.3,0.8-0.7,1.2-0.9c0.3-0.3,0.6-0.5,0.9-0.6C388,24.4,388.3,24.3,388.4,24.4z"/>
			<path id="XMLID_1649_" d="M391.9,25.4c0.1,0.1,0.1,0.3,0,0.7c-0.1,0.2-0.1,0.4-0.2,0.6c-0.1,0.1-0.1,0.2-0.2,0.3
				c0,0.1-0.1,0.1-0.1,0.2c0,0.1-0.1,0.1-0.1,0.2c-0.2,0.2-0.4,0.5-0.6,0.8c-0.1,0.1-0.2,0.3-0.4,0.4c-0.1,0.1-0.3,0.3-0.4,0.4
				c-0.6,0.5-1.3,1.1-2.1,1.5c-0.8,0.5-1.6,0.8-2.4,1c-0.2,0-0.4,0.1-0.6,0.1c0,0-0.1,0-0.1,0c0,0-0.1,0-0.1,0c-0.1,0-0.2,0-0.3,0
				c-0.1,0-0.2,0-0.3,0c-0.1,0-0.2,0-0.3,0c-0.2,0-0.3,0-0.5,0c-0.1,0-0.2,0-0.2,0c-0.1,0-0.1,0-0.2,0c-0.1,0-0.3,0-0.4-0.1
				c-0.1,0-0.2-0.1-0.3-0.1c-0.1,0-0.2-0.1-0.3-0.1c-0.3-0.2-0.5-0.3-0.5-0.5c0-0.2,0.2-0.3,0.5-0.5c0.1,0,0.2-0.1,0.2-0.1
				c0.1,0,0.2-0.1,0.3-0.1c0.1,0,0.2-0.1,0.3-0.1c0.1,0,0.1,0,0.2-0.1c0.1,0,0.1,0,0.2-0.1c0.1,0,0.2-0.1,0.4-0.1
				c0.1,0,0.1,0,0.2-0.1c0.1,0,0.1-0.1,0.2-0.1c0.1,0,0.1,0,0.2-0.1c0,0,0.1,0,0.1,0c0,0,0.1,0,0.1,0c0.1-0.1,0.3-0.1,0.4-0.2
				c0.6-0.3,1.2-0.6,1.9-0.9c0.7-0.4,1.3-0.8,1.8-1.1c0.1-0.1,0.3-0.2,0.4-0.3c0.1-0.1,0.3-0.2,0.4-0.3c0.3-0.2,0.5-0.3,0.7-0.5
				c0.1,0,0.1-0.1,0.2-0.1c0.1,0,0.1-0.1,0.2-0.1c0.1-0.1,0.2-0.1,0.3-0.2c0.2-0.1,0.4-0.2,0.5-0.3
				C391.5,25.4,391.7,25.3,391.9,25.4z"/>
			<path id="XMLID_1648_" d="M382,37.1c0,0.3-2.9,0.4-6.3,0.1c-3.5-0.3-6.2-0.7-6.2-1.1c0-0.3,2.9-0.4,6.3-0.1
				C379.2,36.3,382,36.8,382,37.1z"/>
			<path id="XMLID_444_" class="st2" d="M380.1,32.4c0,0.8-0.7,1.5-1.5,1.5c-0.8,0-1.5-0.7-1.5-1.5c0-0.8,0.7-1.5,1.5-1.5
				C379.4,30.9,380.1,31.6,380.1,32.4z"/>
		</g>
	</g>
	<g id="XMLID_1_">
		<g id="XMLID_125_">
			<path id="XMLID_138_" d="M72.1,117h11.7v1.2l-2.9,0.6v15c0,1.3,0,2.1,0,2.4c0,0.3,0,0.5-0.1,0.6c-0.2,0.6-0.4,1.2-0.7,1.8
				c-0.3,0.6-0.7,1.2-1.1,1.8c-0.8,1-1.6,1.9-2.5,2.8c-0.9,0.9-1.9,1.7-3,2.5l-0.9-0.6c0.9-1,1.5-2,1.9-3.2c0.4-1.2,0.6-2.9,0.6-5.3
				v-0.7v-17.1l-2.9-0.6V117z"/>
			<path id="XMLID_136_" d="M98.7,117h11.7v1.2l-2.9,0.6v15c0,1.3,0,2.1,0,2.4c0,0.3,0,0.5-0.1,0.6c-0.2,0.6-0.4,1.2-0.7,1.8
				c-0.3,0.6-0.7,1.2-1.1,1.8c-0.8,1-1.6,1.9-2.5,2.8c-0.9,0.9-1.9,1.7-3,2.5l-0.9-0.6c0.9-1,1.5-2,1.9-3.2c0.4-1.2,0.6-2.9,0.6-5.3
				v-0.7v-17.1l-2.9-0.6V117z"/>
			<path id="XMLID_134_" d="M142.7,136.5h8.6l1.5-4.9l1.1,0.3l-0.9,7H134v-1.2l2.9-0.6v-18.3l-2.9-0.6V117h11.9v1.2l-3.2,0.6V136.5z
				"/>
			<path id="XMLID_131_" d="M157.2,138.9v-1.2l2.7-0.6l7.9-20.1h3.7l7.6,20.1l2.7,0.6v1.2H170v-1.2l2.9-0.6l-1.4-4.2h-6.9l-1.5,4.2
				l2.9,0.6v1.2H157.2z M165.5,130.5h5.3l-2.5-7.9L165.5,130.5z"/>
			<path id="XMLID_128_" d="M184.5,138.9v-1.2l2.9-0.6v-18.3l-2.9-0.6V117H197c2.1,0,3.7,0.1,4.9,0.4c1.1,0.3,2.1,0.8,3,1.4
				c1.2,0.9,2.1,2.1,2.8,3.6c0.6,1.5,0.9,3.1,0.9,4.9c0,1.8-0.3,3.5-1,5.1c-0.7,1.5-1.7,2.8-3,3.9c-1.1,0.9-2.3,1.6-3.6,2
				c-1.3,0.4-2.9,0.6-4.8,0.6H184.5z M193.2,136.3c0.5,0.2,1.1,0.3,1.6,0.4s1,0.1,1.5,0.1c2,0,3.5-0.6,4.7-1.9
				c1.1-1.3,1.7-3,1.7-5.2c0-3.3-0.8-5.9-2.5-7.9c-1.7-2-4-3.1-6.9-3.3V136.3z"/>
			<path id="XMLID_126_" d="M215.7,138.9v-1.2l3.7-0.6v-7.3l-6.3-11l-2.8-0.6V117H222v1.2l-2.6,0.6l4.2,8.4l4.6-8.4l-2.8-0.6V117
				h8.8v1.2l-2.8,0.6l-6.3,11v7.3l3.7,0.6v1.2H215.7z"/>
		</g>
	</g>
</g>
</svg>
