<?xml version="1.0" encoding="utf-8"?>
<!-- Generator: Adobe Illustrator 23.0.5, SVG Export Plug-In . SVG Version: 6.00 Build 0)  -->
<svg version="1.1" id="Capa_1" xmlns="http://www.w3.org/2000/svg" xmlns:xlink="http://www.w3.org/1999/xlink" x="0px" y="0px"
	 viewBox="0 0 483 512" style="enable-background:new 0 0 483 512;" xml:space="preserve">
<style type="text/css">
	.st0{fill:#919191;stroke:#FFFFFF;stroke-width:4;stroke-miterlimit:10;}
	.st1{fill:#919191;}
</style>
<g>
	<g>
		<path class="st0" d="M269.1,432.8H119c-9.2,0-16.7-7.5-16.7-16.7V116c0-9.2,7.5-16.7,16.7-16.7h150.1c9.2,0,16.7-7.5,16.7-16.7
			S278.3,66,269.1,66H119c-27.6,0-50,22.4-50,50v300.1c0,27.6,22.4,50,50,50h150.1c9.2,0,16.7-7.5,16.7-16.7
			S278.3,432.8,269.1,432.8z"/>
	</g>
</g>
<g>
	<g>
		<path class="st1" d="M442,254.2l-101.4-100c-6.5-6.5-17.1-6.4-23.6,0.2c-6.5,6.6-6.4,17.1,0.2,23.6l72.5,71.5H195.5
			c-9.2,0-16.7,7.5-16.7,16.7c0,9.2,7.5,16.7,16.7,16.7h194.1l-72.5,71.5c-6.6,6.5-6.6,17-0.2,23.6c3.3,3.3,7.6,5,11.9,5
			c4.2,0,8.5-1.6,11.7-4.8l101.4-100c3.2-3.1,5-7.4,5-11.9C447,261.6,445.2,257.3,442,254.2z"/>
	</g>
</g>
</svg>
