<?xml version="1.0" encoding="utf-8"?>
<!-- Generator: Adobe Illustrator 23.0.5, SVG Export Plug-In . SVG Version: 6.00 Build 0)  -->
<svg version="1.1" id="Layer_1" xmlns="http://www.w3.org/2000/svg" xmlns:xlink="http://www.w3.org/1999/xlink" x="0px" y="0px"
	 viewBox="0 0 50 50" style="enable-background:new 0 0 50 50;" xml:space="preserve">
<style type="text/css">
	.st0{fill:#F2F2F2;}
	.st1{fill:#A5A5A5;}
</style>
<rect x="0.1" y="-0.1" class="st0" width="49.9" height="49.9"/>
<g>
	<g>
		<path class="st1" d="M34.9,35.7h-20l0-0.5c0.2-3,2.6-4,4.5-4.8c1.2-0.5,2.2-0.9,2.5-1.6c0.1-0.5,0.1-0.9,0-1.4c0-0.1,0-0.2,0-0.3
			c-0.4-0.4-0.9-1.4-1.1-2.3c-0.3-0.2-0.7-0.6-0.9-1.7c0-0.6,0.1-1,0.3-1.3c-0.6-2.6-0.4-4.5,0.5-5.8c0.8-1.1,2.2-1.6,4-1.7
			c0,0,0,0,0,0c1.2,0,2.1,0.3,2.6,0.9c0.9,0.2,1.5,0.6,1.9,1.3c0.9,1.5,0.5,3.8,0.1,5.2c0.2,0.3,0.4,0.7,0.3,1.2
			c-0.1,1.1-0.6,1.6-0.9,1.7c-0.2,0.9-0.6,1.8-1.1,2.3c0,0.6,0,1.1,0,1.8c0.3,0.7,1.3,1.1,2.5,1.6c2,0.8,4.4,1.7,4.5,4.8L34.9,35.7z
			 M16,34.7h17.8c-0.4-2-2.1-2.7-3.9-3.4c-1.4-0.5-2.6-1-3.1-2.2l0-0.1c-0.1-0.8-0.1-1.4-0.1-2.1v-0.3l0.3-0.1
			c0.2-0.1,0.8-1.1,0.9-2.1L28,24h0.4c0.1,0,0.3-0.2,0.4-0.9c0-0.4-0.1-0.5-0.1-0.6l-0.4-0.2l0.2-0.4c0.4-1.2,0.8-3.4,0.1-4.6
			c-0.3-0.5-0.8-0.8-1.4-0.9l-0.2,0l-0.1-0.2c-0.2-0.4-0.9-0.7-1.9-0.7c-1.5,0-2.6,0.5-3.2,1.3c-0.8,1.1-0.9,2.8-0.3,5.2l0.1,0.3
			l-0.3,0.2l0,0c0,0-0.2,0.2-0.2,0.6c0.1,0.7,0.3,0.9,0.4,0.9h0.5l0,0.4c0.1,0.9,0.7,1.9,0.9,2.1l0.2,0.1l0,0.3c0,0.2,0,0.4,0,0.5
			c0,0.5,0,1-0.1,1.6l0,0.1c-0.4,1.2-1.7,1.7-3,2.2C18.1,32,16.4,32.7,16,34.7z"/>
		<path class="st1" d="M35,35.8H14.8l0-0.7c0.2-3.1,2.6-4.1,4.6-4.9c1.1-0.5,2.1-0.8,2.4-1.5c0.1-0.5,0.1-0.9,0-1.4l0-0.3
			c-0.5-0.5-0.9-1.4-1.1-2.3c-0.3-0.2-0.8-0.7-0.9-1.8c-0.1-0.6,0.2-1.1,0.3-1.3c-0.6-2.6-0.4-4.5,0.6-5.8c0.8-1.1,2.2-1.7,4.1-1.7
			c1.2,0,2.2,0.3,2.7,1c0.9,0.2,1.5,0.6,2,1.4c0.8,1.4,0.6,3.6,0.1,5.2c0.2,0.2,0.4,0.7,0.3,1.3c-0.1,1.1-0.5,1.6-0.9,1.8
			c-0.2,0.8-0.6,1.8-1.1,2.2c0,0.5,0,1,0,1.7c0.3,0.6,1.3,1,2.4,1.5c2,0.8,4.5,1.8,4.6,4.9L35,35.8z M15,35.6h19.7l0-0.4
			c-0.2-3-2.5-3.9-4.5-4.7c-1.2-0.5-2.2-0.9-2.6-1.6l0,0c0-0.7,0-1.2,0-1.8v0l0,0c0.4-0.4,0.9-1.4,1.1-2.2l0-0.1l0.1,0
			c0.3-0.2,0.7-0.6,0.8-1.6c0-0.6-0.1-0.9-0.3-1.2l0-0.1l0-0.1c0.5-1.6,0.7-3.7-0.1-5.1c-0.4-0.7-1-1.1-1.8-1.3l0,0l0,0
			c-0.5-0.6-1.3-0.9-2.5-0.9c-1.8,0-3.1,0.6-3.9,1.6c-0.9,1.2-1.1,3.1-0.5,5.7l0,0.1l0,0c-0.1,0.2-0.4,0.6-0.3,1.2
			c0.1,1,0.5,1.4,0.8,1.6l0.1,0l0,0.1c0.2,0.9,0.7,1.8,1.1,2.2l0,0l0,0.4c0,0.5,0,0.9,0,1.4l0,0c-0.3,0.8-1.3,1.2-2.5,1.6
			c-1.9,0.8-4.3,1.7-4.5,4.6L15,35.6z M34,34.9H15.8l0-0.1c0.4-2,2.2-2.8,3.9-3.5c1.3-0.5,2.6-1,3-2.1l0-0.1
			c0.1-0.6,0.1-1.1,0.1-1.6l0-0.1c0-0.2,0-0.3,0-0.5l0-0.2l-0.2-0.1c-0.2-0.2-0.9-1.2-1-2.2l0-0.3l-0.4,0c-0.1,0-0.4-0.3-0.5-1
			c0-0.5,0.2-0.7,0.2-0.7l0.2-0.2l-0.1-0.3c-0.6-2.4-0.5-4.2,0.3-5.3c0.6-0.8,1.8-1.3,3.3-1.3c1,0,1.7,0.3,2,0.7l0.1,0.2l0.2,0
			c0.7,0.1,1.2,0.4,1.5,0.9c0.7,1.2,0.4,3.5-0.1,4.7l-0.1,0.3l0.3,0.1c0.1,0.1,0.2,0.3,0.2,0.7c-0.1,0.8-0.3,1-0.5,1.1l-0.3,0l0,0.3
			c-0.1,1-0.7,2-1,2.2l-0.2,0.1v0.2c0,0.8,0,1.3,0.1,2.1l0,0.1c0.4,1.1,1.7,1.6,3,2.1c1.8,0.7,3.6,1.4,3.9,3.5L34,34.9z M16.1,34.6
			h17.5c-0.4-1.8-2.1-2.5-3.7-3.1c-1.4-0.5-2.7-1.1-3.2-2.3l0-0.2c-0.1-0.8-0.1-1.4-0.1-2.2v-0.4l0.3-0.2c0.1-0.1,0.7-1.1,0.8-2
			l0.1-0.5h0.5c0.1-0.1,0.2-0.3,0.3-0.8c0-0.3-0.1-0.5-0.1-0.5l-0.5-0.2l0.2-0.5c0.4-1.2,0.8-3.4,0.1-4.5c-0.3-0.5-0.7-0.7-1.3-0.8
			l-0.3,0l-0.2-0.3c-0.2-0.4-0.9-0.6-1.8-0.6c-1.5,0-2.5,0.4-3.1,1.2c-0.8,1-0.9,2.7-0.3,5.1l0.1,0.4l-0.4,0.2l0,0
			c0,0-0.2,0.1-0.1,0.5c0.1,0.5,0.2,0.8,0.3,0.8h0.5l0,0.6c0.1,0.9,0.7,1.9,0.9,2l0.3,0.2l0,0.3c0,0.2,0,0.3,0,0.5l0,0
			c0,0.5,0,1-0.1,1.6l0,0.1c-0.4,1.2-1.7,1.8-3.1,2.3C18.2,32.1,16.6,32.8,16.1,34.6z"/>
	</g>
</g>
</svg>
