<?xml version="1.0" encoding="utf-8"?>
<!-- Generator: Adobe Illustrator 23.0.5, SVG Export Plug-In . SVG Version: 6.00 Build 0)  -->
<svg version="1.1" id="Layer_1" xmlns="http://www.w3.org/2000/svg" xmlns:xlink="http://www.w3.org/1999/xlink" x="0px" y="0px"
	 viewBox="0 0 50 50" style="enable-background:new 0 0 50 50;" xml:space="preserve">
<style type="text/css">
	.st0{fill:none;stroke:#919191;stroke-width:2.5;stroke-linecap:round;stroke-miterlimit:10;}
</style>
<path class="st0" d="M30.9,32.5c-0.1-1.6-0.1-2.7-0.1-4.2c0.7-0.4,2-2.8,2.3-4.9c0.6,0,1.5-0.6,1.7-2.8c0.1-1.2-0.4-1.9-0.8-2.1
	C35,15.7,36.9,7,30.5,6.1c-0.7-1.2-2.4-1.8-4.6-1.8c-8.9,0.2-9.9,6.7-8,14.2c-0.3,0.2-0.9,0.9-0.8,2.1c0.3,2.2,1.2,2.8,1.7,2.8
	c0.2,2.1,1.6,4.5,2.3,4.9c0,1.5,0.1,2.6-0.1,4.2C19.4,37.2,7.5,35.9,7,45h38C44.5,35.9,32.7,37.2,30.9,32.5z"/>
</svg>
