<?xml version="1.0" encoding="utf-8"?>
<!-- Generator: Adobe Illustrator 23.0.5, SVG Export Plug-In . SVG Version: 6.00 Build 0)  -->
<svg version="1.1" id="圖層_1" xmlns="http://www.w3.org/2000/svg" xmlns:xlink="http://www.w3.org/1999/xlink" x="0px" y="0px"
	 viewBox="0 0 134.3 43.1" style="enable-background:new 0 0 134.3 43.1;" xml:space="preserve">
<style type="text/css">
	.st0{fill:#FFFFFF;}
</style>
<g>
	<g>
		<path class="st0" d="M14.9,36.2c-8,0-14.5-6.5-14.5-14.5S6.9,7.2,14.9,7.2s14.5,6.5,14.5,14.5S22.9,36.2,14.9,36.2z M14.9,8.2
			c-7.4,0-13.5,6.1-13.5,13.5s6.1,13.5,13.5,13.5s13.5-6.1,13.5-13.5S22.3,8.2,14.9,8.2z"/>
	</g>
	<g>
		<polygon class="st0" points="5.9,13.7 12.6,14.7 12.6,32.6 5.9,42.7 14.7,32.7 14.7,13.7 		"/>
	</g>
	<g>
		<polygon class="st0" points="23.9,0.7 15.7,10.9 15.7,30.4 23.5,31.1 17.4,29.2 17.3,11.1 		"/>
	</g>
</g>
<g>
	<path class="st0" d="M44.5,23.6c-0.7,0.2-1.5,0.5-2.2,0.7v5.9c0,1-0.2,1.5-0.8,1.8c-0.6,0.3-1.4,0.4-2.8,0.4c0-0.5-0.3-1.3-0.5-1.8
		c0.8,0,1.6,0,1.9,0c0.3,0,0.4-0.1,0.4-0.4v-5.4c-0.8,0.3-1.6,0.5-2.3,0.7l-0.4-1.9c0.8-0.2,1.7-0.5,2.8-0.8v-4h-2.5v-1.8h2.5V13
		h1.8v4.1h2.1v1.8h-2.1v3.5l1.9-0.6L44.5,23.6z M51.7,24.9v1.6h4.7V28h-4.7v2.4c0.6,0.1,1.2,0.1,1.9,0.1c0.6,0,3.3,0,4.1,0
		c-0.2,0.4-0.5,1.2-0.6,1.7h-3.6c-3.1,0-5.3-0.6-6.9-2.8c-0.5,1.2-1.2,2.3-2,3.1c-0.3-0.3-1.1-0.9-1.5-1.1c1.6-1.4,2.4-3.6,2.8-6.2
		l1.8,0.2c-0.1,0.7-0.2,1.4-0.4,2c0.6,1.3,1.5,2.1,2.6,2.5v-5.1h-4.1v-1.5h4.1v-1.5h-5.4v-1.5h5.4V19h-4.1v-1.5h4.1v-1.2h-5v-1.6h5
		v-1.8h1.8v1.8h5.4v1.6h-5.4v1.2h4.5v2.8h1.4v1.5h-1.4v3H51.7z M51.7,20.3h2.7V19h-2.7V20.3z M51.7,23.3h2.7v-1.5h-2.7V23.3z"/>
	<path class="st0" d="M68.8,23.7c0,0.4,0,0.8,0,1.3h3.1v1.7h-3.3c-0.4,2.2-1.4,4.3-3.7,5.7C64.6,32,64,31.3,63.6,31
		c1.9-1,2.7-2.6,3-4.3h-3V25h3.2c0-0.4,0-0.9,0-1.3v-1h-2.6V21h2.6v-2.2h-3.1v-1.7h1.7c-0.2-0.9-0.8-2.3-1.2-3.4l1.6-0.6
		c0.5,1,1.1,2.4,1.3,3.3l-1.6,0.7h2.8c0.5-1.2,1-2.8,1.3-4.1l1.9,0.6c-0.5,1.2-1,2.5-1.5,3.5h1.6v1.7h-2.9V21h2.3v1.7h-2.3V23.7z
		 M78.2,13.6c-0.1,0.2-0.2,0.5-0.4,0.7c1.3,2.1,3.5,4.4,5.4,5.5c-0.4,0.4-1,1.1-1.3,1.6c-0.6-0.5-1.3-1-1.9-1.7v1.4h-5.9v-1.2
		c-0.5,0.6-1.1,1.2-1.8,1.7c-0.3-0.4-0.9-1.1-1.3-1.4c2.3-1.8,4.3-4.6,5.4-7.2L78.2,13.6z M82.2,23.6c-1,1.9-2.8,4.2-4.2,5.8
		c0.7,0.6,1.3,1.2,1.8,1.8l-1.4,1.2c-1-1.2-3.2-3.2-4.7-4.6l1.3-1.1c0.5,0.4,1.1,1,1.7,1.5c1-1,2.1-2.4,3-3.6h-7v-1.7h8l0.3-0.1
		L82.2,23.6z M79.7,19.4c-1-1.1-1.9-2.3-2.7-3.5c-0.7,1.2-1.6,2.5-2.5,3.5H79.7z"/>
	<path class="st0" d="M93.8,24.5c-0.2-0.6-0.6-1.5-1-2.3v10.2h-1.7v-9.2c-0.5,1.8-1.1,3.6-1.7,4.7c-0.1-0.6-0.5-1.5-0.8-2
		c1-1.6,2-4.6,2.5-7.2h-1.9V17h2.1v-4h1.7v4h1.6v1.8h-1.6V20c0.5,0.7,1.7,2.7,1.9,3.2L93.8,24.5z M106.9,26
		c-0.6,1.2-1.5,2.3-2.5,3.3c0.5,0.7,1.1,1.1,1.8,1.2c0.4,0,0.7-0.7,0.8-2.2c0.3,0.4,1,0.8,1.3,1c-0.4,2.5-1.2,3.2-2.1,3.2
		c-1.3-0.1-2.4-0.8-3.2-2c-1.1,0.8-2.2,1.4-3.5,1.9c-0.2-0.4-0.7-0.9-1-1.3c1.4-0.5,2.7-1.2,3.8-2.1c-0.4-1-0.8-2.2-1.1-3.7H98
		c0,0.2,0,0.4,0,0.7c1,0.8,2.2,1.8,2.8,2.4l-1.2,1.2c-0.4-0.5-1.1-1.2-1.9-1.8c-0.4,1.6-1.3,3.3-3,4.6c-0.3-0.3-1-1-1.3-1.2
		c2.5-1.8,2.9-4.1,3-5.9h-1.5v-1.5h6.1c-0.5-3-0.8-6.6-0.9-10.7h1.7c0.1,4.1,0.4,7.8,0.9,10.7h2.5c-0.5-0.4-1-0.8-1.5-1.1l0.9-0.8
		c-1,0.2-1.3,0.3-1.5,0.4c-0.1-0.3-0.3-1.1-0.5-1.4c0.3-0.1,0.7-0.4,1-1c0.2-0.3,0.7-0.9,1.1-1.7c-1.4,0.2-1.7,0.3-1.9,0.4
		c-0.1-0.3-0.3-1-0.5-1.4c0.3-0.1,0.5-0.3,0.7-0.7c0.2-0.4,1-1.8,1.4-3.2l1.5,0.4c-0.5,1.2-1.1,2.4-1.7,3.4l1.3-0.1
		c0.3-0.5,0.5-0.9,0.7-1.4l1.5,0.5c-0.9,1.7-1.9,3.3-3,4.6l1.7-0.2c-0.1-0.4-0.3-0.8-0.4-1.1l1.1-0.3c0.4,1,0.9,2.3,1.1,3.1
		l-1.2,0.4c-0.1-0.3-0.1-0.6-0.2-0.9c-0.8,0.1-1.4,0.2-1.9,0.3c0.7,0.4,1.5,1,1.9,1.4l-0.6,0.5h1.7v1.5h-4.9
		c0.2,0.9,0.5,1.8,0.8,2.4c0.7-0.7,1.2-1.5,1.6-2.4L106.9,26z M99.1,22.7c0-0.2-0.1-0.5-0.1-0.8c-2.8,0.4-3.3,0.5-3.6,0.7
		c-0.1-0.3-0.3-1-0.5-1.4c0.3-0.1,0.7-0.4,1.1-1c0.2-0.3,0.7-0.9,1.2-1.7c-1.4,0.2-1.8,0.3-2,0.4c-0.1-0.3-0.3-1-0.5-1.4
		c0.3-0.1,0.5-0.3,0.8-0.8c0.3-0.4,1.1-2,1.6-3.5l1.5,0.4c-0.6,1.3-1.3,2.6-2,3.7l1.3-0.1c0.3-0.4,0.5-0.9,0.7-1.4l1.4,0.5
		c-0.9,1.6-2,3.3-3.1,4.6l1.7-0.2c-0.1-0.4-0.3-0.8-0.4-1.2l1.2-0.3c0.4,1,0.8,2.3,1,3.1L99.1,22.7z"/>
	<path class="st0" d="M120,24.1c-0.2-0.5-0.7-1.4-1.1-2.2v10.5h-1.8v-8.3c-0.6,1.8-1.3,3.5-2,4.6c-0.2-0.5-0.6-1.4-1-1.9
		c1.2-1.7,2.4-4.8,3-7.5v-0.2h-2.4v-1.8h2.4V13h1.8v4.3h1.8v1.8h-1.8v0.5c0.5,0.6,1.8,2.5,2.1,3L120,24.1z M125.1,30.1v-5.3h-1.3
		c-0.1,2.5-0.6,5-2.3,7c-0.3-0.3-0.9-0.8-1.3-1c1.5-1.8,1.9-3.9,2.1-6h-1.1V23h1.2v-3.5h1.5V23h1.3v-3.5h1.5V23h1.1v1.7h-1.1v5.3
		H125.1z M133.4,20.4c-0.6,2.9-1.5,5.4-2.8,7.5c0.4,1.7,0.8,2.7,1.3,2.7c0.3,0,0.5-1,0.5-3c0.4,0.4,0.9,0.8,1.4,1
		c-0.3,2.9-0.8,3.8-2.1,3.8c-1,0-1.7-1-2.3-2.6c-0.8,1-1.7,1.8-2.6,2.5c-0.3-0.3-1-0.8-1.4-1.1c1.4-0.9,2.5-2,3.5-3.4
		c-0.6-2.4-0.8-5.6-1-9.1h-6.4v-1.8h6.4c0-1.3-0.1-2.6-0.1-3.9h1.8c0,1.3,0,2.6,0,3.9h4v1.8h-3.9c0.1,2.5,0.4,4.8,0.6,6.7
		c0.7-1.5,1.2-3.3,1.6-5.2L133.4,20.4z M131.7,16.5c-0.3-0.7-1.1-1.7-1.8-2.4l1.3-0.7c0.7,0.7,1.5,1.7,1.8,2.3L131.7,16.5z"/>
</g>
<g>
</g>
<g>
</g>
<g>
</g>
<g>
</g>
<g>
</g>
<g>
</g>
<g>
</g>
<g>
</g>
<g>
</g>
<g>
</g>
<g>
</g>
<g>
</g>
<g>
</g>
<g>
</g>
<g>
</g>
</svg>
