<?xml version="1.0" encoding="utf-8"?>
<!-- Generator: Adobe Illustrator 23.0.5, SVG Export Plug-In . SVG Version: 6.00 Build 0)  -->
<svg version="1.1" id="圖層_1" xmlns="http://www.w3.org/2000/svg" xmlns:xlink="http://www.w3.org/1999/xlink" x="0px" y="0px"
	 viewBox="0 0 216.2 58.5" style="enable-background:new 0 0 216.2 58.5;" xml:space="preserve">
<style type="text/css">
	.st0{fill:#00965B;stroke:#00965C;stroke-width:0.75;stroke-miterlimit:10;}
	.st1{fill:#231815;stroke:#231815;stroke-width:0.5;stroke-linecap:round;stroke-linejoin:round;stroke-miterlimit:10;}
	.st2{fill:#FFFFFF;stroke:#231815;stroke-width:0.5;stroke-linecap:round;stroke-linejoin:round;stroke-miterlimit:10;}
	.st3{fill:none;stroke:#00965C;stroke-miterlimit:10;}
	.st4{fill:#00965C;}
</style>
<g>
	<g>
		<path class="st0" d="M29.3,58c3.6,0,7.1-0.7,10.3-1.9H19C22.2,57.3,25.6,58,29.3,58z"/>
		<path class="st0" d="M34,49H8.4c0.9,0.9,1.9,1.8,2.9,2.6h28.4C37.7,51,35.8,50.1,34,49z"/>
		<g>
			<g id="LWPOLYLINE">
				<polygon class="st1" points="41.3,44.5 35.8,44.5 37.8,33.3 40.8,33.3 41.8,37.1 44.4,33.3 48.1,33.3 49.1,37.1 51.6,33.3 
					55.8,33.3 51.9,44.5 46.8,44.5 44.7,40.6 				"/>
			</g>
			<polygon class="st1" points="51.1,14.6 31.7,14.6 27.3,38.7 31,44.1 31.5,43.4 34.3,28.3 47.3,28.3 50.6,25.5 52.3,16 			"/>
			<path class="st2" d="M46.2,21.3c0,0.8-0.9,1.4-2,1.4h-6.3c-1.1,0-2-0.6-2-1.4l0,0c0-0.8,0.9-1.4,2-1.4h6.3
				C45.3,19.9,46.2,20.5,46.2,21.3L46.2,21.3z"/>
			<path class="st0" d="M17.6,3h23.4c-3.6-1.6-7.5-2.5-11.7-2.5C25.1,0.5,21.1,1.4,17.6,3z"/>
			<path class="st0" d="M38.3,7.3H10.7c0,0,0,0,0,0c-0.5,0.4-0.9,0.8-1.3,1.2c-0.1,0-0.1,0.1-0.2,0.1C8.8,9.1,8.3,9.5,7.9,10
				c0,0,0,0,0,0l25.4,0C34.8,8.9,36.5,8,38.3,7.3z"/>
			<path class="st0" d="M28.6,14.3H4.7c-0.5,0.9-1,1.7-1.4,2.6h23.4C27.3,16,27.9,15.1,28.6,14.3z"/>
			<path class="st0" d="M24.6,21.3h-23C1.4,22.1,1.2,23,1,23.9h22.8C24.1,23,24.3,22.1,24.6,21.3z"/>
			<path class="st0" d="M23.2,29.3c0-0.4,0-0.8,0-1.2H0.5c0,0.4,0,0.8,0,1.2c0,0.5,0,0.9,0,1.4h22.7C23.2,30.2,23.2,29.7,23.2,29.3z
				"/>
			<path class="st0" d="M23.9,35H1.1c0.2,0.9,0.4,1.8,0.7,2.6h23C24.4,36.8,24.2,35.9,23.9,35z"/>
			<path class="st0" d="M27,42H3.5c0.4,0.9,0.9,1.8,1.5,2.6h24C28.2,43.8,27.6,42.9,27,42z"/>
			<path class="st0" d="M46.7,5.7c-0.3,0-0.6,0-0.9,0c1.7,1.2,3.3,2.6,4.7,4.2h9.6C56.4,7.3,51.7,5.7,46.7,5.7z"/>
			<path class="st0" d="M64.8,14.3H53.7c0.6,0.9,1.2,1.7,1.7,2.6h11.2C66.1,16,65.4,15.1,64.8,14.3z"/>
			<path class="st0" d="M68.9,21.3h-12c0.2,0.9,0.5,1.7,0.6,2.6h12.1C69.4,23,69.2,22.1,68.9,21.3z"/>
			<path class="st0" d="M70.2,30.7c0-0.5,0-0.9,0-1.4c0-0.4,0-0.8,0-1.2H58c0,0.4,0,0.8,0,1.2c0,0.5,0,0.9,0,1.4H70.2z"/>
			<path class="st0" d="M69.5,35H57.4c-0.2,0.9-0.4,1.8-0.7,2.6h11.9C69,36.8,69.3,35.9,69.5,35z"/>
			<path class="st0" d="M55.2,41.6c-0.4,0.9-0.9,1.8-1.4,2.6h11.1c0.7-0.8,1.3-1.7,1.9-2.6H55.2z"/>
			<g id="CIRCLE_2_">
				<path class="st3" d="M70.2,29.3c0-13-10.5-23.5-23.5-23.5c-13,0-23.5,10.5-23.5,23.5c0,13,10.5,23.5,23.5,23.5
					C59.7,52.8,70.2,42.2,70.2,29.3L70.2,29.3z"/>
			</g>
			<path class="st0" d="M50.6,48.5c-0.8,0.9-1.8,1.8-2.7,2.6h6.4c2.1-0.7,4.1-1.6,5.9-2.6H50.6z"/>
			<g id="CIRCLE">
				<path class="st3" d="M58,29.3C58,13.4,45.1,0.5,29.3,0.5C13.4,0.5,0.5,13.4,0.5,29.3C0.5,45.1,13.4,58,29.3,58
					C45.1,58,58,45.1,58,29.3L58,29.3z"/>
			</g>
		</g>
	</g>
	<g>
		<path class="st4" d="M85.2,39.5c-0.2,0-0.3-0.1-0.4-0.2c-0.1-0.1-0.2-0.2-0.2-0.4V24c0-0.2,0.1-0.3,0.2-0.4
			c0.1-0.1,0.2-0.2,0.4-0.2h6.4c1.3,0,2.4,0.2,3.3,0.6s1.7,1,2.2,1.7s0.8,1.8,0.8,2.9c0,1.2-0.3,2.1-0.8,2.9
			c-0.5,0.8-1.3,1.3-2.2,1.7c-0.9,0.4-2,0.5-3.3,0.5h-2.7v5c0,0.2-0.1,0.3-0.2,0.4c-0.1,0.1-0.3,0.2-0.4,0.2H85.2z M88.8,30.7h2.7
			c0.7,0,1.2-0.2,1.6-0.5s0.6-0.8,0.6-1.5c0-0.6-0.2-1.1-0.5-1.5c-0.3-0.4-0.9-0.6-1.6-0.6h-2.7V30.7z"/>
		<path class="st4" d="M99.2,39.5c-0.1,0-0.2,0-0.3-0.1c-0.1-0.1-0.1-0.2-0.1-0.3c0-0.1,0-0.1,0-0.2l5.4-14.7c0-0.2,0.1-0.3,0.3-0.4
			c0.1-0.1,0.3-0.2,0.6-0.2h3.4c0.3,0,0.5,0.1,0.6,0.2c0.1,0.1,0.2,0.3,0.3,0.4l5.4,14.7c0,0.1,0,0.1,0,0.2c0,0.1,0,0.2-0.1,0.3
			s-0.2,0.1-0.4,0.1h-2.8c-0.2,0-0.4-0.1-0.5-0.2s-0.2-0.2-0.2-0.3l-0.9-2.3h-6.1l-0.9,2.3c0,0.1-0.1,0.2-0.2,0.3s-0.3,0.2-0.5,0.2
			H99.2z M104.5,33.4h4.3l-2.1-6L104.5,33.4z"/>
		<path class="st4" d="M117,39.5c-0.2,0-0.3-0.1-0.4-0.2c-0.1-0.1-0.2-0.2-0.2-0.4V24c0-0.2,0.1-0.3,0.2-0.4
			c0.1-0.1,0.2-0.2,0.4-0.2h2.4c0.3,0,0.4,0.1,0.6,0.2s0.2,0.2,0.2,0.3l5.6,8.8V24c0-0.2,0.1-0.3,0.2-0.4c0.1-0.1,0.2-0.2,0.4-0.2
			h2.7c0.2,0,0.3,0.1,0.4,0.2c0.1,0.1,0.2,0.2,0.2,0.4v14.8c0,0.2-0.1,0.3-0.2,0.4c-0.1,0.1-0.2,0.2-0.4,0.2h-2.4
			c-0.2,0-0.4-0.1-0.5-0.2s-0.2-0.2-0.2-0.3l-5.6-8.5v8.3c0,0.2-0.1,0.3-0.2,0.4s-0.2,0.2-0.4,0.2H117z"/>
		<path class="st4" d="M140.3,39.5c-0.3,0-0.5-0.1-0.6-0.2s-0.2-0.3-0.3-0.5l-2.5-14.6c0,0,0-0.1,0-0.1c0,0,0,0,0-0.1
			c0-0.1,0-0.2,0.1-0.3c0.1-0.1,0.2-0.1,0.3-0.1h2.8c0.4,0,0.7,0.2,0.7,0.5l1.5,8.9l1.6-5.3c0-0.1,0.1-0.3,0.2-0.4
			c0.1-0.1,0.3-0.2,0.5-0.2h1.6c0.3,0,0.4,0.1,0.5,0.2c0.1,0.1,0.2,0.3,0.2,0.4l1.6,5.3l1.5-8.9c0-0.3,0.3-0.5,0.7-0.5h2.8
			c0.1,0,0.3,0,0.4,0.1c0.1,0.1,0.1,0.2,0.1,0.3c0,0,0,0,0,0.1c0,0,0,0.1,0,0.1l-2.5,14.6c0,0.2-0.1,0.4-0.3,0.5
			c-0.2,0.2-0.4,0.2-0.6,0.2h-2.2c-0.3,0-0.5-0.1-0.6-0.2c-0.1-0.1-0.2-0.3-0.3-0.4l-2.3-6.5l-2.3,6.5c0,0.1-0.1,0.3-0.3,0.4
			c-0.1,0.1-0.3,0.2-0.6,0.2H140.3z"/>
		<path class="st4" d="M163.3,39.7c-1.4,0-2.6-0.2-3.7-0.7c-1-0.5-1.8-1.1-2.4-2.1s-0.9-2.1-1-3.5c0-0.7,0-1.3,0-2s0-1.3,0-2
			c0.1-1.4,0.4-2.5,1-3.5s1.4-1.6,2.4-2.1c1-0.5,2.3-0.7,3.6-0.7c1.4,0,2.6,0.2,3.6,0.7c1,0.5,1.9,1.2,2.4,2.1s0.9,2.1,1,3.5
			c0,0.7,0,1.3,0,2s0,1.3,0,2c0,1.4-0.4,2.5-0.9,3.5s-1.4,1.6-2.4,2.1C165.9,39.5,164.7,39.7,163.3,39.7z M163.3,36.4
			c0.8,0,1.5-0.2,2-0.7c0.5-0.5,0.8-1.3,0.8-2.3c0-0.7,0-1.3,0-1.9s0-1.2,0-1.9c0-0.7-0.2-1.3-0.4-1.7c-0.2-0.4-0.6-0.8-1-1
			c-0.4-0.2-0.9-0.3-1.4-0.3c-0.5,0-1,0.1-1.4,0.3c-0.4,0.2-0.7,0.5-1,1c-0.2,0.5-0.4,1-0.4,1.7c0,0.6,0,1.3,0,1.9s0,1.2,0,1.9
			c0,1.1,0.3,1.8,0.8,2.3C161.8,36.2,162.5,36.4,163.3,36.4z"/>
		<path class="st4" d="M173.6,39.5c-0.2,0-0.3-0.1-0.4-0.2c-0.1-0.1-0.2-0.2-0.2-0.4V24c0-0.2,0.1-0.3,0.2-0.4
			c0.1-0.1,0.2-0.2,0.4-0.2h6.2c2,0,3.5,0.5,4.7,1.4c1.1,0.9,1.7,2.2,1.7,3.9c0,1.1-0.3,2-0.8,2.7c-0.5,0.7-1.2,1.3-2.1,1.7l3.1,5.6
			c0,0.1,0.1,0.2,0.1,0.3c0,0.1,0,0.2-0.1,0.3c-0.1,0.1-0.2,0.1-0.3,0.1h-3c-0.3,0-0.5-0.1-0.6-0.2c-0.1-0.1-0.2-0.3-0.3-0.4l-2.6-5
			h-2.3v5.1c0,0.2-0.1,0.3-0.2,0.4s-0.3,0.2-0.4,0.2H173.6z M177.1,30.6h2.6c0.7,0,1.3-0.2,1.6-0.5c0.4-0.4,0.5-0.8,0.5-1.4
			s-0.2-1.1-0.5-1.4s-0.9-0.5-1.6-0.5h-2.6V30.6z"/>
		<path class="st4" d="M189.4,39.5c-0.2,0-0.3-0.1-0.4-0.2c-0.1-0.1-0.2-0.2-0.2-0.4V24c0-0.2,0.1-0.3,0.2-0.4
			c0.1-0.1,0.2-0.2,0.4-0.2h3c0.2,0,0.3,0.1,0.4,0.2c0.1,0.1,0.2,0.2,0.2,0.4v12h6.9c0.2,0,0.3,0.1,0.4,0.2s0.2,0.3,0.2,0.4v2.3
			c0,0.2-0.1,0.3-0.2,0.4s-0.2,0.2-0.4,0.2H189.4z"/>
		<path class="st4" d="M203,39.5c-0.2,0-0.3-0.1-0.4-0.2c-0.1-0.1-0.2-0.2-0.2-0.4V24c0-0.2,0.1-0.3,0.2-0.4
			c0.1-0.1,0.2-0.2,0.4-0.2h5.9c1.5,0,2.8,0.2,3.8,0.7s1.9,1.2,2.4,2.1c0.6,0.9,0.9,2.1,0.9,3.4c0,0.7,0,1.3,0,1.8s0,1.1,0,1.7
			c-0.1,1.4-0.4,2.6-0.9,3.5c-0.5,0.9-1.3,1.6-2.4,2.1c-1,0.5-2.3,0.7-3.8,0.7H203z M206.6,36.2h2.4c0.7,0,1.2-0.1,1.6-0.3
			c0.4-0.2,0.8-0.5,1-1c0.2-0.4,0.3-1,0.4-1.7c0-0.4,0-0.8,0.1-1.2c0-0.4,0-0.7,0-1.1c0-0.4,0-0.7-0.1-1.2c0-1-0.3-1.8-0.8-2.3
			c-0.5-0.5-1.3-0.7-2.3-0.7h-2.3V36.2z"/>
	</g>
</g>
<g>
</g>
<g>
</g>
<g>
</g>
<g>
</g>
<g>
</g>
<g>
</g>
<g>
</g>
<g>
</g>
<g>
</g>
<g>
</g>
<g>
</g>
<g>
</g>
<g>
</g>
<g>
</g>
<g>
</g>
</svg>
