<?xml version="1.0" encoding="utf-8"?>
<!-- Generator: Adobe Illustrator 23.0.5, SVG Export Plug-In . SVG Version: 6.00 Build 0)  -->
<svg version="1.1" id="圖層_1" xmlns="http://www.w3.org/2000/svg" xmlns:xlink="http://www.w3.org/1999/xlink" x="0px" y="0px"
	 viewBox="0 0 216.2 58.5" style="enable-background:new 0 0 216.2 58.5;" xml:space="preserve">
<style type="text/css">
	.st0{fill:#FFFFFF;}
</style>
<path class="st0" d="M56,33.2c0-0.1-0.1-0.1-0.2-0.1h-4.2c-0.1,0-0.2,0-0.2,0.1l-2.2,3.3l-0.9-3.3c0-0.1-0.1-0.2-0.2-0.2h-3.7
	c-0.1,0-0.2,0-0.2,0.1l-2.3,3.3L41,33.2c0-0.1-0.1-0.2-0.2-0.2h-3c-0.1,0-0.2,0.1-0.2,0.2l-2,11.2c0,0.1,0,0.1,0.1,0.2
	c0,0.1,0.1,0.1,0.2,0.1h5.5c0.1,0,0.1,0,0.2-0.1l3.2-3.6l1.9,3.6c0,0.1,0.1,0.1,0.2,0.1h5.1c0.1,0,0.2-0.1,0.2-0.2L56,33.4
	C56.1,33.3,56.1,33.2,56,33.2z"/>
<path class="st0" d="M52.5,15.8l-1.2-1.4c0-0.1-0.1-0.1-0.2-0.1H31.7c-0.1,0-0.2,0.1-0.2,0.2l-4.4,24.1c0,0.1,0,0.1,0,0.2l3.7,5.4
	c0,0.1,0.1,0.1,0.2,0.1c0.1,0,0.2,0,0.2-0.1l0.5-0.7c0,0,0-0.1,0-0.1l2.8-14.9h12.8c0.1,0,0.1,0,0.2-0.1l3.3-2.8
	c0,0,0.1-0.1,0.1-0.1l1.7-9.5C52.6,16,52.5,15.9,52.5,15.8z M44.2,22.7h-6.3c-1.1,0-2-0.6-2-1.4s0.9-1.4,2-1.4h6.3
	c1.1,0,2,0.6,2,1.4S45.3,22.7,44.2,22.7z"/>
<path class="st0" d="M70.7,29.3c0-13.2-10.8-24-24-24c-0.2,0-0.4,0-0.7,0C41.3,2,35.5,0,29.3,0C13.1,0,0,13.1,0,29.3
	c0,16.1,13.1,29.2,29.3,29.2c6.2,0,11.9-1.9,16.6-5.2c0.3,0,0.5,0,0.8,0c5.5,0,10.6-1.9,14.6-5l0.3-0.2h-0.1
	C67.1,43.7,70.7,36.9,70.7,29.3z M66.4,41.2H55.9c0.5-1.1,0.9-2.1,1.2-3.3H68C67.5,39.1,67,40.2,66.4,41.2z M69.1,34.6H58
	c0.2-1.2,0.4-2.3,0.4-3.5h11.2C69.5,32.3,69.3,33.5,69.1,34.6z M69.6,27.7H58.5c-0.1-1.2-0.2-2.3-0.4-3.5h11.1
	C69.4,25.4,69.6,26.5,69.6,27.7z M57.3,20.9c-0.4-1.3-0.8-2.5-1.4-3.6h10.4c0.7,1.2,1.3,2.4,1.8,3.6H57.3z M63.8,13.9h-9.7
	c-0.8-1.3-1.7-2.5-2.7-3.6h8.1C61.1,11.3,62.5,12.5,63.8,13.9z M18,3.4h22.6c1.3,0.6,2.6,1.3,3.8,2C42.2,5.6,40,6.1,38,6.9H12
	C13.8,5.5,15.8,4.3,18,3.4z M8.3,10.4H32c-1.3,1-2.6,2.2-3.7,3.5H5.6C6.4,12.7,7.3,11.5,8.3,10.4z M3.7,17.3H26
	c-0.7,1.2-1.3,2.4-1.7,3.6h-22C2.7,19.7,3.1,18.5,3.7,17.3z M1.5,24.3h21.8c-0.2,1.1-0.4,2.3-0.5,3.5H1C1.1,26.6,1.3,25.4,1.5,24.3z
	 M1.1,31.1h21.7c0.1,1.2,0.3,2.4,0.5,3.5H1.5C1.3,33.5,1.1,32.3,1.1,31.1z M2.4,38h22c0.5,1.3,1.1,2.5,1.8,3.7H3.9
	C3.3,40.5,2.8,39.2,2.4,38z M5.8,45h22.8c1.2,1.4,2.5,2.6,3.9,3.7H8.7C7.6,47.5,6.7,46.3,5.8,45z M39.1,55.7H19.4
	c-2.5-0.9-4.8-2.2-6.9-3.8h26.4c1.7,0.6,3.5,1,5.4,1.2C42.7,54.2,40.9,55,39.1,55.7z M45.6,52.3c-1.8-0.1-3.6-0.4-5.3-0.9l-0.4-0.1
	c-0.1,0-0.2-0.1-0.4-0.1c-0.2-0.1-0.4-0.1-0.7-0.2c-3.5-1.3-6.5-3.3-9-6h0l-0.2-0.2c-1.8-2-3.3-4.3-4.3-6.8h0l0-0.1
	c-1.1-2.7-1.7-5.6-1.7-8.6c0-12.4,9.8-22.5,22-23c7.1,5.1,11.8,13.5,11.8,23C57.5,38.8,52.8,47.2,45.6,52.3z M48.2,51.5h4.5
	c-1.8,0.5-3.6,0.8-5.5,0.8C47.6,52,47.9,51.7,48.2,51.5z M59.9,48.1h-8.3c0.9-1.1,1.8-2.3,2.6-3.5h9.7
	C62.7,45.9,61.3,47.1,59.9,48.1z"/>
<g>
	<g>
		<path class="st0" d="M85.2,39.5c-0.2,0-0.3-0.1-0.4-0.2c-0.1-0.1-0.2-0.2-0.2-0.4V24c0-0.2,0.1-0.3,0.2-0.4s0.2-0.2,0.4-0.2h6.4
			c1.3,0,2.4,0.2,3.3,0.6s1.7,1,2.2,1.7s0.8,1.8,0.8,2.9c0,1.2-0.3,2.1-0.8,2.9s-1.3,1.3-2.2,1.7c-0.9,0.4-2,0.5-3.3,0.5h-2.7v5
			c0,0.2-0.1,0.3-0.2,0.4c-0.1,0.1-0.3,0.2-0.4,0.2h-3.1V39.5z M88.8,30.7h2.7c0.7,0,1.2-0.2,1.6-0.5s0.6-0.8,0.6-1.5
			c0-0.6-0.2-1.1-0.5-1.5s-0.9-0.6-1.6-0.6h-2.7L88.8,30.7L88.8,30.7z"/>
	</g>
	<g>
		<path class="st0" d="M99.2,39.5c-0.1,0-0.2,0-0.3-0.1c-0.1-0.1-0.1-0.2-0.1-0.3s0-0.1,0-0.2l5.4-14.7c0-0.2,0.1-0.3,0.3-0.4
			c0.1-0.1,0.3-0.2,0.6-0.2h3.4c0.3,0,0.5,0.1,0.6,0.2s0.2,0.3,0.3,0.4l5.4,14.7c0,0.1,0,0.1,0,0.2c0,0.1,0,0.2-0.1,0.3
			s-0.2,0.1-0.4,0.1h-2.8c-0.2,0-0.4-0.1-0.5-0.2s-0.2-0.2-0.2-0.3l-0.9-2.3h-6.1l-0.9,2.3c0,0.1-0.1,0.2-0.2,0.3s-0.3,0.2-0.5,0.2
			H99.2z M104.5,33.4h4.3l-2.1-6L104.5,33.4z"/>
	</g>
	<g>
		<path class="st0" d="M117,39.5c-0.2,0-0.3-0.1-0.4-0.2c-0.1-0.1-0.2-0.2-0.2-0.4V24c0-0.2,0.1-0.3,0.2-0.4s0.2-0.2,0.4-0.2h2.4
			c0.3,0,0.4,0.1,0.6,0.2s0.2,0.2,0.2,0.3l5.6,8.8V24c0-0.2,0.1-0.3,0.2-0.4s0.2-0.2,0.4-0.2h2.7c0.2,0,0.3,0.1,0.4,0.2
			c0.1,0.1,0.2,0.2,0.2,0.4v14.8c0,0.2-0.1,0.3-0.2,0.4c-0.1,0.1-0.2,0.2-0.4,0.2h-2.4c-0.2,0-0.4-0.1-0.5-0.2S126,39,126,38.9
			l-5.6-8.5v8.3c0,0.2-0.1,0.3-0.2,0.4s-0.2,0.2-0.4,0.2H117V39.5z"/>
	</g>
	<g>
		<path class="st0" d="M140.3,39.5c-0.3,0-0.5-0.1-0.6-0.2s-0.2-0.3-0.3-0.5l-2.5-14.6v-0.1c0,0,0,0,0-0.1s0-0.2,0.1-0.3
			c0.1-0.1,0.2-0.1,0.3-0.1h2.8c0.4,0,0.7,0.2,0.7,0.5l1.5,8.9l1.6-5.3c0-0.1,0.1-0.3,0.2-0.4c0.1-0.1,0.3-0.2,0.5-0.2h1.6
			c0.3,0,0.4,0.1,0.5,0.2s0.2,0.3,0.2,0.4l1.6,5.3l1.5-8.9c0-0.3,0.3-0.5,0.7-0.5h2.8c0.1,0,0.3,0,0.4,0.1c0.1,0.1,0.1,0.2,0.1,0.3
			c0,0,0,0,0,0.1v0.1l-2.5,14.6c0,0.2-0.1,0.4-0.3,0.5c-0.2,0.2-0.4,0.2-0.6,0.2h-2.2c-0.3,0-0.5-0.1-0.6-0.2
			c-0.1-0.1-0.2-0.3-0.3-0.4l-2.3-6.5l-2.3,6.5c0,0.1-0.1,0.3-0.3,0.4c-0.1,0.1-0.3,0.2-0.6,0.2C142,39.5,140.3,39.5,140.3,39.5z"/>
	</g>
	<g>
		<path class="st0" d="M163.3,39.7c-1.4,0-2.6-0.2-3.7-0.7c-1-0.5-1.8-1.1-2.4-2.1s-0.9-2.1-1-3.5c0-0.7,0-1.3,0-2s0-1.3,0-2
			c0.1-1.4,0.4-2.5,1-3.5s1.4-1.6,2.4-2.1s2.3-0.7,3.6-0.7c1.4,0,2.6,0.2,3.6,0.7s1.9,1.2,2.4,2.1s0.9,2.1,1,3.5c0,0.7,0,1.3,0,2
			s0,1.3,0,2c0,1.4-0.4,2.5-0.9,3.5s-1.4,1.6-2.4,2.1C165.9,39.5,164.7,39.7,163.3,39.7z M163.3,36.4c0.8,0,1.5-0.2,2-0.7
			s0.8-1.3,0.8-2.3c0-0.7,0-1.3,0-1.9s0-1.2,0-1.9c0-0.7-0.2-1.3-0.4-1.7c-0.2-0.4-0.6-0.8-1-1s-0.9-0.3-1.4-0.3s-1,0.1-1.4,0.3
			c-0.4,0.2-0.7,0.5-1,1c-0.2,0.5-0.4,1-0.4,1.7c0,0.6,0,1.3,0,1.9s0,1.2,0,1.9c0,1.1,0.3,1.8,0.8,2.3
			C161.8,36.2,162.5,36.4,163.3,36.4z"/>
	</g>
	<g>
		<path class="st0" d="M173.6,39.5c-0.2,0-0.3-0.1-0.4-0.2c-0.1-0.1-0.2-0.2-0.2-0.4V24c0-0.2,0.1-0.3,0.2-0.4
			c0.1-0.1,0.2-0.2,0.4-0.2h6.2c2,0,3.5,0.5,4.7,1.4c1.1,0.9,1.7,2.2,1.7,3.9c0,1.1-0.3,2-0.8,2.7c-0.5,0.7-1.2,1.3-2.1,1.7l3.1,5.6
			c0,0.1,0.1,0.2,0.1,0.3s0,0.2-0.1,0.3s-0.2,0.1-0.3,0.1h-3c-0.3,0-0.5-0.1-0.6-0.2c-0.1-0.1-0.2-0.3-0.3-0.4l-2.6-5h-2.3v5.1
			c0,0.2-0.1,0.3-0.2,0.4s-0.3,0.2-0.4,0.2C176.7,39.5,173.6,39.5,173.6,39.5z M177.1,30.6h2.6c0.7,0,1.3-0.2,1.6-0.5
			c0.4-0.4,0.5-0.8,0.5-1.4s-0.2-1.1-0.5-1.4s-0.9-0.5-1.6-0.5h-2.6V30.6z"/>
	</g>
	<g>
		<path class="st0" d="M189.4,39.5c-0.2,0-0.3-0.1-0.4-0.2c-0.1-0.1-0.2-0.2-0.2-0.4V24c0-0.2,0.1-0.3,0.2-0.4
			c0.1-0.1,0.2-0.2,0.4-0.2h3c0.2,0,0.3,0.1,0.4,0.2c0.1,0.1,0.2,0.2,0.2,0.4v12h6.9c0.2,0,0.3,0.1,0.4,0.2s0.2,0.3,0.2,0.4v2.3
			c0,0.2-0.1,0.3-0.2,0.4s-0.2,0.2-0.4,0.2C199.9,39.5,189.4,39.5,189.4,39.5z"/>
	</g>
	<g>
		<path class="st0" d="M203,39.5c-0.2,0-0.3-0.1-0.4-0.2c-0.1-0.1-0.2-0.2-0.2-0.4V24c0-0.2,0.1-0.3,0.2-0.4
			c0.1-0.1,0.2-0.2,0.4-0.2h5.9c1.5,0,2.8,0.2,3.8,0.7s1.9,1.2,2.4,2.1c0.6,0.9,0.9,2.1,0.9,3.4c0,0.7,0,1.3,0,1.8s0,1.1,0,1.7
			c-0.1,1.4-0.4,2.6-0.9,3.5s-1.3,1.6-2.4,2.1c-1,0.5-2.3,0.7-3.8,0.7H203V39.5z M206.6,36.2h2.4c0.7,0,1.2-0.1,1.6-0.3
			c0.4-0.2,0.8-0.5,1-1c0.2-0.4,0.3-1,0.4-1.7c0-0.4,0-0.8,0.1-1.2c0-0.4,0-0.7,0-1.1s0-0.7-0.1-1.2c0-1-0.3-1.8-0.8-2.3
			s-1.3-0.7-2.3-0.7h-2.3L206.6,36.2L206.6,36.2z"/>
	</g>
</g>
</svg>
