<?xml version="1.0" encoding="utf-8"?>
<!-- Generator: Adobe Illustrator 23.0.5, SVG Export Plug-In . SVG Version: 6.00 Build 0)  -->
<svg version="1.1" id="圖層_2" xmlns="http://www.w3.org/2000/svg" xmlns:xlink="http://www.w3.org/1999/xlink" x="0px" y="0px"
	 viewBox="0 0 76.8 100.5" style="enable-background:new 0 0 76.8 100.5;" xml:space="preserve">
<style type="text/css">
	.st0{fill:#FFFFFF;}
	.st1{fill:#036EB8;}
	.st2{clip-path:url(#SVGID_2_);}
	.st3{clip-path:url(#SVGID_4_);}
	.st4{fill:#F5FBFE;}
	.st5{fill:#FAD5BC;}
	.st6{fill:#60636C;}
	.st7{fill:#ECE9E0;}
	.st8{fill:#E3746B;}
	.st9{fill:#352621;}
	.st10{clip-path:url(#SVGID_6_);fill:#604933;}
	.st11{clip-path:url(#SVGID_6_);fill:#FFFFFF;}
	.st12{clip-path:url(#SVGID_6_);fill:#FAD5BC;}
	.st13{clip-path:url(#SVGID_6_);fill:#F8C3AD;}
</style>
<path class="st0" d="M74.5,62.6c0-19.9-16.1-36-36-36c-19.9,0-36,16.1-36,36s16.1,36,36,36C58.4,98.7,74.5,82.5,74.5,62.6"/>
<path class="st1" d="M73,62.2c-0.4-20.4-17.4-36.7-38.1-34.6C17.1,29.5,4.4,45.7,4,63C3.6,83.5,22.1,99.7,42.1,97.6
	C60,95.7,72.7,79.6,73,62.2c0-0.9,3-0.3,3,0.8c-0.4,21.6-18.6,37.6-40,36.3C16.5,98.1,1.4,81.6,1,62.2c-0.4-21.6,19.3-37.6,40-36.3
	C60.5,27.1,75.6,43.7,76,63C76.1,63.9,73.1,63.3,73,62.2"/>
<g>
	<defs>
		<ellipse id="SVGID_1_" cx="40.1" cy="45.2" rx="40.1" ry="52.5"/>
	</defs>
	<clipPath id="SVGID_2_">
		<use xlink:href="#SVGID_1_"  style="overflow:visible;"/>
	</clipPath>
	<g class="st2">
		<defs>
			<rect id="SVGID_3_" x="1.4" y="-5.6" width="81.6" height="118.9"/>
		</defs>
		<clipPath id="SVGID_4_">
			<use xlink:href="#SVGID_3_"  style="overflow:visible;"/>
		</clipPath>
		<g class="st3">
			<g>
				<path class="st4" d="M56,68.6c0.4-0.1,0.9,0.1,1.3,0.3c0.5,0.3,0.9,0.8,1.3,1.3c3.7,4.7,7.4,9.3,10.9,14.2
					c0.4,0.6,0.9,1.2,1.1,1.9c0.3,1.2,0,2.4-0.6,3.5c-0.6,1.1-1.5,1.9-2.3,2.8c-1,1-2,2.1-2.9,3.1c-0.5,0.5-1,1.1-1.4,1.6
					c-0.2,0.2-0.5,0.4-0.6,0.7c-0.2,0.2-0.2,0.5-0.3,0.8c0,0.1-0.1,0.3-0.1,0.4c-0.1,0.3-0.4,0.6-0.8,0.7c-0.2,0.1-0.4,0.1-0.5,0.1
					c-0.4,0.1-1,0.2-1.5,0c0,0,0,0,0-0.1l0,0c-0.5-0.2-1-0.5-1.4-0.9c-0.3-0.3-0.5-0.6-0.8-1h0c-0.1-1.6-0.1-3.3-0.2-4.9h0
					c0.1,0,0.2,0,0.3-0.1c0.4-0.2,0.6-0.6,0.9-0.9c0.4-0.4,0.8-0.9,1.2-1.3c0.8-0.9,1.6-1.7,2.5-2.5c0.3-0.3,0.7-0.6,1-0.9
					c-0.7-1-1.5-1.9-2.2-2.8c-0.9-1.1-1.8-2.2-2.9-3.2c-0.4-0.4-0.8-0.7-1.2-1.1c0,1,0.1,2.1,0.2,3.1c0,0.5,0,1,0,1.5l-0.9,0
					c0-0.7-0.1-1.5-0.2-2.2c-0.3-2.1-1.1-4.1-2.5-5.4c-0.2-0.1-0.3-0.2-0.3-0.4c-0.1-2.4-0.5-4.8-1.1-7.1c-0.3-1.4-0.9-2.7-1.6-3.9
					l0.1,0C52.3,66.8,54.2,67.7,56,68.6"/>
				<path class="st5" d="M59.1,100.6c0.3,0.3,0.5,0.7,0.7,1.1c0.1,0.4,0.3,0.8,0.4,1.2c0.2,0.9,0.4,1.8,0.4,2.7
					c0.4-0.2,0.6-0.6,1-0.9c0.2-0.2,0.5-0.5,0.9-0.5c0.1,0,0.2,0,0.2,0c2.2,0.1-2,3.5-2.7,3.8c-1.3,0.6-1.8-0.5-2.3-1.7
					c-0.1-2.7-0.2-5.4-0.3-8.1h0c0.2,0.3,0.5,0.7,0.8,1c0.4,0.4,0.9,0.7,1.4,0.9l0,0c0,0,0,0,0,0.1c-0.1,0.1-0.1,0.3-0.1,0.4
					L59.1,100.6"/>
				<path class="st4" d="M55.7,89.1c0-0.4,0.1-0.8,0.1-1.2c0.1-1,0.1-2,0.1-3l0.9,0c0,0.4,0,0.9,0,1.3l0,0c0.1,2.3,0.1,4.7,0.2,7
					c0.1,1.6,0.1,3.3,0.2,4.9c0.1,2.7,0.2,5.4,0.3,8.1c0,1.2,0.1,2.3,0.1,3.5c0.3,8.1,0.7,16.3,0.8,24.4c-5.1,1.5-11.2,2.4-16.6,2
					c-5.4,0.4-11.5-0.6-16.6-2c0.1-8.1,0.5-16.2,0.8-24.4c0.2-5.2,0.4-10.5,0.7-15.7c-0.6,1-1.3,1.9-2.2,2.7
					c-0.9,0.7-2.1,1.2-3.3,0.9c-1.4-0.3-2.4-1.7-3.1-3c-2.3-4.3-3.6-9.2-4.5-14l0.1-0.1c-0.4-0.3-0.7-0.6-1.1-0.9
					c-0.2-0.2-0.4-0.4-0.4-0.7c-0.1-0.3,0-0.6,0.2-0.9c0.4-0.9,1-1.6,1.7-2.2l0-0.1c0.2,0.1,0.5,0.2,0.7,0.3l0,0.1
					c0.2,0.8,0.4,1.7,0.6,2.6l-0.9,0c0.1,0.2,0.3,0.3,0.4,0.4c0.2,0.1,0.5,0.2,0.8,0.2c1,0.1,2.1-0.3,2.8-0.9c0.3-0.3,0.6-0.6,0.8-1
					l-0.1,0c-0.3-0.9-0.5-1.9-0.8-2.8l0,0c0.1-0.1,0.2-0.2,0.3-0.4l0.1,0.1c0.7,0,1.6,0.1,2.1,0.6c0.4,0.4,0.6,1,0.5,1.5
					c0,0.5-0.2,1.1-0.5,1.6l0,0c0.3,1.7,0.7,3.3,1.1,4.9c0.1-3,0.5-6,1.1-9c0.2-1.2,0.5-2.5,1.2-3.5c0.9-1.2,2.1-1.3,3.5-1.6v0
					l0-0.1c2.1-1.1,4.2-2.1,6.3-3.2l0,0c-0.8,1.3-1.4,2.9-1.8,4.2c-0.7,2.8-1.1,5.8-1.1,8.8c0,1.5,0.1,3,0.3,4.5
					c0.1,0.7,0.2,1.3,0.3,1.9c0.1,0.7,0.1,1.4,0.3,2.2l0,0c0,0,0,0-0.1,0c-0.8,0.2-1.5,1-1.7,2c-0.4,2.2,1.6,3.5,3.2,3
					c0.6-0.2,1.2-0.7,1.5-1.4c0.2-0.6,0.1-1.4-0.1-2c-0.1-0.3-0.3-0.5-0.4-0.7c-0.4-0.5-0.9-0.8-1.4-0.9l0-0.1c-0.4-2-0.6-4-0.8-6.1
					c-0.1-1.5,0-3.1,0.1-4.6l1.3,0.1c0,0,0.1,0.1,0.1,0.1c0.7,0.8,1.5,1.5,2.2,2.2c1.8,1.6,3.7,3.2,5.5,4.8l2-0.2
					c1.5-1.4,3-2.8,4.5-4.2c0.8-0.8,1.7-1.7,2.4-2.6c0,0,0.1-0.1,0.1-0.1l1.6-0.1c0,0.3,0,0.5,0,0.8c-1.5,1.3-2.3,3.4-2.6,5.6
					c-0.2,1.7-0.2,3.5,0,5.2c0,0.5,0.1,1,0.1,1.5l-0.1,0.2c0,0.5,0.1,1,0.3,1.4c0.1,0.1,0.1,0.2,0.2,0.3c0.2,0.2,0.5,0.2,0.7,0.2
					c0.3,0,0.7,0,0.9-0.3c0.1-0.1,0.1-0.2,0.2-0.3c0.1-0.2,0.1-0.4,0-0.6l1.4-0.1c0,0,0,0.1,0,0.1c0.1,0.4,0.4,0.7,0.8,0.9
					c0.4,0.2,0.9,0.3,1.3-0.1C55.6,90.8,55.6,89.8,55.7,89.1"/>
			</g>
			<path class="st6" d="M52.1,77.2c0-0.3,0-0.5,0-0.8c0-0.5-0.1-0.9-0.1-1.4c-0.1-1.3-0.3-2.6-0.6-3.9c-0.2-0.7-0.3-1.4-0.6-2
				c-0.3-0.9-0.7-1.8-1.2-2.7c-0.7-1.3-1.7-2.3-2.9-3c-0.4-0.3-0.9-0.4-1.5-0.5l0,0c-0.1-0.2-0.2-0.5-0.2-0.7c1.5,0,2.6,0.5,3.7,1.6
				c0.6,0.7,1.2,1.4,1.6,2.1c0.7,1.2,1.2,2.5,1.6,3.9c0.6,2.3,0.9,4.7,1.1,7.1c0,0.2,0.2,0.3,0.3,0.4c1.4,1.3,2.2,3.3,2.5,5.4
				c0.1,0.7,0.2,1.5,0.2,2.2c0,1,0,2-0.1,3l0,0c-0.2,0-0.5-0.1-0.7-0.1l-0.1,0c0.1-1.6,0.1-3.2-0.1-4.8c-0.3-1.8-0.8-3.4-2-4.7
				c-1.7-0.5-2.6,3.2-2.8,4.7c-0.2,1.6-0.2,3.3-0.1,5c-0.3,0-0.5,0-0.8,0l0,0c-0.1-1.8-0.2-3.5,0-5.2C49.7,80.6,50.6,78.4,52.1,77.2
				"/>
			<path class="st7" d="M54.5,89.8l0.4,0c0.1-0.6,0.1-1.3,0.2-2l0.1,0c0.2,0,0.5,0.1,0.7,0.1l0,0c0,0.4-0.1,0.8-0.1,1.2
				c-0.1,0.7-0.1,1.7-0.6,2.2c-0.3,0.4-0.9,0.3-1.3,0.1c-0.3-0.2-0.6-0.5-0.8-0.9c0,0,0-0.1,0-0.1c-0.1-0.4,0-0.9,0.2-1.1
				c0.3-0.3,0.8-0.3,1,0.1C54.4,89.4,54.4,89.6,54.5,89.8C54.5,89.7,54.5,89.8,54.5,89.8"/>
			<path class="st4" d="M50.2,88c-0.1-1.7-0.2-3.3,0.1-5c0.2-1.4,1.1-5.2,2.8-4.7c1.2,1.2,1.7,2.8,2,4.7c0.2,1.6,0.2,3.2,0.1,4.8
				c0,0.7-0.1,1.3-0.2,2l-0.4,0c0,0,0-0.1-0.1-0.1c-0.1-0.1-0.1-0.3-0.2-0.5c-0.2-0.4-0.7-0.4-1-0.1c-0.2,0.3-0.3,0.7-0.2,1.1
				l-1.4,0.1c-0.1-0.5-0.4-0.9-0.8-0.7c-0.3,0.1-0.7,1-0.6,0.1C50.3,89.2,50.2,88.6,50.2,88"/>
			<path class="st4" d="M52,76.3l-1.6,0.1c0,0-0.1,0.1-0.1,0.1l-0.1,0c-1-1-2-2-3-2.9c1.3-0.9,2.7-1.7,4-2.6l0.1,0
				c0.3,1.3,0.5,2.6,0.6,3.9C52,75.4,52,75.9,52,76.3"/>
			<path class="st7" d="M51.7,90.4c0,0.2,0,0.4,0,0.6c0,0.1-0.1,0.2-0.2,0.3c-0.2,0.3-0.6,0.3-0.9,0.3c-0.3,0-0.5,0-0.7-0.2
				c-0.1-0.1-0.2-0.2-0.2-0.3c-0.2-0.4-0.3-0.9-0.3-1.4l0.1-0.2c0-0.5-0.1-1-0.1-1.5l0,0c0.3,0.1,0.5,0.1,0.8,0
				c0,0.6,0.1,1.2,0.1,1.7c-0.1,1,0.3,0.1,0.6-0.1C51.4,89.4,51.7,89.9,51.7,90.4"/>
			<path class="st4" d="M51.3,71l-0.1,0c-0.9-1.6-2.2-2.9-2.7-4.7c-0.4-1.2-0.8-2.4-1.8-3.1c1.3,0.7,2.2,1.7,2.9,3
				c0.5,0.9,0.9,1.8,1.2,2.7C51,69.6,51.2,70.3,51.3,71"/>
			<path class="st4" d="M46.7,63.3c1,0.6,1.4,1.8,1.8,3.1c0.6,1.8,1.8,3.1,2.7,4.7c-1.3,0.9-2.7,1.7-4,2.6c-0.4-0.4-0.9-0.8-1.4-1.2
				l-1.6-0.5c0-0.1,0.1-0.2,0.1-0.3c0.5-1.8,1.1-3.6,1.8-5.3c0.1-0.2,0.2-0.5,0.3-0.7c0.1-0.2,0.1-0.4,0.1-0.7l-0.2-0.3
				c-0.5-0.5-0.9-1.1-1.1-1.8l0,0C45.8,62.9,46.3,63,46.7,63.3"/>
			<path class="st4" d="M42.1,78.8c0.7-2.3,1.4-4.5,2.1-6.8l1.6,0.5c0.5,0.4,0.9,0.8,1.4,1.2c1,0.9,2,1.9,3,2.9l0.1,0
				c-0.7,0.9-1.6,1.8-2.4,2.6c-1.5,1.4-3,2.8-4.5,4.2l-2,0.2c-1.8-1.6-3.7-3.2-5.5-4.8c-0.8-0.7-1.6-1.4-2.2-2.2l0.1,0
				c1-1,2-2,3.1-2.9c0.4-0.4,0.9-0.8,1.4-1.2l1.7-0.4c0.6,1.9,1.5,3.8,1.9,5.7C41.9,78.1,42,78.4,42.1,78.8L42.1,78.8"/>
			<path class="st5" d="M45,62.1c0,0.2,0.1,0.5,0.2,0.7c0.2,0.7,0.6,1.3,1.1,1.8l0.2,0.3c0,0.2-0.1,0.5-0.1,0.7
				c-0.1,0.2-0.2,0.5-0.3,0.7c-0.2,0.4-0.5,0.8-0.9,1.1c-1,0.8-1.8,1.1-2.9,1.1h-0.4c-1.2-0.1-2-0.3-2.9-1.1
				c-0.4-0.3-0.7-0.7-0.9-1.1c0,0,0,0,0,0c-0.1-0.2-0.1-0.3-0.2-0.5c-0.1-0.1-0.1-0.3-0.2-0.5c0,0,0,0,0-0.1c0,0,0-0.1,0-0.1
				c0-0.3,0-0.6,0.3-0.8l0,0c0.4-0.5,0.7-1,0.9-1.6c0.1-0.2,0.1-0.4,0.2-0.7c0.1-0.6,0.2-1.3,0.1-1.9l-0.2-0.4
				c0.7-0.9,1.8-1.6,2.9-1.7c1.4-0.1,2.4,0.8,3.1,1.9l0.1,0.1C44.8,60.8,44.9,61.5,45,62.1"/>
			<path class="st4" d="M46.4,65.6c-0.1,0.3-0.2,0.5-0.3,0.7C46.2,66.1,46.2,65.8,46.4,65.6"/>
			<path class="st8" d="M46.1,66.3c-0.7,1.7-1.2,3.5-1.8,5.3c0,0.1-0.1,0.2-0.1,0.3c-0.7,2.3-1.4,4.6-2.1,6.8l0,0
				c-0.1-0.3-0.2-0.7-0.2-1c-0.4-1.9-1.3-3.8-1.9-5.7c0-0.1-0.1-0.3-0.1-0.4c-0.4-1.3-0.8-2.6-1.2-3.9c-0.2-0.5-0.3-1-0.5-1.4
				c0.2,0.4,0.5,0.8,0.9,1.1c1,0.8,1.8,1.1,2.9,1.1h0.4c1.2-0.1,2-0.3,2.9-1.1C45.5,67.1,45.8,66.8,46.1,66.3"/>
			<path class="st4" d="M37.6,65.2c0,0,0,0.1,0,0.1c0,0,0,0,0,0.1c0.1,0.3,0.2,0.7,0.4,1c0,0,0,0,0,0c0.2,0.5,0.4,0.9,0.5,1.4
				c0.5,1.3,0.8,2.6,1.2,3.9c0,0.1,0.1,0.3,0.1,0.4l-1.7,0.4c-0.5,0.4-0.9,0.8-1.4,1.2c-1.3-0.8-2.6-1.6-3.8-2.5
				c0-0.2,0.1-0.4,0.1-0.6c0.9-1.4,1.9-2.6,2.4-4.2c0.3-1,0.7-2,1.4-2.7c0.5-0.5,1.1-0.8,1.9-0.9l0,0c-0.2,0.6-0.5,1.1-0.9,1.6l0,0
				C37.7,64.6,37.6,64.9,37.6,65.2"/>
			<path class="st6" d="M39,62.1L39,62.1c0,0.2,0,0.5-0.1,0.7l0,0c-0.8,0.1-1.4,0.4-1.9,0.9l0,0c-2,1.7-3.2,4.3-3.8,6.9
				c-0.1,0.2-0.2,0.3-0.3,0.5c0.1,0,0.1,0.1,0.2,0.1c-0.3,1.3-0.4,2.6-0.5,3.8c0,0.5-0.1,1-0.1,1.4c-0.1,1.5-0.2,3.1-0.1,4.6
				c0.2,2,0.4,4.1,0.8,6.1l0,0.1c-0.3-0.1-0.6-0.1-0.8,0l0,0c-0.2-0.7-0.2-1.4-0.3-2.2c-0.1-0.6-0.2-1.3-0.3-1.9
				c-0.2-1.5-0.3-3-0.3-4.5c0-3,0.4-5.9,1.1-8.8c0.4-1.4,1-2.9,1.8-4.2C35.5,63.5,37.2,62,39,62.1"/>
			<path class="st4" d="M37.8,65.8c0.1,0.2,0.1,0.3,0.2,0.5c-0.2-0.3-0.3-0.6-0.4-1C37.7,65.5,37.7,65.7,37.8,65.8"/>
			<path class="st5" d="M37.6,65.2c0,0,0,0.1,0,0.1C37.6,65.2,37.6,65.2,37.6,65.2"/>
			<path class="st4" d="M36.9,63.6L36.9,63.6c-0.7,0.7-1,1.7-1.3,2.7c-0.5,1.6-1.6,2.8-2.4,4.2C33.8,67.9,34.9,65.4,36.9,63.6"/>
			<path class="st4" d="M33,71.1c1.3,0.8,2.6,1.7,3.8,2.5c-1,0.9-2,1.9-3.1,2.9l-0.1,0c0,0-0.1-0.1-0.1-0.1l-1.3-0.1
				c0-0.5,0.1-1,0.1-1.4C32.6,73.7,32.7,72.4,33,71.1"/>
			<path class="st7" d="M34.9,88.7c0.3,0.6,0.4,1.4,0.1,2c-0.2,0.7-0.8,1.2-1.5,1.4c-1.5,0.4-3.6-0.8-3.2-3c0.2-1,0.9-1.8,1.7-2
				c0,0,0,0,0.1,0c0.3-0.1,0.6-0.1,0.8,0c0.5,0.1,1,0.4,1.4,0.9C34.6,88.2,34.8,88.5,34.9,88.7"/>
			<path class="st4" d="M32.8,71c0.1-0.2,0.2-0.3,0.3-0.5c0,0.2-0.1,0.4-0.1,0.6C33,71.1,32.9,71,32.8,71"/>
			<path class="st5" d="M18.2,66.8c-0.7-0.9-1-2.1-0.8-3.2c0-0.1,0-0.2,0.1-0.2c0-0.1,0.1-0.1,0.2-0.2c0.1,0,0.2,0,0.2,0.1
				c0.2,0.1,0.4,0.2,0.6,0.4c0.4,0.2,0.7,0.5,1.1,0.7c0.7,0.4,1.5,0.9,1.8,1.7c0.5,1.1,0.1,2.4-0.4,3.5c-0.7,1.7-1.1,3.3-2.2,4.8
				c-0.1,0.1-0.2,0.2-0.3,0.4c-0.1,0.1-0.1,0.2-0.2,0.2l-2.3-0.1c0-0.8-0.1-1.6-0.2-2.4c-0.1-0.9-0.4-1.9-1-2.6
				c1.3-0.4,2-1.6,2.8-2.7L18.2,66.8"/>
			<path class="st5" d="M15,76.2c-0.2-0.1-0.5-0.2-0.7-0.3c-1.5-0.7-2.6-2.1-3.4-3.5c-0.8-1.5-3.3-5.7-0.8-6.9c-0.2-0.5-0.4-1,0-1.4
				c0.4-0.5,1.3-0.3,1.6-0.9c0.1-0.2,0.1-0.6,0.2-0.8c0.1-0.1,0.3-0.2,0.5-0.3c0.9-0.4,1.9-0.5,2.7-0.3c0.9,0.2,1.8,0.7,2.2,1.5
				c0,0.1-0.1,0.2-0.1,0.2c-0.2,1.1,0.2,2.3,0.8,3.2l-0.5,0.3c-0.8,1.1-1.5,2.3-2.8,2.7c0.7,0.6,0.9,1.6,1,2.6
				c0.1,0.8,0.2,1.6,0.2,2.4l2.3,0.1c0.1-0.1,0.1-0.2,0.2-0.2l0,0c0.3,0.9,0.5,1.9,0.8,2.8l0.1,0c-0.2,0.4-0.5,0.7-0.8,1
				c-0.8,0.7-1.8,1-2.8,0.9c-0.3,0-0.5-0.1-0.8-0.2c-0.2-0.1-0.3-0.2-0.4-0.4l0.9,0C15.4,78,15.2,77.1,15,76.2L15,76.2"/>
			<path class="st5" d="M18.5,63.6L18.5,63.6c-0.3,0-0.5-0.1-0.6-0.3c-0.1,0-0.1-0.1-0.2-0.1c-0.1,0-0.2,0.1-0.2,0.2
				c-0.5-0.9-1.3-1.4-2.2-1.5c-0.8-3.7-2-7.2-2.1-11c0-0.3,0.1-0.8,0.5-0.8c0.1,0,0.2,0.1,0.3,0.2c0.4,0.4,0.6,1.1,0.8,1.7
				C15.9,55.9,16.9,59.8,18.5,63.6"/>
			<path class="st9" d="M38.9,60.2c0.1,1.6-0.3,2.9-1.3,4.2c-0.2,0.3,0.1,0.6,0.4,0.4c1.2-1.2,1.7-3,1.4-4.6
				C39.3,59.9,38.9,60,38.9,60.2"/>
			<path class="st9" d="M34.2,65.3c-2.1,1.1-4.3,2-6.3,3.2c-0.3,0.1,0,0.5,0.2,0.4c2.1-1.1,4.2-2.1,6.3-3.2
				C34.6,65.6,34.4,65.2,34.2,65.3"/>
			<path class="st9" d="M25.8,78.2c0.3,0.5,0.8,1,1.4,1.2c0.2,0.1,0.4-0.2,0.2-0.4c-0.2-0.2-0.5-0.3-0.7-0.5
				c-0.2-0.2-0.4-0.4-0.6-0.6C26,77.8,25.7,78,25.8,78.2"/>
			<path class="st9" d="M27.2,79.6C27,81.2,27,83,27.1,84.7c0,0.3,0.5,0.3,0.5,0c0.2-1.7,0.2-3.4,0.1-5.1
				C27.7,79.3,27.2,79.3,27.2,79.6"/>
			<path class="st9" d="M37.3,64.9c0.2,2.4,2.3,3.8,4.5,3.9c0.3,0,0.3-0.5,0-0.5c-1.9-0.2-3.8-1.3-4-3.4
				C37.8,64.6,37.3,64.6,37.3,64.9"/>
			<path class="st9" d="M38.9,62.5c-1.6,0.1-2.5,1.1-3.1,2.5c-0.4,1-0.7,2-1.2,2.9c-0.6,1-1.3,1.9-1.9,2.9c-0.1,0.1,0,0.3,0.1,0.3
				c1.3,0.9,2.7,1.7,4,2.6c0.3,0.2,0.5-0.3,0.3-0.4c-1.3-0.9-2.7-1.7-4-2.6c0,0.1,0.1,0.2,0.1,0.3c0.9-1.5,2.1-2.9,2.7-4.6
				c0.6-1.7,1.2-3.2,3.1-3.5C39.2,63,39.2,62.5,38.9,62.5"/>
			<path class="st9" d="M37.3,65.1c1,2.3,1.7,4.7,2.4,7c0.4,1.1,0.8,2.1,1.2,3.2c0.4,1.1,0.7,2.3,0.9,3.4c0.1,0.3,0.5,0.2,0.5-0.1
				c-0.5-2.4-1.5-4.6-2.2-7c-0.7-2.3-1.4-4.6-2.4-6.8C37.5,64.6,37.1,64.9,37.3,65.1"/>
			<path class="st9" d="M34,76.7c1.4-1.4,2.9-2.8,4.4-4.1c0.2-0.2-0.1-0.6-0.3-0.4c-1.6,1.2-3,2.7-4.5,4.1
				C33.4,76.5,33.8,76.9,34,76.7"/>
			<path class="st9" d="M33.5,76.6c1.1,1.4,2.5,2.5,3.8,3.6c1.3,1.2,2.6,2.4,4,3.5c0.2,0.2,0.6-0.1,0.3-0.3
				c-2.5-2.5-5.5-4.5-7.8-7.1C33.6,76,33.3,76.4,33.5,76.6"/>
			<path class="st9" d="M44.7,60.2c-0.3,1.6,0.2,3.5,1.4,4.6c0.3,0.2,0.6-0.1,0.4-0.4c-1-1.2-1.4-2.6-1.3-4.2
				C45.2,60,44.8,59.9,44.7,60.2"/>
			<path class="st9" d="M50.3,66c1.9,1,3.8,1.9,5.7,2.9c0.3,0.1,0.5-0.3,0.2-0.4c-1.8-1-3.8-1.9-5.7-2.8
				C50.3,65.5,50.1,65.9,50.3,66"/>
			<path class="st9" d="M57.9,78c-0.2,0.2-0.4,0.4-0.6,0.6c-0.2,0.2-0.5,0.3-0.7,0.5c-0.2,0.2,0,0.5,0.2,0.4c0.6-0.2,1-0.7,1.4-1.2
				C58.4,78,58.1,77.8,57.9,78"/>
			<path class="st9" d="M56.4,79.6c-0.1,1.7-0.1,3.5,0.1,5.1c0,0.3,0.5,0.3,0.5,0c0.1-1.7,0-3.4-0.1-5.1
				C56.8,79.3,56.4,79.3,56.4,79.6"/>
			<path class="st9" d="M46.2,64.9c-0.2,2.1-2.1,3.2-4,3.4c-0.3,0-0.3,0.5,0,0.5c2.2-0.1,4.3-1.5,4.5-3.9
				C46.8,64.6,46.3,64.6,46.2,64.9"/>
			<path class="st9" d="M45.1,63.1c2,0.3,2.5,1.8,3.1,3.5c0.6,1.7,1.8,3,2.7,4.6c0-0.1,0.1-0.2,0.1-0.3c-1.3,0.9-2.7,1.7-4,2.6
				c-0.3,0.2,0,0.6,0.3,0.4c1.3-0.8,2.7-1.7,4-2.6c0.1-0.1,0.2-0.2,0.1-0.3c-0.6-1-1.3-1.8-1.8-2.8c-0.6-1-0.9-2-1.3-3
				c-0.6-1.4-1.5-2.4-3.1-2.5C44.9,62.5,44.8,63,45.1,63.1"/>
			<path class="st9" d="M46.4,64.9c-1,2.2-1.7,4.4-2.4,6.6c-0.7,2.4-1.5,4.8-2.2,7.2c-0.1,0.3,0.4,0.4,0.5,0.1
				c1.5-4.6,2.5-9.3,4.5-13.7C46.9,64.9,46.5,64.6,46.4,64.9"/>
			<path class="st9" d="M50.4,76.3c-1.4-1.4-2.9-2.9-4.5-4.1c-0.2-0.2-0.5,0.2-0.3,0.4c1.6,1.3,3,2.7,4.4,4.1
				C50.3,76.9,50.6,76.5,50.4,76.3"/>
			<path class="st9" d="M50.2,76.3c-2.1,2.6-4.7,4.5-7,6.9c-0.2,0.2,0.1,0.5,0.3,0.3c1.4-1.2,2.6-2.4,3.9-3.7c1.1-1,2.2-2.1,3.1-3.3
				C50.8,76.3,50.4,76,50.2,76.3"/>
			<path class="st9" d="M39,61.9c-1.8-0.1-3.2,1.2-4.2,2.5c-1.4,1.8-2.2,3.9-2.7,6.1c-1.3,5.5-1.2,11.3-0.1,16.8
				c0.1,0.3,0.5,0.2,0.5-0.1c-0.9-5.1-1.1-10.3-0.1-15.4c0.4-2.1,1-4.1,2.1-5.9c1-1.6,2.5-3.4,4.5-3.4C39.3,62.3,39.3,61.9,39,61.9"
				/>
			<path class="st9" d="M39.1,60c0.8-0.9,1.8-1.6,3-1.6c1.2,0,2,0.9,2.6,1.8c0.2,0.3,0.6,0,0.4-0.3c-0.6-1.1-1.5-2-2.7-2.1
				c-1.4-0.1-2.7,0.7-3.6,1.8C38.5,59.9,38.9,60.2,39.1,60"/>
			<path class="st9" d="M36.8,63.5c-2.8,2.4-3.9,6.1-4.3,9.6c-0.6,4.7-0.5,9.4,0.5,14c0.1,0.3,0.5,0.2,0.4-0.1
				c-0.3-2.3-0.7-4.6-0.8-7c-0.1-2.1,0.1-4.3,0.3-6.4c0.4-3.6,1.5-7.3,4.2-9.9C37.3,63.6,37,63.3,36.8,63.5"/>
			<path class="st9" d="M44.8,62.4c3.5-0.3,5.5,3.6,6.5,6.4c0.6,1.9,1,3.9,1.2,5.9c0.1,0.8-0.2,2.6,0.8,3c0.3,0.1,0.4-0.3,0.1-0.5
				C53,77,53.1,74.9,53,74.5c-0.1-1-0.3-2-0.5-3c-0.3-1.7-0.8-3.4-1.6-5c-1.2-2.3-3.2-5.1-6.2-4.6C44.5,62,44.6,62.4,44.8,62.4"/>
			<path class="st9" d="M46.5,63.5c4.6,2.8,4.9,8.9,5.3,13.7c0,0.3,0.4,0.3,0.4,0c-0.1-4.8-0.8-11.5-5.5-14.1
				C46.5,62.9,46.3,63.3,46.5,63.5"/>
			<path class="st9" d="M34.7,88.8c0.4,1.2,0.2,2.7-1.2,3.1c-0.8,0.2-1.7-0.1-2.2-0.7c-0.7-0.9-0.7-2.3,0.1-3.1
				C32.4,86.8,34,87.6,34.7,88.8c0.2,0.4,0.6,0.1,0.5-0.2c-0.6-1.5-2.4-2.4-3.8-1.4c-1.2,0.8-1.6,2.7-0.8,3.9c0.6,1,1.9,1.6,3.1,1.3
				c1.7-0.4,2.2-2.3,1.6-3.8C35,88.4,34.5,88.5,34.7,88.8"/>
			<path class="st9" d="M31.4,88.9c-0.4,0.9-0.1,2.1,0.8,2.5c1,0.4,2-0.6,2-1.6c0-0.2-0.4-0.3-0.4-0.1c-0.1,0.6-0.7,1.6-1.5,1.2
				c-0.6-0.4-0.7-1.3-0.5-1.9C31.9,88.8,31.5,88.7,31.4,88.9"/>
			<path class="st9" d="M52,76.9c-3.5,2.9-3.2,8.5-2.7,12.5c0,0.3,0.5,0.3,0.5,0c-0.3-4.1-0.8-9.2,2.6-12.2
				C52.6,77,52.2,76.7,52,76.9"/>
			<path class="st9" d="M50.5,89.8c-0.2-2.5-0.4-5,0.1-7.5c0.2-1.1,0.8-4.1,2.4-3.7c0.3,0.1,0.4-0.3,0.1-0.4c-1.6-0.6-2.4,1.9-2.7,3
				c-0.8,2.8-0.6,5.7-0.3,8.6C50.1,90.1,50.6,90.1,50.5,89.8"/>
			<path class="st9" d="M55.9,89.4c0.4-4,0.8-9.7-2.7-12.5c-0.2-0.2-0.5,0.1-0.3,0.3c3.4,3.1,2.9,8.1,2.6,12.2
				C55.5,89.7,55.9,89.7,55.9,89.4"/>
			<path class="st9" d="M52.8,78.5c2.7,3.1,2.2,7.5,1.9,11.3c0,0.3,0.4,0.3,0.5,0c0.4-3.7,0.8-8.7-2-11.6
				C52.9,77.9,52.6,78.3,52.8,78.5"/>
			<path class="st9" d="M49.2,89.6c-0.1,0.8,0.1,2.1,1.1,2.2c0.8,0.1,1.6-0.1,1.7-1c0.1-0.5-0.1-1.4-0.7-1.5c-0.3,0-0.5,0.1-0.7,0.2
				c-0.1,0.1-0.2,0.2-0.3,0.3c0,0,0,0,0,0c-0.1,0.1,0,0.1,0.3,0.1c0,0,0-0.3,0-0.4c0-0.4-0.5-0.3-0.5,0c0,0.3-0.1,0.8,0.3,0.8
				c0.3,0,0.4-0.5,0.7-0.5c0.3-0.1,0.4,0.4,0.4,0.6c0,0.4-0.2,0.8-0.6,0.8c-0.5,0.1-0.8,0-1-0.5c-0.2-0.4-0.2-0.8-0.2-1.2
				C49.6,89.3,49.2,89.3,49.2,89.6"/>
			<path class="st9" d="M54.8,89.6c-0.1,0-0.3-0.5-0.4-0.6c-0.1-0.1-0.2-0.2-0.4-0.3c-0.3-0.1-0.7,0-1,0.3c-0.6,0.7-0.3,1.7,0.3,2.3
				c0.5,0.5,1.5,0.8,2,0.2c0.6-0.7,0.5-1.7,0.6-2.5c0.1-0.3-0.4-0.4-0.5-0.1c-0.2,0.8-0.2,3.2-1.6,2.3c-0.3-0.2-0.6-0.5-0.6-0.9
				c-0.1-0.4,0-1.1,0.5-0.9c0.3,0.1,0.3,0.5,0.5,0.7c0.2,0.2,0.3,0.2,0.5,0.1C55.2,90.1,55.1,89.7,54.8,89.6"/>
			<path class="st9" d="M49.3,88.2c0.3,0.1,0.7,0.1,1,0c0.3-0.1,0.2-0.5-0.1-0.5c-0.3,0-0.6,0-0.9,0C49.1,87.7,49.1,88.1,49.3,88.2"
				/>
			<g>
				<path class="st9" d="M55,88c0.3,0.1,0.5,0.1,0.8,0.1c0.3,0,0.4-0.5,0.1-0.5c-0.3,0-0.5-0.1-0.8-0.1C54.8,87.6,54.8,88,55,88"/>
				<path class="st9" d="M41.9,87.6c0,7.2,0,14.3,0,21.5c0,0.3,0.4,0.3,0.4,0c0-7.2,0-14.3,0-21.5C42.4,87.4,41.9,87.4,41.9,87.6"/>
			</g>
			<path class="st9" d="M28,68.6c-1.1,0.2-2.2,0.3-3.1,1c-1.1,0.8-1.5,2.2-1.8,3.4c-0.7,3.3-1.2,6.8-1.3,10.2c0,0.3,0.4,0.3,0.5,0
				c0.2-3.1,0.5-6.1,1.1-9.1c0.3-1.3,0.5-2.8,1.4-3.8c0.9-0.9,2.1-1,3.2-1.4C28.4,68.9,28.3,68.6,28,68.6"/>
			<path class="st9" d="M15.9,76.2c-2.6-0.6-4-2.6-5.2-4.8c-0.8-1.4-2.5-4.5-0.3-5.6c0.1,0,0.2-0.2,0.1-0.3
				c-0.3-0.7,0.1-1.3,0.7-1.5c0.1-0.1,0.3-0.1,0.4-0.2c0.6-0.4,0.5-1.1,1.3-1.5c1.5-0.6,3.4-0.2,4.3,1.2c0.2,0.3,0.6,0,0.4-0.3
				c-0.6-1-1.6-1.6-2.7-1.7c-0.9-0.1-2.6,0-3.2,0.8c-0.2,0.2-0.1,0.5-0.3,0.8c-0.2,0.3-0.5,0.3-0.8,0.4c-0.4,0.1-0.7,0.3-0.8,0.7
				c-0.1,0.2-0.1,0.5,0,0.7c0.1,0.5,0.2,0.2-0.1,0.5C9.5,65.8,9.2,66,9,66.4c-0.8,1.8,0.6,4.1,1.4,5.6c1.1,2.1,2.8,4.4,5.4,4.7
				C16.1,76.7,16.1,76.2,15.9,76.2"/>
			<path class="st9" d="M15.4,61.8c-0.4-2-1-4-1.4-6c-0.2-1.1-0.4-2.2-0.5-3.3c0-0.4-0.2-1.2-0.1-1.6c0.3-1,0.9,0.6,1,1
				c1.2,4,2.2,8,3.9,11.8c0,0.1,0.1,0.1,0.2,0.1c0.1,0,0.2,0,0.4,0c0.3,0,0.3-0.5,0-0.5c-0.4,0-0.9-1.7-1-2.1
				c-0.2-0.6-0.5-1.3-0.7-1.9c-0.4-1.3-0.8-2.6-1.2-3.9c-0.4-1.3-0.7-2.6-1.1-3.9c-0.2-0.5-0.5-1.6-1.2-1.7
				c-1.5-0.3-0.6,3.7-0.5,4.3c0.4,2.6,1.2,5.2,1.8,7.7C15,62.2,15.5,62.1,15.4,61.8"/>
			<path class="st9" d="M14.5,69.7c1.3,1.3,1.2,3.3,1.3,5c0,0.3,0.5,0.3,0.5,0c0.1-1.7,0-4.2-1.6-5.4C14.6,69.3,14.3,69.6,14.5,69.7
				"/>
			<path class="st9" d="M19.2,67.5c-0.6-0.5-1-1.1-1.3-1.8c-0.2-0.4-0.6-1.7-0.1-2c0.4-0.2,1.5,0.7,1.9,0.9c0.6,0.4,1.3,0.9,1.6,1.6
				c0.5,1.4-0.5,3-0.9,4.2c-0.5,1.5-1.1,2.9-2.1,4.1c-0.2,0.2,0.1,0.5,0.3,0.3c1.4-1.5,2-3.6,2.8-5.5c0.7-1.8,1-3.5-0.6-4.8
				c-0.7-0.6-1.8-1.3-2.6-1.7c-0.4-0.2-0.7-0.1-0.9,0.4c-0.5,1.6,0.6,3.5,1.8,4.4C19.2,68,19.4,67.7,19.2,67.5"/>
			<path class="st9" d="M12.4,67.6c0.2,0.3,0.5,0.5,0.7,0.8c0.1-0.1,0.1-0.3,0.2-0.4c-0.5,0-1.4,0.1-1.4,0.8c0.1,0.6,0.9,1,1.4,1.2
				c2.1,0.8,3.6-1.3,4.6-2.7c0.2-0.2-0.2-0.5-0.4-0.3c-0.8,1-1.4,2.2-2.7,2.6c-0.5,0.2-1,0.1-1.5-0.1c-0.2-0.1-0.4-0.2-0.5-0.3
				c-0.6-0.4-0.1-0.6,0.4-0.6c0.2,0,0.3-0.3,0.2-0.4c-0.3-0.2-0.5-0.5-0.8-0.7C12.5,67.2,12.2,67.4,12.4,67.6"/>
			<path class="st9" d="M14.8,76.3c0,0.9,0.3,1.8,0.5,2.6c0.1,0.3,0.6,0.2,0.5-0.1c-0.2-0.8-0.3-1.8-0.6-2.5
				C15.1,76,14.8,76,14.8,76.3"/>
			<path class="st9" d="M18.4,74.7c0.2,1,0.5,1.9,0.8,2.8c0.1,0.3,0.6,0.2,0.5-0.1c-0.3-0.9-0.5-1.9-0.9-2.8
				C18.7,74.3,18.3,74.4,18.4,74.7"/>
			<path class="st9" d="M14.1,78.2c0.6,1.5,2,1.8,3.5,1.3c1.6-0.6,2.5-2,2.6-3.7c0-0.3-0.5-0.3-0.5,0c-0.1,1.3-0.8,2.4-1.9,3
				c-0.5,0.3-1.1,0.4-1.6,0.4c-0.9,0-1.4-0.4-1.7-1.2C14.4,77.8,14,78,14.1,78.2"/>
			<path class="st9" d="M14.1,75.8c-0.8,0.6-1.9,1.8-2,2.9c-0.1,1.1,1.3,2,2.1,2.4c0.3,0.1,0.5-0.2,0.3-0.4
				c-0.9-0.6-2.2-1.4-1.5-2.7c0.4-0.7,0.9-1.4,1.5-1.9C14.6,75.9,14.3,75.7,14.1,75.8"/>
			<path class="st9" d="M13.6,80.8c0.7,4.9,2.2,10,4.6,14.3c0.9,1.5,2.2,3.1,4.1,2.9c2.2-0.2,3.7-2.1,4.7-3.9
				c0.2-0.3-0.2-0.5-0.4-0.2c-1.2,1.7-3,4.3-5.5,3.4c-1.9-0.6-2.8-3-3.6-4.6c-1.8-3.9-2.6-8-3.6-12C14,80.4,13.6,80.5,13.6,80.8"/>
			<path class="st9" d="M18.9,74.5c0.8,0.1,1.8,0.1,2.2,1c0.4,0.8,0.1,1.6-0.3,2.3c-0.2,0.3,0.3,0.6,0.5,0.3c0.4-0.9,0.8-2,0.3-2.9
				c-0.5-1-1.6-1.1-2.6-1.1C18.6,74.1,18.6,74.5,18.9,74.5"/>
			<path class="st9" d="M20.8,78c0.4,2.9,1.2,5.8,1.8,8.7c0,0.2,0.4,0.3,0.5,0.1c0.7-0.3,1-0.2,0.9,0.2c0,0.1,0,0.3,0,0.4
				c0,0.3,0.4,0.3,0.5,0.1c0.1-0.6,0.2-1.2-0.4-1.5c-0.5-0.3-1.1,0-1.4,0.5c0.2,0,0.3,0,0.5,0.1c-0.5-2.9-1.1-5.8-1.9-8.6
				C21.2,77.6,20.8,77.8,20.8,78"/>
			<path class="st9" d="M55.6,69c1.8-0.7,3.3,2,4.2,3.2c1.1,1.4,2.2,2.7,3.2,4.1c2.2,2.9,4.5,5.7,6.5,8.7c2.5,3.6-1.1,6.5-3.4,9
				c-1.1,1.2-2.2,2.4-3.3,3.6c-0.4,0.5-0.4,0.8-0.7,1.4c-0.3,0.7-0.5,0.8-1.2,1c-0.5,0.1-1,0.1-1.5-0.2c-0.3-0.2-0.5,0.3-0.3,0.4
				c0.7,0.5,2,0.4,2.8,0c0.4-0.2,0.6-0.6,0.7-1c0.3-0.9,0.8-1.4,1.4-2.1c1.1-1.2,2.2-2.5,3.4-3.7c1-1.1,2.1-2.1,2.9-3.3
				c0.6-1.1,1-2.4,0.6-3.7c-0.4-1.4-1.6-2.7-2.4-3.8c-2-2.7-4.1-5.4-6.2-8c-1.2-1.6-2.4-3.1-3.7-4.7c-0.8-1-1.9-1.8-3.1-1.2
				C55.2,68.7,55.4,69.1,55.6,69"/>
			<g>
				<path class="st9" d="M59.4,99.9c-0.1,0.2-0.2,0.5-0.1,0.7c0.1,0.2,0.4,0.2,0.4-0.1c0-0.2,0-0.3,0.1-0.4c0.1-0.1,0-0.3-0.1-0.3
					C59.6,99.8,59.4,99.8,59.4,99.9"/>
				<path class="st9" d="M58.8,100.6c1.2,1.1,1.5,3.5,1.5,5c0,0.2,0.2,0.3,0.4,0.2c0.5-0.3,0.8-0.9,1.4-1.2c0.5-0.3,1.1-0.3,0.8,0.3
					c-0.2,0.6-0.9,1.1-1.3,1.5c-0.5,0.4-0.9,0.9-1.5,1.2c-1.3,0.8-1.9-0.5-2.3-1.6c-0.1-0.3-0.6-0.2-0.5,0.1c0.4,1.2,1.2,2.7,2.7,2
					c0.9-0.4,1.6-1.2,2.3-1.8c0.4-0.4,1.5-1.4,1.1-2.1c-0.7-1.4-2.5,0.7-3,1c0.1,0.1,0.3,0.1,0.4,0.2c-0.1-1.7-0.3-4.2-1.7-5.3
					C58.9,100.1,58.6,100.4,58.8,100.6"/>
			</g>
			<path class="st9" d="M56.5,80.5c2.4,2,4.5,4.5,6.2,7.1c0.2,0.3,0.6,0,0.4-0.2c-1.8-2.6-3.9-5.1-6.4-7.2
				C56.6,80,56.3,80.3,56.5,80.5"/>
			<path class="st9" d="M60.3,99.9c-1.3-0.2-2-1-2.8-1.9c-0.2-0.2-0.5,0.1-0.4,0.3c0.6,1.1,1.8,2,3.1,2.1
				C60.4,100.4,60.5,100,60.3,99.9"/>
			<g>
				<path class="st9" d="M63.6,86.1c-0.5,0.3-1.4,1-0.7,1.6c0-0.1,0-0.3-0.1-0.4c-1,0.9-2,1.9-3,2.9c-0.4,0.5-0.9,1-1.3,1.5
					c-0.3,0.4-1,1.3-1.5,1.5c-0.3,0.1-0.2,0.5,0.1,0.5c0.5-0.1,0.7-0.3,1-0.7c0.5-0.6,1-1.2,1.6-1.8c1.1-1.2,2.2-2.4,3.4-3.4
					c0.1-0.1,0.1-0.3-0.1-0.4c0.1-0.3,0.3-0.6,0.7-0.7C64,86.3,63.8,86,63.6,86.1"/>
				<path class="st9" d="M27,86.3c-0.3,8-0.7,15.9-1,23.9c-0.3,8-0.8,16-0.7,24c0,0.3,0.5,0.3,0.5,0c0.4-8,0.6-16,0.8-24
					c0.3-8,0.7-15.9,0.9-23.9C27.4,86,27,86,27,86.3"/>
				<path class="st9" d="M56.6,84.1c0.1,3.2,0.1,6.4,0.2,9.6c0.2,3.2,0.3,6.4,0.5,9.6c0.3,6.5,0.5,13.1,0.7,19.6
					c0.1,3.7,0.2,7.5,0.3,11.2c0,0.3,0.5,0.3,0.5,0c0.1-6.6-0.3-13.2-0.6-19.7c-0.2-6.5-0.5-13-0.9-19.4c-0.1-1.7-0.2-3.4-0.3-5.2
					c-0.1-1.9,0-3.8-0.1-5.7C57,83.8,56.6,83.8,56.6,84.1"/>
			</g>
			<g>
				<defs>
					<path id="SVGID_5_" d="M66.7,18.8c-2.5-5.6-6.8-10.6-12.2-13.4c-2.1-2.3-6.5-3.1-9.2-3.6C41.7,1.2,37.4,2.3,34,3.6
						c-7.1,2.7-13.2,8.3-16.3,15.3c-2.4,5.4-3.3,11.4-3.1,17.3c0,1.4,0.2,2.8,0.4,4.2c0.4,2.7,1.1,5.3,2.4,7.7
						c1.9,3.6,5.3,6.7,9.3,7.5c0.8,0.2,1,0.6,1.7,0.7c3.6,2.4,8.5,3.5,12.5,3.6c0.4,0,0.8,0,1.3,0h0.1c0.4,0,0.9,0,1.3,0
						c3.9-0.1,8.9-1.2,12.5-3.6c0.8-0.1,1-0.5,1.7-0.7c4-0.9,7.4-3.9,9.3-7.5c1.9-3.6,2.6-7.8,2.7-11.9C70,30.2,69.1,24.2,66.7,18.8
						 M50.5,16.7c0.1,0.1,0.3,0.2,0.4,0.4C50.7,17,50.6,16.8,50.5,16.7z"/>
				</defs>
				<clipPath id="SVGID_6_">
					<use xlink:href="#SVGID_5_"  style="overflow:visible;"/>
				</clipPath>
				<path class="st10" d="M52,17.1c-0.3-0.2-0.6-0.4-0.9-0.6c-0.1,0-0.9-0.2-0.9-0.2c0,0.2,0.1,0.3,0.2,0.5
					c-1.5-1.4-3.7-1.9-5.8-1.9c-0.3-0.1-0.5-0.2-0.7-0.3c1.1-0.3,2.2-0.4,3.3-0.4c2.6,0.1,4.9,1.7,6.3,3.8c0.2,0.3,0.3,0.5,0.4,0.8
					l0,0c-0.2-0.2-0.4-0.3-0.6-0.5l0,0C52.9,17.9,52.5,17.4,52,17.1"/>
				<path class="st11" d="M66.7,18.8c-2.5-5.6-6.8-10.6-12.2-13.4c-2.1-2.3-6.5-3.1-9.2-3.6C41.7,1.2,37.4,2.3,34,3.6
					c-7.1,2.7-13.2,8.3-16.3,15.3c-2.4,5.4-3.3,11.4-3.1,17.3c0,1.4,0.2,2.8,0.4,4.2c0.4,2.7,1.1,5.3,2.4,7.7
					c1.9,3.6,5.3,6.7,9.3,7.5c0.8,0.2,1,0.6,1.7,0.7c-2.6-1.8-4.5-4.3-4.6-7.7l-0.3,0c-3.3-1.1-5.7-4.5-5.7-7.9
					c0.4,0.1,0.8,0.1,1.2,0c1.4-0.2,2.5-1.3,3.4-2.4c1.7-2.1,2.4-4.7,3.7-7c1.4-2.5,2.9-4.9,4.8-7.1c2.8-3.4,6.3-6.5,10.2-8.5
					c0.9-0.5,2-0.9,3-1.2c1.1-0.3,2.2-0.4,3.3-0.4c2.6,0.1,4.9,1.7,6.3,3.8c0.2,0.3,0.3,0.5,0.4,0.8l0,0c1.4,1.3,2.7,2.7,3.9,4.3
					c3,4.3,4.6,9.6,4.5,14.8l0.5,0c1-0.7,2.2-0.8,3,0.2c0.5,0.7,0.7,1.5,0.7,2.3c0.1,3.5-2.3,7-5.7,8.1l-0.3,0
					c-0.2,3.4-2,5.9-4.6,7.7c0.8-0.1,1-0.5,1.7-0.7c4-0.9,7.4-3.9,9.3-7.5c1.9-3.6,2.6-7.8,2.7-11.9C70,30.2,69.1,24.2,66.7,18.8"/>
				<path class="st10" d="M65.7,19.7c-2.4-5.4-6.5-10.3-11.7-13c-2-2.2-6.2-3-8.9-3.5c-3.5-0.6-7.6,0.4-10.8,1.7
					c-6.8,2.6-12.7,8-15.6,14.8c-2.3,5.2-3.2,11-3,16.7c0,1.4,0.1,2.7,0.3,4.1c0.4,2.6,1.1,5.1,2.3,7.4c1.9,3.5,5.1,6.4,8.9,7.3
					c0.8,0.2,0.9,0.6,1.7,0.7c-2.5-1.7-4.3-4.2-4.4-7.4l-0.3,0c-3.1-1.1-5.5-4.3-5.4-7.7c0.4,0.1,0.7,0.1,1.1,0
					c1.3-0.2,2.4-1.2,3.2-2.3c1.6-2,2.3-4.5,3.5-6.8c1.3-2.4,2.8-4.8,4.6-6.9c2.7-3.3,6-6.2,9.8-8.2c0.9-0.5,1.9-0.9,2.9-1.1
					c1-0.3,2.1-0.4,3.1-0.4c2.5,0.1,4.7,1.6,6.1,3.6c0.2,0.2,0.3,0.5,0.4,0.8l0,0c1.4,1.2,2.6,2.6,3.7,4.2c2.9,4.2,4.4,9.3,4.3,14.3
					l0.5,0c0.9-0.7,2.1-0.8,2.9,0.2c0.5,0.6,0.7,1.5,0.7,2.3c0.1,3.4-2.3,6.7-5.4,7.8l-0.3,0c-0.2,3.3-1.9,5.7-4.4,7.4
					c0.7-0.1,0.9-0.5,1.7-0.7c3.9-0.8,7.1-3.8,8.9-7.3c1.9-3.5,2.5-7.5,2.6-11.5C68.9,30.7,68,24.9,65.7,19.7"/>
				<path class="st11" d="M18.5,17.3c0.7,2.4,3.7,3.8,5.8,2.2c-0.3-0.1-0.7-0.2-1-0.3c0.7,2,3,2.7,4.6,1.2c0.5-0.5-0.3-1.3-0.8-0.8
					c-0.9,0.8-2.2,0.5-2.6-0.7c-0.2-0.5-0.6-0.5-1-0.3c-1.4,1.1-3.4-0.2-3.8-1.6C19.4,16.3,18.3,16.6,18.5,17.3"/>
				<path class="st11" d="M65.5,19c-0.7,1.1-1.8,1.5-3.1,1.7c-0.7,0.1-0.5,1.1,0.2,1.1c1.6,0.1,3.1-1,3.8-2.3
					C66.7,18.9,65.8,18.5,65.5,19"/>
				<path class="st12" d="M50.5,16.7c0.1,0.1,0.2,0.3,0.4,0.4C50.7,16.9,50.6,16.8,50.5,16.7 M23.5,48.6c-3.3-1.1-5.7-4.5-5.7-7.9
					c0.4,0.1,0.8,0.1,1.2,0c1.4-0.2,2.5-1.3,3.4-2.4c1.7-2.1,2.4-4.7,3.7-7c1.4-2.5,2.9-4.9,4.8-7.1c2.8-3.4,6.3-6.5,10.2-8.5
					c0.9-0.5,2-0.9,3-1.2c0.2,0.1,0.4,0.2,0.7,0.3c2.1,0,4.2,0.5,5.8,1.9c-0.1-0.1-0.2-0.3-0.2-0.5c0,0,0.8,0.2,0.9,0.2
					c0.3,0.1,0.6,0.3,0.9,0.6c0.5,0.4,0.9,0.8,1.3,1.2l0,0c0.2,0.2,0.4,0.3,0.6,0.5c1.4,1.3,2.7,2.7,3.9,4.3c3,4.3,4.6,9.6,4.5,14.8
					c0,0.6,0,1.2-0.1,1.7l0.1,0c-0.5,2.4-1,5.1-1.6,7.5L60.7,48c0,0.2,0,0.4,0,0.6c-0.2,3.4-2,5.9-4.6,7.7
					c-3.6,2.4-8.5,3.5-12.5,3.6c-0.4,0-0.8,0-1.3,0h-0.1c-0.4,0-0.9,0-1.3,0c-3.9-0.1-8.9-1.2-12.5-3.6c-2.6-1.8-4.5-4.3-4.6-7.7
					L23.5,48.6z"/>
				<path class="st13" d="M33.5,47.6c0,2-1.6,3.6-3.7,3.7c-2,0-3.7-1.6-3.7-3.6c0-2,1.6-3.6,3.7-3.7C31.9,43.9,33.5,45.6,33.5,47.6"
					/>
				<path class="st13" d="M58,47.6c0,2-1.6,3.6-3.7,3.7c-2,0-3.7-1.6-3.7-3.6c0-2,1.6-3.6,3.7-3.7C56.3,43.9,58,45.6,58,47.6"/>
				<path class="st12" d="M66.6,40.5c0.1,3.5-2.3,7-5.7,8.1l-0.3,0c0-0.2,0-0.4,0-0.6l0.2-0.8c0.5-2.4,1.1-5.1,1.6-7.5l-0.1,0
					c0-0.6,0.1-1.2,0.1-1.7l0.5,0c1-0.7,2.2-0.8,3,0.2C66.4,38.8,66.6,39.7,66.6,40.5"/>
			</g>
			<path class="st9" d="M21.6,39c0.5,2.8,1,5.5,1.7,8.3c0.1,0.3,0.6,0.2,0.5-0.1c-0.6-2.8-1.1-5.5-1.8-8.2
				C22,38.6,21.6,38.7,21.6,39"/>
			<path class="st9" d="M42.1,59.7c-7.2-0.1-18-2.8-18.1-11.7c0-0.4-0.6-0.4-0.6,0c-0.2,9.2,11.3,12.3,18.7,12.2
				C42.4,60.1,42.4,59.7,42.1,59.7"/>
			<path class="st9" d="M17.5,40.6c0,3.7,2.4,7,5.9,8.2c0.4,0.1,0.5-0.4,0.2-0.6c-3.2-1.1-5.4-4.3-5.4-7.7
				C18.1,40.3,17.5,40.3,17.5,40.6"/>
			<path class="st9" d="M23,45.6c-1.5-0.3-2.4-1.7-2.7-3.1c0-0.2-0.5-0.2-0.4,0.1c0.2,1.6,1.3,3.2,3,3.5C23.2,46,23.3,45.6,23,45.6"
				/>
			<path class="st0" d="M29.6,34.8c-0.9,1.1-1.4,2.7-1.5,4c-0.1,1.4,0.3,2.8,1.3,3.8c1.1,1.1,3.1,1.7,4.5,0.7c1.4-0.9,1.9-2.9,2-4.4
				c0-2.2-1.2-4.5-2.8-5.1C31.6,33.1,30.4,33.7,29.6,34.8"/>
			<path class="st9" d="M33.3,43c-1.6-0.3-2.7-2.1-2.8-3.7c0-1.9,1.7-3.5,3.5-2.4c1.5,0.9,1.5,2.8,1.2,4.4c-0.2,0.8-0.5,1.7-1.4,1.9
				c-0.8,0.2-1.8,0.1-2.5-0.2c-1.5-0.6-1.8-2.9-1.7-4.3c0.1-1.6,1.2-3.2,3-3.3c4.2-0.1,3.7,8.4,0.1,7.3c-1.7-0.5-2.6-2.6-2.1-4.2
				c0.3-0.9,1.1-2,2.1-1.8c0.9,0.2,1.4,1.1,1.5,2c0.2,0.9,0.2,1.9-0.2,2.8c-0.5,0.9-1.6,1.3-2.6,0.8c-1.7-0.8-1.7-3.2-1.1-4.7
				c0.3-0.7,0.8-1.6,1.5-1.9c1.1-0.5,2,0.4,2.5,1.3c0.7,1.2,0.7,2.8,0,4c-0.5,0.8-1.3,1.6-2.3,1c-0.7-0.4-1.3-1.1-1.5-1.9
				c-0.2-0.8-0.1-1.7,0.3-2.4c0.4-0.6,1-1.2,1.8-1c0.6,0.2,1,0.7,1.3,1.3c0.3,0.8,0.4,1.8,0.1,2.6c-0.3,0.8-1,1.4-1.8,1
				c-0.6-0.3-0.9-0.8-1.1-1.4c-0.4-1-0.5-2.1,0.4-2.8c1.1-0.8,2.4,0.1,2.6,1.3c0.2,1.2-0.6,3.8-2,2.1c-0.6-0.7-0.6-2.1-0.4-3
				c0.2-0.7,1.3-0.6,1.7-0.1c0.3,0.4,0.4,0.8,0.5,1.3c0.1,0.9-0.4,3.1-1.9,2.3c-0.3-0.2-0.5,0.3-0.3,0.4c2.2,1.2,3-2.3,2.4-3.8
				c-0.3-0.7-1.2-1.8-2.1-1.5c-1,0.4-1,1.9-0.9,2.8c0.1,0.8,0.5,2.3,1.5,2.5c1.1,0.2,1.7-0.8,1.9-1.7c0.2-1.1,0.1-2.4-0.8-3.2
				c-0.7-0.6-1.8-0.6-2.5,0c-0.9,0.7-1.1,1.9-0.7,2.9c0.3,0.9,0.9,2.2,1.9,2.4c2.7,0.4,2.6-3.9,1.6-5.3c-1.8-2.4-4.2,0.4-4,2.5
				c0.2,1.9,2.5,4.4,4.2,2.5c1.5-1.7,1.6-4.5,0-6.2c-2-2.2-4.3,0.2-4.7,2.4c-0.4,2.1,0.7,5.5,3.5,4.7c2.3-0.7,2.4-4.4,1-6
				c-1.8-2.2-4.1,0.4-4.2,2.5c0,2.2,2.3,4.9,4.6,3.5c2.1-1.2,2-5.1,0.6-6.8c-1.5-1.9-4.3-1.5-5.5,0.5c-0.7,1.1-0.7,2.5-0.5,3.8
				c0.2,1.1,0.5,2.4,1.6,3c1,0.5,2.5,0.7,3.5,0.3c1.1-0.5,1.4-1.7,1.6-2.8c0.3-2.2-0.7-5.2-3.4-4.9c-2.8,0.3-3,3.7-1.9,5.6
				c0.6,1,1.4,1.7,2.6,1.9C33.5,43.5,33.6,43.1,33.3,43"/>
			<path class="st9" d="M31.7,36.5c0.5-0.7,1.4-0.8,2.1-0.4c0.7,0.4,1,1.1,1.1,1.9c0.2,1.3,0,2.8-0.5,4c-0.1,0.3,0.3,0.5,0.4,0.2
				c0.7-1.6,1.1-4.3,0.1-5.8c-0.8-1.2-2.6-1.4-3.5-0.1C31.2,36.6,31.5,36.8,31.7,36.5"/>
			<path class="st9" d="M28,38.7c-0.1-2.3,1.2-5.5,4-5.1c0-0.2,0-0.4,0-0.5c-2.7,0.8-4.8,3.2-4.5,6.2c0,0.3,0.5,0.3,0.5,0
				c0-2.6,1.4-4.8,3.9-5.6c0.3-0.1,0.2-0.6-0.1-0.5c-2.8,0.7-4.2,3.4-4.2,6.1c0.2,0,0.3,0,0.5,0c-0.1-2.7,1.6-4.9,4.1-5.6
				c0.2-0.1,0.3-0.5,0-0.5c-3.1-0.5-4.8,2.9-4.6,5.6C27.6,39,28,39,28,38.7"/>
			<path class="st9" d="M28.1,39.6c0.2-3.1,2.4-6,5.8-5.3c0.3,0.1,0.5-0.4,0.2-0.5c-0.7-0.5-1.5-0.7-2.4-0.7c-0.4,0-0.4,0.6,0,0.6
				c0.8,0,1.5,0.2,2.1,0.6c0.1-0.2,0.2-0.4,0.2-0.5c-3.7-0.8-6.3,2.3-6.4,5.8C27.7,39.9,28.1,39.9,28.1,39.6"/>
			<path class="st9" d="M27.9,36.5c-0.3,0.1-0.6,0-0.8-0.3c-0.2-0.3-0.2-0.7-0.2-1c0-0.3-0.5-0.3-0.5,0c0,0.5,0.1,1.1,0.5,1.5
				c0.4,0.3,0.8,0.4,1.2,0.2C28.3,36.8,28.1,36.4,27.9,36.5"/>
			<path class="st9" d="M41.9,43.9c0.1,0.3,0.1,0.6-0.2,0.8c-0.2,0.3,0.1,0.6,0.4,0.4c0.3-0.4,0.4-0.9,0.2-1.4
				C42.2,43.4,41.8,43.6,41.9,43.9"/>
			<path class="st0" d="M48.6,49.3c-2.6,9.4-9.9,9.5-12.9,0H48.6"/>
			<path class="st9" d="M48.4,49.3c-0.8,2.8-2.6,6.9-6.1,6.9c-3.5,0-5.4-4.1-6.4-6.9c-0.1,0.1-0.2,0.2-0.3,0.4c4.3,0,8.6,0,12.9,0
				c0.4,0,0.4-0.6,0-0.6c-4.3,0-8.6,0-12.9,0c-0.2,0-0.3,0.2-0.3,0.4c1,3.1,3.1,7.3,6.9,7.3c3.7,0,5.7-4.3,6.5-7.3
				C48.9,49.1,48.4,49,48.4,49.3"/>
			<path class="st9" d="M55.3,6.1c-1.2-2-3.5-2.9-5.7-3.6c-2.5-0.8-5.3-1.3-7.9-1.1c-5.9,0.4-11.8,3.1-16.3,6.9
				c-4.7,3.9-8,9.2-9.6,15.1c-1.8,6.4-2.2,13.8-0.4,20.3c0.9,3.3,2.5,6.4,5,8.8c1.1,1.1,2.4,1.9,3.8,2.6c0.7,0.3,1.4,0.5,2.1,0.7
				c0.7,0.2,1.4,0.6,2.1,0.8c0.4,0.1,0.5-0.5,0.2-0.6c-0.5-0.1-0.9-0.4-1.4-0.6c-0.6-0.2-1.3-0.3-1.9-0.6c-1.4-0.5-2.6-1.3-3.8-2.2
				c-2.3-1.9-3.9-4.4-4.9-7.2c-2.2-6-2.1-13.1-0.8-19.3c1.2-5.8,3.8-11.3,8-15.5c4-4.1,9.2-6.9,14.7-8.2c3.2-0.7,6.1-0.6,9.3,0.1
				c2.6,0.6,5.6,1.4,7.2,3.7C55.1,6.5,55.5,6.3,55.3,6.1"/>
			<path class="st9" d="M26.4,28.1c1-1.9,3.2-4,5.1-1.8c0.2,0.2,0.5-0.1,0.4-0.3c-0.7-1-1.9-1.4-3.1-1c-1.3,0.4-2.1,1.7-2.7,2.9
				C25.9,28.1,26.3,28.3,26.4,28.1"/>
			<path class="st9" d="M54.3,18.6c-0.3-1.2-1.5-2.4-2.5-3.1c-1.1-0.9-2.4-1.4-3.8-1.6c-3.2-0.4-6.4,1-9.1,2.7
				C33,20.3,28.2,26,25.2,32.2c-0.8,1.7-1.5,3.6-2.6,5.2c-1.1,1.5-3.5,4.2-5.5,2.6c-0.3-0.2-0.7,0.2-0.4,0.4
				c2.2,1.8,4.8-0.5,6.2-2.3c1-1.4,1.7-3,2.4-4.5c0.7-1.6,1.5-3.1,2.4-4.6c1.9-3.1,4.2-6,7-8.5c2.5-2.3,5.5-4.5,8.8-5.5
				c1.9-0.6,4-0.9,5.9-0.2c1.6,0.6,3.8,2.2,4.3,4C53.8,19.1,54.4,19,54.3,18.6"/>
			<path class="st9" d="M44.7,15c2.2,0,4.4,0.6,6,2.2c0.1-0.1,0.2-0.2,0.4-0.4c-0.3-0.2-0.4-0.4-0.5-0.7c-0.1,0.1-0.2,0.2-0.3,0.3
				c0.4,0.2,0.8,0.2,1.2,0.4c0.8,0.4,1.4,1.2,2.1,1.8c0.2,0.2,0.6-0.1,0.4-0.4c-0.6-0.6-1.3-1.3-2.1-1.8c-0.4-0.3-0.9-0.3-1.4-0.5
				c-0.2-0.1-0.5,0.1-0.4,0.3c0.2,0.4,0.3,0.7,0.7,0.9c0.2,0.2,0.6-0.1,0.4-0.4c-1.7-1.7-4-2.3-6.3-2.3C44.4,14.5,44.4,15,44.7,15"
				/>
			<path class="st9" d="M62.4,38.9c-0.6,2.7-1.2,5.5-1.8,8.2c-0.1,0.3,0.4,0.5,0.5,0.1c0.7-2.7,1.2-5.5,1.7-8.3
				C62.8,38.7,62.4,38.6,62.4,38.9"/>
			<path class="st9" d="M42.3,60.2C49.7,60.3,61.1,57.2,61,48c0-0.4-0.6-0.4-0.6,0c-0.1,8.9-10.9,11.7-18.1,11.7
				C42,59.7,42,60.1,42.3,60.2"/>
			<path class="st9" d="M63,38.2c1.5-1,2.9-0.2,3.2,1.5c0.2,1.2,0,2.5-0.4,3.7c-0.8,2.3-2.7,4.1-5,5c-0.4,0.1-0.2,0.7,0.2,0.6
				c2.9-1,5.2-3.7,5.7-6.7c0.2-1.4,0.3-3.1-0.7-4.2c-0.9-1.1-2.3-1-3.4-0.3C62.4,37.9,62.7,38.4,63,38.2"/>
			<path class="st9" d="M61.5,46c1.7-0.3,2.8-1.9,3-3.5c0-0.2-0.4-0.3-0.4-0.1c-0.2,1.5-1.1,2.9-2.7,3.1C61.1,45.6,61.2,46,61.5,46"
				/>
			<path class="st0" d="M54.9,34.8c0.9,1.1,1.4,2.7,1.5,4c0.1,1.4-0.3,2.8-1.3,3.8c-1.1,1.1-3.1,1.7-4.5,0.7c-1.4-0.9-1.9-2.9-2-4.4
				c0-2.2,1.2-4.5,2.8-5.1C52.8,33.1,54,33.7,54.9,34.8"/>
			<path class="st9" d="M51.2,43.5c2.4-0.3,3.9-3.4,3.1-5.5c-0.8-2.3-3.7-2.6-5.1-0.7c-1.2,1.6-1.2,5.5,0.9,6.4
				c1,0.4,2.5,0.2,3.5-0.3c1.1-0.6,1.5-1.9,1.7-3.1c0.4-2.3-0.5-5-3.2-5.4c-2.9-0.3-3.9,2.8-3.8,5.1c0.1,1.2,0.5,2.4,1.5,3
				c1.1,0.6,2.3,0.3,3.2-0.5c1.7-1.5,2.1-4.8-0.2-6.1c-0.9-0.5-2-0.2-2.6,0.6c-0.8,0.9-0.9,2.4-0.8,3.5c0.3,2.4,3.1,3.6,4.7,1.5
				c1.4-1.9,0.8-5.5-1.3-6.7c-2.3-1.3-4,2-3.9,3.8c0,1.9,1.7,4.8,3.8,3.2c1.8-1.3,2.3-4.4,0.3-5.8c-0.9-0.6-2-0.2-2.6,0.6
				c-0.7,1-0.9,2.4-0.6,3.6c0.3,1,1.1,1.9,2.2,1.7c1.1-0.2,1.7-1.6,1.9-2.5c0.3-1,0.1-2.1-0.8-2.8c-0.8-0.6-1.8-0.5-2.5,0.1
				c-1,0.8-1.1,2.2-0.8,3.3c0.2,0.9,0.9,1.8,1.9,1.6c1.7-0.4,2.3-4.6,0.6-5.3c-0.9-0.4-1.8,0.7-2.1,1.5c-0.4,0.9-0.4,2.1,0.1,3
				c0.5,0.8,1.4,1.3,2.2,0.8c0.3-0.2,0-0.6-0.3-0.4c-0.3,0.1-1.1-0.2-1.3-0.3c-0.1-0.1-0.2-0.3-0.3-0.4c-0.2-0.3-0.3-0.7-0.3-1.1
				c0-0.6,0.2-1.9,0.9-2.2c0.2,0,0.4,0,0.6,0c0.4-0.2,0.6-0.1,0.7,0.2c0.1,0.2,0.1,0.5,0.2,0.8c0,0.4,0,0.8-0.1,1.2
				c-0.1,0.4-0.2,0.9-0.4,1.2c-0.4,0.4-0.7,0.6-1.1,0.4c-0.5-0.2-0.6-0.6-0.8-1.1c-0.2-0.8-0.2-2,0.5-2.6c0.8-0.9,2.1-0.5,2.6,0.5
				c0.4,0.9,0,1.9-0.4,2.6c-0.3,0.5-0.6,1-1.3,1.1c-0.7,0.1-1.2-0.8-1.4-1.3c-0.2-0.8-0.2-1.6,0.1-2.4c0.2-0.5,0.4-0.9,0.7-1.2
				c0.8-0.7,1.8-0.2,2.2,0.6c0.9,1.5,0.4,3.4-1,4.3c-1.7,1.2-2.9-1.5-2.9-2.8c0-1.4,1-4,2.8-3.5c1.7,0.4,2.3,3.1,2.1,4.6
				c-0.1,0.8-0.5,1.6-1.2,2c-0.9,0.6-2.1,0.4-2.7-0.5c-0.8-1.2-0.7-4.3,1-4.9c2.2-0.8,2.8,2.7,2.2,4.1c-0.3,0.7-0.9,1.4-1.7,1.7
				c-1.2,0.5-2.4-0.2-2.8-1.3c-0.5-1.4-0.4-3.4,0.4-4.6c1-1.5,3-1.6,4.3-0.3c1.2,1.2,1.1,3.2,0.7,4.7c-0.2,0.9-0.7,1.7-1.7,2
				c-0.8,0.2-2.2,0.4-2.9-0.2c-1.2-1-1.2-3.7-0.5-4.9c1.1-2,3.9-1.6,4.4,0.6c0.4,1.8-0.9,4.2-2.7,4.5C50.9,43.1,50.9,43.5,51.2,43.5
				"/>
			<path class="st9" d="M53.1,36.3c-0.9-1.3-2.6-1.1-3.5,0.1c-1.1,1.5-0.7,4.2,0.1,5.8c0.1,0.3,0.5,0,0.4-0.2
				c-0.5-1.2-0.7-2.7-0.5-4c0.1-0.6,0.3-1.3,0.8-1.7c0.7-0.6,1.8-0.6,2.4,0.2C52.9,36.8,53.3,36.6,53.1,36.3"/>
			<path class="st9" d="M56.9,38.7c0.3-2.7-1.4-6.1-4.6-5.6c-0.3,0-0.2,0.5,0,0.5c2.5,0.7,4.3,3,4.1,5.6c0.2,0,0.3,0,0.5,0
				c0-2.7-1.4-5.4-4.2-6.1c-0.3-0.1-0.5,0.4-0.1,0.5c2.5,0.8,3.9,3.1,3.9,5.6c0,0.3,0.5,0.3,0.5,0c0.3-2.9-1.7-5.4-4.5-6.2
				c0,0.2,0,0.3,0,0.5c2.8-0.4,4,2.8,4,5.1C56.4,39,56.8,39,56.9,38.7"/>
			<path class="st9" d="M56.7,39.6c0-3.5-2.6-6.6-6.4-5.8c0.1,0.2,0.2,0.4,0.2,0.5c0.7-0.5,1.3-0.6,2.1-0.6c0.4,0,0.4-0.6,0-0.6
				c-0.9,0-1.7,0.2-2.4,0.7c-0.3,0.2-0.1,0.6,0.2,0.5c3.4-0.7,5.6,2.1,5.8,5.3C56.3,39.9,56.7,39.9,56.7,39.6"/>
			<path class="st9" d="M56.3,36.9c0.4,0.2,0.9,0.1,1.2-0.2c0.4-0.4,0.5-1,0.5-1.5c0-0.3-0.5-0.3-0.5,0c0,0.3,0,0.7-0.2,1
				c-0.2,0.3-0.5,0.4-0.8,0.3C56.3,36.4,56.1,36.8,56.3,36.9"/>
			<path class="st9" d="M54.4,5.6c7,4.1,11.8,10.8,13.9,18.7c1.1,4.3,1.5,8.7,1.2,13.1c-0.3,4.2-1.2,8.5-3.6,12.1
				c-1.2,1.7-2.7,3.3-4.5,4.4c-0.9,0.5-1.8,1-2.8,1.3c-0.5,0.1-1,0.2-1.4,0.4c-0.4,0.2-0.8,0.4-1.3,0.5c-0.4,0.1-0.2,0.6,0.2,0.6
				c0.8-0.1,1.6-0.6,2.4-0.8c0.9-0.2,1.7-0.6,2.5-1c1.7-0.9,3.1-2.1,4.4-3.5c2.7-3.2,4-7.2,4.5-11.3c1.1-8.8-0.4-18.4-5.4-25.8
				c-2.5-3.6-5.8-7-9.8-8.9C54.4,5.1,54.1,5.5,54.4,5.6"/>
			<path class="st9" d="M58.4,27.9c-0.6-1.2-1.4-2.4-2.7-2.9c-1.2-0.4-2.4,0-3.1,1c-0.1,0.2,0.2,0.5,0.4,0.3
				c1.9-2.2,4.1-0.1,5.1,1.8C58.2,28.3,58.5,28.1,58.4,27.9"/>
			<path class="st9" d="M53.2,18.4c6.2,5.2,9.4,13.2,8.8,21.2c0,0.4,0.6,0.4,0.6,0c0.6-8.2-2.7-16.3-9-21.6
				C53.3,17.8,52.9,18.2,53.2,18.4"/>
			<path class="st9" d="M60.1,17.7c1.7,2.7,2.7,5.7,3.3,8.8c0.6,3.2,0.5,6.3,0.2,9.5c0,0.3,0.5,0.4,0.5,0.1c0.5-3.1,0.3-6.5-0.2-9.5
				c-0.6-3.2-1.7-6.3-3.4-9.1C60.3,17.1,59.9,17.4,60.1,17.7"/>
			<path class="st9" d="M19.9,36.3c1.3-0.3,2-1.3,2.6-2.5c0.8-1.6,1.5-3.2,2.3-4.8c1.7-3.3,3.6-6.5,6-9.3c2.2-2.6,4.9-5,7.9-6.6
				c3.2-1.7,7.3-3.1,10.7-1.4c0.3,0.1,0.5-0.3,0.2-0.4c-2.3-1.3-5-0.9-7.4-0.2c-2.6,0.8-4.9,2.1-7.1,3.7c-4.5,3.4-7.8,8.1-10.4,13
				c-0.8,1.5-1.5,3-2.2,4.5c-0.6,1.4-1.3,3.2-2.9,3.7C19.5,36,19.6,36.4,19.9,36.3"/>
		</g>
	</g>
</g>
</svg>
