<?xml version="1.0" encoding="utf-8"?>
<!-- Generator: Adobe Illustrator 23.0.5, SVG Export Plug-In . SVG Version: 6.00 Build 0)  -->
<svg version="1.1" id="圖層_2" xmlns="http://www.w3.org/2000/svg" xmlns:xlink="http://www.w3.org/1999/xlink" x="0px" y="0px"
	 viewBox="0 0 91.9 158.2" style="enable-background:new 0 0 91.9 158.2;" xml:space="preserve">
<style type="text/css">
	.st0{fill:#F5FBFE;}
	.st1{fill:#FAD5BC;}
	.st2{fill:#60636C;}
	.st3{fill:#ECE9E0;}
	.st4{fill:#E3746B;}
	.st5{fill:#352621;}
	.st6{clip-path:url(#SVGID_2_);fill:#604933;}
	.st7{clip-path:url(#SVGID_2_);fill:#FFFFFF;}
	.st8{clip-path:url(#SVGID_2_);fill:#FAD5BC;}
	.st9{clip-path:url(#SVGID_2_);fill:#F8C3AD;}
	.st10{fill:#FFFFFF;}
	.st11{fill:#0E0404;}
	.st12{fill-rule:evenodd;clip-rule:evenodd;fill:#931E23;}
</style>
<g>
	<g>
		<path class="st0" d="M73,84.5c0.5-0.1,1.1,0.1,1.6,0.4c0.7,0.4,1.2,1,1.6,1.7c4.7,5.9,9.3,11.7,13.7,17.9c0.5,0.8,1.1,1.6,1.4,2.4
			c0.4,1.5,0.1,3.1-0.7,4.4c-0.8,1.3-1.9,2.4-2.9,3.5c-1.3,1.3-2.5,2.6-3.7,3.9c-0.6,0.7-1.2,1.3-1.8,2c-0.3,0.3-0.6,0.6-0.8,0.9
			c-0.2,0.3-0.3,0.6-0.3,1c0,0.2-0.1,0.3-0.1,0.5c-0.2,0.4-0.6,0.8-1,0.9c-0.2,0.1-0.4,0.1-0.7,0.1c-0.6,0.1-1.3,0.2-1.8-0.1
			c0,0,0-0.1,0-0.1l0,0c-0.7-0.2-1.3-0.6-1.8-1.1c-0.4-0.4-0.7-0.8-1-1.2h0c-0.1-2-0.2-4.1-0.3-6.1h0c0.1,0,0.2,0,0.3-0.1
			c0.5-0.2,0.7-0.8,1.1-1.2c0.5-0.5,1-1.1,1.5-1.7c1-1.1,2-2.2,3.1-3.2c0.4-0.4,0.8-0.8,1.3-1.2c-0.8-1.2-1.9-2.4-2.8-3.6
			c-1.1-1.4-2.3-2.8-3.6-4c-0.5-0.5-1-0.9-1.5-1.3c0,1.3,0.1,2.6,0.2,3.9c0,0.6,0,1.2,0,1.9l-1.1,0c0-0.9-0.1-1.9-0.2-2.8
			c-0.4-2.6-1.4-5.2-3.1-6.8c-0.2-0.1-0.4-0.2-0.4-0.5c-0.2-3-0.6-6.1-1.4-9c-0.4-1.7-1.1-3.4-2-4.9L66,81
			C68.4,82.1,70.7,83.3,73,84.5"/>
		<path class="st1" d="M76.9,124.6c0.4,0.4,0.7,0.9,0.8,1.4c0.2,0.5,0.3,1,0.5,1.5c0.3,1.1,0.5,2.2,0.5,3.4c0.5-0.3,0.8-0.7,1.2-1.1
			c0.3-0.3,0.7-0.6,1.1-0.7c0.1,0,0.2,0,0.3,0c2.7,0.2-2.6,4.4-3.4,4.8c-1.6,0.7-2.3-0.6-2.9-2.2c-0.1-3.4-0.3-6.8-0.4-10.1h0
			c0.3,0.4,0.6,0.8,1,1.2c0.5,0.5,1.1,0.9,1.8,1.1l0,0c0,0,0,0.1,0,0.1c-0.1,0.2-0.1,0.3-0.1,0.5L76.9,124.6"/>
		<path class="st1" d="M81.3,128.2c0.3,0.3,0.1,0.8-0.2,1l0,0c-0.4,0.1-0.8,0.4-1.1,0.7c-0.4,0.4-0.7,0.8-1.2,1.1
			c0-1.1-0.2-2.3-0.5-3.4l0.3,0c0.4-0.2,0.8-0.4,1.2-0.6c0.1-0.1,0.2-0.1,0.4-0.1c0.3,0,0.6,0.3,0.6,0.7c0,0.3-0.2,0.6-0.3,0.9
			C80.5,128,81.1,127.9,81.3,128.2"/>
		<path class="st0" d="M72.7,110.2c0-0.5,0.1-1,0.1-1.5c0.1-1.2,0.2-2.5,0.1-3.7l1.1,0c0,0.6,0,1.1,0.1,1.6l0,0
			c0.1,2.9,0.2,5.9,0.3,8.8c0.1,2,0.2,4.1,0.3,6.1c0.1,3.4,0.3,6.8,0.4,10.1c0.1,1.5,0.1,2.9,0.2,4.4c0.3,10.2,0.8,9.2,1,19.4
			c-6.4,1.8-14,3-20.8,2.5c-6.8,0.5-14.4-0.7-20.8-2.5c0.2-10.2,0.7-9.2,1-19.4c0.2-6.6,0.6-13.1,0.8-19.7c-0.8,1.2-1.6,2.4-2.7,3.3
			c-1.1,0.9-2.7,1.5-4.1,1.2c-1.8-0.4-3-2.1-3.9-3.7c-2.9-5.4-4.5-11.6-5.7-17.5l0.1-0.1c-0.5-0.3-0.9-0.7-1.3-1.1
			c-0.2-0.3-0.5-0.6-0.5-0.9c-0.1-0.4,0.1-0.7,0.2-1.1c0.5-1.1,1.2-2,2.1-2.8l0-0.1c0.3,0.1,0.6,0.3,0.9,0.4l0,0.1
			c0.2,1.1,0.5,2.1,0.7,3.2l-1.1,0c0.2,0.2,0.3,0.4,0.6,0.5c0.3,0.2,0.6,0.2,1,0.3c1.3,0.1,2.6-0.3,3.6-1.2c0.4-0.3,0.7-0.8,1-1.2
			l-0.1-0.1c-0.3-1.2-0.7-2.4-1-3.6L26,92c0.1-0.1,0.3-0.3,0.4-0.5l0.1,0.1c0.9,0,2,0.1,2.6,0.8c0.5,0.5,0.7,1.2,0.7,1.9
			c0,0.7-0.3,1.3-0.6,2l0,0c0.4,2.1,0.9,4.1,1.3,6.2c0.2-3.8,0.7-7.6,1.4-11.3c0.3-1.5,0.6-3.1,1.6-4.4c1.2-1.5,2.7-1.6,4.4-2v0
			l0-0.2c2.6-1.4,5.3-2.6,7.9-4l0,0c-1,1.7-1.8,3.6-2.3,5.3c-0.9,3.6-1.4,7.3-1.4,11c0,1.9,0.1,3.7,0.3,5.6c0.1,0.8,0.2,1.6,0.4,2.4
			c0.1,0.9,0.1,1.8,0.4,2.7l0,0c0,0-0.1,0-0.1,0c-1,0.3-1.9,1.3-2.2,2.5c-0.5,2.8,2,4.3,4,3.8c0.8-0.2,1.5-0.9,1.8-1.8
			c0.3-0.8,0.2-1.7-0.2-2.5c-0.1-0.3-0.3-0.6-0.5-0.9c-0.5-0.6-1.1-1-1.8-1.1l0-0.1c-0.4-2.5-0.8-5.1-1-7.7
			c-0.1-1.9-0.1-3.9,0.1-5.8l1.6,0.1c0,0,0.1,0.1,0.1,0.1c0.8,1,1.8,1.9,2.8,2.8c2.3,2,4.6,4,6.9,6.1l2.5-0.3
			c1.8-1.8,3.7-3.5,5.6-5.3c1.1-1,2.1-2.1,3-3.3c0,0,0.1-0.1,0.1-0.1l2-0.1c0,0.3,0,0.7,0.1,1c-1.9,1.6-2.9,4.3-3.3,7
			c-0.3,2.2-0.2,4.4-0.1,6.6c0,0.6,0.1,1.2,0.2,1.9l-0.1,0.2c0,0.6,0.1,1.3,0.3,1.8c0.1,0.2,0.2,0.3,0.3,0.4
			c0.2,0.2,0.6,0.3,0.9,0.3c0.4,0,0.9,0,1.2-0.4c0.1-0.1,0.2-0.3,0.2-0.4c0.1-0.2,0.1-0.5,0.1-0.7l1.7-0.1c0,0,0,0.1,0,0.1
			c0.2,0.5,0.6,0.9,1,1.2c0.5,0.3,1.2,0.4,1.6-0.1C72.5,112.3,72.6,111.1,72.7,110.2"/>
	</g>
	<path class="st2" d="M68.1,95.2c0-0.3,0-0.7-0.1-1c0-0.6-0.1-1.2-0.1-1.8c-0.1-1.7-0.3-3.3-0.7-5c-0.2-0.9-0.4-1.7-0.7-2.5
		c-0.4-1.2-0.9-2.3-1.5-3.4c-0.9-1.6-2.1-2.9-3.7-3.7c-0.5-0.3-1.1-0.6-1.8-0.6l0,0c-0.1-0.3-0.2-0.6-0.3-0.9c1.9,0,3.3,0.6,4.7,2.1
		c0.8,0.8,1.4,1.7,2,2.7c0.9,1.5,1.5,3.2,2,4.9c0.7,2.9,1.2,5.9,1.4,9c0,0.3,0.2,0.4,0.4,0.5c1.7,1.6,2.7,4.2,3.1,6.8
		c0.1,0.9,0.2,1.9,0.2,2.8c0,1.2,0,2.5-0.1,3.7l0,0c-0.3,0-0.6-0.1-0.9-0.1l-0.1,0c0.1-2,0.2-4-0.1-6c-0.3-2.3-1-4.3-2.5-5.9
		c-2.1-0.6-3.2,4.1-3.5,5.9c-0.3,2.1-0.2,4.1-0.1,6.2c-0.3,0-0.6,0-1-0.1l0,0c-0.2-2.2-0.2-4.4,0.1-6.6
		C65.2,99.5,66.2,96.8,68.1,95.2"/>
	<path class="st3" d="M71.2,111l0.4,0c0.1-0.8,0.1-1.6,0.2-2.5l0.1,0c0.3,0,0.6,0.1,0.9,0.1l0,0c0,0.5-0.1,1-0.1,1.5
		c-0.1,0.9-0.2,2.1-0.7,2.7c-0.4,0.5-1.1,0.4-1.6,0.1c-0.4-0.2-0.8-0.6-1-1.2c0,0,0-0.1,0-0.1c-0.1-0.5,0-1.1,0.3-1.4
		c0.3-0.4,1-0.4,1.2,0.1c0.1,0.2,0.1,0.4,0.2,0.6C71.2,111,71.2,111,71.2,111"/>
	<path class="st0" d="M65.7,108.8c-0.1-2.1-0.2-4.2,0.1-6.2c0.3-1.8,1.4-6.5,3.5-5.9c1.5,1.5,2.2,3.6,2.5,5.9c0.3,2,0.2,4,0.1,6
		c-0.1,0.8-0.1,1.6-0.2,2.5l-0.4,0c0,0,0-0.1-0.1-0.1c-0.1-0.2-0.1-0.4-0.2-0.6c-0.3-0.5-0.9-0.5-1.2-0.1c-0.3,0.4-0.4,0.9-0.3,1.4
		l-1.7,0.1c-0.1-0.6-0.4-1.2-1-0.9c-0.3,0.2-0.9,1.3-0.8,0.1C65.8,110.3,65.8,109.5,65.7,108.8"/>
	<path class="st0" d="M68,94.2l-2,0.1c0,0-0.1,0.1-0.1,0.1l-0.1-0.1c-1.3-1.2-2.5-2.5-3.8-3.7c1.7-1.1,3.4-2.2,5-3.2l0.2,0
		c0.4,1.6,0.6,3.3,0.7,5C68,93,68,93.6,68,94.2"/>
	<path class="st3" d="M67.7,111.8c0,0.2,0,0.5-0.1,0.7c0,0.2-0.1,0.3-0.2,0.4c-0.3,0.4-0.8,0.4-1.2,0.4c-0.3,0-0.7,0-0.9-0.3
		c-0.1-0.1-0.2-0.3-0.3-0.4c-0.2-0.6-0.4-1.2-0.3-1.8l0.1-0.2c-0.1-0.6-0.1-1.2-0.2-1.9l0,0c0.3,0.1,0.6,0.1,1,0.1
		c0,0.7,0.1,1.5,0.2,2.2c-0.1,1.2,0.4,0.1,0.8-0.1C67.2,110.6,67.6,111.2,67.7,111.8"/>
	<path class="st0" d="M67.2,87.4l-0.2,0c-1.1-2-2.7-3.6-3.4-5.9c-0.5-1.5-1-3-2.3-3.8c1.6,0.9,2.8,2.1,3.7,3.7
		c0.6,1.1,1.1,2.2,1.5,3.4C66.8,85.7,67,86.6,67.2,87.4"/>
	<path class="st0" d="M61.3,77.8c1.2,0.8,1.8,2.3,2.3,3.8c0.7,2.2,2.3,3.9,3.4,5.9c-1.7,1.1-3.4,2.2-5,3.2c-0.6-0.5-1.1-1-1.7-1.4
		l-2.1-0.6c0-0.1,0.1-0.3,0.1-0.4c0.7-2.2,1.4-4.5,2.2-6.6c0.2-0.3,0.3-0.6,0.4-0.9c0.1-0.3,0.1-0.6,0.1-0.9l-0.2-0.4
		c-0.6-0.6-1.1-1.4-1.4-2.3l0,0C60.2,77.2,60.8,77.4,61.3,77.8"/>
	<path class="st0" d="M55.6,97.2c0.9-2.9,1.7-5.7,2.6-8.6l2.1,0.6c0.6,0.5,1.2,0.9,1.7,1.4c1.3,1.2,2.6,2.4,3.8,3.7l0.1,0.1
		c-0.9,1.1-2,2.3-3,3.3c-1.9,1.8-3.8,3.5-5.6,5.3l-2.5,0.3c-2.3-2.1-4.6-4.1-6.9-6.1c-1-0.8-2-1.8-2.8-2.8l0.1-0.1
		c1.3-1.2,2.5-2.5,3.8-3.7c0.6-0.5,1.1-1,1.7-1.4l2.1-0.5c0.8,2.4,1.9,4.7,2.4,7.2C55.3,96.3,55.4,96.8,55.6,97.2L55.6,97.2"/>
	<path class="st1" d="M59.2,76.3c0.1,0.3,0.1,0.6,0.3,0.9c0.3,0.9,0.8,1.6,1.4,2.3l0.2,0.4c0,0.3-0.1,0.6-0.1,0.9
		c-0.1,0.3-0.3,0.6-0.4,0.9c-0.3,0.5-0.7,1-1.1,1.4c-1.2,1-2.2,1.3-3.7,1.4h-0.4c-1.5-0.1-2.5-0.4-3.7-1.4c-0.5-0.4-0.9-0.9-1.1-1.4
		c0,0,0,0,0,0c-0.1-0.2-0.2-0.4-0.3-0.6c-0.1-0.2-0.1-0.4-0.2-0.6c0,0,0-0.1,0-0.1c0,0,0-0.1,0-0.1c0-0.4,0-0.8,0.4-1l0,0
		c0.5-0.6,0.9-1.2,1.1-2c0.1-0.3,0.2-0.6,0.2-0.9c0.2-0.8,0.2-1.6,0.1-2.4l-0.3-0.5c0.9-1.1,2.2-2,3.6-2.1c1.8-0.2,3.1,1,3.8,2.4
		l0.1,0.2C59,74.7,59.1,75.5,59.2,76.3"/>
	<path class="st0" d="M60.9,80.7c-0.1,0.3-0.2,0.6-0.4,0.9C60.7,81.3,60.8,81,60.9,80.7"/>
	<path class="st4" d="M60.5,81.6c-0.9,2.2-1.5,4.4-2.2,6.6c0,0.1-0.1,0.3-0.1,0.4c-0.9,2.9-1.7,5.7-2.6,8.6l-0.1,0
		c-0.1-0.4-0.2-0.9-0.3-1.3c-0.5-2.4-1.6-4.8-2.4-7.2c-0.1-0.2-0.1-0.3-0.2-0.5c-0.5-1.6-1-3.3-1.6-4.9c-0.2-0.6-0.4-1.2-0.7-1.8
		c0.3,0.5,0.7,1,1.1,1.4c1.2,1,2.2,1.3,3.7,1.4h0.4c1.5-0.1,2.5-0.4,3.7-1.4C59.9,82.6,60.3,82.1,60.5,81.6"/>
	<path class="st0" d="M49.9,80.1c0,0,0,0.1,0,0.1c0,0,0,0.1,0,0.1c0.1,0.4,0.2,0.8,0.4,1.2c0,0,0,0,0,0c0.2,0.6,0.5,1.2,0.7,1.8
		c0.6,1.6,1.1,3.2,1.6,4.9c0,0.2,0.1,0.3,0.2,0.5l-2.1,0.5c-0.6,0.5-1.2,0.9-1.7,1.4c-1.6-1-3.2-2.1-4.8-3.1
		c0.1-0.3,0.1-0.5,0.2-0.7c1.1-1.7,2.4-3.2,3.1-5.2c0.4-1.3,0.9-2.5,1.7-3.4c0.6-0.6,1.3-1,2.4-1.1l0,0c-0.3,0.7-0.6,1.4-1.1,2l0,0
		C50,79.4,49.9,79.7,49.9,80.1"/>
	<path class="st2" d="M51.7,76.3L51.7,76.3c0,0.3,0,0.6-0.2,0.9l0,0c-1.1,0.1-1.8,0.5-2.4,1.1l0,0c-2.5,2.2-4,5.3-4.8,8.6
		c-0.1,0.2-0.3,0.4-0.4,0.6c0.1,0,0.1,0.1,0.2,0.1c-0.3,1.6-0.5,3.2-0.7,4.8c0,0.6-0.1,1.2-0.1,1.8c-0.1,1.9-0.2,3.9-0.1,5.8
		c0.2,2.6,0.5,5.1,1,7.7l0,0.1c-0.4-0.1-0.7-0.1-1.1,0l0,0c-0.2-0.9-0.2-1.8-0.4-2.7c-0.1-0.8-0.3-1.6-0.4-2.4
		c-0.2-1.9-0.3-3.7-0.3-5.6c0-3.7,0.5-7.5,1.4-11c0.4-1.7,1.2-3.7,2.3-5.3C47.3,78.1,49.4,76.2,51.7,76.3"/>
	<path class="st0" d="M50.2,80.9c0.1,0.2,0.2,0.4,0.3,0.6c-0.2-0.4-0.4-0.8-0.4-1.2C50,80.6,50.1,80.8,50.2,80.9"/>
	<path class="st1" d="M49.9,80.1c0,0,0,0.1,0,0.1C50,80.2,49.9,80.2,49.9,80.1"/>
	<path class="st0" d="M49.1,78.2L49.1,78.2c-0.8,0.9-1.3,2.1-1.7,3.4c-0.6,2-2,3.5-3.1,5.2C45.1,83.5,46.5,80.4,49.1,78.2"/>
	<path class="st0" d="M44.2,87.6c1.6,1,3.2,2.1,4.8,3.1c-1.3,1.2-2.6,2.4-3.8,3.7l-0.1,0.1c0,0-0.1-0.1-0.1-0.1l-1.6-0.1
		c0-0.6,0.1-1.2,0.1-1.8C43.6,90.8,43.8,89.2,44.2,87.6"/>
	<path class="st3" d="M46.5,109.7c0.3,0.8,0.5,1.7,0.2,2.5c-0.3,0.9-1,1.5-1.8,1.8c-1.9,0.5-4.5-1-4-3.8c0.2-1.3,1.1-2.3,2.2-2.5
		c0,0,0.1,0,0.1,0c0.4-0.1,0.7-0.1,1.1,0c0.7,0.1,1.3,0.5,1.8,1.1C46.2,109.1,46.4,109.4,46.5,109.7"/>
	<path class="st0" d="M44,87.5c0.1-0.2,0.2-0.4,0.4-0.6c-0.1,0.2-0.1,0.5-0.2,0.7C44.1,87.6,44,87.5,44,87.5"/>
	<path class="st1" d="M25.5,82.1c-0.8-1.1-1.2-2.6-1-4c0-0.1,0-0.2,0.1-0.3c0.1-0.1,0.1-0.2,0.2-0.2c0.1,0,0.2,0,0.3,0.1
		c0.2,0.2,0.5,0.3,0.7,0.5c0.5,0.3,0.9,0.6,1.4,0.9c0.9,0.5,1.8,1.1,2.3,2.1c0.7,1.4,0.1,3-0.5,4.4c-0.9,2.1-1.4,4.2-2.7,6
		c-0.1,0.2-0.2,0.3-0.4,0.5c-0.1,0.1-0.2,0.2-0.3,0.3l-2.9-0.1c0-1-0.1-2-0.2-3c-0.2-1.2-0.5-2.4-1.3-3.2c1.6-0.5,2.5-2,3.6-3.4
		L25.5,82.1"/>
	<path class="st1" d="M21.6,94c-0.3-0.1-0.6-0.2-0.9-0.4c-1.8-0.9-3.2-2.7-4.2-4.4c-1.1-1.8-4.2-7.1-0.9-8.6
		c-0.2-0.6-0.4-1.3-0.1-1.8c0.5-0.6,1.6-0.4,2-1.1c0.2-0.3,0.1-0.7,0.3-1c0.1-0.2,0.4-0.3,0.6-0.4c1.2-0.5,2.4-0.6,3.4-0.4
		c1.2,0.2,2.2,0.8,2.8,1.9c0,0.1-0.1,0.2-0.1,0.3c-0.2,1.4,0.2,2.8,1,4l-0.6,0.4c-1,1.4-1.9,2.8-3.6,3.4c0.8,0.8,1.1,2.1,1.3,3.2
		c0.1,1,0.2,2,0.2,3l2.9,0.1c0.1-0.1,0.2-0.2,0.3-0.3l0.1,0c0.3,1.2,0.7,2.4,1,3.6l0.1,0.1c-0.3,0.5-0.6,0.9-1,1.2
		c-1,0.9-2.3,1.3-3.6,1.2c-0.3,0-0.7-0.1-1-0.3c-0.2-0.1-0.4-0.3-0.6-0.5l1.1,0C22,96.2,21.8,95.1,21.6,94L21.6,94"/>
	<path class="st1" d="M25.9,78.1l-0.1,0.1c-0.2-0.2-0.5-0.3-0.7-0.5c-0.1-0.1-0.2-0.1-0.3-0.1c-0.1,0-0.2,0.1-0.2,0.2
		C24,76.8,23,76.2,21.8,76c-1-4.6-2.6-9-2.6-13.8c0-0.4,0.2-1,0.6-0.9c0.1,0,0.2,0.1,0.3,0.2c0.5,0.6,0.8,1.3,1,2.1
		C22.6,68.5,23.9,73.4,25.9,78.1"/>
	<path class="st5" d="M51.5,73.9c0.1,2-0.4,3.7-1.7,5.3c-0.3,0.3,0.2,0.8,0.5,0.5c1.6-1.5,2.1-3.8,1.8-5.8
		C52.1,73.5,51.5,73.6,51.5,73.9"/>
	<path class="st5" d="M45.6,80.3c-2.6,1.3-5.3,2.5-7.9,4c-0.3,0.2,0,0.7,0.3,0.5c2.6-1.3,5.3-2.7,7.9-4
		C46.2,80.6,45.9,80.2,45.6,80.3"/>
	<path class="st5" d="M35.1,96.6c0.4,0.6,1,1.2,1.8,1.5c0.3,0.1,0.5-0.3,0.3-0.5c-0.3-0.2-0.6-0.4-0.8-0.6c-0.3-0.2-0.5-0.5-0.7-0.7
		C35.4,96,34.9,96.3,35.1,96.6"/>
	<path class="st5" d="M36.9,98.2c-0.2,2.1-0.3,4.3-0.2,6.4c0,0.4,0.6,0.4,0.6,0c0.2-2.1,0.2-4.3,0.1-6.4
		C37.4,97.8,36.9,97.9,36.9,98.2"/>
	<path class="st5" d="M49.6,79.8c0.3,3,2.9,4.7,5.7,4.9c0.4,0,0.4-0.6,0-0.6c-2.4-0.2-4.7-1.7-5-4.3C50.2,79.4,49.6,79.4,49.6,79.8"
		/>
	<path class="st5" d="M51.5,76.8c-2,0.2-3.2,1.4-3.9,3.2c-0.5,1.2-0.8,2.5-1.5,3.6c-0.8,1.3-1.7,2.4-2.4,3.7c-0.1,0.2,0,0.3,0.1,0.4
		c1.7,1.1,3.3,2.2,5,3.2c0.4,0.2,0.7-0.3,0.3-0.6c-1.7-1.1-3.4-2.1-5-3.2c0,0.1,0.1,0.3,0.1,0.4c1.1-1.9,2.7-3.6,3.4-5.7
		c0.8-2.1,1.4-4,3.9-4.4C52,77.4,51.9,76.8,51.5,76.8"/>
	<path class="st5" d="M49.5,80.1c1.3,2.9,2.1,5.9,3.1,8.9c0.4,1.4,1,2.7,1.5,4c0.5,1.4,0.8,2.8,1.2,4.3c0.1,0.4,0.7,0.2,0.6-0.2
		c-0.6-3-1.8-5.8-2.8-8.7c-0.9-2.9-1.8-5.8-3-8.6C49.8,79.5,49.3,79.8,49.5,80.1"/>
	<path class="st5" d="M45.4,94.6c1.8-1.8,3.6-3.5,5.6-5.1c0.3-0.2-0.1-0.7-0.4-0.5c-2,1.5-3.8,3.4-5.6,5.2
		C44.7,94.4,45.1,94.8,45.4,94.6"/>
	<path class="st5" d="M44.8,94.5c1.4,1.7,3.1,3.1,4.8,4.6c1.7,1.5,3.3,3,5,4.4c0.3,0.2,0.7-0.1,0.4-0.4c-3.1-3.2-6.9-5.6-9.8-9
		C44.9,93.8,44.5,94.2,44.8,94.5"/>
	<path class="st5" d="M58.9,73.9c-0.4,2,0.2,4.4,1.8,5.8c0.3,0.3,0.8-0.1,0.5-0.5c-1.3-1.6-1.8-3.2-1.7-5.3
		C59.5,73.6,58.9,73.5,58.9,73.9"/>
	<path class="st5" d="M65.9,81.2c2.4,1.2,4.7,2.4,7.1,3.6c0.3,0.2,0.6-0.3,0.3-0.5c-2.3-1.3-4.7-2.4-7.1-3.6
		C65.9,80.6,65.6,81,65.9,81.2"/>
	<path class="st5" d="M75.4,96.2c-0.2,0.3-0.5,0.5-0.7,0.7c-0.3,0.2-0.6,0.4-0.8,0.6c-0.2,0.2,0,0.6,0.3,0.5
		c0.7-0.2,1.3-0.9,1.8-1.5C76.1,96.3,75.6,96,75.4,96.2"/>
	<path class="st5" d="M73.5,98.2c-0.1,2.1-0.1,4.3,0.1,6.4c0,0.4,0.6,0.4,0.6,0c0.1-2.1,0.1-4.3-0.2-6.4
		C74.1,97.9,73.6,97.8,73.5,98.2"/>
	<path class="st5" d="M60.8,79.8c-0.3,2.6-2.6,4.1-5,4.3c-0.4,0-0.4,0.7,0,0.6c2.8-0.2,5.4-1.9,5.7-4.9
		C61.4,79.4,60.8,79.4,60.8,79.8"/>
	<path class="st5" d="M59.4,77.5c2.5,0.4,3.2,2.3,3.9,4.4c0.8,2.1,2.3,3.8,3.4,5.7c0-0.1,0.1-0.3,0.1-0.4c-1.7,1.1-3.4,2.1-5,3.2
		c-0.3,0.2,0,0.8,0.3,0.6c1.7-1.1,3.3-2.2,5-3.2c0.1-0.1,0.2-0.3,0.1-0.4c-0.7-1.2-1.6-2.3-2.3-3.5c-0.7-1.2-1.1-2.5-1.6-3.8
		c-0.7-1.8-1.9-3-3.9-3.2C59.1,76.8,59,77.4,59.4,77.5"/>
	<path class="st5" d="M61,79.8c-1.2,2.7-2.1,5.5-3,8.3c-0.9,3-1.9,6-2.7,9.1c-0.1,0.4,0.5,0.5,0.6,0.2c1.9-5.7,3.2-11.7,5.6-17.3
		C61.6,79.8,61.1,79.5,61,79.8"/>
	<path class="st5" d="M66,94.2c-1.8-1.8-3.6-3.6-5.6-5.2c-0.3-0.2-0.7,0.3-0.4,0.5c1.9,1.6,3.8,3.3,5.6,5.1
		C65.9,94.8,66.3,94.4,66,94.2"/>
	<path class="st5" d="M65.8,94.1c-2.6,3.2-5.9,5.7-8.7,8.7c-0.3,0.3,0.1,0.7,0.4,0.4c1.7-1.5,3.3-3.1,4.9-4.6
		c1.4-1.3,2.7-2.6,3.9-4.1C66.5,94.2,66,93.8,65.8,94.1"/>
	<path class="st5" d="M51.7,76c-2.2-0.1-4,1.5-5.3,3.1c-1.7,2.2-2.8,4.9-3.4,7.6c-1.6,6.9-1.6,14.2-0.1,21.1
		c0.1,0.4,0.6,0.2,0.6-0.2c-1.1-6.4-1.4-13-0.1-19.4c0.5-2.6,1.3-5.1,2.7-7.4c1.2-2,3.1-4.2,5.7-4.3C52.1,76.6,52.1,76,51.7,76"/>
	<path class="st5" d="M51.8,73.7c1-1.1,2.2-2,3.8-2c1.5,0,2.5,1.1,3.2,2.3c0.2,0.4,0.8,0,0.6-0.3c-0.7-1.3-1.9-2.5-3.4-2.6
		c-1.8-0.2-3.4,0.9-4.5,2.2C51.1,73.5,51.5,74,51.8,73.7"/>
	<path class="st5" d="M48.9,78c-3.5,3-4.9,7.6-5.5,12.1c-0.8,5.9-0.6,11.8,0.6,17.6c0.1,0.4,0.6,0.2,0.5-0.1c-0.4-2.9-0.9-5.8-1-8.8
		c-0.1-2.7,0.1-5.3,0.4-8c0.5-4.5,1.8-9.2,5.3-12.4C49.6,78.2,49.2,77.7,48.9,78"/>
	<path class="st5" d="M59,76.7c4.4-0.4,7,4.5,8.2,8c0.8,2.4,1.2,4.9,1.5,7.4c0.1,1-0.3,3.3,1,3.7c0.4,0.1,0.5-0.4,0.2-0.6
		c-0.6-0.2-0.5-2.9-0.5-3.4c-0.1-1.3-0.3-2.5-0.6-3.8c-0.4-2.2-1-4.3-2-6.3c-1.5-2.9-4-6.4-7.7-5.8C58.6,76.1,58.7,76.7,59,76.7"/>
	<path class="st5" d="M61.2,78c5.8,3.5,6.1,11.2,6.7,17.2c0,0.3,0.6,0.4,0.6,0c-0.1-6-1-14.4-6.9-17.7C61.1,77.3,60.8,77.8,61.2,78"
		/>
	<path class="st5" d="M46.2,109.8c0.6,1.5,0.3,3.5-1.6,3.9c-1,0.2-2.1-0.2-2.8-0.9c-0.9-1.1-0.8-2.8,0.1-3.9
		C43.4,107.3,45.3,108.3,46.2,109.8c0.3,0.5,0.8,0.1,0.6-0.3c-0.8-1.8-3.1-3-4.8-1.7c-1.5,1.1-2,3.4-1.1,4.9c0.8,1.3,2.4,2,3.9,1.6
		c2.2-0.5,2.8-2.9,2-4.8C46.7,109.3,46.1,109.4,46.2,109.8"/>
	<path class="st5" d="M42.2,109.9c-0.5,1.1-0.1,2.7,1,3.2c1.3,0.5,2.5-0.8,2.5-2c0-0.3-0.5-0.4-0.5-0.1c-0.1,0.8-0.9,2-1.9,1.5
		c-0.8-0.4-0.9-1.6-0.6-2.3C42.8,109.9,42.3,109.6,42.2,109.9"/>
	<path class="st5" d="M68,94.9c-4.5,3.6-4,10.7-3.4,15.7c0,0.4,0.6,0.4,0.6,0c-0.3-5.2-1.1-11.5,3.3-15.3C68.7,95,68.3,94.6,68,94.9
		"/>
	<path class="st5" d="M66.2,111c-0.2-3.1-0.6-6.3,0.1-9.4c0.3-1.3,1-5.1,3-4.6c0.4,0.1,0.5-0.4,0.2-0.6c-2.1-0.7-3,2.4-3.4,3.8
		c-1,3.5-0.8,7.2-0.4,10.8C65.6,111.4,66.2,111.4,66.2,111"/>
	<path class="st5" d="M73,110.6c0.5-5.1,1-12.2-3.4-15.7c-0.3-0.2-0.7,0.2-0.4,0.4c4.3,3.8,3.6,10.2,3.3,15.3
		C72.3,111,72.9,111,73,110.6"/>
	<path class="st5" d="M69,96.9c3.4,3.9,2.7,9.4,2.4,14.2c0,0.4,0.5,0.4,0.6,0c0.5-4.7,1-10.9-2.6-14.6C69.1,96.2,68.7,96.6,69,96.9"
		/>
	<path class="st5" d="M64.4,110.9c-0.1,1,0.2,2.6,1.4,2.8c1,0.1,2-0.2,2.2-1.2c0.1-0.7-0.1-1.8-0.9-1.9c-0.3-0.1-0.6,0.1-0.8,0.3
		c-0.1,0.1-0.3,0.3-0.3,0.4c0,0,0,0,0,0c-0.1,0.1,0,0.1,0.3,0.1c0,0,0-0.4,0-0.5c0-0.4-0.6-0.4-0.7,0c0,0.3-0.1,1.1,0.4,1
		c0.4,0,0.5-0.6,0.9-0.7c0.4-0.1,0.5,0.5,0.5,0.8c0,0.5-0.2,0.9-0.8,1c-0.6,0.1-1,0-1.3-0.6c-0.2-0.5-0.3-1-0.3-1.5
		C65,110.5,64.5,110.5,64.4,110.9"/>
	<path class="st5" d="M71.6,110.9c-0.2,0-0.4-0.7-0.5-0.8c-0.1-0.2-0.3-0.3-0.5-0.3c-0.4-0.2-0.9,0-1.2,0.3
		c-0.8,0.8-0.4,2.2,0.3,2.9c0.7,0.7,1.9,1,2.6,0.2c0.7-0.8,0.6-2.2,0.8-3.2c0.1-0.4-0.5-0.5-0.6-0.2c-0.2,1-0.2,4-2,2.9
		c-0.4-0.2-0.7-0.6-0.8-1.1c-0.1-0.5,0-1.3,0.7-1.1c0.4,0.1,0.3,0.6,0.6,0.9c0.2,0.2,0.4,0.2,0.7,0.1
		C72,111.4,71.9,110.9,71.6,110.9"/>
	<path class="st5" d="M64.7,109c0.4,0.1,0.8,0.1,1.2,0.1c0.3-0.1,0.3-0.6-0.1-0.6c-0.4,0-0.7,0-1.1,0C64.4,108.4,64.4,109,64.7,109"
		/>
	<g>
		<path class="st5" d="M71.8,108.9c0.3,0.1,0.6,0.1,1,0.2c0.4,0,0.5-0.6,0.1-0.7c-0.3-0.1-0.7-0.1-1-0.1
			C71.6,108.3,71.5,108.8,71.8,108.9"/>
		<path class="st5" d="M55.4,108.3c0,9,0,18,0,27c0,0.3,0.5,0.3,0.5,0c0-9,0-18,0-27C55.9,108,55.4,108,55.4,108.3"/>
	</g>
	<path class="st5" d="M37.8,84.5c-1.3,0.2-2.8,0.4-3.9,1.3c-1.3,1-1.9,2.7-2.2,4.3c-0.9,4.2-1.5,8.5-1.6,12.8c0,0.4,0.6,0.4,0.6,0
		c0.3-3.8,0.7-7.7,1.4-11.4c0.3-1.6,0.6-3.5,1.8-4.7c1.1-1.1,2.6-1.3,4.1-1.7C38.3,84.9,38.2,84.4,37.8,84.5"/>
	<path class="st5" d="M22.6,93.9c-3.2-0.8-5-3.3-6.5-6c-1-1.8-3.1-5.7-0.4-7.1c0.1-0.1,0.2-0.2,0.1-0.4c-0.3-0.9,0.1-1.6,0.9-1.9
		c0.2-0.1,0.4-0.1,0.6-0.2c0.8-0.5,0.7-1.4,1.7-1.8c1.9-0.8,4.3-0.2,5.4,1.5c0.2,0.4,0.8,0,0.6-0.3c-0.8-1.2-2-2-3.4-2.1
		c-1.1-0.1-3.3,0-4,1c-0.2,0.3-0.2,0.7-0.4,1c-0.3,0.4-0.6,0.4-1.1,0.6c-0.5,0.2-0.9,0.4-1,0.9c-0.1,0.3-0.1,0.6,0,0.9
		c0.1,0.7,0.2,0.2-0.1,0.6c-0.3,0.4-0.7,0.6-0.9,1.1c-1,2.3,0.7,5.1,1.8,7c1.4,2.7,3.6,5.5,6.8,5.9C22.9,94.6,23,94,22.6,93.9"/>
	<path class="st5" d="M22,75.9c-0.5-2.5-1.2-5-1.8-7.5c-0.3-1.4-0.5-2.8-0.7-4.2c0-0.5-0.3-1.5-0.1-2.1c0.4-1.3,1.1,0.8,1.3,1.3
		c1.6,5,2.8,10,4.9,14.8c0,0.1,0.2,0.1,0.3,0.2c0.2,0,0.3,0,0.5,0c0.4,0,0.4-0.6,0-0.6c-0.5,0-1.1-2.2-1.3-2.6
		c-0.3-0.8-0.6-1.6-0.8-2.4c-0.5-1.6-1-3.2-1.5-4.9c-0.5-1.6-0.9-3.3-1.4-4.9c-0.2-0.7-0.6-2-1.5-2.2c-1.9-0.3-0.8,4.6-0.7,5.4
		c0.5,3.3,1.5,6.5,2.3,9.7C21.6,76.4,22.1,76.2,22,75.9"/>
	<path class="st5" d="M20.9,85.9c1.6,1.6,1.5,4.2,1.7,6.3c0,0.4,0.6,0.4,0.6,0c0.1-2.2-0.1-5.3-1.9-6.7C21,85.3,20.7,85.7,20.9,85.9
		"/>
	<path class="st5" d="M26.8,83.1c-0.7-0.6-1.3-1.3-1.6-2.2c-0.2-0.6-0.8-2.1-0.1-2.5c0.5-0.3,1.8,0.8,2.3,1.2c0.8,0.5,1.7,1.1,2,2.1
		c0.6,1.7-0.6,3.7-1.2,5.3c-0.7,1.9-1.3,3.6-2.7,5.1c-0.3,0.3,0.2,0.7,0.4,0.4c1.8-1.9,2.5-4.5,3.5-6.9c0.9-2.2,1.3-4.4-0.8-6.1
		c-0.9-0.7-2.2-1.6-3.3-2.1c-0.5-0.2-0.9-0.1-1.1,0.5c-0.6,2,0.8,4.4,2.3,5.5C26.8,83.7,27.1,83.3,26.8,83.1"/>
	<path class="st5" d="M18.2,83.2c0.3,0.3,0.6,0.6,0.9,1c0.1-0.2,0.1-0.3,0.2-0.5c-0.6,0-1.8,0.1-1.7,1c0.1,0.8,1.2,1.3,1.8,1.5
		c2.6,1,4.5-1.6,5.8-3.4c0.2-0.3-0.3-0.6-0.5-0.4c-1,1.2-1.8,2.7-3.4,3.2c-0.7,0.2-1.2,0.1-1.9-0.1c-0.2-0.1-0.4-0.2-0.6-0.4
		c-0.7-0.5-0.2-0.7,0.5-0.8c0.2,0,0.4-0.3,0.2-0.5c-0.3-0.3-0.7-0.6-1-0.9C18.4,82.6,18,83,18.2,83.2"/>
	<path class="st5" d="M21.3,94.1c0.1,1.1,0.4,2.2,0.6,3.3c0.1,0.4,0.7,0.2,0.6-0.2c-0.2-1-0.4-2.2-0.8-3.2
		C21.7,93.8,21.3,93.8,21.3,94.1"/>
	<path class="st5" d="M25.8,92.1c0.3,1.2,0.6,2.4,1,3.6c0.1,0.4,0.7,0.2,0.6-0.2c-0.3-1.2-0.7-2.4-1.1-3.5
		C26.2,91.7,25.7,91.8,25.8,92.1"/>
	<path class="st5" d="M20.4,96.5c0.8,1.9,2.5,2.3,4.4,1.6c2-0.7,3.2-2.5,3.3-4.6c0-0.4-0.6-0.4-0.6,0c-0.1,1.6-1,3-2.4,3.8
		c-0.6,0.3-1.4,0.5-2.1,0.5c-1.1,0-1.7-0.5-2.1-1.5C20.8,96,20.3,96.2,20.4,96.5"/>
	<path class="st5" d="M20.4,93.5c-1,0.8-2.4,2.2-2.5,3.7c-0.1,1.4,1.6,2.5,2.7,3c0.4,0.2,0.6-0.3,0.3-0.5c-1.1-0.8-2.8-1.7-1.9-3.4
		c0.5-0.9,1.1-1.7,1.9-2.4C21.1,93.7,20.7,93.3,20.4,93.5"/>
	<path class="st5" d="M19.8,99.7c0.9,6.1,2.7,12.6,5.8,17.9c1.1,1.9,2.8,3.8,5.2,3.7c2.8-0.2,4.6-2.7,6-4.9c0.2-0.3-0.3-0.6-0.5-0.3
		c-1.5,2.2-3.8,5.4-6.9,4.3c-2.3-0.8-3.5-3.7-4.5-5.8c-2.2-4.8-3.3-10-4.6-15.1C20.3,99.3,19.8,99.4,19.8,99.7"/>
	<path class="st5" d="M26.5,91.9c1,0.1,2.2,0.2,2.7,1.2c0.4,1,0.1,2-0.4,2.9c-0.2,0.4,0.4,0.7,0.6,0.3c0.6-1.1,1-2.5,0.3-3.7
		c-0.6-1.2-2-1.4-3.3-1.4C26.1,91.3,26.1,91.9,26.5,91.9"/>
	<path class="st5" d="M28.8,96.3c0.5,3.7,1.5,7.2,2.2,10.9c0.1,0.3,0.5,0.3,0.6,0.1c0.8-0.4,1.2-0.3,1.1,0.3c0,0.2,0,0.3,0,0.5
		c0,0.3,0.5,0.4,0.6,0.1c0.1-0.7,0.2-1.5-0.5-1.9c-0.7-0.4-1.4,0-1.7,0.6c0.2,0,0.4,0.1,0.6,0.1c-0.7-3.6-1.4-7.3-2.3-10.8
		C29.3,95.8,28.8,96,28.8,96.3"/>
	<path class="st5" d="M72.5,85c2.3-0.9,4.1,2.6,5.3,4c1.4,1.7,2.7,3.4,4.1,5.2c2.8,3.6,5.6,7.2,8.2,10.9c3.2,4.6-1.3,8.1-4.2,11.3
		c-1.4,1.5-2.8,3-4.2,4.6c-0.5,0.6-0.6,1-0.9,1.7c-0.4,0.9-0.7,1-1.6,1.2c-0.7,0.1-1.3,0.2-1.9-0.2c-0.4-0.2-0.7,0.3-0.3,0.6
		c0.9,0.6,2.6,0.6,3.5,0c0.5-0.3,0.7-0.7,0.9-1.2c0.4-1.1,1-1.8,1.7-2.6c1.4-1.5,2.8-3.1,4.2-4.6c1.3-1.3,2.7-2.6,3.6-4.2
		c0.8-1.4,1.2-3.1,0.8-4.6c-0.5-1.8-2-3.4-3.1-4.8c-2.5-3.4-5.1-6.8-7.8-10.1c-1.5-2-3-3.9-4.6-5.8c-1-1.2-2.3-2.3-3.9-1.5
		C72,84.6,72.2,85.1,72.5,85"/>
	<g>
		<path class="st5" d="M77.3,123.8c-0.2,0.2-0.3,0.6-0.1,0.9c0.1,0.2,0.5,0.2,0.6-0.1c0-0.2,0-0.4,0.1-0.5c0.1-0.1,0-0.3-0.1-0.4
			C77.5,123.6,77.3,123.7,77.3,123.8"/>
		<path class="st5" d="M76.6,124.6c1.5,1.4,1.8,4.4,1.9,6.3c0,0.2,0.3,0.4,0.5,0.3c0.6-0.4,1.1-1.1,1.7-1.5c0.6-0.3,1.4-0.4,1.1,0.4
			c-0.3,0.7-1.1,1.4-1.6,1.9c-0.6,0.5-1.2,1.1-1.8,1.5c-1.6,1-2.3-0.7-2.9-2c-0.1-0.4-0.7-0.2-0.6,0.2c0.5,1.5,1.5,3.4,3.3,2.5
			c1.1-0.5,2.1-1.5,2.9-2.3c0.5-0.5,1.8-1.7,1.4-2.6c-0.9-1.7-3.1,0.9-3.8,1.3c0.2,0.1,0.3,0.2,0.5,0.3c-0.1-2.1-0.4-5.3-2.2-6.7
			C76.7,124,76.3,124.4,76.6,124.6"/>
	</g>
	<path class="st5" d="M81.2,129.4c0.5-0.3,0.7-0.9,0.3-1.4c-0.4-0.5-1.1-0.3-1.4,0.2c0.2,0.1,0.3,0.2,0.5,0.3c0.3-0.6,0.6-1.4,0-1.8
		c-0.6-0.4-1.6,0.4-2.2,0.7c-0.3,0.2,0,0.6,0.3,0.5c0.3-0.2,0.6-0.3,0.9-0.5c0.2-0.1,0.6-0.4,0.8,0.1c0.1,0.2-0.2,0.6-0.3,0.8
		c-0.2,0.3,0.3,0.6,0.5,0.3c0.3-0.5,0.9,0.2,0.4,0.5C80.7,129.1,80.9,129.5,81.2,129.4"/>
	<path class="st5" d="M73.6,99.4c3,2.6,5.6,5.7,7.8,8.9c0.2,0.3,0.8,0,0.5-0.3c-2.3-3.2-4.9-6.5-8-9C73.7,98.8,73.4,99.2,73.6,99.4"
		/>
	<path class="st5" d="M78.4,123.8c-1.6-0.2-2.5-1.3-3.5-2.4c-0.2-0.3-0.6,0.1-0.5,0.4c0.8,1.4,2.2,2.6,3.9,2.6
		C78.6,124.4,78.7,123.9,78.4,123.8"/>
	<g>
		<path class="st5" d="M82.5,106.4c-0.7,0.3-1.7,1.3-0.9,1.9c0-0.2,0-0.3-0.1-0.5c-1.3,1.1-2.5,2.4-3.7,3.6
			c-0.6,0.6-1.1,1.2-1.6,1.8c-0.4,0.5-1.3,1.7-1.9,1.8c-0.4,0.1-0.2,0.7,0.2,0.6c0.6-0.1,0.8-0.4,1.2-0.9c0.6-0.8,1.3-1.5,2-2.3
			c1.4-1.5,2.8-3,4.3-4.3c0.2-0.1,0.1-0.4-0.1-0.5c0.1-0.4,0.4-0.7,0.8-0.9C83.1,106.7,82.9,106.2,82.5,106.4"/>
		<path class="st5" d="M36.6,106.6c-0.3,10-0.9,20-1.2,30c-0.3,10-1.1,8.9-0.9,18.9c0,0.4,0.6,0.4,0.6,0c0.5-10,0.7-8.9,1-18.9
			c0.3-10,0.9-20,1.1-30C37.1,106.3,36.6,106.3,36.6,106.6"/>
		<path class="st5" d="M73.7,103.9c0.1,4,0.1,8,0.3,12c0.2,4,0.4,8.1,0.6,12.1c0.4,8.2,0.6,16.4,0.9,24.7c0.2,4.7,0.2-1.8,0.4,2.9
			c0,0.4,0.6,0.4,0.6,0c0.1-8.2-0.4-5.3-0.7-13.5c-0.3-8.1-0.6-16.3-1.1-24.4c-0.1-2.2-0.2-4.3-0.4-6.5c-0.1-2.4,0-4.8-0.1-7.2
			C74.3,103.5,73.7,103.5,73.7,103.9"/>
	</g>
	<g>
		<defs>
			<path id="SVGID_1_" d="M86.4,22c-3.1-7-8.5-13.4-15.3-16.9c-2.6-2.8-8.1-3.9-11.6-4.5C55-0.2,49.7,1.1,45.4,2.8
				C36.5,6.2,28.9,13.2,25,22c-3,6.8-4.2,14.3-3.9,21.7c0.1,1.8,0.2,3.6,0.4,5.3c0.5,3.4,1.4,6.7,3,9.6c2.4,4.6,6.6,8.4,11.7,9.4
				c1,0.2,1.2,0.8,2.2,0.9c4.5,3.1,10.7,4.4,15.7,4.6c0.5,0,1.1,0,1.6,0h0.2c0.6,0,1.1,0,1.6,0c4.9-0.1,11.2-1.5,15.7-4.6
				c1-0.1,1.2-0.7,2.2-0.9c5.1-1.1,9.2-4.9,11.7-9.4c2.4-4.6,3.3-9.8,3.5-15C90.6,36.3,89.5,28.7,86.4,22 M66.1,19.3
				c0.2,0.1,0.3,0.3,0.5,0.4C66.4,19.6,66.2,19.4,66.1,19.3z"/>
		</defs>
		<clipPath id="SVGID_2_">
			<use xlink:href="#SVGID_1_"  style="overflow:visible;"/>
		</clipPath>
		<path class="st6" d="M68,19.7c-0.3-0.3-0.7-0.5-1.2-0.7c-0.1,0-1.1-0.3-1.1-0.3c0.1,0.2,0.2,0.4,0.3,0.6c-1.9-1.7-4.6-2.4-7.2-2.4
			c-0.3-0.1-0.6-0.2-0.8-0.3c1.4-0.4,2.8-0.5,4.1-0.5c3.3,0.1,6.1,2.1,7.9,4.7c0.2,0.3,0.4,0.7,0.5,1l0,0c-0.2-0.2-0.5-0.4-0.7-0.6
			l-0.1,0.1C69.2,20.7,68.6,20.2,68,19.7"/>
		<path class="st7" d="M86.4,22c-3.1-7-8.5-13.4-15.3-16.9c-2.6-2.8-8.1-3.9-11.6-4.5C55-0.2,49.7,1.1,45.4,2.8
			C36.5,6.2,28.9,13.2,25,22c-3,6.8-4.2,14.3-3.9,21.7c0.1,1.8,0.2,3.6,0.4,5.3c0.5,3.4,1.4,6.7,3,9.6c2.4,4.6,6.6,8.4,11.7,9.4
			c1,0.2,1.2,0.8,2.2,0.9c-3.3-2.2-5.6-5.4-5.8-9.7l-0.4,0c-4.1-1.4-7.1-5.6-7.1-10c0.5,0.1,1,0.1,1.4,0.1c1.7-0.3,3.1-1.6,4.2-3
			c2.1-2.6,3-5.9,4.6-8.8c1.7-3.2,3.7-6.2,6-9c3.5-4.3,7.9-8.1,12.8-10.7c1.2-0.6,2.5-1.1,3.8-1.5c1.4-0.4,2.8-0.5,4.1-0.5
			c3.3,0.1,6.1,2.1,7.9,4.7c0.2,0.3,0.4,0.7,0.5,1l0,0c1.8,1.6,3.4,3.4,4.9,5.5c3.8,5.4,5.8,12,5.7,18.6l0.6,0
			c1.2-0.9,2.7-1.1,3.8,0.3c0.6,0.8,0.9,1.9,0.9,2.9c0.1,4.4-2.9,8.8-7.1,10.1l-0.4,0c-0.2,4.3-2.5,7.4-5.8,9.7
			c1-0.1,1.2-0.7,2.2-0.9c5.1-1.1,9.2-4.9,11.7-9.4c2.4-4.6,3.3-9.8,3.5-15C90.6,36.3,89.5,28.7,86.4,22"/>
		<path class="st6" d="M85.2,23c-3-6.8-8.2-12.9-14.7-16.3C68,3.9,62.8,2.9,59.4,2.4C55,1.6,49.9,2.9,45.8,4.5
			C37.2,7.8,29.9,14.6,26.2,23c-2.9,6.6-4,13.8-3.8,21c0.1,1.7,0.2,3.4,0.4,5.1c0.5,3.3,1.4,6.4,2.9,9.3c2.3,4.4,6.4,8.1,11.2,9.1
			c0.9,0.2,1.2,0.7,2.1,0.8c-3.1-2.2-5.4-5.2-5.6-9.4l-0.4,0c-3.9-1.3-6.9-5.5-6.8-9.6c0.4,0.1,0.9,0.1,1.4,0c1.7-0.3,3-1.5,4.1-2.9
			c2.1-2.5,2.9-5.7,4.4-8.5c1.6-3.1,3.5-6,5.8-8.7c3.4-4.1,7.6-7.8,12.3-10.3c1.1-0.6,2.4-1.1,3.7-1.4c1.3-0.3,2.7-0.5,3.9-0.5
			c3.2,0.1,5.9,2,7.6,4.6c0.2,0.3,0.4,0.6,0.5,1l0,0c1.7,1.5,3.3,3.3,4.7,5.3c3.6,5.2,5.5,11.6,5.5,18l0.6,0c1.2-0.9,2.6-1,3.7,0.3
			c0.6,0.8,0.8,1.8,0.8,2.8c0.1,4.2-2.8,8.5-6.8,9.8l-0.4,0c-0.2,4.1-2.4,7.2-5.6,9.4c0.9-0.1,1.2-0.6,2.1-0.8
			c4.9-1,8.9-4.7,11.2-9.1C88.1,54.1,88.9,49,89,44C89.3,36.9,88.2,29.6,85.2,23"/>
		<path class="st7" d="M25.9,20c0.9,3.1,4.7,4.8,7.3,2.7c-0.4-0.1-0.8-0.2-1.2-0.3c0.9,2.5,3.8,3.3,5.8,1.5c0.7-0.6-0.3-1.6-1-1
			c-1.2,1-2.8,0.6-3.3-0.9c-0.2-0.6-0.8-0.7-1.2-0.3c-1.7,1.4-4.2-0.2-4.8-2.1C27.1,18.7,25.6,19.1,25.9,20"/>
		<path class="st7" d="M84.9,22.2c-0.9,1.4-2.3,1.9-3.9,2.1c-0.8,0.1-0.6,1.4,0.2,1.4c2,0.1,3.8-1.2,4.8-2.9
			C86.5,22.1,85.4,21.5,84.9,22.2"/>
		<path class="st8" d="M66.1,19.3c0.1,0.2,0.3,0.3,0.5,0.4C66.4,19.5,66.2,19.4,66.1,19.3 M32.2,59.3c-4.1-1.4-7.1-5.6-7.1-10
			c0.5,0.1,1,0.1,1.4,0.1c1.7-0.3,3.1-1.6,4.2-3c2.1-2.6,3-5.9,4.6-8.8c1.7-3.2,3.7-6.2,6-9c3.5-4.3,7.9-8.1,12.8-10.7
			c1.2-0.6,2.5-1.1,3.8-1.5c0.2,0.1,0.5,0.2,0.8,0.3c2.6,0,5.3,0.7,7.2,2.4c-0.1-0.2-0.2-0.4-0.3-0.6c0,0,1,0.3,1.1,0.3
			c0.4,0.2,0.8,0.4,1.2,0.7c0.6,0.5,1.1,1,1.7,1.5l0.1-0.1c0.2,0.2,0.5,0.4,0.7,0.6c1.8,1.6,3.4,3.4,4.9,5.5
			c3.8,5.4,5.8,12,5.7,18.6c0,0.7,0,1.5-0.1,2.2l0.2,0c-0.6,3.1-1.3,6.5-2,9.4l-0.2,1c0,0.3,0,0.5,0,0.8c-0.2,4.3-2.5,7.4-5.8,9.7
			c-4.5,3.1-10.7,4.4-15.7,4.6c-0.5,0-1.1,0-1.6,0h-0.2c-0.6,0-1.1,0-1.6,0C49.1,73.4,42.8,72,38.3,69c-3.3-2.2-5.6-5.4-5.8-9.7
			L32.2,59.3z"/>
		<path class="st9" d="M44.8,58c0,2.5-2.1,4.6-4.6,4.6c-2.6,0-4.7-2-4.7-4.5c0-2.5,2.1-4.6,4.6-4.6C42.7,53.5,44.8,55.5,44.8,58"/>
		<path class="st9" d="M75.6,58c0,2.5-2.1,4.6-4.6,4.6c-2.6,0-4.7-2-4.7-4.5c0-2.5,2.1-4.6,4.6-4.6C73.5,53.5,75.5,55.5,75.6,58"/>
		<path class="st8" d="M86.4,49.2c0.1,4.4-2.9,8.8-7.1,10.1l-0.4,0c0-0.2,0-0.5,0-0.8l0.2-1c0.7-3,1.3-6.4,2-9.4l-0.2,0
			c0.1-0.7,0.1-1.5,0.1-2.2l0.6,0c1.2-0.9,2.7-1.1,3.8,0.3C86.1,47,86.3,48.1,86.4,49.2"/>
	</g>
	<path class="st5" d="M29.9,47.3c0.7,3.5,1.3,7,2.1,10.4c0.1,0.4,0.7,0.2,0.6-0.2c-0.7-3.5-1.4-6.9-2.2-10.4
		C30.3,46.8,29.8,46.9,29.9,47.3"/>
	<path class="st5" d="M55.6,73.3c-9.1-0.1-22.6-3.5-22.7-14.7c0-0.5-0.7-0.5-0.7,0C32,70.1,46.4,74,55.6,73.8
		C56,73.8,56,73.3,55.6,73.3"/>
	<path class="st5" d="M24.7,49.3c0,4.6,3.1,8.8,7.4,10.3c0.4,0.2,0.6-0.6,0.2-0.7c-4-1.4-6.8-5.4-6.8-9.6
		C25.4,48.9,24.7,48.8,24.7,49.3"/>
	<path class="st5" d="M31.6,55.5c-1.9-0.3-3.1-2.1-3.3-3.9c0-0.3-0.6-0.2-0.5,0.1c0.2,2,1.6,4,3.7,4.4C31.8,56.1,32,55.6,31.6,55.5"
		/>
	<path class="st10" d="M39.8,41.9c-1.1,1.4-1.7,3.4-1.8,5c-0.1,1.7,0.4,3.5,1.7,4.7c1.3,1.3,3.9,2.1,5.7,0.9
		c1.8-1.2,2.4-3.6,2.5-5.6c0.1-2.7-1.5-5.6-3.5-6.4C42.4,39.9,40.9,40.6,39.8,41.9"/>
	<path class="st5" d="M44.5,52.3c-2-0.4-3.5-2.7-3.5-4.7c-0.1-2.4,2.1-4.4,4.4-3c1.9,1.2,1.9,3.6,1.5,5.5c-0.2,1.1-0.6,2.1-1.8,2.4
		c-0.9,0.2-2.2,0.1-3.1-0.3c-1.9-0.7-2.3-3.6-2.2-5.3c0.1-2,1.5-4.1,3.7-4.1c5.3-0.2,4.7,10.5,0.2,9.1c-2.1-0.7-3.3-3.3-2.6-5.3
		c0.3-1.1,1.3-2.5,2.6-2.2c1.2,0.2,1.7,1.4,1.9,2.5c0.2,1.1,0.3,2.4-0.3,3.5c-0.6,1.2-2,1.6-3.2,1c-2.1-1-2.2-4-1.4-5.9
		c0.4-0.9,1-2,1.9-2.4c1.4-0.6,2.6,0.5,3.2,1.7c0.8,1.5,0.8,3.5,0,5c-0.6,1-1.6,2.1-2.9,1.3c-0.9-0.5-1.6-1.4-1.9-2.4
		c-0.3-1-0.2-2.1,0.3-3c0.5-0.8,1.2-1.5,2.2-1.2c0.8,0.2,1.3,0.8,1.6,1.6c0.4,1,0.5,2.3,0.1,3.3c-0.3,1-1.2,1.8-2.2,1.3
		c-0.7-0.4-1.1-1.1-1.4-1.8c-0.5-1.2-0.6-2.6,0.5-3.5c1.4-1.1,3,0.2,3.2,1.7c0.3,1.4-0.7,4.8-2.5,2.7c-0.7-0.9-0.8-2.7-0.5-3.7
		c0.3-0.9,1.6-0.8,2.1-0.1c0.4,0.5,0.6,1,0.6,1.6c0.1,1.1-0.6,3.8-2.4,2.9c-0.4-0.2-0.7,0.4-0.3,0.5c2.7,1.5,3.8-2.9,3-4.7
		c-0.4-0.9-1.4-2.3-2.6-1.8c-1.3,0.5-1.3,2.4-1.2,3.5c0.1,1.1,0.6,2.9,1.9,3.1c1.4,0.3,2.2-1,2.4-2.1c0.3-1.4,0.2-3-1-4
		c-0.9-0.8-2.2-0.8-3.2-0.1c-1.1,0.9-1.3,2.3-0.9,3.6c0.3,1.1,1.1,2.8,2.4,3c3.4,0.6,3.3-4.9,2-6.7c-2.2-3-5.3,0.5-5,3.2
		c0.2,2.4,3.1,5.5,5.3,3.1c1.9-2.1,2-5.6,0-7.8c-2.5-2.7-5.4,0.3-6,3c-0.6,2.6,0.9,6.9,4.3,5.9c2.9-0.9,3-5.5,1.3-7.5
		c-2.3-2.7-5.2,0.5-5.2,3.1c0,2.7,2.9,6.1,5.8,4.5c2.7-1.6,2.5-6.4,0.8-8.6c-1.9-2.4-5.4-1.9-6.9,0.7c-0.8,1.4-0.9,3.1-0.6,4.7
		c0.3,1.4,0.7,3,2.1,3.7c1.2,0.6,3.1,0.8,4.4,0.3c1.4-0.6,1.8-2.1,2-3.5c0.4-2.7-0.9-6.5-4.3-6.1c-3.5,0.3-3.7,4.7-2.3,7.1
		c0.7,1.3,1.8,2.2,3.3,2.4C44.8,52.9,44.8,52.4,44.5,52.3"/>
	<path class="st5" d="M42.5,44.2c0.6-0.9,1.8-1,2.6-0.5c0.9,0.5,1.3,1.4,1.4,2.3c0.2,1.6,0,3.5-0.7,5c-0.2,0.4,0.4,0.7,0.5,0.3
		c0.9-2,1.4-5.4,0.1-7.3c-1.1-1.5-3.3-1.7-4.4-0.1C41.8,44.2,42.3,44.5,42.5,44.2"/>
	<path class="st5" d="M37.8,46.9c-0.1-2.8,1.5-6.9,5-6.4c0-0.2,0-0.4,0-0.7c-3.4,1-6,4.1-5.6,7.7c0,0.4,0.6,0.4,0.6,0
		c0-3.2,1.7-6.1,4.9-7.1c0.4-0.1,0.2-0.7-0.2-0.6c-3.5,0.9-5.3,4.3-5.3,7.7c0.2,0,0.4,0,0.6,0c-0.2-3.4,2-6.1,5.2-7.1
		c0.3-0.1,0.4-0.6,0-0.7c-3.9-0.6-6,3.7-5.7,7.1C37.3,47.3,37.8,47.3,37.8,46.9"/>
	<path class="st5" d="M38,48.1c0.2-3.9,3-7.5,7.3-6.6c0.4,0.1,0.6-0.4,0.3-0.7c-0.9-0.6-1.9-0.9-3-0.9c-0.5,0-0.5,0.8,0,0.8
		c1,0,1.8,0.2,2.7,0.8c0.1-0.2,0.2-0.5,0.3-0.7c-4.7-1-7.9,2.9-8,7.3C37.4,48.4,38,48.4,38,48.1"/>
	<path class="st5" d="M37.8,44.1c-0.4,0.2-0.8,0-1-0.3c-0.3-0.4-0.3-0.9-0.3-1.3c0-0.4-0.6-0.4-0.6,0c0,0.7,0.1,1.4,0.6,1.9
		c0.4,0.4,1,0.5,1.6,0.2C38.2,44.5,38,44,37.8,44.1"/>
	<path class="st5" d="M55.3,53.4c0.1,0.4,0.1,0.7-0.2,1c-0.3,0.3,0.2,0.8,0.5,0.5c0.4-0.5,0.6-1.1,0.3-1.7
		C55.7,52.8,55.2,53,55.3,53.4"/>
	<path class="st5" d="M72.2,5.9c-1.5-2.5-4.4-3.7-7.1-4.5c-3.2-0.9-6.6-1.6-9.9-1.4C47.6,0.6,40.3,4,34.6,8.7
		c-5.9,5-10,11.6-12.1,19c-2.3,8.1-2.7,17.3-0.6,25.5c1.1,4.1,3.1,8.1,6.3,11c1.4,1.3,3,2.4,4.8,3.2c0.9,0.4,1.8,0.7,2.7,0.9
		c0.9,0.2,1.7,0.8,2.7,1c0.5,0.1,0.7-0.6,0.2-0.7c-0.7-0.1-1.2-0.5-1.8-0.7c-0.8-0.3-1.6-0.4-2.4-0.7c-1.7-0.6-3.3-1.6-4.7-2.8
		c-2.8-2.4-4.9-5.5-6.2-9c-2.8-7.5-2.6-16.5-1-24.3c1.5-7.3,4.8-14.1,10.1-19.5C37.5,6.6,44,3,51,1.4c4-0.9,7.7-0.8,11.6,0.1
		c3.2,0.7,7,1.8,9,4.7C71.9,6.5,72.4,6.2,72.2,5.9"/>
	<path class="st5" d="M35.8,33.6c1.2-2.4,4-5,6.3-2.3c0.2,0.2,0.6-0.1,0.4-0.3c-0.9-1.2-2.4-1.8-3.9-1.3c-1.6,0.6-2.6,2.1-3.3,3.6
		C35.2,33.6,35.7,33.9,35.8,33.6"/>
	<path class="st5" d="M70.9,21.7c-0.4-1.6-1.9-3-3.2-4c-1.4-1.1-3.1-1.8-4.8-2c-4.1-0.5-8.1,1.3-11.4,3.4
		c-7.3,4.6-13.4,11.8-17,19.6c-1,2.2-1.8,4.5-3.2,6.5c-1.3,1.9-4.4,5.3-6.9,3.2c-0.4-0.3-0.9,0.2-0.5,0.5c2.8,2.2,6.1-0.7,7.7-2.9
		c1.3-1.7,2.1-3.7,3-5.7c0.9-2,1.9-3.9,3.1-5.7c2.4-3.9,5.3-7.5,8.7-10.6c3.2-2.9,6.9-5.7,11.1-7c2.4-0.7,5-1.1,7.4-0.2
		c2.1,0.8,4.8,2.7,5.4,5C70.3,22.3,71,22.1,70.9,21.7"/>
	<path class="st5" d="M58.8,17.1c2.7,0,5.5,0.8,7.5,2.8c0.1-0.1,0.3-0.3,0.4-0.4c-0.3-0.2-0.5-0.5-0.7-0.9c-0.1,0.1-0.3,0.3-0.4,0.4
		c0.5,0.2,1,0.2,1.5,0.5c1,0.5,1.8,1.5,2.6,2.3c0.3,0.3,0.8-0.2,0.5-0.5c-0.8-0.8-1.6-1.7-2.6-2.3c-0.6-0.3-1.1-0.4-1.7-0.6
		c-0.2-0.1-0.6,0.1-0.5,0.4c0.2,0.5,0.4,0.8,0.8,1.2c0.3,0.2,0.7-0.2,0.4-0.4c-2.1-2.1-5-2.9-7.9-2.9C58.4,16.6,58.4,17.1,58.8,17.1
		"/>
	<path class="st5" d="M81,47.1c-0.8,3.4-1.5,6.9-2.2,10.4c-0.1,0.4,0.5,0.6,0.6,0.2c0.8-3.4,1.5-6.9,2.1-10.4
		C81.6,46.9,81.1,46.8,81,47.1"/>
	<path class="st5" d="M55.8,73.8c9.3,0.2,23.7-3.7,23.5-15.3c0-0.5-0.7-0.5-0.7,0c-0.2,11.2-13.6,14.7-22.7,14.7
		C55.4,73.3,55.4,73.8,55.8,73.8"/>
	<path class="st5" d="M81.9,46.2c1.9-1.3,3.6-0.3,4,1.9c0.3,1.5,0,3.2-0.5,4.6c-1.1,2.9-3.3,5.2-6.2,6.2c-0.4,0.2-0.3,0.9,0.2,0.7
		c3.7-1.3,6.5-4.6,7.2-8.5c0.3-1.7,0.3-3.8-0.8-5.3c-1.1-1.4-2.8-1.3-4.3-0.4C81.1,45.8,81.5,46.5,81.9,46.2"/>
	<path class="st5" d="M79.9,56.1c2.1-0.3,3.5-2.3,3.7-4.4c0-0.3-0.5-0.4-0.5-0.1c-0.3,1.8-1.4,3.6-3.3,3.9
		C79.5,55.6,79.6,56.1,79.9,56.1"/>
	<path class="st10" d="M71.6,41.9c1.1,1.4,1.7,3.4,1.8,5c0.1,1.7-0.4,3.5-1.7,4.7c-1.3,1.3-3.9,2.1-5.7,0.9
		c-1.8-1.2-2.4-3.6-2.5-5.6c-0.1-2.7,1.4-5.6,3.5-6.4C69,39.9,70.5,40.6,71.6,41.9"/>
	<path class="st5" d="M67,52.9c3-0.4,4.9-4.2,3.9-7c-1-2.9-4.6-3.2-6.4-0.8c-1.5,2-1.5,6.9,1.2,8c1.3,0.5,3.1,0.3,4.3-0.3
		c1.4-0.8,1.8-2.4,2.1-3.9c0.5-2.9-0.6-6.3-4-6.7c-3.6-0.4-4.9,3.5-4.7,6.4c0.1,1.5,0.6,3,1.9,3.8c1.4,0.8,2.8,0.4,4-0.6
		c2.2-1.9,2.6-6-0.2-7.7c-1.1-0.7-2.5-0.2-3.3,0.7c-0.9,1.1-1.2,3-1,4.4c0.3,3,3.9,4.5,5.9,1.8c1.8-2.4,1-6.9-1.7-8.4
		c-2.9-1.6-5,2.5-4.9,4.8c0,2.4,2.1,6,4.8,4c2.3-1.7,2.9-5.6,0.3-7.3c-1.1-0.8-2.6-0.3-3.3,0.8c-0.9,1.3-1.1,3.1-0.7,4.5
		c0.3,1.2,1.3,2.4,2.7,2.1c1.3-0.2,2.1-2,2.4-3.2c0.3-1.3,0.1-2.6-1-3.5c-1-0.7-2.2-0.7-3.2,0.1c-1.2,1-1.3,2.7-1,4.2
		c0.3,1.1,1.1,2.2,2.4,2c2.1-0.5,2.9-5.8,0.7-6.7c-1.2-0.5-2.2,0.9-2.6,1.8c-0.5,1.2-0.5,2.6,0.2,3.7c0.6,1,1.7,1.6,2.8,1
		c0.4-0.2,0-0.7-0.3-0.5c-0.3,0.2-1.4-0.2-1.7-0.4c-0.1-0.1-0.3-0.3-0.4-0.5c-0.2-0.4-0.3-0.9-0.4-1.4c0-0.7,0.3-2.3,1.1-2.7
		c0.3,0,0.5,0,0.8,0c0.5-0.2,0.8-0.1,0.9,0.3c0.2,0.3,0.2,0.7,0.2,1c0,0.5,0,1-0.1,1.5c-0.1,0.4-0.2,1.1-0.5,1.5
		c-0.4,0.5-0.9,0.8-1.4,0.5c-0.6-0.2-0.8-0.7-1-1.3c-0.3-1.1-0.2-2.5,0.6-3.3c1-1.1,2.7-0.7,3.3,0.6c0.5,1.1,0,2.3-0.5,3.3
		c-0.3,0.6-0.8,1.3-1.6,1.4c-0.9,0.1-1.6-1-1.8-1.7c-0.3-0.9-0.2-2,0.1-3c0.2-0.6,0.5-1.1,0.9-1.5c1-0.8,2.2-0.3,2.8,0.7
		c1.2,1.8,0.5,4.2-1.3,5.4c-2.2,1.5-3.6-1.8-3.6-3.6c0-1.7,1.3-5,3.5-4.4c2.1,0.6,2.9,3.9,2.6,5.7c-0.2,1-0.6,2-1.5,2.5
		c-1.1,0.7-2.6,0.5-3.3-0.6c-1.1-1.6-0.9-5.4,1.2-6.1c2.7-1,3.5,3.4,2.7,5.1c-0.4,0.9-1.2,1.7-2.1,2.2c-1.5,0.7-3-0.2-3.5-1.7
		c-0.7-1.7-0.5-4.2,0.5-5.8c1.3-1.9,3.8-2,5.4-0.4c1.5,1.5,1.4,4,0.9,5.9C70.8,51,70.3,52,69,52.4c-1.1,0.3-2.7,0.5-3.6-0.3
		c-1.5-1.3-1.5-4.6-0.6-6.2c1.4-2.5,4.9-2.1,5.5,0.8c0.5,2.2-1.1,5.2-3.4,5.7C66.6,52.4,66.7,52.9,67,52.9"/>
	<path class="st5" d="M69.4,43.9c-1.1-1.6-3.3-1.3-4.4,0.1c-1.4,1.9-0.9,5.3,0.1,7.3c0.2,0.4,0.7,0,0.5-0.3c-0.7-1.5-0.9-3.4-0.7-5
		c0.1-0.8,0.4-1.6,1-2.1c0.9-0.7,2.3-0.7,3,0.3C69.1,44.5,69.6,44.2,69.4,43.9"/>
	<path class="st5" d="M74.1,46.9c0.3-3.4-1.8-7.6-5.7-7.1c-0.4,0.1-0.3,0.6,0,0.7c3.2,0.9,5.3,3.7,5.2,7.1c0.2,0,0.4,0,0.6,0
		c0-3.4-1.8-6.8-5.3-7.7c-0.4-0.1-0.6,0.5-0.2,0.6c3.1,1,4.9,3.8,4.9,7.1c0,0.4,0.6,0.4,0.6,0c0.4-3.7-2.2-6.7-5.6-7.7
		c0,0.2,0,0.4,0,0.7c3.5-0.5,5.1,3.6,5,6.4C73.6,47.3,74.1,47.3,74.1,46.9"/>
	<path class="st5" d="M74,48.1c-0.1-4.4-3.3-8.3-8-7.3c0.1,0.2,0.2,0.5,0.3,0.7c0.8-0.6,1.7-0.8,2.7-0.8c0.5,0,0.5-0.7,0-0.8
		c-1.1,0-2.1,0.2-3,0.9c-0.3,0.2-0.1,0.8,0.3,0.7c4.2-0.9,7,2.7,7.3,6.6C73.5,48.4,74,48.4,74,48.1"/>
	<path class="st5" d="M73.5,44.6c0.5,0.3,1.1,0.2,1.6-0.2c0.5-0.5,0.6-1.2,0.6-1.9c0-0.4-0.6-0.4-0.6,0c0,0.4,0,0.9-0.3,1.3
		c-0.2,0.3-0.6,0.5-1,0.3C73.4,44,73.2,44.5,73.5,44.6"/>
	<path class="st5" d="M71,5.3c8.9,5.2,14.8,13.6,17.4,23.4c1.4,5.3,1.8,10.9,1.5,16.4c-0.3,5.3-1.5,10.7-4.5,15.2
		c-1.5,2.2-3.4,4.1-5.7,5.5c-1.1,0.7-2.3,1.2-3.6,1.6c-0.6,0.2-1.2,0.3-1.8,0.5c-0.6,0.2-1,0.6-1.6,0.6c-0.5,0.1-0.3,0.8,0.2,0.7
		c1.1-0.1,2-0.8,3-1c1.1-0.3,2.1-0.7,3.1-1.2c2.1-1.1,3.9-2.6,5.5-4.4c3.4-4,5-9.1,5.7-14.2c1.4-11-0.5-23.1-6.8-32.4
		c-3.1-4.6-7.2-8.8-12.3-11.2C71,4.6,70.7,5.1,71,5.3"/>
	<path class="st5" d="M76.1,33.3c-0.7-1.5-1.7-3-3.3-3.6c-1.5-0.5-3,0-3.9,1.3c-0.2,0.3,0.2,0.6,0.4,0.3c2.4-2.8,5.2-0.1,6.3,2.3
		C75.8,33.9,76.2,33.6,76.1,33.3"/>
	<path class="st5" d="M69.5,21.4C77.3,28,81.3,38,80.6,48.1c0,0.5,0.7,0.5,0.7,0c0.8-10.3-3.4-20.5-11.3-27.2
		C69.7,20.6,69.1,21.1,69.5,21.4"/>
	<path class="st5" d="M78.1,20.5c2.1,3.4,3.4,7.2,4.1,11.1c0.7,4,0.6,7.9,0.3,11.9c0,0.4,0.6,0.4,0.6,0.1c0.7-3.9,0.4-8.1-0.2-12
		c-0.7-4-2.1-8-4.3-11.4C78.5,19.8,77.9,20.1,78.1,20.5"/>
	<path class="st5" d="M27.7,43.9c1.6-0.4,2.5-1.7,3.2-3.1c1-2,1.8-4.1,2.8-6c2.1-4.2,4.6-8.2,7.6-11.7c2.8-3.3,6.1-6.2,10-8.3
		c4-2.1,9.2-3.9,13.5-1.8c0.3,0.2,0.6-0.3,0.3-0.5c-2.8-1.6-6.3-1.2-9.2-0.3c-3.2,1-6.2,2.6-8.9,4.6c-5.6,4.2-9.8,10.2-13,16.3
		c-1,1.8-1.9,3.7-2.7,5.7c-0.8,1.8-1.6,4-3.7,4.6C27.2,43.5,27.4,44,27.7,43.9"/>
	<path class="st11" d="M60.5,65.3c-0.9,1.2-2.6,1.6-4,1.7c-0.9,0.1-1.8,0-2.7-0.1c-0.4-0.1-0.9-0.2-1.2-0.5
		c-0.3-0.2-0.4-0.5-0.6-0.8c-0.6-1.3-0.1-2.6,1-3.5c1.4-1.2,3.2-1.5,4.9-1C59.7,61.6,61.6,63.4,60.5,65.3c-0.2,0.2,0.2,0.4,0.3,0.2
		c1.2-1.6-0.2-3.7-1.7-4.4c-1.7-0.9-3.9-0.8-5.6,0.2c-1.3,0.8-2.4,2.2-2.1,3.9c0.2,0.7,0.6,1.5,1.2,1.8c0.4,0.2,0.9,0.3,1.3,0.4
		c0.5,0.1,1.1,0.1,1.6,0.1c1.9,0,4.1-0.4,5.2-2C60.9,65.3,60.6,65.2,60.5,65.3"/>
	<g>
		<polygon class="st12" points="12.7,39.4 11.4,39.9 7.7,32.1 9.7,31.3 		"/>
		<polygon class="st12" points="10.1,44.8 9.6,46 1.5,42.9 2.4,40.9 		"/>
		<polygon class="st12" points="8.2,49.7 8.7,51 0.8,54.4 0,52.4 		"/>
	</g>
</g>
</svg>
