<?xml version="1.0" encoding="utf-8"?>
<!-- Generator: Adobe Illustrator 23.0.5, SVG Export Plug-In . SVG Version: 6.00 Build 0)  -->
<svg version="1.1" id="圖層_1" xmlns="http://www.w3.org/2000/svg" xmlns:xlink="http://www.w3.org/1999/xlink" x="0px" y="0px"
	 viewBox="0 0 114 130.6" style="enable-background:new 0 0 114 130.6;" xml:space="preserve">
<style type="text/css">
	.st0{fill:#ECFFE0;}
	.st1{fill:#352621;}
	.st2{fill:#E16F79;}
	.st3{fill:#F9D4BB;}
	.st4{clip-path:url(#SVGID_2_);fill:#FFFFFF;}
	.st5{clip-path:url(#SVGID_2_);fill:#887C6D;}
	.st6{clip-path:url(#SVGID_2_);fill:#F9D4BB;}
	.st7{clip-path:url(#SVGID_2_);fill:#F7C3AD;}
	.st8{fill:#FFFFFF;}
	.st9{fill:none;}
	.st10{fill:#DE1A00;}
</style>
<g>
	<circle class="st0" cx="57" cy="73.6" r="57"/>
	<g>
		<path class="st1" d="M41.6,118.1c3.1-5.4,10.4-4.6,15.6-4.4c3,0.1,5.9,0.3,8.9,0.6c1.3,0.1,2.6,0.2,3.8,0.6
			c1.5,0.5,2.1,1.8,2.9,3.1c0.2,0.3,0.7,0,0.5-0.3c-0.7-1-1.2-2.2-2.3-2.9c-1-0.6-2.2-0.7-3.4-0.9c-3.5-0.4-7-0.6-10.5-0.7
			c-5.2-0.2-13.1-1-16,4.7C41,118.1,41.4,118.4,41.6,118.1"/>
		<path class="st2" d="M79.2,82.6l0.2,0c0.3,4.7,1.4,9.4,2.4,14c0.5,2.3,0.9,4.8,0,7c-0.3,0.8-0.9,1.4-1.3,2.1
			c-0.4,0.6-0.7,1.4-1.5,1.4l-0.1,0c-0.5,0.2-1.1,0.2-1.7,0c-1.1-0.4-1.9-1.3-2.6-2.2c-0.4-0.5-0.9-1.1-1.2-1.7
			c-0.4-0.7-0.5-1.4-0.8-2.1l-0.1,0c0.1-1.9,0.2-3.8,0.5-5.7c0.2-1.7-0.1-3.5-0.1-5.2l0.2-0.4c0.1,0,0.2-0.1,0.3-0.2
			c-0.2-1.3-0.3-2.6-0.5-3.8c0-0.3-0.1-0.6-0.2-0.9l0.1-1.5c-0.4-0.4-0.7-0.7-1-1.2c-0.2-0.5-0.3-1-0.1-1.5c0.1-0.2,0.3-0.4,0.4-0.6
			c0.4-0.5,0.8-0.9,1.2-1.4c0,0,0.1,0,0.1,0l0.1,0c0.1,0.9,0.3,1.8,0.4,2.6l-0.5,0c0.1,0.1,0.1,0.1,0.2,0.2c0.2,0.2,0.5,0.4,0.8,0.5
			c0.7,0.3,1.5,0.2,2.1-0.3c0.4-0.2,0.6-0.6,0.9-1l-0.1,0c-0.2-0.6-0.3-1.5-0.5-2.3l0.2,0c0.6,0.2,1.2,0.4,1.7,0.7
			c0.1,0.1,0.3,0.2,0.4,0.3c0.3,0.2,0.4,0.6,0.4,1c0,0.4,0,0.7-0.1,1.1C79.4,81.9,79.3,82.3,79.2,82.6"/>
		<path class="st3" d="M73,77.4c-0.2-0.1-0.4-0.2-0.6-0.4c-0.8-0.7-1.4-1.7-1.7-2.7c-0.3-1.1-0.3-2.8,0.2-3.8c0.5-1.3,1.9-2.2,3-3
			c0.4-0.3,0.8-0.6,1.2-0.8l0.3,0c-0.2-2.1-0.1-4.3,0.4-6.4c0.3-0.1,0.6,0,0.8,0.3c0.1-1,0.2-2,0.5-3c0.1-0.2,0.1-0.4,0.3-0.5
			c0.4-0.3,0.8,0.3,1,0.8c1.5,4.2,1.3,8.9,0.7,13.4c-0.3,2.1-0.7,4.4-2.4,5.5l0.1,0.1c0,0.4,0.1,1.1,0.3,1.7
			c0.1,0.8,0.3,1.7,0.5,2.3l0.1,0c-0.2,0.4-0.5,0.7-0.9,1c-0.6,0.4-1.4,0.6-2.1,0.3c-0.3-0.1-0.5-0.3-0.8-0.5
			c-0.1-0.1-0.1-0.1-0.2-0.2l0.5,0c-0.2-0.9-0.3-1.7-0.4-2.6c-0.1-0.4-0.1-0.8-0.2-1.3l-0.1,0C73.1,77.5,73.1,77.5,73,77.4"/>
		<path class="st2" d="M41.7,91.5l-0.3,0c-1.7,1.8-3.5,3.5-5.2,5.3l-0.2,0c0,0,0,0,0,0c0,0.1-0.1,0.2-0.2,0.2c0,0,0,0,0.1,0.1v0
			c0.4,0.3,0.7,0.7,1,1c0.8,0.9,1.6,1.8,2.4,2.7c0.4,0.5,0.7,1,1.2,1.4c0.3,0.3,0.4,0.8,0.8,1c0.2,0.1,0.3,0.1,0.5,0.1l0.3,0
			c0-2.6-0.2-5.2-0.5-7.8C41.5,94.2,41.7,92.8,41.7,91.5 M42.1,108.1l-0.3,0c-0.3,0.5-0.6,1-1,1.4c-0.3,0.4-0.8,0.7-1.2,0.9l0.1,0
			c-0.4,0.4-1.1,0.3-1.7,0.2c-0.2,0-0.4,0-0.5-0.1c-0.3-0.1-0.6-0.4-0.8-0.8c-0.1-0.1-0.1-0.3-0.1-0.4c-0.1-0.3-0.1-0.6-0.3-0.8
			c-0.2-0.3-0.4-0.5-0.6-0.8c-0.5-0.6-0.9-1.1-1.4-1.7c-0.9-1.1-1.9-2.3-2.9-3.4c-0.8-0.9-1.7-1.9-2.3-3c-0.6-1.1-0.9-2.5-0.6-3.7
			c0.2-0.8,0.6-1.4,1.1-2.1c3.5-5.2,7.1-10.1,10.8-15.2c0.4-0.5,0.8-1.1,1.3-1.4c0.5-0.3,1.1-0.4,1.6-0.2c2.2-1.4,4.5-2.6,6.8-3.7
			l0.1,0c0.1-0.2,0.2-0.4,0.4-0.5c0.3-0.2,0.6-0.3,0.9-0.4c0.8-0.3,1.6-0.5,2.4-0.8c-0.2,0.5-0.6,1-0.9,1.4L52.7,73
			c-0.2,0.1-0.4,0.2-0.7,0.3l0,0.1c1.3,3,3,5.7,5.2,8.1c2.2-2.4,4-5.1,5.2-8.1l-0.2-0.2c-0.1-0.1-0.3-0.1-0.4-0.2l-0.1-0.1
			c-0.4-0.4-0.7-0.9-0.9-1.4c0.8,0.3,1.6,0.5,2.4,0.8c0.3,0.1,0.7,0.2,0.9,0.4c0.2,0.1,0.3,0.3,0.4,0.5l0.1,0
			c2.4,1.2,4.8,2.5,7.1,3.9l0.2,0c0.4,0,0.7,0.1,1.1,0.2c0.1,0,0.1,0.1,0.2,0.1l0.1,0c0,0.4,0.1,0.8,0.2,1.3l-0.1,0c0,0-0.1,0-0.1,0
			c-0.4,0.5-0.8,0.9-1.2,1.4c-0.2,0.2-0.3,0.4-0.4,0.6c-0.2,0.5-0.1,1.1,0.1,1.5c0.2,0.5,0.6,0.8,1,1.2L72.6,85
			c0.1,0.3,0.1,0.6,0.2,0.9c0.2,1.3,0.3,2.6,0.5,3.8c-0.1,0.1-0.2,0.1-0.3,0.2l-0.2,0.4c0,1.7,0.3,3.5,0.1,5.2
			c-0.2,1.9-0.4,3.8-0.5,5.7c-0.2,5,0.2,9.9,1.2,14.9c0.2,1.2-0.4,1.6-1.3,2.1l0,0c-4.4,2.1-9.9,2.3-14.9,2.3h-0.2
			c-4.9-0.1-10.9-0.3-15.3-2.5c-0.2-0.2-0.5-0.4-0.6-0.6c-0.2-0.3-0.3-0.7-0.2-1.3C41.5,113.4,41.9,110.8,42.1,108.1z"/>
		<path class="st3" d="M60.8,71.5c0.2,0.5,0.6,1,0.9,1.4l0.1,0.1c0.1,0.1,0.3,0.1,0.4,0.2l0.2,0.2c-1.3,3-3,5.7-5.2,8.1
			c-2.2-2.4-4-5.1-5.2-8.1l0-0.1c0.2-0.1,0.4-0.2,0.7-0.3l0.1-0.1c0.4-0.4,0.7-0.9,0.9-1.4c0.5-1,0.7-2.2,0.5-3.4L54,67.7
			c0.4-0.9,1.4-1.4,2.3-1.6C56.7,66,57,66,57.3,66c0.4,0,0.8,0.2,1.2,0.4c0.7,0.4,1.5,0.7,2,1.4l-0.1,0.3
			C60.2,69.3,60.4,70.5,60.8,71.5"/>
		<path class="st3" d="M40,110.8c-0.1-0.1-0.1-0.3-0.2-0.4l-0.3,0l-0.1,0c0.5-0.2,0.9-0.5,1.2-0.9c0.4-0.4,0.7-0.9,1-1.4l0.3,0
			c-0.2,2.7-0.5,5.3-1.1,8c-0.1,0.6,0,0.9,0.2,1.3l-0.3,0.2c-0.4,1.1-1,1.9-2.1,1.3c-0.6-0.3-4.7-3.9-2.6-4c0.1,0,0.2,0,0.2,0
			c0.3,0.1,0.6,0.3,0.9,0.6c0.3,0.3,0.6,0.7,0.9,0.9c0-1,0.2-1.9,0.4-2.9c0.1-0.4,0.2-0.9,0.4-1.3c0.2-0.5,0.4-1,0.8-1.4L40,110.8"
			/>
		<path class="st3" d="M38.5,113.5h0.2c-0.2,0.9-0.4,1.9-0.4,2.9c-0.4-0.2-0.6-0.6-0.9-0.9c-0.2-0.3-0.5-0.5-0.9-0.6l0,0
			c-0.3-0.1-0.4-0.6-0.2-0.8c0.2-0.2,0.6-0.2,0.8,0.1c-0.1-0.2-0.3-0.5-0.3-0.8c0-0.3,0.2-0.6,0.5-0.6c0.1,0,0.2,0.1,0.3,0.1
			C37.9,113.2,38.2,113.3,38.5,113.5"/>
		<path class="st1" d="M54,68.1c0.1,1.8-0.3,3.2-1.4,4.6c-0.2,0.3,0.1,0.7,0.4,0.4c1.3-1.3,1.8-3.3,1.5-5.1
			C54.4,67.8,54,67.8,54,68.1"/>
		<path class="st1" d="M52.7,72.8c-0.1,0-0.2,0-0.3,0.1c-0.1,0-0.2,0.1-0.3,0.2c-0.2,0.2,0,0.5,0.2,0.5c0.1,0,0.2-0.1,0.4-0.1
			c0.1-0.1,0.2-0.1,0.3-0.2C53,73,52.9,72.8,52.7,72.8"/>
		<path class="st1" d="M40.1,88.9c0.4,0.5,0.9,1.1,1.5,1.3c0.2,0.1,0.4-0.3,0.2-0.4c-0.2-0.2-0.5-0.3-0.7-0.5
			c-0.2-0.2-0.4-0.4-0.6-0.6C40.3,88.4,39.9,88.7,40.1,88.9"/>
		<path class="st1" d="M41.6,90.3c-0.1,1.3-0.2,2.5-0.2,3.8c0,1.3,0.2,2.6,0.3,3.9c0.2,2.6,0.3,5.2,0.2,7.8
			c-0.1,2.7-0.4,5.3-0.8,7.9c-0.1,0.9-0.6,2.1-0.4,3c0.1,0.7,0.7,1.2,1.3,1.7c0.3,0.2,0.6-0.1,0.4-0.4c-0.3-0.3-0.7-0.6-0.9-1
			c-0.3-0.6-0.1-1.3,0-1.9c0.2-1.1,0.4-2.3,0.5-3.4c0.3-2.4,0.5-4.8,0.5-7.2c0-2.3-0.1-4.7-0.3-7c-0.1-1.2-0.3-2.4-0.3-3.7
			c0-1.2,0.1-2.4,0.2-3.6C42.1,90,41.6,90,41.6,90.3"/>
		<path class="st1" d="M41.7,118.2c4.6,2.5,10.4,2.5,15.5,2.6c0.4,0,0.4-0.6,0-0.6c-5.2-0.1-10.4-0.3-15.2-2.4
			C41.7,117.7,41.4,118.1,41.7,118.2"/>
		<path class="st1" d="M51.9,73.6c1.2,3,3,5.8,5.3,8.2c0.2,0.2,0.6-0.1,0.4-0.4c-2.1-2.4-3.9-5.1-5.2-8C52.2,73,51.7,73.3,51.9,73.6
			"/>
		<path class="st1" d="M53.8,71.2c-1,0.3-2.1,0.5-3,1c-0.6,0.3-1.1,0.7-1,1.5c0,0.4,0.5,0.4,0.5,0c0.1-0.9,1.2-1.1,1.9-1.3
			c0.6-0.2,1.2-0.4,1.8-0.7C54.2,71.6,54.1,71.2,53.8,71.2"/>
		<path class="st1" d="M49.8,73.1c-2.5,1.1-4.9,2.4-7.2,3.9c-0.3,0.2,0,0.7,0.3,0.5c2.4-1.3,4.7-2.7,7.1-4
			C50.2,73.4,50.1,73,49.8,73.1"/>
		<path class="st1" d="M60.1,68.1c-0.3,1.8,0.2,3.8,1.5,5.1c0.3,0.3,0.7-0.1,0.4-0.4c-1.1-1.4-1.5-2.8-1.4-4.6
			C60.6,67.8,60.2,67.8,60.1,68.1"/>
		<path class="st1" d="M61.7,73.2c0.1,0.1,0.2,0.2,0.3,0.2c0.1,0.1,0.2,0.1,0.4,0.1c0.2,0,0.4-0.3,0.2-0.5c-0.1-0.1-0.2-0.1-0.3-0.2
			c-0.1,0-0.2-0.1-0.3-0.1C61.7,72.8,61.6,73,61.7,73.2"/>
		<path class="st1" d="M73.2,89.5c-0.1,0.1-0.3,0.1-0.4,0.3c-0.1,0.2,0,0.4,0.2,0.4c0.2,0,0.3-0.1,0.4-0.2c0.1-0.1,0.1-0.2,0-0.3
			C73.4,89.6,73.3,89.5,73.2,89.5"/>
		<path class="st1" d="M72.5,90.3c0,1.1,0.1,2.3,0.1,3.4c0,1.2-0.2,2.4-0.3,3.6c-0.2,2.4-0.3,4.8-0.3,7.2c0,2.3,0.2,4.7,0.5,7
			c0.1,1.1,0.3,2.3,0.5,3.4c0.1,0.5,0.4,1.4,0.2,1.9c-0.1,0.6-0.7,0.8-1.2,1.1c-0.2,0.2-0.1,0.7,0.2,0.5c0.5-0.2,1.2-0.6,1.4-1.1
			c0.3-0.8,0-1.8-0.1-2.5c-0.5-2.8-0.8-5.5-0.9-8.3c-0.1-2.7-0.1-5.4,0.1-8c0.1-1.4,0.4-2.7,0.4-4.1c0-1.3-0.2-2.7-0.2-4
			C73,90,72.5,90,72.5,90.3"/>
		<path class="st1" d="M72.6,117.8c-4.8,2.1-10,2.4-15.2,2.4c-0.4,0-0.4,0.6,0,0.6c5.1-0.1,10.8-0.1,15.5-2.6
			C73.2,118.1,72.9,117.7,72.6,117.8"/>
		<path class="st1" d="M62.3,73.3c-1.3,3-3.1,5.6-5.2,8c-0.2,0.3,0.1,0.6,0.4,0.4c2.2-2.3,4-5.2,5.3-8.2
			C62.9,73.3,62.4,73,62.3,73.3"/>
		<path class="st1" d="M60.7,71.7c0.6,0.2,1.2,0.5,1.8,0.7c0.7,0.2,1.8,0.4,1.9,1.3c0,0.4,0.5,0.4,0.5,0c0-0.7-0.4-1.2-1-1.5
			c-0.9-0.4-2-0.7-3-1C60.5,71.2,60.4,71.6,60.7,71.7"/>
		<path class="st1" d="M54.2,67.8c1.3-2.4,4.6-1.6,6,0.1c0.2,0.3,0.6-0.1,0.4-0.4c-1.6-2-5.5-2.9-6.8,0
			C53.7,67.9,54.1,68.1,54.2,67.8"/>
		<path class="st1" d="M64.6,73.5c2.4,1.3,4.7,2.6,7.1,4c0.3,0.2,0.6-0.3,0.3-0.5c-2.2-1.5-4.7-2.9-7.2-3.9
			C64.5,73,64.4,73.4,64.6,73.5"/>
		<path class="st1" d="M43.4,76.9c-1-0.5-1.9-0.1-2.6,0.7c-1.1,1.2-2,2.7-2.9,4c-2.2,3-4.4,6-6.5,9.1c-1.6,2.3-4,4.9-3.1,8
			c0.4,1.4,1.4,2.6,2.3,3.7c1.2,1.3,2.3,2.7,3.5,4.1c0.6,0.7,1.4,1.4,1.9,2.3c0.3,0.5,0.2,1.2,0.6,1.7c0.7,0.8,2.3,1,3.1,0.4
			c0.3-0.2,0-0.7-0.3-0.5c-0.4,0.3-1.1,0.3-1.6,0.2c-0.7-0.2-0.9-0.4-1.2-1.1c-0.2-0.6-0.3-0.9-0.8-1.5c-1.1-1.3-2.1-2.5-3.2-3.8
			c-2.3-2.7-5.8-5.7-3.3-9.5c1.9-3.1,4.1-6,6.2-8.9c1-1.5,2.1-2.9,3.2-4.3c0.6-0.8,1.1-1.6,1.7-2.3c0.6-0.9,1.5-2,2.7-1.5
			C43.5,77.5,43.6,77,43.4,76.9"/>
		<path class="st1" d="M39.7,110.7c-1.4,1.2-1.6,3.9-1.7,5.7c0.1-0.1,0.3-0.2,0.4-0.2c-0.6-0.4-2.1-2.5-2.9-1.2
			c-0.4,0.7,0.4,1.6,0.8,2c0.7,0.8,1.4,1.6,2.3,2.1c1.3,0.8,2.1-0.2,2.6-1.3c0.1-0.3-0.3-0.6-0.4-0.3c-0.3,0.7-0.7,1.5-1.5,1.3
			c-0.2-0.1-0.4-0.2-0.6-0.3c-0.5-0.4-1-0.9-1.5-1.3c-0.3-0.4-1.1-1-1.2-1.5c-0.1-0.7,0.6-0.4,1-0.1c0.5,0.3,0.8,0.8,1.2,1.1
			c0.2,0.1,0.4,0,0.4-0.2c0.1-1.6,0.3-4.1,1.5-5.3C40.3,110.9,40,110.5,39.7,110.7"/>
		<path class="st1" d="M36.6,114.7c-0.4-0.2,0-0.7,0.3-0.4c0.2,0.3,0.6,0,0.4-0.3c-0.1-0.3-0.4-1.1,0.2-0.9c0.3,0.1,0.6,0.4,0.9,0.5
			c0.3,0.1,0.5-0.3,0.2-0.4c-0.3-0.2-0.7-0.4-1-0.6c-0.2-0.1-0.5-0.1-0.7,0c-0.6,0.4-0.3,1.1-0.1,1.6c0.1-0.1,0.3-0.2,0.4-0.3
			c-0.3-0.4-0.8-0.5-1.1-0.1c-0.3,0.4-0.2,1,0.2,1.2C36.6,115.3,36.8,114.9,36.6,114.7"/>
		<path class="st1" d="M36,97.3c0.3,0,0.3-0.5,0-0.5C35.6,96.8,35.6,97.3,36,97.3"/>
		<path class="st1" d="M38.7,110.8c1.5-0.1,2.7-1.3,3.3-2.6c0.1-0.3-0.2-0.5-0.4-0.3c-0.8,1.1-1.5,2.2-2.9,2.4
			C38.3,110.4,38.4,110.9,38.7,110.8"/>
		<path class="st1" d="M35.1,96c0.2,0.3,0.4,0.5,0.6,0.8c-0.1,0.1-0.2,0.3-0.1,0.4c1.3,1.2,2.5,2.6,3.6,3.9c0.7,0.9,1.3,2.2,2.5,2.4
			c0.3,0.1,0.5-0.5,0.1-0.5c-0.6-0.1-1-0.8-1.4-1.3c-0.4-0.5-0.9-1.1-1.3-1.6c-1-1.2-2-2.3-3.1-3.3c0,0.1,0,0.3,0,0.4
			c0.7-0.5-0.3-1.4-0.7-1.6C35.1,95.4,34.9,95.8,35.1,96"/>
		<path class="st1" d="M36.4,96.9c1.8-1.7,3.5-3.5,5.3-5.2c0.2-0.2-0.1-0.6-0.4-0.4c-1.8,1.7-3.5,3.5-5.2,5.3
			C35.9,96.8,36.2,97.1,36.4,96.9"/>
		<path class="st1" d="M39.6,110.5c0.1,0.2,0.1,0.3,0.2,0.5c0.1,0.1,0.2,0.2,0.4,0.1c0.1-0.1,0.1-0.2,0.1-0.4
			c-0.1-0.1-0.1-0.3-0.2-0.4c-0.1-0.1-0.2-0.2-0.3-0.1C39.7,110.3,39.6,110.4,39.6,110.5"/>
		<path class="st1" d="M74.9,66.4c-1.1,0.4-2.1,1.3-3,2.1c-0.9,0.8-1.5,1.7-1.7,3c-0.3,2.6,0.6,5,2.7,6.3c0.3,0.2,0.6-0.3,0.3-0.5
			c-2-1.2-2.9-3.6-2.4-5.9c0.4-2.1,2.6-3.3,4.2-4.4C75.3,66.8,75.2,66.3,74.9,66.4"/>
		<path class="st1" d="M75.5,66.7c-0.1-2.1,0-4.2,0.4-6.3c-0.1,0.1-0.2,0.2-0.3,0.2c0.2,0.1,0.4,0.1,0.5,0.2
			c0.2,0.2,0.5,0.1,0.5-0.2c0-0.6,0.1-1.2,0.2-1.8c0-0.2,0.1-0.5,0.1-0.7c0-0.4,0.1-0.5,0.4-0.4c0.6,0,0.6,0.9,0.8,1.4
			c0.1,0.5,0.3,1,0.4,1.5c0.4,1.9,0.5,3.9,0.4,5.9c-0.1,1.9-0.2,3.8-0.5,5.6c-0.3,1.7-0.8,3.5-2.3,4.5c-0.3,0.2,0,0.8,0.3,0.5
			c1.7-1.1,2.3-3.1,2.6-5.1c0.4-2.6,0.6-5.4,0.5-8c-0.1-1.3-0.2-2.6-0.5-3.8c-0.2-1-0.4-2.4-1.1-3.2c-1.6-1.7-1.9,2.7-1.9,3.5
			c0.2-0.1,0.3-0.1,0.5-0.2c-0.3-0.3-0.5-0.4-1-0.3c-0.1,0-0.3,0.1-0.3,0.2c-0.4,2.1-0.6,4.3-0.3,6.5C75.1,67.1,75.6,67.1,75.5,66.7
			"/>
		<path class="st1" d="M76.3,76.9c0.1,1.3,0.3,2.8,0.7,4.1c0.1,0.4,0.6,0.2,0.5-0.2c-0.2-1.3-0.5-2.7-0.7-4
			C76.8,76.5,76.3,76.6,76.3,76.9"/>
		<path class="st1" d="M73,77.5c0.1,1.3,0.3,2.7,0.6,4c0.1,0.4,0.6,0.2,0.6-0.2c-0.3-1.3-0.4-2.6-0.7-3.9C73.4,77.2,73,77.2,73,77.5
			"/>
		<path class="st1" d="M72.6,81c0.9,1,1.9,1.9,3.2,1.5c1.1-0.3,1.9-1.3,2.2-2.4c0.1-0.3-0.4-0.5-0.5-0.2c-0.4,0.8-0.8,1.6-1.7,2
			c-1.2,0.4-2-0.5-2.9-1.2C72.7,80.5,72.4,80.8,72.6,81"/>
		<path class="st1" d="M77,78.8c0.8,0.4,2.1,0.7,2.2,1.7c0.1,0.7-0.2,1.6-0.5,2.3c-0.1,0.4,0.4,0.5,0.6,0.2c0.3-0.9,0.8-2.2,0.4-3.1
			c-0.4-1-1.7-1.3-2.6-1.5C76.8,78.3,76.7,78.7,77,78.8"/>
		<path class="st1" d="M73.5,78.7C73.5,78.7,73.5,78.7,73.5,78.7c-0.1-0.1-0.2-0.2-0.3-0.2c-0.4,0.2-0.9,0.8-1.2,1.2
			c-0.3,0.4-0.7,0.7-0.8,1.2c-0.4,1.1,0.5,2.1,1.2,2.9c0.3,0.3,0.7-0.2,0.4-0.4c-0.6-0.7-1.5-1.6-0.9-2.6c0.1-0.1,1.4-1.6,1.3-1.7
			C73.4,79.1,73.7,78.9,73.5,78.7"/>
		<path class="st1" d="M71.9,77.5c0.4,0.1,0.7,0.2,1.1,0.3c0.3,0.1,0.5-0.4,0.1-0.5C72.7,77.1,72.3,77,72,77
			C71.7,77,71.6,77.4,71.9,77.5"/>
		<path class="st1" d="M79.2,82.6c0.2,4.4,1.2,8.6,2.1,12.9c0.5,2.2,1.1,4.4,0.7,6.7c-0.2,1.1-0.7,2-1.3,2.9
			c-0.5,0.7-0.9,1.7-1.7,1.9c-0.3,0.1-0.2,0.6,0.1,0.6c0.6-0.1,1-0.3,1.3-0.8c0.5-0.8,1.1-1.5,1.6-2.4c1-1.8,0.9-4.1,0.6-6.1
			c-0.9-5.2-2.3-10.3-2.8-15.6C79.6,82.3,79.1,82.3,79.2,82.6"/>
		<path class="st1" d="M72.4,85.1c0.4,1.8,0.5,3.6,0.7,5.4c0.2,1.7,0.4,3.4,0.7,5.1c0,0.3,0.5,0.2,0.5-0.1c-0.2-1.9-0.4-3.7-0.6-5.6
			c-0.2-1.6-0.2-3.4-0.7-4.9C72.7,84.7,72.3,84.8,72.4,85.1"/>
		<path class="st1" d="M72.3,101.3c0.3,1,0.6,1.9,1.1,2.7c0.5,0.8,1.1,1.5,1.7,2.2c1,1.1,2.5,1.9,3.9,1.2c0.3-0.1,0.1-0.6-0.2-0.5
			c-1.6,0.6-2.9-0.7-3.9-1.9c-0.5-0.6-1-1.2-1.4-1.9c-0.4-0.6-0.5-1.4-0.8-2C72.6,100.8,72.2,101,72.3,101.3"/>
		<g>
			<defs>
				<path id="SVGID_1_" d="M87.2,51c-0.1-2-0.6-3.9-0.9-5.9c-0.1-0.9-0.1-1.7,0.1-2.5c0.3-1.7,1-3.2,1.3-5.1
					c0.7-4.7-0.9-9.4-2.4-13.7c-1.5-4.1-3.9-7.9-6.9-11c-4-4-9.3-6.7-14.8-7.6c-2.5-0.4-4.9-0.3-7.2,0.4c-6.9-0.6-13.7,2.6-18.5,8
					c-2.4,2.8-4.1,6.2-5.7,9.5c-1.8,3.6-3.2,7.7-2.9,11.7c0.2,2.8,1.3,4.8,0.7,7.7c-0.4,1.9-1.1,3.8-1.4,5.8c-0.1,0.7-0.1,1.4,0,2.1
					c0.3,4,2.6,7.7,6,9.5c1.1,0.6,2.3,0.9,3.3,1.6c0.3,0.2,0.6,0.5,0.8,0.7c0.6,0.7,0.9,1.6,0.8,2.5c-0.2,1.3-1.9,2.1-2.7,1.2
					c1.2,2.3,3.5,3.8,6,4c2.1,0.1,4.2-0.8,5.7-2.5c2.4,0.8,4.9,1.3,7.1,1.5c0.4,0,1.5,0.1,2.1,0.1l0,0c0.5,0,0.9,0,1.4,0
					c2.2,0,4.8-0.2,7.3-0.9l0.1,0.2c1.3,1.6,3.2,2.7,5.3,2.7c2.5,0.1,4.9-1.3,6.3-3.4c-1,0.8-2.5-0.2-2.6-1.5
					c-0.1-0.9,0.4-1.8,1.1-2.5c0.2-0.2,0.5-0.4,0.8-0.6c1.1-0.6,2.3-0.9,3.4-1.4c3.7-1.5,6.3-5.2,6.8-9.3
					C87.2,52.1,87.3,51.6,87.2,51 M46.2,19.9C46.1,19.9,46.1,19.9,46.2,19.9C46.1,19.9,46.1,19.9,46.2,19.9z"/>
			</defs>
			<clipPath id="SVGID_2_">
				<use xlink:href="#SVGID_1_"  style="overflow:visible;"/>
			</clipPath>
			<path class="st4" d="M87.2,51c-0.1-2-0.6-3.9-0.9-5.9c-0.1-0.9-0.1-1.7,0.1-2.5c0.3-1.7,1-3.2,1.3-5.1c0.7-4.7-0.9-9.4-2.4-13.7
				c-1.5-4.1-3.9-7.9-6.9-11c-4-4-9.3-6.7-14.8-7.6c-2.5-0.4-4.9-0.3-7.2,0.4c-6.9-0.6-13.7,2.6-18.5,8c-2.4,2.8-4.1,6.2-5.7,9.5
				c-1.8,3.6-3.2,7.7-2.9,11.7c0.2,2.8,1.3,4.8,0.7,7.7c-0.4,1.9-1.1,3.8-1.4,5.8c-0.1,0.7-0.1,1.4,0,2.1c0.3,4,2.6,7.7,6,9.5
				c1.1,0.6,2.3,0.9,3.3,1.6c0.3,0.2,0.6,0.5,0.8,0.7c0.6,0.7,0.9,1.6,0.8,2.5c-0.2,1.3-1.9,2.1-2.7,1.2c1.2,2.3,3.5,3.8,6,4
				c2.1,0.1,4.2-0.8,5.7-2.5c-3.2-1.1-6.2-2.8-8.2-5.2c-1.5-1.8-2.5-4.1-2.5-6.8l-0.3,0c-2.1-0.8-4-2.9-5-5.2
				c0.6-0.2,1.2-0.6,1.8-1.1c0.8-0.6,1.4-1.4,2-2.2c0.1-0.1,0.2-0.3,0.3-0.4c2.2-3.1,3-7.1,4.3-10.6c0.7-2,1.2-4.2,1.8-6.2
				c0.8-2.4,1.5-4.7,2.3-7.1c0.3-0.9,0.6-1.9,1.2-2.7c0,0,0.1-0.1,0.1-0.1c0,0,0-0.1,0-0.1c0,0,0,0,0,0.1c0,0,0,0,0,0
				c0,0,0.1,0,0.1,0c1.2-0.2,2.5-0.1,3.6,0.2c-0.1-0.2-0.3-0.4-0.4-0.4c0.8,0,1.7,0,2.5,0.2l0-0.2l0.4-0.1c1.4-1.1,3.1-1.7,4.8-1.9
				c-0.3,0.4-0.7,0.7-1,1.1c1.2-0.4,2.4-0.6,3.6-0.7c-0.2,0.2-0.5,0.5-0.7,0.7c2.2-0.1,4.5,0.3,6.6,1.1l0,0c0.5,0.7,0.9,1.5,1.3,2.3
				c4.5,8.7,7.4,18.1,12.6,26.5c0.1,0.2,0.2,0.3,0.3,0.4c0.5,0.7,1,1.6,1.7,2.3c0.5,0.5,1.1,1,1.7,1.3c-1.2,2.2-3.2,4.1-5.4,4.7
				l-0.3,0c-0.2,2.5-1.2,4.6-2.8,6.2c-2.2,2.4-5.4,3.9-8.8,4.7l0.1,0.2c1.3,1.6,3.2,2.7,5.3,2.7c2.5,0.1,4.9-1.3,6.3-3.4
				c-1,0.8-2.5-0.2-2.6-1.5c-0.1-0.9,0.4-1.8,1.1-2.5c0.2-0.2,0.5-0.4,0.8-0.6c1.1-0.6,2.3-0.9,3.4-1.4c3.7-1.5,6.3-5.2,6.8-9.3
				C87.2,52.1,87.3,51.6,87.2,51"/>
			<path class="st5" d="M86,50.9c-0.1-1.9-0.6-3.8-0.8-5.7c-0.1-0.9-0.1-1.6,0.1-2.4c0.3-1.7,1-3.1,1.2-5c0.6-4.5-0.9-9.1-2.3-13.2
				c-1.4-4-3.7-7.7-6.6-10.6c-3.9-3.9-8.9-6.5-14.1-7.4c-2.4-0.4-4.7-0.3-6.9,0.4c-6.6-0.6-13.2,2.5-17.7,7.7
				c-2.3,2.7-3.9,6-5.5,9.2c-1.7,3.5-3,7.4-2.8,11.4c0.1,2.7,1.3,4.7,0.7,7.4c-0.4,1.9-1.1,3.7-1.3,5.6c-0.1,0.7-0.1,1.3,0,2
				c0.3,3.8,2.5,7.5,5.7,9.2c1,0.5,2.2,0.9,3.1,1.6c0.3,0.2,0.5,0.4,0.8,0.7c0.6,0.7,0.9,1.5,0.8,2.4c-0.2,1.2-1.8,2.1-2.6,1.2
				c1.1,2.2,3.4,3.7,5.7,3.8c2,0.1,4-0.8,5.4-2.4c-3-1.1-5.9-2.7-7.9-5.1c-1.5-1.8-2.4-3.9-2.4-6.5l-0.3,0c-2-0.8-3.8-2.8-4.8-5
				c0.6-0.2,1.2-0.6,1.7-1c0.7-0.6,1.4-1.4,1.9-2.1c0.1-0.1,0.2-0.3,0.3-0.4c2.1-3,2.9-6.9,4.1-10.3c0.7-2,1.1-4,1.8-6
				c0.7-2.3,1.5-4.6,2.2-6.9c0.3-0.9,0.6-1.8,1.2-2.6c0,0,0.1-0.1,0.1-0.1c0,0,0-0.1,0-0.1c0,0,0,0,0,0.1c0,0,0,0,0,0
				c0,0,0.1,0,0.1,0c1.2-0.2,2.4-0.1,3.5,0.2c-0.1-0.2-0.2-0.3-0.4-0.4c0.8,0,1.6,0,2.4,0.2l0-0.2l0.4-0.1c1.4-1,3-1.7,4.6-1.9
				c-0.3,0.4-0.7,0.7-1,1.1c1.1-0.4,2.3-0.6,3.5-0.7c-0.2,0.2-0.5,0.4-0.7,0.7c2.2-0.1,4.3,0.2,6.3,1.1l0,0c0.4,0.7,0.8,1.5,1.2,2.2
				c4.3,8.4,7.1,17.5,12.1,25.6c0.1,0.1,0.2,0.3,0.3,0.4c0.5,0.7,1,1.5,1.7,2.2c0.5,0.5,1,0.9,1.6,1.2c-1.1,2.2-3.1,3.9-5.2,4.6
				l-0.3,0c-0.2,2.5-1.2,4.5-2.6,6c-2.1,2.3-5.2,3.8-8.4,4.6l0.1,0.2c1.2,1.6,3.1,2.6,5,2.6c2.4,0.1,4.7-1.2,6-3.3
				C76,68,74.5,67,74.4,65.8c-0.1-0.9,0.4-1.8,1-2.4c0.2-0.2,0.5-0.4,0.7-0.6c1-0.6,2.2-0.9,3.3-1.3c3.5-1.4,6.1-5.1,6.5-9
				C86,51.9,86,51.4,86,50.9"/>
			<path class="st4" d="M82.1,18.5c-1.3,1.4-3.1,2.5-4.9,1.3c-0.3-0.2-0.5,0-0.7,0.2c-0.7,1-2,1.1-3,0.5c-0.6-0.4-1,0.5-0.5,0.9
				c1.4,1.1,3.4,0.6,4.4-0.8c-0.2,0.1-0.5,0.1-0.7,0.2c2.2,1.5,4.5,0.2,6.1-1.6C83.2,18.7,82.6,18,82.1,18.5"/>
			<path class="st4" d="M34.4,19.9c0.7,2,2.9,2,4.5,1.3c0.6-0.3,0.3-1.2-0.4-0.9c-1,0.5-2.7,0.8-3.2-0.6
				C35.1,19.1,34.2,19.4,34.4,19.9"/>
			<path class="st6" d="M81.6,51.4c0.5,0.5,1.1,1,1.7,1.3c-1.2,2.2-3.2,4.1-5.4,4.7l-0.3,0c0-0.2,0-0.4,0-0.7l0.2-0.9
				c0.1-0.5,0.3-1,0.4-1.6l0.3,0.1C80.1,54.2,81.2,52.8,81.6,51.4"/>
			<path class="st6" d="M81.6,51.4c-0.4,1.4-1.6,2.8-3,2.9l-0.3-0.1c0.4-1.6,0.9-3.6,1.3-5.5l0,0c0.1,0.2,0.2,0.3,0.3,0.4
				C80.4,49.9,80.9,50.7,81.6,51.4"/>
			<path class="st6" d="M51.9,19.9l0-0.2l0.4-0.1c1.4-1.1,3.1-1.7,4.8-1.9c-0.3,0.4-0.7,0.7-1,1.1c1.2-0.4,2.4-0.6,3.6-0.7
				c-0.2,0.2-0.5,0.5-0.7,0.7c2.2-0.1,4.5,0.3,6.6,1.1l0,0c0.5,0.7,0.9,1.5,1.3,2.3c4.5,8.7,7.4,18.1,12.6,26.5l0,0
				c-0.4,1.9-0.9,3.9-1.3,5.5c-0.1,0.6-0.3,1.2-0.4,1.6l-0.2,0.9c0,0.2,0,0.4,0,0.7c-0.2,2.5-1.2,4.6-2.8,6.2
				c-2.2,2.4-5.4,3.9-8.8,4.7c-2.5,0.6-5.1,0.9-7.3,0.9c-0.4,0-0.9,0-1.4,0l0,0c-0.5,0-1.7-0.1-2.1-0.1c-2.2-0.2-4.7-0.6-7.1-1.5
				c-3.2-1.1-6.2-2.8-8.2-5.2c-1.5-1.8-2.5-4.1-2.5-6.8l-0.3,0c-2.1-0.8-4-2.9-5-5.2c0.6-0.2,1.2-0.6,1.8-1.1l0.1,0.1
				c0.3,1.4,1.3,2.8,2.7,3l0.3,0c-0.3-1.6-0.6-3.7-0.8-5.7c2.2-3.1,3-7.1,4.3-10.6c0.7-2,1.2-4.2,1.8-6.2c0.8-2.4,1.5-4.7,2.3-7.1
				c0.3-0.9,0.6-1.9,1.2-2.7c0,0,0.1-0.1,0.1-0.1c0,0,0,0,0,0c0,0,0.1,0,0.1,0c1.2-0.2,2.5-0.1,3.6,0.2c-0.1-0.2-0.3-0.4-0.4-0.4
				C50.3,19.7,51.1,19.7,51.9,19.9"/>
			<path class="st7" d="M48.2,55.9c-0.1,2.3-1.9,4-4.1,3.9c-2.2-0.1-3.9-2-3.8-4.2c0.1-2.3,1.9-4,4.1-3.9
				C46.5,51.8,48.3,53.7,48.2,55.9"/>
			<path class="st7" d="M74.5,57.1c-0.1,2.3-1.9,4-4.1,3.9c-2.2-0.1-3.9-2-3.8-4.2c0.1-2.3,1.9-4,4.1-3.9
				C72.9,52.9,74.6,54.8,74.5,57.1"/>
			<path class="st6" d="M37.3,52.4l-0.3,0c-1.4-0.3-2.4-1.6-2.7-3l-0.1-0.1c0.8-0.6,1.4-1.4,2-2.2c0.1-0.1,0.2-0.3,0.3-0.4
				C36.7,48.7,37,50.8,37.3,52.4"/>
		</g>
		<path class="st1" d="M36.2,46.8c0.3,2.5,0.6,4.9,1.1,7.4c0.1,0.4,0.6,0.2,0.5-0.2c-0.4-2.4-0.8-4.9-1.2-7.3
			C36.6,46.4,36.1,46.5,36.2,46.8"/>
		<path class="st1" d="M57.6,68.9c-7.9-0.4-19.9-3.6-19.6-14c0-0.4-0.6-0.4-0.6,0c-0.3,5,2.9,8.9,6.9,11.2c4.1,2.3,8.7,3.2,13.3,3.3
			C57.9,69.4,57.9,68.9,57.6,68.9"/>
		<path class="st1" d="M32.1,50.6c1.1,2.4,2.8,4.3,5.2,5.3c0.4,0.2,0.5-0.5,0.2-0.6c-2.2-0.9-3.8-2.8-4.8-5
			C32.5,49.9,31.9,50.2,32.1,50.6"/>
		<path class="st1" d="M37,52.2c-1.4-0.3-2.2-1.5-2.6-2.9c-0.1-0.3-0.5-0.2-0.5,0.1c0.4,1.5,1.4,2.9,2.9,3.2
			C37.2,52.7,37.3,52.3,37,52.2"/>
		<path class="st8" d="M45.3,41.4c-1.1,1-1.9,2.6-2.1,3.9c-0.3,1.4,0,2.9,1,4.1c1,1.2,3.2,2.2,4.9,1.4c1.7-0.8,2.5-2.7,2.8-4.2
			c0.3-2.2-0.7-4.8-2.4-5.6C47.7,40.1,46.3,40.5,45.3,41.4"/>
		<path class="st1" d="M48.2,50.4c-1.6-0.5-2.7-2.4-2.6-4.1c0.2-2.4,2.8-3.4,4.4-1.8c1.2,1.1,1.1,2.9,0.6,4.4
			c-0.3,0.8-0.7,1.6-1.6,1.8c-0.9,0.2-2.2-0.1-3-0.5c-1.5-0.8-1.7-3.2-1.3-4.7c0.4-1.7,1.8-2.8,3.4-2.8c5.1,0.1,3.2,9.6-0.8,7.3
			C46,49,45.2,47,46,45.4c0.4-0.8,1.2-1.6,2.1-1.6c1.4,0,1.9,1.5,1.9,2.7c0,0.9-0.1,1.9-0.8,2.6c-0.8,0.8-1.9,0.9-2.8,0.3
			c-1.7-1.1-1.5-3.5-0.6-5c0.4-0.7,1.1-1.5,2-1.7c1.1-0.3,2,0.5,2.5,1.4c0.8,1.5,0.6,3.3-0.5,4.5c-0.7,0.8-1.5,1.2-2.4,0.6
			c-0.6-0.4-1.2-1.2-1.4-1.9c-0.2-0.8-0.1-1.7,0.4-2.4c0.9-1.4,2.8-1.4,3.4,0.3c0.4,1,0.3,2.3-0.3,3.2c-0.4,0.6-1.3,1-2,0.6
			c-0.6-0.3-0.9-1.3-1.1-1.9c-0.3-1-0.1-2.1,0.9-2.7c1.3-0.7,2.6,0.4,2.7,1.8c0,0.4-0.1,0.9-0.2,1.3c-0.3,0.9-1.3,2.1-2.2,0.8
			c-0.6-0.8-0.7-2.7-0.1-3.5c1.3-1.6,2.2,1.2,2.2,2c-0.1,1.2-1.2,2.7-2.4,1.9C47,48.5,46.7,49,47,49.2c2.2,1.5,3.7-1.9,3-3.7
			c-0.3-0.8-1.1-2-2.1-1.6c-1.1,0.4-1.4,2.1-1.2,3.1c0.1,1,0.5,2.3,1.6,2.4c1.1,0.1,1.8-0.7,2.1-1.7c0.4-1.2,0.3-2.5-0.7-3.3
			c-0.8-0.7-1.9-0.8-2.7-0.3c-1,0.6-1.3,1.7-1.1,2.9c0.2,1.1,0.8,2.6,2,2.8c2.7,0.4,3.3-3.8,2-5.5c-1.7-2.2-4.4-0.1-4.5,2.2
			c-0.1,1.3,0.6,2.5,1.5,3.2c1,0.8,1.9,0.8,2.9,0c1.8-1.5,2.2-4.4,0.7-6.3c-1.9-2.4-4.6-0.6-5.5,1.8c-0.9,2.3,0.2,5.6,3,5.4
			c2.6-0.3,3.4-4.1,2.1-6c-1.6-2.4-4.5-0.4-4.9,1.9c-0.4,2.5,2,5.3,4.5,4.4c2.4-0.9,2.9-4.9,1.7-6.9c-1.4-2.2-4.5-2.3-6.1-0.4
			c-1.5,1.7-1.6,5.8,0.4,7.1c1,0.6,2.6,1,3.7,0.8c1.1-0.3,1.7-1.3,2.1-2.4c0.4-1.3,0.6-2.9-0.2-4.1c-0.6-1-1.7-1.7-2.8-1.7
			c-2.8-0.1-3.9,3-2.9,5.4c0.5,1.2,1.4,2.2,2.6,2.5C48.4,51,48.5,50.5,48.2,50.4"/>
		<path class="st1" d="M47.3,43.6c1.4-1.5,3.4,0.3,3.4,2c0,1.3-0.4,2.9-1.2,4c-0.2,0.3,0.3,0.6,0.4,0.3c1-1.5,1.8-4.3,0.8-5.9
			c-0.8-1.3-2.7-1.8-3.8-0.6C46.8,43.5,47.1,43.8,47.3,43.6"/>
		<path class="st1" d="M43,45.2c0.3-2.6,2.3-5.3,5.1-4.6c0-0.2,0.1-0.4,0.1-0.6c-2.9,0.4-5.7,2.4-5.8,5.7c0,0.3,0.5,0.4,0.5,0.1
			c0.4-2.9,2.4-4.8,5.1-5.2c0.3,0,0.2-0.6-0.1-0.6c-2.9,0.3-5.1,2.6-5.5,5.7c0.2,0,0.3,0,0.5,0.1c0.2-2.9,2.6-4.8,5.2-5.1
			c0.3,0,0.4-0.5,0.1-0.6c-3.1-0.9-5.6,2.1-5.7,5.2C42.5,45.6,42.9,45.5,43,45.2"/>
		<path class="st1" d="M43,46.3c0.7-3.6,3.7-5.7,7.1-4.5c0.3,0.1,0.6-0.3,0.3-0.6c-0.8-0.7-1.6-1-2.6-1.1c-0.4,0-0.4,0.6,0,0.7
			c0.8,0.1,1.5,0.4,2.2,0.9c0.1-0.2,0.2-0.4,0.3-0.6c-3.7-1.2-7.1,1.1-7.7,5C42.5,46.4,42.9,46.6,43,46.3"/>
		<path class="st1" d="M43.2,43c-0.3,0.1-0.7-0.1-0.9-0.4c-0.2-0.3-0.1-0.7-0.1-1.1c0-0.4-0.5-0.3-0.5,0C41.6,42,41.6,42.6,42,43
			c0.3,0.4,0.8,0.5,1.3,0.4C43.6,43.3,43.5,42.9,43.2,43"/>
		<path class="st1" d="M56.4,5.4c-5-0.5-10,1-14.1,3.9c-2.1,1.5-4.1,3.3-5.7,5.4c-1.7,2.2-3,4.8-4.3,7.3c-1.3,2.6-2.5,5.2-3.1,8.1
			c-0.6,2.8-0.4,5.4,0.2,8.2c0.3,1.6,0.5,3,0.1,4.6c-0.3,1.5-0.9,3-1.2,4.6c-0.4,2.3-0.2,4.6,0.7,6.7c0.9,2.3,2.5,4.2,4.5,5.5
			c1.3,0.8,2.8,1.2,4.1,2.1c0.8,0.6,1.5,1.6,1.5,2.6c-0.1,1-1.3,2.1-2.2,1.3c-0.3-0.2-0.7,0-0.5,0.4c2.5,4.7,8.5,5.4,12.1,1.6
			c0.3-0.3-0.2-0.7-0.4-0.5c-3.3,3.5-8.8,2.9-11.1-1.5c-0.2,0.1-0.3,0.3-0.5,0.4c1.2,1,3,0.1,3.3-1.5c0.5-2.7-2.5-4-4.4-4.8
			C33,58.9,31.1,57,30,54.6c-1.3-2.7-1.3-5.5-0.6-8.4c0.4-1.4,0.9-2.8,1-4.3c0.1-1.3-0.1-2.6-0.4-3.9c-0.7-3.3-0.6-6.4,0.4-9.6
			c0.9-3,2.4-5.9,3.9-8.7c1.4-2.7,3.1-5.2,5.3-7.3C44.2,8,50.2,5.6,56.4,6C56.8,6,56.8,5.5,56.4,5.4"/>
		<path class="st1" d="M52.1,19.6c-0.8-1.8-2.8-2-4.4-1.2c-2.4,1-2.9,3.5-3.7,5.9c-1.1,3.3-2.1,6.7-3.1,10c-0.5,1.5-1,3-1.5,4.6
			c-0.5,1.6-1,3.1-1.6,4.6c-1.2,2.7-3.8,7.2-7.2,6.7c-0.4-0.1-0.5,0.5-0.2,0.6c2.9,0.5,5.2-2.3,6.6-4.6C39,43.1,39.8,39.4,41,36
			c0.7-2,1.1-4,1.8-6c0.7-2.1,1.4-4.2,2-6.3c0.6-1.8,1.1-3.7,2.9-4.6c1.4-0.7,3.2-0.7,4,0.9C51.9,20.1,52.3,19.9,52.1,19.6"/>
		<path class="st1" d="M79.4,48.6c-0.6,2.4-1.2,4.8-1.7,7.1c-0.1,0.4,0.4,0.5,0.5,0.2c0.7-2.3,1.2-4.8,1.7-7.2
			C79.9,48.4,79.5,48.3,79.4,48.6"/>
		<path class="st1" d="M57.5,69.4C65.4,69.9,77.7,67,78,56.7c0-0.4-0.6-0.4-0.6,0c-0.6,9.9-12.2,12.5-19.9,12.2
			C57.2,68.9,57.2,69.4,57.5,69.4"/>
		<path class="st1" d="M83.1,52.5c-1.2,2.1-2.9,3.8-5.2,4.6c-0.4,0.1-0.2,0.8,0.2,0.6c2.4-0.8,4.3-2.6,5.6-4.9
			C83.8,52.5,83.3,52.1,83.1,52.5"/>
		<path class="st1" d="M78.6,54.5c1.6-0.2,2.8-1.5,3.3-3.1c0.1-0.3-0.4-0.4-0.5-0.1c-0.4,1.3-1.4,2.6-2.8,2.8
			C78.3,54.1,78.3,54.6,78.6,54.5"/>
		<path class="st8" d="M71.2,42.6c1.1,1.1,1.7,2.8,1.8,4c0.2,1.4-0.2,2.9-1.3,4c-1.1,1.2-3.4,1.9-5,1c-1.6-0.9-2.3-2.9-2.4-4.5
			c-0.2-2.2,1.1-4.7,2.8-5.4C68.9,41,70.2,41.6,71.2,42.6"/>
		<path class="st1" d="M67.6,51.8c2.5-0.4,4.2-3.7,3-6.1c-1.2-2.3-4.3-2.2-5.7-0.1c-1.2,1.8-0.8,5.9,1.6,6.5c1.2,0.3,2.9,0,3.9-0.7
			c1-0.7,1.3-2.1,1.5-3.3c0.3-2.8-1.4-5.5-4.4-5.2c-2.8,0.3-3.8,3.5-3.2,6c0.6,2.9,3.7,3.6,5.6,1.5c1.6-1.8,1.4-5.3-1.2-6.1
			c-2.8-0.9-3.8,3.1-3.1,5.2c0.9,2.6,4.4,2.4,5.4,0c1-2.2-0.2-5.7-2.5-6.3c-2.5-0.7-4.1,2.5-3.8,4.6c0.2,1.2,0.8,2.4,1.8,3
			c1,0.6,1.9,0.4,2.7-0.3c1.8-1.5,2.1-5.1-0.5-6.1c-2.7-1.1-3.8,2.9-3,4.9c0.4,1,1.4,1.7,2.5,1.4c1.1-0.3,1.8-1.9,2-2.9
			c0.4-2.4-2.5-4-4.1-2.1c-1.2,1.4-0.6,5.4,1.8,4.7c1.8-0.5,2.3-4.8,0.4-5.5c-1-0.4-1.9,0.8-2.2,1.6c-0.4,1-0.3,2.2,0.3,3.1
			c0.6,0.9,1.6,1.3,2.5,0.7c0.3-0.2,0-0.7-0.3-0.5c-2.2,1.2-2.8-2.9-1.4-4c1.7-1.3,1.8,1.3,1.7,2.2c-0.1,0.4-0.2,0.9-0.4,1.2
			c-0.7,1.2-1.8,0.6-2.2-0.5c-0.3-0.9-0.3-2,0.4-2.7c0.7-0.8,2-0.8,2.7,0c0.8,0.9,0.5,2.1,0,3c-0.7,1.4-2.3,1.7-2.9,0
			c-0.7-1.8,0.7-5.9,3-3.6c1.5,1.4,0.9,3.7-0.6,4.8c-1.6,1.2-3.1-0.8-3.4-2.4c-0.3-1.7,0.9-4.5,2.9-4.1c1.5,0.3,2.5,2.3,2.6,3.7
			c0.1,0.9-0.1,2-0.8,2.7c-0.9,0.9-2.3,1.1-3.3,0.2c-1.2-1.2-1.1-4.3,0.4-5.1c2.3-1.3,3.7,2.3,2.9,4c-0.8,1.7-3,2.8-4.5,1.3
			c-1.2-1.2-1.2-4-0.3-5.4c1-1.5,2.9-1.7,4.3-0.8c1.7,1.1,1.9,3.2,1.4,5.1c-0.2,1-0.8,1.8-1.7,2.1c-0.8,0.3-2,0.5-2.8,0.2
			c-1.8-0.6-2-4-1.2-5.4c1.2-2,4.2-1.9,4.9,0.6c0.5,2-0.9,4.3-2.8,4.7C67.2,51.4,67.3,51.9,67.6,51.8"/>
		<path class="st1" d="M69.3,44.3c-1-1.3-3-0.9-3.8,0.3c-1.1,1.6-0.5,4.4,0.4,6c0.2,0.3,0.6,0,0.4-0.3c-0.7-1.2-1-2.7-0.8-4.1
			c0.2-1.7,2.2-3.2,3.5-1.6C69.2,44.8,69.5,44.5,69.3,44.3"/>
		<path class="st1" d="M73.6,46.6c0.2-3.1-2.1-6.2-5.3-5.6c-0.3,0.1-0.3,0.5,0,0.6c2.6,0.6,4.9,2.6,4.9,5.6c0.2,0,0.3,0,0.5,0
			c-0.2-3-2.1-5.6-5-6.2c-0.3-0.1-0.5,0.5-0.1,0.6c2.6,0.7,4.5,2.7,4.6,5.6c0,0.3,0.5,0.3,0.5,0c0.2-3.2-2.4-5.5-5.2-6.2
			c0,0.2,0,0.4,0,0.6c2.9-0.5,4.7,2.4,4.7,5C73.2,46.9,73.6,46.9,73.6,46.6"/>
		<path class="st1" d="M73.6,47.6c-0.3-4-3.5-6.7-7.3-5.7c0.1,0.2,0.2,0.4,0.2,0.6c0.7-0.5,1.5-0.7,2.3-0.7c0.4,0,0.4-0.7,0-0.7
			c-1,0-1.8,0.3-2.6,0.8c-0.3,0.2-0.1,0.7,0.2,0.6c3.4-0.9,6.3,1.5,6.7,5.1C73.1,47.9,73.6,47.9,73.6,47.6"/>
		<path class="st1" d="M73,44.7c0.5,0.2,1,0.1,1.3-0.3c0.4-0.4,0.5-1,0.4-1.6c0-0.4-0.5-0.4-0.5,0c0,0.4,0,0.8-0.2,1.1
			c-0.2,0.3-0.6,0.4-0.9,0.3C72.9,44.2,72.8,44.6,73,44.7"/>
		<path class="st1" d="M58,51c-0.2,0.5-0.1,1.1,0.2,1.5c0.2,0.3,0.6-0.1,0.4-0.4c-0.2-0.3-0.2-0.6-0.1-0.9C58.6,51,58.1,50.8,58,51"
			/>
		<path class="st1" d="M40.4,29.2c0.4,1.8,2.5,2,3.9,1.5c2-0.6,3.5-2.4,4.3-4.3c0.1-0.3-0.3-0.5-0.4-0.3c-0.7,1.4-1.5,2.8-2.9,3.6
			c-1.2,0.7-4,1.3-4.5-0.7C40.8,28.8,40.3,28.9,40.4,29.2"/>
		<path class="st1" d="M68.4,27c0.5,3.5,4.2,6.2,7.4,4.3c0.3-0.2,0-0.6-0.2-0.4c-3.1,1.7-6-0.8-6.7-4C68.8,26.5,68.4,26.7,68.4,27"
			/>
		<path class="st8" d="M59.9,63.4c-1.2,0.8-3.7,0.8-5.1-0.2c-0.8-0.6-0.4-1.7,0.2-2.3c0.6-0.6,2.1-0.9,3.4-0.7c1.3,0.3,1.8,1,2,1.6
			C60.8,62.5,60.5,63.1,59.9,63.4"/>
		<path class="st1" d="M59.9,63.2c-0.8,0.3-1.6,0.5-2.4,0.5c-1.1,0-3.6-0.6-2.5-2.2c0.7-1,2.1-1.1,3.2-1c0.6,0.1,1.2,0.3,1.7,0.7
			c0.6,0.6,0.6,1.5,0,2c-0.2,0.2,0.1,0.5,0.3,0.4c1.2-0.9,0.9-2.4-0.3-3.2c-1.3-0.9-3.6-0.8-4.8,0.2c-1.2,1.1-0.9,2.5,0.5,3.1
			c1.3,0.6,3.4,0.7,4.6-0.2C60.2,63.5,60.1,63.1,59.9,63.2"/>
		<path class="st1" d="M53.5,58.6c-0.7,0.7-1.3,1.6-1.7,2.6c-0.1,0.3,0.3,0.5,0.4,0.2c0.4-0.9,0.9-1.8,1.6-2.5
			C54,58.7,53.7,58.4,53.5,58.6"/>
		<path class="st1" d="M50.9,9.9c2.1-2.4,4.9-4,8-4.4c3.1-0.4,6.3,0.2,9.3,1.3c6.3,2.3,11.7,7,15,13.1c1.7,3.1,2.9,6.7,3.7,10.2
			c0.5,1.9,0.7,3.9,0.7,5.9c-0.1,1.7-0.5,3.3-1,4.9c-0.4,1.4-0.7,2.8-0.5,4.3c0.2,1.8,0.7,3.6,0.9,5.4c0.2,3.2-1,6.4-3.1,8.6
			c-1.3,1.4-2.8,2.2-4.5,2.8c-1.4,0.5-2.9,1-3.8,2.3c-0.7,1-0.9,2.2-0.2,3.2c0.6,0.9,1.8,1.2,2.6,0.6c-0.1-0.1-0.3-0.3-0.4-0.4
			c-2.6,4-8,4.2-11.1,0.6c-0.3-0.3-0.7,0.1-0.4,0.5c3.3,4,9.2,3.6,12-0.7c0.2-0.3-0.2-0.6-0.4-0.4c-0.8,0.6-1.9-0.1-2.1-1
			c-0.3-1.1,0.6-2.2,1.4-2.8c1.3-1,3.1-1.2,4.5-1.9c2.4-1.2,4.2-3.4,5.3-5.9c1.2-2.9,1-5.7,0.4-8.8c-0.4-1.9-0.5-3.6,0-5.5
			c0.4-1.4,0.9-2.7,1.1-4.1c0.5-3.6-0.3-7.3-1.4-10.8c-1-3.3-2.3-6.4-4.1-9.3C79.1,12.2,74,8.2,68.2,6.1C62.1,4,54.9,4,50.5,9.5
			C50.3,9.8,50.6,10.1,50.9,9.9"/>
		<path class="st1" d="M51.6,19.4c2.6-2.7,5.5-5,9.3-3.6c3.2,1.1,4.9,4.7,6.4,7.6c3.8,7.5,6.5,15.6,10.6,22.9c1.5,2.7,3.7,7.3,7.3,7
			c0.4,0,0.4-0.6,0-0.6c-2,0.2-3.4-1.4-4.5-3c-1.2-1.7-2.2-3.6-3.2-5.4c-2-3.8-3.7-7.8-5.4-11.8c-1.7-3.9-3.3-7.8-5.3-11.5
			c-1.4-2.6-3.3-5.3-6.3-6c-3.8-0.9-6.7,1.3-9.1,4.1C51.1,19.3,51.4,19.6,51.6,19.4"/>
		<path class="st1" d="M52.2,20c1.5-1.1,3.1-1.8,5-2.1c-0.1-0.2-0.1-0.3-0.2-0.5c-0.3,0.4-0.7,0.8-1,1.1c-0.2,0.2,0,0.5,0.3,0.5
			c1.2-0.4,2.3-0.6,3.6-0.7c-0.1-0.2-0.1-0.3-0.2-0.5c-0.2,0.2-0.5,0.5-0.7,0.7c-0.2,0.2,0,0.5,0.2,0.5c2.2-0.1,4.4,0.3,6.5,1.1
			c0.3,0.1,0.5-0.4,0.1-0.6c-2.2-0.8-4.4-1.2-6.7-1.1c0.1,0.2,0.1,0.3,0.2,0.5c0.2-0.2,0.5-0.5,0.7-0.7c0.2-0.2,0-0.5-0.2-0.5
			c-1.3,0.1-2.5,0.4-3.7,0.7c0.1,0.2,0.2,0.3,0.3,0.5c0.3-0.4,0.7-0.7,1-1.1c0.1-0.2,0.1-0.5-0.2-0.5c-1.9,0.2-3.8,1-5.3,2.3
			C51.7,19.8,52,20.2,52.2,20"/>
		<path class="st1" d="M52,19.7c-0.9-0.2-1.7-0.3-2.6-0.3c-0.3,0-0.3,0.4-0.1,0.5c0.1,0.1,0.2,0.2,0.3,0.3c0.1-0.1,0.2-0.3,0.3-0.4
			c-0.6-0.1-1.1-0.2-1.7-0.3c-0.3,0-0.6,0-0.9,0c-0.1,0-0.2,0-0.4,0c-0.4-0.1-0.6,0.1-0.7,0.6c0.3,0,0.2-0.6-0.1-0.6c0,0,0,0,0,0
			c-0.1,0-0.3,0.1-0.3,0.2c0,0,0,0,0,0.1c0,0.1,0,0.3,0.2,0.4c0.5,0.1,1-0.1,1.5-0.1c0.8,0,1.5,0.1,2.3,0.3c0.2,0,0.5-0.2,0.3-0.4
			c-0.2-0.3-0.2-0.3-0.5-0.5c0,0.2-0.1,0.4-0.1,0.5c0.8,0,1.7,0,2.5,0.2C52.2,20.2,52.3,19.8,52,19.7"/>
		<path class="st1" d="M51.6,14.6c2-2.7,5.3-3.8,8.5-3.6c3.9,0.3,6.6,2.8,8.7,6c2.3,3.4,3.4,7.1,4.7,10.9c1.3,3.7,2.9,7.2,5,10.4
			c0.2,0.3,0.6,0,0.4-0.2c-1.9-2.9-3.4-6.1-4.6-9.4c-1.1-3.2-2-6.4-3.6-9.4c-1.4-2.7-3.3-5.5-5.7-7.2c-2.1-1.4-4.7-1.9-7.2-1.6
			c-2.6,0.3-5,1.5-6.6,3.7C51.1,14.5,51.5,14.8,51.6,14.6"/>
		<path class="st1" d="M38.3,26.3c-0.4,3.2-1.3,6.4-1.9,9.6c-0.3,1.6-0.7,3.1-1.2,4.6c-0.5,1.4-1.1,3.2-2.6,3.6
			c-0.3,0.1-0.2,0.6,0.1,0.5c1.1-0.3,1.8-1.2,2.3-2.2c0.8-1.6,1.2-3.3,1.6-5c0.4-1.8,0.7-3.7,1.1-5.6c0.4-1.8,0.9-3.6,1-5.5
			C38.7,26.1,38.3,26,38.3,26.3"/>
		<path class="st1" d="M82.5,36.5c0.6,1.8,1.7,3.4,2.8,4.9c0.2,0.3,0.6,0,0.4-0.3c-1-1.6-2.2-3-2.8-4.7
			C82.8,36.1,82.4,36.2,82.5,36.5"/>
		<path class="st1" d="M30,43.9c0.3-0.9,0.6-1.8,1-2.6c0.1-0.3-0.3-0.5-0.4-0.3c-0.4,0.9-0.7,1.8-1,2.7C29.5,44,29.9,44.2,30,43.9"
			/>
		<path class="st3" d="M73.1,73.4c-1.2-0.5-2.1-1.5-2.4-2.9c-0.3-1.1-0.3-2.8,0.2-3.8c0.5-1.3,1.9-2.2,3-3c0.4-0.3,0.8-0.6,1.2-0.8
			l0.3,0c-0.2-2.1-0.1-4.3,0.4-6.4c0.3-0.1,0.6,0,0.8,0.3c0.1-1,0.2-2,0.5-3c0.1-0.2,0.1-0.4,0.3-0.5c0.4-0.3,0.8,0.3,1,0.8
			c1.5,4.2,1.3,8.9,0.7,13.4c-0.3,2.4-1,5.3-3.5,6.1C74.6,73.7,73.8,73.7,73.1,73.4"/>
		<path class="st1" d="M74.9,62.7c-1.1,0.4-2.1,1.3-3,2.1c-0.9,0.8-1.5,1.7-1.7,3c-0.3,2.6,0.6,5,2.7,6.3c0.3,0.2,0.6-0.3,0.3-0.5
			c-2-1.2-2.9-3.6-2.4-5.9c0.4-2.1,2.6-3.3,4.2-4.4C75.3,63,75.2,62.6,74.9,62.7"/>
		<path class="st1" d="M75.5,62.9c-0.1-2.1,0-4.2,0.4-6.3c-0.1,0.1-0.2,0.2-0.3,0.2c0.2,0.1,0.4,0.1,0.5,0.2
			c0.2,0.2,0.5,0.1,0.5-0.2c0-0.6,0.1-1.2,0.2-1.8c0-0.2,0.1-0.5,0.1-0.7c0-0.4,0.1-0.5,0.4-0.4c0.6,0,0.6,0.9,0.8,1.4
			c0.1,0.5,0.3,1,0.4,1.5c0.4,1.9,0.5,3.9,0.4,5.9c-0.1,1.9-0.2,3.8-0.5,5.6c-0.3,1.7-0.8,3.5-2.3,4.5c-0.3,0.2,0,0.8,0.3,0.5
			c1.7-1.1,2.3-3.1,2.6-5.1c0.4-2.6,0.6-5.4,0.5-8c-0.1-1.3-0.2-2.6-0.5-3.8c-0.2-1-0.4-2.4-1.1-3.2c-1.6-1.7-1.9,2.7-1.9,3.5
			c0.2-0.1,0.3-0.1,0.5-0.2c-0.3-0.3-0.5-0.4-1-0.3c-0.1,0-0.3,0.1-0.3,0.2c-0.4,2.1-0.6,4.3-0.3,6.5C75.1,63.3,75.6,63.3,75.5,62.9
			"/>
		<ellipse class="st9" cx="56" cy="52.3" rx="44.1" ry="52.3"/>
	</g>
	<g>
		<path class="st10" d="M15.1,71.9c-0.1-0.3-0.1-0.5-0.1-0.6c-0.2-0.8-0.2-1.5-0.1-2.1c0.1-0.5,0.3-1,0.5-1.5c0.2-0.4,0.6-1,1.2-1.7
			c0.6-0.8,0.9-1.4,1.1-1.8c0.1-0.4,0.2-0.8,0.1-1.3c-0.2-0.8-0.6-1.4-1.3-1.9c-0.7-0.5-1.6-0.6-2.5-0.5c-0.9,0.2-1.5,0.6-2,1.2
			c-0.5,0.7-0.7,1.6-0.6,2.8l-2.1,0.2c-0.1-1.6,0.2-2.9,1-3.9c0.8-1,1.9-1.7,3.5-2c1.6-0.3,3-0.1,4.2,0.6s1.8,1.7,2.1,2.9
			c0.1,0.7,0.1,1.4-0.1,2.1c-0.2,0.7-0.7,1.6-1.6,2.6c-0.5,0.7-0.9,1.2-1,1.6c-0.1,0.3-0.2,0.7-0.3,1.1c0,0.4,0,1,0.2,1.8L15.1,71.9
			z M15.8,76l-0.5-2.3l2.3-0.5l0.5,2.3L15.8,76z"/>
	</g>
	<g>
		<path class="st10" d="M95.3,40l1.5-2.8l2.8,1.5l-1.5,2.8L95.3,40z M98.2,35.2c0.2-0.3,0.3-0.6,0.4-0.7c0.5-1,1.1-1.7,1.8-2.2
			c0.5-0.4,1.1-0.8,1.8-1c0.5-0.2,1.4-0.4,2.7-0.7s2.1-0.6,2.6-0.9c0.5-0.3,0.9-0.7,1.2-1.2c0.5-0.9,0.6-2,0.3-3.1
			c-0.3-1.1-1-2-2.1-2.6c-1-0.6-2.1-0.7-3.1-0.5c-1.1,0.3-2.1,1-3.1,2.3l-2.3-1.7c1.3-1.7,2.7-2.7,4.4-3.1c1.7-0.4,3.4,0,5.2,1
			c1.9,1.1,3.2,2.5,3.7,4.2s0.4,3.3-0.4,4.8c-0.5,0.9-1.1,1.5-1.9,2c-0.8,0.5-2.1,0.9-3.8,1.3c-1.2,0.3-2,0.5-2.4,0.7
			c-0.4,0.2-0.8,0.5-1.2,0.8c-0.4,0.4-0.8,1-1.4,2L98.2,35.2z"/>
	</g>
</g>
</svg>
