<?xml version="1.0" encoding="utf-8"?>
<!-- Generator: Adobe Illustrator 23.0.5, SVG Export Plug-In . SVG Version: 6.00 Build 0)  -->
<svg version="1.1" id="圖層_1" xmlns="http://www.w3.org/2000/svg" xmlns:xlink="http://www.w3.org/1999/xlink" x="0px" y="0px"
	 viewBox="0 0 21.6 22.5" style="enable-background:new 0 0 21.6 22.5;" xml:space="preserve">
<style type="text/css">
	.st0{fill:#5DA140;}
</style>
<g>
	<path class="st0" d="M21.6,0l0,22.4L0,22.5L0,0L21.6,0z M20,1.6l-18.4,0v19.2l18.4,0V1.6z M17.8,4c-1.4,1.7-3,4-4.6,6.8
		c-1.5,2.6-2.4,5-2.6,7.4l-2,0.8c-0.8-1.4-1.6-2.4-2.2-3c-0.7-0.6-1.5-0.9-2.5-0.9l-0.3-0.1l2.5-1.3c0.4,0,1,0.2,1.6,0.6
		c0.6,0.4,1.2,1,1.7,1.9c0.4-1.9,1.2-3.9,2.5-6l0.7-1.2c0.7-1.1,1.5-2.2,2.4-3.3c0.6-0.7,1.1-1.2,1.5-1.5C16.7,4,17.2,3.9,17.8,4z"
		/>
</g>
</svg>
