<?xml version="1.0" encoding="utf-8"?>
<!-- Generator: Adobe Illustrator 23.0.5, SVG Export Plug-In . SVG Version: 6.00 Build 0)  -->
<svg version="1.1" id="圖層_2" xmlns="http://www.w3.org/2000/svg" xmlns:xlink="http://www.w3.org/1999/xlink" x="0px" y="0px"
	 viewBox="0 0 74 109.9" style="enable-background:new 0 0 74 109.9;" xml:space="preserve">
<style type="text/css">
	.st0{fill:#FFFFFF;}
	.st1{fill:#352621;}
	.st2{fill:#764F2F;}
	.st3{fill:#ED7056;}
	.st4{fill:#FAD5BC;}
	.st5{fill:#F8C3AD;}
	.st6{fill:#CC3333;}
	.st7{font-family:'ArialMT';}
	.st8{font-size:28.4568px;}
</style>
<g>
	<g>
		<path class="st0" d="M61.9,62.7c-0.7-0.5-1.3-1.2-1.7-1.8C60.5,61.7,61.1,62.4,61.9,62.7 M35.9,62.1c-1.8,1.1-4,1.4-6,0.7
			c0,0,0.1-0.1,0.1-0.1c0.8-0.3,1.4-1,1.7-1.8c-0.4,0.6-1,1.3-1.7,1.8c-0.1,0-0.1,0-0.2,0.1c0,0,0,0,0.1,0c-0.4,0.3-0.9,0.5-1.4,0.6
			c-1.7,0.2-3.4-0.7-4.3-2.2c0.7,0.3,1.6,0,2-0.6c0.7-1.2-0.6-2.6-1.3-3.4c-0.5-0.5-1-1.1-1.1-1.9c-0.2-1.1,0.4-2.2,0.6-3.3
			c0.5-1.9-2.2-4.7-3-6.5c-1.1-2.3-1.9-4.8-2.4-7.3c-2.1-9.8,0.4-19.8,6-27.9c2.5-3.6,5.7-6.8,9.6-8.6c3.5-1.6,7.7-2,11.3-0.6
			c3.6-1.4,7.8-1.1,11.3,0.6c3.9,1.8,7.1,5,9.6,8.6c5.6,8.1,8.1,18.1,6,27.9c-0.5,2.5-1.3,5-2.4,7.3c-0.8,1.7-3.4,4.5-3,6.5
			c0.3,1.1,0.9,2.2,0.6,3.3C68,56,67.5,56.6,67,57.1c-0.8,0.8-2,2.2-1.3,3.4c0.4,0.7,1.3,1,2,0.6c-0.8,1.5-2.6,2.4-4.3,2.2
			c-0.5-0.1-0.9-0.3-1.4-0.6c0,0,0,0,0.1,0c-0.1,0-0.1,0-0.2-0.1c0,0,0.1,0.1,0.1,0.1c-2,0.7-4.2,0.4-6-0.7
			c-0.2-0.1-0.4-0.3-0.6-0.4c0.2,0.2,0.4,0.3,0.6,0.4c0.3,0.2,0.5,0.4,0.8,0.5c-1.8,0.4-3.4-0.1-5.2-0.1c-1.9,0-3.8,0-5.7,0
			c-1.9,0-3.8,0-5.7,0c-1.8,0-3.4,0.5-5.1,0.1C35.4,62.4,35.7,62.3,35.9,62.1c0.2-0.1,0.4-0.3,0.6-0.4
			C36.3,61.8,36.1,61.9,35.9,62.1z"/>
		<path class="st1" d="M58.4,57.8c0.2,0.8,0.4,1.6-0.1,2.3c-0.4,0.7-1,1-1.7,1.2c-0.3,0.1-0.2,0.5,0.1,0.5c1.8-0.2,3.1-2.5,2.1-4.2
			C58.7,57.5,58.3,57.6,58.4,57.8"/>
		<path class="st1" d="M46.8,62.3c-2,0-3.9-0.1-5.9-0.1c-1.9,0-3.8,0.5-5.6,0.1c0,0.2,0,0.4,0.1,0.6c0.5-0.3,0.9-0.6,1.4-1
			c-0.1-0.2-0.2-0.4-0.3-0.5c-1.8,1.4-4.2,1.8-6.4,1.1c0,0.2,0,0.4,0,0.6c1-0.4,1.7-1.1,2.1-2.1c0.1-0.3-0.4-0.5-0.6-0.2
			c-0.7,1.2-2,2.4-3.5,2.4c-1.4,0-2.7-0.8-3.4-2.1c-0.1,0.1-0.3,0.3-0.4,0.4c0.9,0.4,2,0.1,2.5-0.9c0.5-1-0.1-2.1-0.7-2.9
			c-0.9-1.1-2-1.9-1.7-3.5c0.2-1.1,0.8-2.1,0.6-3.3c-0.4-2.1-2.1-3.6-3-5.5c-1.3-2.7-2.1-5.6-2.6-8.6c-0.9-5.6-0.4-11.3,1.4-16.6
			C22.2,15,25.1,10,29,6.2c2.1-2.1,4.7-3.8,7.5-4.8c3.1-1,6.4-1,9.4,0.1c0.4,0.1,0.5-0.5,0.2-0.6c-5.1-2-10.9-0.5-15.2,2.8
			c-4.2,3.2-7.3,7.8-9.5,12.5c-2.3,5-3.5,10.5-3.3,16c0.1,2.8,0.5,5.6,1.2,8.3c0.7,2.5,1.6,4.9,3,7c0.7,1,1.5,2.1,1.8,3.3
			c0.4,1.4-0.6,2.6-0.6,3.9c0,1.5,1.1,2.3,2,3.4c0.4,0.5,0.9,1.2,0.7,1.9c-0.2,0.7-1,1.1-1.7,0.8c-0.3-0.1-0.6,0.1-0.4,0.4
			c0.8,1.4,2.3,2.4,4,2.4c1.7,0,3.2-1.3,4-2.7c-0.2-0.1-0.4-0.2-0.6-0.2c-0.3,0.8-0.9,1.4-1.7,1.7c-0.3,0.1-0.3,0.5,0,0.6
			c2.3,0.8,4.9,0.4,6.9-1.2c0.3-0.2,0-0.8-0.3-0.5c-0.5,0.3-0.9,0.6-1.4,1c-0.2,0.1-0.2,0.5,0.1,0.6c1.9,0.4,3.7-0.1,5.6-0.1
			c2,0,4.1,0,6.1,0C47.1,62.8,47.1,62.3,46.8,62.3"/>
		<path class="st1" d="M45.2,62.8c2,0,4.1,0,6.1,0c1.9,0,3.7,0.5,5.6,0.1c0.3-0.1,0.3-0.4,0.1-0.6c-0.5-0.3-0.9-0.6-1.4-1
			c-0.3-0.2-0.6,0.3-0.3,0.5c1.9,1.5,4.5,1.9,6.9,1.2c0.3-0.1,0.3-0.5,0-0.6c-0.8-0.3-1.4-0.9-1.7-1.7c-0.2,0.1-0.4,0.2-0.6,0.2
			c0.9,1.4,2.3,2.7,4,2.7c1.6,0,3.2-0.9,4-2.4c0.2-0.3-0.2-0.5-0.4-0.4c-0.5,0.2-1.2,0-1.5-0.5c-0.3-0.6,0-1.3,0.3-1.8
			c0.6-1,1.7-1.7,2.1-2.9c0.5-1.4-0.4-2.5-0.6-3.8c-0.2-1,0.5-2.1,1-2.9c0.6-0.9,1.2-1.8,1.8-2.7c0.6-1.1,1.1-2.4,1.5-3.6
			c0.9-2.7,1.5-5.5,1.8-8.4c0.5-5.5-0.4-11.1-2.5-16.2c-2-4.9-4.9-9.7-8.8-13.2c-4.5-4-10.8-6.2-16.6-3.9c-0.4,0.1-0.2,0.7,0.2,0.6
			c5.4-2,11.2-0.2,15.5,3.4c4.1,3.5,7.2,8.4,9.2,13.4c2,5.2,2.9,10.8,2.3,16.4c-0.3,2.9-1,5.8-2,8.6c-0.5,1.2-0.9,2.3-1.6,3.4
			c-0.6,0.9-1.3,1.9-1.8,2.9c-0.5,1-0.7,2-0.4,3.1c0.3,0.8,0.7,1.7,0.5,2.6c-0.1,0.8-0.7,1.3-1.2,1.9c-0.7,0.8-1.7,1.9-1.4,3.2
			c0.3,1.2,1.6,1.6,2.6,1.2c-0.1-0.1-0.3-0.3-0.4-0.4c-0.7,1.2-2,2.1-3.4,2.1c-1.5,0-2.7-1.1-3.5-2.4c-0.2-0.3-0.7-0.1-0.6,0.2
			c0.4,1,1.1,1.7,2.1,2.1c0-0.2,0-0.4,0-0.6c-2.2,0.7-4.6,0.3-6.4-1.1c-0.1,0.2-0.2,0.4-0.3,0.5c0.5,0.3,0.9,0.6,1.4,1
			c0-0.2,0-0.4,0.1-0.6c-1.9,0.4-3.8-0.1-5.6-0.1c-2,0-3.9,0-5.9,0.1C44.9,62.3,44.9,62.8,45.2,62.8"/>
		<path class="st1" d="M33.2,57.7c-1,1.6,0.2,4,2.1,4.2c0.3,0,0.3-0.4,0.1-0.5c-0.7-0.2-1.3-0.5-1.7-1.2c-0.4-0.8-0.3-1.5-0.1-2.3
			C33.6,57.6,33.3,57.5,33.2,57.7"/>
		<path class="st2" d="M31,62.4c-1.3,0-2.5,0.4-3.9,0.3c-0.6,0-1.3-0.2-1.5-0.8c0.7-0.2,1.2-0.7,1.5-1.3c0.7-1.6-0.3-3.1-1.3-4.2
			c-0.5-0.5-0.9-1.1-1.1-1.8c-0.2-1.1,0.4-2.1,0.6-3.1c0.4-1.9-2.1-4.6-2.9-6.2c-1-2.2-1.8-4.6-2.3-7c-2-9.4,0.4-19.1,5.7-26.9
			c2.4-3.5,5.4-6.5,9.2-8.3c3.4-1.6,7.4-1.9,10.8-0.5c3.4-1.4,7.4-1,10.8,0.5c3.8,1.7,6.8,4.8,9.2,8.3c5.3,7.8,7.7,17.4,5.7,26.9
			c-0.5,2.4-1.3,4.8-2.3,7c-0.8,1.7-3.3,4.4-2.9,6.2c0.2,1,0.8,2.1,0.6,3.1c-0.1,0.7-0.6,1.3-1.1,1.8c-1.4,1.5-2.9,4.8,0.1,5.8
			c-0.1,0-0.9,0.5-1,0.6c-0.5,0.2-0.9,0.3-1.4,0.3c-1,0-1.7-0.5-2.6-0.6c-1.9-0.3-3.7-0.2-5.5-1.3c-0.2-0.1-0.4-0.3-0.6-0.4
			c0.2,0.2,0.4,0.3,0.6,0.4c0.2,0.2,0.5,0.3,0.7,0.5c-1.7,0.4-3.2-0.1-4.9-0.1c-1.8,0-3.6,0-5.4,0c-1.8,0-3.6,0-5.4,0
			c-1.7,0-3.2,0.5-4.9,0.1c0.2-0.2,0.5-0.3,0.7-0.5c0.2-0.1,0.4-0.3,0.6-0.4c-0.2,0.1-0.4,0.3-0.6,0.4C34.9,62.1,32.8,62.4,31,62.4"
			/>
		<path class="st3" d="M61.2,67.4c0.2,0.1,0.4,0.1,0.6,0.2c1.8,1.1,2.1,2.7,2.5,4.7c1.1,5.6,1.5,11.2,1,16.8l-1.6-0.1
			c0-0.2-0.1-0.4-0.2-0.4c-0.2-0.1-0.6,0-0.6,0.3c-0.9-4.2-1.8-8.3-2.6-12.5l0.2,0c0.6-0.8,0.7-1.9,0.5-2.9c-0.2-0.6-0.5-1.2-1-1.5
			c-0.5-0.3-1.2-0.3-1.7,0.1c-0.3-1.1-0.6-2.1-0.8-3c0.2-0.1,0.3-0.1,0.5-0.2c0.9-0.4,1.8-1.1,2.6-1.8
			C60.7,67.1,60.9,67.2,61.2,67.4L61.2,67.4"/>
		<path class="st3" d="M53.6,78.7l-0.2,0c-0.2-0.4-0.5-0.9-0.7-1.3c-0.4-0.7-0.8-1.4-0.7-2.2c0.1-1.2,1.2-2,2.2-2.5l0.3,0
			c0.1,1.3,0.3,2.7,0.4,3.5l-0.1,0.3c0.9,0.3,1.9,0.2,2.7-0.2c0.6-0.3,1.2-0.8,1.6-1.3c0,0,0,0,0,0c-0.2-0.8-0.5-1.7-0.7-2.7
			c0.4-0.4,1.2-0.4,1.7-0.1c0.5,0.3,0.9,0.9,1,1.5c0.2,1,0.1,2-0.5,2.9l-0.2,0c0.9,4.2,1.8,8.3,2.6,12.5c0.1-0.3,0.4-0.4,0.6-0.3
			c0.2,0.1,0.2,0.3,0.2,0.4l1.6,0.1c-0.1,1.7-0.3,3.3-0.6,5l-0.5,0c-0.8-0.2-1.9-0.1-2.5-0.2c-1-0.1-2.5-0.4-2.9-1.5
			c-0.1-0.2-0.1-0.5-0.3-0.6c-0.2-0.1-0.4,0-0.6,0c-0.9,0.4-1.9,0.7-2.8,1.2v0C53.9,88.4,53.4,83.5,53.6,78.7"/>
		<path class="st4" d="M52.4,94.5c0.9-0.5,1.8-0.9,2.7-1.4c0.9-0.4,1.9-0.8,2.8-1.2c0.2-0.1,0.4-0.1,0.6,0c0.2,0.1,0.2,0.4,0.3,0.6
			c0.4,1.1,2,1.3,2.9,1.5c0.6,0.1,1.7,0,2.5,0.2c0.1,0,0.3,0.1,0.4,0.2c0.3,0.1,0.5,0.4,0.5,0.7c0.1,0.6-0.4,1.3-1,1.4
			c-0.1,0-0.1,0-0.2,0c-1.3,0.3-1,2.3-1.5,3.5c-0.3,0.6-0.7,1.2-1.3,1.6c-0.3,0.2-0.6,0.3-0.9,0.4c-1.1,0.3-2.3-0.1-3.4-0.6
			c-1.2-0.5-2.5-1-3.7-1.6l0,0c-0.9-0.1-1.9-0.3-2.8-0.4c-0.7-0.1-1.5-0.2-2.2-0.4l-0.1,0.1c-0.7-1.4-0.7-3.4,0.1-4.6
			c1.4,0,2.7-0.1,4.1-0.1L52.4,94.5"/>
		<path class="st4" d="M55.9,61.6L55.9,61.6c-0.2-0.5-0.3-1-0.4-1.5c0-0.2,0-0.4,0-0.5c0.1-0.3,0.3-0.5,0.6-0.7
			c0.5-0.3,1.2-0.6,1.8-0.7c-0.1-0.3,0.1-0.7,0.4-0.9c0.3-0.2,0.6-0.3,0.9-0.4c0.4-0.1,0.8-0.2,1.2-0.3c-0.1-0.4,0.1-0.9,0.5-1.1
			c0.4-0.2,0.9-0.1,1.3,0.2c0.4,0.3,0.6,0.7,0.8,1.1c0.6,1.4,0.7,3,0.2,4.4l0.1,0c-0.1,0.9-0.3,1.9-0.7,2.7
			c-0.5,1.2-1.2,2.2-2.1,3.1c-0.7,0.7-1.6,1.4-2.6,1.8c-0.2,0.1-0.3,0.1-0.5,0.2c0.2,0.9,0.5,2,0.8,3c0.3,1,0.5,1.9,0.7,2.7
			c0,0,0,0,0,0c-0.4,0.6-0.9,1-1.6,1.3c-0.8,0.4-1.8,0.5-2.7,0.2l0.1-0.3c-0.1-0.8-0.2-2.1-0.4-3.5c-0.1-1.1-0.2-2.2-0.3-3
			c-0.5-0.3-0.8-1.1-1-1.9c-0.2-0.6-0.2-1.2-0.2-1.6c0-0.4,0.1-0.8,0.2-1.2C53.5,63.6,54.6,62.3,55.9,61.6"/>
		<path class="st3" d="M31,107.6l-0.1,0c0.4-2.5,0.7-5,0.8-7.6c2.2,0.6,4.5,0.8,6.7,1c2.5,0.1,5.4-0.1,7.9,0.5
			c0.9,0.2,1.7,0.9,2.7,0.5c0.8-0.3,1.3-1.2,1.3-2.1l0.1-0.4c0.9,0.2,1.9,0.3,2.8,0.4l0,0c1.2,0.5,2.5,1,3.7,1.6
			c1.1,0.5,2.2,0.9,3.4,0.6c0.3-0.1,0.6-0.2,0.9-0.4c0.2,2,0.4,4,0.5,6.1l-0.1,0c0.1,0.7-0.8,0.9-1.4,1c-4,1-8.2,0.9-12.3,0.9
			c-5,0-10.6,0.3-15.5-0.9C31.8,108.5,30.9,108.3,31,107.6"/>
		<path class="st3" d="M31.4,67.5L31.4,67.5c0.7-0.5,1.4-0.5,2.1-0.9c1.8-1,3.7-1.7,5.6-2.5c0.2,0.2,0.5,0.4,0.7,0.7l0,0.1
			c-0.4,0.2-0.7,0.5-1.1,0.7l-0.2,0c0.1,0.7,0.3,1.4,0.4,2.1c0.9,0.4,1.7,0.7,2.9,0.8c2.9,0.2,5.8,0.2,8.8,0c1-0.1,1.7-0.2,2.4-0.5
			c0.2,0.8,0.5,1.6,1,1.9c0,0.7,0.2,1.9,0.3,3l-0.3,0c-1.1,0.5-2.2,1.3-2.2,2.5c-0.1,0.8,0.3,1.5,0.7,2.2c0.2,0.4,0.5,0.9,0.7,1.3
			l0.2,0c-0.1,4.9,0.4,9.7,1.5,14.4v0c-0.9,0.4-1.8,0.9-2.7,1.4l-0.1-0.1c-1.4,0-2.7,0.1-4.1,0.1c-0.8,1.3-0.8,3.2-0.1,4.6l0.1-0.1
			c0.7,0.1,1.5,0.3,2.2,0.4l-0.1,0.4c0.1,0.9-0.5,1.8-1.3,2.1c-1,0.4-1.8-0.3-2.7-0.5c-2.5-0.5-5.4-0.3-7.9-0.5
			c-2.2-0.1-4.5-0.3-6.7-1c-0.5-0.2-1-0.3-1.5-0.5c-0.4-0.4-1.3-0.6-1.7-0.9c-1.9-1.4-1.2-4.5-1.3-6.7c-0.1-4.2,0.2-8.5,0.5-12.7
			c0.3-3.5-0.3-9.5,3.2-11.5C31.1,67.6,31.3,67.5,31.4,67.5"/>
		<path class="st4" d="M49.9,62.8c1,0.8,2.1,1.5,3.1,2.2h0c-0.1,0.4-0.2,0.8-0.2,1.2c0,0.3,0.1,1,0.2,1.6c-0.7,0.3-1.5,0.5-2.4,0.5
			c-2.9,0.2-5.8,0.2-8.8,0c-1.2-0.1-2-0.3-2.9-0.8c-0.1-0.7-0.3-1.4-0.4-2.1l0.2,0c0.4-0.2,0.7-0.5,1.1-0.7c0.9-0.6,1.9-1.3,2.8-1.9
			c0.8-1.1,1.2-2.5,1-3.8l0.1,0c0.5-0.9,1.5-1.6,2.5-1.6c1,0,2.1,0.6,2.6,1.5l0.1,0C48.7,60.2,49.1,61.7,49.9,62.8"/>
		<path class="st1" d="M48.7,58.7c-0.3,1.6,0.2,3.6,1.4,4.7c0.3,0.2,0.6-0.1,0.4-0.4c-1-1.3-1.4-2.6-1.3-4.2
			C49.2,58.5,48.8,58.5,48.7,58.7"/>
		<path class="st1" d="M49.5,62.8c1,0.9,2.2,1.8,3.4,2.5c0.3,0.2,0.5-0.3,0.3-0.4c-0.6-0.4-1.2-0.8-1.7-1.2
			c-0.6-0.4-1.1-0.8-1.7-1.2C49.6,62.3,49.3,62.6,49.5,62.8"/>
		<path class="st1" d="M60.3,67.3c0.3,0.1,0.5,0.2,0.7,0.3c0.3,0.2,0.6-0.3,0.3-0.5c-0.3-0.2-0.6-0.3-0.9-0.4
			C60.1,66.7,59.9,67.2,60.3,67.3"/>
		<path class="st1" d="M62.1,77.7c-0.2,0.2-0.4,0.5-0.7,0.6c-0.2,0.2-0.5,0.3-0.7,0.5c-0.2,0.1,0,0.5,0.2,0.4
			c0.6-0.2,1.1-0.7,1.5-1.2C62.6,77.8,62.3,77.5,62.1,77.7"/>
		<path class="st1" d="M60.9,101.5c0,1.1,0.1,2.1,0.2,3.2c0.1,1,0.1,2.1,0.3,3c0.1,0.3,0.5,0.2,0.5-0.1c0-1-0.2-2.1-0.2-3.2
			c-0.1-1-0.1-2-0.3-3C61.3,101.2,60.9,101.3,60.9,101.5"/>
		<path class="st1" d="M61.3,107.4c0.3,0.8-1,0.9-1.5,1.1c-1.1,0.3-2.3,0.4-3.4,0.5c-2.2,0.2-4.4,0.2-6.6,0.2
			c-4.3,0-8.6,0.2-12.9-0.2c-1.2-0.1-2.4-0.3-3.6-0.5c-0.5-0.1-0.9-0.2-1.4-0.3c-0.4-0.1-0.8-0.3-0.6-0.8c0.1-0.3-0.3-0.5-0.5-0.2
			c-0.3,0.7,0,1.2,0.7,1.5c0.9,0.4,2,0.5,3,0.7c2.4,0.4,4.9,0.5,7.4,0.5c2.5,0,5-0.1,7.4-0.1c2.6,0,5.2,0,7.7-0.3
			c1.2-0.2,2.5-0.3,3.7-0.7c0.7-0.2,1.3-0.7,0.9-1.5C61.6,107,61.2,107.1,61.3,107.4"/>
		<path class="st1" d="M43.4,58.8c0.1,1.6-0.3,3-1.3,4.2c-0.2,0.3,0.1,0.6,0.4,0.4c1.2-1.1,1.7-3.1,1.4-4.7
			C43.9,58.5,43.4,58.5,43.4,58.8"/>
		<path class="st1" d="M49,58.7c-0.6-1-1.6-1.7-2.8-1.7c-1.1,0-2.2,0.7-2.7,1.8c-0.2,0.3,0.3,0.6,0.5,0.3c1-1.8,3.6-2,4.6-0.2
			C48.8,59.1,49.2,58.9,49,58.7"/>
		<path class="st1" d="M42.8,62.4c-0.7,0.5-1.4,1-2,1.4c-0.7,0.5-1.4,0.9-2.1,1.4c-0.3,0.2,0,0.6,0.3,0.4c0.7-0.4,1.5-0.9,2.2-1.4
			c0.7-0.5,1.3-0.9,2-1.5C43.3,62.6,43,62.3,42.8,62.4"/>
		<path class="st1" d="M40,64.5c-0.2-0.2-0.5-0.4-0.7-0.7c-0.1-0.1-0.2-0.1-0.3,0c-1.3,0.6-2.7,1.1-4,1.7c-0.7,0.3-1.3,0.7-2,1
			c-0.6,0.2-1.2,0.3-1.7,0.7c-0.3,0.1,0,0.5,0.2,0.4c0.6-0.3,1.2-0.4,1.9-0.7c0.7-0.3,1.3-0.7,1.9-1c1.3-0.6,2.7-1.2,4-1.8
			c-0.1,0-0.2,0-0.3,0c0.2,0.2,0.5,0.4,0.7,0.7C39.9,65,40.2,64.7,40,64.5"/>
		<path class="st1" d="M53.1,67.5C52,68,50.9,68,49.7,68.1c-1.2,0.1-2.5,0.1-3.7,0.1c-2.3,0-4.7,0.1-6.8-0.9
			c-0.3-0.1-0.6,0.3-0.3,0.5c0.9,0.5,1.9,0.7,2.9,0.8c1.4,0.1,2.7,0.2,4.1,0.2c1.3,0,2.7,0,4-0.1c1.2-0.1,2.3-0.2,3.3-0.7
			C53.5,67.8,53.3,67.4,53.1,67.5"/>
		<path class="st1" d="M39.3,67.7c0-0.8-0.2-1.6-0.4-2.3c-0.1-0.3-0.6-0.3-0.5,0.1c0.1,0.8,0.3,1.6,0.5,2.3
			C38.9,67.9,39.3,67.9,39.3,67.7"/>
		<path class="st1" d="M30.2,78.1c0.4,0.5,0.9,1,1.5,1.2c0.2,0.1,0.4-0.3,0.2-0.4c-0.2-0.2-0.5-0.3-0.7-0.5
			c-0.2-0.2-0.5-0.4-0.7-0.6C30.3,77.5,30,77.8,30.2,78.1"/>
		<path class="st1" d="M31.7,79.5c-0.1,1.9,0,3.8,0,5.6c0,0.9,0,1.8,0,2.7c0,0.9-0.1,1.9,0,2.8c0,0.3,0.5,0.3,0.5,0
			c0.1-0.9,0-1.8,0-2.7c0-0.9,0-1.9,0-2.8c0-1.9,0-3.8-0.1-5.6C32.1,79.2,31.7,79.2,31.7,79.5"/>
		<path class="st1" d="M31.4,100c-0.2,2.6-0.4,5.1-0.8,7.6c-0.1,0.4,0.5,0.5,0.6,0.2c0.4-2.6,0.7-5.2,0.9-7.8
			C32.1,99.6,31.5,99.6,31.4,100"/>
		<path class="st1" d="M32.9,67.5c-0.8-0.8-1.9-0.2-2.7,0.4c-0.7,0.6-1.3,1.5-1.6,2.4c-0.8,2-0.9,4.3-1,6.4
			c-0.1,2.9-0.4,5.7-0.5,8.6c-0.1,3-0.1,6.1-0.2,9.1c0,1.2,0,2.5,0.7,3.5c0.3,0.4,0.7,0.8,1.1,1c0.5,0.2,1.3,0.4,1.5,0.9
			c0.1,0.2,0.5,0.1,0.4-0.2c-0.4-0.9-1.5-0.9-2.1-1.4c-0.8-0.7-1-1.8-1.1-2.8c0-1,0.1-2.1,0.1-3.1c0-1.6,0-3.1,0-4.7
			c0.1-3,0.4-6,0.5-9c0.1-2,0.1-4.1,0.4-6.1c0.2-1.1,0.5-2.1,1.1-3.1c0.5-0.8,2-2.5,3-1.6C32.8,68,33.1,67.7,32.9,67.5"/>
		<path class="st1" d="M30.1,99.7c2.8,1.2,6,1.5,9.1,1.6c1.6,0.1,3.2,0,4.8,0.1c0.8,0.1,1.6,0.1,2.4,0.3c0.6,0.2,1.1,0.5,1.8,0.6
			c1.4,0.2,2.5-1.1,2.4-2.5c0-0.3-0.5-0.3-0.5,0c0,0.9-0.5,1.8-1.4,2c-0.8,0.2-1.5-0.4-2.3-0.6c-1.7-0.4-3.6-0.4-5.3-0.4
			c-3.6,0-7.4-0.2-10.8-1.5C30,99.2,29.9,99.6,30.1,99.7"/>
		<path class="st1" d="M60.1,67.9c0.7-0.6,1.7,0.1,2.3,0.6c0.5,0.5,0.8,1.1,1.1,1.7c0.6,1.6,0.8,3.3,1,4.9c0.6,4,0.8,8.1,0.7,12.1
			c-0.1,2.3-0.4,4.6-0.7,6.9c0,0.3,0.4,0.4,0.4,0.1c0.8-4.4,1-8.9,0.7-13.4c-0.1-2.2-0.4-4.4-0.8-6.6c-0.3-1.6-0.5-3.5-1.3-5
			c-0.6-1.1-2.5-3-3.8-1.7C59.6,67.7,59.9,68,60.1,67.9"/>
		<path class="st1" d="M63,61.1c-0.2,1.7-0.9,3.4-2,4.8c-1,1.3-2.3,2.1-3.8,2.9c-0.3,0.1-0.1,0.6,0.2,0.5c3.3-1.2,5.7-4.6,5.9-8.1
			C63.4,61,63,60.9,63,61.1"/>
		<path class="st1" d="M53.9,69.5c0,1.1,0.2,2.3,0.3,3.4c0.1,0.6,0.1,1.2,0.2,1.8c0.1,0.5,0.1,1,0.2,1.5c0.1,0.3,0.5,0.2,0.5-0.1
			c0-0.5-0.1-1-0.1-1.5c-0.1-0.6-0.1-1.2-0.2-1.8c-0.1-1.1-0.2-2.2-0.4-3.3C54.3,69.2,53.9,69.3,53.9,69.5"/>
		<path class="st1" d="M54.7,69.6c-0.8-0.1-1.1-1.2-1.3-1.9c-0.2-0.8-0.3-1.7-0.1-2.5c0.6-2.3,2.8-3.9,5-4.2c0.3,0,0.2-0.6-0.1-0.6
			c-2.5,0.3-5,2.3-5.6,4.9c-0.2,1-0.1,2,0.3,2.9c0.2,0.7,0.8,1.9,1.7,1.8C54.9,70,54.9,69.6,54.7,69.6"/>
		<path class="st1" d="M53.3,78.3c-0.2,5,0.4,10,1.5,14.9c0.1,0.4,0.7,0.2,0.6-0.2c-1.2-4.8-1.7-9.8-1.5-14.7
			C53.9,77.9,53.3,77.9,53.3,78.3"/>
		<path class="st1" d="M63.2,98c0.4-0.4,0.8-0.9,1-1.4c0.2-0.3-0.3-0.6-0.5-0.3c-0.3,0.5-0.6,0.9-0.9,1.3
			C62.5,97.8,62.9,98.2,63.2,98"/>
		<path class="st1" d="M64.9,94.3c0,0,0-0.1,0-0.1c0-0.2-0.1-0.3-0.3-0.3c-0.2,0-0.3,0.1-0.3,0.3c0,0,0,0.1,0,0.1
			c0,0.2,0.1,0.3,0.3,0.3C64.8,94.6,64.9,94.5,64.9,94.3"/>
		<path class="st1" d="M57.1,69.1c0.2,1,0.5,2,0.8,2.9c0.3,1,0.5,1.9,0.8,2.9c0.1,0.3,0.5,0.2,0.4-0.1c-0.2-1-0.5-2-0.8-2.9
			c-0.3-1-0.5-2-0.8-2.9C57.5,68.7,57.1,68.8,57.1,69.1"/>
		<path class="st1" d="M53,75.1c0.2,1.6,2.7,1.8,3.9,1.5c1.4-0.4,2.8-1.7,3-3.2c0-0.3-0.4-0.3-0.5-0.1c-0.4,1.2-1.1,2.2-2.3,2.7
			c-0.6,0.2-1.3,0.3-1.9,0.2c-0.6-0.1-1.6-0.4-1.7-1.1C53.4,74.8,53,74.9,53,75.1"/>
		<path class="st1" d="M54.1,72.4c-1,0.4-2.2,1.2-2.4,2.4c-0.3,1.4,0.8,2.9,1.5,4c0.2,0.3,0.7,0,0.5-0.3c-0.5-1-1.6-2.2-1.4-3.5
			c0.2-1.1,1.2-1.7,2.1-2.2C54.5,72.7,54.3,72.3,54.1,72.4"/>
		<path class="st1" d="M56.1,61.4c-0.1-0.4-0.2-0.7-0.3-1.1c-0.1-0.5-0.1-0.9,0.4-1.2c0.5-0.4,1.2-0.6,1.8-0.7
			c0.2,0,0.2-0.2,0.2-0.4c-0.1-0.6,0.7-0.8,1.1-0.9c0.4-0.1,0.9-0.2,1.3-0.4c0.3-0.1,0.2-0.7-0.2-0.6c-1,0.3-3.1,0.5-2.9,2
			c0.1-0.1,0.1-0.2,0.2-0.4c-0.8,0.2-1.8,0.5-2.4,1.2c-0.5,0.7-0.1,1.9,0.2,2.5C55.8,61.8,56.2,61.7,56.1,61.4"/>
		<path class="st1" d="M60.6,56.5c-0.3-1,0.9-1.1,1.5-0.6c0.5,0.4,0.7,1.1,0.9,1.7c0.3,1.3,0.3,2.6-0.2,3.8
			c-0.1,0.2,0.3,0.4,0.4,0.2c0.8-1.7,0.8-3.9-0.2-5.6c-0.4-0.7-1.2-1.2-2-1c-0.6,0.2-1,0.9-0.7,1.5C60.3,56.9,60.7,56.8,60.6,56.5"
			/>
		<path class="st1" d="M58.3,72.3c0.9-0.7,1.9,0.1,2.3,1c0.3,1,0.1,2-0.4,2.9c-0.2,0.3,0.2,0.5,0.4,0.3c0.8-1.1,0.9-2.6,0.3-3.8
			C60.3,71.7,59,71,58,72C57.9,72.2,58.1,72.5,58.3,72.3"/>
		<path class="st1" d="M59.9,76.1c0.3,2.2,0.9,4.3,1.3,6.4c0.5,2.1,0.9,4.3,1.4,6.4c0,0.2,0.3,0.2,0.4,0.1c0.1-0.3,0.3-0.3,0.4,0.2
			c-0.1,0.3,0.2,0.5,0.4,0.2c0.5-0.9-0.8-1.6-1.2-0.6c0.1,0,0.3,0,0.4,0.1c-0.4-2.1-0.8-4.3-1.3-6.4c-0.4-2.1-0.8-4.3-1.4-6.4
			C60.3,75.7,59.9,75.8,59.9,76.1"/>
		<path class="st1" d="M52.4,94.7c1.2-0.6,2.3-1.2,3.5-1.7c0.6-0.3,1.2-0.5,1.8-0.7c0.3-0.1,0.5-0.2,0.7,0.2
			c0.1,0.2,0.2,0.4,0.3,0.6c0.9,1.2,2.8,1.2,4.2,1.3c0.6,0,1.7,0,1.9,0.8c0.1,0.7-0.5,0.9-1,1.1c-0.3,0.1-0.6,0.3-0.8,0.5
			c-0.4,0.6-0.5,1.4-0.6,2.1c-0.2,1-0.6,1.9-1.4,2.5c-1.3,0.9-2.8,0.4-4-0.2c-1.4-0.6-2.8-1.3-4.3-1.8c-0.3-0.1-0.5,0.4-0.2,0.5
			c1.4,0.7,2.9,1.2,4.3,1.8c1.2,0.5,2.5,1,3.8,0.5c1-0.4,1.7-1.3,2.1-2.3c0.3-0.8,0.3-1.8,0.6-2.5c0.2-0.5,0.5-0.5,1-0.7
			c0.4-0.1,0.8-0.4,1-0.9c0.3-0.8-0.1-1.5-0.8-1.8c-0.8-0.3-1.6-0.2-2.4-0.3c-0.9,0-2-0.2-2.7-0.8c-0.4-0.4-0.4-1.1-0.9-1.3
			c-0.6-0.2-1.3,0.3-1.8,0.5c-1.5,0.6-3,1.3-4.4,2.2C51.9,94.5,52.2,94.9,52.4,94.7"/>
		<path class="st1" d="M31.6,91c0.4-0.3,0.8,0.1,0.6,0.5c-0.1,0.2,0,0.4,0.2,0.4c5,0.6,9.9,1.2,14.9,1.9c0.1,0,0.2,0,0.3-0.1
			c0.3-0.4,0.9-0.5,1.4-0.3c0.4,0.2,0.6,0.7,0.9,1.1c0.2,0.2,0.6-0.1,0.4-0.3c-0.4-0.6-0.7-1.2-1.4-1.3c-0.6-0.1-1.3,0.1-1.7,0.7
			c0.1,0,0.2-0.1,0.3-0.1c-5-0.7-10-1.4-15-1.9c0.1,0.1,0.2,0.3,0.2,0.4c0.6-0.9-0.6-2-1.4-1.2C31,90.9,31.4,91.2,31.6,91"/>
		<path class="st1" d="M48.3,94.1c-1.3,1.7-1.2,4.4,0.2,6.1c0.2,0.3,0.6-0.1,0.4-0.4c-1.1-1.5-1.4-3.9-0.2-5.4
			C48.7,94.1,48.4,93.9,48.3,94.1"/>
		<path class="st1" d="M48.2,99.2c0.8,0.3,1.7,0.4,2.6,0.5c0.8,0.1,1.7,0.3,2.5,0.3c0.3,0,0.4-0.5,0.1-0.5c-0.9-0.2-1.7-0.2-2.6-0.4
			c-0.8-0.1-1.6-0.3-2.5-0.4C48,98.8,47.9,99.2,48.2,99.2"/>
		<path class="st1" d="M48.1,94.7c1.4,0.1,2.9,0,4.3,0c0.4,0,0.4-0.6,0-0.6c-1.4,0-2.9,0-4.3,0.2C47.8,94.2,47.8,94.7,48.1,94.7"/>
		<path class="st2" d="M24.5,35.5c0,2,0.4,3.9,1.4,5.4l0.2,0c-0.2-0.8-0.3-1.5-0.5-2.3c0.8-3.6,2.9-6.9,5.7-9.3
			c3.1-2.7,6.1-3.2,10-4.1c6.8-1.5,13.1-5.3,17.4-10.9c2,2.8,3.7,5.9,4.9,9.2c1.2,3.3,1.5,6.9,2,10.4c0.2,1.4,0.4,2.8,1.1,4.1
			c2.3-3.2,2.4-7,2.3-10.8c-0.1-4.1-1.3-8.2-3.2-11.8c-1.7-3.1-3.9-6.1-6.9-8c-3-1.8-6.5-2.4-10-2.6c-3.5-0.2-7-0.2-10.3,0.6
			c-6.9,1.6-12,6.7-14.4,13.3c-2,5.4-2.2,11.3-2.1,17l0.3,0.1C23,35.3,23.9,35.1,24.5,35.5"/>
		<path class="st0" d="M27.7,13.9c1.4,1.7,3.5,2.9,5.6,1.6c-0.2-0.1-0.4-0.1-0.7-0.2c0.9,1.3,2.7,1.8,4.1,0.9
			c0.5-0.3,0.1-1.2-0.5-0.8c-0.9,0.5-2.1,0.4-2.7-0.6c-0.1-0.2-0.4-0.3-0.7-0.2c-1.7,1-3.4-0.1-4.5-1.4
			C27.9,12.8,27.3,13.4,27.7,13.9"/>
		<path class="st0" d="M65.9,16.1c-0.6,1.3-2.1,1-3.1,0.5c-0.5-0.2-1,0.5-0.4,0.8c1.4,0.7,3.5,0.9,4.3-0.8
			C66.9,16.1,66.1,15.6,65.9,16.1"/>
		<path class="st4" d="M64.7,48c2.2-0.7,3.8-2.4,4.7-4.4l-1.9-0.3c-0.5,1-1.3,1.8-2.4,1.9l-0.3-0.1c0.4-2.1,0.9-4.4,1.3-6.4l-0.1,0
			c0-0.8,0-1.6,0-2.4c-0.1-3.2-0.6-6.4-1.4-9.4c-1.2-4.5-3.3-8.7-6-12.4c-4.3,5.6-10.6,9.3-17.4,10.9c-3.8,0.8-6.9,1.4-10,4.1
			c-2.8,2.4-4.8,5.7-5.7,9.3c0.2,0.7,0.3,1.5,0.5,2.3c0.4,1.9,0.8,3.9,1.2,5.7l0.2,0.8c0,0.2,0,0.4,0,0.6c0.4,8.2,10.3,11.3,17,11.5
			c0.4,0,0.8,0,1.3,0h0.3c0.4,0,0.9,0,1.3,0c6.7-0.2,16.6-3.3,17-11.5L64.7,48"/>
		<path class="st5" d="M54.7,48.8c0,1.8,1.5,3.3,3.3,3.3c1.8,0,3.3-1.5,3.3-3.3c0-1.8-1.5-3.3-3.3-3.3C56.2,45.5,54.7,47,54.7,48.8"
			/>
		<path class="st5" d="M30.3,48.8c0,1.8,1.5,3.3,3.3,3.3c1.8,0,3.3-1.5,3.3-3.3c0-1.8-1.5-3.3-3.3-3.3C31.8,45.5,30.4,47,30.3,48.8"
			/>
		<path class="st4" d="M65.1,45.2c1.1-0.1,1.9-0.9,2.4-1.9l1.9,0.3c0.8-1.7,1.1-3.6,1-5.4c-0.1-0.8-0.3-1.7-0.9-2.3
			c-0.2-0.2-0.5-0.4-0.7-0.5c-0.5-0.2-1.1-0.1-1.5,0.2c-0.3,0.3-0.7,0.4-1.1,0.6l-0.1,0c0,0.8,0,1.6,0,2.4l0.1,0
			c-0.4,2.1-0.9,4.3-1.3,6.4L65.1,45.2"/>
		<path class="st4" d="M26,40.9c-1.1-1.5-1.4-3.5-1.4-5.4c-0.6-0.4-1.6-0.2-2.1,0.4c-0.6,0.6-0.8,1.5-0.9,2.3
			c-0.4,4.1,1.7,8.5,5.7,9.8l0.3,0c0-0.2,0-0.4,0-0.6l-0.2-0.8c-0.4-1.8-0.8-3.8-1.2-5.7L26,40.9"/>
		<path class="st1" d="M66.1,38.2c-0.3,1.4-0.6,2.8-0.9,4.2c-0.3,1.4-0.6,2.8-0.9,4.2c-0.1,0.3,0.4,0.5,0.5,0.1
			c0.4-1.4,0.6-2.8,0.9-4.2c0.3-1.4,0.5-2.8,0.8-4.2C66.5,38,66.1,37.9,66.1,38.2"/>
		<path class="st1" d="M46.1,59.7c3.4,0.1,6.7-0.4,9.9-1.6c2.9-1.1,5.7-2.8,7.3-5.5c0.9-1.5,1.4-3.4,1.4-5.2c0-0.4-0.6-0.4-0.6,0
			c0,1.6-0.3,3.1-1.1,4.5c-0.7,1.3-1.8,2.4-2.9,3.3c-2.5,1.9-5.5,2.9-8.5,3.5c-1.8,0.3-3.6,0.5-5.4,0.5
			C45.8,59.2,45.8,59.7,46.1,59.7"/>
		<path class="st1" d="M64.7,48.3c2.4-0.8,4.2-2.7,5.1-5c0.5-1.2,0.8-2.4,0.8-3.7c0.1-1.3,0-2.8-0.9-3.8c-0.4-0.5-1.1-0.8-1.7-0.7
			c-0.3,0-0.6,0.1-0.8,0.3c-0.4,0.2-0.7,0.5-1.1,0.7c-0.3,0.2,0,0.7,0.3,0.5c0.3-0.2,0.7-0.4,1-0.6c0.3-0.3,0.6-0.4,1-0.3
			c0.9,0.1,1.3,0.9,1.5,1.7c0.4,1.4,0.2,3-0.1,4.3c-0.7,2.7-2.5,5.1-5.2,6C64.2,47.8,64.4,48.4,64.7,48.3"/>
		<path class="st1" d="M65.2,45.4c1.6-0.3,2.8-1.9,3-3.5c0-0.3-0.4-0.3-0.4-0.1c-0.2,1.5-1.1,2.9-2.6,3.2
			C64.8,45,64.9,45.4,65.2,45.4"/>
		<path class="st1" d="M45.9,43c-0.2,0.5-0.1,1,0.2,1.4c0.2,0.3,0.6-0.1,0.4-0.4c-0.2-0.2-0.2-0.5-0.1-0.8
			C46.4,42.9,46,42.7,45.9,43"/>
		<path class="st1" d="M62.1,27.1c-0.5-1.1-1.3-2.3-2.5-2.8c-1.2-0.5-2.6-0.1-3.3,1c-0.1,0.2,0.2,0.5,0.4,0.3c0.8-1,2-1.3,3.1-0.6
			c0.9,0.5,1.5,1.5,2,2.4C61.9,27.5,62.3,27.3,62.1,27.1"/>
		<path class="st0" d="M47.1,51.5c1.9,1.2,0,4.3-1.8,2.7C44,53.1,45.6,50.6,47.1,51.5"/>
		<path class="st1" d="M47,51.7c0.6,0.4,0.8,1.2,0.5,1.9c-0.3,0.6-0.9,1-1.6,0.8C44.2,53.7,45.4,50.9,47,51.7
			c0.3,0.2,0.5-0.2,0.2-0.4c-0.9-0.6-1.9,0-2.3,0.9c-0.5,1-0.2,2.1,0.8,2.6c0.9,0.4,1.8-0.1,2.2-0.9c0.5-0.9,0.2-2-0.7-2.5
			C47,51.2,46.8,51.6,47,51.7"/>
		<path class="st0" d="M51.9,39.5c0.1,0.8,0.4,1.6,0.8,2.3c1.6,2.7,6.2,2,7.6-0.6c1.5-2.8,0.5-6.7-2.3-8.1c-2.8-1.4-5.1,0.6-5.9,3.5
			C51.8,37.6,51.8,38.6,51.9,39.5"/>
		<path class="st1" d="M61.6,38.9c0.5-3-1.4-7.4-5-6.7c-0.3,0.1-0.2,0.5,0,0.5c2.9,0.8,4.9,3.6,4.5,6.7c0.2,0,0.3,0,0.5,0
			c0.1-3.1-1.4-6.5-4.6-7.2c-0.3-0.1-0.5,0.4-0.1,0.5c2.9,0.9,4.4,3.7,4.2,6.7c0,0.3,0.4,0.3,0.5,0.1c0.5-3.4-1.7-6.4-4.8-7.3
			c0,0.2,0,0.4,0,0.5c1.5-0.3,2.8,0.6,3.5,1.8c0.8,1.3,1,2.8,0.9,4.2C61.2,39,61.6,39.1,61.6,38.9"/>
		<path class="st1" d="M61.4,39.9c0.1-1.9-0.5-3.9-1.7-5.3c-1.4-1.6-3.4-2-5.3-1.5c0.1,0.2,0.2,0.4,0.2,0.6c0.7-0.5,1.6-0.8,2.5-0.7
			c0.4,0,0.4-0.6,0-0.6c-1-0.1-2,0.2-2.8,0.8c-0.3,0.2-0.1,0.6,0.2,0.6c1.8-0.4,3.6,0,4.8,1.4c1.1,1.3,1.6,3.1,1.6,4.8
			C61,40.2,61.4,40.2,61.4,39.9"/>
		<path class="st1" d="M61.1,36.6c0.5,0.3,1.1,0.1,1.4-0.3c0.4-0.4,0.5-1.1,0.6-1.7c0-0.3-0.5-0.3-0.5,0c0,0.4-0.1,0.8-0.3,1.2
			c-0.2,0.3-0.6,0.6-1,0.5C61.1,36.1,60.9,36.4,61.1,36.6"/>
		<path class="st1" d="M56.7,43.7c1.7-0.3,2.8-1.9,2.9-3.6c0.1-1.8-0.8-4.3-2.5-5.1c-1.6-0.7-3.4,0.1-4.1,1.7
			c-0.7,1.6-0.6,3.9,0.2,5.4c0.8,1.5,2.7,2.1,4.2,1.4c1.7-0.8,2.5-2.8,2.3-4.6c-0.2-1.7-1.2-3.9-3-4.2c-1.8-0.3-3.2,1.5-3.5,3.1
			c-0.3,1.8-0.1,4.2,1.4,5.4c1.5,1.2,3.5,0.1,4.4-1.3c1-1.5,1-3.4,0.1-4.9c-1-1.5-2.9-2.6-4.4-1.2c-1.3,1.2-1.7,3.2-1.1,4.9
			c0.6,1.5,2.1,2.6,3.6,2.5c1.8-0.1,2.9-1.8,3.1-3.5c0.1-1.1-0.1-2.2-0.5-3.2c-0.3-0.9-0.9-1.4-1.8-1.7c-0.9-0.3-1.9-0.6-2.8-0.4
			c-0.9,0.3-1.4,1.1-1.7,1.9c-0.7,1.7-0.5,4.1,0.8,5.5c0.6,0.6,1.5,1,2.4,0.8c0.9-0.3,1.5-1.1,2-1.9c0.9-1.5,1.1-3.5-0.1-5
			c-1.1-1.3-3.1-1.3-4.2,0.1c-1.2,1.5-0.6,3.8,0.3,5.3c0.4,0.6,1.2,1.6,2.1,1.4c0.8-0.1,1.5-1,1.8-1.7c0.7-1.6,0.2-3.5-1.3-4.4
			c-0.7-0.4-1.6-0.7-2.3-0.2c-0.6,0.4-0.9,1.2-1,2c-0.3,1.6,0.1,3.9,1.9,4.4c2,0.6,3-1.9,2.9-3.5c0-1.7-1.5-3.5-3.3-2.8
			c-1.9,0.7-2,3.2-1,4.7c0.4,0.7,1.1,1.4,2,1.4c0.8,0,1.5-0.7,1.7-1.5c0.5-1.5,0-4.5-2-4.5c-1.8,0.1-2.3,2.7-1.7,4
			c0.4,0.7,1.1,1.3,1.9,1.3c0.8-0.1,1.4-0.8,1.6-1.6c0.5-1.5-0.3-3.7-2-4c-2-0.4-2.3,2.5-1.8,3.9c0.3,0.8,1,1.4,1.8,1.5
			c0.9,0,1.6-0.6,2-1.3c0.7-1.4,0.3-3.4-1.2-4c-0.8-0.3-1.7-0.2-2.3,0.5c-0.6,0.7-0.7,1.7-0.6,2.6c0.2,1.7,1.4,3.1,3.2,3
			c1.8-0.1,2.7-1.9,2.2-3.6c-0.2-0.9-0.8-1.6-1.4-2.1c-0.6-0.5-1.3-1.2-2.2-0.8c-0.4,0.2,0,0.7,0.3,0.6c0.6-0.3,1.5,0.8,1.8,1.1
			c0.5,0.5,0.9,1.2,0.9,1.9c0.1,1.4-0.9,2.4-2.3,2.2c-1.4-0.2-2-1.7-2-3c0-0.7,0.3-1.5,0.9-1.8c0.7-0.3,1.5,0,1.9,0.6
			c0.7,1,0.5,2.8-0.7,3.4c-0.7,0.4-1.5-0.1-1.8-0.8c-0.3-0.6-0.3-1.5-0.2-2.2c0.2-0.9,0.9-1.2,1.6-0.8c0.6,0.3,0.9,1,1.1,1.6
			c0.1,0.6,0,1.3-0.3,1.9c-0.4,0.7-1.2,0.8-1.8,0.2c-0.5-0.5-0.7-1.3-0.5-2c0.1-0.7,0.6-1.6,1.3-1.6c1.7-0.1,1.8,2.9,1.3,3.9
			c-0.4,0.7-1.2,1-1.8,0.4c-0.6-0.5-0.9-1.3-1.1-2c-0.1-0.7,0.1-1.5,0.6-2.1c0.5-0.5,1.2-0.7,1.8-0.4c1.5,0.7,1.4,2.7,0.8,4
			c-0.3,0.6-0.8,1.2-1.5,1c-0.7-0.1-1.2-0.7-1.4-1.4c-0.4-1-0.4-2.9,0.4-3.7c1.1-1.1,2.7,0.6,3,1.7c0.2,0.6,0.1,1.3-0.1,1.9
			c-0.2,0.5-0.9,1.5-1.6,1.4c-0.7-0.1-1.2-1.1-1.5-1.6c-0.3-0.6-0.5-1.4-0.6-2.1c-0.1-1.4,0.8-2.7,2.3-2.7c1.3,0,2.2,1.5,2.2,2.7
			c0,0.8-0.2,1.5-0.6,2.1c-0.3,0.6-0.8,1.3-1.4,1.6c-1.6,0.9-2.8-1.2-3.1-2.5c-0.3-1.3-0.1-3.4,1.1-4.3c0.7-0.5,1.5-0.3,2.2-0.1
			c0.7,0.2,1.5,0.4,1.9,1.1c0.4,0.7,0.6,1.5,0.6,2.3c0.1,0.7,0,1.5-0.3,2.2c-0.5,1.3-1.7,2.2-3.1,1.9c-2.7-0.7-3.3-4.4-1.4-6.3
			c1.3-1.2,3-0.2,3.7,1.1c0.7,1.2,0.7,2.6,0.1,3.8c-0.6,1.2-2.2,2.4-3.5,1.8c-1.3-0.7-1.6-2.5-1.6-3.8c0-1.5,0.4-3.1,1.9-3.8
			c1.4-0.6,2.6,0.6,3.2,1.8c0.7,1.4,0.7,3.1-0.1,4.4c-0.7,1.2-2,1.9-3.4,1.5c-1.4-0.4-2-1.9-2.1-3.3c-0.1-1.3,0-2.8,0.9-3.8
			c1-1.1,2.8-0.9,3.7,0.2c1,1.1,1.5,2.9,1.2,4.4c-0.3,1.2-1.2,2.3-2.4,2.6C56.3,43.3,56.4,43.7,56.7,43.7"/>
		<path class="st1" d="M66.3,38.7C66.7,31.9,65.1,25,62,19c-0.9-1.7-1.8-3.4-3-4.8c-0.2-0.2-0.6,0.1-0.4,0.3
			c0.9,1.4,1.8,2.7,2.6,4.2c0.8,1.5,1.5,3,2.1,4.6c1.2,3.1,2,6.4,2.4,9.7c0.2,1.9,0.3,3.8,0.3,5.7C65.9,39,66.3,39,66.3,38.7"/>
		<path class="st1" d="M25.5,38.3c0.3,1.4,0.5,2.8,0.8,4.2c0.3,1.4,0.5,2.8,0.9,4.2c0.1,0.3,0.6,0.2,0.5-0.1
			c-0.3-1.4-0.6-2.8-0.9-4.2c-0.3-1.4-0.6-2.8-0.9-4.2C25.8,37.9,25.4,38,25.5,38.3"/>
		<path class="st1" d="M45.8,59.2c-3.2,0-6.4-0.5-9.4-1.6c-2.8-1-5.6-2.7-7.3-5.3c-0.9-1.5-1.4-3.2-1.4-5c0-0.4-0.6-0.4-0.6,0
			c-0.2,7.1,7,10.7,12.9,11.9c1.9,0.4,3.8,0.5,5.7,0.5C46.1,59.7,46.1,59.2,45.8,59.2"/>
		<path class="st1" d="M24.8,35.3c-0.9-0.7-2.2-0.3-2.8,0.6c-0.7,1-0.8,2.5-0.7,3.7c0.1,2.4,1,4.7,2.6,6.4c0.9,1,2.1,1.7,3.3,2.2
			c0.4,0.1,0.5-0.5,0.2-0.6c-2.5-0.9-4.3-3-5-5.5c-0.4-1.2-0.5-2.5-0.4-3.8c0.1-0.8,0.2-1.6,0.7-2.2c0.5-0.6,1.3-0.8,1.9-0.3
			C24.8,36.1,25.1,35.6,24.8,35.3"/>
		<path class="st1" d="M26.9,45c-1.5-0.3-2.4-1.7-2.6-3.2c0-0.2-0.5-0.2-0.4,0.1c0.2,1.6,1.3,3.2,3,3.5C27,45.4,27.1,45,26.9,45"/>
		<path class="st1" d="M30.2,27.3c0.5-0.9,1.1-1.9,2-2.4c1.1-0.7,2.3-0.3,3.1,0.6c0.2,0.2,0.5-0.1,0.4-0.3c-0.7-1.1-2.1-1.5-3.3-1
			c-1.2,0.5-1.9,1.7-2.5,2.8C29.7,27.3,30.1,27.5,30.2,27.3"/>
		<path class="st0" d="M40,39.5c-0.1,0.8-0.4,1.6-0.8,2.3c-1.6,2.7-6.2,2-7.6-0.6c-1.5-2.8-0.5-6.7,2.3-8.1c2.8-1.4,5.1,0.6,5.9,3.5
			C40.1,37.6,40.2,38.6,40,39.5"/>
		<path class="st1" d="M30.8,38.8c-0.1-1.5,0.1-3,0.9-4.2c0.7-1.2,2.1-2.1,3.5-1.8c0-0.2,0-0.4,0-0.5c-3.2,0.9-5.4,3.9-4.8,7.3
			c0,0.3,0.5,0.2,0.5-0.1c-0.2-3,1.3-5.8,4.2-6.7c0.3-0.1,0.2-0.6-0.1-0.5c-3.2,0.8-4.7,4.1-4.6,7.2c0.2,0,0.3,0,0.5,0
			c-0.4-3.1,1.6-5.9,4.5-6.7c0.2-0.1,0.3-0.5,0-0.5c-3.6-0.7-5.4,3.6-5,6.7C30.4,39.1,30.8,39,30.8,38.8"/>
		<path class="st1" d="M30.9,39.9c0-1.7,0.5-3.5,1.6-4.8c1.2-1.4,3-1.9,4.8-1.4c0.3,0.1,0.5-0.4,0.2-0.6c-0.8-0.6-1.8-0.9-2.8-0.8
			c-0.4,0-0.4,0.6,0,0.6c0.9-0.1,1.8,0.2,2.5,0.7c0.1-0.2,0.2-0.4,0.2-0.6c-1.9-0.5-3.9,0-5.3,1.5C31,36,30.4,38,30.5,39.9
			C30.5,40.2,30.9,40.2,30.9,39.9"/>
		<path class="st1" d="M30.6,36.2c-0.4,0.2-0.8-0.1-1-0.5c-0.2-0.3-0.2-0.8-0.3-1.2c0-0.3-0.5-0.3-0.5,0c0,0.6,0.1,1.3,0.6,1.7
			c0.4,0.4,1,0.5,1.4,0.3C31,36.4,30.8,36.1,30.6,36.2"/>
		<path class="st1" d="M36.9,43.2c-3.2-0.7-3-5.1-1.2-7.1c1-1.1,2.7-1.2,3.7,0c0.9,1,1,2.6,0.9,3.9c-0.1,1.4-0.7,2.8-2.2,3.2
			c-1.3,0.3-2.7-0.4-3.4-1.6c-0.8-1.4-0.7-3,0-4.4c0.6-1.2,1.8-2.4,3.2-1.7c1.4,0.7,1.8,2.3,1.8,3.8c0,1.4-0.3,3.2-1.7,3.8
			c-1.4,0.6-2.9-0.7-3.5-1.9c-0.6-1.2-0.5-2.7,0.2-3.8c0.4-0.6,0.9-1.1,1.5-1.4c0.8-0.4,1.6-0.3,2.3,0.4c0.9,1,1.3,2.5,1,3.8
			c-0.3,1.2-1.3,2.2-2.5,2.5c-1.4,0.3-2.6-0.6-3.1-1.9c-0.3-0.7-0.3-1.5-0.2-2.2c0.1-0.7,0.3-1.6,0.7-2.3c0.4-0.7,1.3-0.9,2-1.1
			c0.7-0.2,1.6-0.4,2.3,0.2c1.1,1,1.3,2.9,1,4.3c-0.3,1.3-1.5,3.3-3.1,2.3c-1.2-0.7-2-2.4-2-3.8c0-1.3,0.9-2.6,2.3-2.6
			c1.5,0,2.3,1.4,2.2,2.8c-0.1,0.7-0.3,1.5-0.6,2.1c-0.3,0.5-0.9,1.6-1.6,1.5c-0.7,0-1.3-0.9-1.5-1.5c-0.2-0.6-0.3-1.3-0.1-1.9
			c0.3-1.1,2-2.7,3-1.6c0.8,0.9,0.8,2.8,0.3,3.8c-0.3,0.6-0.8,1.1-1.4,1.2c-0.7,0.1-1.2-0.5-1.5-1.1c-0.6-1.3-0.6-3.4,0.9-4
			c1.5-0.6,2.5,1.3,2.3,2.6c-0.1,0.7-0.5,1.5-1.1,2c-0.7,0.5-1.4,0.2-1.8-0.5c-0.3-0.7-0.3-1.6-0.2-2.3c0.2-0.7,0.7-1.7,1.5-1.5
			c0.7,0.1,1.1,1,1.2,1.7c0.1,0.7-0.1,1.4-0.6,1.9c-0.6,0.6-1.4,0.4-1.8-0.4c-0.3-0.5-0.4-1.2-0.2-1.8c0.1-0.6,0.5-1.3,1.1-1.6
			c0.8-0.4,1.4,0,1.6,0.9c0.1,0.7,0.1,1.6-0.2,2.3c-0.4,0.6-1.1,1-1.8,0.6c-1.1-0.7-1.3-2.4-0.5-3.4c0.4-0.6,1.3-0.9,1.9-0.5
			c0.6,0.3,0.8,1.2,0.9,1.8c0.1,1.3-0.7,2.7-2,2.9c-1.4,0.2-2.4-1-2.1-2.4c0.1-0.7,0.5-1.2,0.9-1.7c0.3-0.4,1.3-1.4,1.8-1.1
			c0.4,0.2,0.7-0.4,0.3-0.6c-0.8-0.4-1.6,0.3-2.2,0.8c-0.7,0.6-1.3,1.4-1.5,2.3c-0.4,1.7,0.6,3.4,2.4,3.4c1.7,0,2.9-1.5,3-3.2
			c0.1-0.9-0.2-1.9-0.8-2.5c-0.6-0.6-1.6-0.6-2.3-0.3c-1.4,0.7-1.8,2.8-1,4.1c0.4,0.7,1.2,1.3,2,1.2c0.8-0.1,1.5-0.8,1.7-1.6
			c0.5-1.4,0.1-4.3-2-3.7c-1.6,0.4-2.3,2.6-1.8,4.1c0.3,0.7,0.9,1.4,1.7,1.4c0.8,0,1.5-0.6,1.9-1.4c0.6-1.4,0-4.1-1.9-3.9
			c-2,0.2-2.3,3.1-1.7,4.6c0.3,0.8,1,1.4,1.9,1.3c0.9-0.1,1.6-0.9,1.9-1.7c0.8-1.6,0.5-3.9-1.4-4.5c-1.8-0.6-3.2,1.4-3.1,3.1
			c0.1,1.6,1.1,3.9,3,3.2c1.8-0.6,2-2.8,1.7-4.5c-0.1-0.7-0.5-1.5-1.1-1.9c-0.7-0.4-1.7-0.1-2.3,0.3c-1.4,1-1.9,2.9-1.1,4.5
			c0.4,0.7,1.1,1.5,1.9,1.6c0.9,0,1.6-0.9,2-1.6c0.9-1.5,1.4-3.8,0.1-5.2c-1.2-1.3-3.2-1.1-4.2,0.2c-1.1,1.5-0.8,3.5,0.2,5
			c0.5,0.7,1.2,1.6,2.1,1.7c0.9,0.1,1.7-0.3,2.3-0.9c1.3-1.5,1.4-3.8,0.6-5.6c-0.3-0.8-0.9-1.6-1.7-1.8c-0.9-0.2-1.9,0.1-2.8,0.5
			c-0.9,0.3-1.4,0.9-1.7,1.8c-0.4,1-0.5,2.2-0.4,3.3c0.2,1.7,1.5,3.4,3.3,3.3c1.6,0,3-1.2,3.5-2.7c0.5-1.7,0-3.8-1.4-4.9
			c-1.5-1.2-3.5,0.1-4.3,1.5c-0.9,1.6-0.8,3.5,0.3,4.9c1,1.4,3,2.3,4.4,1c1.4-1.2,1.6-3.7,1.2-5.5c-0.3-1.6-1.8-3.3-3.6-2.9
			c-1.8,0.4-2.8,2.6-2.9,4.3c-0.2,1.8,0.7,3.8,2.4,4.5c1.6,0.7,3.5,0,4.2-1.6c0.7-1.6,0.7-3.8,0-5.4c-0.8-1.6-2.7-2.3-4.2-1.5
			c-1.7,0.9-2.5,3.3-2.3,5.1c0.2,1.6,1.3,3.2,2.9,3.5C37.1,43.7,37.2,43.3,36.9,43.2"/>
		<path class="st1" d="M59.9,12.4c-3.2,5.1-8.1,8.8-13.6,11c-1.4,0.6-2.8,1-4.2,1.4c-1.4,0.4-2.9,0.6-4.3,1c-2.8,0.7-5.3,2-7.4,4.1
			c-2.4,2.4-4.1,5.4-4.9,8.8c-0.1,0.4,0.5,0.5,0.6,0.2c0.7-3.1,2.2-5.9,4.4-8.1c1.1-1.1,2.2-2.1,3.6-2.9c1.3-0.7,2.6-1.2,4-1.5
			c1.4-0.4,2.9-0.6,4.3-1c1.4-0.3,2.7-0.8,4.1-1.3c2.7-1.1,5.2-2.5,7.5-4.3c2.5-2,4.7-4.4,6.5-7.1C60.4,12.4,60,12.1,59.9,12.4"/>
		<path class="st1" d="M54.4,11.9c-3.7,5.2-9.2,9.5-15.3,11.1c-2,0.5-4,0.6-5.9,0c-0.3-0.1-0.5,0.4-0.1,0.5c3.3,1.4,7,0,10.1-1.4
			c3-1.4,5.7-3.3,8.1-5.7c1.3-1.3,2.5-2.8,3.6-4.3C54.9,11.9,54.5,11.7,54.4,11.9"/>
		<path class="st1" d="M38.9,8.6c-4.6,1.5-8.3,4.9-10.8,9c-1.4,2.3-2.3,4.9-3,7.6c-0.6,2.7-0.8,5.4-0.9,8.2
			c-0.1,2.6-0.1,5.5,1.4,7.7c0.2,0.3,0.7,0,0.5-0.3c-1.4-2-1.4-4.5-1.4-6.9c0.1-2.6,0.2-5.2,0.7-7.7c1-5,3.2-9.7,6.9-13.1
			c1.9-1.8,4.1-3.2,6.6-4.1C39.3,8.9,39.2,8.5,38.9,8.6"/>
		<path class="st1" d="M63.2,19.4c2.7,3.6,4.1,7.9,5.5,12.1c0.1-0.1,0.3-0.1,0.4-0.2c-1-1.8-2.2-3.6-3.8-4.9
			c-0.2-0.2-0.6,0.1-0.3,0.3c1.4,1.5,2.7,3,3.7,4.8c0.1,0.2,0.5,0.1,0.4-0.2c-1.3-4.2-2.6-8.9-5.6-12.3C63.4,19,63.1,19.2,63.2,19.4
			"/>
	</g>
	<text transform="matrix(0.9629 -0.2699 0.2699 0.9629 6.5904 64.09)" class="st6 st7 st8">!</text>
</g>
</svg>
