<?xml version="1.0" encoding="utf-8"?>
<!-- Generator: Adobe Illustrator 23.0.5, SVG Export Plug-In . SVG Version: 6.00 Build 0)  -->
<svg version="1.1" id="圖層_2" xmlns="http://www.w3.org/2000/svg" xmlns:xlink="http://www.w3.org/1999/xlink" x="0px" y="0px"
	 viewBox="0 0 68.2 73.1" style="enable-background:new 0 0 68.2 73.1;" xml:space="preserve">
<style type="text/css">
	.st0{clip-path:url(#SVGID_2_);fill:#734A3C;}
	.st1{clip-path:url(#SVGID_2_);fill:#64404D;}
	.st2{clip-path:url(#SVGID_2_);fill:#FCF2D5;}
	.st3{clip-path:url(#SVGID_2_);fill:#CC7D49;}
	.st4{clip-path:url(#SVGID_2_);fill:#F8C39F;}
	.st5{clip-path:url(#SVGID_2_);}
	.st6{clip-path:url(#SVGID_4_);fill:#FBD8C1;}
	.st7{clip-path:url(#SVGID_6_);fill:#FBD8C1;}
	.st8{clip-path:url(#SVGID_8_);fill:#FBD8C1;}
	.st9{clip-path:url(#SVGID_2_);fill:#B9AEA3;}
	.st10{clip-path:url(#SVGID_2_);fill:#9E9C93;}
	.st11{clip-path:url(#SVGID_2_);fill:#835566;}
	.st12{clip-path:url(#SVGID_2_);fill:#B53950;}
	.st13{clip-path:url(#SVGID_2_);fill:#685A4D;}
	.st14{clip-path:url(#SVGID_2_);fill:#040000;}
	.st15{fill:#FFFFFF;}
	.st16{fill:none;stroke:#EE7E72;stroke-miterlimit:10;}
</style>
<g>
	<defs>
		<path id="SVGID_1_" d="M68.2,33.4c0,21.9-13.3,38.9-34.9,39.7C14.1,73.8-1.6,55.3-1.6,33.4S-3-6.3,33.3-6.3
			C52.6-6.3,68.2,11.5,68.2,33.4z"/>
	</defs>
	<clipPath id="SVGID_2_">
		<use xlink:href="#SVGID_1_"  style="overflow:visible;"/>
	</clipPath>
	<path class="st0" d="M51.9,11.3c2.4,3.1,6.4,3.2,9.2,5.9c2.1,2.2,2.6,6,0.9,8.4c7,2.5,6.9,14.5-1.2,15.8c-0.6,2.4-2.1,4.6-4.4,5.5
		c-3.3,1.3-7-0.5-8.2-3.9L51.9,11.3"/>
	<path class="st0" d="M12.6,45.6c1.3,4.8,7.8,7.4,7.8,6.2c0-1.2-2.4-7.6-2.4-7.6L12.6,45.6"/>
	<path class="st0" d="M52,45.6c-1.3,4.8-7.8,7.4-7.8,6.2c0-1.2,2.4-7.6,2.4-7.6l2.8-3.4L52,45.6"/>
	<path class="st0" d="M16.5,38.8c0,3.5-2.8,6.3-6.3,6.3c-3.5,0-6.3-2.8-6.3-6.3c0-3.5,2.8-6.3,6.3-6.3
		C13.6,32.4,16.5,35.3,16.5,38.8"/>
	<path class="st0" d="M8.8,19.5C8,22.2,1.7,24.8,1,29.1c-0.8,4.3,1.3,9.1,8.6,8.5c7.3-0.6,8.4-6.6,8.4-6.6L8.8,19.5"/>
	<path class="st0" d="M55.6,21.3C54,12.7,48.2,0.9,32,0.9c-16.2,0-22,11.7-23.6,20.4C6.8,29.9,9,37.5,9,37.5S8.9,37.7,8.8,38
		L55,37.5C55,37.5,57.1,29.9,55.6,21.3"/>
	<path class="st1" d="M31.8,117.1c-15.7,0-17.4-2-17.5-2.1l0.4-0.3c0.1,0.1,1.9,1.9,17.1,1.9c15.2,0,17-1.8,17.1-1.9l0.4,0.3
		C49.2,115.1,47.5,117.1,31.8,117.1"/>
	<path class="st2" d="M38.4,62c-0.4-0.7-2.5-1.9-6.4-1.9c-3.9,0-6,1.2-6.4,1.9c-0.4,0.7-0.8,2.4-0.5,4c0,0,3.2,6.6,6.9,9.9
		c3.8-3.2,6.9-9.9,6.9-9.9C39.3,64.4,38.8,62.8,38.4,62"/>
	<polyline class="st3" points="35.9,61.1 32,64.3 28.1,61.1 28.1,53.7 35.9,53.7 35.9,61.1 	"/>
	<path class="st4" d="M27.7,57.3v3.8l4.2,3.2l4.3-3.2v-4.6C33.4,56.9,30.6,57.1,27.7,57.3"/>
	<path class="st3" d="M36.3,56.2h-8.5v3.6c2.8-0.2,5.7-0.5,8.5-0.7V56.2"/>
	<g class="st5">
		<defs>
			<path id="SVGID_3_" d="M52,23.5c-0.6,5.3-2.8,21.2-5.8,26.4C45,52,38.5,57.8,32,57.8c-6.5,0-13-5.8-14.2-7.9
				c-2.9-5.2-5.2-21.1-5.8-26.4c-0.7-6.6,9.5-19.3,19.8-19.3C42.2,4.1,52.7,16.8,52,23.5"/>
		</defs>
		<clipPath id="SVGID_4_">
			<use xlink:href="#SVGID_3_"  style="overflow:visible;"/>
		</clipPath>
		<rect x="11.3" y="4.1" class="st6" width="41.4" height="53.7"/>
	</g>
	<g class="st5">
		<defs>
			<path id="SVGID_5_" d="M15,38.5c-2.7-6.3-6.7-7.3-8.5-5.6c-1.8,1.7,0.1,9.4,3.1,12.7c3.1,3.3,6.4,2.4,6.6-1.5L15,38.5"/>
		</defs>
		<clipPath id="SVGID_6_">
			<use xlink:href="#SVGID_5_"  style="overflow:visible;"/>
		</clipPath>
		<rect x="4.6" y="31.2" class="st7" width="11.6" height="17.7"/>
	</g>
	<path class="st3" d="M10.6,36.4c-2.8,0.3-0.5,8.1,3.3,8.3C17,44.8,13.3,36,10.6,36.4"/>
	<path class="st4" d="M11.1,39.2c-2,0.2-0.3,5.9,2.4,6C15.8,45.3,13.1,39,11.1,39.2"/>
	<g class="st5">
		<defs>
			<path id="SVGID_7_" d="M49.4,38.5c2.7-6.3,6.7-7.3,8.5-5.6c1.8,1.7-0.1,9.4-3.1,12.7c-3.1,3.3-6.4,2.4-6.6-1.5L49.4,38.5"/>
		</defs>
		<use xlink:href="#SVGID_7_"  style="overflow:visible;fill:#FBD8C1;"/>
		<clipPath id="SVGID_8_">
			<use xlink:href="#SVGID_7_"  style="overflow:visible;"/>
		</clipPath>
		<rect x="48.2" y="31.2" class="st8" width="11.6" height="17.7"/>
	</g>
	<path class="st3" d="M53.8,36.4c2.8,0.3,0.5,8.1-3.3,8.3C47.4,44.8,51.1,36,53.8,36.4"/>
	<path class="st4" d="M52.9,39.2c2,0.2,0.3,5.9-2.4,6C48.3,45.3,51,39,52.9,39.2"/>
	<path class="st0" d="M22.5,4.3c2.5,5.5,27,20.3,32.5,22c0,0,0.9-14.2-10.1-21C31.1-3.4,22.5,4.3,22.5,4.3"/>
	<path class="st0" d="M25.7,6.8c-4,10.6-14,20-14.2,19.9c-0.2-0.1-1.5-8,3-14.3c4.5-6.3,9.1-7.5,9.1-7.5L25.7,6.8"/>
	<path class="st0" d="M15.3,21.5c-0.2,5-0.7,8.9-2,12.4L11,26.4L15.3,21.5"/>
	<path class="st0" d="M48.6,21.5c-0.6,4.4,0.8,10.4,2,12.4l2.3-7.4L48.6,21.5"/>
	<path class="st3" d="M31.8,40c0-0.4-2.3,2.7-2.3,3c0.1,0.3,1.6,1.5,2.1,1.5c0.5,0,1.5-0.7,1.3-0.7c-0.2,0-1.3-0.7-1.5-1
		C31.4,42.6,31.9,40.5,31.8,40"/>
	<path class="st9" d="M22.4,7.1c-2.3,6-6.1,11.2-10.6,15.7c-0.2,0.2,0.1,0.6,0.4,0.4c2.5-2.4,3.5-6,4.7-9.2c0.1-0.2-0.2-0.3-0.3-0.1
		c-1.5,2.5-3.6,4.3-5.8,6.2c-0.1,0.1,0,0.3,0.2,0.2c2.4-1.5,4.4-3.9,5.9-6.3c-0.1,0-0.2-0.1-0.3-0.1c-0.6,1.6-1.2,3.1-1.9,4.7
		c-0.7,1.5-1.5,3.3-2.9,4.2c0.1,0.1,0.2,0.3,0.3,0.4c2.4-2.1,4.4-4.7,6.1-7.3c1.8-2.7,3.3-5.6,4.3-8.7C22.6,7,22.4,7,22.4,7.1"/>
	<path class="st0" d="M48.1,11.9c-3.7-2.1-7.9-3.6-12-4.7c-1.9-0.5-3.8-1-5.7-1.4c-1.7-0.4-4.2,0.2-5.9,0.7
		c-1.1,0.4,1.2,2.3,1.9,3.1c1.5,1.6,2.6,3.6,4.2,5.2c2.7,2.8,5.7,4.6,9.7,4.1c2.5,4.2,7.7,10,13.3,8.3c3.1-0.9,2.3-5.2,1.5-7.6
		C54,16,51.4,13.9,48.1,11.9"/>
	<path class="st9" d="M53.3,24.4c-5,1.4-9.5-3.9-11.4-7.9c0-0.1-0.2-0.1-0.3-0.1c-4,1.3-7.4-0.8-9.5-4.1c-1.3-1.9-2.8-5.3-5.3-5.7
		c-0.2,0-0.3,0.3-0.1,0.4c2.7,0.7,4,4.1,5.4,6.2c1.6,2.4,4.3,4.1,7.2,4.1c0.7,0,1.4-0.2,2.1-0.3c0.3-0.1,1.1,1.6,1.3,1.9
		c0.9,1.3,1.9,2.5,3.1,3.5c2,1.8,4.8,3.1,7.5,2.2C53.5,24.5,53.4,24.3,53.3,24.4"/>
	<path class="st10" d="M24.9,65.7c0.2,1.4,2.2,3.2,3.7,2.8c1.6-0.5,2.9-2.7,3.5-4.1c0.1-0.1-0.1-0.2-0.2-0.1
		c-0.8,1.1-1.6,2.3-2.7,3.2C27.5,68.9,26.1,66.8,24.9,65.7C24.9,65.7,24.9,65.7,24.9,65.7"/>
	<path class="st10" d="M39,65.7c-1.1,1-2.4,3-4,2c-1.3-0.8-2.1-2.2-3-3.4c-0.1-0.1-0.2,0-0.2,0.1c0.6,1.4,1.8,3.4,3.3,4
		C36.7,69,38.8,67.2,39,65.7C39.1,65.7,39,65.7,39,65.7"/>
	<path class="st1" d="M20.1,109.5c8-1.9,15.7-6.5,22-11.7c0.1-0.1,0-0.4-0.2-0.2c-6.7,4.9-13.8,9.4-21.9,11.7
		C19.9,109.3,20,109.6,20.1,109.5"/>
	<path class="st11" d="M53.7,91.9c-1.8-0.1-3.4,0.1-3.1,0.9c0.3,0.8,1.5,2.3,1.5,2.3l2.8-2.4L53.7,91.9"/>
	<path class="st11" d="M9.1,92.2c1.8-0.1,3.4,0.1,3.1,0.9c-0.3,0.8-1.5,2.3-1.5,2.3L7.9,93L9.1,92.2"/>
	<path class="st1" d="M44,108.9c0,0,1.6-1,2.2-1.4c0.6-0.4,1.3-2.5,0.4-4.6c-0.9-2.1-2.8-2.5-3.2-2.2c-0.5,0.3-1.5,0.9-1.5,0.9
		L44,108.9"/>
	<path class="st3" d="M25.2,104.4c-2.1-0.2-2.9,1-2.1,2.1c-0.6,0.1-1.3,0.3-1.4,1c-0.2,0.9,0.9,1.6,1.6,2c0,0,0,0,0.1,0
		c-1.6,0.8-0.3,2.2,1.2,2.9c-1.4,1.7,3.7,3.1,6.5,3c3.8-0.1,9.2-1.4,12-4.2c1.1-1.1,1.8-2.2,1.8-3.7c0-1.5-0.1-2-1-3.5
		c-1.7-3.1-5.1-3.2-8-4.8c-1.3-0.7-2.5-1.4-4-1.2c-1,0.2-3.4,0.5-3.6,1.7c-0.3,2,2.4,1.8,4,1.3c0.7,0.4,1.4,0.9,1.9,1.6
		c-1.4,0.9-3.2,1.9-4.9,2.2C27.6,104.9,26.7,104.6,25.2,104.4"/>
	<path class="st1" d="M18.7,108.2c0,0-1.6-1-2.2-1.4c-0.6-0.4-1.3-2.5-0.4-4.6c0.9-2.1,2.8-2.5,3.2-2.2c0.5,0.3,1.5,0.9,1.5,0.9
		L18.7,108.2"/>
	<path class="st4" d="M37.5,101.5c2-0.4,2.9,0.6,2.3,1.7c0.6,0,1.3,0.2,1.5,0.7c0.3,0.8-0.7,1.6-1.3,2.1c0,0,0,0-0.1,0
		c1.6,0.6,0.6,2.1-0.8,2.9c1.6,1.5-3.3,3.5-6,3.8c-3.8,0.4-9.5-0.2-12.5-2.7c-1.2-1-2.1-1.9-2.2-3.5c-0.1-1.4-0.1-2,0.6-3.6
		c1.4-3.2,4.8-3.6,7.5-5.5c1.2-0.8,2.3-1.6,3.8-1.5c1,0,3.3,0.1,3.7,1.2c0.6,1.9-2.1,1.9-3.8,1.7c-0.7,0.4-1.3,1.1-1.7,1.7
		c1.5,0.7,3.4,1.5,5.1,1.5C35.2,102.2,36,101.8,37.5,101.5"/>
	<path class="st3" d="M39.8,102.9c-1.4,2.8-5.8,2.1-8.4,2.2c-0.1,0-0.2,0.2,0,0.2c2.6,0.4,7.6,0.7,9-2.1
		C40.5,102.8,40,102.5,39.8,102.9"/>
	<path class="st3" d="M40,105.8c-2.4,2-5.9,1.9-8.9,1.7c-0.1,0-0.1,0.1,0,0.2c2.9,0.7,6.9,0.5,9.3-1.4C40.8,106,40.3,105.5,40,105.8
		"/>
	<path class="st3" d="M39.2,108.8c-2.7,1.5-5.6,1.5-8.5,0.8c-0.1,0-0.2,0.1-0.1,0.2c1.3,0.7,3.1,0.7,4.5,0.6
		c1.5-0.1,3.1-0.4,4.4-1.1C39.9,109.2,39.6,108.6,39.2,108.8"/>
	<path class="st1" d="M59.4,93c-1.2,0.4-2.5,0.2-3.7,0.2c-0.9-0.1-1.8-0.1-2.7-0.4c-0.3-0.1-0.6,0.4-0.3,0.6
		c1.2,1.3,3.9,2.4,5.6,2.2c0.2,0,0.4-0.3,0.1-0.5c-1.8-0.8-3.7-1.1-5.3-2.3c-0.1,0.2-0.1,0.5-0.2,0.7c2.1-0.2,4.4,0.6,6.5-0.2
		C59.6,93.2,59.5,93,59.4,93"/>
	<path class="st1" d="M3.6,93.5c1.9,1,4.1,0.4,6.2,0.4c-0.1-0.2-0.1-0.3-0.2-0.5c-1,0.9-2,1.4-3.2,1.8c-0.3,0.1-0.3,0.7,0.1,0.6
		c1.4-0.1,2.8-0.9,3.5-2.1c0.1-0.2,0-0.4-0.2-0.4c-2.1,0.1-4.1,0.5-6.1,0C3.6,93.3,3.5,93.4,3.6,93.5"/>
	<path class="st12" d="M28.7,51.4c-0.1,0-0.1,0-0.2-0.1c-0.2-0.1-0.3-0.4-0.1-0.6c0.7-1.3,3.2-2.9,4.4-3c1.3-0.2,3.6,1.4,4.2,2.5
		c0.1,0.2,0.1,0.5-0.1,0.6c-0.2,0.1-0.4,0.1-0.5-0.1c-0.5-0.8-2.4-2.2-3.4-2.1c-1,0.2-3.3,1.6-3.9,2.6
		C28.9,51.3,28.8,51.4,28.7,51.4"/>
	<path class="st13" d="M21.6,27.1c1.4,1.3,6.3-0.6,6.2-2.6c0-0.2-0.2-0.4-0.4-0.3c-0.4,0.1-0.5,0.3-0.8,0.6c-0.5,0.5-1,0.8-1.6,1.2
		c-0.7,0.4-1.4,0.6-2.1,0.7c-0.4,0.1-0.8,0-1.2,0.2C21.5,26.9,21.5,27,21.6,27.1"/>
	<path class="st13" d="M36.3,24c-0.4,1.1,1.2,2.2,2,2.6c1.1,0.5,2.7,0.7,3.8,0.2c0.2-0.1,0.1-0.4-0.1-0.4c-1.2-0.1-2.1-0.2-3.2-0.8
		c-0.5-0.2-0.9-0.5-1.2-0.9c-0.3-0.3-0.5-0.7-0.9-0.9C36.6,23.7,36.4,23.8,36.3,24"/>
	<path class="st14" d="M43.5,35.5c-1.8,0-4.4,0.2-5.8,1.5c-0.1-0.3-0.2-0.5-0.3-0.8c1.8-0.1,3.7,0.2,5.4,0.9c0.5,0.2,0.1,1-0.4,0.8
		c-1.5-0.6-3.3-0.9-4.9-0.8c-0.4,0-0.6-0.5-0.3-0.8c1.6-1.5,4.4-1.8,6.5-1.8C44.1,34.5,44.1,35.5,43.5,35.5"/>
	<path class="st14" d="M21,35.5c1.8,0,4.4,0.2,5.8,1.5c0.1-0.3,0.2-0.5,0.3-0.8c-1.8-0.1-3.7,0.2-5.4,0.9c-0.5,0.2-0.1,1,0.4,0.8
		c1.5-0.6,3.3-0.9,4.9-0.8c0.4,0,0.6-0.5,0.3-0.8c-1.6-1.5-4.4-1.8-6.5-1.8C20.5,34.5,20.4,35.5,21,35.5"/>
</g>
<g>
	<path class="st15" d="M21.5,19.5c-0.9,0.1-2.1,2.1-2.3,2.8c-0.1,0.7-0.1,1.3,0.7,1.5s1.5-0.3,1.7-0.8
		C21.9,22.5,21.1,20.9,21.5,19.5z"/>
	<path class="st15" d="M21.2,26.1c-0.6,0.1-1.3,1.3-1.4,1.7c-0.1,0.4-0.1,0.8,0.4,0.9c0.5,0.2,0.9-0.2,1-0.5
		C21.4,27.9,21,26.9,21.2,26.1z"/>
	<path class="st15" d="M17.5,25.3c-0.6,0.1-1.3,1.3-1.4,1.7s-0.1,0.8,0.4,0.9s0.9-0.2,1-0.5C17.7,27.1,17.3,26.2,17.5,25.3z"/>
	<path class="st15" d="M17.5,30.8c-0.4,0.1-0.9,0.9-1,1.2c-0.1,0.3,0,0.5,0.3,0.7c0.3,0.1,0.7-0.1,0.7-0.4
		C17.7,32.1,17.3,31.4,17.5,30.8z"/>
	<path class="st15" d="M17.3,35.3c-0.9,0.1-2.1,2.1-2.3,2.8c-0.1,0.7-0.1,1.3,0.7,1.5c0.8,0.3,1.5-0.3,1.7-0.8
		C17.6,38.2,16.9,36.7,17.3,35.3z"/>
</g>
<path class="st16" d="M19.1,43.1c-0.4,1.6-1,3.1-1.8,4.6"/>
<path class="st16" d="M21.2,43.9c-0.2,1.5-0.8,2.9-1.7,4.1"/>
<path class="st16" d="M23.3,45c-0.2,1.3-0.5,2.6-0.9,3.9"/>
<path class="st16" d="M26.9,45.2c-0.2,1.1-0.7,2.1-1.2,3.1"/>
<path class="st16" d="M38.2,45.1c0.1,0.7,0.9,2.1,1.3,2.6"/>
<path class="st16" d="M40.6,44.6c0.5,0.4,1.1,1.9,1.4,2.4"/>
<path class="st16" d="M43.3,43.4c0.5,0.6,1.1,2.3,1.6,3"/>
<path class="st16" d="M45.3,42.5c0.3,0.2,0.4,0.6,0.5,0.9c0.2,0.5,0.5,2.1,0.7,2.6"/>
</svg>
