<?xml version="1.0" encoding="utf-8"?>
<!-- Generator: Adobe Illustrator 23.0.5, SVG Export Plug-In . SVG Version: 6.00 Build 0)  -->
<svg version="1.1" id="圖層_1" xmlns="http://www.w3.org/2000/svg" xmlns:xlink="http://www.w3.org/1999/xlink" x="0px" y="0px"
	 viewBox="0 0 82.5 69.1" style="enable-background:new 0 0 82.5 69.1;" xml:space="preserve">
<style type="text/css">
	.st0{stroke:#FFFFFF;stroke-miterlimit:10;}
	.st1{fill:#4FAA34;}
	.st2{fill:#3D8539;}
	.st3{fill:#B8DBA7;}
</style>
<path class="st0" d="M-37.1,12"/>
<g>
	<g>
		<path class="st1" d="M12.2,65.8c0,0,38.2-9.1,55.8-39.6c0,0-17,22.5-41.5,31.7c0,0-4.9-20.9,7-28.8c11.9-8,42.6-10.5,49-29.1
			c0,0,3.8,69.1-53.8,62.4c0,0-11.6,5.6-16.5,6.8C12.1,69.1,9.3,67.4,12.2,65.8z"/>
		<g>
			<path class="st2" d="M12.1,69.1c3.7-0.8,11-4.1,14.5-5.8c-1.8-0.1-3.6-0.2-5.5-0.4c-5.4,2-8.9,2.9-8.9,2.9
				C9.3,67.4,12.1,69.1,12.1,69.1z"/>
			<path class="st2" d="M39.3,62.7c11.2-0.6,19.5-4.6,25.7-10.3C59.1,57,50.8,61.2,39.3,62.7z"/>
		</g>
		<path class="st3" d="M59.2,22.1c0,0-7.8,4.9-18.3,6.8"/>
	</g>
	<g>
		<path class="st1" d="M13.8,50.5c0,0,4.3-18.9-5.3-33.3c0,0,6.2,12.4,5,25.3c0,0-10.3-2.4-11.2-9.4C1.2,26.1,6.8,12,0,5.1
			c0,0,31.4,13.4,15.8,37.4c0,0,0,6.3-0.6,8.8C15.2,51.3,13.9,52.1,13.8,50.5z"/>
		<g>
			<path class="st2" d="M15.2,51.3c0.4-1.8,0.6-5.8,0.6-7.7c-0.4,0.8-0.9,1.6-1.4,2.3c-0.3,2.8-0.7,4.6-0.7,4.6
				C13.9,52.1,15.2,51.3,15.2,51.3z"/>
			<path class="st2" d="M18.3,37.9c2.2-5.1,2.2-9.6,1.1-13.6C20.1,27.8,20.1,32.4,18.3,37.9z"/>
		</g>
		<path class="st3" d="M4.7,20.2c0,0,0.4,4.5-1,9.6"/>
	</g>
</g>
</svg>
