<?xml version="1.0" encoding="utf-8"?>
<!-- Generator: Adobe Illustrator 23.0.5, SVG Export Plug-In . SVG Version: 6.00 Build 0)  -->
<svg version="1.1" id="圖層_1" xmlns="http://www.w3.org/2000/svg" xmlns:xlink="http://www.w3.org/1999/xlink" x="0px" y="0px"
	 viewBox="0 0 41.5 49.2" style="enable-background:new 0 0 41.5 49.2;" xml:space="preserve">
<style type="text/css">
	.st0{fill:#E9BC18;}
	.st1{fill:none;stroke:#FFFFFF;stroke-width:2.9118;stroke-linecap:round;stroke-linejoin:round;stroke-miterlimit:10;}
	.st2{fill:#C79F22;}
	.st3{opacity:0.61;fill:#FCEBC1;}
</style>
<path class="st0" d="M20.4,49.2c-3.4-1.4-6.5-3.2-9.2-5.6C5.7,38.8,2.2,32.9,0.7,25.8C0.2,23.5,0,21.2,0,18.9c0-3,0-6,0-8.9
	c0-1.1,0.4-1.7,1.4-2.1c6.1-2.5,12.3-5.1,18.4-7.6c0.7-0.3,1.3-0.3,1.9,0C27.8,2.8,34,5.3,40.1,7.8c1,0.4,1.4,1.1,1.4,2.1
	c0,3,0,6.1,0,9.1c0,13.2-7.7,24.7-19.8,29.8c-0.2,0.1-0.4,0.2-0.6,0.2C20.9,49.2,20.6,49.2,20.4,49.2z"/>
<g>
	<circle class="st1" cx="21" cy="18.2" r="6.8"/>
	<line class="st1" x1="13.8" y1="31.4" x2="28.2" y2="31.4"/>
	<line class="st1" x1="21" y1="25.6" x2="21" y2="40"/>
</g>
<path class="st2" d="M41.1,20c0,0-2,20.9-23.3,27.8l0,0.2c0.8,0.4,1.7,0.8,2.6,1.2c0.3,0,0.5,0,0.8,0c0.2-0.1,0.4-0.2,0.6-0.2
	c11.8-5,19.4-16.1,19.8-28.9H41.1z"/>
<path class="st3" d="M4.5,8.5c0,0-3.3,0.2-2.7,3.9"/>
</svg>
