<?xml version="1.0" encoding="utf-8"?>
<!-- Generator: Adobe Illustrator 23.0.5, SVG Export Plug-In . SVG Version: 6.00 Build 0)  -->
<svg version="1.1" id="圖層_1" xmlns="http://www.w3.org/2000/svg" xmlns:xlink="http://www.w3.org/1999/xlink" x="0px" y="0px"
	 viewBox="0 0 512 345" style="enable-background:new 0 0 512 345;" xml:space="preserve">
<style type="text/css">
	.st0{fill:#FF8D9B;}
	.st1{fill:#FFC3C0;}
	.st2{fill:#FFB3C0;}
</style>
<path class="st0" d="M445.5,226.1c18.1-21.3,20.3-51.9,5.5-75.6c4.8-11.6,4.1-24.8-2-35.9s-16.8-18.7-29.2-21
	c-7.2-42.4-43.8-73.5-86.8-73.8c-1.5,0-2.8,0.2-4.3,0.2c-6.6-11-17.9-18.3-30.6-19.9c-12.7-1.5-25.4,2.9-34.4,12.1
	C252,4.3,238.1,0,223.9,0c-22.6,0.1-43.9,10.9-57.3,29c-15.3-4.9-32-2.4-45.1,6.8s-21.2,24.1-21.8,40.1C83.6,82.2,73,97.6,73,114.7
	c0,3.1,0.4,6.2,1.2,9.2c-9.4,13.9-14.4,30.4-14.4,47.2c0,46.8,37.9,84.8,84.7,84.9c7.3,0,14.5-0.9,21.5-2.8
	c9.1,18.5,26.6,31.6,47,35.1c20.4,3.5,41.2-3,56-17.4c8,2.6,16.2,4.2,24.6,4.7c4.7,19.5,19.1,31.2,50.2,41.7
	c8.8,2.8,16.7,7.9,22.7,14.9c6,7.1,14.8,11.3,24.1,11.4c4.1,0,8.1-0.8,11.8-2.4c11.3-4.8,18.6-15.9,18.7-28.2c0-3.2-0.5-6.4-1.5-9.4
	c-2.5-8-6-15.8-10.2-23C427.8,267.7,440.9,248.2,445.5,226.1L445.5,226.1z"/>
<path class="st1" d="M371.3,277.7c-4.4,0.7-7.5,4.7-7.1,9.1s4,7.8,8.5,7.9c0.5,0,0.9,0,1.4-0.1c7-1.1,13.8-3.1,20.3-5.9
	c3.7,6.3,6.7,13.1,8.9,20.1c0.4,1.3,0.7,2.7,0.7,4.1c0,5.5-3.3,10.4-8.3,12.5c-5.8,2.3-12.3,0.5-16.2-4.3
	c-8-9.4-18.5-16.4-30.3-20.1c-24.9-8.3-34.3-15.9-38-25.9c6.3-0.6,12.6-1.9,18.7-3.7c2.9-0.9,5.1-3.3,5.8-6.2c0.7-3-0.3-6.1-2.5-8.2
	c-2.2-2.1-5.4-2.8-8.3-1.9c-6.1,1.9-12.5,3-18.9,3.5c-12.4,1-24.8-0.9-36.3-5.5c-3.4-1.1-7.1-0.2-9.6,2.4
	c-11.1,13-28.4,19-45.2,15.8c-16.8-3.3-30.6-15.3-36.1-31.5c-4.6-13.3-3.1-28,4.2-40.1c2.4-4,1.1-9.3-2.9-11.7s-9.3-1.1-11.7,2.9
	c-2.8,4.7-4.9,9.7-6.5,14.9c-4.9,0.1-9.6-1.7-13.1-5.1c-3.5-3.4-5.6-8-5.7-12.9v-0.3c0-2.2-0.9-4.4-2.5-6s-3.8-2.5-6-2.4
	c-4.7,0.1-8.5,3.9-8.5,8.7c0,18.6,14.6,34,33.2,34.9c0,0.5-0.1,1.1-0.1,1.6c0,4.3,0.4,8.6,1.3,12.7c-25.4,6.2-52.1-2.7-68.6-23.1
	s-19.7-48.3-8.3-71.9c2.8,3.2,6.1,6,9.7,8.3c4,2.4,9.3,1.1,11.7-2.9c2.4-4,1.1-9.3-2.9-11.7c-9.5-5.7-14-17-11.1-27.7
	s12.6-18.1,23.7-18.1c7.7,0,15,3.7,19.6,9.9c2.8,3.8,8.2,4.6,11.9,1.7s4.6-8.2,1.7-11.9c-7.3-9.9-18.6-16-30.9-16.6
	c2.5-16.9,16.9-29.5,34-29.5c2.3,0,4.5,0.3,6.7,0.8c-1.2,2.9-2.2,5.9-3,9c-1.1,4.5,1.7,9.1,6.2,10.2c4.5,1.2,9.1-1.5,10.3-5.9
	c4.4-17.2,17-31.1,33.6-37.2s35.2-3.7,49.7,6.5c-1.9,4.7-2.8,9.8-2.9,14.8c0,4.7,3.8,8.5,8.5,8.5s8.5-3.8,8.5-8.5
	c-0.2-8.9,4.5-17.2,12.2-21.7c7.7-4.5,17.2-4.5,24.8,0s12.3,12.8,12.2,21.7c0,4.7,3.8,8.5,8.5,8.5s8.5-3.8,8.5-8.5
	c-0.1-1.6-0.2-3.1-0.5-4.7c33.2,0.9,61.5,24.6,68.1,57.2c-5.4,1.3-10.6,3.7-15.1,7c-3.8,2.8-4.5,8.2-1.7,11.9s8.2,4.5,11.9,1.7
	c9.3-6.9,22.2-6.4,31,1.3c8.7,7.7,10.9,20.4,5.2,30.6c-2.6,4.5-6.4,8.1-11.1,10.2c-4.3,2-6.1,7.1-4.1,11.4c2,4.3,7.1,6.1,11.4,4.1
	c3.5-1.7,6.8-3.9,9.8-6.5c7.3,17,4,36.7-8.4,50.4l-0.2,0.2c-14.6,15.8-37.8,20-57,10.5c-2.5-1.3-4.9-2.7-7.1-4.4
	c8.4-10.6,9.9-25.2,3.8-37.3c-2.1-4.2-7.2-5.9-11.4-3.8c-4.2,2.1-5.9,7.2-3.8,11.4c4,8,1.5,17.7-5.8,22.8c-4.3,2.9-9.6,3.8-14.6,2.5
	c-5-1.3-9.2-4.6-11.7-9.2c-2.1-4.2-7.2-5.9-11.4-3.8c-4.2,2.1-5.9,7.2-3.8,11.4c8.2,16.7,28.1,24,45.1,16.4c3.9,3.6,8.3,6.6,13,9.1
	c16.6,8.6,36.1,9.5,53.4,2.4C409.3,262.3,391.6,274.4,371.3,277.7L371.3,277.7z"/>
<path class="st0" d="M332.6,138.1c0.6-3-0.4-6.1-2.7-8.2c-2.3-2-5.6-2.7-8.5-1.6s-5,3.6-5.6,6.6c-3.2,16.8-15.6,30.3-32,34.9
	s-34-0.5-45.5-13.1c-3.2-3.2-8.4-3.3-11.8-0.3c-3.4,3-3.8,8.2-0.9,11.7c9.5,10.5,22.2,17.4,36.2,19.6c-6,10.6-17.3,17.1-29.5,17.1
	c-4.7,0-8.5,3.8-8.5,8.5s3.8,8.5,8.5,8.5c21.6,0.1,40.9-13.6,48.1-34C306.7,184.1,327.6,164.1,332.6,138.1L332.6,138.1z"/>
<path class="st0" d="M234.7,93.9c0-4.7-3.8-8.5-8.5-8.5c-25.9,0-46.9,21-46.9,46.9c0,4.7,3.8,8.5,8.5,8.5c4.7,0,8.5-3.8,8.5-8.5
	c0-16.5,13.4-29.9,29.9-29.9C230.8,102.4,234.7,98.6,234.7,93.9z"/>
<path class="st2" d="M19.6,28.1c-3.3,3.3-3.3,8.7,0,12.1l17.1,17.1c3.3,3.2,8.7,3.2,12-0.1c3.3-3.3,3.3-8.6,0.1-12L31.6,28.1
	C28.3,24.8,22.9,24.8,19.6,28.1z"/>
<path class="st2" d="M492.4,28.1c-3.3-3.3-8.7-3.3-12.1,0l-17.1,17.1c-2.2,2.1-3.1,5.3-2.3,8.3s3.1,5.3,6.1,6.1s6.2-0.1,8.3-2.3
	l17.1-17.1C495.8,36.8,495.8,31.4,492.4,28.1z"/>
<path class="st2" d="M36.6,232.9L19.6,250c-2.2,2.1-3.1,5.3-2.3,8.3c0.8,3,3.1,5.3,6.1,6.1c3,0.8,6.2-0.1,8.3-2.3L48.7,245
	c3.2-3.3,3.2-8.7-0.1-12S40,229.7,36.6,232.9L36.6,232.9z"/>
<path class="st2" d="M480.4,262c3.3,3.2,8.7,3.2,12-0.1s3.3-8.6,0.1-12l-17.1-17.1c-3.3-3.2-8.7-3.2-12,0.1c-3.3,3.3-3.3,8.6-0.1,12
	L480.4,262z"/>
<path class="st2" d="M0,145.1c0,4.7,3.8,8.5,8.5,8.5h17.1c4.7,0,8.5-3.8,8.5-8.5c0-4.7-3.8-8.5-8.5-8.5H8.5
	C3.8,136.5,0,140.4,0,145.1z"/>
<path class="st2" d="M503.5,136.5h-17.1c-4.7,0-8.5,3.8-8.5,8.5c0,4.7,3.8,8.5,8.5,8.5h17.1c4.7,0,8.5-3.8,8.5-8.5
	C512,140.4,508.2,136.5,503.5,136.5z"/>
</svg>
