<?xml version="1.0" encoding="utf-8"?>
<!-- Generator: Adobe Illustrator 23.0.5, SVG Export Plug-In . SVG Version: 6.00 Build 0)  -->
<svg version="1.1" id="圖層_1" xmlns="http://www.w3.org/2000/svg" xmlns:xlink="http://www.w3.org/1999/xlink" x="0px" y="0px"
	 viewBox="0 0 204 21" style="enable-background:new 0 0 204 21;" xml:space="preserve">
<style type="text/css">
	.st0{fill-rule:evenodd;clip-rule:evenodd;fill:#FFFFFF;}
	.st1{fill:#FFFFFF;}
</style>
<g>
	<path class="st0" d="M188.6,13.2c1.1-1.8,2.8-3.7,4.6-5.2c1.5-1.2,3.1-2,4.7-3c-1-0.9-2.3-1.4-3.7-1.4c-3.1,0-5.6,2.5-5.6,5.6V13.2
		z M199.3,4.1c1.3-0.9,2.1-1.4,2.9-2.7c0.8,0.8,1.2,1.2,1.2,1.2c-0.6,1.2-1.5,1.8-3,2.9c0.7,1.1,1,2.4,1,3.7c0,2.7-1.5,5-3.6,6.3
		c0.2,0.3,0.3,0.5,0.3,0.6c0.6,1.8-0.6,4.2-3.1,4.2c-2.2,0-3.6-2-3.2-3.9h-0.3h-4.5V9.1c0-4,3.2-7.2,7.2-7.2
		C196.1,1.9,197.9,2.8,199.3,4.1 M198.9,6.4c-1.5,1-3.1,1.8-4.6,3c-1.9,1.6-3.6,3.6-4.6,5.3h1.7h1.2l0.7-1.1l1.6-2.3
		c0,0,0.8,1,1.5,2.1l0.4,0.6c1.7-1,2.9-2.8,2.9-4.9C199.7,8.1,199.4,7.2,198.9,6.4 M194.9,18.6c1.4,0,1.9-1.5,1.6-2.2
		c-0.2-0.5-1.3-2-1.7-2.4c-0.5,0.8-1,1.5-1.5,2.3C192.9,17.1,193.6,18.6,194.9,18.6"/>
	<path class="st0" d="M131.6,7.9V6.4h7.3c0,0.3,0.1,0.4,0.1,0.6c0,1-0.3,1.4-3.1,4.5c-1.2,1.2-1.7,1.8-2.1,2.4
		c-0.3,0.4-0.4,0.6-0.6,0.9h5.8v1.5h-7.8c0-0.3,0-0.4,0-0.6c0-0.6,0.2-1.1,0.6-1.7c0.2-0.3,0.5-0.7,0.9-1.2l1.3-1.5
		c1.1-1.2,1.8-2,2.3-2.6c0.3-0.4,0.5-0.5,0.7-0.8H131.6z"/>
	<path class="st0" d="M142.9,10h5c-0.1-1.6-0.9-2.4-2.3-2.4C144.2,7.6,143.2,8.4,142.9,10 M149.8,11.4h-7.1v0.3c0,2,1.3,3.2,3.3,3.2
		c1.2,0,2.2-0.3,3.3-1.2v1.7c-1,0.7-2.1,1-3.5,1c-3.1,0-4.9-1.9-4.9-5c0-3.2,1.9-5.4,4.7-5.4c1.5,0,2.8,0.6,3.5,1.7
		c0.5,0.8,0.7,1.6,0.7,3.1V11.4z"/>
	<rect x="152.5" y="2.1" class="st0" width="1.9" height="14.1"/>
	<rect x="157.2" y="2.1" class="st0" width="1.9" height="14.1"/>
	<path class="st0" d="M163.8,10h5c-0.1-1.6-0.9-2.4-2.3-2.4C165.1,7.6,164.1,8.5,163.8,10 M170.7,11.4h-7.1v0.3c0,2,1.3,3.2,3.3,3.2
		c1.3,0,2.2-0.3,3.3-1.1v1.7c-1,0.7-2.1,1-3.5,1c-3.1,0-4.9-1.9-4.9-5c0-3.2,1.9-5.4,4.7-5.4c1.5,0,2.7,0.6,3.5,1.7
		c0.5,0.8,0.7,1.6,0.7,3.1V11.4z"/>
	<path class="st0" d="M173,16.2V6.9c1.2-0.5,2.6-0.8,3.9-0.8c0.7,0,1.2,0.1,1.7,0.3V8c-0.6-0.2-1.1-0.3-1.7-0.3
		c-0.7,0-1.4,0.1-2.1,0.4v8.1H173z"/>
	<path class="st1" d="M80.2,9l1.5,0l0,6.3c0,0-0.1,0.6,0.5,0.6l3.7,0c0,0,0.9,0,0.9,1.5l-5.1,0c0,0-1.5,0.2-1.5-1.9V9z"/>
	<path class="st1" d="M94.3,10.5l-5.3,0c-0.8,0-1.4,0.7-1.4,1.7l0,3.6c0,0.9,0.7,1.6,1.5,1.6l5.3,0c0.8,0,1.5-0.7,1.4-1.7l0-3.6
		C95.7,11.2,95.1,10.5,94.3,10.5 M94.2,15.6c0,0.2-0.1,0.3-0.2,0.3l-4.7,0c-0.1,0-0.2-0.1-0.2-0.3l0-3.3c0-0.2,0.1-0.3,0.2-0.3
		l4.7,0c0.1,0,0.2,0.1,0.3,0.3L94.2,15.6z"/>
	<path class="st1" d="M98.6,8.9l-1.5,0l0,6.8c0,0,0,1.6,1.5,1.5l1.8,0c0,0,0-1.5-1-1.5l-0.6,0c0,0-0.3,0-0.3-0.3l0-3.5l1.1,0l0-1.3
		l-1.1,0L98.6,8.9z"/>
	<path class="st1" d="M108.3,10.4l0,5.1c0,0.2-0.1,0.3-0.2,0.3l-4.7,0c-0.1,0-0.2-0.1-0.2-0.3l0-5.1l-1.5,0l0,5.2
		c0,0.9,0.7,1.6,1.5,1.6l5.3,0c0.8,0,1.5-0.7,1.5-1.7l0-5.2L108.3,10.4z"/>
	<path class="st1" d="M117.5,10.4l-4.9,0c0,0-1.6-0.2-1.6,1.7l0,1.1c0,0-0.1,1.3,1.8,1.3l3.9,0c0,0,0.4-0.1,0.4,0.3l0,0.7
		c0,0,0.1,0.4-0.4,0.4l-4.6,0c0,0-1.1-0.2-1.1,1.3l6.2,0c0,0,1.3,0.1,1.3-1.6l0-1.2c0,0-0.1-1.3-1.3-1.3l-4.3,0c0,0-0.3,0-0.3-0.3
		l0-0.6c0,0,0-0.3,0.4-0.3l3.7,0C116.6,11.8,117.5,11.8,117.5,10.4"/>
	<path class="st1" d="M11.9,9.8C7.9,9.1,3,7.1,2.7,5.8c-0.2-1.3,5.5-4.6,6.6-4c1.6,0.9-0.2,4.1-0.8,5.3c-0.1,0.1,0,0.3,0.1,0.3
		C9.8,7.7,11.4,7.9,12,8c0.1,0,0.2-0.1,0.2-0.2c0.2-5.3-1.1-7.6-3.4-7C6.3,1.4,2.1,3.5,1,6.6c-1.6,4.3,5,7.5,6.4,8.1
		c0.9,0.5,1.8,0.8,2.6,1.1c0.1,0,0.3,0,0.3-0.2l1.8-5.5C12.1,10,12.1,9.9,11.9,9.8"/>
	<path class="st1" d="M39.7,12.3l0,2.7c0,0.3-0.1,0.4-0.3,0.4l-4.1,0C35,15.4,35,15.3,35,15l0-2.7c0-0.3,0.1-0.4,0.3-0.4l4.1,0
		C39.6,11.9,39.7,11.9,39.7,12.3 M39.4,10.5l-4.2,0c-1.2,0-1.7,0.5-1.7,2l0,2.4c0,1.4,0.5,2,1.7,2l4.2,0c1.2,0,1.7-0.5,1.7-2l0-2.4
		C41.1,11,40.7,10.4,39.4,10.5"/>
	<path class="st1" d="M65.1,10.4l-4.6,0c-1,0-1.5,0.6-1.5,1.8l0,4.6l1.4,0l0-4.6c0-0.3,0-0.3,0.2-0.3l4.2,0c0.2,0,0.2,0,0.2,0.3
		l0,4.6l1.4,0l0-4.6C66.5,10.9,66.1,10.4,65.1,10.4"/>
	<path class="st1" d="M31.6,10.5l-1.4,4.3l0,0c-0.2,0.5-0.4,0.6-1.1,0.6c-0.7,0-1-0.1-1.1-0.6l-1.5-4.3l-1.6,0l1.6,4.6l0,0.1
		c0.4,1,1,1.5,2,1.6c0.2,0,0.4,0,0.6,0c0.2,0,0.4,0,0.6,0c1-0.1,1.7-0.7,2-1.7l1.5-4.6L31.6,10.5z"/>
	<path class="st1" d="M48.2,15c0,0.3-0.1,0.4-0.3,0.4l-4.1,0c-0.2,0-0.3-0.1-0.3-0.4l0-2.7c0-0.3,0.1-0.4,0.3-0.4l4.2,0
		c0.2,0,0.2,0,0.2,0.3L48.2,15z M48.1,10.4l-4.2,0c-1.1,0-1.8,0.3-1.8,2l0,2.3c0,1.3,0.6,2,1.8,2l4.3,0l0,0.6c0,0.7-0.1,0.8-0.6,0.8
		l-3.7,0c-0.8,0-1,1-1,1.3l0,0.1l4.7,0c1.4,0,1.9-0.7,1.9-2.4l0-5C49.6,11,49.1,10.5,48.1,10.4"/>
	<path class="st1" d="M56.7,12.7c0,0.3-0.1,0.4-0.3,0.4l-4.4,0l0-0.8c0-0.3,0.1-0.4,0.3-0.4l4.1,0c0.2,0,0.3,0.1,0.3,0.4L56.7,12.7z
		 M56.4,10.4l-4.1,0c-1.4,0-1.7,0.7-1.7,2l0,2.4c0,1.4,0.5,2,1.7,2l4.8,0v-0.1c0-0.4-0.2-1.3-1-1.3l-3.6,0c-0.4,0-0.5-0.1-0.5-0.5
		l0-0.7l4.6,0c1.3,0,1.5-0.5,1.5-1.8C58,11,57.8,10.4,56.4,10.4"/>
	<path class="st1" d="M15.3,13.4l0.6-1.7l0,0c0.2-0.6,0.5-0.7,1.4-0.7c0.9,0,1.2,0.1,1.4,0.7l0.6,1.7L15.3,13.4z M20.4,16.9l1.7,0
		l-1.9-5.6l0-0.1h0c-0.6-1.6-1.5-1.9-2.2-2c-0.3,0-0.5,0-0.7,0c-0.2,0-0.5,0-0.7,0c-0.7,0.1-1.7,0.4-2.2,2.1l-1.9,5.6l1.7,0l0.7-2.2
		l4.8,0L20.4,16.9z"/>
	<polygon class="st1" points="22.7,8.3 22.7,16.9 24,16.9 24.1,16.9 24.1,8.3 	"/>
	<line class="st1" x1="73.6" y1="9.3" x2="73.6" y2="17.6"/>
	<polygon class="st1" points="73.3,17.6 73.3,9.3 73.9,9.3 73.9,17.6 	"/>
</g>
</svg>
