<?xml version="1.0" encoding="utf-8"?>
<!-- Generator: Adobe Illustrator 23.0.5, SVG Export Plug-In . SVG Version: 6.00 Build 0)  -->
<svg version="1.1" id="圖層_1" xmlns="http://www.w3.org/2000/svg" xmlns:xlink="http://www.w3.org/1999/xlink" x="0px" y="0px"
	 viewBox="0 0 77 77" style="enable-background:new 0 0 77 77;" xml:space="preserve">
<style type="text/css">
	.st0{fill-rule:evenodd;clip-rule:evenodd;fill:#64B630;}
	.st1{fill:#144A8B;}
</style>
<circle class="st0" cx="38.5" cy="38.5" r="38.5"/>
<path class="st1" d="M53.1,44.9L46.3,42c-0.6-0.3-1.3-0.1-1.7,0.4l-3,3.7c-4.7-2.2-8.5-6-10.7-10.7l3.7-3c0.5-0.4,0.7-1.1,0.4-1.7
	l-2.9-6.8c-0.3-0.6-1-1-1.7-0.8l-6.3,1.5c-0.7,0.2-1.1,0.7-1.1,1.4C23,41.4,35.6,54,51.1,54c0.7,0,1.3-0.5,1.4-1.1l1.5-6.3
	C54.1,45.9,53.8,45.2,53.1,44.9L53.1,44.9z"/>
</svg>
