<?xml version="1.0" encoding="utf-8"?>
<!-- Generator: Adobe Illustrator 23.0.5, SVG Export Plug-In . SVG Version: 6.00 Build 0)  -->
<svg version="1.1" id="圖層_1" xmlns="http://www.w3.org/2000/svg" xmlns:xlink="http://www.w3.org/1999/xlink" x="0px" y="0px"
	 viewBox="0 0 31 31" style="enable-background:new 0 0 31 31;" xml:space="preserve">
<style type="text/css">
	.st0{fill:#144A8B;}
</style>
<path class="st0" d="M30.1,21.9L23.3,19c-0.6-0.3-1.3-0.1-1.7,0.4l-3,3.7c-4.7-2.2-8.5-6-10.7-10.7l3.7-3c0.5-0.4,0.7-1.1,0.4-1.7
	L9.1,0.9c-0.3-0.6-1-1-1.7-0.8L1.1,1.5C0.5,1.6,0,2.2,0,2.9C0,18.4,12.6,31,28.1,31c0.7,0,1.3-0.5,1.4-1.1l1.5-6.3
	C31.1,22.9,30.8,22.2,30.1,21.9L30.1,21.9z"/>
</svg>
