<?xml version="1.0" encoding="utf-8"?>
<!-- Generator: Adobe Illustrator 23.0.5, SVG Export Plug-In . SVG Version: 6.00 Build 0)  -->
<svg version="1.1" id="圖層_1" xmlns="http://www.w3.org/2000/svg" xmlns:xlink="http://www.w3.org/1999/xlink" x="0px" y="0px"
	 viewBox="0 0 40 40" style="enable-background:new 0 0 40 40;" xml:space="preserve">
<style type="text/css">
	.st0{clip-path:url(#SVGID_2_);}
	.st1{fill:#EF92AA;}
	.st2{fill:#231815;}
	.st3{fill:#FFFFFF;}
</style>
<g>
	<defs>
		<rect id="SVGID_1_" x="-0.1" y="-0.1" width="40" height="40"/>
	</defs>
	<clipPath id="SVGID_2_">
		<use xlink:href="#SVGID_1_"  style="overflow:visible;"/>
	</clipPath>
	<g class="st0">
		<g>
			<g>
				<path class="st1" d="M24.8,23.6c-0.8,0.8-1.6,1.6-2.6,2.1c-0.8,0.4-1.7,0.7-2.6,0.7c-1.1,0-2.1-0.5-2.9-1.3
					c-1.1-1-1.8-2.2-2.3-3.6c-0.8-2.1-1.2-4.2-0.9-6.4c0.4-3.9,3.9-7.2,7.7-7.2c2.3,0,4.1,1.1,5.4,2.9c2.6,3.5,1.7,8-0.7,11.3
					C25.6,22.7,25.2,23.2,24.8,23.6z"/>
				<path class="st2" d="M19.7,26.6C19.7,26.6,19.7,26.6,19.7,26.6c-1.2,0-2.1-0.5-3.1-1.3c-1-0.9-1.7-2.1-2.3-3.7
					c-0.9-2.2-1.2-4.3-1-6.5c0.4-4,4-7.3,7.8-7.3c0,0,0.1,0,0.1,0c2.3,0,4.1,1,5.6,3c2.4,3.2,2.1,7.7-0.7,11.5
					c-0.4,0.5-0.7,0.9-1.1,1.4c-0.9,1-1.8,1.7-2.6,2.1C21.5,26.4,20.6,26.6,19.7,26.6z M21.2,8.2c-3.7,0-7.1,3.2-7.5,7
					c-0.2,2.1,0.1,4.1,0.9,6.3c0.6,1.5,1.3,2.7,2.2,3.5c0.9,0.8,1.8,1.2,2.8,1.2c0,0,0.1,0,0.1,0c0.8,0,1.6-0.2,2.4-0.7
					c0.8-0.5,1.7-1.1,2.6-2.1l0,0c0.4-0.4,0.8-0.9,1.1-1.3c2.1-2.8,3.5-7.4,0.7-11.2C25.2,9.2,23.4,8.2,21.2,8.2
					C21.3,8.2,21.2,8.2,21.2,8.2z"/>
			</g>
			<path class="st3" d="M26.7,16.8c0.2-1.1,0-2.3-0.4-3.4c-0.3-0.8-0.7-1.5-1.3-2.1c-0.1-0.1-0.1-0.1-0.1-0.1
				c-0.1,0-0.2,0.1-0.2,0.2c0,0,0,0.1,0.1,0.3c0.9,1.1,1.5,2.3,1.6,3.7c0,0.4,0,0.8,0,1.2l0,0.4c0,0.1,0,0.2,0.1,0.2
				c0.1,0,0.2-0.1,0.2-0.2L26.7,16.8L26.7,16.8z"/>
			<path class="st3" d="M15.5,20.6c0.3,0.9,0.8,2.1,1.7,3.1c0.4,0.4,0.8,0.8,1.3,1.1c0.1,0,0.2-0.1,0.2-0.2c0,0,0-0.1-0.1-0.1
				c-0.5-0.3-1-0.7-1.5-1.4c-0.5-0.7-0.9-1.5-1.3-2.6c-0.1-0.1-0.1-0.2-0.2-0.2c0,0,0,0,0,0c0,0-0.1,0-0.1,0.1
				C15.5,20.5,15.5,20.5,15.5,20.6z"/>
			<g>
				<path class="st1" d="M17.1,26.8c0.1-0.3,0.2-0.5,0.3-0.7l1.6,0.5c0,0.2-0.1,0.5-0.2,0.8L17.1,26.8z"/>
				<path class="st2" d="M18.9,27.6l-2.1-0.7l0.5-1l1.8,0.6L18.9,27.6z M17.3,26.7l1.4,0.4l0.1-0.5l-1.3-0.4L17.3,26.7z"/>
			</g>
		</g>
		<path class="st2" d="M18.2,44.6C18.2,44.6,18.2,44.6,18.2,44.6c-0.1,0-0.2-0.1-0.2-0.2c0.1-0.8,0.4-1.6,0.7-2.4
			c0.2-0.6,0.4-1.2,0.6-1.8c0.4-1.7,0.1-3.2-0.8-4.4c-0.1-0.2-0.3-0.4-0.5-0.6c-0.3-0.4-0.7-0.9-0.9-1.3c-1.2-2.3-0.4-4.7,0.5-6.7
			c0-0.1,0.1-0.1,0.2-0.1c0.1,0,0.1,0.1,0.1,0.2c-0.9,2-1.7,4.3-0.6,6.4c0.3,0.5,0.6,0.9,0.9,1.3c0.2,0.2,0.3,0.4,0.5,0.6
			c1,1.3,1.2,2.9,0.8,4.7c-0.1,0.6-0.4,1.2-0.6,1.8c-0.3,0.8-0.6,1.5-0.7,2.3C18.3,44.5,18.3,44.6,18.2,44.6z"/>
	</g>
</g>
</svg>
