<?xml version="1.0" encoding="utf-8"?>
<!-- Generator: Adobe Illustrator 23.0.5, SVG Export Plug-In . SVG Version: 6.00 Build 0)  -->
<svg version="1.1" id="圖層_1" xmlns="http://www.w3.org/2000/svg" xmlns:xlink="http://www.w3.org/1999/xlink" x="0px" y="0px"
	 viewBox="0 0 19.9 22.1" style="enable-background:new 0 0 19.9 22.1;" xml:space="preserve">
<style type="text/css">
	.st0{fill:#EF92AA;stroke:#000000;stroke-width:0.25;stroke-miterlimit:10;}
	.st1{stroke:#000000;stroke-width:0.25;stroke-miterlimit:10;}
	.st2{opacity:0.5;}
	.st3{fill:#C65C7A;}
	.st4{fill:#FFFFFF;}
</style>
<g>
	<g>
		<g>
			<path class="st0" d="M1.7,19.8c0,1.1,0.8,2,1.8,2h12.7c1,0,1.8-0.9,1.8-2v-7.6c0-1.1-0.8-2-1.8-2H3.6c-1,0-1.8,0.9-1.8,2V19.8z"
				/>
		</g>
		<g>
			<path class="st1" d="M16.3,22H3.6c-1.1,0-2-1-2-2.2v-7.6c0-1.2,0.9-2.2,2-2.2h12.7c1.1,0,2,1,2,2.2v7.6C18.3,21,17.4,22,16.3,22z
				 M3.6,10.3c-0.9,0-1.7,0.8-1.7,1.8v7.6c0,1,0.8,1.8,1.7,1.8h12.7c0.9,0,1.7-0.8,1.7-1.8v-7.6c0-1-0.8-1.8-1.7-1.8H3.6z"/>
		</g>
	</g>
	<g class="st2">
		<path class="st3" d="M1.7,11.7h16.4v2.1H1.7V11.7z"/>
	</g>
	<g>
		<g>
			<path class="st0" d="M0.3,10.5c0,0.7,0.5,1.3,1.2,1.3h17c0.6,0,1.2-0.6,1.2-1.3V6.6c0-0.7-0.5-1.3-1.2-1.3h-17
				c-0.6,0-1.2,0.6-1.2,1.3V10.5z"/>
		</g>
		<g>
			<path class="st1" d="M18.4,11.9h-17c-0.7,0-1.3-0.6-1.3-1.4V6.6c0-0.8,0.6-1.4,1.3-1.4h17c0.7,0,1.3,0.6,1.3,1.4v3.8
				C19.7,11.2,19.1,11.9,18.4,11.9z M1.4,5.5c-0.6,0-1,0.5-1,1.1v3.8c0,0.6,0.4,1.1,1,1.1h17c0.6,0,1-0.5,1-1.1V6.6
				c0-0.6-0.4-1.1-1-1.1H1.4z"/>
		</g>
	</g>
	<g>
		<path class="st1" d="M15.6,5.5H9.1l4.6-4.6c1.1-1.1,2.8-1.1,3.8,0c0.5,0.5,0.8,1.2,0.8,1.9C18.3,4.3,17.1,5.5,15.6,5.5z M10.5,4.9
			h5.1c1.2,0,2.1-0.9,2.1-2.1c0-1.2-0.9-2.1-2.1-2.1c-0.6,0-1.1,0.2-1.5,0.6L10.5,4.9z"/>
	</g>
	<g>
		<path class="st1" d="M1.5,2.8c0-0.7,0.3-1.4,0.8-1.9c1.1-1.1,2.8-1.1,3.8,0l4.6,4.6H4.2C2.7,5.5,1.5,4.3,1.5,2.8z M5.7,1.3
			C5.3,0.9,4.7,0.7,4.2,0.7C3,0.7,2.1,1.7,2.1,2.8C2.1,4,3,4.9,4.2,4.9h5.1L5.7,1.3z"/>
	</g>
	<g>
		<path class="st1" d="M9.4,5.4h1v6.3h-1V5.4z"/>
	</g>
	<g>
		<path class="st1" d="M9.6,10.1h0.8v11.7H9.6V10.1z"/>
	</g>
	<g>
		<path class="st4" d="M1.5,10.7C1.5,10.7,1.5,10.7,1.5,10.7C1.1,10.6,1.1,10,1.1,9.9V6.7c0-0.1,0.1-0.2,0.2-0.2
			c0.1,0,0.2,0.1,0.2,0.2v3.1c0,0.2,0.1,0.5,0.1,0.5c0.1,0,0.1,0.1,0.1,0.2C1.6,10.7,1.6,10.7,1.5,10.7z"/>
	</g>
	<g>
		<path class="st4" d="M16.6,20.5c-0.1,0-0.1,0-0.2-0.1c0-0.1,0-0.2,0.1-0.2c0.1,0,0.1-0.3,0.1-0.5v-3.1c0-0.1,0.1-0.2,0.2-0.2
			c0.1,0,0.2,0.1,0.2,0.2v3.1C17,19.7,17,20.3,16.6,20.5C16.6,20.5,16.6,20.5,16.6,20.5z"/>
	</g>
</g>
</svg>
