<?xml version="1.0" encoding="utf-8"?>
<!-- Generator: Adobe Illustrator 23.0.5, SVG Export Plug-In . SVG Version: 6.00 Build 0)  -->
<svg version="1.1" id="Layer_1" xmlns="http://www.w3.org/2000/svg" xmlns:xlink="http://www.w3.org/1999/xlink" x="0px" y="0px"
	 viewBox="0 0 512 512" style="enable-background:new 0 0 512 512;" xml:space="preserve">
<style type="text/css">
	.st0{fill:#FBBB00;}
	.st1{fill:#518EF8;}
	.st2{fill:#28B446;}
	.st3{fill:#F14336;}
</style>
<g>
	<path class="st0" d="M127.7,304.1l-16,59.9l-58.6,1.2C35.5,332.7,25.6,295.5,25.6,256c0-38.2,9.3-74.2,25.8-106h0l52.2,9.6
		l22.9,51.9c-4.8,14-7.4,28.9-7.4,44.5C119,272.9,122.1,289.1,127.7,304.1z"/>
	<path class="st1" d="M482.4,213c2.6,13.9,4,28.3,4,43c0,16.5-1.7,32.6-5,48.1c-11.2,52.8-40.5,98.9-81.1,131.6l0,0l-65.7-3.4
		l-9.3-58.1c26.9-15.8,48-40.5,59.1-70.1H261.1V213h125H482.4L482.4,213z"/>
	<path class="st2" d="M400.2,435.7L400.2,435.7c-39.5,31.7-89.6,50.7-144.2,50.7c-87.7,0-164-49-202.9-121.2l74.7-61.1
		C147.2,356,197.3,393,256,393c25.2,0,48.9-6.8,69.2-18.7L400.2,435.7z"/>
	<path class="st3" d="M403.1,78.6l-74.6,61.1c-21-13.1-45.8-20.7-72.4-20.7c-60.1,0-111.1,38.7-129.6,92.5L51.4,150h0
		C89.7,76.1,167,25.6,256,25.6C311.9,25.6,363.2,45.5,403.1,78.6z"/>
</g>
</svg>
