<?xml version="1.0" encoding="utf-8"?>
<!-- Generator: Adobe Illustrator 23.0.5, SVG Export Plug-In . SVG Version: 6.00 Build 0)  -->
<svg version="1.1" id="Layer_1" xmlns="http://www.w3.org/2000/svg" xmlns:xlink="http://www.w3.org/1999/xlink" x="0px" y="0px"
	 viewBox="0 0 512 512" style="enable-background:new 0 0 512 512;" xml:space="preserve">
<style type="text/css">
	.st0{fill:#FFFFFF;}
</style>
<g>
	<path class="st0" d="M130.6,303l-15.7,58.5l-57.3,1.2C40.4,331,30.7,294.6,30.7,256c0-37.4,9.1-72.6,25.2-103.6h0l51,9.4l22.4,50.7
		c-4.7,13.6-7.2,28.3-7.2,43.5C122.1,272.5,125.1,288.4,130.6,303z"/>
	<path class="st0" d="M477.3,213.9c2.6,13.6,3.9,27.7,3.9,42.1c0,16.1-1.7,31.9-4.9,47c-11,51.6-39.6,96.7-79.3,128.6l0,0l-64.3-3.3
		l-9.1-56.8c26.3-15.4,46.9-39.6,57.8-68.6H261v-89.1h122.2H477.3L477.3,213.9z"/>
	<path class="st0" d="M397,431.7L397,431.7c-38.6,31-87.6,49.6-141,49.6c-85.8,0-160.4-48-198.4-118.5l73-59.8
		c19,50.8,68,86.9,125.4,86.9c24.7,0,47.8-6.7,67.6-18.3L397,431.7z"/>
	<path class="st0" d="M399.8,82.6l-73,59.7c-20.5-12.8-44.8-20.3-70.8-20.3c-58.7,0-108.6,37.8-126.7,90.4l-73.4-60.1h0
		C93.4,80.1,168.9,30.7,256,30.7C310.7,30.7,360.8,50.2,399.8,82.6z"/>
</g>
</svg>
