<?xml version="1.0" encoding="utf-8"?>
<!-- Generator: Adobe Illustrator 23.0.5, SVG Export Plug-In . SVG Version: 6.00 Build 0)  -->
<svg version="1.1" id="圖層_1" xmlns="http://www.w3.org/2000/svg" xmlns:xlink="http://www.w3.org/1999/xlink" x="0px" y="0px"
	 viewBox="0 0 298.5 163.2" style="enable-background:new 0 0 298.5 163.2;" xml:space="preserve">
<style type="text/css">
	.st0{fill:#58DAFF;}
</style>
<g>
	<g>
		<circle class="st0" cx="222.3" cy="82.8" r="27.5"/>
	</g>
	<g>
		<path class="st0" d="M188.2,135.5v27.7h66.1v-27.7l41.3-50.6c3.8-3.8,3.9-10,0.1-13.8c-3.8-3.8-10-3.9-13.8-0.1L240,118.2h-36.4
			l-30.8-56.4c-3.8-3.8-10-3.7-13.8,0.1c-3.8,3.8-2.6,8.5,0.1,13.8L188.2,135.5z"/>
	</g>
	<g>
		<circle class="st0" cx="77.9" cy="81.8" r="27.5"/>
	</g>
	<g>
		<path class="st0" d="M111.9,135.5v27.7H45.8v-27.7L2.9,91C-0.9,87.2-1,81,2.8,77.2c3.8-3.8,10-3.9,13.8-0.1l43.5,41.1h36.4
			L125.8,59c3.8-3.8,10.1-3.8,13.8,0.1c1.8,1.9,3.4,7.4-0.1,13.8L111.9,135.5z"/>
	</g>
	<g>
		<rect x="111.6" y="15.6" transform="matrix(0.7727 -0.6347 0.6347 0.7727 6.8284 78.5481)" class="st0" width="3" height="28.4"/>
	</g>
	<g>
		
			<rect x="165.1" y="28.2" transform="matrix(0.6347 -0.7727 0.7727 0.6347 42.5039 149.3945)" class="st0" width="28.4" height="3"/>
	</g>
	<g>
		<rect x="144.7" class="st0" width="3" height="36.8"/>
	</g>
</g>
</svg>
