<?xml version="1.0" encoding="utf-8"?>
<!-- Generator: Adobe Illustrator 23.0.5, SVG Export Plug-In . SVG Version: 6.00 Build 0)  -->
<svg version="1.1" id="圖層_1" xmlns="http://www.w3.org/2000/svg" xmlns:xlink="http://www.w3.org/1999/xlink" x="0px" y="0px"
	 viewBox="0 0 24 24" style="enable-background:new 0 0 24 24;" xml:space="preserve">
<style type="text/css">
	.st0{fill:#0077B5;}
	.st1{fill:#FFFFFF;}
</style>
<path class="st0" d="M0,22.6C0,23.4,0.6,24,1.3,24h21.3c0.7,0,1.3-0.6,1.3-1.3V1.3C24,0.6,23.4,0,22.6,0H1.3C0.6,0,0,0.6,0,1.3V22.6
	z"/>
<rect x="5" y="8" class="st1" width="3" height="11"/>
<ellipse class="st1" cx="6.5" cy="5" rx="1.8" ry="1.8"/>
<path class="st1" d="M20,19h-3v-5.6c0-3.4-4-3.1-4,0V19h-3V8h3v1.8c1.4-2.6,7-2.8,7,2.5V19z"/>
</svg>
