<?xml version="1.0" encoding="utf-8"?>
<!-- Generator: Adobe Illustrator 23.0.5, SVG Export Plug-In . SVG Version: 6.00 Build 0)  -->
<svg version="1.1" id="Capa_1" xmlns="http://www.w3.org/2000/svg" xmlns:xlink="http://www.w3.org/1999/xlink" x="0px" y="0px"
	 viewBox="0 0 320 320.6" style="enable-background:new 0 0 320 320.6;" xml:space="preserve">
<path d="M192.1,4.2c-0.1,0-0.3,0-0.3-0.1c-7.2-1.5-14.5-2.4-21.8-2.9V0h-20v1.3C64.9,6.6,0,77.4,0,161
	c0,115.7,124.5,194.1,229.2,144.3c3.5-1.6,7-3.5,9.4-6.5c2.4-3,3.5-7.3,1.7-10.7c-1.9-3.5-6.4-5-10.4-4.5c-4,0.5-7.6,2.4-11.3,4.2
	c-14.7,7.1-34.3,14.1-50.8,12.5c1.5-1.9,3.1-4.3,3.5-6.8c2.4-15.9,9.1-21.8,19.2-30.6c6.8-5.9,14.5-12.6,22.1-23.3
	c8.3-11.7,11.5-25.9,9-40.1c-1.3-7.1-0.4-15.1-3.6-21.8c-6-12.7-20.4-6.1-30.6-4.3c-10.9,1.9-21.9-2.4-28.5-11.3
	c-13.5-18.2-37.1-24.6-57.9-16.3c-0.1,0-0.1-0.1-0.2-0.1c-7.5-4.9-11.7-12-12-19.9c-0.2-5.2,1.4-10.3,4.3-14.7
	c1,1.8,2.6,3.5,5.4,4.5c3.5,1.2,7.3,0.3,10-2.1c4.3-4,3.3-8.8,2.5-11.9c-0.3-4.1-3.1-9.2,0.8-14.9c1.8-2.5,4.5-4.3,7.5-4.8l12.9-2.3
	c13.7-2.4,45-34.6,61.5-54.3c19.7,4.9,38.1,14.1,53.9,26.9c-25.6,15-24.9,14.2-26.5,15.8c-5.9,5.9-9.4,14-9.4,22.4v12.7
	c0,17.5,14.3,31.6,31.7,31.6c6.4,0,11.6,5.2,11.6,11.6c0,4.8,3.4,9,8.2,9.8l36.4,6.7c-0.3,21.9-5.5,42.9-15.5,62.3
	c-2.5,4.9-0.6,10.9,4.3,13.5c4.9,2.5,10.9,0.6,13.5-4.3c11.6-22.5,17.7-47.8,17.7-73.2C320,83.6,264.9,19.1,192.1,4.2z M143,173.9
	L143,173.9c11.2,15,29.6,22.4,48,19.1l9-1.6l2,11.5c1.6,8.8-0.4,17.7-5.6,25c-6.2,8.7-12.6,14.3-18.9,19.8
	c-6.8,5.9-13.7,12-18.9,21.1c-6.8-9-11.4-11-14.3-13.1c-0.3-0.5-1-2.3-2-7.8c-1.8-10.5-7.7-19.6-16.4-25.7l-6.8-4.7
	c9.3-14,8.9-32.3-1.1-45.8l-6.3-8.5C123.3,160,135.7,164,143,173.9z M102,183.6c5.1,6.9,5.2,16.2,0.3,23.2l-5.2,7.5
	c-3.2,4.5-2.1,10.8,2.4,13.9l15,10.5c4.3,3,7.2,7.6,8.1,12.8c2.5,13.9,5.6,17.9,12.1,22c2.1,1.3,4.3,2.7,8.1,7.7l10.2,16.2
	c1,1.6,2.4,2.8,4.1,3.6C81.2,299.4,20,237.2,20,161c0-10,1.1-19.9,3.2-29.6c3.2,4.3,7.5,7.8,12.7,10.1l51.7,22.7L102,183.6z
	 M128.6,59.9L128.6,59.9l-12.5,2.2c-8.3,1.5-15.6,6.1-20.4,13c-2.4,3.4-4,7.1-4.9,11.1c-1,0.4-1.9,1-2.7,1.6
	c-12.3,9.4-19.4,23.8-18.9,38.6c0.1,2.8,0.5,5.6,1.1,8.3l-26.2-11.5c-5.4-2.4-8.3-8.3-6.5-13.6c2-5.8,2.3-11.9,0.9-17.8
	C63.3,48,109.6,21,160,21c3.6,0,7.2,0.1,10.8,0.4C153.2,41,134.2,57.7,128.6,59.9z M274.2,137.6c-3.7-13.3-16-23.1-30.5-23.1
	c-6.4,0-11.7-5.2-11.7-11.6V90.2c0-2.7,1-5.3,2.7-7.4l28.3-16.5c19.5,21.2,31.8,47.5,35.7,75.8L274.2,137.6z"/>
<path d="M312.5,206.9c-7.2-2-14.8-2.6-20.7-1.7c-14.1,42.8-47.5,76.1-90,90.1c0.1,2,0.6,4,1.1,5.9c1.1,4.6,2.3,9.3,3.4,13.9
	C259.4,298.3,297.7,256.6,312.5,206.9z"/>
</svg>
