<?xml version="1.0" encoding="utf-8"?>
<!-- Generator: Adobe Illustrator 23.0.5, SVG Export Plug-In . SVG Version: 6.00 Build 0)  -->
<svg version="1.1" id="圖層_1" xmlns="http://www.w3.org/2000/svg" xmlns:xlink="http://www.w3.org/1999/xlink" x="0px" y="0px"
	 viewBox="0 0 42.9 64.7" style="enable-background:new 0 0 42.9 64.7;" xml:space="preserve">
<style type="text/css">
	.st0{opacity:0.76;}
	.st1{clip-path:url(#SVGID_2_);}
	.st2{fill:#EF92AA;}
	.st3{fill:#231815;}
	.st4{fill:#FFFFFF;}
	.st5{opacity:0.63;}
	.st6{fill:#7AE2F9;}
	.st7{fill:#999999;}
	.st8{fill:none;}
</style>
<g class="st0">
	<g>
		<defs>
			<rect id="SVGID_1_" x="-7" y="17.9" width="40" height="40"/>
		</defs>
		<clipPath id="SVGID_2_">
			<use xlink:href="#SVGID_1_"  style="overflow:visible;"/>
		</clipPath>
		<g class="st1">
			<g>
				<g>
					<path class="st2" d="M7,40.1c-2.4-3.3-3.3-7.8-0.7-11.3c1.3-1.8,3.1-2.9,5.4-2.9c3.8,0,7.3,3.3,7.7,7.2
						c0.3,2.2-0.1,4.3-0.9,6.4c-0.5,1.4-1.2,2.6-2.3,3.6c-0.8,0.8-1.8,1.3-2.9,1.3c-0.9,0-1.8-0.3-2.6-0.7c-1-0.5-1.8-1.3-2.6-2.1
						C7.7,41.2,7.3,40.7,7,40.1z"/>
					<path class="st3" d="M10.5,43.8c-0.8-0.4-1.7-1.1-2.6-2.1c-0.4-0.5-0.7-0.9-1.1-1.4C4,36.5,3.7,32,6.1,28.8c1.5-2,3.3-3,5.6-3
						h0.1c3.8,0,7.4,3.3,7.8,7.3c0.2,2.2-0.1,4.3-1,6.5c-0.6,1.6-1.3,2.8-2.3,3.7c-1,0.8-1.9,1.3-3.1,1.3c0.1,0,0.1,0,0,0
						C12.4,44.6,11.5,44.4,10.5,43.8z M11.8,26.2c-2.3,0-4.1,1-5.3,2.7c-2.8,3.8-1.4,8.4,0.7,11.2c0.3,0.4,0.7,0.9,1.1,1.3l0,0
						c0.9,1,1.8,1.6,2.6,2.1s1.6,0.7,2.4,0.7h0.1c1,0,1.9-0.4,2.8-1.2c0.9-0.8,1.6-2,2.2-3.5c0.8-2.2,1.1-4.2,0.9-6.3
						C18.9,29.4,15.5,26.2,11.8,26.2C11.7,26.2,11.7,26.2,11.8,26.2z"/>
				</g>
				<path class="st4" d="M6.2,34.8l0,0.2c0,0.1,0.1,0.2,0.2,0.2s0.1-0.1,0.1-0.2v-0.4c0-0.4,0-0.8,0-1.2c0.1-1.4,0.7-2.6,1.6-3.7
					c0.1-0.2,0.1-0.3,0.1-0.3c0-0.1-0.1-0.2-0.2-0.2c0,0,0,0-0.1,0.1c-0.6,0.6-1,1.3-1.3,2.1C6.2,32.5,6,33.7,6.2,34.8L6.2,34.8z"/>
				<path class="st4" d="M17.4,38.4c0-0.1-0.1-0.1-0.1-0.1l0,0c-0.1,0-0.1,0.1-0.2,0.2c-0.4,1.1-0.8,1.9-1.3,2.6s-1,1.1-1.5,1.4
					c-0.1,0-0.1,0.1-0.1,0.1c0,0.1,0.1,0.2,0.2,0.2c0.5-0.3,0.9-0.7,1.3-1.1c0.9-1,1.4-2.2,1.7-3.1C17.5,38.5,17.5,38.5,17.4,38.4z"
					/>
				<g>
					<path class="st2" d="M14.1,45.4c-0.1-0.3-0.2-0.6-0.2-0.8l1.6-0.5c0.1,0.2,0.2,0.4,0.3,0.7L14.1,45.4z"/>
					<path class="st3" d="M13.8,44.5l1.8-0.6l0.5,1L14,45.6L13.8,44.5z M15.4,44.2l-1.3,0.4l0.1,0.5l1.4-0.4L15.4,44.2z"/>
				</g>
			</g>
			<path class="st3" d="M14.8,62.4c-0.1-0.8-0.4-1.5-0.7-2.3c-0.2-0.6-0.5-1.2-0.6-1.8c-0.4-1.8-0.2-3.4,0.8-4.7
				c0.2-0.2,0.3-0.4,0.5-0.6c0.3-0.4,0.6-0.8,0.9-1.3c1.1-2.1,0.3-4.4-0.6-6.4c0-0.1,0-0.2,0.1-0.2s0.2,0,0.2,0.1
				c0.9,2,1.7,4.4,0.5,6.7c-0.2,0.4-0.6,0.9-0.9,1.3c-0.2,0.2-0.4,0.4-0.5,0.6c-0.9,1.2-1.2,2.7-0.8,4.4c0.2,0.6,0.4,1.2,0.6,1.8
				c0.3,0.8,0.6,1.6,0.7,2.4c0,0.1-0.1,0.2-0.2,0.2l0,0C14.7,62.6,14.6,62.5,14.8,62.4z"/>
		</g>
	</g>
</g>
<g class="st5">
	<g>
		<g>
			<path class="st6" d="M23.5,13.4C21.8,11,21.1,7.8,23,5.2c0.9-1.3,2.2-2.1,3.9-2.1c2.8,0,5.4,2.3,5.7,5.3c0.2,1.6-0.1,3.1-0.7,4.6
				c-0.4,1-0.9,1.9-1.7,2.6c-0.6,0.5-1.3,0.9-2.1,0.9c-0.7,0-1.3-0.2-1.9-0.5c-0.7-0.4-1.3-1-1.8-1.6C24.1,14.1,23.8,13.8,23.5,13.4
				z"/>
			<path class="st7" d="M26.1,16.2c-0.6-0.4-1.2-0.9-1.9-1.6c-0.3-0.3-0.5-0.7-0.8-1c-2-2.8-2.2-6.1-0.5-8.4c1-1.4,2.4-2.2,4-2.2
				C27,3,27,3,27,3c2.8,0,5.4,2.4,5.7,5.3c0.2,1.5-0.1,3.1-0.7,4.7c-0.4,1.1-1,2-1.7,2.6c-0.6,0.7-1.4,1-2.2,1l0,0
				C27.4,16.6,26.8,16.4,26.1,16.2z M27,3.2c-1.6,0-2.9,0.7-4,2.1c-2,2.7-1,6.1,0.5,8.1c0.2,0.4,0.5,0.7,0.8,1l0,0
				c0.7,0.7,1.3,1.2,1.9,1.5c0.6,0.3,1.2,0.5,1.8,0.5c0.1,0,0.1,0,0.1,0c0.7,0,1.4-0.3,2-0.9c0.6-0.7,1.2-1.5,1.6-2.6
				c0.6-1.6,0.9-3.1,0.7-4.6C32.1,5.5,29.7,3.2,27,3.2L27,3.2z"/>
		</g>
		<path class="st4" d="M23,9.5l0.1,0.2c0,0,0,0.1,0.1,0.1s0.1-0.2,0.1-0.2V9.3c0-0.3,0-0.6,0-0.9c0-1,0.4-1.9,1.1-2.7
			c0.1-0.1,0.1-0.2,0.1-0.2s0-0.1-0.1-0.1c0,0,0,0-0.1,0.1c-0.5,0.4-0.8,0.9-1,1.5C23,7.8,22.9,8.7,23,9.5L23,9.5z"/>
		<path class="st4" d="M31.1,12.1C31.1,12,31,12,31,12l0,0c0,0-0.1,0.1-0.1,0.2c-0.3,0.8-0.6,1.4-1,1.9s-0.7,0.8-1.1,1
			c-0.1,0.1-0.1,0.1-0.1,0.1c0.1,0,0.1,0.1,0.2,0.1c0.4-0.2,0.7-0.5,1-0.8C30.5,13.8,30.9,12.9,31.1,12.1L31.1,12.1z"/>
		<g>
			<path class="st6" d="M28.8,17.2c0-0.2-0.1-0.4-0.1-0.6l1.1-0.4c0,0.1,0.1,0.3,0.2,0.5L28.8,17.2z"/>
			<path class="st7" d="M28.5,16.5l1.3-0.4l0.3,0.7l-1.5,0.5L28.5,16.5z M29.6,16.4l-0.9,0.3l0.1,0.3l1-0.3L29.6,16.4z"/>
		</g>
	</g>
	<path class="st7" d="M29.1,29.5c-0.1-0.6-0.3-1.1-0.5-1.7c-0.1-0.4-0.3-0.8-0.4-1.3c-0.3-1.3-0.1-2.4,0.6-3.4
		c0.1-0.1,0.2-0.3,0.3-0.5c0.2-0.3,0.4-0.6,0.6-0.9c0.9-1.5,0.3-3.2-0.4-4.6c0-0.1,0-0.2,0.1-0.2s0.2,0,0.2,0.1
		c0.7,1.5,1.3,3.2,0.4,4.9c-0.2,0.4-0.5,0.7-0.7,1c-0.1,0.1-0.2,0.3-0.3,0.4c-0.7,0.9-0.9,2-0.6,3.2c0.1,0.5,0.2,0.9,0.4,1.3
		c0.2,0.5,0.4,1.1,0.5,1.7c0,0,0,0.1-0.1,0.1l0,0C29.1,29.6,29.1,29.6,29.1,29.5z"/>
</g>
<rect x="14.7" y="-2.8" class="st8" width="32.2" height="32.2"/>
</svg>
