<?xml version="1.0" encoding="utf-8"?>
<!-- Generator: Adobe Illustrator 23.0.5, SVG Export Plug-In . SVG Version: 6.00 Build 0)  -->
<svg version="1.1" id="圖層_1" xmlns="http://www.w3.org/2000/svg" xmlns:xlink="http://www.w3.org/1999/xlink" x="0px" y="0px"
	 viewBox="0 0 108.8 54.8" style="enable-background:new 0 0 108.8 54.8;" xml:space="preserve">
<style type="text/css">
	.st0{fill:#B5B5B6;}
	.st1{fill:#F093AB;}
	.st2{fill:#FFFFFF;}
</style>
<g>
	<path d="M8.5,18.9l-0.3-1.5H0.6V15h1.5l2.1-4.1L0.9,7.4l3.6-7.2h3.1L4.3,7l1.2,1.3l1.5-3h3.1L5.3,15h2.5l-0.6-3.5h2.7l1.3,7.5H8.5z
		 M31.8,23.1H19.9l12.3,5.7v3.1l-14.4-6.7v7H15v-6.9L0.6,32v-3l12.6-5.8H1v-2.7h14V18h2.8v2.4h14V23.1z M21.6,2.7v15H11.2v-15h2.7
		L15.3,0h3L17,2.7H21.6z M19,5.3h-5.2v3.3H19V5.3z M13.8,15.2H19v-4h-5.2V15.2z M29.6,18.9l-0.3-1.5h-7.5V15h1.3l2-3.9L22,7.6
		l3.7-7.4h3.1l-3.5,7l1.2,1.3l1.6-3.2h3.1L26.4,15h2.5l-0.6-3.5h2.6l1.3,7.5H29.6z"/>
	<polygon points="49,20.1 49,29.1 72.1,29.1 72.1,31.8 47.5,31.8 44,25.7 42.8,32.2 40.1,32.2 42.7,17.5 45.4,17.5 44.7,21.7 
		46.3,24.6 46.3,13.3 40.4,13.3 40.4,10.6 45.5,10.6 45.5,6.6 41.1,6.6 41.1,3.9 45.5,3.9 45.5,0.2 48.3,0.2 48.3,3.9 51.8,3.9 
		51.8,6.6 48.3,6.6 48.3,10.6 52.5,10.6 52.5,13.3 49,13.3 49,17.4 53.4,17.4 53.4,20.1 	"/>
	<path d="M52.3,1.5v2.7h1.4v19.9l-1.6,0.6v2.7l6.7-2.4v3.4h2.5V4.2h10.8V1.5H52.3z M58.8,22.3l-2.6,0.9v-5.6h2.6V22.3z M58.8,14.9
		h-2.6v-4h2.6V14.9z M58.8,8.2h-2.6v-4h2.6V8.2z"/>
	<path d="M85.4,0.2v6.1h3.8v2.8h-3.8v7.6l3.3-1.8v3.2l-3.3,1.8v12.3h-2.8V21.5l-4.3,2.4v-3.2l4.3-2.4V9.1h-4.3V6.3h4.3V0.2H85.4z
		 M90.5,11.5h18.3v20.7h-2.8v-6.7H93.3v6.7h-2.8V11.5z M108.1,0.5v9.2h-17V0.5H108.1z M105.9,14.3H93.3v2.8h12.7V14.3z M93.3,22.8
		h12.7v-2.8H93.3V22.8z M105.3,7.1V3.1H93.9v3.9H105.3z"/>
	<g>
		<g>
			<path d="M55.6,50.4c-0.5,0.4-1,0.6-1.6,0.8c-0.6,0.2-1.3,0.3-2,0.3c-0.7,0-1.4-0.1-2-0.3c-0.6-0.2-1.1-0.5-1.5-0.9
				s-0.7-0.9-0.9-1.4s-0.3-1.2-0.3-1.9c0-0.7,0.1-1.4,0.4-1.9c0.2-0.6,0.6-1,1-1.4c0.4-0.4,0.9-0.7,1.5-0.9c0.6-0.2,1.2-0.3,1.9-0.3
				c0.6,0,1.2,0.1,1.8,0.2c0.6,0.1,1,0.3,1.3,0.4v3h-1.9v-1.6c-0.4-0.1-0.7-0.1-1.1-0.1c-0.3,0-0.6,0-1,0.1
				c-0.3,0.1-0.6,0.3-0.8,0.5c-0.2,0.2-0.4,0.5-0.6,0.8c-0.2,0.3-0.2,0.7-0.2,1.2c0,0.4,0.1,0.7,0.2,1s0.3,0.6,0.5,0.8
				c0.2,0.2,0.5,0.4,0.8,0.5c0.3,0.1,0.7,0.2,1.1,0.2c0.7,0,1.2-0.1,1.6-0.3c0.4-0.2,0.7-0.3,0.9-0.5L55.6,50.4z"/>
			<path d="M56.6,39.2H60v4.4h0.1c0.3-0.4,0.6-0.7,1.1-0.9c0.5-0.2,1-0.3,1.6-0.3c0.4,0,0.8,0.1,1.2,0.2s0.7,0.3,0.9,0.6
				c0.3,0.3,0.5,0.6,0.6,1.1c0.1,0.5,0.2,1,0.2,1.7v5.3h-2.2v-4.9c0-0.7-0.1-1.2-0.4-1.5c-0.3-0.3-0.7-0.5-1.2-0.5
				c-0.4,0-0.8,0.1-1.2,0.4c-0.4,0.3-0.6,0.6-0.8,1v5.5h-2.2V41.1h-1.2V39.2z"/>
			<path d="M68.4,43.2c0.5-0.2,1-0.4,1.6-0.5c0.6-0.1,1.3-0.2,2.1-0.2c0.6,0,1.1,0.1,1.5,0.2s0.8,0.3,1,0.6c0.3,0.3,0.4,0.6,0.6,0.9
				c0.1,0.4,0.2,0.8,0.2,1.2c0,0.6,0,1.1-0.1,1.5s-0.1,0.8-0.1,1.1c0,0.2,0,0.5,0,0.8c0,0.2,0,0.3,0.1,0.5h1.1v1.9h-2.9L73.4,50
				h-0.1c-0.2,0.4-0.6,0.7-1,0.9c-0.4,0.3-1,0.4-1.7,0.4c-0.9,0-1.5-0.2-2-0.7c-0.5-0.5-0.8-1.1-0.8-1.8c0-0.5,0.1-0.9,0.3-1.2
				c0.2-0.3,0.4-0.6,0.8-0.9c0.3-0.2,0.7-0.4,1.2-0.5c0.5-0.1,1-0.2,1.6-0.2c0.2,0,0.4,0,0.6,0c0.2,0,0.5,0,0.8,0.1
				c0-0.1,0-0.2,0-0.3v-0.3c0-0.4-0.1-0.7-0.4-0.9c-0.3-0.2-0.6-0.3-1.1-0.3c-0.6,0-1.1,0.1-1.6,0.2c-0.5,0.1-0.9,0.3-1.2,0.4
				L68.4,43.2z M71.3,49.5c0.5,0,1-0.1,1.2-0.3c0.3-0.2,0.5-0.4,0.6-0.6v-1c-0.1,0-0.3,0-0.5-0.1c-0.2,0-0.5,0-0.7,0
				c-0.2,0-0.4,0-0.6,0.1c-0.2,0-0.4,0.1-0.6,0.2c-0.2,0.1-0.3,0.2-0.4,0.3c-0.1,0.1-0.2,0.3-0.2,0.5c0,0.3,0.1,0.6,0.3,0.7
				C70.6,49.4,70.9,49.5,71.3,49.5z"/>
			<path d="M77.4,42.6h3l0.3,1.1h0.1c0.3-0.4,0.6-0.7,1.1-1c0.5-0.3,1.1-0.4,1.8-0.4c0.4,0,0.8,0.1,1.2,0.2c0.4,0.1,0.7,0.3,1,0.6
				c0.3,0.3,0.5,0.6,0.6,1.1c0.2,0.5,0.2,1,0.2,1.7v5.3h-2.2v-4.9c0-0.7-0.2-1.2-0.5-1.5c-0.3-0.3-0.7-0.5-1.2-0.5
				c-0.4,0-0.8,0.1-1.2,0.4c-0.3,0.2-0.6,0.6-0.7,0.9v5.6h-2.2v-6.7h-1.2V42.6z"/>
			<path d="M96.6,51.2c0,0.6-0.1,1.2-0.3,1.6s-0.5,0.8-0.9,1.1c-0.4,0.3-0.8,0.5-1.3,0.7c-0.5,0.1-1.1,0.2-1.7,0.2
				c-0.4,0-0.8,0-1.2-0.1c-0.4-0.1-0.7-0.1-1-0.2c-0.3-0.1-0.6-0.2-0.8-0.3c-0.2-0.1-0.4-0.2-0.5-0.4l0.9-1.6c0.3,0.2,0.6,0.4,1,0.5
				c0.4,0.2,0.9,0.2,1.5,0.2c0.7,0,1.3-0.2,1.6-0.5s0.6-0.8,0.6-1.4v-0.5h-0.1c-0.2,0.3-0.5,0.5-0.9,0.6c-0.4,0.1-0.9,0.2-1.4,0.2
				c-0.5,0-1.1-0.1-1.5-0.3c-0.5-0.2-0.9-0.4-1.2-0.8c-0.3-0.3-0.6-0.8-0.8-1.3c-0.2-0.5-0.3-1.2-0.3-1.9c0-0.8,0.1-1.4,0.3-2
				c0.2-0.6,0.5-1.1,0.9-1.5c0.4-0.4,0.9-0.7,1.5-0.9s1.2-0.3,1.9-0.3c0.4,0,0.7,0,1.1,0s0.7,0.1,1,0.1c0.3,0,0.6,0.1,0.9,0.2
				c0.3,0.1,0.5,0.1,0.7,0.2V51.2z M92.4,49.6c0.4,0,0.8-0.1,1.2-0.3c0.3-0.2,0.6-0.5,0.7-0.9v-3.9c-0.2-0.1-0.4-0.1-0.7-0.2
				s-0.6-0.1-0.8-0.1c-0.3,0-0.6,0.1-0.9,0.2c-0.3,0.1-0.5,0.3-0.7,0.5c-0.2,0.2-0.4,0.5-0.5,0.8c-0.1,0.3-0.2,0.7-0.2,1.2
				c0,0.4,0.1,0.8,0.2,1.1c0.1,0.3,0.2,0.6,0.4,0.8c0.2,0.2,0.4,0.4,0.6,0.5C91.9,49.5,92.2,49.6,92.4,49.6z"/>
			<path d="M106.9,50.3c-0.1,0.1-0.3,0.3-0.6,0.4c-0.2,0.1-0.5,0.3-0.8,0.4c-0.3,0.1-0.7,0.2-1,0.3c-0.4,0.1-0.8,0.1-1.2,0.1
				c-0.7,0-1.4-0.1-2-0.3s-1.1-0.5-1.5-0.9s-0.7-0.9-0.9-1.4c-0.2-0.6-0.3-1.2-0.3-1.9c0-0.8,0.1-1.4,0.4-2s0.6-1,1-1.4
				c0.4-0.4,0.9-0.7,1.5-0.8s1.2-0.3,1.8-0.3c0.4,0,0.9,0.1,1.3,0.2c0.5,0.1,0.9,0.3,1.3,0.6c0.4,0.3,0.7,0.7,1,1.1
				c0.2,0.5,0.4,1.1,0.4,1.8c0,0.5-0.1,1-0.2,1.6h-6.2c0,0.4,0.1,0.7,0.2,0.9c0.1,0.3,0.3,0.5,0.6,0.6s0.5,0.3,0.8,0.4
				c0.3,0.1,0.6,0.1,1,0.1c0.7,0,1.3-0.1,1.7-0.2s0.8-0.4,1.1-0.6L106.9,50.3z M103.2,44.2c-0.3,0-0.6,0-0.8,0.1
				c-0.3,0.1-0.5,0.2-0.7,0.4c-0.2,0.2-0.4,0.4-0.5,0.6c-0.1,0.2-0.2,0.5-0.2,0.8h4.2c0-0.6-0.2-1-0.5-1.4
				C104.3,44.3,103.9,44.2,103.2,44.2z"/>
		</g>
	</g>
	<g>
		<g>
			<path d="M5.8,47.4h2.1v4.9H0v-12h2.4v9.9h3.4V47.4z"/>
			<path d="M18.1,51.4c-0.1,0.1-0.3,0.3-0.6,0.4c-0.2,0.1-0.5,0.3-0.8,0.4c-0.3,0.1-0.7,0.2-1,0.3c-0.4,0.1-0.8,0.1-1.2,0.1
				c-0.7,0-1.4-0.1-2-0.3s-1.1-0.5-1.5-0.9s-0.7-0.9-0.9-1.4c-0.2-0.6-0.3-1.2-0.3-1.9c0-0.8,0.1-1.4,0.4-2s0.6-1,1-1.4
				c0.4-0.4,0.9-0.7,1.5-0.8s1.2-0.3,1.8-0.3c0.4,0,0.9,0.1,1.3,0.2c0.5,0.1,0.9,0.3,1.3,0.6c0.4,0.3,0.7,0.7,1,1.1
				c0.2,0.5,0.4,1.1,0.4,1.8c0,0.5-0.1,1-0.2,1.6H12c0,0.4,0.1,0.7,0.2,0.9c0.1,0.3,0.3,0.5,0.6,0.6s0.5,0.3,0.8,0.4
				c0.3,0.1,0.6,0.1,1,0.1c0.7,0,1.3-0.1,1.7-0.2s0.8-0.4,1.1-0.6L18.1,51.4z M14.4,45.3c-0.3,0-0.6,0-0.8,0.1
				c-0.3,0.1-0.5,0.2-0.7,0.4c-0.2,0.2-0.4,0.4-0.5,0.6c-0.1,0.2-0.2,0.5-0.2,0.8h4.2c0-0.6-0.2-1-0.5-1.4
				C15.5,45.4,15.1,45.3,14.4,45.3z"/>
			<path d="M21.3,45.6h-1.7v-1.9h1.7v-2l2.2-0.6v2.6H28v1.9h-4.5v2.5c0,0.9,0.2,1.5,0.5,1.9c0.3,0.4,0.8,0.6,1.4,0.6
				c0.3,0,0.6,0,0.8-0.1c0.3-0.1,0.5-0.2,0.7-0.3c0.2-0.1,0.4-0.2,0.5-0.4c0.2-0.1,0.3-0.3,0.5-0.4l1,1.5c-0.2,0.2-0.4,0.4-0.7,0.6
				c-0.3,0.2-0.6,0.4-0.9,0.5c-0.3,0.1-0.7,0.3-1.1,0.3s-0.7,0.1-1.1,0.1c-1.3,0-2.2-0.4-2.9-1.1c-0.6-0.7-1-1.9-1-3.4V45.6z"/>
			<path d="M36.5,49.9c0-0.2-0.1-0.4-0.4-0.5s-0.6-0.3-1-0.4c-0.4-0.1-0.9-0.2-1.4-0.4s-0.9-0.3-1.4-0.5c-0.4-0.2-0.8-0.5-1-0.8
				c-0.3-0.3-0.4-0.7-0.4-1.3c0-0.4,0.1-0.8,0.3-1.1c0.2-0.3,0.4-0.6,0.8-0.8c0.3-0.2,0.7-0.4,1.2-0.5c0.5-0.1,0.9-0.2,1.5-0.2
				c0.6,0,1.1,0,1.5,0.1c0.4,0.1,0.8,0.2,1.1,0.3c0.3,0.1,0.6,0.2,0.8,0.4c0.2,0.1,0.4,0.3,0.6,0.4l-0.9,1.5
				c-0.2-0.1-0.4-0.2-0.6-0.3c-0.2-0.1-0.5-0.2-0.7-0.3c-0.2-0.1-0.5-0.2-0.8-0.2c-0.3-0.1-0.5-0.1-0.8-0.1c-0.5,0-0.9,0.1-1.2,0.2
				c-0.3,0.1-0.4,0.3-0.4,0.6c0,0.2,0.1,0.4,0.4,0.5c0.3,0.1,0.6,0.2,1,0.4c0.4,0.1,0.9,0.2,1.4,0.4s0.9,0.3,1.4,0.5
				c0.4,0.2,0.8,0.5,1,0.8s0.4,0.7,0.4,1.2c0,0.9-0.3,1.6-1,2.1c-0.6,0.5-1.6,0.7-2.8,0.7c-1,0-1.8-0.1-2.5-0.4
				c-0.7-0.3-1.3-0.6-1.7-1l1-1.6c0.1,0.1,0.3,0.3,0.6,0.4c0.2,0.2,0.5,0.3,0.8,0.4c0.3,0.1,0.6,0.2,1,0.3c0.3,0.1,0.7,0.1,1,0.1
				c0.4,0,0.7-0.1,0.9-0.2C36.3,50.4,36.5,50.2,36.5,49.9z"/>
		</g>
	</g>
	<path class="st0" d="M63,33.9c-0.3-1.1-0.6-2.2-0.4-3.4l0-0.2c0.1-0.3,0.1-0.6,0.1-0.9c0-0.2-0.2-0.4-0.4-0.6
		c-0.2-0.2-0.6-0.2-0.8-0.1c-0.1,0.1-0.2,0.2-0.3,0.3h0.4c0,0,0,0,0,0c0.1-0.1,0.3,0,0.5,0.1c0.1,0.1,0.2,0.3,0.2,0.4
		c0,0.2,0,0.5-0.1,0.8l0,0.2c-0.3,1.2,0.1,2.4,0.4,3.5c0.3,1,0.5,2,0.4,3c0,0.4-0.1,0.8-0.2,1.3c-0.2,1.1-0.4,2.1,0,3.2l0.3-0.1
		c-0.4-1-0.2-2,0-3c0.1-0.4,0.2-0.9,0.2-1.3C63.6,35.9,63.3,34.9,63,33.9z"/>
	<path class="st0" d="M64.8,29c-0.1-0.2-0.3-0.5-0.6-0.5c-0.2,0-0.3,0-0.5,0.1c-0.1,0.1-0.2,0.3-0.3,0.5h0.3c0-0.1,0.1-0.2,0.1-0.2
		c0.1-0.1,0.1-0.1,0.2-0.1c0.1,0,0.3,0.2,0.4,0.4c0.5,0.8,0.3,2-0.3,2.7c-0.1,0.1-0.1,0.1-0.2,0.2c-0.2,0.1-0.5,0.1-0.6,0
		c0,0-0.1-0.1-0.1-0.2H63c0,0.2,0,0.4,0.2,0.5c0.1,0.1,0.3,0.1,0.4,0.1c0.2,0,0.4-0.1,0.5-0.2c0.1-0.1,0.2-0.1,0.3-0.2
		C65.2,31.2,65.4,29.9,64.8,29z"/>
	<path class="st0" d="M66.1,28.4c-0.1,0-0.3,0-0.4,0.1c0.1-1.1,1.1-3,1.5-3.7l-0.3-0.2c-0.1,0.1-1.7,3.2-1.5,4.4h0.4
		c0-0.1,0-0.2,0.1-0.2c0.1-0.1,0.1-0.1,0.2-0.1c0.1,0,0.3,0.2,0.4,0.4c0.5,0.8,0.3,2-0.3,2.7C66,31.9,66,31.9,65.9,32
		c-0.2,0.1-0.5,0.1-0.6,0c0,0-0.1-0.1-0.1-0.2h-0.3c0,0.2,0,0.4,0.2,0.5c0.1,0.1,0.3,0.1,0.4,0.1c0.2,0,0.4-0.1,0.5-0.2
		c0.1-0.1,0.2-0.1,0.3-0.2c0.8-0.8,0.9-2.2,0.4-3.1C66.6,28.8,66.4,28.5,66.1,28.4z"/>
	<g>
		<g>
			<path class="st1" d="M74,21.4c-0.8,0.8-1.6,1.6-2.6,2.1c-0.8,0.4-1.7,0.7-2.6,0.7c-1.1,0-2.1-0.5-2.9-1.3c-1.1-1-1.7-2.2-2.3-3.6
				c-0.8-2-1.2-4.1-0.9-6.3c0.4-3.9,3.9-7.2,7.7-7.1c2.3,0,4.1,1.1,5.4,2.9c2.6,3.5,1.7,8-0.7,11.3C74.7,20.5,74.4,20.9,74,21.4z"/>
			<path d="M68.9,24.3C68.9,24.3,68.8,24.3,68.9,24.3c-1.2,0-2.1-0.5-3.1-1.3c-1-0.9-1.7-2.1-2.3-3.6c-0.9-2.2-1.2-4.3-0.9-6.4
				c0.4-4,3.9-7.2,7.7-7.2c0,0,0.1,0,0.1,0c2.2,0,4.1,1,5.5,3c2.3,3.2,2,7.7-0.7,11.4c-0.3,0.5-0.7,0.9-1.1,1.4
				c-0.9,1-1.7,1.6-2.6,2.1C70.6,24.1,69.7,24.3,68.9,24.3z M70.3,6c-3.6,0-7,3.2-7.4,7c-0.2,2.1,0.1,4.1,0.9,6.3
				c0.6,1.5,1.3,2.6,2.2,3.5c0.9,0.8,1.8,1.2,2.7,1.2c0,0,0.1,0,0.1,0c0.8,0,1.6-0.2,2.4-0.7c0.8-0.5,1.6-1.1,2.5-2.1l0,0
				c0.4-0.4,0.8-0.9,1.1-1.3c2-2.8,3.5-7.3,0.7-11.1C74.3,7,72.6,6.1,70.3,6C70.4,6,70.4,6,70.3,6z"/>
		</g>
		<path class="st2" d="M75.8,14.6c0.1-1.1,0-2.3-0.4-3.4c-0.3-0.8-0.7-1.5-1.3-2.1C74,9,74,9,74,9c-0.1,0-0.1,0.1-0.2,0.2
			c0,0,0,0.1,0.1,0.3c0.9,1.1,1.4,2.3,1.6,3.7c0,0.4,0,0.8,0,1.2l0,0.4c0,0.1,0,0.2,0.1,0.2c0.1,0,0.2-0.1,0.2-0.2L75.8,14.6
			L75.8,14.6z"/>
		<path class="st2" d="M64.7,18.3c0.3,0.9,0.8,2.1,1.7,3c0.4,0.4,0.8,0.8,1.3,1.1c0.1,0,0.2-0.1,0.2-0.2c0,0,0-0.1-0.1-0.1
			c-0.5-0.3-1-0.7-1.5-1.4c-0.5-0.7-0.9-1.5-1.3-2.6c-0.1-0.1-0.1-0.2-0.2-0.2c0,0,0,0,0,0c0,0-0.1,0-0.1,0.1
			C64.7,18.2,64.7,18.3,64.7,18.3z"/>
		<g>
			<path class="st1" d="M66.3,24.5c0.1-0.3,0.2-0.5,0.3-0.7l1.5,0.5c0,0.2-0.1,0.5-0.2,0.8L66.3,24.5z"/>
			<path d="M68.1,25.3l-2-0.7l0.5-1l1.8,0.6L68.1,25.3z M66.5,24.4l1.4,0.4l0.1-0.4L66.7,24L66.5,24.4z"/>
		</g>
	</g>
</g>
</svg>
