<?xml version="1.0" encoding="utf-8"?>
<!-- Generator: Adobe Illustrator 23.0.5, SVG Export Plug-In . SVG Version: 6.00 Build 0)  -->
<svg version="1.1" id="圖層_1" xmlns="http://www.w3.org/2000/svg" xmlns:xlink="http://www.w3.org/1999/xlink" x="0px" y="0px"
	 viewBox="0 0 26.7 20.1" style="enable-background:new 0 0 26.7 20.1;" xml:space="preserve">
<style type="text/css">
	.st0{opacity:0.95;}
	.st1{fill:#EF92AA;stroke:#000000;stroke-width:0.1;stroke-miterlimit:10;}
	.st2{stroke:#000000;stroke-width:0.1;stroke-miterlimit:10;}
	.st3{opacity:0.5;}
	.st4{fill:#C65C7A;}
	.st5{stroke:#000000;stroke-width:5.000000e-02;stroke-miterlimit:10;}
	.st6{fill:#FFFFFF;}
	.st7{fill:#EF92AA;}
	.st8{opacity:0.5;fill:#EF92AA;}
	.st9{opacity:0.2;fill:#EF92AA;}
	.st10{opacity:0.33;fill:#EF92AA;}
	.st11{opacity:0.65;fill:#EF92AA;}
	.st12{opacity:0.35;fill:#EF92AA;}
</style>
<g>
	<g class="st0">
		<g>
			<g>
				<path class="st1" d="M10.9,19.4c0,0.3,0.3,0.6,0.6,0.6h3.9c0.3,0,0.6-0.3,0.6-0.6v-2.3c0-0.3-0.3-0.6-0.6-0.6h-3.9
					c-0.3,0-0.6,0.3-0.6,0.6V19.4z"/>
			</g>
			<g>
				<path class="st2" d="M15.3,20.1h-3.9c-0.3,0-0.6-0.3-0.6-0.7v-2.3c0-0.4,0.3-0.7,0.6-0.7h3.9c0.3,0,0.6,0.3,0.6,0.7v2.3
					C15.9,19.8,15.6,20.1,15.3,20.1z M11.4,16.5c-0.3,0-0.5,0.3-0.5,0.6v2.3c0,0.3,0.2,0.6,0.5,0.6h3.9c0.3,0,0.5-0.3,0.5-0.6v-2.3
					c0-0.3-0.2-0.6-0.5-0.6H11.4z"/>
			</g>
		</g>
		<g class="st3">
			<path class="st4" d="M10.9,16.9h5v0.6h-5V16.9z"/>
		</g>
		<g>
			<g>
				<path class="st1" d="M10.4,16.6c0,0.2,0.2,0.4,0.4,0.4H16c0.2,0,0.4-0.2,0.4-0.4v-1.2c0-0.2-0.2-0.4-0.4-0.4h-5.2
					c-0.2,0-0.4,0.2-0.4,0.4V16.6z"/>
			</g>
			<g>
				<path class="st2" d="M16,17h-5.2c-0.2,0-0.4-0.2-0.4-0.4v-1.2c0-0.2,0.2-0.4,0.4-0.4H16c0.2,0,0.4,0.2,0.4,0.4v1.2
					C16.4,16.8,16.2,17,16,17z M10.8,15.1c-0.2,0-0.3,0.2-0.3,0.3v1.2c0,0.2,0.1,0.3,0.3,0.3H16c0.2,0,0.3-0.2,0.3-0.3v-1.2
					c0-0.2-0.1-0.3-0.3-0.3H10.8z"/>
			</g>
		</g>
		<g>
			<path class="st5" d="M15.1,15h-2l1.4-1.4c0.3-0.3,0.8-0.3,1.2,0c0.2,0.2,0.2,0.4,0.2,0.6C15.9,14.7,15.6,15,15.1,15z M13.5,14.9
				h1.5c0.4,0,0.6-0.3,0.6-0.6c0-0.4-0.3-0.6-0.6-0.6c-0.2,0-0.3,0.1-0.5,0.2L13.5,14.9z"/>
		</g>
		<g>
			<path class="st5" d="M10.8,14.2c0-0.2,0.1-0.4,0.2-0.6c0.3-0.3,0.8-0.3,1.2,0l1.4,1.4h-2C11.1,15,10.8,14.7,10.8,14.2z
				 M12.1,13.8c-0.1-0.1-0.3-0.2-0.5-0.2c-0.4,0-0.6,0.3-0.6,0.6c0,0.4,0.3,0.6,0.6,0.6h1.5L12.1,13.8z"/>
		</g>
		<g>
			<path d="M13.2,15h0.3v1.9h-0.3V15z"/>
		</g>
		<g>
			<path d="M13.2,16.5h0.2V20h-0.2V16.5z"/>
		</g>
		<g>
			<path class="st6" d="M10.8,16.6C10.8,16.6,10.8,16.6,10.8,16.6c-0.1,0-0.1-0.2-0.1-0.3v-1c0,0,0-0.1,0.1-0.1s0.1,0,0.1,0.1v1
				C10.8,16.4,10.8,16.5,10.8,16.6C10.8,16.5,10.8,16.6,10.8,16.6C10.8,16.6,10.8,16.6,10.8,16.6z"/>
		</g>
		<g>
			<path class="st6" d="M15.4,19.6C15.4,19.6,15.3,19.6,15.4,19.6C15.3,19.6,15.3,19.5,15.4,19.6c0-0.1,0-0.2,0-0.3v-1
				c0,0,0-0.1,0.1-0.1c0,0,0.1,0,0.1,0.1v1C15.5,19.4,15.5,19.6,15.4,19.6C15.4,19.6,15.4,19.6,15.4,19.6z"/>
		</g>
	</g>
	<path class="st7" d="M13.4,7.7C13.4,7.7,13.4,7.7,13.4,7.7C13.4,7.7,13.4,7.7,13.4,7.7c-0.3-1.5-2.5-1.6-2.7-0.1
		c-0.2,1.4,1.6,2.8,2.7,3.9c0,0,0-0.1,0-0.4c0,0.2,0,0.4,0,0.4c1.1-1.1,3-2.4,2.7-3.9C15.9,6.1,13.6,6.2,13.4,7.7z"/>
	<path class="st8" d="M13.3,0.7C13.3,0.7,13.3,0.7,13.3,0.7C13.3,0.7,13.3,0.7,13.3,0.7c-0.2-0.8-1.4-0.9-1.6-0.1
		c-0.1,0.8,0.9,1.6,1.6,2.2c0,0,0-0.1,0-0.2c0,0.1,0,0.2,0,0.2c0.6-0.6,1.7-1.4,1.6-2.2C14.7-0.2,13.4-0.2,13.3,0.7z"/>
	<path class="st9" d="M4.6,4.3C4.6,4.3,4.6,4.3,4.6,4.3C4.6,4.3,4.6,4.3,4.6,4.3c-0.4-0.4-1.1,0-0.9,0.5c0.2,0.5,1.1,0.6,1.7,0.7
		c0,0,0,0-0.1-0.1c0,0.1,0.1,0.1,0.1,0.1C5.5,5,5.8,4.2,5.5,3.8C5.1,3.3,4.4,3.8,4.6,4.3z"/>
	<path class="st9" d="M14.4,14.7C14.4,14.7,14.4,14.7,14.4,14.7C14.4,14.7,14.4,14.7,14.4,14.7c-0.4-0.4-1.1,0-0.9,0.5
		c0.2,0.5,1.1,0.6,1.7,0.7c0,0,0,0-0.1-0.1c0,0.1,0.1,0.1,0.1,0.1c0.2-0.6,0.5-1.4,0.1-1.8C14.9,13.7,14.2,14.2,14.4,14.7z"/>
	<path class="st9" d="M21.4,13.1C21.4,13.1,21.4,13.1,21.4,13.1C21.4,13.1,21.4,13.1,21.4,13.1c-0.4-0.4-1.1,0-0.9,0.5
		c0.2,0.5,1.1,0.6,1.7,0.7c0,0,0,0-0.1-0.1c0,0.1,0.1,0.1,0.1,0.1c0.2-0.6,0.5-1.4,0.1-1.8C21.9,12.1,21.2,12.5,21.4,13.1z"/>
	<path class="st10" d="M25.1,7.7C25.1,7.7,25.1,7.7,25.1,7.7C25.1,7.7,25.1,7.7,25.1,7.7c0.6-0.9-0.5-2-1.3-1.3
		C23,7,23.2,8.6,23.3,9.6c0,0,0.1-0.1,0.2-0.2c-0.1,0.1-0.2,0.2-0.2,0.2c1.1,0,2.6,0.2,3.2-0.7C27.1,8.1,25.9,7.1,25.1,7.7z"/>
	<path class="st10" d="M6.4,11.1C6.4,11.1,6.4,11.1,6.4,11.1C6.4,11.1,6.4,11.1,6.4,11.1c-0.7-0.7-2.1,0-1.6,1c0.4,0.9,2,1,3,1.2
		c0,0-0.1-0.1-0.1-0.2c0.1,0.1,0.1,0.2,0.1,0.2c0.2-1,0.8-2.5,0.1-3.3C7.3,9.2,6,10.2,6.4,11.1z"/>
	<path class="st11" d="M16.2,9.4C16.2,9.4,16.2,9.4,16.2,9.4C16.2,9.4,16.2,9.4,16.2,9.4c0.2-0.7-0.8-1.3-1.2-0.6
		c-0.4,0.6,0.1,1.6,0.4,2.4c0,0,0-0.1,0.1-0.2c-0.1,0.1-0.1,0.2-0.1,0.2c0.7-0.2,1.9-0.5,2.1-1.2C17.7,9.2,16.6,8.7,16.2,9.4z"/>
	<path class="st12" d="M2,18C2,18,2,18,2,18C2,18,2,18,2,18c-0.2,0.4,0.4,0.8,0.7,0.5c0.3-0.3,0.1-1,0-1.4c0,0,0,0-0.1,0.1
		c0-0.1,0.1-0.1,0.1-0.1c-0.5,0.1-1.1,0.1-1.3,0.5C1.1,17.9,1.7,18.3,2,18z"/>
	<path class="st12" d="M20.6,6.2C20.6,6.2,20.6,6.3,20.6,6.2C20.6,6.3,20.6,6.2,20.6,6.2c-0.2-0.4-0.9-0.2-0.8,0.2
		c0.1,0.4,0.7,0.6,1.1,0.8c0,0,0,0,0-0.1c0,0.1,0,0.1,0,0.1c0.2-0.4,0.6-1,0.4-1.4C21.2,5.6,20.6,5.8,20.6,6.2z"/>
</g>
</svg>
