<?xml version="1.0" encoding="utf-8"?>
<!-- Generator: Adobe Illustrator 23.0.5, SVG Export Plug-In . SVG Version: 6.00 Build 0)  -->
<svg version="1.1" id="圖層_1" xmlns="http://www.w3.org/2000/svg" xmlns:xlink="http://www.w3.org/1999/xlink" x="0px" y="0px"
	 viewBox="0 0 42.9 58" style="enable-background:new 0 0 42.9 58;" xml:space="preserve">
<style type="text/css">
	.st0{opacity:0.76;}
	.st1{clip-path:url(#SVGID_2_);}
	.st2{fill:#EF92AA;}
	.st3{fill:#231815;}
	.st4{fill:#FFFFFF;}
	.st5{opacity:0.63;}
	.st6{fill:#7AE2F9;}
	.st7{fill:#999999;}
	.st8{fill:none;}
</style>
<g class="st0">
	<defs>
		<rect id="SVGID_1_" x="2.9" y="17.9" class="st0" width="40" height="40"/>
	</defs>
	<clipPath id="SVGID_2_">
		<use xlink:href="#SVGID_1_"  style="overflow:visible;"/>
	</clipPath>
	<g class="st1">
		<g>
			<g>
				<path class="st2" d="M27.8,41.6c-0.8,0.8-1.6,1.6-2.6,2.1c-0.8,0.4-1.7,0.7-2.6,0.7c-1.1,0-2.1-0.5-2.9-1.3
					c-1.1-1-1.8-2.2-2.3-3.6c-0.8-2.1-1.2-4.2-0.9-6.4c0.4-3.9,3.9-7.2,7.7-7.2c2.3,0,4.1,1.1,5.4,2.9c2.6,3.5,1.7,8-0.7,11.3
					C28.6,40.7,28.2,41.2,27.8,41.6z"/>
				<path class="st3" d="M22.7,44.6C22.6,44.6,22.6,44.6,22.7,44.6c-1.2,0-2.1-0.5-3.1-1.3c-1-0.9-1.7-2.1-2.3-3.7
					c-0.9-2.2-1.2-4.3-1-6.5c0.4-4,4-7.3,7.8-7.3c0,0,0.1,0,0.1,0c2.3,0,4.1,1,5.6,3c2.4,3.2,2.1,7.7-0.7,11.5
					c-0.4,0.5-0.7,0.9-1.1,1.4c-0.9,1-1.8,1.7-2.6,2.1C24.4,44.4,23.5,44.6,22.7,44.6z M24.1,26.2c-3.7,0-7.1,3.2-7.5,7
					c-0.2,2.1,0.1,4.1,0.9,6.3c0.6,1.5,1.3,2.7,2.2,3.5c0.9,0.8,1.8,1.2,2.8,1.2c0,0,0.1,0,0.1,0c0.8,0,1.6-0.2,2.4-0.7
					c0.8-0.5,1.7-1.1,2.6-2.1l0,0c0.4-0.4,0.8-0.9,1.1-1.3c2.1-2.8,3.5-7.4,0.7-11.2C28.2,27.2,26.4,26.2,24.1,26.2
					C24.2,26.2,24.2,26.2,24.1,26.2z"/>
			</g>
			<path class="st4" d="M29.7,34.8c0.2-1.1,0-2.3-0.4-3.4c-0.3-0.8-0.7-1.5-1.3-2.1c-0.1-0.1-0.1-0.1-0.1-0.1
				c-0.1,0-0.2,0.1-0.2,0.2c0,0,0,0.1,0.1,0.3c0.9,1.1,1.5,2.3,1.6,3.7c0,0.4,0,0.8,0,1.2l0,0.4c0,0.1,0,0.2,0.1,0.2
				c0.1,0,0.2-0.1,0.2-0.2L29.7,34.8L29.7,34.8z"/>
			<path class="st4" d="M18.5,38.6c0.3,0.9,0.8,2.1,1.7,3.1c0.4,0.4,0.8,0.8,1.3,1.1c0.1,0,0.2-0.1,0.2-0.2c0,0,0-0.1-0.1-0.1
				c-0.5-0.3-1-0.7-1.5-1.4c-0.5-0.7-0.9-1.5-1.3-2.6c-0.1-0.1-0.1-0.2-0.2-0.2c0,0,0,0,0,0c0,0-0.1,0-0.1,0.1
				C18.4,38.5,18.4,38.5,18.5,38.6z"/>
			<g>
				<path class="st2" d="M20.1,44.8c0.1-0.3,0.2-0.5,0.3-0.7l1.6,0.5c0,0.2-0.1,0.5-0.2,0.8L20.1,44.8z"/>
				<path class="st3" d="M21.9,45.6l-2.1-0.7l0.5-1l1.8,0.6L21.9,45.6z M20.3,44.7l1.4,0.4l0.1-0.5l-1.3-0.4L20.3,44.7z"/>
			</g>
		</g>
		<path class="st3" d="M21.1,62.6C21.1,62.6,21.1,62.6,21.1,62.6c-0.1,0-0.2-0.1-0.2-0.2c0.1-0.8,0.4-1.6,0.7-2.4
			c0.2-0.6,0.4-1.2,0.6-1.8c0.4-1.7,0.1-3.2-0.8-4.4c-0.1-0.2-0.3-0.4-0.5-0.6c-0.3-0.4-0.7-0.9-0.9-1.3c-1.2-2.3-0.4-4.7,0.5-6.7
			c0-0.1,0.1-0.1,0.2-0.1c0.1,0,0.1,0.1,0.1,0.2c-0.9,2-1.7,4.3-0.6,6.4c0.3,0.5,0.6,0.9,0.9,1.3c0.2,0.2,0.3,0.4,0.5,0.6
			c1,1.3,1.2,2.9,0.8,4.7c-0.1,0.6-0.4,1.2-0.6,1.8c-0.3,0.8-0.6,1.5-0.7,2.3C21.3,62.5,21.2,62.6,21.1,62.6z"/>
	</g>
</g>
<g class="st5">
	<g>
		<g>
			<path class="st6" d="M11.5,14.4C11,15,10.4,15.6,9.7,16c-0.6,0.3-1.2,0.5-1.9,0.5c-0.8,0-1.5-0.4-2.1-0.9
				c-0.8-0.7-1.3-1.6-1.7-2.6c-0.6-1.5-0.9-3-0.7-4.6C3.6,5.4,6.2,3.1,9,3.1c1.7,0,3,0.8,3.9,2.1c1.9,2.6,1.2,5.8-0.5,8.2
				C12.1,13.8,11.8,14.1,11.5,14.4z"/>
			<path class="st7" d="M7.8,16.6C7.8,16.6,7.8,16.6,7.8,16.6c-0.8,0-1.6-0.3-2.2-1C4.9,15,4.3,14.1,3.9,13
				c-0.6-1.6-0.9-3.2-0.7-4.7C3.5,5.4,6.1,3,8.9,3c0,0,0,0,0.1,0c1.6,0,3,0.8,4,2.2c1.7,2.3,1.5,5.6-0.5,8.4c-0.3,0.3-0.5,0.7-0.8,1
				c-0.7,0.7-1.3,1.2-1.9,1.6C9.1,16.4,8.5,16.6,7.8,16.6z M8.9,3.2c-2.7,0-5.1,2.3-5.4,5.1c-0.2,1.5,0.1,3,0.7,4.6
				c0.4,1.1,1,1.9,1.6,2.6c0.6,0.6,1.3,0.9,2,0.9c0,0,0,0,0.1,0c0.6,0,1.2-0.2,1.8-0.5c0.6-0.3,1.2-0.8,1.9-1.5l0,0
				c0.3-0.3,0.6-0.6,0.8-1c1.5-2,2.5-5.4,0.5-8.1C11.8,3.9,10.5,3.2,8.9,3.2C8.9,3.2,8.9,3.2,8.9,3.2z"/>
		</g>
		<path class="st4" d="M12.9,9.5c0.1-0.8,0-1.7-0.3-2.5c-0.2-0.6-0.5-1.1-1-1.5c-0.1-0.1-0.1-0.1-0.1-0.1c-0.1,0-0.1,0.1-0.1,0.1
			c0,0,0,0.1,0.1,0.2c0.7,0.8,1.1,1.7,1.1,2.7c0,0.3,0,0.6,0,0.9l0,0.3c0,0,0,0.2,0.1,0.2c0.1,0,0.1-0.1,0.1-0.1L12.9,9.5L12.9,9.5z
			"/>
		<path class="st4" d="M4.8,12.2C5,12.9,5.4,13.8,6,14.5c0.3,0.3,0.6,0.6,1,0.8c0.1,0,0.1-0.1,0.2-0.1c0,0,0,0-0.1-0.1
			c-0.4-0.2-0.7-0.5-1.1-1c-0.4-0.5-0.7-1.1-1-1.9C5,12.1,4.9,12,4.9,12c0,0,0,0,0,0c0,0-0.1,0-0.1,0.1C4.8,12.1,4.8,12.2,4.8,12.2z
			"/>
		<g>
			<path class="st6" d="M5.9,16.7c0.1-0.2,0.2-0.4,0.2-0.5l1.1,0.4c0,0.2-0.1,0.4-0.1,0.6L5.9,16.7z"/>
			<path class="st7" d="M7.3,17.3l-1.5-0.5l0.3-0.7l1.3,0.4L7.3,17.3z M6.1,16.7l1,0.3l0.1-0.3l-0.9-0.3L6.1,16.7z"/>
		</g>
	</g>
	<path class="st7" d="M6.7,29.6C6.7,29.6,6.7,29.6,6.7,29.6c-0.1,0-0.1-0.1-0.1-0.1c0.1-0.6,0.3-1.2,0.5-1.7
		c0.2-0.4,0.3-0.8,0.4-1.3c0.3-1.2,0.1-2.3-0.6-3.2c-0.1-0.1-0.2-0.3-0.3-0.4c-0.2-0.3-0.5-0.6-0.7-1C5,20.2,5.6,18.5,6.3,17
		c0-0.1,0.1-0.1,0.2-0.1c0.1,0,0.1,0.1,0.1,0.2c-0.7,1.4-1.3,3.1-0.4,4.6c0.2,0.3,0.4,0.6,0.6,0.9C6.9,22.8,7,23,7.1,23.1
		c0.7,1,0.9,2.1,0.6,3.4c-0.1,0.5-0.3,0.9-0.4,1.3c-0.2,0.6-0.4,1.1-0.5,1.7C6.8,29.6,6.8,29.6,6.7,29.6z"/>
</g>
<rect x="-11" y="-2.8" class="st8" width="32.2" height="32.2"/>
</svg>
