<?xml version="1.0" encoding="utf-8"?>
<!-- Generator: Adobe Illustrator 23.0.5, SVG Export Plug-In . SVG Version: 6.00 Build 0)  -->
<svg version="1.1" id="圖層_1" xmlns="http://www.w3.org/2000/svg" xmlns:xlink="http://www.w3.org/1999/xlink" x="0px" y="0px"
	 viewBox="0 0 40 40" style="enable-background:new 0 0 40 40;" xml:space="preserve">
<style type="text/css">
	.st0{fill:#F1F1F1;}
	.st1{fill:#FFFFFF;fill-opacity:0;}
	.st2{fill:#DCDCDC;}
	.st3{fill:#A5A5A5;}
</style>
<rect x="-0.1" y="-0.1" class="st0" width="40" height="40"/>
<rect class="st1" width="40" height="40"/>
<g>
	<g>
		<circle class="st2" cx="18.5" cy="12.9" r="2.8"/>
		<path class="st2" d="M19.1,16.4c2.5,0.3,4.4,2.2,4.7,4.7v0.1H13.2v-0.1c0.2-1.4,0.9-2.7,2-3.6C16.3,16.7,17.6,16.3,19.1,16.4z"/>
	</g>
</g>
<g>
	<g>
		<path class="st3" d="M9.6,28.2c0.5,0.7,1.3,1.4,2,1.7c-0.1,0-0.1,0.1-0.2,0.2c-0.7-0.3-1.5-1.1-2-1.8v2.1H9.2v-2.1
			c-0.5,0.7-1.3,1.4-2,1.8c0-0.1-0.1-0.1-0.2-0.2c0.7-0.3,1.5-1,2-1.7H7.2V28h2v-1H7.5v-0.2h1.7v-0.9h0.2v0.9h1.7V27H9.5v1h2.1v0.2
			H9.6z"/>
		<path class="st3" d="M17.1,29.9v0.2h-4.4v-0.2h1.9v-4h0.3v1.6h1.9v0.2h-1.9v2.1H17.1z"/>
		<path class="st3" d="M19.5,26c-0.2,0.4-0.3,0.8-0.5,1.1v3.3h-0.2v-3c-0.2,0.3-0.4,0.5-0.6,0.8c0,0-0.1-0.2-0.1-0.2
			c0.5-0.5,1-1.3,1.3-2.1L19.5,26z M21.9,29.1h0.8v0.2h-0.8v0.8c0,0.2,0,0.2-0.2,0.3c-0.1,0-0.4,0-0.8,0c0-0.1-0.1-0.2-0.1-0.2
			c0.4,0,0.6,0,0.7,0c0.1,0,0.1,0,0.1-0.1v-0.8h-2.4v-0.2h2.4v-0.4c-0.8,0-1.7,0.1-2.2,0.1l0-0.2c0.4,0,0.9,0,1.5,0v-0.4h-1.2v-1.3
			h1.2v-0.3h-1.4v-0.2h1.4v-0.4h0.2v0.4h1.5v0.2h-1.5v0.3h1.3v1.3h-0.5c0.3,0.2,0.6,0.5,0.8,0.6l-0.2,0.1c-0.1-0.1-0.2-0.2-0.3-0.3
			v0l-0.3,0V29.1z M19.9,27.4h1V27h-1V27.4z M20.8,28v-0.4h-1V28H20.8z M20,29.4c0.2,0.2,0.5,0.5,0.7,0.6l-0.2,0.1
			c-0.1-0.2-0.4-0.5-0.7-0.7L20,29.4z M21.1,27v0.4h1V27H21.1z M22.1,27.6h-1V28h1V27.6z M21.1,28.5c0.3,0,0.6,0,0.9,0
			c-0.1-0.1-0.3-0.2-0.4-0.3l0.1-0.1h-0.6V28.5z"/>
		<path class="st3" d="M27.9,26.1v4.3h-0.2v-0.2H24v0.2h-0.2v-4.3H27.9z M27.7,30v-3.7H24V30H27.7z M27.4,27.6v0.2h-3.1v-0.2h1.4
			v-0.3h-0.9v-0.8h2v0.8h-0.9v0.3H27.4z M24.7,28.1H27v1.6h-2.3V28.1z M24.9,29.5h1.9v-1.2h-1.9V29.5z M25.1,27.2h1.5v-0.4h-1.5
			V27.2z M25.3,28.5h1.1v0.7h-1.1V28.5z M25.5,29.1h0.7v-0.4h-0.7V29.1z"/>
		<path class="st3" d="M32.6,28.3v2.1h-0.2v-1.9h-2.3c-0.1,0.7-0.3,1.3-0.7,1.9c0-0.1-0.1-0.1-0.2-0.2c0.6-0.8,0.7-1.7,0.7-2.6v-1.7
			h0.2v1.3h2v-1.3h0.2v1.5h-2.3v0.2c0,0.2,0,0.5,0,0.7H32.6z"/>
	</g>
</g>
</svg>
