<?xml version="1.0" encoding="utf-8"?>
<!-- Generator: Adobe Illustrator 23.0.5, SVG Export Plug-In . SVG Version: 6.00 Build 0)  -->
<svg version="1.1" id="圖層_1" xmlns="http://www.w3.org/2000/svg" xmlns:xlink="http://www.w3.org/1999/xlink" x="0px" y="0px"
	 viewBox="0 0 90.1 120.8" style="enable-background:new 0 0 90.1 120.8;" xml:space="preserve">
<style type="text/css">
	.st0{fill:#F092AB;}
</style>
<g>
	<path class="st0" d="M45,0C20.2,0,0,20.2,0,45c0,24.9,20.2,45,45,45s45-20.2,45-45C90.1,20.2,69.9,0,45,0z M33.6,63.5V26.6l32,18.5
		L33.6,63.5z"/>
	<g>
		<path class="st0" d="M2.4,120.8v-17.2h5.6c2.1,0,3.5,0.1,4.1,0.3c1,0.3,1.8,0.8,2.5,1.7s1,2,1,3.3c0,1.1-0.2,1.9-0.6,2.7
			s-0.9,1.3-1.5,1.7s-1.2,0.7-1.8,0.8c-0.8,0.2-2,0.2-3.6,0.2H5.8v6.5H2.4z M5.8,106.6v4.9h1.9c1.4,0,2.3-0.1,2.7-0.3
			s0.8-0.5,1.1-0.8s0.4-0.8,0.4-1.3c0-0.6-0.2-1.1-0.6-1.5s-0.8-0.7-1.4-0.8c-0.4-0.1-1.2-0.1-2.5-0.1H5.8z"/>
		<path class="st0" d="M26.2,120.8v-17h3.5v14.1h8.6v2.9H26.2z"/>
		<path class="st0" d="M63.9,120.8h-3.8l-1.5-3.9h-6.9l-1.4,3.9h-3.7l6.7-17.2H57L63.9,120.8z M57.5,114l-2.4-6.4l-2.3,6.4H57.5z"/>
		<path class="st0" d="M77.9,120.8v-7.2l-6.3-9.9h4.1l4,6.8l4-6.8h4l-6.3,10v7.2H77.9z"/>
	</g>
</g>
</svg>
