<?xml version="1.0" encoding="utf-8"?>
<!-- Generator: Adobe Illustrator 23.0.5, SVG Export Plug-In . SVG Version: 6.00 Build 0)  -->
<svg version="1.1" id="圖層_1" xmlns="http://www.w3.org/2000/svg" xmlns:xlink="http://www.w3.org/1999/xlink" x="0px" y="0px"
	 viewBox="0 0 217.2 134" style="enable-background:new 0 0 217.2 134;" xml:space="preserve">
<style type="text/css">
	.st0{opacity:0.5;}
	.st1{fill:#F092AB;}
</style>
<rect class="st0" width="217.2" height="134"/>
<g>
	<path class="st1" d="M108.6,34.9c-13.3,0-24,10.7-24,24c0,13.3,10.7,24,24,24s24-10.7,24-24C132.6,45.7,121.9,34.9,108.6,34.9z
		 M102.6,68.8V49.1l17,9.8L102.6,68.8z"/>
	<g>
		<path class="st1" d="M85.9,99.3v-9.2h3c1.1,0,1.9,0,2.2,0.1c0.5,0.1,1,0.4,1.3,0.9c0.4,0.5,0.5,1.1,0.5,1.8c0,0.6-0.1,1-0.3,1.4
			c-0.2,0.4-0.5,0.7-0.8,0.9c-0.3,0.2-0.6,0.4-1,0.4c-0.4,0.1-1.1,0.1-1.9,0.1h-1.2v3.5H85.9z M87.8,91.7v2.6h1c0.7,0,1.2,0,1.5-0.1
			c0.2-0.1,0.4-0.2,0.6-0.4C91,93.5,91,93.3,91,93c0-0.3-0.1-0.6-0.3-0.8c-0.2-0.2-0.4-0.4-0.7-0.4c-0.2,0-0.7-0.1-1.3-0.1H87.8z"/>
		<path class="st1" d="M98.6,99.3v-9.1h1.8v7.5h4.6v1.5H98.6z"/>
		<path class="st1" d="M118.7,99.3h-2l-0.8-2.1h-3.7l-0.8,2.1h-2l3.6-9.2h2L118.7,99.3z M115.3,95.7l-1.3-3.4l-1.2,3.4H115.3z"/>
		<path class="st1" d="M126.2,99.3v-3.9l-3.4-5.3h2.2l2.2,3.6l2.1-3.6h2.1l-3.4,5.3v3.8H126.2z"/>
	</g>
</g>
</svg>
