<?xml version="1.0" encoding="utf-8"?>
<!-- Generator: Adobe Illustrator 23.0.5, SVG Export Plug-In . SVG Version: 6.00 Build 0)  -->
<svg version="1.1" id="圖層_1" xmlns="http://www.w3.org/2000/svg" xmlns:xlink="http://www.w3.org/1999/xlink" x="0px" y="0px"
	 viewBox="0 0 32.4 26.3" style="enable-background:new 0 0 32.4 26.3;" xml:space="preserve">
<style type="text/css">
	.st0{fill:#F092AB;}
</style>
<g>
	<path class="st0" d="M27.9,15.7v-3.8c0-1-0.8-1.8-1.8-1.8h-0.9c0.5-0.5,0.9-1.2,0.9-2c0-0.8-0.3-1.5-0.9-2c-1.2-1.1-3-1.1-4.2,0
		l-4,3.8l-4-3.8C12,4.9,10.2,4.9,9,6C8.4,6.6,8.1,7.3,8.1,8c0,0.8,0.3,1.5,0.9,2H8.2c-1,0-1.8,0.8-1.8,1.8v3.8
		c0,0.9,0.7,1.7,1.5,1.8V24c0,1.3,1.1,2.3,2.5,2.3h13.5c1.4,0,2.5-1,2.5-2.3v-6.6C27.2,17.3,27.9,16.6,27.9,15.7z M7.5,11.8
		c0-0.4,0.3-0.7,0.7-0.7h8.3v5.3H8.2c-0.4,0-0.7-0.3-0.7-0.7V11.8z M18.1,10l3.5-3.4c0.4-0.4,0.9-0.6,1.5-0.6c0.6,0,1.1,0.2,1.5,0.6
		C25,7,25.3,7.5,25.3,8c0,1.1-0.9,2-2.1,2H18.1z M11.1,10C10,10,9,9.1,9,8c0-0.5,0.2-1,0.6-1.4c0.4-0.4,0.9-0.6,1.5-0.6
		s1.1,0.2,1.5,0.6l3.5,3.4H11.1z M9.1,17.5h7.5v7.8h-6.1c-0.8,0-1.4-0.6-1.4-1.2V17.5z M17.8,17.5h7.5V24c0,0.7-0.6,1.2-1.4,1.2
		h-6.1V17.5z M26.8,15.7c0,0.4-0.3,0.7-0.7,0.7h-8.3v-5.3h8.3c0.4,0,0.7,0.3,0.7,0.7V15.7z"/>
	<path class="st0" d="M32.4,18.8l-1.8,0.2l-1.2-1.3l-0.3,1.7l-1.6,0.7l1.6,0.9l0.2,1.8l1.3-1.2l1.7,0.4l-0.8-1.6L32.4,18.8z
		 M31.4,21.3l-1-0.2l-0.8,0.7l-0.1-1l-0.9-0.5l0.9-0.4l0.2-1l0.7,0.8l1-0.1L31,20.4L31.4,21.3z"/>
	<path class="st0" d="M14.3,4.2l1.1-1l1.4,0.3l-0.6-1.3l0.7-1.3l-1.5,0.2l-1-1.1l-0.3,1.5l-1.4,0.6l1.3,0.7L14.3,4.2z M14.6,1.8
		l0.1-0.7l0.5,0.5L16,1.5l-0.4,0.6l0.3,0.7l-0.7-0.2l-0.5,0.5l-0.1-0.7L14,2.1L14.6,1.8z"/>
	<path class="st0" d="M2.6,12.5l-1-1.1l-0.3,1.5L0,13.5l1.3,0.7l0.1,1.5l1.1-1L4,15l-0.6-1.3l0.7-1.3L2.6,12.5z M3.1,14.3l-0.7-0.2
		l-0.5,0.5l-0.1-0.7l-0.6-0.4l0.7-0.3l0.1-0.7l0.5,0.5L3.2,13l-0.4,0.6L3.1,14.3z"/>
</g>
</svg>
