<?xml version="1.0" encoding="utf-8"?>
<!-- Generator: Adobe Illustrator 23.0.5, SVG Export Plug-In . SVG Version: 6.00 Build 0)  -->
<svg version="1.1" id="圖層_1" xmlns="http://www.w3.org/2000/svg" xmlns:xlink="http://www.w3.org/1999/xlink" x="0px" y="0px"
	 viewBox="0 0 480 480" style="enable-background:new 0 0 480 480;" xml:space="preserve">
<style type="text/css">
	.st0{fill:#F092AB;}
</style>
<path class="st0" d="M211.3,52.4c-2.4-1.8-5.9-1.3-7.7,1.1c-0.9,1.2-1.3,2.6-1,4.1c0.2,1.5,1,2.7,2.1,3.6c13.2,10,23.5,23.2,30,38.4
	c5.1,11.5,7.7,23.8,7.8,36.4c0,3,2.5,5.5,5.5,5.5s5.5-2.5,5.5-5.5c-0.1-14.1-3-27.8-8.7-40.7C237.6,78.3,226,63.5,211.3,52.4z"/>
<path class="st0" d="M160,34.5c-3,0-5.5,2.5-5.5,5.5s2.5,5.5,5.5,5.5h0c7.6,0,15.1,1.3,22.2,3.8c2.9,1,6-0.6,7-3.4
	c1-2.9-0.6-6-3.4-7C177.5,36,168.8,34.5,160,34.5z"/>
<path class="st0" d="M371,116.8c-0.9-0.7-1.9-1-3-1c-1.5,0-3,0.7-4,2c-1.7,2.2-1.2,5.3,1,7c13.2,10,23.7,23.3,30.2,38.6
	c5.1,11.6,7.8,23.9,7.8,36.6c0,2.8,2.2,5,5,5s5-2.2,5-5c-0.1-14-3-27.7-8.7-40.5C397.1,142.6,385.6,127.8,371,116.8z"/>
<path class="st0" d="M315,104c0,2.8,2.2,5,5,5c7.6,0,15.2,1.3,22.4,3.8c2.6,0.9,5.4-0.5,6.3-3.1c0.4-1.3,0.3-2.6-0.2-3.8
	c-0.6-1.2-1.6-2.1-2.9-2.5l0,0c-8.3-2.8-16.9-4.3-25.6-4.3C317.3,99,315,101.2,315,104z"/>
<path class="st0" d="M410.5,312.2c21.9-33.6,34.4-72.5,36-112.5c-0.2-71.4-59.3-134.2-126.6-134.2h-0.1c-16,0.1-31.6,3.5-46.2,10.1
	l-1.4,0.6l-0.6-1.3C251.2,30.9,208.4,2.8,160,1.5C92.6,1.5,33.5,64.3,33.5,136c0,61.3,42.1,146.5,98.6,168.8l1.1,0.4l-3.6,21.7
	c-0.3,1.9,0.2,3.8,1.5,5.3c1.2,1.5,3,2.3,5,2.3h15l-5.7,17.2c-5.3,15.9-2.9,33.6,6.4,47.5l5.9,8.9c7.1,10.6,8.9,24.1,4.8,36.2
	l-8.6,25.7c-1.1,3.4,0.7,7.1,4.1,8.2c1.6,0.5,3.4,0.4,5-0.4c1.6-0.8,2.7-2.1,3.3-3.8l8.5-25.7c5.3-15.9,2.9-33.6-6.4-47.5l-5.9-8.9
	c-7.1-10.6-8.9-24.1-4.9-36.2l7.1-21.3H184c1.9,0,3.7-0.8,5-2.3c1.2-1.5,1.8-3.4,1.5-5.3l-3.6-21.7l1.1-0.4
	c9.6-3.9,18.6-9.2,26.6-15.7l1.5-1.2l0.8,1.7c19.5,39.2,46.9,68.1,75.2,79.3l1.1,0.4l-3.6,21.6c-0.3,1.9,0.2,3.8,1.5,5.3
	c1.2,1.5,3,2.3,5,2.3h15l-5.7,17.2c-5.3,15.9-2.9,33.6,6.4,47.5l5.9,8.9c0.6,0.9,1.3,2,1.8,3.1c1.1,2.1,3.3,3.4,5.7,3.4c0,0,0,0,0,0
	c1.1,0,2.1-0.3,3.1-0.8c3.2-1.7,4.3-5.7,2.6-8.8c-0.8-1.4-1.6-2.7-2.4-4l-5.9-8.9c-7.1-10.6-8.9-24.1-4.9-36.1l7.1-21.3H344
	c1.9,0,3.7-0.8,5-2.3c1.2-1.5,1.8-3.4,1.5-5.3l-3.6-21.5l1.1-0.4C370.7,360.1,392.4,340.5,410.5,312.2z M143.7,321.5l2.1-12.4
	l1.5,0.3c0.2,0,0.4,0.1,0.7,0.1c0.2,0,0.5,0.1,0.7,0.1c0.3,0.1,0.7,0.1,1,0.1l0.7,0.1c3.2,0.5,6.4,0.7,9.6,0.7h0.2
	c3.2,0,6.4-0.3,9.5-0.7c0.2,0,0.5-0.1,0.7-0.1c0.3,0,0.7-0.1,1-0.1c0.3,0,0.6-0.1,0.8-0.1c0.2,0,0.4,0,0.6-0.1l1.5-0.3l2.1,12.4
	H143.7z M213.8,272.6L213.8,272.6c-10.1,10.1-22.6,17.7-36.2,22.2c-5.7,1.8-11.7,2.7-17.7,2.7c-3,0-5.9-0.2-8.8-0.7
	c-3-0.4-5.9-1.1-8.8-2c-53.1-16-95.8-99.9-95.8-158.8c0-64.7,53-121.5,113.5-121.5c43.5,0,84,28.6,103.2,72.8
	c6.8,15.4,10.3,31.8,10.3,48.7c0,5.9-0.4,11.9-1.2,17.8c-0.9,7-2.3,14.1-4,20.9C259.3,211.6,240.5,245.5,213.8,272.6z M303.7,385.5
	l2.1-12.4l1.5,0.3c0.5,0.1,1.1,0.2,1.6,0.2c0.4,0,0.7,0.1,1.1,0.1l0.5,0.1c0.6,0.1,1.2,0.2,1.7,0.2c2.6,0.3,5.3,0.5,7.9,0.5h0.2
	c4.2,0,8.4-0.4,12.5-1.1l1.5-0.3l2.1,12.4H303.7z M337.2,358.9c-2.6,0.8-5.2,1.4-7.9,1.8l-1.1,0.2c-2.7,0.4-5.5,0.6-8.3,0.6
	c-2.8,0-5.5-0.2-8.2-0.6c-0.5-0.1-0.9-0.2-1.3-0.2c-0.2,0-0.5-0.1-0.7-0.1c-2.2-0.4-4.5-0.9-6.6-1.5c-15.4-4.4-30.4-14.6-44.6-30.3
	c-12-13.3-23.1-30.2-31.9-48.9l-0.5-1l0.7-0.7c0.3-0.3,0.5-0.5,0.8-0.8c0.2-0.2,0.4-0.5,0.6-0.7c1-1,2-2.1,2.9-3.2
	c1.2-1.3,2.3-2.6,3.4-3.9c1-1.1,1.9-2.3,2.8-3.5c1.1-1.3,2.2-2.7,3.3-4.2c0.9-1.2,1.9-2.5,2.8-3.7c1-1.4,2.1-2.9,3.1-4.4
	c1-1.4,1.8-2.7,2.7-4c0.9-1.3,1.8-2.8,2.9-4.6c0.9-1.4,1.7-2.7,2.5-4.1c0.9-1.6,1.8-3.2,2.7-4.8l2.4-4.3c0.7-1.4,1.5-2.8,2.2-4.3
	l0.3-0.6c0.7-1.5,1.5-3,2.2-4.4c0.8-1.7,1.6-3.4,2.3-5l0.5-1c0.5-1.2,1-2.3,1.5-3.5c0.6-1.3,1.1-2.7,1.7-4l1.1-2.6
	c0.4-1,0.8-2,1.2-3.1c0.6-1.6,1.1-3.1,1.7-4.7l0.4-1.1c0.5-1.3,0.9-2.7,1.4-4c0.5-1.6,1-3.2,1.5-4.8l0.5-1.6c0.4-1.2,0.7-2.3,1-3.5
	c0.4-1.5,0.8-3.1,1.2-4.7l0.2-0.7c0.1-0.4,0.2-0.9,0.3-1.3c0.3-1,0.5-2,0.8-3.1c0.4-1.9,0.8-3.8,1.2-5.5l0.3-1.4
	c0.2-1,0.4-1.9,0.6-2.9c0.3-1.6,0.5-3.2,0.7-4.7l0.1-1c0.1-0.5,0.2-1,0.2-1.5c0.1-0.8,0.3-1.6,0.4-2.4c0.2-1.9,0.4-3.9,0.6-5.7
	l0-0.5c0-0.5,0.1-0.9,0.1-1.4c0.1-0.6,0.1-1.2,0.2-1.8c0.2-3.2,0.3-6.2,0.3-9.1c0-4.1-0.2-8.3-0.7-12.8c-0.1-0.8-0.2-1.7-0.3-2.5
	c-0.1-0.6-0.2-1.1-0.2-1.7c-0.3-2.6-0.8-5.6-1.4-8.6c-0.2-1.2-0.6-2.5-0.9-3.8l-0.3-1.1c-0.7-3-1.4-5.5-2.1-7.8
	c-0.5-1.6-1-3.2-1.6-5c-0.2-0.5-0.3-1-0.5-1.5c-0.2-0.7-0.4-1.4-0.7-2l-0.5-1.3l1.3-0.6c13-5.8,26.8-8.8,41-8.8h0.1
	c60.4,0,113.5,56.7,113.6,121.3c-1.6,37.6-13.4,74-33.9,105.4C381.5,333.3,359.4,352.4,337.2,358.9z"/>
</svg>
