<?xml version="1.0" encoding="utf-8"?>
<!-- Generator: Adobe Illustrator 23.0.5, SVG Export Plug-In . SVG Version: 6.00 Build 0)  -->
<svg version="1.1" id="圖層_1" xmlns="http://www.w3.org/2000/svg" xmlns:xlink="http://www.w3.org/1999/xlink" x="0px" y="0px"
	 viewBox="0 0 445 445.8" style="enable-background:new 0 0 445 445.8;" xml:space="preserve">
<style type="text/css">
	.st0{fill:#F092AB;}
</style>
<g>
	<path class="st0" d="M344.5,180.9c-14.1-14.1-36.9-14.1-50.9,0L281,193.4l-3.4-3.4c11.8-10.3,14.8-27.4,7.3-41.1
		c0.2-0.5,0.4-1,0.5-1.5l3.3-15.4c2.9-13.5-0.7-27.6-9.8-38.1l-29.6-34.1c-8.5-9.9-21-15.4-34-15.1L94.3,47L0,0v17.9l88.9,44.3
		c1.2,0.6,2.4,0.9,3.7,0.8l122.9-2.3c0.2,0,0.4,0,0.5,0c8.1,0,15.8,3.5,21.1,9.6l29.6,34.1c5.8,6.7,8.1,15.6,6.2,24.3l-1.5,7.1
		c-2.7-1.4-5.6-2.5-8.6-3.1l-14.6-3.1l1.7-7.8c0.9-4.3-1.8-8.6-6.1-9.5c-4.3-0.9-8.6,1.8-9.5,6.1l-1.7,7.8l-11.5-2.5l-9-22.8
		c-1.6-4.1-6.3-6.1-10.4-4.5c-4.1,1.6-6.1,6.3-4.5,10.4l5.1,12.9l-16.8-3.6c-4.3-1-8.6,1.7-9.6,6s1.7,8.6,6,9.6c0.1,0,0.1,0,0.2,0
		l77.3,16.6c9.2,2,15.1,11.1,13.1,20.3c-1.9,8.6-10,14.4-18.8,13.4l-65-7.9c-1.6-0.2-3.1,0.1-4.5,0.8l-6.2,3.1c0,0,0,0-0.1,0
		c-1.7,0.6-3.3,1.4-4.8,2.4L160,187c-12.1,6-25.9,7.8-39.2,5.1c-0.2-0.1-0.5-0.1-0.7-0.2c-0.5-0.1-1-0.2-1.5-0.3
		c-17.4-3.8-33-13.3-44.3-27.1l0,0l-13.2-16.2c-0.8-1-1.8-1.7-2.9-2.2L0,119.7v17.6l49.9,22.6l12,14.7
		c13.6,16.6,32.4,28.1,53.3,32.6c0.4,0.1,0.8,0.2,1.2,0.3c0.1,0,0.3,0.1,0.4,0.1c5.3,1.1,10.6,1.7,16,1.7c0.4,0,0.7,0,1.1,0
		c5.5,11,17.6,17.1,29.8,15l9.5-1.6c5.5,3.9,12.4,5.4,19.1,4.3l19.1-3.3c1.6,3,3.7,5.7,6.1,8l57.8,57.8c3.1,3.1,8.2,3.1,11.3,0
		c0,0,0,0,0,0l57.8-57.8C358.5,217.7,358.5,194.9,344.5,180.9z M161.1,208.5c-3,0.5-6.1-0.1-8.6-1.8h0c3.3-0.9,6.6-2,9.8-3.3
		c0.1,1.6,0.4,3.2,0.8,4.8L161.1,208.5z M207.1,208.3l-17.4,3c-3.8,0.7-7.7-1-9.8-4.3c-1.7-2.6-2.1-5.8-1.1-8.7
		c0.5-1.6,1.5-3.1,2.8-4.2l7.7-3.8l20.4,2.5c-1.8,4.3-2.7,9-2.7,13.6C207,207,207,207.6,207.1,208.3z M333.1,220.5L281,272.6
		l-52.1-52.1c-6.9-6.9-7.8-17.8-2.2-25.7l25.2,3.1c3.5,0.4,7,0.3,10.5-0.4l12.9,12.9c3.1,3.1,8.2,3.1,11.3,0c0,0,0,0,0,0l18.2-18.2
		c7.8-7.8,20.5-7.8,28.3,0C341,200,341,212.7,333.1,220.5z"/>
	<path class="st0" d="M445,411.3h-30c-0.7,0-1.4,0.1-2,0.3l-122.4,16.2c-16.7,4.4-34.5,1.6-49.1-7.7l-125.6-66.5
		c-4.8-3.1-7.7-8.3-7.6-14v-0.5c0-9.1,7.3-16.4,16.4-16.5c1.8,0,3.6,0.3,5.3,0.9l63.5,26.7c4.9,12,16.6,19.8,29.6,19.8h80
		c4.4,0,8-3.6,8-8s-3.6-8-8-8h-80c-7.3,0-13.7-4.9-15.5-12v0c-2.2-8.6,3-17.3,11.6-19.5c1.3-0.3,2.6-0.5,3.9-0.5h80
		c2.1,0,4.2-0.8,5.7-2.3l0.8-0.8c27.4-27.3,71.7-27.3,99.1,0l0.8,0.8c1.5,1.5,3.5,2.3,5.7,2.3h30v-16h-26.7
		c-33.2-31.5-85.3-31.5-118.6,0H223c-15.6,0-29,11.3-31.6,26.7L135,308.3c-17-5.7-35.4,3.5-41.1,20.5c-1.1,3.3-1.7,6.8-1.7,10.3v0.5
		c-0.1,11.1,5.6,21.5,15,27.5l125.6,66.5c18.3,11.6,40.7,15.1,61.7,9.6l121.4-16h29V411.3z"/>
</g>
</svg>
