<?xml version="1.0" encoding="utf-8"?>
<!-- Generator: Adobe Illustrator 23.0.5, SVG Export Plug-In . SVG Version: 6.00 Build 0)  -->
<svg version="1.1" id="圖層_1" xmlns="http://www.w3.org/2000/svg" xmlns:xlink="http://www.w3.org/1999/xlink" x="0px" y="0px"
	 viewBox="0 0 22.4 22.4" style="enable-background:new 0 0 22.4 22.4;" xml:space="preserve">
<style type="text/css">
	.st0{stroke:#FFFFFF;stroke-width:0.4;stroke-miterlimit:10;}
</style>
<g id="Layer_7">
	<path class="st0" d="M14.9,10.9c2.6-2.1,3-5.9,0.9-8.4c-2.1-2.6-5.9-3-8.4-0.9s-3,5.9-0.9,8.4c0.3,0.3,0.6,0.7,0.9,0.9
		c-4.3,1.6-7.2,5.7-7.2,10.3v1h22v-1C22.2,16.6,19.3,12.5,14.9,10.9z M7.2,6.2c0-2.2,1.8-4,4-4s4,1.8,4,4s-1.8,4-4,4
		S7.2,8.4,7.2,6.2z M2.3,20.2c0.5-4.9,5-8.5,9.9-8c4.2,0.5,7.5,3.8,8,8H2.3z"/>
</g>
</svg>
