<?xml version="1.0" encoding="utf-8"?>
<!-- Generator: Adobe Illustrator 23.0.5, SVG Export Plug-In . SVG Version: 6.00 Build 0)  -->
<svg version="1.1" id="Capa_1" xmlns="http://www.w3.org/2000/svg" xmlns:xlink="http://www.w3.org/1999/xlink" x="0px" y="0px"
	 viewBox="0 0 512 512" style="enable-background:new 0 0 512 512;" xml:space="preserve">
<path d="M312.1,347.7l3.2-2.5L474.2,504l30.8-30.8L346.2,314.4l2.5-3.2c24.6-32.6,38.2-72.9,38.2-113.6C386.8,93.5,302.3,9,198.4,9
	c-50.2,0-97.5,19.6-133.2,55.3C29.5,99.9,9.9,147.2,10,197.4c0,103.9,84.5,188.5,188.5,188.5C239.2,385.9,279.6,372.3,312.1,347.7z
	 M198.3,342.2c-79.8,0-144.8-64.9-144.8-144.8c0-38.6,15.1-75,42.5-102.4c27.4-27.3,63.6-42.4,102-42.4c0.1,0,0.1,0,0.2,0
	c79.8,0,144.8,64.9,144.8,144.8C343,277.3,278.1,342.2,198.3,342.2z"/>
</svg>
