<?xml version="1.0" encoding="utf-8"?>
<!-- Generator: Adobe Illustrator 23.0.5, SVG Export Plug-In . SVG Version: 6.00 Build 0)  -->
<svg version="1.1" id="Capa_1" xmlns="http://www.w3.org/2000/svg" xmlns:xlink="http://www.w3.org/1999/xlink" x="0px" y="0px"
	 viewBox="0 0 415.4 410.4" style="enable-background:new 0 0 415.4 410.4;" xml:space="preserve">
<g>
	<circle cx="159.2" cy="364.3" r="45.2"/>
	<path d="M314.7,319.1L314.7,319.1c-24.9,0-45.2,20.2-45.2,45.2s20.2,45.2,45.2,45.2s45.2-20.2,45.2-45.2S339.6,319.1,314.7,319.1z"
		/>
	<path d="M395.2,272.9H136.5l-5.1-29.7h215c6.3,0,12-3.8,14.3-9.7l51.2-129c3.1-7.9-0.8-16.8-8.7-19.9c-1.8-0.7-3.7-1.1-5.7-1.1
		H104.8L92.5,12.8C91.3,5.3,84.7-0.1,77.2,0H18.3C9.8,0,2.9,6.9,2.9,15.4s6.9,15.4,15.4,15.4h46.1l44,260.1
		c1.3,7.5,7.8,12.9,15.4,12.8h271.4c8.5,0,15.4-6.9,15.4-15.4C410.5,279.8,403.7,272.9,395.2,272.9z"/>
</g>
</svg>
