<?xml version="1.0" encoding="utf-8"?>
<!-- Generator: Adobe Illustrator 23.0.5, SVG Export Plug-In . SVG Version: 6.00 Build 0)  -->
<svg version="1.1" id="圖層_1" xmlns="http://www.w3.org/2000/svg" xmlns:xlink="http://www.w3.org/1999/xlink" x="0px" y="0px"
	 viewBox="0 0 646 385.8" style="enable-background:new 0 0 646 385.8;" xml:space="preserve">
<style type="text/css">
	.st0{opacity:0.7;}
	.st1{opacity:0.7;fill:#D3D3D3;}
	.st2{fill:#D3D3D3;}
</style>
<g class="st0">
	<polygon class="st1" points="41.2,229.5 105.5,229.5 95.7,242.4 82.1,242.4 83.1,283.3 61.8,294.8 63.2,242.4 50.3,241.4 	"/>
	<polygon class="st1" points="113.9,229.5 169.8,229.5 159.3,241.7 125.8,241.7 126.1,249.9 164.2,249.9 152.3,262.2 128.2,262.2 
		127.5,270 169.8,270 158.2,283.7 113.9,283.7 	"/>
	<polygon class="st1" points="178.5,227.1 195.6,227.1 210.7,244.5 226.7,227.1 243.8,227.1 222.2,254.3 245.9,283.7 224.2,283.7 
		210.3,267.3 193.5,283.7 174.7,283.7 201.2,255.4 	"/>
	<path class="st1" d="M417.8,226.7h-52.4v56.6h52.8l12.9-28.3L417.8,226.7z M405.6,266.9h-24.1V241h24.5l7.3,14L405.6,266.9z"/>
	<path class="st1" d="M492.6,226.7h-43L437,237.9V270l11.5,11.5l42.3-1.7l12.2-8.7v-33.2L492.6,226.7z M486.3,266.9h-33.9V241h33.9
		V266.9z"/>
	<polygon class="st1" points="511.8,226.7 511.8,292.3 528.2,283.3 528.2,254 563.1,281.6 573.6,281.6 575.7,226.7 559,226.7 
		557.2,256.2 525.4,226.7 	"/>
	<g>
		<polygon class="st2" points="241.3,0 373.2,0 340.2,35 307.2,70.1 		"/>
		<polygon class="st2" points="252.1,35 68.7,35 165.7,188 248.6,188 250.9,142.5 193.7,142.5 155.2,82.9 298.8,82.9 		"/>
		<polygon class="st2" points="297.3,93.4 177,93.4 200.4,122.6 261.1,122.6 261.1,311.8 297.3,341 		"/>
		<polygon class="st2" points="368,30.4 551.3,30.4 454.4,183.4 371.5,183.4 369.1,137.8 426.4,137.8 464.9,78.3 321.3,78.3 		"/>
		<polygon class="st2" points="313.1,93.4 433.4,93.4 410,122.6 349.3,122.6 349.3,311.8 313.1,341 		"/>
	</g>
</g>
</svg>
