<?xml version="1.0" encoding="utf-8"?>
<!-- Generator: Adobe Illustrator 23.0.5, SVG Export Plug-In . SVG Version: 6.00 Build 0)  -->
<svg version="1.1" id="Capa_1" xmlns="http://www.w3.org/2000/svg" xmlns:xlink="http://www.w3.org/1999/xlink" x="0px" y="0px"
	 viewBox="0 0 512 512" style="enable-background:new 0 0 512 512;" xml:space="preserve">
<path d="M300.2,4C186.2,4,93.4,96.8,93.4,210.8c0,44.8,14.9,89,41.9,124.7L2.9,467.9l40.1,40.1l132.4-132.4
	c35.8,27.1,79.9,41.9,124.7,41.9c114,0,206.8-92.8,206.8-206.8C507,96.8,414.2,4,300.2,4z M450.3,210.8c0,82.7-67.3,150-150,150
	c-82.7,0-150-67.3-150-150s67.3-150,150-150C382.9,60.7,450.3,128.1,450.3,210.8z"/>
</svg>
