<?xml version="1.0" encoding="utf-8"?>
<!-- Generator: Adobe Illustrator 22.1.0, SVG Export Plug-In . SVG Version: 6.00 Build 0)  -->
<svg version="1.1" id="圖層_1" xmlns="http://www.w3.org/2000/svg" xmlns:xlink="http://www.w3.org/1999/xlink" x="0px" y="0px"
	 viewBox="0 0 42 30" style="enable-background:new 0 0 42 30;" xml:space="preserve">
<style type="text/css">
	.st0{clip-path:url(#SVGID_2_);fill:#3F3F3F;}
</style>
<g>
	<defs>
		<rect id="SVGID_1_" x="0.3" y="0.2" width="41.3" height="29.5"/>
	</defs>
	<clipPath id="SVGID_2_">
		<use xlink:href="#SVGID_1_"  style="overflow:visible;"/>
	</clipPath>
	<path class="st0" d="M12.2,12.4L0.5,2.3C0.4,2.6,0.3,2.9,0.3,3.2v23.6c0,0.2,0.1,0.4,0.1,0.6l11.9-13.6
		C12.7,13.4,12.7,12.7,12.2,12.4"/>
	<path class="st0" d="M21.7,15.5L39.3,0.3c-0.2,0-0.4-0.1-0.6-0.1H3.3c-0.2,0-0.4,0.1-0.6,0.1l17.6,15.1
		C20.7,15.8,21.3,15.8,21.7,15.5"/>
	<path class="st0" d="M26,15.6l-4,3.5c-0.3,0.2-0.6,0.4-1,0.4c-0.3,0-0.7-0.1-1-0.4l-4-3.5c-0.4-0.4-1-0.3-1.4,0.1L2.4,29.6
		c0.3,0.1,0.5,0.2,0.8,0.2h35.4c0.3,0,0.6-0.1,0.8-0.2L27.4,15.7C27,15.3,26.4,15.2,26,15.6"/>
	<path class="st0" d="M29.8,12.4c-0.4,0.4-0.5,1-0.1,1.4l11.9,13.6c0-0.2,0.1-0.4,0.1-0.6V3.2c0-0.3-0.1-0.6-0.2-0.9L29.8,12.4z"/>
</g>
</svg>
