<?xml version="1.0" encoding="utf-8"?>
<!-- Generator: Adobe Illustrator 22.1.0, SVG Export Plug-In . SVG Version: 6.00 Build 0)  -->
<svg version="1.1" id="圖層_1" xmlns="http://www.w3.org/2000/svg" xmlns:xlink="http://www.w3.org/1999/xlink" x="0px" y="0px"
	 viewBox="0 0 100 100" style="enable-background:new 0 0 100 100;" xml:space="preserve">
<style type="text/css">
	.st0{clip-path:url(#SVGID_2_);fill:#FFFFFF;}
	.st1{clip-path:url(#SVGID_2_);fill-rule:evenodd;clip-rule:evenodd;fill:#FFFFFF;}
</style>
<g>
	<defs>
		<rect id="SVGID_1_" x="0" y="0" width="100" height="100"/>
	</defs>
	<clipPath id="SVGID_2_">
		<use xlink:href="#SVGID_1_"  style="overflow:visible;"/>
	</clipPath>
	<path class="st0" d="M50,0c13.8,0,26.3,5.6,35.4,14.6C94.4,23.7,100,36.2,100,50c0,13.8-5.6,26.3-14.6,35.4
		C76.3,94.4,63.8,100,50,100c-13.8,0-26.3-5.6-35.4-14.6C5.6,76.3,0,63.8,0,50c0-13.8,5.6-26.3,14.6-35.4C23.7,5.6,36.2,0,50,0
		 M82.6,17.4C74.3,9.1,62.7,3.9,50,3.9S25.7,9.1,17.4,17.4C9.1,25.7,3.9,37.3,3.9,50c0,12.7,5.2,24.3,13.5,32.6
		c8.3,8.3,19.9,13.5,32.6,13.5s24.3-5.1,32.6-13.5c8.3-8.4,13.5-19.9,13.5-32.6C96.1,37.3,90.9,25.7,82.6,17.4"/>
	<path class="st1" d="M53.8,39.8v-4.1c0-2,1.3-2.4,2.2-2.4h5.7v-8.7h-7.9c-8.8,0-10.7,6.5-10.7,10.7v4.6h-5.1V46v4h5.1v25.5h10.2V50
		H61l0.3-4l0.6-6.2H53.8z"/>
</g>
</svg>
