<?xml version="1.0" encoding="utf-8"?>
<!-- Generator: Adobe Illustrator 23.0.5, SVG Export Plug-In . SVG Version: 6.00 Build 0)  -->
<svg version="1.1" id="圖層_1" focusable="false" xmlns="http://www.w3.org/2000/svg" xmlns:xlink="http://www.w3.org/1999/xlink"
	 x="0px" y="0px" viewBox="0 0 512 512" style="enable-background:new 0 0 512 512;" xml:space="preserve">
<style type="text/css">
	.st0{fill:#B53761;}
</style>
<path class="st0" d="M102.1,107.1c61.5-2.8,130.1,3.5,180.9,41.9c32.7,24.7,52.8,61.1,61.1,100.9c6,28.6,6.1,58,4,87.1
	c-0.5,6.3-1.3,11.3,3.4,16.5c15,16.7,28.5,31.5,49.3,42l-7.2,11.1c1.8-3-34.5-27.3-52.7-50.1c-1.6-2-24.4,1.2-27.6,1.3
	c-37.9,1.5-79.3-8.6-109.6-32.2c-22-17.2-34.1-42.7-43-68.5c-10.1-29.3-18.3-59.1-29.5-88c-4.1-10.6-8.5-21.1-13.3-31.5
	C116.5,134.1,105.3,107,102.1,107.1z M160.5,140.3c-32.4-15.3,0.2,5.9,0.2,5.9c29.4,20.3,39.4,48.1,55.1,78.2
	c20.5,39.2,51.4,90.9,93.9,109.2c42.3,18.2,22.3,8.1,3.9-5.5c-18.4-13.8-44.4-56.6-59.2-84.7C233.7,204.2,214.7,166,160.5,140.3
	L160.5,140.3z"/>
</svg>
