<?xml version="1.0" encoding="utf-8"?>
<!-- Generator: Adobe Illustrator 23.0.5, SVG Export Plug-In . SVG Version: 6.00 Build 0)  -->
<svg version="1.1" id="圖層_1" focusable="false" xmlns="http://www.w3.org/2000/svg" xmlns:xlink="http://www.w3.org/1999/xlink"
	 x="0px" y="0px" viewBox="0 0 500 500" style="enable-background:new 0 0 500 500;" xml:space="preserve">
<style type="text/css">
	.st0{fill:#B53761;}
</style>
<g>
	<path class="st0" d="M250,146.9c-29.7,0-53.9,24.2-53.9,53.9c0,2.4,1.9,4.3,4.3,4.3c2.4,0,4.3-1.9,4.3-4.3
		c0.1-25,20.3-45.3,45.3-45.3c2.4,0,4.3-1.9,4.3-4.3C254.3,148.8,252.4,146.9,250,146.9z"/>
	<path class="st0" d="M250,98.5c-56.4,0-102.3,45.9-102.3,102.3c0,24.8,9,48.7,25.3,67.2c8.6,9.8,24.1,32.1,31.7,53.2l0.6,1.6h16.9
		l-1.1-3.3c-4.3-12.8-14.8-37.9-36.1-62.2c-13.6-15.5-21.2-35.6-21.3-56.7c-0.1-23,8.7-44.6,24.8-60.7
		c16.2-16.2,38.5-25.5,61.3-25.5c47.5,0,86.1,38.6,86.1,86.1c0,20.8-7.6,40.9-21.3,56.7c-20.8,23.8-31.5,49.1-36.1,62.1l-1.2,3.3h17
		l0.6-1.6c7.8-21.3,23.3-43.5,31.7-53.2c16.5-18.4,25.5-42.3,25.5-67.2C352.3,144.4,306.4,98.5,250,98.5z"/>
	<path class="st0" d="M200.4,341.5v11.8h66.3v7.4h-66.3v7.5c0,2,0.6,3.9,1.7,5.5l15.2,22.8c1.8,2.8,4.9,4.4,8.3,4.4h48.9
		c3.3,0,6.4-1.7,8.3-4.4l15.2-22.8c1.1-1.6,1.7-3.5,1.7-5.5v-26.8h-99.3V341.5z"/>
</g>
</svg>
