<?xml version="1.0" encoding="utf-8"?>
<!-- Generator: Adobe Illustrator 23.0.5, SVG Export Plug-In . SVG Version: 6.00 Build 0)  -->
<svg version="1.1" id="圖層_1" focusable="false" xmlns="http://www.w3.org/2000/svg" xmlns:xlink="http://www.w3.org/1999/xlink"
	 x="0px" y="0px" viewBox="0 0 500 500" style="enable-background:new 0 0 500 500;" xml:space="preserve">
<style type="text/css">
	.st0{fill:#B53761;}
</style>
<path class="st0" d="M381.9,267.8l1.3-2.2c5.4-8.2,8-16.8,8-27.1c0-22.2-18.6-46-46.2-46h-32.2l3.5-9.1c3.3-8.8,5-17.4,5-26.3
	c0-38.4-17.5-57.8-52-57.8c-19.9,0-26.2,20-31.8,44.2c-2.2,9.4-3.9,16.9-7.7,20.7c-6.3,6.3-13.5,15.8-20.4,25l-0.6,0.8
	c-7.8,10.4-15.2,20.2-21.7,25.9l-1.9,1.7h-63.4c-7.2,0-13,5.8-13,13v147.8c0,7.2,5.8,13,13,13H161c6,0,11.2-4,12.6-9.8l1.3-5.1
	l5.3,0.1c11.9,0.3,22,4.3,33.6,9c17.1,6.9,38.4,15.6,75.7,15.6h13.7c40.5,0,62.3-18,62.9-52.2v-2.1l1.2-1.7c7.5-10.3,11-24,9.5-36.5
	l-0.3-2.1l1-1.9c5.6-10.7,7.3-22.5,4.9-34.3L381.9,267.8z M364.5,265c2.2,4.7,3.3,10.1,3.2,16c-0.2,8.2-3,15.8-8.1,22.2l-0.3,0.4
	l0.2,0.5c2.2,6.3,2.4,13.4,0.5,20.3c-1.8,6.5-5.4,12.4-9.7,16.2l-0.4,0.3l0,0.5c1.3,13.4-1.3,24-7.8,31.4
	c-6.9,8.1-17.7,12.2-32.2,12.2h-23.3c-24.6,0-44.7-7-62.5-13.1l-1.4-0.5c-14.4-5-28-9.7-41.8-9.7h-6.7V233.7h13.4
	c1.8,0,6.1-1.3,14.6-10.1c6.5-6.8,13.3-15.9,19.9-24.6l0.7-0.9c6.5-8.7,12.7-16.9,18.3-22.5c8.1-8.1,10.4-19.6,12.6-30.7l0.2-0.8
	c2-10.3,3.9-20.1,10.6-26.7l2-2h2.8c15.4,0,26,5.2,31.4,15.6c4.4,8.4,4.4,18.2,4.4,26c0,14.1-5.3,24.4-9.6,32.6
	c-2.8,5.5-5.7,11.3-7.1,17.6l-0.3,1.2H345c8,0,15.6,3.3,21.4,9.3c5.5,5.8,8.6,13.3,8.6,20.6c0,9.2-3.9,19.1-9.9,25.1l-0.9,0.9
	L364.5,265z M163.1,358.7c0,11.9-9.6,21.5-21.5,21.5s-21.5-9.6-21.5-21.5s9.6-21.5,21.5-21.5S163.1,346.8,163.1,358.7z"/>
</svg>
