<?xml version="1.0" encoding="utf-8"?>
<!-- Generator: Adobe Illustrator 23.0.5, SVG Export Plug-In . SVG Version: 6.00 Build 0)  -->
<svg version="1.1" id="圖層_1" focusable="false" xmlns="http://www.w3.org/2000/svg" xmlns:xlink="http://www.w3.org/1999/xlink"
	 x="0px" y="0px" viewBox="0 0 512 512" style="enable-background:new 0 0 512 512;" xml:space="preserve">
<style type="text/css">
	.st0{fill:#B53761;}
</style>
<g>
	<path class="st0" d="M198.4,313.3L198.4,313.3c-0.7-0.7-1.2-1.3-1.7-1.7c-0.5-0.6-1.2-1.2-1.4-1.3c-0.4-0.2-2.3-0.7-4.3-1.2
		c-1.4-0.4-3.1-0.8-5.3-1.4c-3.8-1-7.5-2.6-11.2-4.8l-29.8,74c-0.7,1.7,0,3,0.4,3.5c0.3,0.5,1.3,1.7,3.2,1.6l35.1-1.3l24.1,25.5
		c1.2,1.3,2.8,1.2,3.3,1.1c0.6-0.1,2-0.6,2.7-2.2l31.4-78c-3.5,0.8-7.1,1.2-10.6,1.2C220.8,328.2,208,322.9,198.4,313.3z"/>
	<path class="st0" d="M338.7,308.6c-3.7,2.2-7.4,3.7-11.2,4.8c-2.2,0.6-3.9,1-5.3,1.4c-2,0.5-3.9,1-4.3,1.2
		c-0.2,0.1-0.8,0.7-1.3,1.3c-0.5,0.5-1,1.1-1.7,1.8c-9.6,9.6-22.4,14.9-36,14.9c-3.5,0-7.1-0.4-10.6-1.2l30.1,72.3
		c0.7,1.7,2.1,2.1,2.7,2.2s2.1,0.2,3.3-1.1l24.1-25.5l35.1,1.3c1.8,0.1,2.8-1.1,3.2-1.6c0.3-0.5,1.1-1.8,0.4-3.5l0,0L338.7,308.6z"
		/>
	<path class="st0" d="M354.8,224.3c-3.8-14.3-3.8-15.7,0-30c0.3-1,0.5-2,0.8-3.1c1.6-6-0.1-12.5-4.4-16.9c-0.8-0.8-1.6-1.6-2.3-2.3
		c-10.3-10.5-11-11.7-14.8-26c-0.3-1-0.5-2-0.8-3.2c-1.6-6-6.2-10.7-12.1-12.3c-1.1-0.3-2.2-0.6-3.1-0.8
		c-14.1-3.8-15.3-4.5-25.6-15.1c-0.7-0.7-1.4-1.5-2.2-2.3c-4.3-4.4-10.5-6.1-16.4-4.5c-1.1,0.3-2.2,0.6-3.1,0.9
		c-14.1,3.9-15.5,3.9-29.6,0c-1-0.3-2-0.5-3.1-0.8c-5.8-1.6-12.1,0.1-16.4,4.5c-0.8,0.8-1.6,1.6-2.3,2.3
		c-10.3,10.5-11.5,11.2-25.6,15.1c-1,0.3-2,0.5-3.1,0.8c-5.9,1.6-10.5,6.3-12.1,12.3c-0.3,1.1-0.6,2.2-0.8,3.1
		c-3.7,14.3-4.4,15.6-14.7,26c-0.7,0.7-1.5,1.5-2.3,2.3c-4.3,4.4-6,10.9-4.4,16.9c0.3,1.1,0.6,2.2,0.8,3.2c3.8,14.3,3.8,15.7,0,30
		c-0.3,1-0.5,2-0.8,3.1c-1.6,6,0.1,12.5,4.4,16.9c0.8,0.8,1.6,1.6,2.3,2.3c10.3,10.5,11,11.7,14.7,26c0.3,1,0.5,2,0.8,3.1
		c1.6,6,6.2,10.7,12.1,12.3c1.5,0.4,2.9,0.8,4.1,1.1c11,2.9,14,4,23.1,13.3c5.6,5.7,14.2,6.7,20.9,2.5c5.2-3.3,11.2-5,17.1-5
		c6,0,11.9,1.7,17.1,5c6.7,4.2,15.3,3.2,20.9-2.5c9.2-9.4,12.3-10.5,22.6-13.1c1.4-0.4,2.9-0.8,4.7-1.2c5.9-1.6,10.5-6.3,12.1-12.3
		c0.3-1.1,0.6-2.2,0.8-3.2c3.7-14.3,4.4-15.5,14.7-26c0.7-0.7,1.5-1.5,2.3-2.3c4.3-4.4,6-10.9,4.4-16.9
		C355.3,226.4,355,225.3,354.8,224.3z M256,266.3c-31.9,0-57.8-26.3-57.8-58.8s25.9-58.8,57.8-58.8s57.8,26.3,57.8,58.8
		S287.9,266.3,256,266.3z"/>
</g>
</svg>
