<?xml version="1.0" encoding="utf-8"?>
<!-- Generator: Adobe Illustrator 22.1.0, SVG Export Plug-In . SVG Version: 6.00 Build 0)  -->
<svg version="1.1" id="圖層_1" xmlns="http://www.w3.org/2000/svg" xmlns:xlink="http://www.w3.org/1999/xlink" x="0px" y="0px"
	 viewBox="0 0 26 26" style="enable-background:new 0 0 26 26;" xml:space="preserve">
<style type="text/css">
	.st0{fill:#FFFFFF;}
	.st1{clip-path:url(#SVGID_2_);fill:#FFFFFF;}
</style>
<polygon class="st0" points="18.9,5.8 19,6 18.7,6 18.6,6.4 19,6.4 19.5,6.4 19.7,6.1 19.4,6 19.3,5.9 19.1,5.5 19,5 18.6,5.1 
	18.5,5.3 18.5,5.5 18.7,5.6 "/>
<polygon class="st0" points="18.6,5.9 18.6,5.7 18.4,5.6 18.1,5.7 17.8,6 17.8,6.3 18.1,6.3 "/>
<g>
	<defs>
		<rect id="SVGID_1_" x="0" y="0" width="26" height="26"/>
	</defs>
	<clipPath id="SVGID_2_">
		<use xlink:href="#SVGID_1_"  style="overflow:visible;"/>
	</clipPath>
	<path class="st1" d="M12,7l-0.1,0.2h-0.3v0.2h0.1c0,0,0,0,0,0.1l0.2,0L12,7.4l0-0.2l0.2,0l0.1-0.1l-0.2,0L12,7z"/>
	<polygon class="st1" points="11.1,7.4 11.1,7.5 11.4,7.5 11.4,7.3 11.2,7.2 	"/>
	<path class="st1" d="M26,12.9c0-0.4,0-0.8-0.1-1.1c-0.1-1.2-0.4-2.4-0.9-3.5C25,8.1,25,8,25,7.9c-0.6-1.4-1.4-2.7-2.4-3.8
		C22.5,4.1,22.4,4,22.3,4c-0.2-0.2-0.4-0.4-0.6-0.6C19.4,1.3,16.4,0,13,0C9.6,0,6.5,1.3,4.2,3.4c-0.5,0.5-1,1-1.5,1.6
		C1,7.3,0,10,0,13c0,7.2,5.8,13,13,13c5,0,9.4-2.9,11.6-7.1C25,18,25.4,17,25.6,16c0.1-0.3,0.1-0.5,0.2-0.8c0.1-0.7,0.2-1.5,0.2-2.3
		C26,13,26,12.9,26,12.9 M23.6,7.7L23.6,7.7c0.2,0.1,0.3,0.3,0.4,0.5l-0.1,0l-0.2,0V7.7z M21.7,5.4l0-0.6c0.2,0.2,0.4,0.4,0.6,0.7
		L22,5.8l-0.8,0l-0.1-0.2L21.7,5.4z M6,4L6,4l0.3,0l0-0.1h0.4V4L6.6,4.2H6L6,4z M6.4,4.5c0,0,0.3,0,0.3,0c0,0,0,0.3,0,0.3l-0.6,0
		L6,4.7L6.4,4.5z M24.4,9.7h-1l-0.6-0.4l-0.6,0.1v0.4H22l-0.2-0.1l-1.1-0.3V8.6l-1.3,0.1L19,8.9h-0.5l-0.3,0l-0.6,0.4v0.7l-1.3,1
		l0.1,0.4h0.3l-0.1,0.4l-0.2,0.1l0,1l1.1,1.3H18l0-0.1h0.9l0.3-0.2h0.5L20,14l0.8,0.1l-0.1,1l0.8,1.5L21,17.4l0,0.4l0.3,0.3v1
		l0.5,0.6v0.8h0.4c-2.2,2.7-5.5,4.4-9.3,4.4C6.4,24.9,1.1,19.6,1.1,13c0-1.7,0.3-3.2,1-4.7V8l0.4-0.5c0.1-0.3,0.3-0.6,0.5-0.8l0,0.2
		L2.4,7.4C2.3,7.7,2.2,8,2,8.3V9l0.5,0.2v0.9L3,11l0.4,0.1l0-0.3L3,10.1L2.9,9.4h0.3l0.1,0.7l0.7,1l-0.2,0.3L4.2,12l1,0.3v-0.2
		l0.4,0.1l0,0.3l0.3,0.1l0.5,0.1l0.7,0.8L8,13.5l0.1,0.7l-0.6,0.4l0,0.7l-0.1,0.4l0.9,1.1l0.1,0.4c0,0,0.3,0.1,0.4,0.1
		c0,0,0.7,0.5,0.7,0.5v2L9.7,20L9.5,21l0.4,0.6l-0.1,0.9l0.6,1l0.7,0.6l0.7,0l0.1-0.2l-0.5-0.4l0-0.2l0.1-0.3l0-0.3l-0.4,0L11,22.4
		l0.3-0.3l0-0.2L11,21.8l0-0.2l0.5-0.1l0.7-0.3l0.2-0.4l0.7-1L13,19.1l0.2-0.4l0.7,0l0.5-0.4l0.1-1.4l0.5-0.6l0.1-0.4l-0.5-0.1
		l-0.3-0.5l-1.1,0l-0.8-0.3l0-0.6l-0.3-0.5l-0.8,0L11,13.1l-0.4-0.2l0,0.2l-0.7,0l-0.3-0.4l-0.7-0.1l-0.6,0.7l-1-0.2l-0.1-1.1
		L6.6,12l0.3-0.5l-0.1-0.3l-0.9,0.6l-0.6-0.1l-0.2-0.4l0.1-0.5l0.3-0.6l0.7-0.4l1.4,0l0,0.4l0.5,0.2l0-0.7l0.4-0.4l0.7-0.5l0.1-0.3
		L10,7.8l0.8-0.4l-0.1-0.1l0.5-0.5l0.2,0.1L11.5,7l0.2-0.2l0,0l-0.2,0l-0.2-0.1V6.4l0.1-0.1h0.3l0.1,0.1l0.1,0.2l0.1,0v0l0,0
		l0.4-0.1l0.1-0.2l0.2,0.1v0.2l-0.2,0.1h0l0,0.2l0.7,0.2c0,0,0,0,0,0l0.2,0l0-0.3l-0.5-0.2l0-0.1l0.4-0.1l0-0.4l-0.5-0.3l0-0.7
		l-0.6,0.3h-0.2L12,4.7l-0.9-0.2l-0.4,0.3v0.8l-0.6,0.2L9.9,6.3l-0.3,0V5.6L9,5.6L8.7,5.4L8.6,4.9l1.1-0.6l0.5-0.2l0.1,0.3l0.3,0
		l0-0.2l0.3,0l0-0.1l-0.1-0.1l0-0.2l0.4,0l0.2-0.2l0,0l0,0l0.1-0.1l0.8-0.1l0.3,0.3l-0.9,0.5l1.2,0.3l0.1-0.4h0.5l0.2-0.3l-0.4-0.1
		V3.3l-1.1-0.5l-0.8,0.1l-0.4,0.2l0,0.6l-0.5-0.1l-0.1-0.3l0.4-0.4l-0.8,0L9.8,3L9.7,3.2L10,3.3L10,3.6l-0.5,0L9.4,3.8l-0.7,0
		c0,0,0-0.4,0-0.4s0.6,0,0.6,0L9.6,3L9.4,2.8L9.1,3.2l-0.5,0L8.2,2.7H7.6L6.8,3.2h0.6l0.1,0.2L7.4,3.6l0.7,0l0.1,0.3l-0.8,0l0-0.2
		L6.9,3.5L6.6,3.3L6,3.4c2-1.4,4.4-2.3,7-2.3c3,0,5.8,1.1,7.9,3l-0.1,0.3l-0.6,0.2L20,4.8L20,5.1l0.3,0l0.2,0.4L21,5.3L21,5.9h-0.1
		l-0.4-0.1L20,5.9l-0.4,0.6L19,6.6l-0.1,0.5l0.3,0.1l-0.1,0.3l-0.6-0.1l-0.6,0.1l-0.1,0.3l0.1,0.7l0.3,0.2l0.6,0l0.4,0l0.1-0.3
		l0.6-0.8l0.4,0.1l0.4-0.3l0.1,0.3l0.9,0.6l-0.1,0.2l-0.4,0l0.2,0.2l0.3,0.1l0.3-0.1l0-0.4l0.1-0.1L21.8,8l-0.6-0.3L21,7.2h0.5
		l0.2,0.2l0.4,0.4l0,0.5l0.5,0.5L22.8,8l0.3-0.2l0.1,0.6l0.3,0.3l0.6,0C24.2,9,24.3,9.3,24.4,9.7L24.4,9.7z M7.1,5.9l0.3-0.1
		l0.3,0.1L7.6,6.2L7.3,6.3L7.1,5.9z M8.7,6.8V7H8L7.8,7l0.1-0.2l0.3-0.1h0.5v0.1H8.7z M9.1,7.1v0.2L8.9,7.5l-0.2,0V7.1H9.1z M8.9,7
		V6.8L9.1,7L8.9,7z M9,7.6v0.2L8.8,8H8.4l0.1-0.3l0.2,0l0-0.1L9,7.6z M8,7.1h0.4L7.9,7.8L7.7,7.7l0-0.3L8,7.1z M9.7,7.5v0.2H9.3
		L9.2,7.6V7.4h0L9.7,7.5z M9.3,7.2l0.1-0.1l0.2,0.1L9.5,7.3L9.3,7.2z M24.6,10.3L24.6,10.3c0.1,0,0.1,0.1,0.1,0.2L24.6,10.3z"/>
	<path class="st1" d="M2,8v0.4C2.2,8,2.3,7.7,2.4,7.4L2,8z"/>
</g>
</svg>
