<?xml version="1.0" encoding="utf-8"?>
<!-- Generator: Adobe Illustrator 23.0.5, SVG Export Plug-In . SVG Version: 6.00 Build 0)  -->
<svg version="1.1" id="圖層_1" xmlns="http://www.w3.org/2000/svg" xmlns:xlink="http://www.w3.org/1999/xlink" x="0px" y="0px"
	 viewBox="0 0 132.3 55.2" style="enable-background:new 0 0 132.3 55.2;" xml:space="preserve">
<style type="text/css">
	.st0{fill:#999999;stroke:#999999;stroke-width:0.25;stroke-miterlimit:10;}
	.st1{fill:#999999;stroke:#999999;stroke-width:0.3;stroke-miterlimit:10;}
	.st2{fill:#7B1234;}
	.st3{fill:#7B1234;stroke:#7B1234;stroke-miterlimit:10;}
</style>
<g>
	<path d="M47.9,33.1c0-0.9-0.1-1.9-0.2-2.8c0.6,0.2,1.1,0.4,1.5,0.5s0.7,0.1,1.1,0.1c0.4,0,0.7-0.1,1-0.2c0.2-0.1,0.4-0.2,0.5-0.4
		c0.2-0.2,0.3-0.5,0.3-0.8c0.1-0.6,0.2-1.5,0.2-2.9c0.1-1.4,0.1-2.6,0.1-3.6v-1c0.9,0,1.5,0,1.8,0c0.4,0,1,0,1.9,0l-0.3,3.7
		c-0.1,1.1-0.1,2.2-0.1,3.5c0,0.9-0.1,1.6-0.1,1.9c-0.1,0.3-0.2,0.6-0.3,0.8c-0.1,0.2-0.2,0.4-0.4,0.5c-0.2,0.2-0.5,0.4-0.7,0.5
		c-0.4,0.2-0.8,0.3-1.2,0.4c-0.5,0.1-1,0.2-1.5,0.2C50.4,33.5,49.2,33.4,47.9,33.1z"/>
	<path d="M59.4,33.3c0.3-4.4,0.5-7.9,0.5-10.3l0-1.1c1,0,1.6,0,1.9,0c0.1,0,0.7,0,1.8,0c-0.1,1.2-0.2,2.4-0.2,3.5
		c-0.1,1.5-0.1,3-0.2,4.3c0,1.3,0,2.5,0,3.4l-1.7,0C61.1,33.3,60.4,33.3,59.4,33.3z"/>
	<path d="M66.9,33.3c0.1-1.4,0.2-2.6,0.3-3.6c0.1-1,0.1-2.2,0.2-3.8c0.1-1.6,0.1-2.7,0.1-3.2l0-0.7c1.3,0,2.9,0,4.7,0
		c1.7,0,3.2,0,4.5,0l0,0.3c0,0.1,0,0.3,0,0.7l0,0.9c0,0.2,0,0.4,0,0.6c-1.1,0-2-0.1-2.7-0.1c-0.8,0-1.3,0-1.6,0c-0.3,0-0.7,0-1.3,0
		l-0.1,1.9c0.7,0,1.4,0,2.3,0c0.3,0,1.1,0,2.5-0.1c-0.1,0.7-0.1,1.6-0.2,2.5c-1,0-1.7,0-2.2,0c-0.8,0-1.6,0-2.6,0.1l-0.1,2h1
		c0.3,0,0.9,0,1.8,0l1.7,0c0.3,0,0.7,0,1.3-0.1c-0.1,0.8-0.1,1.7-0.2,2.5c-1.4,0-2.8,0-4.4,0l-3.7,0L66.9,33.3z"/>
	<path d="M85.7,33.3c0.1-1.3,0.2-2.4,0.3-3.2c0.1-1.5,0.2-3,0.3-4.5c0.1-1.5,0.1-2.7,0.1-3.6c0.8,0,1.4,0,2,0c0.4,0,1,0,1.7,0
		l-0.2,3l-0.3,4.7l0,1.2c1,0,1.6,0,1.9,0c1.5,0,2.6,0,3.3-0.1l-0.2,2.5c-1.5,0-2.8,0-4.2,0C88.6,33.3,87,33.3,85.7,33.3z"/>
	<path d="M97.4,33.3c0.3-4.4,0.5-7.9,0.5-10.3l0-1.1c1,0,1.6,0,1.9,0c0.1,0,0.7,0,1.8,0c-0.1,1.2-0.2,2.4-0.2,3.5
		c-0.1,1.5-0.1,3-0.2,4.3c0,1.3,0,2.5,0,3.4l-1.7,0C99.1,33.3,98.5,33.3,97.4,33.3z"/>
	<path d="M104.9,33.3l0.2-1.7l0.3-5.9l0.1-2.4V22c0.9,0,1.6,0,2.3,0c0.5,0,1.1,0,2,0l3.5,6.4l0.5,0.9c0.1-0.9,0.1-2.2,0.2-3.9
		c0.1-1.7,0.1-2.8,0.1-3.5c0.7,0,1.2,0,1.6,0c0.2,0,0.7,0,1.6,0l-0.2,2.5l-0.4,6.9l0,2c-0.7,0-1.4,0-2,0c-0.5,0-1.2,0-2.2,0
		c-0.3-0.5-0.5-0.9-0.6-1.2l-1.4-2.4c-0.5-0.8-0.9-1.5-1.3-2.2c-0.3-0.4-0.5-0.9-0.8-1.5l-0.2,3.9l-0.1,3.3c-0.7,0-1.2,0-1.6,0
		C106.3,33.3,105.8,33.3,104.9,33.3z"/>
	<path d="M127.2,26.7c0.8,0,1.5,0,2.2,0c1.2,0,2.1,0,2.8,0c-0.1,0.8-0.1,1.8-0.2,3.2c-0.1,1.4-0.1,2.4-0.1,3.1
		c-0.6,0.1-1.2,0.2-1.6,0.3c-0.4,0.1-0.9,0.1-1.5,0.1c-0.6,0-1.1,0.1-1.6,0.1c-0.8,0-1.5-0.1-2.2-0.2c-0.7-0.1-1.4-0.3-1.9-0.6
		c-0.6-0.3-1-0.6-1.4-1.1s-0.7-1-0.9-1.7c-0.2-0.6-0.3-1.3-0.3-2c0-1.1,0.3-2.2,0.8-3.1c0.6-1,1.4-1.7,2.4-2.3
		c1-0.6,2.4-0.8,4.1-0.8c1.2,0,2.6,0.1,4,0.4c0,0.8,0,1.7,0.1,2.7c-0.4-0.1-0.7-0.2-1-0.3c-0.2-0.1-0.5-0.1-0.9-0.2
		c-0.3-0.1-0.6-0.1-0.9-0.1s-0.6,0-0.8,0c-0.6,0-1.2,0.1-1.7,0.3c-0.5,0.2-1,0.4-1.4,0.8c-0.4,0.4-0.7,0.8-0.9,1.3s-0.3,1-0.3,1.6
		c0,0.6,0.1,1.1,0.3,1.5c0.2,0.4,0.6,0.8,1.1,1s1,0.3,1.6,0.3c0.5,0,1-0.1,1.6-0.2l0.1-1.8c-0.4,0-0.6,0-0.6,0l-0.9,0l0.1-1
		c0-0.1,0-0.3,0-0.5C127.2,27.4,127.2,27.1,127.2,26.7z"/>
</g>
<g>
	<path class="st0" d="M20.2,46.7c-11.1,0-20-9-20-20s9-20,20-20s20,9.1,20,20.2C40.2,37.8,31.2,46.7,20.2,46.7z M20.2,7
		C9.3,7,0.5,15.8,0.5,26.6c0,10.8,8.8,19.6,19.6,19.6c10.8,0,19.6-8.7,19.6-19.5C39.8,15.9,31,7,20.2,7z M20.2,45.3
		C10,45.3,1.6,37,1.6,26.8S10,8.2,20.2,8.2s18.5,8.3,18.5,18.5S30.4,45.3,20.2,45.3z M20.2,8.7C10.2,8.7,2,16.8,2,26.8
		s8.1,18.1,18.1,18.1c10,0,18.1-8.1,18.1-18.1S30.2,8.7,20.2,8.7z"/>
	<path class="st1" d="M20.2,6.8C9.2,6.8,0.3,15.7,0.3,26.6c0,10.9,8.9,19.8,19.8,19.8c10.9,0,19.8-8.8,19.8-19.7
		C40,15.8,31.1,6.8,20.2,6.8z M38.5,26.8c0,10.1-8.2,18.3-18.3,18.3c-10.1,0-18.3-8.2-18.3-18.3c0-10.1,8.2-18.3,18.3-18.3
		C30.3,8.5,38.5,16.7,38.5,26.8z"/>
	<polyline class="st2" points="15.6,17.3 15.6,41.4 6.7,55.2 6.7,55.2 19.1,41.9 19.1,15.3 6.7,14.7 	"/>
	<polyline class="st2" points="31.6,0 23.4,13.7 23.4,36.4 35.2,40.7 20.5,38.8 20.5,13 	"/>
	<path class="st3" d="M19.2,0.8"/>
</g>
</svg>
