<?xml version="1.0" encoding="utf-8"?>
<!-- Generator: Adobe Illustrator 23.0.3, SVG Export Plug-In . SVG Version: 6.00 Build 0)  -->
<svg version="1.1" id="圖層_1" xmlns="http://www.w3.org/2000/svg" xmlns:xlink="http://www.w3.org/1999/xlink" x="0px" y="0px"
	 viewBox="0 0 35 35" style="enable-background:new 0 0 35 35;" xml:space="preserve">
<style type="text/css">
	.st0{fill:#FFFFFF;}
</style>
<path class="st0" d="M32,6H3C1.3,6,0,4.7,0,3l0,0c0-1.6,1.3-3,3-3h29c1.6,0,3,1.3,3,3l0,0C35,4.7,33.7,6,32,6z"/>
<path class="st0" d="M32,35H3c-1.6,0-3-1.3-3-3l0,0c0-1.6,1.3-3,3-3h29c1.6,0,3,1.3,3,3l0,0C35,33.7,33.7,35,32,35z"/>
<path class="st0" d="M32,20.5H3c-1.6,0-3-1.3-3-3l0,0c0-1.6,1.3-3,3-3h29c1.6,0,3,1.3,3,3l0,0C35,19.2,33.7,20.5,32,20.5z"/>
</svg>
