<?xml version="1.0" encoding="utf-8"?>
<!-- Generator: Adobe Illustrator 22.1.0, SVG Export Plug-In . SVG Version: 6.00 Build 0)  -->
<svg version="1.1" id="圖層_1" xmlns="http://www.w3.org/2000/svg" xmlns:xlink="http://www.w3.org/1999/xlink" x="0px" y="0px"
	 viewBox="0 0 75 68" style="enable-background:new 0 0 75 68;" xml:space="preserve">
<style type="text/css">
	.st0{clip-path:url(#SVGID_2_);fill:#141515;}
</style>
<g>
	<defs>
		<rect id="SVGID_1_" x="3.2" width="68.5" height="68"/>
	</defs>
	<clipPath id="SVGID_2_">
		<use xlink:href="#SVGID_1_"  style="overflow:visible;"/>
	</clipPath>
	<path class="st0" d="M11,17.9H64c2.1,0,4.1,0.9,5.5,2.3c1.4,1.4,2.3,3.3,2.3,5.5v34.6c0,2.1-0.9,4.1-2.3,5.5h0
		C68.1,67.1,66.2,68,64,68H11c-2.1,0-4.1-0.9-5.5-2.3c-1.4-1.4-2.3-3.3-2.3-5.5V25.6c0-2.1,0.9-4.1,2.3-5.5h0
		C6.9,18.8,8.8,17.9,11,17.9 M64,21.5H11c-1.1,0-2.2,0.5-2.9,1.2c-0.8,0.7-1.2,1.8-1.2,2.9v34.6c0,1.1,0.5,2.2,1.2,2.9
		c0.8,0.8,1.8,1.2,2.9,1.2H64c1.1,0,2.2-0.5,2.9-1.2c0.8-0.7,1.2-1.8,1.2-2.9V25.6c0-1.1-0.5-2.2-1.2-2.9C66.2,22,65.2,21.5,64,21.5
		 M37.5,26.4c4.6,0,8.9,1.9,11.9,4.9c3.1,3.1,4.9,7.3,4.9,11.9c0,4.6-1.9,8.9-4.9,11.9c-3.1,3.1-7.3,5-11.9,5c-4.7,0-8.9-1.9-11.9-5
		c-3.1-3.1-4.9-7.3-4.9-11.9c0-4.7,1.9-8.9,4.9-11.9C28.6,28.3,32.8,26.4,37.5,26.4 M46.9,33.9c-2.4-2.4-5.7-3.9-9.4-3.9
		c-3.7,0-7,1.5-9.4,3.9c-2.4,2.4-3.9,5.7-3.9,9.4c0,3.7,1.5,7,3.9,9.4c2.4,2.4,5.7,3.9,9.4,3.9c3.7,0,7-1.5,9.4-3.9
		c2.4-2.4,3.9-5.7,3.9-9.4C50.8,39.6,49.3,36.3,46.9,33.9 M35.7,35.2c0-1,0.8-1.8,1.8-1.8c1,0,1.8,0.8,1.8,1.8v6.3h6.3
		c1,0,1.8,0.8,1.8,1.8c0,1-0.8,1.8-1.8,1.8h-6.3v6.3c0,1-0.8,1.8-1.8,1.8c-1,0-1.8-0.8-1.8-1.8v-6.3h-6.3c-1,0-1.8-0.8-1.8-1.8
		c0-1,0.8-1.8,1.8-1.8h6.3V35.2z M27,0h21c1.6,0,3,0.6,4.1,1.7c1,1,1.7,2.5,1.7,4.1v9.3c0,1-0.8,1.8-1.8,1.8H46
		c-1,0-1.8-0.8-1.8-1.8V9.7c0-0.1-0.1-0.3-0.2-0.4c-0.1-0.1-0.2-0.2-0.4-0.2H31.3c-0.1,0-0.3,0.1-0.4,0.2c-0.1,0.1-0.2,0.2-0.2,0.4
		v5.4c0,1-0.8,1.8-1.8,1.8H23c-1,0-1.8-0.8-1.8-1.8V5.7c0-1.6,0.6-3,1.7-4.1C24,0.6,25.4,0,27,0 M48,3.6H27c-0.6,0-1.1,0.2-1.5,0.6
		c-0.4,0.4-0.6,0.9-0.6,1.5v7.6h2.4V9.7c0-1.1,0.5-2.2,1.2-2.9c0.8-0.7,1.8-1.2,2.9-1.2h12.4c1.1,0,2.2,0.5,2.9,1.2
		c0.7,0.7,1.2,1.8,1.2,2.9v3.6h2.4V5.7c0-0.6-0.2-1.1-0.6-1.5C49.1,3.8,48.6,3.6,48,3.6"/>
</g>
</svg>
