<svg width="92" height="53" viewBox="0 0 92 53" fill="none" xmlns="http://www.w3.org/2000/svg">
<path d="M58.0313 25.4205C57.1718 19.4209 54.3093 13.8696 49.8817 9.60781C45.4541 5.34602 39.7048 2.61754 33.5257 1.84696C27.3466 1.06851 21.0702 2.29515 15.6776 5.32244C10.2851 8.34972 6.06029 13.0204 3.66001 18.6032M1.90845 4.97646V18.6032H15.9371M1.90845 32.2377C2.91397 39.283 6.68469 45.6836 12.434 50.0948" stroke="url(#paint0_linear_660_12801)" stroke-width="3" stroke-linecap="round" stroke-linejoin="round"/>
<path d="M57.2529 39.684V30.4843H58.8098V34.3843H63.1968V30.4843H64.7538V39.684H63.1968V35.7132H58.8098V39.684H57.2529ZM69.4165 39.7941C68.8245 39.7941 68.338 39.7548 67.9407 39.684C67.5514 39.6133 67.2433 39.5032 67.0162 39.3538C66.7973 39.1965 66.627 38.9764 66.5216 38.709C66.4243 38.4417 66.3513 38.1114 66.3188 37.7104C66.2945 37.3094 66.2783 36.8298 66.2783 36.2636C66.2783 35.6975 66.2945 35.2336 66.3188 34.8325C66.3594 34.4315 66.4243 34.1013 66.5216 33.8339C66.6351 33.5666 66.7973 33.3543 67.0162 33.2049C67.2433 33.0476 67.5514 32.9297 67.9407 32.8668C68.338 32.796 68.8245 32.7567 69.4165 32.7567C70.0085 32.7567 70.5031 32.796 70.8924 32.8668C71.2897 32.9297 71.5978 33.0398 71.8168 33.2049C72.0438 33.3543 72.2141 33.5666 72.3114 33.8339C72.425 34.1013 72.4898 34.4315 72.5223 34.8325C72.5628 35.2336 72.579 35.7132 72.579 36.2636C72.579 36.814 72.5628 37.3094 72.5223 37.7104C72.498 38.1114 72.425 38.4417 72.3114 38.709C72.2141 38.9764 72.0438 39.1887 71.8168 39.3538C71.5978 39.5032 71.2897 39.6133 70.8924 39.684C70.5031 39.7548 70.0166 39.7941 69.4165 39.7941ZM69.4165 38.6068C69.8382 38.6068 70.1625 38.5832 70.3977 38.5282C70.6329 38.4731 70.7869 38.3709 70.8842 38.2058C70.9816 38.0485 71.0464 37.8126 71.0626 37.4981C71.087 37.1836 71.1032 36.7747 71.1032 36.2715C71.1032 35.7682 71.087 35.3594 71.0626 35.0527C71.0464 34.7382 70.9816 34.5023 70.8842 34.345C70.795 34.1878 70.6329 34.0855 70.3977 34.0384C70.1706 33.9833 69.8382 33.9597 69.4165 33.9597C68.9948 33.9597 68.6786 33.9833 68.4515 34.0384C68.2245 34.0855 68.0542 34.1878 67.9569 34.345C67.8677 34.5023 67.8028 34.7382 67.7785 35.0527C67.7623 35.3594 67.7541 35.7604 67.7541 36.2715C67.7541 36.7826 67.7623 37.1915 67.7785 37.4981C67.8028 37.8126 67.8677 38.0485 67.9569 38.2058C68.0542 38.3631 68.2245 38.4731 68.4515 38.5282C68.6786 38.5832 69.0029 38.6068 69.4165 38.6068ZM76.2281 39.7941C75.7416 39.7941 75.3442 39.7391 75.028 39.6369C74.7279 39.5189 74.4928 39.3538 74.3225 39.1258C74.1684 38.9056 74.063 38.6304 74.0062 38.3001C73.9495 37.9699 73.9251 37.5846 73.9251 37.1364V32.8746H75.3848V36.5781C75.3848 37.0263 75.401 37.3802 75.4253 37.6475C75.4659 37.907 75.5307 38.1036 75.6362 38.2372C75.7335 38.3631 75.8875 38.4417 76.074 38.481C76.2768 38.5203 76.5444 38.536 76.8768 38.536C77.2418 38.536 77.5418 38.4889 77.7607 38.4024C77.9797 38.3159 78.1419 38.1822 78.2473 38.0014C78.3608 37.8205 78.4257 37.6003 78.45 37.333C78.4743 37.0656 78.4906 36.7511 78.4906 36.3973V32.8825H79.9664V39.6998H78.6122L78.5554 38.7877H78.4581C78.3608 39 78.2067 39.1808 78.0202 39.3381C77.8337 39.4875 77.5986 39.6054 77.3066 39.684C77.0147 39.7627 76.6579 39.802 76.2281 39.802V39.7941ZM81.5882 39.684V32.8668H82.9262L82.983 34.0934H83.0965C83.2181 33.7396 83.3803 33.4644 83.5912 33.2678C83.802 33.0712 84.0615 32.9375 84.3615 32.8668C84.6616 32.796 85.0102 32.7567 85.3995 32.7567V34.1484C84.7751 34.1484 84.2885 34.2349 83.9561 34.4158C83.6236 34.5966 83.3884 34.8797 83.2506 35.2729C83.1208 35.6582 83.056 36.1614 83.056 36.7826V39.684H81.5963H81.5882ZM88.7242 39.7941C88.4485 39.7941 88.1485 39.7863 87.8322 39.7705C87.5159 39.7548 87.2078 39.7312 86.9078 39.6998C86.6077 39.6762 86.332 39.6447 86.0969 39.6054V38.481C86.2509 38.4889 86.4293 38.5046 86.6239 38.5203C86.8267 38.536 87.0375 38.5518 87.2565 38.5596C87.4754 38.5675 87.6943 38.5754 87.9052 38.5832C88.116 38.5911 88.3268 38.5989 88.5215 38.5989C88.9594 38.5989 89.2756 38.5754 89.4702 38.5203C89.673 38.4653 89.8027 38.3788 89.8595 38.253C89.9243 38.1193 89.9568 37.9463 89.9568 37.7419C89.9568 37.5138 89.9324 37.3409 89.8919 37.2308C89.8595 37.1207 89.7784 37.0499 89.673 37.0185C89.5594 36.9792 89.3891 36.9477 89.1621 36.9241L87.4511 36.7197C87.0132 36.6725 86.6726 36.5781 86.4455 36.4287C86.2266 36.2715 86.0725 36.0513 85.9914 35.784C85.9185 35.5088 85.8779 35.1706 85.8779 34.7775C85.8779 34.3214 85.9428 33.9597 86.0725 33.6924C86.2104 33.4172 86.3969 33.2127 86.6402 33.0791C86.8915 32.9454 87.1835 32.8589 87.5403 32.8117C87.8971 32.7645 88.2701 32.7488 88.6837 32.7488C88.9431 32.7488 89.2107 32.7567 89.4864 32.7724C89.7703 32.7881 90.046 32.8196 90.2974 32.851C90.565 32.8746 90.792 32.9061 90.9866 32.9454V34.0698C90.7677 34.0462 90.5244 34.0226 90.273 34.0069C90.0216 33.9912 89.754 33.9755 89.5027 33.9676C89.2513 33.9519 89.0161 33.944 88.7891 33.944C88.4485 33.944 88.1728 33.9597 87.9457 33.999C87.7268 34.0226 87.5565 34.0934 87.4511 34.2114C87.3538 34.3214 87.297 34.5023 87.297 34.7696C87.297 34.9741 87.3132 35.1313 87.3375 35.2414C87.3781 35.3358 87.443 35.4144 87.5484 35.4537C87.6619 35.493 87.8241 35.5245 88.043 35.5481L89.8919 35.7604C90.2406 35.7997 90.5244 35.8705 90.7352 35.9727C90.9542 36.067 91.1164 36.2557 91.2218 36.5231C91.3353 36.7826 91.384 37.1757 91.384 37.7104C91.384 38.1586 91.3272 38.5203 91.2056 38.7955C91.092 39.0629 90.9218 39.2752 90.6947 39.4246C90.4676 39.5661 90.1838 39.6605 89.8514 39.7076C89.527 39.7627 89.1621 39.7863 88.7485 39.7863L88.7242 39.7941ZM60.5857 52.3672C59.8802 52.3672 59.2964 52.3279 58.8342 52.2571C58.3719 52.1706 58.0152 52.0369 57.7476 51.8404C57.48 51.6438 57.2853 51.3843 57.1637 51.0462C57.0421 50.7081 56.961 50.2913 56.9285 49.7881C56.8961 49.277 56.8799 48.6637 56.8799 47.9403C56.8799 47.2169 56.8961 46.6036 56.9285 46.1003C56.961 45.5892 57.0421 45.1646 57.1637 44.8265C57.2853 44.4884 57.48 44.2289 57.7476 44.0323C58.0152 43.8358 58.3801 43.7021 58.8342 43.6313C59.2964 43.5448 59.8802 43.5055 60.5857 43.5055C61.2912 43.5055 61.8751 43.5448 62.3373 43.6313C62.8076 43.7099 63.1725 43.8436 63.4401 44.0323C63.7077 44.2289 63.9023 44.4884 64.024 44.8265C64.1537 45.1646 64.2348 45.5892 64.2672 46.1003C64.2997 46.6036 64.3159 47.2169 64.3159 47.9403C64.3159 48.6637 64.2997 49.277 64.2672 49.7881C64.2348 50.2913 64.1537 50.7081 64.024 51.0462C63.9023 51.3843 63.7077 51.6438 63.4401 51.8404C63.1725 52.0369 62.8076 52.1706 62.3373 52.2571C61.8751 52.3357 61.2912 52.3672 60.5857 52.3672ZM60.5857 51.1563C61.0155 51.1563 61.3723 51.1405 61.648 51.117C61.9318 51.0934 62.1508 51.0305 62.313 50.9282C62.4751 50.826 62.5968 50.6609 62.6779 50.4407C62.759 50.2048 62.7995 49.8903 62.8238 49.4972C62.8482 49.0961 62.8644 48.5772 62.8644 47.9403C62.8644 47.3034 62.8482 46.7844 62.8238 46.3912C62.8076 45.9902 62.759 45.6757 62.6779 45.4477C62.5968 45.2118 62.4751 45.0467 62.313 44.9444C62.1589 44.8422 61.9399 44.7793 61.648 44.7557C61.3723 44.7321 61.0155 44.7164 60.5857 44.7164C60.1559 44.7164 59.8154 44.7321 59.5315 44.7557C59.2558 44.7793 59.0369 44.8422 58.8666 44.9444C58.7044 45.0467 58.5828 45.2118 58.5017 45.4477C58.4287 45.6757 58.3882 45.9902 58.3557 46.3912C58.3395 46.7844 58.3314 47.3034 58.3314 47.9403C58.3314 48.5772 58.3395 49.0961 58.3557 49.4972C58.3801 49.8903 58.4287 50.2048 58.5017 50.4407C58.5828 50.6688 58.7044 50.8339 58.8666 50.9282C59.0288 51.0305 59.2477 51.0934 59.5315 51.117C59.8073 51.1405 60.1559 51.1563 60.5857 51.1563ZM65.7188 52.265V45.8487H66.9919L67.0324 46.7058H67.1379C67.2433 46.4935 67.3811 46.3205 67.5514 46.1868C67.7217 46.0453 67.9488 45.9352 68.2245 45.8566C68.5002 45.7779 68.8408 45.7465 69.2381 45.7465C69.7084 45.7465 70.0814 45.8015 70.3653 45.9116C70.6491 46.0138 70.868 46.1711 71.014 46.3755C71.16 46.5878 71.2573 46.8473 71.314 47.154C71.3708 47.4606 71.4032 47.8302 71.4032 48.2469V52.2571H70.0166V48.7738C70.0166 48.357 70.0004 48.0268 69.9679 47.783C69.9436 47.5314 69.8787 47.3505 69.7895 47.2326C69.6922 47.1068 69.5544 47.0282 69.3597 46.9967C69.1813 46.9653 68.93 46.9495 68.6218 46.9495C68.2731 46.9495 67.9974 46.9888 67.7947 47.0753C67.592 47.1618 67.446 47.2876 67.3406 47.4528C67.2433 47.6179 67.1784 47.8302 67.146 48.0818C67.1216 48.3334 67.1054 48.6244 67.1054 48.9625V52.2728H65.7269L65.7188 52.265ZM72.9277 52.265V42.9158H74.3063V52.265H72.9277ZM75.8064 44.2368V42.9158H77.2499V44.2368H75.8064ZM75.8308 52.265V45.8487H77.2093V52.265H75.8308ZM78.7338 52.265V45.8487H80.0069L80.0475 46.7058H80.1529C80.2583 46.4935 80.3962 46.3205 80.5665 46.1868C80.7368 46.0453 80.9638 45.9352 81.2395 45.8566C81.5152 45.7779 81.8558 45.7465 82.2532 45.7465C82.7235 45.7465 83.0965 45.8015 83.3803 45.9116C83.6641 46.0138 83.8831 46.1711 84.029 46.3755C84.175 46.5878 84.2723 46.8473 84.3291 47.154C84.3858 47.4606 84.4183 47.8302 84.4183 48.2469V52.2571H83.0316V48.7738C83.0316 48.357 83.0154 48.0268 82.983 47.783C82.9587 47.5314 82.8938 47.3505 82.8046 47.2326C82.7073 47.1068 82.5694 47.0282 82.3748 46.9967C82.1964 46.9653 81.945 46.9495 81.6369 46.9495C81.2882 46.9495 81.0125 46.9888 80.8097 47.0753C80.607 47.1618 80.4611 47.2876 80.3556 47.4528C80.2583 47.6179 80.1935 47.8302 80.161 48.0818C80.1367 48.3334 80.1205 48.6244 80.1205 48.9625V52.2728H78.7419L78.7338 52.265ZM88.7566 52.3672C88.1971 52.3672 87.7268 52.3357 87.3538 52.265C86.9807 52.1863 86.6807 52.0684 86.4618 51.9111C86.2347 51.746 86.0644 51.5337 85.959 51.2821C85.8455 51.0226 85.7725 50.7081 85.7401 50.3542C85.7076 49.9847 85.6914 49.5601 85.6914 49.0726C85.6914 48.4907 85.7238 47.9953 85.7806 47.5786C85.8455 47.1618 85.9671 46.8159 86.1536 46.5485C86.3482 46.2733 86.6402 46.0689 87.0375 45.9431C87.443 45.8172 87.9863 45.7543 88.6593 45.7543C89.1864 45.7543 89.6162 45.7937 89.9568 45.8802C90.2974 45.9588 90.5568 46.0767 90.7515 46.2419C90.9461 46.407 91.092 46.6271 91.1812 46.8945C91.2785 47.154 91.3353 47.4685 91.3596 47.8381C91.384 48.1998 91.4002 48.6086 91.4002 49.0726V49.4972H87.0781C87.0781 49.8746 87.0943 50.1813 87.1267 50.4171C87.1591 50.6452 87.2402 50.8182 87.3619 50.944C87.4916 51.0619 87.6862 51.1484 87.9619 51.1956C88.2377 51.2349 88.6107 51.2585 89.081 51.2585C89.2837 51.2585 89.4946 51.2585 89.7297 51.2428C89.973 51.2349 90.2163 51.2192 90.4676 51.1956C90.719 51.172 90.9461 51.1484 91.1407 51.1327V52.1785C90.9461 52.2099 90.719 52.2414 90.4514 52.265C90.1838 52.2964 89.9 52.32 89.6081 52.3436C89.3162 52.3593 89.0323 52.3672 88.7647 52.3672H88.7566ZM90.0703 48.7816V48.5457C90.0703 48.1683 90.046 47.8695 89.9892 47.6493C89.9487 47.4213 89.8676 47.2562 89.754 47.1461C89.6486 47.0282 89.5027 46.9495 89.3162 46.9181C89.1378 46.8788 88.9026 46.8552 88.6269 46.8552C88.2782 46.8552 88.0025 46.8788 87.7998 46.9338C87.6051 46.9731 87.4511 47.0596 87.3457 47.1854C87.2402 47.3112 87.1673 47.4842 87.1267 47.7122C87.0943 47.9324 87.0781 48.2233 87.0781 48.5772H90.3055L90.0703 48.7816Z" fill="url(#paint1_linear_660_12801)"/>
<path d="M22.6758 31.986H29.155C30.0145 31.986 30.8417 32.3162 31.4498 32.906C32.058 33.4957 32.3986 34.2977 32.3986 35.1312V38.2764C32.3986 39.1099 32.058 39.912 31.4498 40.5017C30.8417 41.0914 30.0145 41.4217 29.155 41.4217H25.9114C25.0518 41.4217 24.2247 41.7519 23.6165 42.3417C23.0083 42.9314 22.6677 43.7334 22.6677 44.5669V47.7121C22.6677 48.5456 23.0083 49.3477 23.6165 49.9374C24.2247 50.5271 25.0518 50.8574 25.9114 50.8574H32.3905M38.602 31.9624V38.2607C38.602 39.0942 38.9426 39.8962 39.5508 40.486C40.159 41.0757 40.9861 41.406 41.8457 41.406H45.0893M48.3329 31.9624V50.8574" stroke="url(#paint2_linear_660_12801)" stroke-width="4" stroke-linecap="round" stroke-linejoin="round"/>
<defs>
<linearGradient id="paint0_linear_660_12801" x1="59.3855" y1="38.2137" x2="6.27038" y2="18.6926" gradientUnits="userSpaceOnUse">
<stop stop-color="#76FFBB"/>
<stop offset="1" stop-color="#2887F5"/>
</linearGradient>
<linearGradient id="paint1_linear_660_12801" x1="105.34" y1="32.5129" x2="50.9721" y2="48.8808" gradientUnits="userSpaceOnUse">
<stop stop-color="#76FFBB"/>
<stop offset="1" stop-color="#2887F5"/>
</linearGradient>
<linearGradient id="paint2_linear_660_12801" x1="44.8136" y1="44.1816" x2="-4.26793" y2="26.1468" gradientUnits="userSpaceOnUse">
<stop stop-color="#76FFBB"/>
<stop offset="1" stop-color="#2887F5"/>
</linearGradient>
</defs>
</svg>
