<svg width="85" height="75" viewBox="0 0 85 75" fill="none" xmlns="http://www.w3.org/2000/svg">
<path d="M35.7082 56.3445L40.1729 40.5945H29.5701L49.1066 17.8445L45.2763 33.5945H55.877L35.7082 56.3445Z" stroke="white" stroke-width="4" stroke-miterlimit="10" stroke-linecap="round" stroke-linejoin="round"/>
<path d="M24.8275 56.5916C19.5009 51.7879 16.1541 44.8317 16.1541 37.0945H21.4041L14.4041 23.0945L2.15405 37.0945H7.40405C7.40405 56.4254 23.0731 72.0945 42.4041 72.0945C53.2103 72.0945 62.8725 67.1967 69.2928 59.501" stroke="white" stroke-width="4" stroke-miterlimit="10" stroke-linecap="round" stroke-linejoin="round"/>
<path d="M59.9806 17.5971C65.3071 22.4008 68.654 29.3571 68.654 37.0942H63.404L70.404 51.0942L82.654 37.0942H77.404C77.404 17.7633 61.7349 2.09424 42.404 2.09424C31.5452 2.09424 21.8393 7.04017 15.4211 14.8014" stroke="white" stroke-width="4" stroke-miterlimit="10" stroke-linecap="round" stroke-linejoin="round"/>
</svg>
