<svg width="84" height="61" viewBox="0 0 84 61" fill="none" xmlns="http://www.w3.org/2000/svg">
<path d="M28.8458 33.7526L35.7852 26.8132V58.7319" stroke="white" stroke-width="4" stroke-linecap="round" stroke-linejoin="round"/>
<path d="M4.55819 47.6312C-4.11612 32.0178 11.2201 22.187 21.4902 25.0784C20.2037 23.4738 19.2899 21.6033 18.8148 19.6023C18.3398 17.6012 18.3155 15.5196 18.7435 13.508C19.1716 11.4964 20.0414 9.60507 21.29 7.97082C22.5386 6.33657 24.1349 5.00025 25.9632 4.05851C27.7916 3.11678 29.8065 2.59317 31.862 2.52557C33.9176 2.45796 35.9624 2.84804 37.8487 3.6676C39.7351 4.48716 41.4156 5.71571 42.7689 7.26439C44.1223 8.81306 45.1145 10.6432 45.6738 12.6223C46.7111 11.5556 47.9651 10.7237 49.3511 10.1827C50.7372 9.64163 52.2231 9.40404 53.7088 9.48591C55.1944 9.56778 56.6453 9.96721 57.9635 10.6573C59.2817 11.3473 60.4367 12.312 61.3505 13.4862C62.2643 14.6604 62.9158 16.0169 63.261 17.4642C63.6062 18.9115 63.6371 20.416 63.3516 21.8763C63.0661 23.3366 62.4709 24.7187 61.606 25.9294C60.7412 27.1401 59.6268 28.1514 58.338 28.895C65.5238 24.7489 74.0267 24.2499 79.223 30.3909C81.5849 33.7525 85.364 42.2005 75.9163 49.2863" stroke="white" stroke-width="4" stroke-linecap="round" stroke-linejoin="round"/>
<path d="M53.134 46.6294L46.1947 53.5687V32.7507" stroke="white" stroke-width="4" stroke-linecap="round" stroke-linejoin="round"/>
</svg>
