<svg width="49" height="82" viewBox="0 0 49 82" fill="none" xmlns="http://www.w3.org/2000/svg">
<path d="M19.113 66.3553L22.3219 49.577H12.1836L30.8306 26.0874L26.8185 42.8657H36.9567L19.113 66.3553Z" stroke="white" stroke-width="4" stroke-miterlimit="10" stroke-linecap="round" stroke-linejoin="round"/>
<path fill-rule="evenodd" clip-rule="evenodd" d="M16.1565 4.27548C16.1565 4.17691 16.2357 4.09766 16.3343 4.09766H33.1126C33.2111 4.09766 33.2904 4.17691 33.2904 4.27548V9.48674H16.1565V4.27548ZM14.6432 12.4867C14.6476 12.4868 14.652 12.4868 14.6565 12.4868C14.6609 12.4868 14.6653 12.4868 14.6697 12.4867H34.7771C34.7816 12.4868 34.786 12.4868 34.7904 12.4868C34.7948 12.4868 34.7992 12.4868 34.8036 12.4867H45.0352V78.2777H4.41162V12.4867H14.6432ZM13.1565 9.48674V4.27548C13.1565 2.52006 14.5789 1.09766 16.3343 1.09766H33.1126C34.868 1.09766 36.2904 2.52006 36.2904 4.27548V9.48674H46.1157C47.1748 9.48674 48.0352 10.3471 48.0352 11.4062V79.3582C48.0352 80.4174 47.1748 81.2777 46.1157 81.2777H3.33108C2.27195 81.2777 1.41162 80.4174 1.41162 79.3582V11.4062C1.41162 10.3471 2.27195 9.48674 3.33108 9.48674H13.1565Z" fill="white"/>
<path d="M33.2904 9.48674V9.98674C33.5665 9.98674 33.7904 9.76288 33.7904 9.48674H33.2904ZM16.1565 9.48674H15.6565C15.6565 9.76288 15.8803 9.98674 16.1565 9.98674V9.48674ZM14.6432 12.4867L14.6475 11.9867H14.6432V12.4867ZM14.6697 12.4867L14.6697 11.9867L14.6654 11.9868L14.6697 12.4867ZM34.7771 12.4867L34.7815 11.9867H34.7771V12.4867ZM34.8036 12.4867V11.9867L34.7993 11.9868L34.8036 12.4867ZM45.0352 12.4867H45.5352C45.5352 12.2106 45.3113 11.9867 45.0352 11.9867V12.4867ZM45.0352 78.2777V78.7777C45.3113 78.7777 45.5352 78.5538 45.5352 78.2777H45.0352ZM4.41162 78.2777H3.91162C3.91162 78.5538 4.13548 78.7777 4.41162 78.7777V78.2777ZM4.41162 12.4867V11.9867C4.13548 11.9867 3.91162 12.2106 3.91162 12.4867H4.41162ZM13.1565 9.48674V9.98674C13.4326 9.98674 13.6565 9.76288 13.6565 9.48674H13.1565ZM36.2904 9.48674H35.7904C35.7904 9.76288 36.0142 9.98674 36.2904 9.98674V9.48674ZM16.3343 3.59766C15.9596 3.59766 15.6565 3.90077 15.6565 4.27548H16.6565C16.6565 4.45305 16.5119 4.59766 16.3343 4.59766V3.59766ZM33.1126 3.59766H16.3343V4.59766H33.1126V3.59766ZM33.7904 4.27548C33.7904 3.90077 33.4873 3.59766 33.1126 3.59766V4.59766C32.935 4.59766 32.7904 4.45305 32.7904 4.27548H33.7904ZM33.7904 9.48674V4.27548H32.7904V9.48674H33.7904ZM16.1565 9.98674H33.2904V8.98674H16.1565V9.98674ZM15.6565 4.27548V9.48674H16.6565V4.27548H15.6565ZM14.6565 11.9868C14.6535 11.9868 14.6505 11.9868 14.6475 11.9868L14.6389 12.9867C14.6447 12.9868 14.6506 12.9868 14.6565 12.9868V11.9868ZM14.6654 11.9868C14.6624 11.9868 14.6594 11.9868 14.6565 11.9868V12.9868C14.6623 12.9868 14.6682 12.9868 14.674 12.9867L14.6654 11.9868ZM34.7771 11.9867H14.6697V12.9867H34.7771V11.9867ZM34.7904 11.9868C34.7874 11.9868 34.7844 11.9868 34.7815 11.9868L34.7728 12.9867C34.7787 12.9868 34.7845 12.9868 34.7904 12.9868V11.9868ZM34.7993 11.9868C34.7963 11.9868 34.7934 11.9868 34.7904 11.9868V12.9868C34.7962 12.9868 34.8021 12.9868 34.808 12.9867L34.7993 11.9868ZM45.0352 11.9867H34.8036V12.9867H45.0352V11.9867ZM45.5352 78.2777V12.4867H44.5352V78.2777H45.5352ZM4.41162 78.7777H45.0352V77.7777H4.41162V78.7777ZM3.91162 12.4867V78.2777H4.91162V12.4867H3.91162ZM14.6432 11.9867H4.41162V12.9867H14.6432V11.9867ZM13.6565 9.48674V4.27548H12.6565V9.48674H13.6565ZM13.6565 4.27548C13.6565 2.7962 14.855 1.59766 16.3343 1.59766V0.597656C14.3027 0.597656 12.6565 2.24391 12.6565 4.27548H13.6565ZM16.3343 1.59766H33.1126V0.597656H16.3343V1.59766ZM33.1126 1.59766C34.5918 1.59766 35.7904 2.7962 35.7904 4.27548H36.7904C36.7904 2.24391 35.1441 0.597656 33.1126 0.597656V1.59766ZM35.7904 4.27548V9.48674H36.7904V4.27548H35.7904ZM36.2904 9.98674H46.1157V8.98674H36.2904V9.98674ZM46.1157 9.98674C46.8987 9.98674 47.5352 10.6232 47.5352 11.4062H48.5352C48.5352 10.0709 47.451 8.98674 46.1157 8.98674V9.98674ZM47.5352 11.4062V79.3582H48.5352V11.4062H47.5352ZM47.5352 79.3582C47.5352 80.1412 46.8987 80.7777 46.1157 80.7777V81.7777C47.451 81.7777 48.5352 80.6935 48.5352 79.3582H47.5352ZM46.1157 80.7777H3.33108V81.7777H46.1157V80.7777ZM3.33108 80.7777C2.54809 80.7777 1.91162 80.1412 1.91162 79.3582H0.911621C0.911621 80.6935 1.99581 81.7777 3.33108 81.7777V80.7777ZM1.91162 79.3582V11.4062H0.911621V79.3582H1.91162ZM1.91162 11.4062C1.91162 10.6232 2.54809 9.98674 3.33108 9.98674V8.98674C1.99581 8.98674 0.911621 10.0709 0.911621 11.4062H1.91162ZM3.33108 9.98674H13.1565V8.98674H3.33108V9.98674Z" fill="white"/>
</svg>
