<svg width="79" height="88" viewBox="0 0 79 88" fill="none" xmlns="http://www.w3.org/2000/svg">
<path d="M39.4998 52.598C44.0022 52.598 47.652 48.765 47.652 44.0368C47.652 39.3086 44.0022 35.4756 39.4998 35.4756C34.9975 35.4756 31.3477 39.3086 31.3477 44.0368C31.3477 48.765 34.9975 52.598 39.4998 52.598Z" stroke="white" stroke-width="3.6" stroke-miterlimit="10" stroke-linecap="round" stroke-linejoin="round"/>
<path d="M51.0454 74.8307C48.1446 81.6263 44.2825 85.7729 40.0434 85.7729C31.0386 85.7729 23.739 67.086 23.739 44.037C23.739 20.988 31.0386 2.30103 40.0434 2.30103C49.0481 2.30103 56.3477 20.988 56.3477 44.037C56.3477 49.3819 55.9537 54.4878 55.2404 59.1831" stroke="white" stroke-width="3.6" stroke-miterlimit="10" stroke-linecap="round" stroke-linejoin="round"/>
<path d="M73.2825 20.1319C74.4988 20.7967 75.4493 21.6732 76.0899 22.7645C80.6042 30.4709 67.8857 46.045 47.6786 57.5392C27.4681 69.0401 7.42787 72.1092 2.91014 64.4028C-1.60418 56.693 11.1143 41.1223 31.3214 29.6214C40.4352 24.4367 49.515 20.9646 57.1501 19.4233" stroke="white" stroke-width="3.6" stroke-miterlimit="10" stroke-linecap="round" stroke-linejoin="round"/>
<path d="M2.00722 27.4387C1.9493 26.0143 2.23892 24.7185 2.91016 23.5942C7.42483 16.0272 27.47 19.0408 47.6787 30.3303C67.884 41.6198 80.6068 56.912 76.0887 64.479C73.9762 68.0168 68.4666 69.2434 61.1341 68.3894" stroke="white" stroke-width="3.6" stroke-miterlimit="10" stroke-linecap="round" stroke-linejoin="round"/>
<path d="M45.4783 64.3698C40.9166 62.6111 36.1422 60.3544 31.361 57.6266C22.3439 52.4829 14.8119 46.5361 9.60876 40.8264" stroke="white" stroke-width="3.6" stroke-miterlimit="10" stroke-linecap="round" stroke-linejoin="round"/>
<path d="M4.71739 37.6161C6.21816 37.6161 7.43478 36.4183 7.43478 34.9408C7.43478 33.4632 6.21816 32.2654 4.71739 32.2654C3.21662 32.2654 2 33.4632 2 34.9408C2 36.4183 3.21662 37.6161 4.71739 37.6161Z" stroke="white" stroke-width="3.6" stroke-miterlimit="10" stroke-linecap="round" stroke-linejoin="round"/>
<path d="M53.6304 69.7204C55.1311 69.7204 56.3477 68.5226 56.3477 67.045C56.3477 65.5674 55.1311 64.3696 53.6304 64.3696C52.1296 64.3696 50.913 65.5674 50.913 67.045C50.913 68.5226 52.1296 69.7204 53.6304 69.7204Z" stroke="white" stroke-width="3.6" stroke-miterlimit="10" stroke-linecap="round" stroke-linejoin="round"/>
<path d="M65.587 21.5639C67.0878 21.5639 68.3044 20.3661 68.3044 18.8885C68.3044 17.4109 67.0878 16.2131 65.587 16.2131C64.0862 16.2131 62.8696 17.4109 62.8696 18.8885C62.8696 20.3661 64.0862 21.5639 65.587 21.5639Z" stroke="white" stroke-width="3.6" stroke-miterlimit="10" stroke-linecap="round" stroke-linejoin="round"/>
</svg>
