<svg width="750" height="750" viewBox="0 0 750 750" fill="none" xmlns="http://www.w3.org/2000/svg">
<g filter="url(#filter0_d_751_5382)">
<path d="M117.182 314.081H171.71V320.897H117.182V314.081ZM117.278 302.081H178.334V332.897H117.278V325.121H166.91V309.761H117.278V302.081ZM138.494 306.305H149.534V333.089C149.534 336.737 150.59 337.217 156.446 337.217C159.134 337.217 171.23 337.217 174.686 337.217C179.486 337.217 180.446 335.777 181.022 327.617C183.422 329.249 187.742 330.689 190.718 331.265C189.374 342.881 186.11 346.049 175.646 346.049C172.574 346.049 158.27 346.049 155.39 346.049C142.142 346.049 138.494 343.265 138.494 333.185V306.305ZM111.518 302.081H122.558V337.121H111.518V302.081ZM106.91 260.609H182.654V268.193H106.91V260.609ZM139.07 262.433H150.302V299.489H139.07V262.433ZM102.59 272.033H187.55V293.729H176.03V279.521H113.534V293.729H102.59V272.033ZM112.862 292.865C118.91 292.193 127.262 290.945 135.806 289.697L136.19 296.129C128.99 297.857 121.886 299.489 115.742 300.929L112.862 292.865ZM116.03 284.897L119.006 279.329C124.382 280.193 131.774 281.921 135.71 283.457L132.638 289.697C128.798 288.161 121.502 286.049 116.03 284.897ZM169.886 278.465L174.398 284.417C169.118 286.529 162.014 288.161 157.118 289.121L153.47 283.649C158.366 282.593 165.662 280.001 169.886 278.465ZM152.03 295.265L154.238 288.833C161.342 289.601 171.23 291.713 176.51 293.441L174.398 300.641C169.214 298.817 159.326 296.321 152.03 295.265ZM285.278 291.713H296.126V336.641C296.126 341.441 295.166 343.841 292.094 345.377C288.926 346.817 284.606 347.009 278.75 347.009C278.27 344.321 276.638 340.481 275.294 338.081C278.654 338.273 282.494 338.177 283.646 338.177C284.894 338.177 285.278 337.793 285.278 336.641V291.713ZM264.926 291.713H291.326V301.313H264.926V291.713ZM303.134 302.369H314.558V332.609C314.558 336.161 315.23 336.545 318.974 336.545C320.606 336.545 327.806 336.545 330.014 336.545C333.182 336.545 333.854 335.009 334.334 326.081C336.734 327.809 341.342 329.633 344.414 330.209C343.166 342.977 340.094 346.625 331.07 346.625C328.574 346.625 319.646 346.625 317.342 346.625C306.014 346.625 303.134 343.361 303.134 332.705V302.369ZM281.342 267.617L290.75 264.257C294.782 271.169 299.87 280.673 302.174 286.433L292.19 290.561C290.174 284.609 285.278 274.817 281.342 267.617ZM310.334 268.769H338.27V278.657H310.334V268.769ZM310.43 311.969H338.942V322.145H310.43V311.969ZM258.494 288.641C257.918 286.433 256.094 281.153 254.942 278.273C256.67 277.889 258.302 276.449 260.222 274.337C262.142 272.321 267.998 264.833 271.646 257.153L283.262 260.609C278.174 268.961 270.878 277.793 264.83 283.169V283.265C264.83 283.265 258.494 286.721 258.494 288.641ZM258.494 288.641L258.11 280.385L263.39 277.121L293.246 274.817C293.726 277.697 294.686 281.537 295.358 283.841C265.886 286.721 261.47 287.393 258.494 288.641ZM259.55 291.713H270.11V313.505C270.11 323.969 268.862 338.561 261.95 347.681C260.414 345.473 256.094 341.345 253.886 339.905C259.07 332.321 259.55 321.761 259.55 313.313V291.713ZM267.902 326.657C273.086 324.353 280.67 320.321 288.254 316.385L290.462 323.201C283.934 327.809 277.214 332.417 271.262 336.353L267.902 326.657ZM269.054 309.185L275.006 304.001C278.846 306.881 284.03 311.009 286.718 313.505L280.574 319.361C278.078 316.673 272.894 312.257 269.054 309.185ZM303.134 257.441H314.558V284.993C314.558 288.545 315.134 289.793 318.11 289.793C320.51 289.793 329.63 289.793 332.318 289.793C335.006 289.793 339.134 289.601 341.246 289.025C341.438 292.001 341.822 296.225 342.206 298.913C340.286 299.489 336.158 299.681 332.51 299.681C329.918 299.681 320.126 299.681 317.822 299.681C306.302 299.681 303.134 295.553 303.134 284.705V257.441ZM409.022 295.649H434.654V306.593H409.022V295.649ZM422.366 276.641H453.374V287.681H422.366V276.641ZM457.79 280.865C463.742 304.097 476.414 323.201 498.014 331.457C495.422 333.761 491.678 338.561 489.95 341.729C467.198 331.361 455.102 310.529 448.094 282.977L457.79 280.865ZM484.094 284.225L494.75 292.001C486.494 299.297 476.606 307.361 468.926 312.353L460.766 305.633C468.35 300.257 478.238 291.329 484.094 284.225ZM446.462 276.641H458.942V333.953C458.942 340.097 457.598 343.265 453.566 345.185C449.438 347.009 443.678 347.201 435.518 347.201C435.038 343.841 433.31 338.753 431.582 335.585C436.478 335.873 442.526 335.873 444.158 335.873C445.886 335.777 446.462 335.297 446.462 333.761V276.641ZM429.854 266.849L435.614 257.441C446.846 259.841 462.878 265.025 471.134 269.249L464.99 280.001C457.214 275.585 441.566 269.825 429.854 266.849ZM430.334 295.649H432.638L434.654 295.265L442.43 298.529C437.822 318.593 427.742 333.569 415.934 341.537C414.11 339.041 409.406 334.625 406.622 332.801C418.046 326.081 426.974 313.313 430.334 297.857V295.649ZM593.15 261.281H649.022V268.673H593.15V261.281ZM596.606 271.937H646.046V278.849H596.606V271.937ZM615.998 257.153H627.23V275.873H615.998V257.153ZM602.846 288.449V294.209H639.038V288.449H602.846ZM593.438 281.537H648.926V301.121H593.438V281.537ZM607.07 317.057V319.937H635.006V317.057H607.07ZM607.07 324.065V327.137H635.006V324.065H607.07ZM607.07 310.049V312.833H635.006V310.049H607.07ZM596.894 304.097H645.662V332.993H596.894V304.097ZM625.118 338.849L629.054 331.649C636.638 334.049 645.278 337.217 650.558 339.425L646.046 347.297C640.862 344.993 632.51 341.537 625.118 338.849ZM612.638 331.553L619.838 338.753C612.254 342.017 602.654 345.473 595.55 347.873C594.686 345.665 592.958 342.305 591.518 340.001C597.95 337.985 607.262 334.337 612.638 331.553ZM609.662 284.033H618.206V298.721H609.662V284.033ZM624.446 284.129H632.99V298.625H624.446V284.129ZM582.59 297.089L590.174 295.073C592.382 301.601 594.59 310.145 595.262 315.233L587.102 317.825C586.526 312.545 584.606 303.713 582.59 297.089ZM574.43 321.761L582.11 320.321C583.262 327.425 584.126 336.449 584.222 342.593L576.158 344.033C576.158 337.985 575.39 328.769 574.43 321.761ZM564.35 320.513L573.086 321.953C572.414 330.977 570.782 340.673 568.766 346.817C566.846 345.761 562.622 344.513 560.318 343.841C562.622 337.889 563.774 328.865 564.35 320.513ZM563.486 295.265C562.91 293.345 561.374 288.737 560.318 286.241C562.046 285.761 563.582 283.841 565.31 280.961C567.23 278.177 572.702 267.329 575.774 256.961L585.182 260.705C581.15 271.169 575.006 282.401 569.342 290.081V290.273C569.342 290.273 563.486 293.441 563.486 295.265ZM563.486 295.265L563.102 287.489L567.71 284.513L584.222 283.361C583.742 286.049 583.262 289.985 583.262 292.193C568.478 293.729 565.406 294.401 563.486 295.265ZM564.158 317.537C563.678 315.617 562.046 310.817 560.894 308.225C563.198 307.649 565.214 305.345 567.998 301.697C571.07 298.241 580.286 284.033 585.758 270.689L594.494 275.969C588.062 289.025 578.942 302.657 570.11 312.353V312.641C570.11 312.641 564.158 315.713 564.158 317.537ZM564.158 317.537L563.678 309.569L568.286 306.401L590.174 303.809C589.79 306.593 589.502 310.529 589.598 312.737C569.822 315.521 566.366 316.385 564.158 317.537ZM583.55 319.937L590.558 317.729C592.478 323.201 594.494 330.401 595.358 335.009L587.87 337.505C587.198 332.801 585.278 325.505 583.55 319.937ZM111.326 432.273H179.102V442.257H111.326V432.273ZM101.534 449.937H188.702V459.921H101.534V449.937ZM103.742 488.817H186.206V498.801H103.742V488.817ZM138.686 423.729H150.686V454.257H138.686V423.729ZM138.686 479.409H150.686V513.297H138.686V479.409ZM118.718 461.937L129.854 458.769C131.87 461.841 134.174 466.161 135.038 468.945L123.326 472.401C122.654 469.617 120.638 465.201 118.718 461.937ZM160.67 458.961L173.054 462.033C169.694 467.025 165.95 472.209 163.166 475.569L153.95 472.689C156.35 468.753 159.23 463.089 160.67 458.961ZM109.406 470.769H181.694V480.753H109.406V470.769ZM261.278 427.473L270.398 423.537C273.182 427.953 276.542 433.617 278.078 437.265L268.862 441.873C267.326 438.129 263.966 431.985 261.278 427.473ZM310.046 474.897H320.318V506.865H310.046V474.897ZM304.958 449.553V456.369H326.462V449.553H304.958ZM294.782 440.817H337.118V465.105H294.782V440.817ZM289.886 469.329H341.246V513.105H330.206V478.545H300.542V513.201H289.886V469.329ZM296.03 484.977H335.966V493.521H296.03V484.977ZM296.126 500.145H336.062V509.361H296.126V500.145ZM289.406 427.185H341.63V436.881H289.406V427.185ZM255.326 440.913H284.03V451.281H255.326V440.913ZM279.134 463.377C281.822 465.105 290.174 472.497 292.19 474.417L285.47 483.633C282.494 479.505 275.966 472.305 272.702 468.849L279.134 463.377ZM279.806 440.913H282.11L284.03 440.529L290.366 444.561C283.742 463.185 270.398 480.177 257.15 489.297C256.19 486.225 253.406 480.465 251.678 478.353C263.678 471.153 275.102 457.041 279.806 443.025V440.913ZM266.846 473.745L278.078 460.209V513.297H266.846V473.745ZM458.558 432.945H482.654V442.161H458.558V432.945ZM457.406 451.569H497.342V460.977H457.406V451.569ZM430.526 440.145H457.022V448.881H430.526V440.145ZM433.118 453.393H455.39V462.129H433.118V453.393ZM433.118 466.737H455.39V475.377H433.118V466.737ZM466.334 423.633H475.838V458.673H466.334V423.633ZM487.262 426.225L496.862 428.433C489.47 452.529 476.606 471.729 458.942 483.729C457.694 481.617 454.526 477.297 452.606 475.377C469.31 465.201 481.118 447.825 487.262 426.225ZM464.798 468.273H494.27V512.433H483.998V477.585H474.494V513.201H464.798V468.273ZM469.31 484.209H488.894V493.137H469.31V484.209ZM469.31 499.953H488.894V509.169H469.31V499.953ZM422.366 423.345L432.158 426.321C427.358 443.121 419.678 461.361 411.038 472.977C410.27 470.097 407.486 463.569 405.854 460.593C412.67 451.377 418.718 437.265 422.366 423.345ZM415.838 450.225L425.246 440.049L425.438 440.241V513.297H415.838V450.225ZM435.806 428.241L442.718 423.729C445.502 426.897 448.574 431.217 449.822 434.289L442.526 439.281C441.374 436.209 438.494 431.505 435.806 428.241ZM431.774 481.041H456.638V510.225H447.422V489.777H440.606V511.665H431.774V481.041ZM434.174 498.033H453.086V506.577H434.174V498.033ZM592.478 457.713H603.326V502.641C603.326 507.441 602.366 509.841 599.294 511.377C596.126 512.817 591.806 513.009 585.95 513.009C585.47 510.321 583.838 506.481 582.494 504.081C585.854 504.273 589.694 504.177 590.846 504.177C592.094 504.177 592.478 503.793 592.478 502.641V457.713ZM572.126 457.713H598.526V467.313H572.126V457.713ZM610.334 468.369H621.758V498.609C621.758 502.161 622.43 502.545 626.174 502.545C627.806 502.545 635.006 502.545 637.214 502.545C640.382 502.545 641.054 501.009 641.534 492.081C643.934 493.809 648.542 495.633 651.614 496.209C650.366 508.977 647.294 512.625 638.27 512.625C635.774 512.625 626.846 512.625 624.542 512.625C613.214 512.625 610.334 509.361 610.334 498.705V468.369ZM588.542 433.617L597.95 430.257C601.982 437.169 607.07 446.673 609.374 452.433L599.39 456.561C597.374 450.609 592.478 440.817 588.542 433.617ZM617.534 434.769H645.47V444.657H617.534V434.769ZM617.63 477.969H646.142V488.145H617.63V477.969ZM565.694 454.641C565.118 452.433 563.294 447.153 562.142 444.273C563.87 443.889 565.502 442.449 567.422 440.337C569.342 438.321 575.198 430.833 578.846 423.153L590.462 426.609C585.374 434.961 578.078 443.793 572.03 449.169V449.265C572.03 449.265 565.694 452.721 565.694 454.641ZM565.694 454.641L565.31 446.385L570.59 443.121L600.446 440.817C600.926 443.697 601.886 447.537 602.558 449.841C573.086 452.721 568.67 453.393 565.694 454.641ZM566.75 457.713H577.31V479.505C577.31 489.969 576.062 504.561 569.15 513.681C567.614 511.473 563.294 507.345 561.086 505.905C566.27 498.321 566.75 487.761 566.75 479.313V457.713ZM575.102 492.657C580.286 490.353 587.87 486.321 595.454 482.385L597.662 489.201C591.134 493.809 584.414 498.417 578.462 502.353L575.102 492.657ZM576.254 475.185L582.206 470.001C586.046 472.881 591.23 477.009 593.918 479.505L587.774 485.361C585.278 482.673 580.094 478.257 576.254 475.185ZM610.334 423.441H621.758V450.993C621.758 454.545 622.334 455.793 625.31 455.793C627.71 455.793 636.83 455.793 639.518 455.793C642.206 455.793 646.334 455.601 648.446 455.025C648.638 458.001 649.022 462.225 649.406 464.913C647.486 465.489 643.358 465.681 639.71 465.681C637.118 465.681 627.326 465.681 625.022 465.681C613.502 465.681 610.334 461.553 610.334 450.705V423.441Z" fill="white"/>
</g>
<path d="M201.97 607.945C200.999 607.945 200.172 607.785 199.49 607.465C198.807 607.145 198.284 606.702 197.922 606.137C197.559 605.571 197.378 604.931 197.378 604.217H198.946C198.946 604.569 199.036 604.921 199.218 605.273C199.41 605.625 199.724 605.918 200.162 606.153C200.61 606.387 201.212 606.505 201.97 606.505C202.674 606.505 203.25 606.403 203.698 606.201C204.146 605.987 204.476 605.715 204.69 605.385C204.903 605.043 205.01 604.675 205.01 604.281C205.01 603.801 204.802 603.406 204.386 603.097C203.97 602.777 203.362 602.579 202.562 602.505L201.266 602.393C200.231 602.307 199.404 601.987 198.786 601.433C198.167 600.878 197.858 600.147 197.858 599.241C197.858 598.526 198.028 597.902 198.37 597.369C198.722 596.835 199.207 596.419 199.826 596.121C200.444 595.811 201.164 595.657 201.986 595.657C202.796 595.657 203.511 595.806 204.13 596.105C204.748 596.403 205.228 596.825 205.57 597.369C205.922 597.902 206.098 598.542 206.098 599.289H204.53C204.53 598.915 204.439 598.563 204.258 598.233C204.087 597.902 203.815 597.63 203.442 597.417C203.068 597.203 202.583 597.097 201.986 597.097C201.41 597.097 200.93 597.198 200.546 597.401C200.172 597.603 199.89 597.87 199.698 598.201C199.516 598.521 199.426 598.867 199.426 599.241C199.426 599.667 199.591 600.046 199.922 600.377C200.252 600.707 200.743 600.899 201.394 600.953L202.69 601.065C203.49 601.129 204.178 601.299 204.754 601.577C205.34 601.843 205.788 602.206 206.098 602.665C206.418 603.113 206.578 603.651 206.578 604.281C206.578 604.995 206.386 605.63 206.002 606.185C205.618 606.739 205.079 607.171 204.386 607.481C203.692 607.79 202.887 607.945 201.97 607.945ZM216.745 607.913C215.732 607.913 214.953 607.582 214.409 606.921C213.865 606.259 213.593 605.305 213.593 604.057V599.097H215.129V604.361C215.129 605.033 215.31 605.561 215.673 605.945C216.036 606.318 216.526 606.505 217.145 606.505C217.785 606.505 218.308 606.302 218.713 605.897C219.118 605.481 219.321 604.915 219.321 604.201V599.097H220.857V607.657H219.641V603.993H219.833C219.833 604.835 219.721 605.55 219.497 606.137C219.273 606.713 218.937 607.155 218.489 607.465C218.052 607.763 217.492 607.913 216.809 607.913H216.745ZM231.432 607.913C230.312 607.913 229.443 607.673 228.824 607.193C228.216 606.713 227.901 606.057 227.88 605.225H229.32C229.341 605.555 229.507 605.87 229.816 606.169C230.136 606.457 230.675 606.601 231.432 606.601C232.115 606.601 232.637 606.467 233 606.201C233.363 605.923 233.544 605.587 233.544 605.193C233.544 604.841 233.411 604.569 233.144 604.377C232.877 604.174 232.445 604.041 231.848 603.977L230.92 603.881C230.109 603.795 229.448 603.555 228.936 603.161C228.424 602.755 228.168 602.19 228.168 601.465C228.168 600.921 228.307 600.457 228.584 600.073C228.861 599.678 229.245 599.379 229.736 599.177C230.227 598.963 230.792 598.857 231.432 598.857C232.392 598.857 233.171 599.07 233.768 599.497C234.365 599.923 234.675 600.558 234.696 601.401H233.256C233.245 601.059 233.085 600.771 232.776 600.537C232.477 600.291 232.029 600.169 231.432 600.169C230.835 600.169 230.381 600.291 230.072 600.537C229.763 600.782 229.608 601.091 229.608 601.465C229.608 601.785 229.715 602.041 229.928 602.233C230.152 602.425 230.515 602.547 231.016 602.601L231.944 602.697C232.861 602.793 233.597 603.049 234.152 603.465C234.707 603.87 234.984 604.446 234.984 605.193C234.984 605.726 234.829 606.201 234.52 606.617C234.221 607.022 233.805 607.342 233.272 607.577C232.739 607.801 232.125 607.913 231.432 607.913ZM245.338 607.753C244.698 607.753 244.143 607.662 243.674 607.481C243.215 607.299 242.858 606.99 242.602 606.553C242.357 606.105 242.234 605.502 242.234 604.745V596.521H243.706V604.937C243.706 605.395 243.829 605.753 244.074 606.009C244.33 606.254 244.687 606.377 245.146 606.377H246.65V607.753H245.338ZM240.762 600.265V599.113H246.65V600.265H240.762ZM258.759 607.657V605.097H258.503V602.137C258.503 601.55 258.349 601.107 258.039 600.809C257.741 600.51 257.298 600.361 256.711 600.361C256.381 600.361 256.039 600.366 255.687 600.377C255.335 600.387 254.999 600.398 254.679 600.409C254.359 600.419 254.082 600.435 253.847 600.457V599.113C254.082 599.091 254.327 599.075 254.583 599.065C254.85 599.043 255.122 599.033 255.399 599.033C255.677 599.022 255.943 599.017 256.199 599.017C257.074 599.017 257.789 599.123 258.343 599.337C258.898 599.539 259.309 599.875 259.575 600.345C259.842 600.814 259.975 601.449 259.975 602.249V607.657H258.759ZM255.959 607.881C255.319 607.881 254.765 607.774 254.295 607.561C253.837 607.337 253.479 607.017 253.223 606.601C252.978 606.185 252.855 605.683 252.855 605.097C252.855 604.489 252.989 603.982 253.255 603.577C253.533 603.171 253.933 602.867 254.455 602.665C254.978 602.451 255.607 602.345 256.343 602.345H258.663V603.497H256.279C255.661 603.497 255.186 603.646 254.855 603.945C254.525 604.243 254.359 604.627 254.359 605.097C254.359 605.566 254.525 605.945 254.855 606.233C255.186 606.521 255.661 606.665 256.279 606.665C256.642 606.665 256.989 606.601 257.319 606.473C257.65 606.334 257.922 606.11 258.135 605.801C258.359 605.481 258.482 605.043 258.503 604.489L258.919 605.097C258.866 605.705 258.717 606.217 258.471 606.633C258.237 607.038 257.906 607.347 257.479 607.561C257.063 607.774 256.557 607.881 255.959 607.881ZM268.01 607.657V599.113H269.546V607.657H268.01ZM266.698 600.329V599.113H269.546V600.329H266.698ZM268.442 597.737C268.101 597.737 267.845 597.646 267.674 597.465C267.514 597.283 267.434 597.054 267.434 596.777C267.434 596.499 267.514 596.27 267.674 596.089C267.845 595.907 268.101 595.817 268.442 595.817C268.784 595.817 269.034 595.907 269.194 596.089C269.365 596.27 269.45 596.499 269.45 596.777C269.45 597.054 269.365 597.283 269.194 597.465C269.034 597.646 268.784 597.737 268.442 597.737ZM277.316 607.657V599.113H278.532V602.777H278.34C278.34 601.934 278.452 601.225 278.676 600.649C278.911 600.062 279.263 599.619 279.732 599.321C280.202 599.011 280.794 598.857 281.508 598.857H281.572C282.65 598.857 283.444 599.193 283.956 599.865C284.479 600.537 284.74 601.507 284.74 602.777V607.657H283.204V602.457C283.204 601.795 283.018 601.267 282.644 600.873C282.271 600.467 281.759 600.265 281.108 600.265C280.436 600.265 279.892 600.473 279.476 600.889C279.06 601.305 278.852 601.859 278.852 602.553V607.657H277.316ZM297.519 607.657V605.097H297.263V602.137C297.263 601.55 297.108 601.107 296.799 600.809C296.5 600.51 296.057 600.361 295.471 600.361C295.14 600.361 294.799 600.366 294.447 600.377C294.095 600.387 293.759 600.398 293.439 600.409C293.119 600.419 292.841 600.435 292.607 600.457V599.113C292.841 599.091 293.087 599.075 293.343 599.065C293.609 599.043 293.881 599.033 294.159 599.033C294.436 599.022 294.703 599.017 294.959 599.017C295.833 599.017 296.548 599.123 297.103 599.337C297.657 599.539 298.068 599.875 298.335 600.345C298.601 600.814 298.735 601.449 298.735 602.249V607.657H297.519ZM294.719 607.881C294.079 607.881 293.524 607.774 293.055 607.561C292.596 607.337 292.239 607.017 291.983 606.601C291.737 606.185 291.615 605.683 291.615 605.097C291.615 604.489 291.748 603.982 292.015 603.577C292.292 603.171 292.692 602.867 293.215 602.665C293.737 602.451 294.367 602.345 295.103 602.345H297.423V603.497H295.039C294.42 603.497 293.945 603.646 293.615 603.945C293.284 604.243 293.119 604.627 293.119 605.097C293.119 605.566 293.284 605.945 293.615 606.233C293.945 606.521 294.42 606.665 295.039 606.665C295.401 606.665 295.748 606.601 296.079 606.473C296.409 606.334 296.681 606.11 296.895 605.801C297.119 605.481 297.241 605.043 297.263 604.489L297.679 605.097C297.625 605.705 297.476 606.217 297.231 606.633C296.996 607.038 296.665 607.347 296.239 607.561C295.823 607.774 295.316 607.881 294.719 607.881ZM310.866 607.945C310.162 607.945 309.532 607.79 308.978 607.481C308.434 607.171 308.002 606.723 307.682 606.137C307.362 605.539 307.186 604.825 307.154 603.993H307.57V607.657H306.354V595.977H307.89V601.657L307.346 602.825C307.388 601.897 307.575 601.139 307.906 600.553C308.236 599.966 308.668 599.534 309.202 599.257C309.746 598.969 310.343 598.825 310.994 598.825C311.602 598.825 312.156 598.942 312.658 599.177C313.159 599.401 313.591 599.715 313.954 600.121C314.316 600.515 314.594 600.979 314.786 601.513C314.978 602.035 315.074 602.601 315.074 603.209V603.497C315.074 604.105 314.972 604.675 314.77 605.209C314.578 605.742 314.295 606.217 313.922 606.633C313.548 607.038 313.1 607.358 312.578 607.593C312.066 607.827 311.495 607.945 310.866 607.945ZM310.69 606.601C311.266 606.601 311.767 606.462 312.194 606.185C312.62 605.907 312.951 605.529 313.186 605.049C313.42 604.558 313.538 603.993 313.538 603.353C313.538 602.713 313.415 602.153 313.17 601.673C312.935 601.193 312.604 600.825 312.178 600.569C311.751 600.302 311.255 600.169 310.69 600.169C310.178 600.169 309.703 600.286 309.266 600.521C308.828 600.745 308.476 601.075 308.21 601.513C307.954 601.939 307.826 602.457 307.826 603.065V603.801C307.826 604.387 307.959 604.889 308.226 605.305C308.492 605.721 308.844 606.041 309.282 606.265C309.719 606.489 310.188 606.601 310.69 606.601ZM322.281 607.657V595.977H323.817V607.657H322.281ZM321.097 597.193V595.977H323.817V597.193H321.097ZM335.195 607.945C334.448 607.945 333.803 607.817 333.259 607.561C332.715 607.305 332.272 606.969 331.931 606.553C331.59 606.126 331.334 605.651 331.163 605.129C331.003 604.606 330.923 604.073 330.923 603.529V603.241C330.923 602.686 331.003 602.147 331.163 601.625C331.334 601.102 331.59 600.633 331.931 600.217C332.272 599.79 332.704 599.454 333.227 599.209C333.76 598.953 334.384 598.825 335.099 598.825C336.027 598.825 336.79 599.027 337.387 599.433C337.995 599.827 338.443 600.339 338.731 600.969C339.03 601.598 339.179 602.27 339.179 602.985V603.673H331.595V602.521H338.059L337.707 603.145C337.707 602.537 337.611 602.014 337.419 601.577C337.227 601.129 336.939 600.782 336.555 600.537C336.171 600.291 335.686 600.169 335.099 600.169C334.491 600.169 333.984 600.307 333.579 600.585C333.184 600.862 332.886 601.241 332.683 601.721C332.491 602.201 332.395 602.755 332.395 603.385C332.395 603.993 332.491 604.542 332.683 605.033C332.886 605.513 333.195 605.897 333.611 606.185C334.027 606.462 334.555 606.601 335.195 606.601C335.867 606.601 336.411 606.451 336.827 606.153C337.254 605.854 337.51 605.507 337.595 605.113H339.035C338.918 605.699 338.683 606.206 338.331 606.633C337.979 607.059 337.536 607.385 337.003 607.609C336.47 607.833 335.867 607.945 335.195 607.945ZM366.673 607.945C365.927 607.945 365.281 607.817 364.737 607.561C364.193 607.305 363.751 606.969 363.409 606.553C363.068 606.126 362.812 605.651 362.641 605.129C362.481 604.606 362.401 604.073 362.401 603.529V603.241C362.401 602.686 362.481 602.147 362.641 601.625C362.812 601.102 363.068 600.633 363.409 600.217C363.751 599.79 364.183 599.454 364.705 599.209C365.239 598.953 365.863 598.825 366.577 598.825C367.505 598.825 368.268 599.027 368.865 599.433C369.473 599.827 369.921 600.339 370.209 600.969C370.508 601.598 370.657 602.27 370.657 602.985V603.673H363.073V602.521H369.537L369.185 603.145C369.185 602.537 369.089 602.014 368.897 601.577C368.705 601.129 368.417 600.782 368.033 600.537C367.649 600.291 367.164 600.169 366.577 600.169C365.969 600.169 365.463 600.307 365.057 600.585C364.663 600.862 364.364 601.241 364.161 601.721C363.969 602.201 363.873 602.755 363.873 603.385C363.873 603.993 363.969 604.542 364.161 605.033C364.364 605.513 364.673 605.897 365.089 606.185C365.505 606.462 366.033 606.601 366.673 606.601C367.345 606.601 367.889 606.451 368.305 606.153C368.732 605.854 368.988 605.507 369.073 605.113H370.513C370.396 605.699 370.161 606.206 369.809 606.633C369.457 607.059 369.015 607.385 368.481 607.609C367.948 607.833 367.345 607.945 366.673 607.945ZM377.638 607.657V599.113H378.854V602.777H378.662C378.662 601.934 378.774 601.225 378.998 600.649C379.233 600.062 379.585 599.619 380.054 599.321C380.523 599.011 381.115 598.857 381.83 598.857H381.894C382.971 598.857 383.766 599.193 384.278 599.865C384.801 600.537 385.062 601.507 385.062 602.777V607.657H383.526V602.457C383.526 601.795 383.339 601.267 382.966 600.873C382.593 600.467 382.081 600.265 381.43 600.265C380.758 600.265 380.214 600.473 379.798 600.889C379.382 601.305 379.174 601.859 379.174 602.553V607.657H377.638ZM396.305 607.945C395.558 607.945 394.913 607.817 394.369 607.561C393.825 607.305 393.382 606.969 393.041 606.553C392.699 606.126 392.443 605.651 392.273 605.129C392.113 604.606 392.033 604.073 392.033 603.529V603.241C392.033 602.686 392.113 602.147 392.273 601.625C392.443 601.102 392.699 600.633 393.041 600.217C393.382 599.79 393.814 599.454 394.337 599.209C394.87 598.953 395.494 598.825 396.209 598.825C397.137 598.825 397.899 599.027 398.497 599.433C399.105 599.827 399.553 600.339 399.841 600.969C400.139 601.598 400.289 602.27 400.289 602.985V603.673H392.705V602.521H399.169L398.817 603.145C398.817 602.537 398.721 602.014 398.529 601.577C398.337 601.129 398.049 600.782 397.665 600.537C397.281 600.291 396.795 600.169 396.209 600.169C395.601 600.169 395.094 600.307 394.689 600.585C394.294 600.862 393.995 601.241 393.793 601.721C393.601 602.201 393.505 602.755 393.505 603.385C393.505 603.993 393.601 604.542 393.793 605.033C393.995 605.513 394.305 605.897 394.721 606.185C395.137 606.462 395.665 606.601 396.305 606.601C396.977 606.601 397.521 606.451 397.937 606.153C398.363 605.854 398.619 605.507 398.705 605.113H400.145C400.027 605.699 399.793 606.206 399.441 606.633C399.089 607.059 398.646 607.385 398.113 607.609C397.579 607.833 396.977 607.945 396.305 607.945ZM407.269 607.657V599.113H408.485V602.633H408.421C408.421 601.385 408.693 600.473 409.237 599.897C409.792 599.31 410.619 599.017 411.717 599.017H412.005V600.393H411.461C410.608 600.393 409.952 600.622 409.493 601.081C409.035 601.529 408.805 602.179 408.805 603.033V607.657H407.269ZM421.77 610.985C421.375 610.985 420.975 610.969 420.57 610.937C420.175 610.905 419.797 610.862 419.434 610.809V609.513C419.818 609.566 420.218 609.609 420.634 609.641C421.061 609.683 421.461 609.705 421.834 609.705C422.613 609.705 423.231 609.598 423.69 609.385C424.159 609.182 424.495 608.857 424.698 608.409C424.911 607.971 425.018 607.406 425.018 606.713V605.081L425.53 603.865C425.498 604.729 425.317 605.449 424.986 606.025C424.655 606.59 424.223 607.017 423.69 607.305C423.167 607.582 422.586 607.721 421.946 607.721C421.349 607.721 420.799 607.609 420.298 607.385C419.807 607.15 419.381 606.83 419.018 606.425C418.666 606.019 418.389 605.555 418.186 605.033C417.994 604.499 417.898 603.939 417.898 603.353V603.065C417.898 602.467 417.999 601.913 418.202 601.401C418.405 600.878 418.687 600.425 419.05 600.041C419.413 599.657 419.845 599.358 420.346 599.145C420.858 598.931 421.418 598.825 422.026 598.825C422.741 598.825 423.37 598.979 423.914 599.289C424.458 599.587 424.885 600.03 425.194 600.617C425.514 601.193 425.69 601.902 425.722 602.745L425.274 602.761V599.113H426.49V606.649C426.49 607.673 426.33 608.499 426.01 609.129C425.701 609.769 425.199 610.238 424.506 610.537C423.823 610.835 422.911 610.985 421.77 610.985ZM422.234 606.313C422.746 606.313 423.21 606.201 423.626 605.977C424.053 605.753 424.389 605.433 424.634 605.017C424.89 604.59 425.018 604.083 425.018 603.497V602.761C425.018 602.185 424.885 601.699 424.618 601.305C424.362 600.91 424.026 600.611 423.61 600.409C423.194 600.206 422.741 600.105 422.25 600.105C421.695 600.105 421.205 600.233 420.778 600.489C420.351 600.745 420.021 601.107 419.786 601.577C419.551 602.035 419.434 602.579 419.434 603.209C419.434 603.838 419.551 604.387 419.786 604.857C420.031 605.326 420.362 605.689 420.778 605.945C421.205 606.19 421.69 606.313 422.234 606.313ZM433.559 610.985V609.609H434.791C435.154 609.609 435.458 609.561 435.703 609.465C435.959 609.379 436.167 609.23 436.327 609.017C436.498 608.803 436.636 608.521 436.743 608.169L439.431 599.113H440.935L438.087 608.569C437.916 609.134 437.676 609.593 437.367 609.945C437.058 610.307 436.679 610.569 436.231 610.729C435.794 610.899 435.282 610.985 434.695 610.985H433.559ZM436.167 607.465V606.185H438.023V607.465H436.167ZM436.007 607.465L432.951 599.113H434.519L437.447 607.465H436.007ZM467.366 607.913C466.246 607.913 465.377 607.673 464.758 607.193C464.15 606.713 463.836 606.057 463.814 605.225H465.254C465.276 605.555 465.441 605.87 465.75 606.169C466.07 606.457 466.609 606.601 467.366 606.601C468.049 606.601 468.572 606.467 468.934 606.201C469.297 605.923 469.478 605.587 469.478 605.193C469.478 604.841 469.345 604.569 469.078 604.377C468.812 604.174 468.38 604.041 467.782 603.977L466.854 603.881C466.044 603.795 465.382 603.555 464.87 603.161C464.358 602.755 464.102 602.19 464.102 601.465C464.102 600.921 464.241 600.457 464.518 600.073C464.796 599.678 465.18 599.379 465.67 599.177C466.161 598.963 466.726 598.857 467.366 598.857C468.326 598.857 469.105 599.07 469.702 599.497C470.3 599.923 470.609 600.558 470.63 601.401H469.19C469.18 601.059 469.02 600.771 468.71 600.537C468.412 600.291 467.964 600.169 467.366 600.169C466.769 600.169 466.316 600.291 466.006 600.537C465.697 600.782 465.542 601.091 465.542 601.465C465.542 601.785 465.649 602.041 465.862 602.233C466.086 602.425 466.449 602.547 466.95 602.601L467.878 602.697C468.796 602.793 469.532 603.049 470.086 603.465C470.641 603.87 470.918 604.446 470.918 605.193C470.918 605.726 470.764 606.201 470.454 606.617C470.156 607.022 469.74 607.342 469.206 607.577C468.673 607.801 468.06 607.913 467.366 607.913ZM481.272 607.753C480.632 607.753 480.078 607.662 479.608 607.481C479.15 607.299 478.792 606.99 478.536 606.553C478.291 606.105 478.168 605.502 478.168 604.745V596.521H479.64V604.937C479.64 605.395 479.763 605.753 480.008 606.009C480.264 606.254 480.622 606.377 481.08 606.377H482.584V607.753H481.272ZM476.696 600.265V599.113H482.584V600.265H476.696ZM493.43 607.945C492.684 607.945 492.028 607.817 491.462 607.561C490.897 607.305 490.417 606.969 490.022 606.553C489.638 606.126 489.345 605.651 489.142 605.129C488.95 604.606 488.854 604.073 488.854 603.529V603.241C488.854 602.697 488.956 602.163 489.158 601.641C489.361 601.107 489.66 600.633 490.054 600.217C490.449 599.79 490.929 599.454 491.494 599.209C492.06 598.953 492.705 598.825 493.43 598.825C494.156 598.825 494.801 598.953 495.366 599.209C495.932 599.454 496.412 599.79 496.806 600.217C497.201 600.633 497.5 601.107 497.702 601.641C497.905 602.163 498.006 602.697 498.006 603.241V603.529C498.006 604.073 497.905 604.606 497.702 605.129C497.51 605.651 497.217 606.126 496.822 606.553C496.438 606.969 495.964 607.305 495.398 607.561C494.833 607.817 494.177 607.945 493.43 607.945ZM493.43 606.569C494.07 606.569 494.614 606.43 495.062 606.153C495.521 605.865 495.868 605.481 496.102 605.001C496.348 604.521 496.47 603.982 496.47 603.385C496.47 602.777 496.348 602.233 496.102 601.753C495.857 601.273 495.505 600.894 495.046 600.617C494.598 600.339 494.06 600.201 493.43 600.201C492.812 600.201 492.273 600.339 491.814 600.617C491.356 600.894 491.004 601.273 490.758 601.753C490.513 602.233 490.39 602.777 490.39 603.385C490.39 603.982 490.508 604.521 490.742 605.001C490.988 605.481 491.334 605.865 491.782 606.153C492.241 606.43 492.79 606.569 493.43 606.569ZM505.107 607.657V599.113H506.323V602.633H506.259C506.259 601.385 506.531 600.473 507.075 599.897C507.63 599.31 508.456 599.017 509.555 599.017H509.843V600.393H509.299C508.446 600.393 507.79 600.622 507.331 601.081C506.872 601.529 506.643 602.179 506.643 603.033V607.657H505.107ZM521.606 607.657V605.097H521.35V602.137C521.35 601.55 521.195 601.107 520.886 600.809C520.587 600.51 520.145 600.361 519.558 600.361C519.227 600.361 518.886 600.366 518.534 600.377C518.182 600.387 517.846 600.398 517.526 600.409C517.206 600.419 516.929 600.435 516.694 600.457V599.113C516.929 599.091 517.174 599.075 517.43 599.065C517.697 599.043 517.969 599.033 518.246 599.033C518.523 599.022 518.79 599.017 519.046 599.017C519.921 599.017 520.635 599.123 521.19 599.337C521.745 599.539 522.155 599.875 522.422 600.345C522.689 600.814 522.822 601.449 522.822 602.249V607.657H521.606ZM518.806 607.881C518.166 607.881 517.611 607.774 517.142 607.561C516.683 607.337 516.326 607.017 516.07 606.601C515.825 606.185 515.702 605.683 515.702 605.097C515.702 604.489 515.835 603.982 516.102 603.577C516.379 603.171 516.779 602.867 517.302 602.665C517.825 602.451 518.454 602.345 519.19 602.345H521.51V603.497H519.126C518.507 603.497 518.033 603.646 517.702 603.945C517.371 604.243 517.206 604.627 517.206 605.097C517.206 605.566 517.371 605.945 517.702 606.233C518.033 606.521 518.507 606.665 519.126 606.665C519.489 606.665 519.835 606.601 520.166 606.473C520.497 606.334 520.769 606.11 520.982 605.801C521.206 605.481 521.329 605.043 521.35 604.489L521.766 605.097C521.713 605.705 521.563 606.217 521.318 606.633C521.083 607.038 520.753 607.347 520.326 607.561C519.91 607.774 519.403 607.881 518.806 607.881ZM533.673 610.985C533.279 610.985 532.879 610.969 532.473 610.937C532.079 610.905 531.7 610.862 531.337 610.809V609.513C531.721 609.566 532.121 609.609 532.537 609.641C532.964 609.683 533.364 609.705 533.737 609.705C534.516 609.705 535.135 609.598 535.593 609.385C536.063 609.182 536.399 608.857 536.601 608.409C536.815 607.971 536.921 607.406 536.921 606.713V605.081L537.433 603.865C537.401 604.729 537.22 605.449 536.889 606.025C536.559 606.59 536.127 607.017 535.593 607.305C535.071 607.582 534.489 607.721 533.849 607.721C533.252 607.721 532.703 607.609 532.201 607.385C531.711 607.15 531.284 606.83 530.921 606.425C530.569 606.019 530.292 605.555 530.089 605.033C529.897 604.499 529.801 603.939 529.801 603.353V603.065C529.801 602.467 529.903 601.913 530.105 601.401C530.308 600.878 530.591 600.425 530.953 600.041C531.316 599.657 531.748 599.358 532.249 599.145C532.761 598.931 533.321 598.825 533.929 598.825C534.644 598.825 535.273 598.979 535.817 599.289C536.361 599.587 536.788 600.03 537.097 600.617C537.417 601.193 537.593 601.902 537.625 602.745L537.177 602.761V599.113H538.393V606.649C538.393 607.673 538.233 608.499 537.913 609.129C537.604 609.769 537.103 610.238 536.409 610.537C535.727 610.835 534.815 610.985 533.673 610.985ZM534.137 606.313C534.649 606.313 535.113 606.201 535.529 605.977C535.956 605.753 536.292 605.433 536.537 605.017C536.793 604.59 536.921 604.083 536.921 603.497V602.761C536.921 602.185 536.788 601.699 536.521 601.305C536.265 600.91 535.929 600.611 535.513 600.409C535.097 600.206 534.644 600.105 534.153 600.105C533.599 600.105 533.108 600.233 532.681 600.489C532.255 600.745 531.924 601.107 531.689 601.577C531.455 602.035 531.337 602.579 531.337 603.209C531.337 603.838 531.455 604.387 531.689 604.857C531.935 605.326 532.265 605.689 532.681 605.945C533.108 606.19 533.593 606.313 534.137 606.313ZM549.67 607.945C548.923 607.945 548.278 607.817 547.734 607.561C547.19 607.305 546.747 606.969 546.406 606.553C546.065 606.126 545.809 605.651 545.638 605.129C545.478 604.606 545.398 604.073 545.398 603.529V603.241C545.398 602.686 545.478 602.147 545.638 601.625C545.809 601.102 546.065 600.633 546.406 600.217C546.747 599.79 547.179 599.454 547.702 599.209C548.235 598.953 548.859 598.825 549.574 598.825C550.502 598.825 551.265 599.027 551.862 599.433C552.47 599.827 552.918 600.339 553.206 600.969C553.505 601.598 553.654 602.27 553.654 602.985V603.673H546.07V602.521H552.534L552.182 603.145C552.182 602.537 552.086 602.014 551.894 601.577C551.702 601.129 551.414 600.782 551.03 600.537C550.646 600.291 550.161 600.169 549.574 600.169C548.966 600.169 548.459 600.307 548.054 600.585C547.659 600.862 547.361 601.241 547.158 601.721C546.966 602.201 546.87 602.755 546.87 603.385C546.87 603.993 546.966 604.542 547.158 605.033C547.361 605.513 547.67 605.897 548.086 606.185C548.502 606.462 549.03 606.601 549.67 606.601C550.342 606.601 550.886 606.451 551.302 606.153C551.729 605.854 551.985 605.507 552.07 605.113H553.51C553.393 605.699 553.158 606.206 552.806 606.633C552.454 607.059 552.011 607.385 551.478 607.609C550.945 607.833 550.342 607.945 549.67 607.945ZM236.668 642.657V633.681C236.668 632.731 236.919 632.033 237.42 631.585C237.922 631.137 238.658 630.913 239.628 630.913H240.684V632.193H239.372C238.978 632.193 238.674 632.305 238.46 632.529C238.247 632.742 238.14 633.041 238.14 633.425V642.657H236.668ZM235.484 635.361V634.209H240.844V635.361H235.484ZM251.18 642.945C250.434 642.945 249.778 642.817 249.212 642.561C248.647 642.305 248.167 641.969 247.772 641.553C247.388 641.126 247.095 640.651 246.892 640.129C246.7 639.606 246.604 639.073 246.604 638.529V638.241C246.604 637.697 246.706 637.163 246.908 636.641C247.111 636.107 247.41 635.633 247.804 635.217C248.199 634.79 248.679 634.454 249.244 634.209C249.81 633.953 250.455 633.825 251.18 633.825C251.906 633.825 252.551 633.953 253.116 634.209C253.682 634.454 254.162 634.79 254.556 635.217C254.951 635.633 255.25 636.107 255.452 636.641C255.655 637.163 255.756 637.697 255.756 638.241V638.529C255.756 639.073 255.655 639.606 255.452 640.129C255.26 640.651 254.967 641.126 254.572 641.553C254.188 641.969 253.714 642.305 253.148 642.561C252.583 642.817 251.927 642.945 251.18 642.945ZM251.18 641.569C251.82 641.569 252.364 641.43 252.812 641.153C253.271 640.865 253.618 640.481 253.852 640.001C254.098 639.521 254.22 638.982 254.22 638.385C254.22 637.777 254.098 637.233 253.852 636.753C253.607 636.273 253.255 635.894 252.796 635.617C252.348 635.339 251.81 635.201 251.18 635.201C250.562 635.201 250.023 635.339 249.564 635.617C249.106 635.894 248.754 636.273 248.508 636.753C248.263 637.233 248.14 637.777 248.14 638.385C248.14 638.982 248.258 639.521 248.492 640.001C248.738 640.481 249.084 640.865 249.532 641.153C249.991 641.43 250.54 641.569 251.18 641.569ZM262.857 642.657V634.113H264.073V637.633H264.009C264.009 636.385 264.281 635.473 264.825 634.897C265.38 634.31 266.206 634.017 267.305 634.017H267.593V635.393H267.049C266.196 635.393 265.54 635.622 265.081 636.081C264.622 636.529 264.393 637.179 264.393 638.033V642.657H262.857ZM296.269 642.657V640.097H296.013V637.137C296.013 636.55 295.858 636.107 295.549 635.809C295.25 635.51 294.807 635.361 294.221 635.361C293.89 635.361 293.549 635.366 293.197 635.377C292.845 635.387 292.509 635.398 292.189 635.409C291.869 635.419 291.591 635.435 291.357 635.457V634.113C291.591 634.091 291.837 634.075 292.093 634.065C292.359 634.043 292.631 634.033 292.909 634.033C293.186 634.022 293.453 634.017 293.709 634.017C294.583 634.017 295.298 634.123 295.853 634.337C296.407 634.539 296.818 634.875 297.085 635.345C297.351 635.814 297.485 636.449 297.485 637.249V642.657H296.269ZM293.469 642.881C292.829 642.881 292.274 642.774 291.805 642.561C291.346 642.337 290.989 642.017 290.733 641.601C290.487 641.185 290.365 640.683 290.365 640.097C290.365 639.489 290.498 638.982 290.765 638.577C291.042 638.171 291.442 637.867 291.965 637.665C292.487 637.451 293.117 637.345 293.853 637.345H296.173V638.497H293.789C293.17 638.497 292.695 638.646 292.365 638.945C292.034 639.243 291.869 639.627 291.869 640.097C291.869 640.566 292.034 640.945 292.365 641.233C292.695 641.521 293.17 641.665 293.789 641.665C294.151 641.665 294.498 641.601 294.829 641.473C295.159 641.334 295.431 641.11 295.645 640.801C295.869 640.481 295.991 640.043 296.013 639.489L296.429 640.097C296.375 640.705 296.226 641.217 295.981 641.633C295.746 642.038 295.415 642.347 294.989 642.561C294.573 642.774 294.066 642.881 293.469 642.881ZM321.985 642.657V630.977H323.521V637.953H323.137C323.137 637.11 323.244 636.385 323.457 635.777C323.681 635.158 324.022 634.683 324.481 634.353C324.94 634.022 325.526 633.857 326.241 633.857H326.305C327.329 633.857 328.102 634.198 328.625 634.881C329.148 635.553 329.409 636.518 329.409 637.777V642.657H327.873V637.457C327.873 636.763 327.676 636.225 327.281 635.841C326.897 635.457 326.396 635.265 325.777 635.265C325.094 635.265 324.545 635.494 324.129 635.953C323.724 636.401 323.521 636.993 323.521 637.729V642.657H321.985ZM342.187 642.657V640.097H341.931V637.137C341.931 636.55 341.777 636.107 341.467 635.809C341.169 635.51 340.726 635.361 340.139 635.361C339.809 635.361 339.467 635.366 339.115 635.377C338.763 635.387 338.427 635.398 338.107 635.409C337.787 635.419 337.51 635.435 337.275 635.457V634.113C337.51 634.091 337.755 634.075 338.011 634.065C338.278 634.043 338.55 634.033 338.827 634.033C339.105 634.022 339.371 634.017 339.627 634.017C340.502 634.017 341.217 634.123 341.771 634.337C342.326 634.539 342.737 634.875 343.003 635.345C343.27 635.814 343.403 636.449 343.403 637.249V642.657H342.187ZM339.387 642.881C338.747 642.881 338.193 642.774 337.723 642.561C337.265 642.337 336.907 642.017 336.651 641.601C336.406 641.185 336.283 640.683 336.283 640.097C336.283 639.489 336.417 638.982 336.683 638.577C336.961 638.171 337.361 637.867 337.883 637.665C338.406 637.451 339.035 637.345 339.771 637.345H342.091V638.497H339.707C339.089 638.497 338.614 638.646 338.283 638.945C337.953 639.243 337.787 639.627 337.787 640.097C337.787 640.566 337.953 640.945 338.283 641.233C338.614 641.521 339.089 641.665 339.707 641.665C340.07 641.665 340.417 641.601 340.747 641.473C341.078 641.334 341.35 641.11 341.563 640.801C341.787 640.481 341.91 640.043 341.931 639.489L342.347 640.097C342.294 640.705 342.145 641.217 341.899 641.633C341.665 642.038 341.334 642.347 340.907 642.561C340.491 642.774 339.985 642.881 339.387 642.881ZM351.022 645.857V634.113H352.238V637.809L351.95 637.777C352.004 636.859 352.196 636.113 352.526 635.537C352.868 634.95 353.31 634.518 353.854 634.241C354.398 633.963 354.99 633.825 355.63 633.825C356.249 633.825 356.809 633.942 357.31 634.177C357.822 634.411 358.26 634.731 358.622 635.137C358.985 635.542 359.262 636.011 359.454 636.545C359.646 637.078 359.742 637.643 359.742 638.241V638.529C359.742 639.126 359.641 639.691 359.438 640.225C359.236 640.758 358.948 641.227 358.574 641.633C358.212 642.038 357.774 642.358 357.262 642.593C356.761 642.827 356.206 642.945 355.598 642.945C354.99 642.945 354.409 642.811 353.854 642.545C353.3 642.278 352.841 641.846 352.478 641.249C352.116 640.651 351.908 639.867 351.854 638.897L352.558 640.177V645.857H351.022ZM355.358 641.601C355.934 641.601 356.436 641.467 356.862 641.201C357.289 640.923 357.62 640.545 357.854 640.065C358.089 639.574 358.206 639.014 358.206 638.385C358.206 637.745 358.089 637.185 357.854 636.705C357.62 636.225 357.289 635.851 356.862 635.585C356.436 635.307 355.934 635.169 355.358 635.169C354.846 635.169 354.372 635.286 353.934 635.521C353.497 635.745 353.145 636.075 352.878 636.513C352.622 636.939 352.494 637.457 352.494 638.065V638.801C352.494 639.387 352.628 639.889 352.894 640.305C353.161 640.721 353.513 641.041 353.95 641.265C354.388 641.489 354.857 641.601 355.358 641.601ZM366.854 645.857V634.113H368.07V637.809L367.782 637.777C367.835 636.859 368.027 636.113 368.358 635.537C368.699 634.95 369.142 634.518 369.686 634.241C370.23 633.963 370.822 633.825 371.462 633.825C372.08 633.825 372.64 633.942 373.142 634.177C373.654 634.411 374.091 634.731 374.454 635.137C374.816 635.542 375.094 636.011 375.286 636.545C375.478 637.078 375.574 637.643 375.574 638.241V638.529C375.574 639.126 375.472 639.691 375.27 640.225C375.067 640.758 374.779 641.227 374.406 641.633C374.043 642.038 373.606 642.358 373.094 642.593C372.592 642.827 372.038 642.945 371.43 642.945C370.822 642.945 370.24 642.811 369.686 642.545C369.131 642.278 368.672 641.846 368.31 641.249C367.947 640.651 367.739 639.867 367.686 638.897L368.39 640.177V645.857H366.854ZM371.19 641.601C371.766 641.601 372.267 641.467 372.694 641.201C373.12 640.923 373.451 640.545 373.686 640.065C373.92 639.574 374.038 639.014 374.038 638.385C374.038 637.745 373.92 637.185 373.686 636.705C373.451 636.225 373.12 635.851 372.694 635.585C372.267 635.307 371.766 635.169 371.19 635.169C370.678 635.169 370.203 635.286 369.766 635.521C369.328 635.745 368.976 636.075 368.71 636.513C368.454 636.939 368.326 637.457 368.326 638.065V638.801C368.326 639.387 368.459 639.889 368.726 640.305C368.992 640.721 369.344 641.041 369.782 641.265C370.219 641.489 370.688 641.601 371.19 641.601ZM383.101 642.657V634.113H384.637V642.657H383.101ZM381.789 635.329V634.113H384.637V635.329H381.789ZM383.533 632.737C383.192 632.737 382.936 632.646 382.765 632.465C382.605 632.283 382.525 632.054 382.525 631.777C382.525 631.499 382.605 631.27 382.765 631.089C382.936 630.907 383.192 630.817 383.533 630.817C383.874 630.817 384.125 630.907 384.285 631.089C384.456 631.27 384.541 631.499 384.541 631.777C384.541 632.054 384.456 632.283 384.285 632.465C384.125 632.646 383.874 632.737 383.533 632.737ZM396.039 642.945C395.292 642.945 394.647 642.817 394.103 642.561C393.559 642.305 393.116 641.969 392.775 641.553C392.434 641.126 392.178 640.651 392.007 640.129C391.847 639.606 391.767 639.073 391.767 638.529V638.241C391.767 637.686 391.847 637.147 392.007 636.625C392.178 636.102 392.434 635.633 392.775 635.217C393.116 634.79 393.548 634.454 394.071 634.209C394.604 633.953 395.228 633.825 395.943 633.825C396.871 633.825 397.634 634.027 398.231 634.433C398.839 634.827 399.287 635.339 399.575 635.969C399.874 636.598 400.023 637.27 400.023 637.985V638.673H392.439V637.521H398.903L398.551 638.145C398.551 637.537 398.455 637.014 398.263 636.577C398.071 636.129 397.783 635.782 397.399 635.537C397.015 635.291 396.53 635.169 395.943 635.169C395.335 635.169 394.828 635.307 394.423 635.585C394.028 635.862 393.73 636.241 393.527 636.721C393.335 637.201 393.239 637.755 393.239 638.385C393.239 638.993 393.335 639.542 393.527 640.033C393.73 640.513 394.039 640.897 394.455 641.185C394.871 641.462 395.399 641.601 396.039 641.601C396.711 641.601 397.255 641.451 397.671 641.153C398.098 640.854 398.354 640.507 398.439 640.113H399.879C399.762 640.699 399.527 641.206 399.175 641.633C398.823 642.059 398.38 642.385 397.847 642.609C397.314 642.833 396.711 642.945 396.039 642.945ZM407.004 642.657V634.113H408.22V637.633H408.156C408.156 636.385 408.428 635.473 408.972 634.897C409.526 634.31 410.353 634.017 411.452 634.017H411.74V635.393H411.196C410.342 635.393 409.686 635.622 409.228 636.081C408.769 636.529 408.54 637.179 408.54 638.033V642.657H407.004ZM435.472 642.657V633.681C435.472 632.731 435.722 632.033 436.224 631.585C436.725 631.137 437.461 630.913 438.432 630.913H439.488V632.193H438.176C437.781 632.193 437.477 632.305 437.264 632.529C437.05 632.742 436.944 633.041 436.944 633.425V642.657H435.472ZM434.288 635.361V634.209H439.648V635.361H434.288ZM449.07 642.913C448.057 642.913 447.278 642.582 446.734 641.921C446.19 641.259 445.918 640.305 445.918 639.057V634.097H447.454V639.361C447.454 640.033 447.635 640.561 447.998 640.945C448.361 641.318 448.851 641.505 449.47 641.505C450.11 641.505 450.633 641.302 451.038 640.897C451.443 640.481 451.646 639.915 451.646 639.201V634.097H453.182V642.657H451.966V638.993H452.158C452.158 639.835 452.046 640.55 451.822 641.137C451.598 641.713 451.262 642.155 450.814 642.465C450.377 642.763 449.817 642.913 449.134 642.913H449.07ZM464.285 642.753C463.645 642.753 463.09 642.662 462.621 642.481C462.162 642.299 461.805 641.99 461.549 641.553C461.304 641.105 461.181 640.502 461.181 639.745V631.521H462.653V639.937C462.653 640.395 462.776 640.753 463.021 641.009C463.277 641.254 463.634 641.377 464.093 641.377H465.597V642.753H464.285ZM459.709 635.265V634.113H465.597V635.265H459.709ZM475.529 642.913C474.516 642.913 473.737 642.582 473.193 641.921C472.649 641.259 472.377 640.305 472.377 639.057V634.097H473.913V639.361C473.913 640.033 474.095 640.561 474.457 640.945C474.82 641.318 475.311 641.505 475.929 641.505C476.569 641.505 477.092 641.302 477.497 640.897C477.903 640.481 478.105 639.915 478.105 639.201V634.097H479.641V642.657H478.425V638.993H478.617C478.617 639.835 478.505 640.55 478.281 641.137C478.057 641.713 477.721 642.155 477.273 642.465C476.836 642.763 476.276 642.913 475.593 642.913H475.529ZM487.416 642.657V634.113H488.632V637.633H488.568C488.568 636.385 488.84 635.473 489.384 634.897C489.939 634.31 490.766 634.017 491.864 634.017H492.152V635.393H491.608C490.755 635.393 490.099 635.622 489.64 636.081C489.182 636.529 488.952 637.179 488.952 638.033V642.657H487.416ZM502.317 642.945C501.57 642.945 500.925 642.817 500.381 642.561C499.837 642.305 499.394 641.969 499.053 641.553C498.712 641.126 498.456 640.651 498.285 640.129C498.125 639.606 498.045 639.073 498.045 638.529V638.241C498.045 637.686 498.125 637.147 498.285 636.625C498.456 636.102 498.712 635.633 499.053 635.217C499.394 634.79 499.826 634.454 500.349 634.209C500.882 633.953 501.506 633.825 502.221 633.825C503.149 633.825 503.912 634.027 504.509 634.433C505.117 634.827 505.565 635.339 505.853 635.969C506.152 636.598 506.301 637.27 506.301 637.985V638.673H498.717V637.521H505.181L504.829 638.145C504.829 637.537 504.733 637.014 504.541 636.577C504.349 636.129 504.061 635.782 503.677 635.537C503.293 635.291 502.808 635.169 502.221 635.169C501.613 635.169 501.106 635.307 500.701 635.585C500.306 635.862 500.008 636.241 499.805 636.721C499.613 637.201 499.517 637.755 499.517 638.385C499.517 638.993 499.613 639.542 499.805 640.033C500.008 640.513 500.317 640.897 500.733 641.185C501.149 641.462 501.677 641.601 502.317 641.601C502.989 641.601 503.533 641.451 503.949 641.153C504.376 640.854 504.632 640.507 504.717 640.113H506.157C506.04 640.699 505.805 641.206 505.453 641.633C505.101 642.059 504.658 642.385 504.125 642.609C503.592 642.833 502.989 642.945 502.317 642.945ZM512.853 642.657V640.705H514.709V642.657H512.853Z" fill="white"/>
<circle opacity="0.2" cx="375.422" cy="375.157" r="277" stroke="white"/>
<circle opacity="0.1" cx="375.422" cy="375.157" r="374" stroke="white"/>
<defs>
<filter id="filter0_d_751_5382" x="90.5344" y="245.961" width="572.08" height="278.72" filterUnits="userSpaceOnUse" color-interpolation-filters="sRGB">
<feFlood flood-opacity="0" result="BackgroundImageFix"/>
<feColorMatrix in="SourceAlpha" type="matrix" values="0 0 0 0 0 0 0 0 0 0 0 0 0 0 0 0 0 0 127 0" result="hardAlpha"/>
<feOffset/>
<feGaussianBlur stdDeviation="5.5"/>
<feComposite in2="hardAlpha" operator="out"/>
<feColorMatrix type="matrix" values="0 0 0 0 0 0 0 0 0 0 0 0 0 0 0 0 0 0 0.4 0"/>
<feBlend mode="normal" in2="BackgroundImageFix" result="effect1_dropShadow_751_5382"/>
<feBlend mode="normal" in="SourceGraphic" in2="effect1_dropShadow_751_5382" result="shape"/>
</filter>
</defs>
</svg>
