<svg width="278" height="33" viewBox="0 0 278 33" fill="none" xmlns="http://www.w3.org/2000/svg">
<g filter="url(#filter0_d_38_350)">
<path d="M12.7062 13.0376C12.9542 13.1454 13.0728 13.2748 13.0728 13.4365C13.0728 13.5443 12.9434 13.6414 12.6739 13.7061C12.3612 13.8139 11.6819 13.9648 10.6146 14.1481C9.00809 14.3961 7.95148 14.5147 7.46631 14.5147C6.91644 14.5147 6.5283 14.45 6.31267 14.3314C6.10782 14.1805 6 14.0511 6 13.9433C6 13.8462 6.19407 13.7923 6.58221 13.7815C7.49865 13.6845 8.51213 13.5336 9.61186 13.3071C10.3774 13.167 10.9919 13.016 11.4663 12.8543C11.628 12.7896 11.7466 12.7573 11.8005 12.7573C12.0377 12.7573 12.3396 12.8543 12.7062 13.0376ZM9.05121 7.75458C9.05121 7.75458 9.32076 7.91631 9.87062 8.22898C10.2803 8.48774 10.496 8.7465 10.496 9.01604C10.496 9.08073 10.4636 9.19933 10.4097 9.36105C10.3019 9.7492 10.2156 10.45 10.1402 11.4635C9.95688 13.9433 9.87062 15.7654 9.87062 16.9406L9.8275 23.9487C9.8275 24.3045 9.71968 24.6818 9.51483 25.1023C9.36388 25.4365 9.20216 25.609 9.01887 25.609C8.93262 25.609 8.79245 25.4257 8.5876 25.0592C8.31806 24.4554 8.18868 24.0026 8.18868 23.7007C8.18868 23.4635 8.23181 23.1508 8.32884 22.7627C8.469 22.2559 8.5876 21.3179 8.69542 19.9379C8.88949 17.9972 8.98652 15.636 8.98652 12.8651C8.98652 11.2694 8.93262 10.1912 8.8248 9.6306C8.77089 9.13464 8.67386 8.77885 8.55526 8.54165C8.49057 8.39071 8.44744 8.25054 8.40431 8.13195C8.40431 7.87318 8.53369 7.75458 8.78167 7.75458H9.05121ZM14.0647 15.5929C14.3774 15.7762 14.5283 15.9702 14.5283 16.1751C14.5283 16.2829 14.5067 16.3799 14.4744 16.4877C14.2695 17.016 14.1186 17.4042 14.0216 17.6737C13.6658 19.0969 13.2561 20.2829 12.8032 21.2209C12.2534 22.4284 11.628 23.3018 10.9272 23.8193C10.5822 24.1319 10.3558 24.2937 10.248 24.2937C10.1833 24.2937 10.1617 24.2613 10.1617 24.2074C10.8086 23.2371 11.3585 22.2128 11.8113 21.1454C12.1671 20.326 12.4906 19.3125 12.7817 18.0834C12.965 17.3179 13.062 16.6063 13.062 15.9379L12.9542 15.5066C12.9542 15.3449 13.0297 15.2694 13.1698 15.2694C13.4178 15.2694 13.7089 15.3772 14.0647 15.5929ZM16.4151 17.1023C16.8356 17.3503 17.0512 17.5767 17.0512 17.7708C17.0512 17.857 16.9865 17.9756 16.8679 18.1373C16.717 18.3853 16.5768 18.8381 16.469 19.5066C16.2534 21.0592 16.0593 22.1266 15.8868 22.6872C15.6173 23.5174 15.283 24.078 14.8625 24.3799C14.6038 24.574 14.3881 24.6602 14.2372 24.6602L14.1509 22.9783C14.2911 22.9783 14.4097 22.8705 14.5067 22.6656C14.7655 22.2559 14.9919 21.4904 15.1968 20.3799C15.3477 19.5174 15.4232 18.7735 15.4232 18.1589C15.4232 17.8678 15.2291 17.7276 14.841 17.7276C14.6146 17.7276 14.2803 17.7815 13.8167 17.9001C13.2884 18.0403 12.7601 18.2236 12.2318 18.4608C12.0916 18.5039 11.9946 18.5363 11.9299 18.5363C11.7251 18.5363 11.4987 18.45 11.2507 18.2883C11.0027 18.1373 10.8733 18.0187 10.8733 17.9325C10.9164 17.857 11.0243 17.8247 11.186 17.8247C11.6496 17.8031 12.3288 17.6845 13.2022 17.4689C14.1617 17.2748 14.8949 17.0592 15.4124 16.8435C15.531 16.8004 15.6065 16.7896 15.6388 16.7896C15.7143 16.7465 15.9731 16.8651 16.4151 17.1023ZM14.1402 22.9675L14.2264 24.6495C14.097 24.6495 13.9784 24.5093 13.8598 24.2182C13.6334 23.7546 13.3208 23.2586 12.9326 22.7088C12.9326 22.6549 12.9542 22.6225 12.9973 22.6225C13.5795 22.8489 13.9569 22.9675 14.1402 22.9675ZM18.1186 6.89205C18.4852 7.0969 18.6685 7.3341 18.6685 7.58208C18.6685 7.67911 18.6469 7.78693 18.6038 7.88397C18.3666 8.37992 18.1833 8.75728 18.0755 9.00526C17.655 10.353 17.1914 11.4743 16.6631 12.3691C16.027 13.512 15.3046 14.3422 14.496 14.8381C14.097 15.14 13.8383 15.291 13.7089 15.291C13.6334 15.291 13.6011 15.2586 13.6011 15.1832C14.345 14.2559 14.9704 13.2856 15.4987 12.2721C15.9084 11.4958 16.2749 10.5255 16.6092 9.36105C16.8248 8.6279 16.9326 7.95944 16.9326 7.32332L16.8032 6.81658C16.8032 6.63329 16.8895 6.53626 17.062 6.53626C17.3423 6.51469 17.6981 6.64407 18.1186 6.89205ZM21.3639 8.60634C21.7844 8.88666 22 9.13464 22 9.35028C22 9.41497 21.9353 9.52278 21.8167 9.66294C21.6658 9.86779 21.5256 10.2667 21.4178 10.8381C21.2022 12.1751 21.0081 13.0915 20.8356 13.5767C20.5768 14.2991 20.2318 14.7842 19.8113 15.0322C19.5526 15.1939 19.3369 15.2802 19.186 15.2802L19.0997 13.5983C19.2399 13.5983 19.3585 13.512 19.4555 13.3503C19.7143 13.0268 19.9407 12.4231 20.1456 11.539C20.2965 10.8489 20.372 10.2667 20.372 9.77076C20.372 9.44731 20.1779 9.28558 19.7898 9.28558C19.4663 9.28558 18.9596 9.35027 18.2695 9.46887C17.4933 9.61981 16.717 9.81389 15.9299 10.0619C15.7251 10.1158 15.5849 10.1373 15.4879 10.1373C15.2615 10.1373 15.0027 10.0511 14.7332 9.85701C14.4528 9.69529 14.3127 9.55513 14.3127 9.45809C14.3666 9.37184 14.4744 9.32871 14.6577 9.32871C15.283 9.30715 16.1779 9.17777 17.3423 8.94057C18.6146 8.72494 19.5957 8.49852 20.2749 8.26132C20.4259 8.2182 20.5337 8.19663 20.5768 8.19663C20.6631 8.20741 20.9326 8.34758 21.3639 8.60634ZM20.9434 15.4743C21.31 15.6791 21.4933 15.9163 21.4933 16.1643C21.4933 16.2829 21.4717 16.4015 21.4178 16.5201C21.1375 17.1131 20.9326 17.5551 20.8032 17.8462C20.3181 19.4419 19.7682 20.7681 19.1644 21.8247C18.4313 23.1832 17.5903 24.1535 16.6415 24.7465C16.1779 25.1023 15.876 25.2748 15.7251 25.2748C15.6496 25.2748 15.6173 25.2425 15.6173 25.167C16.5337 24.078 17.3208 22.9352 17.9677 21.7276C18.4744 20.8112 18.9272 19.6683 19.3477 18.2991C19.6173 17.4365 19.7466 16.6387 19.7466 15.8948L19.6173 15.388C19.6173 15.2047 19.7035 15.1077 19.876 15.1077C20.1671 15.0969 20.5229 15.2263 20.9434 15.4743ZM23.9299 17.0053C24.3935 17.2856 24.6307 17.5336 24.6307 17.7492C24.6307 17.8355 24.5553 17.9756 24.4043 18.1589C24.2103 18.4284 24.0485 18.946 23.9084 19.7115C23.6388 21.4689 23.4016 22.6656 23.186 23.3125C22.8518 24.2505 22.4313 24.8867 21.9138 25.2209C21.5903 25.4365 21.3208 25.5336 21.1375 25.5336L21.0404 23.6683C21.2345 23.6683 21.3962 23.5497 21.5472 23.3125C21.903 22.8381 22.2264 21.9756 22.5175 20.7034C22.7332 19.7222 22.841 18.8705 22.841 18.1697C22.841 17.8462 22.6253 17.6845 22.1941 17.6845C21.9245 17.6845 21.4933 17.7384 20.9218 17.8462C20.2749 17.9756 19.6173 18.1589 18.9704 18.3853C18.7978 18.4284 18.6793 18.45 18.6038 18.45C18.3774 18.45 18.1186 18.3637 17.8491 18.1805C17.5687 18.008 17.4286 17.8786 17.4286 17.7815C17.4717 17.6953 17.5903 17.6522 17.7736 17.6522C18.3342 17.6306 19.1321 17.512 20.1779 17.2964C21.3208 17.1023 22.1941 16.8867 22.8086 16.671C22.9488 16.6279 23.035 16.6063 23.0782 16.6063C23.1536 16.6171 23.4448 16.7465 23.9299 17.0053ZM19.089 13.5983L19.1752 15.2802C19.0243 15.2802 18.8733 15.1293 18.7332 14.8489C18.4636 14.3853 18.097 13.8894 17.6119 13.3395C17.6119 13.2856 17.6334 13.2532 17.6766 13.2532C18.3989 13.4797 18.8733 13.5983 19.089 13.5983ZM21.0297 23.6683L21.1267 25.5336C20.965 25.5336 20.8032 25.3611 20.6523 25.0268C20.372 24.4877 19.9731 23.8948 19.4663 23.2479C19.4663 23.1832 19.4879 23.1508 19.531 23.1508C20.2965 23.4958 20.7925 23.6683 21.0297 23.6683Z" fill="black"/>
<path d="M32.5016 8.78902C32.7604 8.96153 32.9005 9.23107 32.9005 9.59765C32.7604 17.6408 32.5663 22.2338 32.3399 23.3766C32.2428 23.9912 32.0703 24.3038 31.8331 24.3038C31.6391 24.3038 31.445 24.1313 31.2509 23.7755C30.9922 23.3335 30.8628 22.8915 30.8628 22.4386C30.8628 22.1367 30.9059 21.8564 31.003 21.6192C31.2186 20.9184 31.3803 19.8941 31.5097 18.5572C31.6606 17.2742 31.7253 15.1179 31.7253 12.0882C31.7253 10.7728 31.5852 9.84563 31.2941 9.29576C31.1862 9.10169 31.1323 8.95075 31.1323 8.8645C31.1323 8.67043 31.2617 8.57339 31.5313 8.57339C31.9194 8.55183 32.2428 8.6273 32.5016 8.78902ZM45.3965 8.00196C45.8493 8.34698 46.0757 8.6273 46.0757 8.85371C46.0757 8.99387 46.011 9.16638 45.8817 9.37123C45.666 9.85641 45.5582 10.7513 45.5582 12.0343C45.5582 14.9777 45.5798 17.1664 45.6229 18.6111C45.666 19.7109 45.6876 20.9184 45.6876 22.2446C45.6876 23.3227 45.4612 24.1637 44.9976 24.7567C44.4585 25.3928 43.9841 25.7055 43.5852 25.7055L42.9059 23.2472C43.2294 23.2472 43.4989 23.0855 43.7145 22.7513C44.038 22.0074 44.1997 19.8726 44.1997 16.3362C44.1997 14.6974 44.1674 12.5626 44.1027 9.9211C44.0811 9.43592 44.038 9.13404 43.9733 9.037C43.8655 8.89684 43.7253 8.83215 43.5528 8.83215C43.1647 8.83215 42.065 8.89684 40.2428 9.037C37.2671 9.37123 35.1539 9.64077 33.9032 9.83484C33.3318 9.96422 32.9437 10.0289 32.7496 10.0289C32.5555 10.0289 32.3291 9.93188 32.0596 9.72703C31.8439 9.53296 31.7361 9.36045 31.7361 9.24185C31.7361 9.12325 31.941 9.04778 32.3399 9.02622C34.2267 8.90762 36.4369 8.68121 38.9922 8.35776C40.7388 8.06665 42.1189 7.79711 43.1216 7.55991C43.79 7.40897 44.1674 7.3335 44.2321 7.3335C44.383 7.3335 44.7712 7.55991 45.3965 8.00196ZM35.2078 15.2688C35.2078 15.2688 35.3048 15.3012 35.4881 15.3766C35.9086 15.5168 36.1135 15.7001 36.1135 15.9049C36.1135 16.1313 36.1135 16.3685 36.1243 16.6165C36.1674 18.126 36.1889 19.161 36.1889 19.7324C36.1889 19.9373 36.1566 20.0882 36.1027 20.2068C36.038 20.3362 35.9733 20.4009 35.8871 20.4009C35.79 20.4009 35.693 20.3254 35.5959 20.1637C35.4558 19.9588 35.3695 19.7432 35.3588 19.5168L35.2078 18.0936C35.1539 17.3497 35.0892 16.8322 35.0245 16.541C34.9814 16.2392 34.8736 15.9588 34.7011 15.7001C34.6364 15.6354 34.604 15.5815 34.604 15.5491C34.604 15.3658 34.6795 15.2796 34.8304 15.2796H35.2078V15.2688ZM40.5879 11.7109C40.879 11.8402 41.0299 11.9912 41.0299 12.1852C41.0299 12.2715 40.9221 12.3362 40.7172 12.3793C40.4693 12.4656 39.9302 12.5734 39.0892 12.7028C37.817 12.8861 36.976 12.9723 36.5879 12.9723C35.941 12.9723 35.4774 12.8968 35.2294 12.7567C34.9706 12.5734 34.852 12.4224 34.852 12.2931C34.852 12.2176 35.0137 12.1745 35.3264 12.1637C36.0703 12.0882 36.879 11.9696 37.7631 11.7971C38.3776 11.6893 38.8844 11.5707 39.2617 11.4521C39.3911 11.3982 39.4881 11.3766 39.5313 11.3766C39.79 11.3766 40.1458 11.4844 40.5879 11.7109ZM40.4154 14.6327C40.4154 14.6327 40.6202 14.7621 41.0299 15.0316C41.5367 15.3874 41.7954 15.6462 41.7954 15.8187C41.7954 15.8726 41.7415 15.9481 41.6337 16.0451C41.472 16.1745 41.3534 16.3578 41.2563 16.6165C41.0623 17.0262 40.8574 17.5977 40.6418 18.3632C40.5663 18.5464 40.383 18.6974 40.0919 18.816C39.8547 18.8807 39.6606 18.9022 39.5205 18.9022C39.4774 18.9022 39.4019 18.8699 39.3048 18.816C39.2402 18.6974 39.2186 18.6327 39.2186 18.6111C39.2186 18.5896 39.2402 18.5249 39.2725 18.4278C39.3803 18.072 39.4774 17.63 39.5744 17.1017C39.6606 16.6273 39.7038 16.2715 39.7038 16.0451C39.7038 15.8079 39.4666 15.6893 39.003 15.6893C38.8197 15.6893 38.3237 15.7755 37.5151 15.9373C36.4154 16.1637 35.8331 16.2715 35.79 16.2715C35.5852 16.2715 35.4127 16.2068 35.2617 16.0882C35.1108 15.9696 35.0353 15.8726 35.0353 15.7971C35.0353 15.6893 35.1216 15.6354 35.2833 15.6246H35.5313C36.135 15.5815 36.8251 15.4737 37.6229 15.3227C38.3561 15.161 39.0137 14.9777 39.5959 14.7944C39.8547 14.6974 40.0272 14.6543 40.1243 14.6543H40.4154V14.6327ZM39.941 18.2014C39.941 18.2014 40.1458 18.2985 40.5447 18.4925C40.8574 18.7082 41.0191 18.8807 41.0191 19.0208C41.0191 19.1071 40.9544 19.1394 40.8251 19.1394C40.286 19.1394 39.8008 19.1718 39.3588 19.2257L37.2887 19.409C36.9113 19.4521 36.6202 19.4737 36.4261 19.4737C36.0488 19.4737 35.8008 19.409 35.6606 19.2688C35.5205 19.1286 35.4558 19.01 35.4558 18.8807C35.4558 18.7082 35.5636 18.6219 35.7792 18.6219C36.8035 18.568 37.7631 18.4494 38.6472 18.2877C39.1323 18.2122 39.4666 18.1799 39.6283 18.1799H39.941V18.2014ZM41.3426 22.8483C42.2806 23.1179 42.7981 23.2472 42.9059 23.2472L43.5852 25.7055C43.4558 25.7055 43.3048 25.5869 43.1323 25.3605C42.4747 24.595 41.8493 23.9049 41.2348 23.3119C40.9976 23.1179 40.879 22.9993 40.879 22.9346C40.879 22.8375 40.9329 22.7836 41.0299 22.7836C41.0623 22.7944 41.1701 22.8052 41.3426 22.8483Z" fill="black"/>
<path d="M54.0315 15.2696C54.0315 15.2696 54.2364 15.3559 54.6353 15.5392C54.948 15.6793 55.0989 15.8518 55.0989 16.0243C55.0989 16.0782 55.0666 16.1753 55.0127 16.2939C54.9372 16.585 54.8833 16.9084 54.8617 17.2427L54.8294 19.0432C54.8078 19.9273 54.7216 20.7467 54.5598 21.4906C54.4089 22.2238 54.1933 22.806 53.9453 23.2588C53.7297 23.6901 53.3846 24.0998 52.921 24.4987C52.4682 24.833 52.1879 24.9947 52.0693 24.9947C51.983 24.9947 51.9507 24.9623 51.9507 24.8977C52.4466 24.2508 52.8024 23.7009 53.0073 23.2265C53.2768 22.6443 53.4601 21.9758 53.5679 21.2319C53.7081 20.488 53.7836 19.6685 53.7836 18.7737V17.7818C53.7836 17.2103 53.7404 16.7467 53.6434 16.3909C53.6218 16.1753 53.5572 15.9812 53.4493 15.7979C53.2984 15.6578 53.2337 15.5715 53.2337 15.5284C53.2337 15.3451 53.3415 15.2481 53.5679 15.2481H54.0315V15.2696ZM56.6084 7.43135C56.6084 7.43135 56.8024 7.62542 57.2014 8.01356C57.417 8.32623 57.5248 8.55264 57.5248 8.69281C57.5248 8.88688 57.3631 9.17798 57.0504 9.5769L54.8402 12.2723C54.7 12.434 54.6245 12.5311 54.6245 12.5634C54.6245 12.6497 54.7 12.6928 54.8402 12.6928C55.6919 12.5742 56.7809 12.3909 58.1178 12.1429C58.5167 12.0567 58.8078 12.0028 59.0019 11.992C59.2822 11.992 59.4224 12.0782 59.4224 12.2615C59.4224 12.4125 59.1636 12.5526 58.6569 12.682L54.851 13.771C54.3658 13.9004 53.9345 14.0621 53.5464 14.2454C53.2337 14.3963 53.0504 14.4718 53.0073 14.4718C52.7377 14.4718 52.5113 14.1915 52.328 13.6308C52.2741 13.4367 52.2418 13.3074 52.2418 13.2211C52.2418 12.9192 52.4574 12.6605 52.8995 12.4448C53.514 12.1214 54.0315 11.6578 54.4413 11.054C54.8833 10.4502 55.2283 9.90035 55.4979 9.38283C55.789 8.83297 55.983 8.26154 56.0693 7.65776C56.0908 7.48526 56.1987 7.38822 56.3927 7.38822C56.5437 7.42057 56.6084 7.43135 56.6084 7.43135ZM59.3038 14.9893C59.6919 15.2373 59.886 15.4529 59.886 15.6146C59.886 15.744 59.8321 15.895 59.7243 16.0782C59.541 16.5095 59.4439 17.2966 59.4439 18.4502C59.4439 19.5715 59.4655 20.4125 59.4979 20.9623C59.5302 21.3828 59.5518 21.8464 59.5518 22.3532C59.5518 23.2696 59.4116 23.9812 59.1421 24.4772C58.8078 25.0163 58.5275 25.2858 58.2795 25.2858L57.6973 23.2049C57.8483 23.2049 57.9669 23.1295 58.0639 22.9677C58.2148 22.6012 58.2903 21.5553 58.2903 19.8303C58.2903 18.9138 58.258 17.7171 58.2041 16.24C58.1825 15.9704 58.1501 15.7979 58.0962 15.744C58.01 15.6685 57.8806 15.6254 57.7404 15.6254C57.6326 15.6254 57.32 15.6685 56.8024 15.744C55.9615 15.9381 55.3685 16.089 55.0127 16.2076C54.851 16.2831 54.7431 16.3262 54.6892 16.3262C54.5491 16.3262 54.3766 16.2508 54.1825 16.1106C54.0208 15.9597 53.9453 15.8411 53.9453 15.7548C53.9453 15.6793 54.0208 15.6362 54.1609 15.6146C54.8186 15.5392 55.5949 15.399 56.4898 15.1942C57.1043 15.0109 57.5895 14.8384 57.9345 14.6874C58.1717 14.5904 58.3011 14.5473 58.3227 14.5473C58.4412 14.5041 58.7647 14.6658 59.3038 14.9893ZM58.0423 19.3451C58.1286 19.3451 58.1825 19.3774 58.1825 19.4529C58.1825 19.496 58.1501 19.5823 58.0747 19.6901C57.7943 20.0351 57.4493 20.3586 57.0289 20.682C56.6623 21.0055 56.3496 21.275 56.0908 21.5014C55.886 21.6632 55.7135 21.7386 55.5733 21.7386C55.4332 21.7386 55.2067 21.5877 54.8833 21.2858C54.603 20.9623 54.4628 20.7359 54.4628 20.5958C54.4628 20.4987 54.5167 20.4448 54.6245 20.4448C54.9372 20.4448 55.4224 20.3478 56.0801 20.1429C56.7377 19.9165 57.3415 19.6685 57.8698 19.4206C57.9453 19.3667 57.9992 19.3451 58.0423 19.3451ZM56.1663 17.4044C56.727 17.5338 57.0828 17.6739 57.2553 17.8033C57.4278 17.9543 57.5032 18.1052 57.5032 18.2561C57.5032 18.6874 57.32 18.9031 56.9426 18.9031C56.6084 18.9031 56.1663 18.6874 55.6165 18.2454C54.9911 17.7602 54.6784 17.4475 54.6784 17.3289C54.6784 17.2642 54.7324 17.2319 54.8186 17.2211C55.196 17.2211 55.638 17.2858 56.1663 17.4044ZM56.3388 22.8384C57.1474 23.0648 57.6003 23.1834 57.6973 23.1834L58.2795 25.2642C58.1717 25.2642 58.0315 25.1672 57.8914 24.9731C57.3307 24.3154 56.7917 23.7332 56.2741 23.2265C56.0693 23.0648 55.9615 22.957 55.9615 22.9031C55.9615 22.8276 55.9938 22.7952 56.0693 22.7952C56.0908 22.7952 56.1879 22.806 56.3388 22.8384ZM58.5491 10.6659C58.8941 10.8276 59.2283 11.0216 59.5625 11.2481C59.9938 11.5823 60.2849 11.8842 60.4251 12.1537C60.5329 12.3909 60.576 12.6605 60.576 12.9516C60.576 13.1564 60.5221 13.3936 60.4251 13.6524C60.3065 13.8464 60.1448 13.9435 59.9615 13.9435C59.9076 13.9435 59.8321 13.8788 59.7243 13.7494C59.5518 13.5661 59.3361 13.1888 59.0666 12.6066C58.7216 11.8842 58.452 11.3882 58.2795 11.1402C58.1394 10.957 58.0747 10.8276 58.0747 10.7305C58.0747 10.6227 58.1178 10.5796 58.1933 10.5796C58.2472 10.5904 58.3766 10.6119 58.5491 10.6659ZM61.9022 15.8087C61.9022 15.8087 62.0855 15.9165 62.452 16.1214C62.8402 16.337 63.0235 16.5742 63.0235 16.833C63.0127 16.8869 62.9696 16.9623 62.9156 17.0702C62.797 17.3181 62.6892 17.8357 62.603 18.6227C62.4952 19.5499 62.452 20.2615 62.452 20.7575C62.452 22.019 62.7 22.8276 63.196 23.1834C63.789 23.5284 64.6623 23.7009 65.8051 23.7009C66.9588 23.7009 67.7243 23.5392 68.134 23.2157C68.5976 22.7952 68.921 22.1483 69.1259 21.275L69.2984 19.9704C69.3307 19.6685 69.3954 19.5176 69.514 19.5176C69.6111 19.5176 69.6973 19.7548 69.762 20.24C69.9561 21.4799 70.1717 22.3316 70.4089 22.8168C70.5706 23.1402 70.6569 23.4313 70.6569 23.6901C70.6569 24.0243 70.2795 24.3262 69.5248 24.6066C68.6515 24.9408 67.5086 25.1025 66.0747 25.1025C64.3927 25.1025 63.2067 24.8222 62.5059 24.2508C61.7836 23.6146 61.4278 22.5796 61.4278 21.1456C61.4278 20.7791 61.417 20.3478 61.4062 19.8411C61.3846 19.3559 61.3846 18.7413 61.3846 17.9866C61.3846 17.372 61.32 16.8761 61.2014 16.4987C61.1043 16.3047 61.0504 16.1537 61.0504 16.0459C61.0504 15.8842 61.169 15.8087 61.3954 15.8087H61.9022ZM62.6353 7.69011C62.9049 7.79793 63.045 7.94887 63.045 8.14294C63.0235 8.21841 62.9696 8.39092 62.8833 8.62812C62.6677 9.44752 62.5598 10.8276 62.5598 12.7898C62.5598 13.3074 62.6569 13.6739 62.8402 13.9004C63.0235 14.1268 63.3361 14.2454 63.7674 14.2454C64.8995 14.2454 65.8375 14.116 66.5814 13.8572C66.9803 13.6739 67.2607 13.5877 67.4116 13.5877C67.7135 13.5877 67.9938 13.6632 68.2418 13.8249C68.5437 14.0297 68.6946 14.2346 68.6946 14.4394C68.6946 14.6012 68.479 14.7521 68.0585 14.8923C67.0774 15.1942 65.9884 15.3451 64.7809 15.3451C63.5194 15.3451 62.6569 15.1079 62.1933 14.6443C61.7512 14.1807 61.5356 13.5553 61.5356 12.7791C61.5356 11.9812 61.5248 11.2696 61.4925 10.6659C61.4709 10.0621 61.4601 9.56612 61.4601 9.15642C61.4601 8.67124 61.417 8.29388 61.3307 8.02434C61.2445 7.89496 61.2014 7.76558 61.2014 7.65776C61.2014 7.47447 61.2984 7.37744 61.4925 7.37744C61.8483 7.399 62.2256 7.49604 62.6353 7.69011ZM67.638 18.5365C68.0585 18.7305 68.2741 18.9138 68.2741 19.0648C68.2741 19.2804 67.9722 19.4745 67.3577 19.6146C66.4952 19.7332 65.6111 19.8734 64.7162 20.0243C64.2634 20.0998 63.8321 20.1322 63.4116 20.1322C63.0882 20.1322 62.7647 20.0998 62.4197 20.0243C62.0747 19.9489 61.9022 19.8734 61.9022 19.7764C61.9022 19.6578 62.107 19.5607 62.5167 19.4637C64.4682 18.9893 65.6542 18.6874 66.0747 18.5688C66.6138 18.4287 66.9049 18.3532 66.9696 18.3532C67.0342 18.3747 67.2607 18.4287 67.638 18.5365ZM67.0127 10.1376C67.4332 10.3316 67.638 10.5149 67.638 10.6659C67.638 10.8276 67.39 10.9677 66.9049 11.0756C66.2148 11.1726 65.514 11.2696 64.7917 11.3774C64.4359 11.4313 64.0908 11.4637 63.7566 11.4637C63.4332 11.4637 63.1097 11.4313 62.7647 11.3559C62.4197 11.2804 62.2472 11.2049 62.2472 11.1079C62.2472 10.9893 62.452 10.8923 62.8617 10.7952C64.382 10.4394 65.3092 10.213 65.6434 10.116C66.0639 10.0082 66.2903 9.95426 66.3442 9.95426C66.4197 9.96504 66.6353 10.019 67.0127 10.1376Z" fill="black"/>
<path d="M78.8095 15.8085C78.9174 15.8085 78.9713 15.8732 78.9713 16.0026C78.9713 16.2183 78.8635 16.6064 78.637 17.1563C78.2273 18.2021 77.6882 19.4204 77.009 20.8005C76.7826 21.318 76.5454 21.9649 76.2758 22.7412C76.1141 23.3018 75.8985 23.5821 75.6613 23.5821C75.4672 23.5821 75.2516 23.3342 75.0144 22.8382C74.7017 22.0511 74.5508 21.5336 74.5508 21.2964C74.5508 21.0808 74.6802 20.8867 74.9497 20.725C75.4564 20.4123 75.9093 19.9918 76.2866 19.4635C76.8688 18.7843 77.6128 17.6199 78.5184 15.9811C78.6263 15.8625 78.7125 15.8085 78.8095 15.8085ZM75.6505 13.1131C76.2974 13.2964 76.7934 13.5013 77.1168 13.7277C77.4079 13.9864 77.5481 14.3422 77.5481 14.7843C77.5481 15.3449 77.3217 15.6253 76.8473 15.6253C76.6855 15.6253 76.5023 15.539 76.319 15.3665C75.9632 15.0538 75.4672 14.4069 74.8203 13.4042C74.7341 13.2964 74.6909 13.2209 74.6909 13.167C74.7233 13.0377 74.7988 12.973 74.9066 12.973C75.133 12.973 75.381 13.0161 75.6505 13.1131ZM77.2893 8.85437C77.9794 9.0161 78.5077 9.21017 78.8527 9.40424C79.1653 9.64143 79.3163 9.9541 79.3163 10.353C79.3163 10.9137 79.0791 11.2048 78.6155 11.2048C78.4322 11.2048 78.2381 11.1185 78.044 10.9676C77.6559 10.6765 77.1168 10.0727 76.416 9.14548C76.3298 9.04844 76.2758 8.97297 76.2758 8.92984C76.3082 8.80046 76.3837 8.73577 76.4915 8.73577C76.7395 8.72499 76.9982 8.76812 77.2893 8.85437ZM82.3783 8.99453C82.788 9.10235 83.0036 9.28564 83.0036 9.53362C82.9174 9.8355 82.8742 10.0188 82.8527 10.0943C82.5939 12.973 82.2165 15.3773 81.7422 17.2964C81.3109 18.9352 80.7826 20.3476 80.1357 21.5336C79.381 22.7412 78.5508 23.6576 77.6667 24.2829C77.5696 24.3584 77.4403 24.3908 77.2893 24.3908C77.2785 24.3908 77.2678 24.3584 77.2678 24.3045C78.0009 23.3773 78.6047 22.3962 79.0791 21.3719C79.9632 19.5821 80.5885 17.7493 80.9443 15.8625C81.3001 14.0619 81.4726 12.2614 81.4726 10.4501C81.4726 10.1913 81.4187 9.93254 81.3001 9.64143C81.1707 9.39345 81.106 9.23173 81.106 9.1886C81.106 8.99453 81.2138 8.90828 81.4187 8.90828C81.5481 8.90828 81.8715 8.94062 82.3783 8.99453ZM83.7799 19.4743C84.168 19.636 84.3729 19.8301 84.3729 20.0565C84.3729 20.1643 84.319 20.2614 84.2219 20.3368C84.0063 20.5094 83.7691 20.7789 83.5211 21.1347C83.0683 21.7277 82.5831 22.2344 82.0872 22.6333C81.7637 22.946 81.4834 23.1509 81.2462 23.2479C81.0953 23.3557 80.9874 23.4096 80.912 23.4096C80.7826 23.4096 80.7179 23.3665 80.7179 23.2802C81.0953 22.8382 81.4403 22.3638 81.7529 21.8463C82.1842 21.1994 82.4969 20.6172 82.6909 20.0781C82.7556 19.9379 82.7988 19.7007 82.7988 19.3773C82.7988 19.291 82.8742 19.2479 83.0144 19.2479C83.1114 19.2479 83.3702 19.3234 83.7799 19.4743ZM90.6802 7.73308C90.9497 7.85168 91.0899 7.99184 91.0899 8.17513C91.0899 8.30451 90.885 8.41232 90.4753 8.48779C90.0009 8.61717 88.9443 8.78968 87.3055 8.99453C84.8257 9.27486 83.1977 9.41502 82.443 9.41502C81.8392 9.41502 81.4187 9.35033 81.1815 9.21017C80.9443 9.04844 80.8257 8.8975 80.8257 8.7789C80.8257 8.67108 81.1276 8.60639 81.7206 8.59561C83.1222 8.4878 84.664 8.3045 86.3459 8.04574C87.5211 7.88402 88.4591 7.71151 89.1815 7.52823C89.4403 7.45275 89.6128 7.42041 89.6882 7.42041C89.947 7.42041 90.2705 7.52823 90.6802 7.73308ZM83.3378 13.0592C83.3378 13.0592 83.4457 13.1024 83.6505 13.1778C84.1141 13.3395 84.3405 13.5336 84.3405 13.76C84.3405 13.9972 84.3621 14.2452 84.416 14.504C84.7179 16.0889 84.8581 17.1886 84.8581 17.7924C84.8581 18.0188 84.8257 18.1913 84.761 18.3207C84.6963 18.4608 84.6101 18.5363 84.5238 18.5363C84.416 18.5363 84.3082 18.4501 84.2004 18.2776C84.0386 18.0511 83.9524 17.8139 83.9416 17.5552L83.6936 16.0565C83.5966 15.2695 83.4888 14.7304 83.381 14.4177C83.3055 14.0943 83.133 13.7924 82.8311 13.5228C82.7233 13.4474 82.6586 13.3935 82.6586 13.3611C82.6586 13.1563 82.7448 13.0592 82.9174 13.0592H83.3378ZM89.699 12.0997C89.699 12.0997 90.0872 12.2722 90.8742 12.6172C91.4457 12.9298 91.7368 13.1994 91.7368 13.4042C91.7368 13.4797 91.6936 13.5875 91.5966 13.7061C91.4025 13.9002 91.2408 14.2452 91.1006 14.7519L90.2058 17.6091C90.044 18.1266 89.7529 18.3854 89.3109 18.3854C89.0845 18.3854 88.8904 18.105 88.7287 17.5552C88.7287 17.5121 88.761 17.415 88.8257 17.2533C88.9551 16.9622 89.0845 16.3584 89.2354 15.4204C89.3432 14.7519 89.3971 14.1805 89.3971 13.6953C89.3971 13.3827 89.2678 13.2317 89.009 13.2317C88.7826 13.2317 87.9416 13.3503 86.4753 13.5767C85.6882 13.7277 84.9012 13.8139 84.1249 13.8139C83.7044 13.8139 83.4888 13.6091 83.4888 13.2102C85.2785 13.1347 86.9066 12.8544 88.3944 12.38C88.9335 12.2075 89.3001 12.1104 89.4942 12.1104H89.699V12.0997ZM87.4672 17.8894C87.7368 17.9649 87.8769 18.1697 87.8769 18.4932C87.8769 18.5687 87.8554 18.7196 87.823 18.9568C87.726 19.2479 87.6829 19.7223 87.6829 20.4015C87.6829 20.8867 87.7044 21.2749 87.7475 21.5552C87.7907 21.8678 87.8122 22.1805 87.8122 22.4932C87.8122 23.6468 87.7044 24.4339 87.4888 24.8759C87.1114 25.4366 86.8095 25.7061 86.5723 25.7061C86.3891 25.7061 86.2273 25.5983 86.0979 25.3935C85.7098 24.8544 85.1815 24.2722 84.4915 23.6576C84.2651 23.5067 84.1465 23.3773 84.1465 23.2695C84.1465 23.1832 84.1896 23.1401 84.2758 23.1401C84.3729 23.1401 84.4915 23.1509 84.664 23.1832C85.4079 23.3449 85.8823 23.4204 86.0979 23.4204C86.2381 23.4204 86.3244 23.3126 86.3675 23.097C86.443 22.7951 86.4861 21.9433 86.4861 20.5417C86.4861 19.6468 86.3783 18.9137 86.1626 18.3422C86.044 18.1374 85.9901 17.9864 85.9901 17.8894C85.9901 17.6738 86.0764 17.566 86.2489 17.566C86.5508 17.5767 86.9605 17.6738 87.4672 17.8894ZM88.8149 14.7627C89.2138 14.9029 89.4079 15.0215 89.4079 15.1185C89.4079 15.2802 89.1707 15.4096 88.6963 15.5067C88.3729 15.539 88.1033 15.5713 87.8877 15.6037C87.6936 15.636 87.1869 15.7223 86.3783 15.8625C85.9362 15.9272 85.6128 15.9703 85.4187 15.9703C85.1168 15.9703 84.8581 15.9379 84.6532 15.8732C84.3513 15.7762 84.2004 15.6576 84.2004 15.539C84.2004 15.3557 84.4376 15.2587 84.912 15.2371C85.8176 15.097 86.6909 14.9137 87.5427 14.6873C87.7907 14.6333 87.9308 14.601 87.9524 14.601C88.0926 14.6118 88.3837 14.6657 88.8149 14.7627ZM88.3944 16.8544C88.3944 16.8544 88.567 16.9406 88.912 17.1023C89.1815 17.2856 89.3109 17.4366 89.3109 17.5552C89.3109 17.6414 89.2462 17.6846 89.1276 17.6846C88.6316 17.6846 88.1896 17.7169 87.7799 17.7708L85.8823 17.9649C85.5373 18.008 85.2678 18.0296 85.0845 18.0296C84.7718 18.0296 84.5562 17.9757 84.4376 17.8571C84.319 17.7385 84.2651 17.6306 84.2651 17.5336C84.2651 17.3935 84.3513 17.318 84.5346 17.318C85.4942 17.2533 86.3783 17.1455 87.2085 16.973C87.6613 16.8975 87.9632 16.8544 88.1249 16.8544H88.3944ZM87.2624 9.65222C87.6613 9.90019 87.8554 10.1158 87.8554 10.2883C87.8554 10.353 87.8122 10.4177 87.7152 10.504C87.5643 10.601 87.3594 10.8382 87.0899 11.194C86.6802 11.7762 86.2058 12.3368 85.6882 12.8759C85.3432 13.1778 85.1384 13.3288 85.0629 13.3288C85.009 13.3288 84.9767 13.2964 84.9767 13.2425C85.3432 12.3692 85.6343 11.5929 85.8392 10.9029C86.0009 10.3315 86.0872 9.9002 86.0872 9.61987C86.0872 9.43658 86.1734 9.35033 86.3567 9.35033C86.54 9.35033 86.8311 9.44736 87.2624 9.65222ZM89.7422 19.3665C90.3998 19.5929 91.0467 19.8409 91.6721 20.1428C92.5023 20.5848 93.0413 20.9838 93.3109 21.3503C93.505 21.663 93.602 22.0188 93.602 22.4177C93.602 22.6118 93.5589 22.8274 93.4618 23.0646C93.354 23.2371 93.2031 23.3342 93.0306 23.3342C92.912 23.3342 92.7502 23.2587 92.5238 23.097C92.1465 22.8705 91.6721 22.4069 91.1006 21.6953C90.3459 20.8112 89.7745 20.2075 89.3971 19.8948C89.0953 19.6684 88.9443 19.5067 88.9443 19.3988C88.9443 19.3018 88.9767 19.2587 89.0521 19.2587C89.1815 19.2479 89.4079 19.291 89.7422 19.3665Z" fill="black"/>
<path d="M102.117 15.3129C102.322 15.8196 102.419 16.1862 102.419 16.4018C102.387 16.542 102.322 16.6498 102.247 16.7469C102.117 16.8978 101.999 17.0811 101.891 17.2859C101.395 18.1593 100.877 18.9571 100.338 19.6687C99.7993 20.3803 99.1848 20.9841 98.484 21.48C97.891 21.8897 97.1902 22.2455 96.3815 22.5258C96.2629 22.5258 96.1982 22.4935 96.1982 22.418C96.1982 22.3425 96.2845 22.2455 96.457 22.1161C97.6861 20.9625 98.5918 20.0029 99.174 19.2374C99.7346 18.4611 100.36 17.4369 101.05 16.1646C101.223 15.8088 101.341 15.4423 101.406 15.0649C101.47 14.8385 101.578 14.7307 101.718 14.7307C101.859 14.7415 101.988 14.9355 102.117 15.3129ZM104.91 13.7711C105.169 13.7711 105.47 13.8466 105.815 13.9975C106.074 14.17 106.204 14.3533 106.204 14.5366C106.204 14.6552 106.053 14.7199 105.762 14.7415C104.015 14.8924 101.859 15.2913 99.2926 15.9598C98.7535 16.1215 98.4085 16.2078 98.2683 16.2078C98.0311 16.2078 97.6538 16.0999 97.1362 15.8735C96.7589 15.6579 96.5648 15.4531 96.5648 15.2805C96.5648 15.1943 96.6942 15.1296 96.953 15.0973C98.3222 14.9355 100.532 14.569 103.594 13.9867C104.349 13.8466 104.791 13.7711 104.91 13.7711ZM104.77 8.58513C105.169 8.85467 105.363 9.05952 105.363 9.22124C105.363 9.50157 105.158 9.72799 104.737 9.88971C103.961 10.0622 102.678 10.5797 100.877 11.4315C99.7454 11.9274 98.926 12.1754 98.4193 12.1754C98.0743 12.1754 97.9017 12.1215 97.9017 12.0137C97.9017 11.9382 98.0527 11.8412 98.3654 11.7226C99.1093 11.3991 100.026 10.8708 101.136 10.1161C102.074 9.45844 102.807 8.81154 103.336 8.1862C103.519 8.07839 103.638 8.02448 103.692 8.02448C103.983 8.02448 104.338 8.20777 104.77 8.58513ZM101.902 10.5905C101.902 10.5905 102.204 10.763 102.797 11.108C103.249 11.3884 103.465 11.6687 103.465 11.9598C103.465 12.0137 103.433 12.1107 103.368 12.2401C103.26 12.5528 103.163 13.1242 103.077 13.9544C102.883 15.9706 102.786 17.4477 102.786 18.4072L102.732 24.1C102.732 24.4881 102.613 24.8978 102.387 25.3399C102.225 25.7064 102.053 25.8897 101.859 25.8897C101.762 25.8897 101.611 25.6849 101.395 25.2859C101.104 24.6283 100.964 24.1431 100.964 23.8196C100.964 23.6256 101.018 23.3668 101.115 23.0433C101.266 22.6229 101.395 21.8466 101.514 20.7145C101.729 19.1188 101.837 17.1781 101.837 14.8924C101.837 13.577 101.783 12.6822 101.665 12.2293C101.6 11.8196 101.503 11.5285 101.373 11.3345C101.309 11.2159 101.255 11.0973 101.201 11.0002C101.201 10.7307 101.341 10.5905 101.611 10.5905H101.902ZM102.937 16.6606C103.368 16.7792 103.789 16.9086 104.187 17.0595C104.727 17.2859 105.082 17.5016 105.255 17.6956C105.384 17.8574 105.449 18.0514 105.449 18.2563C105.449 18.4504 105.406 18.666 105.309 18.9032C105.201 19.0757 105.05 19.1727 104.877 19.1727C104.802 19.1727 104.705 19.1296 104.565 19.0326C104.338 18.8924 104.047 18.6121 103.702 18.17C103.239 17.6202 102.894 17.2536 102.667 17.0595C102.484 16.9194 102.387 16.8223 102.387 16.7469C102.387 16.6498 102.419 16.6067 102.495 16.6067C102.581 16.5959 102.732 16.6175 102.937 16.6606ZM115.735 15.604C116.22 15.8304 116.468 16.0137 116.468 16.1431C116.468 16.3479 116.306 16.4773 115.993 16.5312C115.799 16.6067 115.422 16.639 114.851 16.639C113.611 16.639 112.295 16.7253 110.915 16.9086C108.996 17.1781 107.724 17.3938 107.077 17.5447C106.872 17.6202 106.721 17.6525 106.635 17.6525C106.484 17.6525 106.214 17.5555 105.815 17.3506C105.492 17.1889 105.33 17.0595 105.33 16.9625C105.33 16.8655 105.47 16.8008 105.74 16.7684C106.926 16.6175 108.284 16.4234 109.848 16.1862C112.123 15.7765 113.578 15.5177 114.214 15.3884C114.506 15.3237 114.689 15.2805 114.753 15.2805C114.937 15.2805 115.26 15.3884 115.735 15.604ZM107.487 13.2536C108.134 13.3938 108.63 13.5447 108.953 13.7172C109.244 13.9113 109.384 14.1808 109.384 14.515C109.384 15.0757 109.158 15.356 108.683 15.356C108.522 15.356 108.338 15.2805 108.155 15.1404C107.799 14.8816 107.303 14.3533 106.656 13.5339C106.57 13.4477 106.527 13.383 106.527 13.3398C106.559 13.2105 106.635 13.1458 106.743 13.1458C106.969 13.1566 107.217 13.1889 107.487 13.2536ZM107.864 10.17C108.532 10.3318 109.039 10.5043 109.373 10.6983C109.675 10.9248 109.815 11.2159 109.815 11.604C109.815 12.1646 109.578 12.445 109.115 12.445C108.942 12.445 108.759 12.3695 108.565 12.2186C108.198 11.9382 107.67 11.356 107.001 10.4719C106.915 10.3749 106.872 10.3102 106.872 10.2671C106.904 10.1377 106.98 10.0622 107.088 10.0622C107.325 10.0514 107.584 10.0946 107.864 10.17ZM111.357 7.14038C111.357 7.14038 111.638 7.2482 112.198 7.45305C112.727 7.69025 112.985 7.95979 112.985 8.2509C112.985 8.28324 112.931 8.47731 112.824 8.82232C112.683 9.48001 112.608 10.1916 112.586 10.9571L112.479 20.2186C112.457 21.9867 112.338 23.5285 112.112 24.8439C111.896 25.7172 111.724 26.1593 111.562 26.1593C111.368 26.1593 111.217 25.8466 111.12 25.2213C111.088 24.1754 111.066 22.7954 111.066 21.0811V9.72798C111.066 8.99483 110.991 8.39105 110.861 7.92744C110.786 7.70103 110.753 7.56087 110.753 7.50696C110.753 7.30211 110.872 7.17273 111.099 7.14038H111.357Z" fill="black"/>
<path d="M126.81 15.7115C126.928 15.7115 126.993 15.787 126.993 15.9272C126.993 16.0242 126.907 16.132 126.745 16.2614C126.066 16.8652 125.031 17.6846 123.629 18.7304C122.874 19.3126 121.979 20.0458 120.934 20.9514C120.804 21.1239 120.686 21.1994 120.589 21.1994C120.287 21.1994 119.92 21.0161 119.467 20.6495C119.111 20.3261 118.939 20.0673 118.939 19.884C118.939 19.7978 119.004 19.7547 119.133 19.7331C119.478 19.69 119.823 19.5822 120.157 19.3881C121.473 18.7843 123.392 17.7169 125.915 16.1752C126.421 15.8733 126.723 15.7115 126.81 15.7115ZM126.799 12.7789C127.047 12.8867 127.165 13.0269 127.165 13.1778C127.165 13.3072 127.036 13.415 126.777 13.4905C126.475 13.6199 125.818 13.7924 124.783 14.008C123.219 14.2884 122.206 14.4285 121.731 14.4285C121.182 14.4285 120.793 14.3638 120.578 14.2452C120.362 14.0943 120.254 13.9649 120.254 13.8571C120.254 13.7493 120.438 13.6846 120.815 13.663C121.699 13.5552 122.68 13.3719 123.748 13.1239C124.492 12.9622 125.085 12.7897 125.548 12.6064C125.71 12.5309 125.818 12.4986 125.872 12.4986C126.13 12.4878 126.432 12.5848 126.799 12.7789ZM125.171 7.72232C125.645 8.01342 125.882 8.28296 125.882 8.55251C125.85 8.68189 125.785 8.83283 125.678 9.00533C125.483 9.46895 125.343 10.1266 125.289 10.9676C125.138 12.7681 125.063 15.2156 125.063 18.2991V20.9299C125.128 21.8032 125.16 22.6442 125.16 23.4528C125.16 24.0242 125.02 24.5525 124.74 25.0377C124.492 25.4797 124.308 25.6954 124.179 25.6954C123.996 25.6954 123.78 25.5336 123.532 25.221C122.874 24.4231 122.281 23.8301 121.742 23.4097C121.537 23.2587 121.44 23.1509 121.44 23.0862C121.44 22.9999 121.494 22.9568 121.613 22.9568C122.529 23.1617 123.101 23.2587 123.349 23.2587C123.532 23.2587 123.64 23.1509 123.672 22.9353C123.758 22.601 123.834 21.8894 123.888 20.8005C123.985 18.5902 124.028 16.0997 124.028 13.3504C124.028 11.6792 123.996 10.4285 123.931 9.58755C123.845 8.92986 123.748 8.48782 123.64 8.27218C123.575 8.03499 123.521 7.83013 123.489 7.65762C123.489 7.36652 123.629 7.21558 123.92 7.21558C124.157 7.22636 124.578 7.38808 125.171 7.72232ZM134.81 15.3665C134.81 15.3665 135.101 15.4959 135.672 15.7547C135.963 15.9272 136.103 16.1212 136.103 16.3369C136.103 16.4555 136.039 16.5956 135.899 16.7574C135.554 17.1563 135.306 17.5229 135.144 17.8463C134.173 20.1536 133.257 21.7169 132.394 22.5363C131.629 23.2587 130.626 23.8948 129.365 24.4447C128.244 24.9407 127.359 25.1886 126.723 25.1886C126.281 25.1886 126.055 25.1239 126.055 24.9946C126.055 24.973 126.141 24.9299 126.292 24.8867C127.532 24.4663 128.632 23.9595 129.58 23.345C130.723 22.6118 131.554 21.8463 132.082 21.07C132.61 20.3369 133.052 19.4528 133.43 18.4285C133.71 17.5983 133.85 17.0485 133.85 16.7789C133.85 16.6603 133.775 16.5956 133.613 16.5956C133.451 16.5956 133.235 16.6388 132.966 16.7142L130.874 17.1886C130.12 17.3827 129.634 17.4797 129.419 17.4797C129.128 17.4797 128.826 17.3719 128.513 17.1455C128.254 16.9838 128.125 16.8544 128.125 16.7681C128.125 16.6603 128.276 16.6064 128.567 16.6064C129.893 16.477 130.928 16.3261 131.672 16.1752C132.589 15.9595 133.376 15.7439 134.023 15.5067C134.26 15.4312 134.421 15.3881 134.508 15.3881H134.81V15.3665ZM136.362 11.5067C136.901 11.8409 137.16 12.0997 137.16 12.2722C137.149 12.4447 136.89 12.5417 136.405 12.5633C135.327 12.5956 134.087 12.7142 132.696 12.8975C131.909 13.0053 130.874 13.1994 129.58 13.4905C129.333 13.5552 129.171 13.5983 129.117 13.5983C128.783 13.5983 128.448 13.5121 128.114 13.3288C127.715 13.1671 127.521 13.0161 127.521 12.8652C127.521 12.8005 127.672 12.7358 127.974 12.6711C130.605 12.2506 132.772 11.8517 134.465 11.4851C135.058 11.3342 135.435 11.2587 135.586 11.2587C135.661 11.2695 135.92 11.345 136.362 11.5067ZM129.149 16.9299C129.494 17.221 130.044 17.9002 130.788 18.9892C131.661 20.1967 132.556 21.1239 133.451 21.7816C134.562 22.8167 136.394 23.7008 138.95 24.4447C139.23 24.5309 139.37 24.6603 139.37 24.8328C139.37 24.9083 139.241 24.9838 138.982 25.0592C137.58 25.4258 136.438 25.6091 135.543 25.6091C135.068 25.6091 134.669 25.469 134.346 25.1778C133.807 24.7897 132.254 22.6334 129.667 18.7304C129.289 18.2129 128.89 17.7924 128.47 17.4797C128.125 17.2964 127.952 17.0916 127.952 16.8544C127.952 16.7035 128.093 16.6172 128.373 16.6172C128.642 16.6388 128.901 16.7358 129.149 16.9299ZM132.459 7.64684C132.89 7.84091 133.106 8.09968 133.106 8.42313C133.106 8.44469 133.031 8.55251 132.88 8.74658C132.804 8.86517 132.686 9.40426 132.535 10.3746L132.373 16.5094H131.165L131.187 10.1266C131.187 9.65224 131.133 9.1455 131.014 8.60641C130.993 8.34765 130.907 8.13202 130.745 7.97029C130.616 7.83013 130.551 7.74388 130.551 7.71154C130.551 7.38809 130.723 7.22636 131.079 7.22636C131.456 7.22636 131.92 7.36652 132.459 7.64684Z" fill="black"/>
<path d="M144.664 9.05932C144.664 9.05932 144.869 9.15636 145.289 9.36121C145.613 9.52294 145.775 9.70622 145.775 9.90029C145.775 9.99733 145.732 10.1483 145.645 10.3316C145.527 10.8167 145.462 11.3343 145.43 11.8841L145.386 14.8383C145.354 16.2938 145.225 17.6308 144.998 18.8599C144.772 20.0566 144.459 21.027 144.093 21.7709C143.769 22.4825 143.273 23.1617 142.583 23.8086C141.915 24.3585 141.505 24.6281 141.322 24.6281C141.236 24.6281 141.182 24.5957 141.182 24.5202C142.033 23.4852 142.637 22.5903 142.993 21.8356C143.457 20.8976 143.769 19.8302 143.953 18.6334C144.201 17.4367 144.33 16.1213 144.33 14.6874V13.0917C144.33 12.1429 144.287 11.3774 144.201 10.7844C144.179 10.4286 144.125 10.0944 144.028 9.80326C143.899 9.57684 143.823 9.4259 143.823 9.36121C143.823 9.15636 143.942 9.05932 144.19 9.05932H144.664ZM149.16 9.12401C149.548 9.38277 149.742 9.58763 149.742 9.74935C149.742 9.87873 149.688 10.0297 149.581 10.2022C149.397 10.6334 149.3 11.4205 149.3 12.5741C149.3 15.151 149.322 17.0701 149.354 18.3316C149.387 19.2911 149.408 20.3477 149.408 21.5122C149.408 22.4286 149.257 23.1402 148.966 23.6361C148.61 24.1752 148.308 24.4448 148.05 24.4448L147.467 22.3639C147.64 22.3639 147.78 22.2237 147.888 21.9326C148.06 21.2857 148.147 19.4313 148.147 16.3585C148.147 14.9138 148.114 13.027 148.06 10.6981C148.039 10.2669 148.006 10.0081 147.953 9.91107C147.856 9.79248 147.748 9.72779 147.597 9.72779C147.51 9.72779 147.273 9.74935 146.874 9.81404C146.227 9.9542 145.764 10.0728 145.494 10.1591C145.365 10.213 145.289 10.2453 145.246 10.2453C145.106 10.2453 144.934 10.1698 144.74 10.0189C144.578 9.87873 144.502 9.74935 144.502 9.6631C144.502 9.59841 144.556 9.55528 144.686 9.5445C145.236 9.47981 145.893 9.36121 146.637 9.1887C147.155 9.02698 147.554 8.88682 147.845 8.75744C148.039 8.68196 148.147 8.63884 148.168 8.63884C148.298 8.63884 148.632 8.80056 149.16 9.12401ZM148.168 15.7871C148.265 15.7871 148.308 15.8194 148.308 15.8949C148.308 15.9488 148.276 16.0458 148.222 16.186C147.996 16.6065 147.705 17.0162 147.36 17.4151C147.047 17.8033 146.788 18.1483 146.583 18.4286C146.411 18.6227 146.271 18.7197 146.152 18.7197C146.012 18.7197 145.785 18.5688 145.462 18.2669C145.182 17.9434 145.041 17.717 145.041 17.5768C145.041 17.4367 145.085 17.3612 145.192 17.3612C145.462 17.3612 145.893 17.221 146.465 16.9299C147.047 16.6065 147.564 16.2615 148.028 15.8949C148.082 15.8194 148.136 15.7871 148.168 15.7871ZM146.842 12.6173C147.37 12.7467 147.726 12.8868 147.877 13.027C148.039 13.1779 148.114 13.3289 148.114 13.4798C148.114 14.0189 147.877 14.2777 147.413 14.2777C147.112 14.2777 146.713 14.0405 146.227 13.5553C145.667 13.0162 145.376 12.6927 145.376 12.5526C145.376 12.4771 145.44 12.4232 145.559 12.4124C145.915 12.4232 146.346 12.4879 146.842 12.6173ZM146.26 21.9434C146.982 22.2237 147.392 22.3639 147.467 22.3639L148.05 24.4448C147.942 24.4448 147.823 24.3477 147.694 24.1429C147.176 23.4636 146.68 22.8491 146.195 22.3208C146.001 22.1483 145.915 22.0405 145.915 21.9865C145.915 21.9111 145.947 21.8787 146.023 21.8787C146.044 21.8895 146.12 21.9111 146.26 21.9434ZM156.653 15.5175C156.653 15.5175 156.944 15.6469 157.516 15.9057C157.807 16.0782 157.947 16.2723 157.947 16.4879C157.947 16.5849 157.893 16.7035 157.775 16.8437C157.484 17.1779 157.268 17.4906 157.139 17.7601C156.319 19.7008 155.543 21.0162 154.799 21.7062C154.152 22.3208 153.3 22.8491 152.222 23.3019C151.263 23.7224 150.519 23.9272 149.979 23.9272C149.537 23.9272 149.311 23.8626 149.311 23.7332C149.311 23.7116 149.376 23.6793 149.505 23.6469C150.529 23.3019 151.424 22.8814 152.201 22.3639C153.139 21.7601 153.818 21.124 154.249 20.4771C154.68 19.8733 155.047 19.1402 155.349 18.2884C155.575 17.5984 155.694 17.1456 155.694 16.9192C155.694 16.8006 155.618 16.7359 155.457 16.7359C155.349 16.7359 155.198 16.779 155.004 16.8545L153.527 17.3289C152.998 17.5229 152.653 17.62 152.502 17.62C152.211 17.62 151.909 17.5122 151.586 17.2857C151.327 17.124 151.209 17.0054 151.209 16.9084C151.209 16.8006 151.327 16.7467 151.564 16.7467C152.632 16.6173 153.473 16.4663 154.066 16.3154C154.799 16.0998 155.435 15.8841 155.963 15.6469C156.157 15.5607 156.287 15.5283 156.351 15.5283H156.653V15.5175ZM152.319 8.70353C152.319 8.70353 152.546 8.80056 152.998 9.00541C153.354 9.16714 153.527 9.35043 153.527 9.5445C153.527 9.58762 153.494 9.65231 153.44 9.73857C153.365 9.9542 153.322 10.1698 153.3 10.4178L153.268 11.7008C153.246 12.3369 153.171 12.9192 153.02 13.4475C152.869 13.965 152.675 14.3855 152.438 14.7089C152.233 15.0216 151.909 15.3127 151.478 15.593C151.058 15.8302 150.788 15.9488 150.68 15.9488C150.594 15.9488 150.54 15.9165 150.54 15.841C150.95 15.3666 151.241 14.9569 151.413 14.6011C151.64 14.1698 151.791 13.6739 151.877 13.124C151.996 12.5741 152.06 11.9704 152.06 11.3019V10.5688C152.06 10.1698 152.006 9.84639 151.899 9.59841C151.877 9.44746 151.802 9.3073 151.672 9.1887C151.5 9.09167 151.413 9.02698 151.413 9.00541C151.413 8.80056 151.532 8.70353 151.78 8.70353H152.319ZM152.082 16.9623C152.427 17.2318 152.966 17.8787 153.71 18.903C154.572 20.0351 155.457 20.9084 156.341 21.5337C157.44 22.5041 159.252 23.3343 161.775 24.0458C162.055 24.1213 162.195 24.2507 162.195 24.4124C162.195 24.4987 162.066 24.5741 161.807 24.6604C160.416 25.0593 159.284 25.2534 158.4 25.2534C157.936 25.2534 157.537 25.1132 157.214 24.8437C156.686 24.4771 155.133 22.4286 152.567 18.7197C152.201 18.2237 151.802 17.8248 151.381 17.5337C151.047 17.3612 150.874 17.1564 150.874 16.9407C150.874 16.7682 151.025 16.6927 151.327 16.6927C151.586 16.682 151.834 16.779 152.082 16.9623ZM156.977 8.33695C157.376 8.5418 157.581 8.72509 157.581 8.88682C157.581 9.02698 157.516 9.24261 157.387 9.52294C156.901 10.6334 156.664 11.5607 156.664 12.3046C156.664 12.779 156.761 13.1132 156.944 13.2965C157.095 13.4475 157.322 13.5122 157.602 13.5122C157.936 13.5122 158.303 13.4367 158.723 13.2857C158.971 13.1564 159.144 13.0917 159.252 13.0917C159.737 13.0917 160.179 13.1995 160.578 13.4043C160.837 13.5553 160.955 13.7278 160.955 13.9434C160.955 14.1698 160.793 14.3423 160.459 14.4717C159.985 14.6334 159.36 14.7197 158.583 14.7197C157.397 14.7197 156.599 14.5472 156.179 14.1914C155.758 13.814 155.543 13.2318 155.543 12.4232V10.9785C155.651 10.4502 155.705 10.0405 155.705 9.73857C155.705 9.35043 155.597 9.15636 155.381 9.15636C155.209 9.15636 154.961 9.1887 154.626 9.24261C153.796 9.45824 153.257 9.55528 153.031 9.55528C152.847 9.55528 152.664 9.50137 152.481 9.37199C152.362 9.32886 152.298 9.26417 152.298 9.16714C152.298 9.08089 152.416 9.00542 152.643 8.96229C153.419 8.80056 154.292 8.52024 155.23 8.09975C155.5 7.98115 155.672 7.92725 155.758 7.92725C156.06 7.94881 156.47 8.07819 156.977 8.33695Z" fill="black"/>
<path d="M170.196 8.11034C170.843 8.53082 171.155 8.8974 171.155 9.21007C171.155 9.32866 171.058 9.46883 170.853 9.63055C170.681 9.86775 170.487 10.1696 170.293 10.5362C169.387 12.1858 168.492 13.5443 167.586 14.6332C166.864 15.5173 166.034 16.2828 165.107 16.919C164.481 17.361 164.072 17.5874 163.867 17.5874C163.759 17.5874 163.705 17.5551 163.705 17.5012C163.705 17.4257 163.781 17.3287 163.942 17.2208C164.783 16.3907 165.635 15.3987 166.476 14.2343C167.241 13.1777 167.942 11.981 168.578 10.6225C168.977 9.79227 169.171 9.02678 169.171 8.30441C169.171 8.00252 169.268 7.85157 169.473 7.85157C169.646 7.84079 169.883 7.93783 170.196 8.11034ZM168.492 13.7599C168.891 14.2774 169.096 14.6225 169.096 14.795C169.096 14.892 169.053 15.14 168.977 15.5605C168.88 16.1103 168.837 17.512 168.837 19.7438L168.762 23.3341C168.762 23.6359 168.675 24.0456 168.492 24.5416C168.384 24.9082 168.255 25.0915 168.104 25.0915C167.91 25.0915 167.737 24.8866 167.576 24.4661C167.306 23.8408 167.166 23.4095 167.166 23.1508C167.188 22.9998 167.263 22.6656 167.392 22.1481C167.694 21.1346 167.856 18.9783 167.856 15.6683C167.856 14.9028 167.737 14.1373 167.489 13.3826C167.489 13.2208 167.597 13.1454 167.824 13.1454C167.91 13.1562 168.136 13.3502 168.492 13.7599ZM174.066 10.7195C174.454 11.0106 174.638 11.2478 174.627 11.4203C174.627 11.5173 174.595 11.6144 174.53 11.7114C173.948 12.2936 173.473 12.8327 173.107 13.3179C172.557 14.051 171.964 14.6872 171.349 15.2155C170.961 15.5605 170.487 15.8516 169.926 16.0888C169.764 16.1858 169.635 16.2397 169.538 16.2397C169.398 16.2397 169.333 16.1966 169.333 16.1211C170.907 14.4284 171.845 13.2316 172.169 12.5416C172.481 12.0241 172.665 11.3448 172.697 10.5254C172.719 10.3853 172.805 10.3206 172.956 10.3206C173.171 10.3206 173.538 10.4607 174.066 10.7195ZM175.037 16.9513C175.436 17.1777 175.63 17.3826 175.63 17.5766C175.608 17.6629 175.565 17.7276 175.522 17.8031C175.425 17.9648 175.317 18.2235 175.209 18.5901C174.778 19.6252 174.347 20.4769 173.915 21.1454C173.527 21.7599 173.074 22.2775 172.568 22.6764C172.029 23.1184 171.489 23.4527 170.972 23.6683C170.627 23.7977 170.379 23.8731 170.239 23.8731C170.12 23.8731 170.055 23.8408 170.055 23.7653C170.778 23.2155 171.295 22.7734 171.586 22.4284C171.975 22.0726 172.363 21.5551 172.751 20.8758C173.053 20.326 173.301 19.7222 173.484 19.0645C173.657 18.5362 173.732 18.1157 173.732 17.8138C173.732 17.609 173.721 17.4365 173.71 17.3071C173.646 17.0807 173.613 16.9297 173.613 16.8543C173.678 16.6494 173.797 16.5416 173.958 16.5416C174.185 16.5093 174.541 16.6602 175.037 16.9513ZM180.115 15.4958C180.632 15.83 180.891 16.1211 180.891 16.3799C180.891 16.4877 180.816 16.6386 180.665 16.8435C180.471 17.1454 180.309 17.7276 180.179 18.5686C179.91 20.5416 179.673 21.8785 179.457 22.5901C179.134 23.6467 178.713 24.3583 178.185 24.7249C177.861 24.9621 177.603 25.0807 177.409 25.0807L177.301 23.0322C177.473 23.0322 177.624 22.9028 177.754 22.644C178.077 22.1157 178.357 21.1454 178.616 19.733C178.81 18.6332 178.907 17.6845 178.907 16.8974C178.907 16.5093 178.67 16.3152 178.196 16.3152C177.797 16.3152 177.182 16.3907 176.352 16.5308C175.403 16.7033 174.465 16.9297 173.527 17.2101C173.279 17.264 173.107 17.2963 172.988 17.2963C172.708 17.2963 172.406 17.1885 172.072 16.9621C171.737 16.7572 171.576 16.6063 171.576 16.4769C171.63 16.3799 171.77 16.326 171.985 16.326C172.74 16.3044 173.818 16.1535 175.231 15.8731C176.772 15.6252 177.958 15.3664 178.789 15.0861C178.972 15.0322 179.101 15.0106 179.155 15.0106C179.263 15.0214 179.586 15.1831 180.115 15.4958ZM174.4 7.2478C174.4 7.2478 174.541 7.26936 174.81 7.31249C175.716 7.43109 176.363 7.76532 176.751 8.33675C178.228 10.1696 179.209 11.2478 179.716 11.582C180.622 12.2182 181.462 12.6818 182.26 12.9729L183.942 13.6305C184.535 13.9109 184.837 14.0834 184.837 14.1481C184.837 14.2774 184.794 14.3637 184.708 14.396C183.813 14.5146 182.875 14.5793 181.883 14.5793C181.721 14.5793 181.484 14.5686 181.193 14.5362C180.88 14.4607 180.589 14.2882 180.309 14.0079C179.737 13.5335 178.39 11.8731 176.244 9.03756C175.91 8.64942 175.36 8.39066 174.595 8.27206C174.174 8.12112 173.958 7.8947 173.958 7.59282C173.958 7.37718 174.066 7.26937 174.293 7.26937H174.4V7.2478ZM177.301 23.0429L177.409 25.0915C177.171 25.0915 176.945 24.919 176.74 24.5632C176.33 24.0025 175.77 23.388 175.037 22.7195C175.037 22.644 175.058 22.6117 175.112 22.6117C176.233 22.892 176.956 23.0429 177.301 23.0429Z" fill="black"/>
<path d="M196.834 6.81672C197.265 7.0647 197.481 7.29111 197.481 7.49597C197.427 7.66847 197.362 7.81942 197.287 7.95958C197.103 8.29381 196.92 8.84367 196.715 9.59839C195.928 11.7655 195.13 13.5553 194.343 14.9569C193.632 16.2507 192.802 17.3181 191.864 18.1698C190.872 19.097 189.891 19.7871 188.92 20.2399C188.284 20.5202 187.842 20.6604 187.583 20.6604C187.454 20.6604 187.389 20.6173 187.389 20.5418C188.974 19.3666 190.085 18.407 190.742 17.6739C191.594 16.8976 192.435 15.7871 193.287 14.3315C193.934 13.1563 194.473 11.8625 194.893 10.4286C195.26 9.28572 195.443 8.39084 195.443 7.72238C195.443 7.49596 195.432 7.31268 195.421 7.17252C195.346 6.92454 195.314 6.76281 195.314 6.67656C195.389 6.45014 195.508 6.33154 195.691 6.33154C195.907 6.34232 196.295 6.50405 196.834 6.81672ZM204.338 9.86793C204.952 10.2561 205.265 10.5472 205.265 10.752C205.244 10.9569 204.952 11.0647 204.392 11.0863C202.279 11.1402 199.853 11.3235 197.136 11.6361C195.594 11.8086 193.567 12.1321 191.033 12.6065C190.537 12.7143 190.236 12.779 190.128 12.779C189.74 12.779 189.362 12.6819 188.974 12.4771C188.51 12.2938 188.284 12.1213 188.284 11.9488C188.284 11.8733 188.457 11.7978 188.802 11.7224C193.869 11.0863 198.031 10.4933 201.287 9.9434C202.43 9.71699 203.141 9.59839 203.443 9.59839C203.529 9.58761 203.831 9.68464 204.338 9.86793ZM194.656 15.1725C195.152 15.3774 195.4 15.593 195.4 15.8302C195.4 15.9057 195.378 16.0458 195.324 16.2399C195.292 16.5202 195.271 16.6927 195.271 16.7574V17.2103C195.271 18.7305 195.206 19.8841 195.066 20.6712C194.969 21.62 194.613 22.5364 194.009 23.3989C193.675 23.9272 193.157 24.4232 192.457 24.8868C191.993 25.1887 191.691 25.3396 191.551 25.3396C191.454 25.3396 191.4 25.2965 191.4 25.221C192.424 24.1644 193.103 23.0539 193.459 21.9003C193.804 20.9838 193.977 19.4205 193.977 17.2103C193.88 16.2291 193.696 15.6469 193.427 15.4636C193.211 15.345 193.103 15.2696 193.103 15.248C193.103 15.0324 193.276 14.9138 193.621 14.9138C193.858 14.9245 194.192 15 194.656 15.1725ZM201.114 14.4825C201.535 14.7628 201.74 14.9892 201.74 15.1617C201.74 15.3019 201.675 15.4636 201.556 15.6577C201.351 16.1213 201.254 16.9946 201.254 18.2453C201.254 19.6577 201.276 20.7035 201.308 21.3935C201.351 21.9218 201.362 22.4933 201.362 23.1294C201.362 24.1321 201.19 24.8976 200.845 25.4474C200.435 26.0297 200.079 26.3315 199.767 26.3315L199.141 24.0566C199.357 24.0566 199.529 23.9596 199.669 23.7655C199.885 23.3342 199.982 22.0943 199.982 20.035C199.982 18.9677 199.95 17.5768 199.896 15.8518C199.874 15.5391 199.831 15.345 199.777 15.2695C199.68 15.1833 199.551 15.1294 199.389 15.1294C199.227 15.1294 198.764 15.1617 197.988 15.2264C196.726 15.3774 195.842 15.5067 195.314 15.593C195.076 15.6577 194.904 15.6792 194.829 15.6792C194.678 15.6792 194.494 15.6038 194.279 15.4421C194.106 15.2803 194.02 15.151 194.02 15.0539C194.02 14.9892 194.117 14.9461 194.311 14.9245C195.217 14.8598 196.284 14.7305 197.502 14.5364C198.343 14.3639 199.001 14.2022 199.486 14.0728C199.81 13.9865 199.982 13.9434 200.014 13.9434C200.176 13.9434 200.532 14.1267 201.114 14.4825ZM199.486 19.5283C199.917 19.6792 200.133 19.8086 200.133 19.9164C200.133 20.089 199.874 20.2291 199.357 20.3369C199.012 20.3693 198.721 20.4016 198.483 20.434C198.268 20.4663 197.729 20.5418 196.845 20.6712C196.37 20.7359 196.014 20.7682 195.81 20.7682C195.475 20.7682 195.206 20.7359 194.979 20.6712C194.645 20.5633 194.483 20.4447 194.483 20.3046C194.483 20.1105 194.742 19.9919 195.26 19.9704C196.23 19.8302 197.179 19.6577 198.106 19.4421C198.376 19.3881 198.527 19.3558 198.548 19.3558C198.699 19.3666 199.012 19.4205 199.486 19.5283ZM199.486 16.9623C199.917 17.1132 200.133 17.2426 200.133 17.3504C200.133 17.5229 199.874 17.6631 199.357 17.7709C199.023 17.8032 198.731 17.8356 198.494 17.8679C198.289 17.9003 197.75 17.9865 196.899 18.1051C196.435 18.1698 196.09 18.2022 195.885 18.2022C195.551 18.2022 195.281 18.1698 195.055 18.1051C194.721 17.9973 194.559 17.8787 194.559 17.7386C194.559 17.5445 194.818 17.4259 195.335 17.4043C196.284 17.2642 197.211 17.0916 198.106 16.876C198.365 16.8221 198.516 16.7898 198.537 16.7898C198.699 16.8005 199.012 16.8545 199.486 16.9623ZM197.686 23.9596C198.559 24.0243 199.044 24.0566 199.141 24.0566L199.767 26.3315C199.648 26.3315 199.508 26.2345 199.346 26.0512C198.742 25.4259 198.16 24.8652 197.599 24.3693C197.384 24.2076 197.265 24.1105 197.265 24.0566C197.265 23.9811 197.308 23.938 197.384 23.938C197.427 23.938 197.524 23.9488 197.686 23.9596Z" fill="black"/>
<path d="M212.813 9.26428C213.212 9.43678 213.417 9.67398 213.417 9.9543C213.309 11.0109 213.255 11.9813 213.255 12.8761C213.255 16.2831 213.148 19.2805 212.932 21.8896C212.932 22.9462 212.824 23.7225 212.609 24.2185C212.436 24.6282 212.285 24.833 212.145 24.833C211.994 24.833 211.811 24.6282 211.606 24.2077C211.369 23.6362 211.25 23.205 211.25 22.9139C211.25 22.7737 211.325 22.4287 211.466 21.8681C211.757 20.5311 211.94 19.1834 212.016 17.8357C212.091 16.1645 212.123 14.2454 212.123 12.0675C212.123 11.0433 212.026 10.2885 211.832 9.80336C211.714 9.59851 211.649 9.44757 211.649 9.36131C211.649 9.1349 211.735 9.0163 211.908 8.99474C212.231 8.99474 212.533 9.08099 212.813 9.26428ZM216.91 8.64972C217.277 8.85457 217.46 9.05942 217.46 9.24271C217.46 9.39366 217.352 9.58773 217.115 9.82492C216.274 10.612 215.714 11.2481 215.444 11.7225C215.325 11.9381 215.261 12.1538 215.261 12.3586C215.261 12.5203 215.347 12.7575 215.52 13.0702C216.479 14.5796 216.954 15.6039 216.954 16.143C216.954 16.5203 216.835 16.8438 216.587 17.1133C216.328 17.4152 216.08 17.5769 215.854 17.5769L215.099 16.1106C215.347 16.1106 215.466 15.9381 215.466 15.6039C215.466 14.9139 215.239 14.0837 214.776 13.1026C214.549 12.7899 214.431 12.5419 214.431 12.3586C214.431 12.0567 214.657 11.399 215.11 10.364C215.228 10.116 215.293 9.93274 215.293 9.80336C215.293 9.68476 215.25 9.63085 215.164 9.63085C215.002 9.63085 214.797 9.6632 214.549 9.73867C213.73 9.91118 213.212 9.99743 213.007 9.99743C212.738 9.99743 212.533 9.96509 212.382 9.88962C212.253 9.82493 212.177 9.73867 212.177 9.65242C212.177 9.55538 212.317 9.47991 212.609 9.40444C213.579 9.16724 214.42 8.85457 215.131 8.46643C215.369 8.31549 215.563 8.24002 215.724 8.24002C216.005 8.22924 216.404 8.3694 216.91 8.64972ZM215.099 16.0999L215.875 17.5662C215.778 17.5662 215.606 17.4691 215.369 17.2643C214.786 16.736 214.247 16.3263 213.751 16.0244C213.751 15.9381 213.784 15.895 213.848 15.895L215.099 16.0999ZM219.498 8.80066C219.929 8.98395 220.145 9.23193 220.145 9.5446C220.069 11.3559 219.94 13.7063 219.746 16.585C219.606 19.6147 219.53 21.426 219.53 22.0406C219.53 22.1592 219.617 22.2131 219.8 22.2131C219.821 22.2131 220.565 21.8357 222.01 21.0702C222.172 20.984 222.29 20.93 222.366 20.93C222.452 20.93 222.495 20.984 222.495 21.081C222.495 21.1349 222.441 21.2319 222.312 21.3829C220.921 22.8923 220.005 23.9166 219.573 24.4449C219.379 24.6929 219.25 24.8222 219.175 24.8222C218.927 24.8222 218.7 24.6929 218.517 24.4449C218.215 23.9597 218.064 23.5608 218.064 23.2373C218.064 23.1295 218.129 22.9247 218.247 22.6012C218.387 22.1807 218.474 21.4368 218.495 20.3694C218.571 18.5689 218.625 17.0271 218.679 15.7656C218.679 14.7953 218.646 13.4476 218.571 11.7333C218.528 10.5365 218.409 9.79258 218.237 9.49069C218.118 9.26428 218.042 9.08099 217.999 8.93004C217.999 8.80066 218.021 8.68207 218.064 8.59581C218.15 8.50956 218.258 8.46643 218.377 8.46643C218.625 8.46643 218.991 8.57425 219.498 8.80066ZM223.757 7.76562L224.846 8.28314C225.374 8.59581 225.644 8.85457 225.644 9.07021C225.644 9.17802 225.59 9.3074 225.493 9.46913C225.299 9.72789 225.115 10.1807 224.975 10.86L224.026 14.6551C223.875 15.1295 223.606 15.3775 223.196 15.3775C222.991 15.3775 222.808 15.1187 222.657 14.6012C222.657 14.5365 222.7 14.4071 222.776 14.1915C222.927 13.8034 223.088 12.9732 223.261 11.7117C223.39 10.8061 223.466 10.019 223.466 9.36131C223.466 9.04864 223.347 8.8977 223.11 8.8977C222.927 8.8977 222.269 9.0163 221.115 9.24271C220.49 9.39366 219.875 9.46913 219.261 9.46913C218.84 9.46913 218.625 9.26428 218.625 8.86536C220.091 8.78988 221.439 8.50956 222.657 8.02438C223.099 7.85188 223.401 7.76562 223.552 7.76562H223.757ZM223.067 11.1403C223.466 11.2805 223.66 11.399 223.66 11.4961C223.66 11.6578 223.423 11.7872 222.948 11.8842C222.711 11.9166 222.495 11.9489 222.334 11.9813C222.183 12.0136 221.805 12.0999 221.191 12.24C220.856 12.3047 220.608 12.3478 220.458 12.3478C220.156 12.3478 219.897 12.3155 219.703 12.2616C219.401 12.1645 219.25 12.046 219.25 11.9274C219.25 11.7441 219.487 11.647 219.962 11.6255C220.63 11.4853 221.277 11.302 221.902 11.0864C222.086 11.0325 222.193 11.0001 222.204 11.0001C222.344 10.9893 222.635 11.0433 223.067 11.1403ZM222.301 13.9327C222.301 13.9327 222.474 14.019 222.819 14.1807C223.088 14.364 223.218 14.515 223.218 14.6336C223.218 14.709 223.175 14.7414 223.077 14.7414C222.711 14.7414 222.377 14.7629 222.075 14.8061L220.652 14.957C220.393 14.9893 220.199 15.0109 220.059 15.0109C219.746 15.0109 219.53 14.957 219.412 14.8384C219.293 14.7198 219.239 14.612 219.239 14.515C219.239 14.3748 219.325 14.2993 219.509 14.2993C220.177 14.2454 220.813 14.1592 221.385 14.019C221.708 13.9543 221.913 13.9327 222.032 13.9327H222.301ZM221.234 16.2185C222.743 17.9974 224.005 19.2481 225.007 19.9705C225.999 20.7144 227.498 21.5123 229.482 22.3424C229.892 22.4826 230.107 22.612 230.107 22.7198C230.107 22.7953 229.956 22.8708 229.644 22.9462C228.77 23.1942 227.832 23.3236 226.808 23.3236C226.139 23.3236 225.676 23.1619 225.428 22.8276C224.576 21.9759 223.121 20.0352 221.061 16.9947C220.846 16.6282 220.738 16.3694 220.738 16.2185C220.738 16.0675 220.792 15.992 220.91 15.992C220.964 15.9813 221.072 16.0567 221.234 16.2185ZM225.299 14.9247C225.482 14.9247 225.784 15.0864 226.204 15.4206C226.592 15.7225 226.786 16.0028 226.786 16.2508C226.786 16.4664 226.657 16.6282 226.387 16.7575C225.902 16.9408 225.352 17.2319 224.749 17.6093C223.66 18.2993 223.002 18.6443 222.776 18.6443C222.689 18.6443 222.646 18.6012 222.646 18.5042C222.646 18.4395 222.679 18.4071 222.732 18.3856C223.239 17.9435 223.681 17.4691 224.059 16.9516C224.361 16.5527 224.684 15.9597 225.029 15.1726C225.104 15.0109 225.191 14.9247 225.299 14.9247Z" fill="black"/>
<path d="M238.916 10.5894C239.562 11.0099 239.875 11.3765 239.875 11.6892C239.875 11.7862 239.778 11.9048 239.595 12.0342C239.433 12.239 239.261 12.487 239.077 12.7889C238.258 14.1582 237.428 15.2902 236.608 16.1851C235.94 16.9183 235.185 17.5544 234.344 18.0827C233.773 18.4493 233.395 18.6326 233.212 18.6326C233.104 18.6326 233.05 18.611 233.05 18.5463C233.05 18.4816 233.126 18.4062 233.266 18.3091C234.01 17.6083 234.765 16.7673 235.509 15.7754C236.188 14.8805 236.802 13.8671 237.374 12.7242C237.73 12.0234 237.902 11.3765 237.902 10.7619C237.902 10.4601 237.999 10.3091 238.204 10.3091C238.366 10.3199 238.603 10.4062 238.916 10.5894ZM241.32 15.1824C241.492 15.1824 241.805 15.3873 242.247 15.797C242.635 16.2283 242.829 16.5948 242.829 16.8967C242.829 17.0584 242.754 17.1878 242.614 17.2849C242.398 17.5113 242.204 17.7377 242.042 17.9641C239.832 20.8967 238.721 22.3954 238.721 22.4601C238.721 22.5787 238.818 22.6434 239.013 22.6434C239.465 22.6434 241.514 22.3846 245.137 21.8671C245.676 21.7808 246.053 21.7377 246.279 21.7377C246.473 21.7377 246.571 21.8024 246.571 21.9318C246.571 22.0504 246.409 22.1582 246.075 22.2552C241.967 23.3334 239.907 23.8725 239.886 23.8725C238.948 24.1312 238.323 24.3469 238.01 24.5301C237.805 24.6703 237.643 24.735 237.546 24.735C237.331 24.735 237.05 24.5086 236.694 24.0557C236.274 23.5167 236.058 23.1932 236.058 23.0638C236.058 22.9237 236.134 22.8159 236.296 22.7296C236.781 22.4277 237.352 21.8455 237.988 21.0153C238.84 19.9264 239.627 18.7296 240.371 17.4142C240.802 16.6595 241.04 16.0342 241.061 15.5274C241.072 15.301 241.158 15.1824 241.32 15.1824ZM241.374 6.9668L241.827 7.06383C242.818 7.22556 243.519 7.69995 243.94 8.48701C245.557 11.0423 246.635 12.5517 247.174 13.0153C248.166 13.9102 249.093 14.5571 249.956 14.956L251.8 15.8725C252.436 16.1743 252.748 16.3576 252.748 16.4223C252.748 16.5625 252.694 16.6487 252.597 16.6811C251.616 16.8105 250.592 16.8752 249.514 16.8752C249.331 16.8752 249.083 16.8536 248.759 16.8105C248.414 16.7134 248.101 16.4655 247.8 16.0773C247.174 15.4088 245.697 13.08 243.358 9.11235C243.002 8.56249 242.398 8.20669 241.557 8.04496C241.104 7.89402 240.889 7.64604 240.889 7.32259C240.889 7.09618 241.007 6.97758 241.234 6.97758H241.374V6.9668ZM244.63 19.2256C245.223 19.5274 245.805 19.8832 246.376 20.2822C247.12 20.8859 247.616 21.4466 247.854 21.9425C248.037 22.3846 248.123 22.8698 248.123 23.4089C248.123 23.6353 248.069 23.8832 247.961 24.1636C247.832 24.3684 247.67 24.4655 247.465 24.4655C247.368 24.4655 247.217 24.3576 247.023 24.1528C246.689 23.8617 246.279 23.2363 245.783 22.2876C245.115 21.1016 244.619 20.3037 244.296 19.894C244.026 19.6029 243.897 19.3765 243.897 19.2256C243.897 19.1177 243.94 19.0638 244.015 19.0638C244.123 19.0746 244.328 19.1285 244.63 19.2256Z" fill="black"/>
<path d="M258.929 15.5387C258.929 15.5387 259.048 15.5818 259.275 15.6681C259.781 15.8406 260.04 16.0562 260.04 16.315C260.04 16.5414 260.051 16.7786 260.083 17.0158C260.277 18.5144 260.374 19.5387 260.374 20.1101C260.374 20.3581 260.342 20.5522 260.266 20.6923C260.191 20.8541 260.105 20.9295 259.997 20.9295C259.878 20.9295 259.76 20.8325 259.641 20.6384C259.458 20.3904 259.372 20.1209 259.35 19.8406L259.124 18.4174C259.037 17.6735 258.94 17.1559 258.832 16.8541C258.768 16.5522 258.606 16.2611 258.336 16.0023C258.229 15.9376 258.186 15.8837 258.186 15.8514C258.186 15.6249 258.283 15.5171 258.466 15.5171H258.929V15.5387ZM266.067 11.4417C266.337 11.5603 266.477 11.7004 266.477 11.8837C266.477 12.0023 266.336 12.0993 266.056 12.1748C265.722 12.2934 264.989 12.4551 263.857 12.6492C262.132 12.908 261.01 13.0481 260.493 13.0481C259.889 13.0481 259.469 12.9834 259.231 12.8433C258.994 12.6816 258.876 12.5306 258.876 12.412C258.876 12.315 259.08 12.2503 259.501 12.2395C260.482 12.1425 261.56 11.97 262.746 11.7328C263.566 11.5818 264.234 11.4201 264.741 11.2476C264.924 11.1829 265.043 11.1506 265.097 11.1506C265.334 11.1398 265.657 11.2368 266.067 11.4417ZM265.301 14.6007C265.301 14.6007 265.625 14.7516 266.272 15.0643C266.563 15.2368 266.714 15.4309 266.714 15.6465C266.714 15.8406 266.617 16.0454 266.434 16.2395C266.229 16.5414 266.035 16.9511 265.873 17.4794L265.377 19.1613C265.258 19.3985 265.064 19.5171 264.795 19.5171C264.407 19.5171 264.213 19.4309 264.213 19.2692C264.213 19.1937 264.223 19.0535 264.256 18.8271C264.363 18.2449 264.45 17.7274 264.504 17.2853C264.558 16.8109 264.59 16.4228 264.59 16.1209C264.59 15.9807 264.504 15.9053 264.32 15.9053C263.867 15.9053 263.296 16.0023 262.606 16.1856C261.183 16.5198 260.245 16.6923 259.803 16.6923C259.609 16.6923 259.425 16.6061 259.231 16.4336C259.005 16.3042 258.886 16.2072 258.886 16.1425C258.886 16.0239 258.983 15.97 259.177 15.97C260.266 15.8945 261.194 15.7543 261.959 15.5818C262.746 15.4201 263.512 15.1721 264.245 14.8379C264.547 14.6762 264.773 14.6007 264.935 14.6007H265.301ZM264.504 18.784C264.504 18.784 264.719 18.8918 265.161 19.0966C265.506 19.3231 265.679 19.5171 265.679 19.6681C265.679 19.7867 265.603 19.8406 265.463 19.8406C264.881 19.8406 264.353 19.8837 263.878 19.9484L261.646 20.2072C261.237 20.2611 260.924 20.2934 260.708 20.2934C260.31 20.2934 260.029 20.2179 259.889 20.0778C259.738 19.9268 259.663 19.7975 259.663 19.6681C259.663 19.4848 259.781 19.3877 260.008 19.3877C261.118 19.3015 262.142 19.1506 263.102 18.9349C263.63 18.8379 263.986 18.784 264.159 18.784H264.504ZM270.876 7.89449C271.404 8.28263 271.663 8.56295 271.663 8.72468C271.663 8.84328 271.598 9.02657 271.479 9.25298C271.296 9.66269 271.199 10.6115 271.199 12.1101C271.199 14.3419 271.21 16.2611 271.242 17.8891C271.264 19.0427 271.285 20.3904 271.285 21.943C271.285 23.1829 271.005 24.1317 270.434 24.8109C269.97 25.35 269.539 25.6088 269.14 25.6088L268.752 22.9996C268.978 22.9996 269.183 22.7085 269.345 22.1047C269.56 21.0158 269.657 18.439 269.657 14.3851C269.657 11.7759 269.56 10.0077 269.377 9.09126C269.291 8.84328 269.021 8.72468 268.547 8.72468C267.522 8.72468 266.412 8.80015 265.215 8.95109C264.083 9.1236 263.231 9.27454 262.649 9.39314C262.261 9.51174 261.938 9.57643 261.646 9.57643C261.323 9.57643 260.956 9.44705 260.568 9.16673C260.137 8.94031 259.921 8.73546 259.921 8.54139C259.921 8.44436 260.126 8.39044 260.525 8.39044C261.776 8.34732 263.21 8.22872 264.816 8.02387C266.358 7.80823 267.587 7.58182 268.504 7.34463C269 7.22603 269.312 7.17212 269.431 7.17212C269.625 7.1829 270.099 7.4201 270.876 7.89449ZM266.757 22.3096C267.943 22.784 268.601 23.0104 268.741 23.0104L269.129 25.6196C268.967 25.6196 268.816 25.4902 268.655 25.2099C268.213 24.5414 267.533 23.6896 266.617 22.6762C266.434 22.4929 266.337 22.3743 266.337 22.3096C266.337 22.2665 266.38 22.2557 266.466 22.2557C266.552 22.2557 266.638 22.2772 266.757 22.3096Z" fill="black"/>
</g>
<defs>
<filter id="filter0_d_38_350" x="0" y="0.331543" width="277.663" height="32" filterUnits="userSpaceOnUse" color-interpolation-filters="sRGB">
<feFlood flood-opacity="0" result="BackgroundImageFix"/>
<feColorMatrix in="SourceAlpha" type="matrix" values="0 0 0 0 0 0 0 0 0 0 0 0 0 0 0 0 0 0 127 0" result="hardAlpha"/>
<feOffset/>
<feGaussianBlur stdDeviation="3"/>
<feComposite in2="hardAlpha" operator="out"/>
<feColorMatrix type="matrix" values="0 0 0 0 1 0 0 0 0 1 0 0 0 0 1 0 0 0 1 0"/>
<feBlend mode="normal" in2="BackgroundImageFix" result="effect1_dropShadow_38_350"/>
<feBlend mode="normal" in="SourceGraphic" in2="effect1_dropShadow_38_350" result="shape"/>
</filter>
</defs>
</svg>
