<svg width="31" height="31" viewBox="0 0 31 31" fill="none" xmlns="http://www.w3.org/2000/svg">
<path d="M15.2881 30.3677C23.5724 30.3677 30.2881 23.6519 30.2881 15.3677C30.2881 7.0834 23.5724 0.367676 15.2881 0.367676C7.00381 0.367676 0.288086 7.0834 0.288086 15.3677C0.288086 23.6519 7.00381 30.3677 15.2881 30.3677Z" fill="black"/>
<path d="M24.0661 23.1218H20.4267C20.4267 22.9939 20.4267 22.8794 20.4267 22.7656C20.425 20.8523 20.4285 18.939 20.4173 17.0257C20.4156 16.7363 20.3692 16.4423 20.3011 16.16C20.1397 15.4897 19.7747 14.9844 19.0639 14.823C18.2845 14.6458 17.6161 14.8535 17.0849 15.4586C16.6905 15.9082 16.5667 16.4476 16.5679 17.0315C16.572 18.9349 16.569 20.8388 16.569 22.7421C16.569 22.8589 16.569 22.9751 16.569 23.1136H12.9502V12.1826H16.5637V13.6974C16.6764 13.5571 16.7357 13.4902 16.7879 13.418C17.6477 12.2266 18.8468 11.7987 20.2641 11.9114C22.7861 12.1121 23.782 13.938 23.998 15.7591C24.0508 16.2034 24.0626 16.6542 24.0637 17.102C24.0708 18.9859 24.0667 20.8699 24.0667 22.7538L24.0661 23.1218Z" fill="white"/>
<path d="M10.851 23.1212H7.25684V12.1814H10.851V23.1212Z" fill="white"/>
<path d="M9.05386 10.7999C10.1553 10.7999 11.0481 9.90698 11.0481 8.80557C11.0481 7.70415 10.1553 6.81128 9.05386 6.81128C7.95244 6.81128 7.05957 7.70415 7.05957 8.80557C7.05957 9.90698 7.95244 10.7999 9.05386 10.7999Z" fill="white"/>
</svg>
