<svg width="136" height="25" viewBox="0 0 136 25" fill="none" xmlns="http://www.w3.org/2000/svg">
<path d="M41.1104 24.4606H26.2416L21.7827 18.3549H35.4942L24.1737 7.31933H33.3029C35.8878 9.80046 38.4785 12.2654 41.0693 14.7141C43.3017 17.0928 44.4119 18.7109 44.4119 19.5685V21.3916C44.4119 22.2277 44.083 22.945 43.4191 23.5545C42.7553 24.164 41.9915 24.4606 41.1104 24.4606ZM23.1045 6.10573V3.03668C23.1045 2.20065 23.4276 1.48867 24.0738 0.895364C24.7201 0.296656 25.5131 0 26.4472 0H39.9531L44.4119 6.10573H23.1045Z" fill="#4C9C2E"/>
<path d="M63.2524 24.4606H46.3979V0H63.2524L67.7112 6.10573H53.0892V18.3549H67.7112L63.2524 24.4606ZM59.287 15.2859H54.411V9.18019H63.7458L59.287 15.2859Z" fill="#4C9C2E"/>
<path d="M86.9278 24.4606H72.0588L67.6001 18.3549H81.3118L69.9911 7.3193H79.1203C81.7111 9.80043 84.2956 12.2654 86.8863 14.7142C89.1193 17.0928 90.2292 18.7109 90.2292 19.5685V21.3916C90.2292 22.2277 89.9005 22.945 89.2363 23.5545C88.5727 24.164 87.8087 24.4606 86.9278 24.4606ZM68.916 6.10571V3.03666C68.916 2.20063 69.239 1.48865 69.8853 0.895343C70.5316 0.302028 71.3246 0.00537109 72.2587 0.00537109H85.7646L90.2237 6.1111H68.916V6.10571Z" fill="#0A1F8F"/>
<path d="M104.593 15.4046V25.0001H97.9426V15.4046L87.4502 0.539429H95.3816L101.244 8.84581L107.107 0.539429H115.038L104.593 15.4046Z" fill="#0A1F8F"/>
<path d="M21.3132 5.56628H14.6631V9.60618H21.3132V5.56628Z" fill="#BADF93"/>
<path d="M21.3132 0H14.6631V4.65482H21.3132V0Z" fill="#CFDDBB"/>
<path d="M6.69125 0H0V4.65482H6.69125V0Z" fill="#CFDDBB"/>
<path d="M6.69125 5.56628H0V9.60618H6.69125V5.56628Z" fill="#BADF93"/>
<path d="M0 21.3916C0 22.2277 0.328981 22.945 0.99282 23.5545C1.65666 24.1586 2.43799 24.4661 3.34856 24.4661H21.3133V20.4261H0V21.3916Z" fill="#007934"/>
<path d="M21.3132 10.5177H14.6631V14.5576H21.3132V10.5177Z" fill="#71A850"/>
<path d="M6.69125 10.5177H0V14.5576H6.69125V10.5177Z" fill="#71A850"/>
<path d="M14.6632 18.3547H6.69125V15.4691H0V19.509H21.3133V15.4691H14.6632V18.3547Z" fill="#4C9C2E"/>
<path d="M132.345 25H117.476L113.017 18.8943H126.729L115.408 7.85868H124.537C127.128 10.3398 129.713 12.8047 132.304 15.2535C134.536 17.6321 135.652 19.2502 135.652 20.1079V21.9309C135.652 22.767 135.323 23.4844 134.659 24.0938C133.996 24.7034 133.226 25 132.345 25ZM114.333 6.64508V3.57603C114.333 2.73999 114.656 2.02802 115.302 1.43471C115.948 0.841394 116.741 0.544739 117.675 0.544739H131.181L135.64 6.65048H114.333V6.64508Z" fill="#0A1F8F"/>
</svg>
