<svg width="35" height="27" viewBox="0 0 35 27" fill="none" xmlns="http://www.w3.org/2000/svg">
<path d="M34.7301 16.1103L30.2671 11.4745L34.7301 7.6275V16.1103Z" fill="url(#paint0_linear_731_4220)"/>
<path d="M4.61829 11.4745L0.149902 16.1158V7.6275L4.61829 11.4745Z" fill="url(#paint1_linear_731_4220)"/>
<path d="M34.7299 20.325V24.5934C34.7299 25.6254 33.8925 26.463 32.8605 26.463H2.01939C0.98732 26.463 0.149902 25.6255 0.149902 24.5934V20.325L6.83351 13.3873L14.4682 19.9628C15.2625 20.6437 16.316 21.022 17.4399 21.022C18.5638 21.022 19.6228 20.6437 20.417 19.9628L28.0462 13.3873L34.7299 20.325Z" fill="url(#paint2_linear_731_4220)"/>
<path d="M34.7299 2.32697V4.19645L18.4232 18.2446C17.8991 18.6985 16.9806 18.6985 16.4565 18.2446L0.149902 4.19645V2.32697C0.149902 1.29504 0.987253 0.462891 2.01939 0.462891H32.8605C33.8925 0.462891 34.7299 1.29504 34.7299 2.32697Z" fill="url(#paint3_linear_731_4220)"/>
<defs>
<linearGradient id="paint0_linear_731_4220" x1="30.6704" y1="11.8242" x2="34.4596" y2="11.8251" gradientUnits="userSpaceOnUse">
<stop stop-color="#76FFBB"/>
<stop offset="1" stop-color="#28D0F5"/>
</linearGradient>
<linearGradient id="paint1_linear_731_4220" x1="0.553686" y1="11.8269" x2="4.34746" y2="11.8278" gradientUnits="userSpaceOnUse">
<stop stop-color="#76FFBB"/>
<stop offset="1" stop-color="#28D0F5"/>
</linearGradient>
<linearGradient id="paint2_linear_731_4220" x1="3.27471" y1="19.8562" x2="32.634" y2="19.8904" gradientUnits="userSpaceOnUse">
<stop stop-color="#76FFBB"/>
<stop offset="1" stop-color="#28D0F5"/>
</linearGradient>
<linearGradient id="paint3_linear_731_4220" x1="3.27471" y1="9.42848" x2="32.634" y2="9.45313" gradientUnits="userSpaceOnUse">
<stop stop-color="#76FFBB"/>
<stop offset="1" stop-color="#28D0F5"/>
</linearGradient>
</defs>
</svg>
