<svg width="26" height="39" viewBox="0 0 26 39" fill="none" xmlns="http://www.w3.org/2000/svg">
<path d="M13.0307 0.5C5.9173 0.5 0.149902 6.26732 0.149902 13.3819C0.149902 20.8425 6.077 25.5069 9.28299 31.0647C12.3502 36.3818 12.3478 38.4258 13.0307 38.4258C13.7136 38.4258 13.7113 36.3818 16.7784 31.0647C19.9856 25.5069 25.9115 20.8425 25.9115 13.3819C25.9115 6.26732 20.1441 0.5 13.0307 0.5ZM13.0307 18.3078C10.3097 18.3078 8.10359 16.1018 8.10359 13.3819C8.10359 10.6597 10.3096 8.45369 13.0307 8.45369C15.7518 8.45369 17.9578 10.6597 17.9578 13.3819C17.9578 16.1018 15.7517 18.3078 13.0307 18.3078Z" fill="url(#paint0_linear_731_4227)"/>
<defs>
<linearGradient id="paint0_linear_731_4227" x1="2.47784" y1="19.2631" x2="24.3501" y2="19.2697" gradientUnits="userSpaceOnUse">
<stop stop-color="#76FFBB"/>
<stop offset="1" stop-color="#28D0F5"/>
</linearGradient>
</defs>
</svg>
