<svg width="10" height="19" viewBox="0 0 10 19" fill="none" xmlns="http://www.w3.org/2000/svg">
<path d="M4.67335 11.4477H3.20914C1.70392 11.4477 0.951322 11.4477 0.636132 10.9291C0.320942 10.4104 0.637126 9.69236 1.26949 8.25603L4.18849 1.62652C4.58839 0.718287 4.78824 0.264172 4.99802 0.312727C5.2077 0.361294 5.2077 0.861718 5.2077 1.86258V6.84049C5.2077 7.10534 5.2077 7.23783 5.28593 7.32009C5.36416 7.40234 5.49016 7.40234 5.74205 7.40234H7.20626C8.71152 7.40234 9.46409 7.40234 9.77925 7.92094C10.0944 8.43964 9.77829 9.1577 9.14594 10.5939L6.22691 17.2235C5.82701 18.1318 5.62716 18.5859 5.41738 18.5373C5.2077 18.4888 5.2077 17.9883 5.2077 16.9875V12.0096C5.2077 11.7447 5.2077 11.6122 5.12947 11.53C5.05124 11.4477 4.92524 11.4477 4.67335 11.4477Z" fill="url(#paint0_linear_860_2583)"/>
<defs>
<linearGradient id="paint0_linear_860_2583" x1="0.512695" y1="12.8891" x2="9.90272" y2="12.8915" gradientUnits="userSpaceOnUse">
<stop stop-color="#9EFF75"/>
<stop offset="1" stop-color="#34FFFF"/>
</linearGradient>
</defs>
</svg>
