<svg width="78" height="77" viewBox="0 0 78 77" fill="none" xmlns="http://www.w3.org/2000/svg">
<path d="M13.9355 70.1557L33.0323 44.3035H18.7097L21.0968 23.1518L2 49.0039H16.3226L13.9355 70.1557Z" stroke="white" stroke-width="3.2" stroke-miterlimit="10" stroke-linecap="round" stroke-linejoin="round"/>
<path d="M44.9678 23.1518C56.8317 23.1518 66.4517 32.6231 66.4517 44.3035C66.4517 55.984 56.8317 65.4553 44.9678 65.4553C42.897 65.4553 40.8918 65.1674 38.9971 64.6268" stroke="white" stroke-width="3.2" stroke-miterlimit="10" stroke-linecap="round" stroke-linejoin="round"/>
<path d="M44.9683 47.8289C46.9459 47.8289 48.549 46.2506 48.549 44.3036C48.549 42.3566 46.9459 40.7783 44.9683 40.7783C42.9908 40.7783 41.3877 42.3566 41.3877 44.3036C41.3877 46.2506 42.9908 47.8289 44.9683 47.8289Z" stroke="white" stroke-width="3.2" stroke-miterlimit="10" stroke-linecap="round" stroke-linejoin="round"/>
<path d="M42.4435 46.8036L31.8389 60.7549" stroke="white" stroke-width="3.2" stroke-miterlimit="10" stroke-linecap="round" stroke-linejoin="round"/>
<path d="M2 13.751H23.4839" stroke="white" stroke-width="3.2" stroke-miterlimit="10" stroke-linecap="round" stroke-linejoin="round"/>
<path d="M35.4191 23.1518H28.2578" stroke="white" stroke-width="3.2" stroke-miterlimit="10" stroke-linecap="round" stroke-linejoin="round"/>
<path d="M39.0002 7.87548H37.8066V4.35019C37.8066 3.05171 38.8749 2 40.1937 2H49.7421C51.061 2 52.1292 3.05171 52.1292 4.35019V7.87548H47.355" stroke="white" stroke-width="3.2" stroke-miterlimit="10" stroke-linecap="round" stroke-linejoin="round"/>
<path d="M33.0326 13.751C33.0326 13.751 41.1905 13.751 44.9681 13.751C62.1074 13.751 76.0003 27.4291 76.0003 44.3035C76.0003 61.1779 62.1074 74.856 44.9681 74.856C37.21 74.856 30.1173 72.0534 24.6777 67.4206" stroke="white" stroke-width="3.2" stroke-miterlimit="10" stroke-linecap="round" stroke-linejoin="round"/>
<path d="M66.8486 14.9261C68.8717 16.3891 70.7396 18.0519 72.4195 19.8792" stroke="white" stroke-width="3.2" stroke-miterlimit="10" stroke-linecap="round" stroke-linejoin="round"/>
</svg>
