<svg width="82" height="76" viewBox="0 0 82 76" fill="none" xmlns="http://www.w3.org/2000/svg">
<path d="M38.476 74.7903C17.8118 74.7903 1 58.2415 1 37.8967C1 31.4849 2.69933 25.1685 5.91022 19.6255C6.12929 19.2496 6.61436 19.1172 6.9993 19.3328C7.3811 19.5485 7.51567 20.0292 7.2966 20.4051C4.22028 25.7108 2.59606 31.7591 2.59606 37.8967C2.59606 57.3726 18.6912 73.2189 38.476 73.2189C56.3143 73.2189 71.5958 60.1179 74.0149 42.7464C74.0744 42.3182 74.4749 42.0193 74.9131 42.0747C75.3512 42.1333 75.6548 42.5308 75.5953 42.959C73.0698 61.107 57.1092 74.7903 38.476 74.7903Z" fill="white" stroke="white" stroke-width="1.2"/>
<path d="M74.807 33.7217C74.4158 33.7217 74.0715 33.4352 74.0183 33.0439C73.2672 27.6457 71.2049 22.4078 68.0503 17.8939C65.5968 14.3845 62.5549 11.3681 59.0091 8.92779C58.6492 8.67821 58.5585 8.18831 58.812 7.83398C59.0655 7.47965 59.563 7.39338 59.9229 7.63987C63.6252 10.1911 66.8016 13.34 69.3647 17.0035C72.6601 21.7176 74.8163 27.1928 75.5987 32.8313C75.6582 33.2596 75.3515 33.657 74.9165 33.7156C74.8789 33.7217 74.8445 33.7217 74.807 33.7217Z" fill="white" stroke="white" stroke-width="1.2"/>
<path d="M12.7293 12.9672C12.5228 12.9672 12.3162 12.8901 12.1597 12.733C11.8499 12.4249 11.853 11.9257 12.1691 11.6207C19.2262 4.77132 28.5709 1 38.4759 1C44.1654 1 49.6326 2.22629 54.7212 4.64191C55.1187 4.82986 55.2846 5.30127 55.0937 5.6895C54.9028 6.07772 54.4271 6.2441 54.0296 6.05615C49.157 3.7453 43.9244 2.57138 38.4759 2.57138C28.9903 2.57138 20.0461 6.18248 13.2864 12.7422C13.133 12.8932 12.9296 12.9672 12.7293 12.9672Z" fill="white" stroke="white" stroke-width="1.2"/>
<path d="M24.9029 51.7957C24.518 51.7957 24.1769 51.5184 24.1143 51.1333C23.7293 48.7269 23.4508 46.2096 23.2881 43.6461C23.2881 43.6307 23.2881 43.606 23.2881 43.5906C23.2881 43.1562 23.6449 42.8049 24.0861 42.8049C24.5274 42.8049 24.8841 43.1562 24.8841 43.5906V43.5968C25.0437 46.0617 25.3191 48.5297 25.6947 50.8898C25.7635 51.3181 25.4662 51.7218 25.0312 51.7865C24.9874 51.7926 24.9467 51.7957 24.9029 51.7957Z" fill="white" stroke="white" stroke-width="1.2"/>
<path d="M38.4761 74.7903C34.705 74.7903 31.2406 71.7615 28.4585 66.0275C28.2676 65.6362 28.4366 65.1679 28.834 64.98C29.2315 64.792 29.7072 64.9584 29.8981 65.3497C32.361 70.4243 35.406 73.2158 38.4761 73.2158C43.2799 73.2158 47.8208 66.5082 50.3276 55.7119C51.4667 50.8252 52.0989 43.2302 52.2241 37.8721C52.2335 37.4438 52.5902 37.1049 53.0221 37.1049C53.0284 37.1049 53.0346 37.1049 53.0409 37.1049C53.4821 37.1141 53.8295 37.4746 53.8201 37.909C53.695 43.3473 53.0471 51.0686 51.883 56.0631C49.1634 67.79 44.1499 74.7903 38.4761 74.7903Z" fill="white" stroke="white" stroke-width="1.2"/>
<path d="M52.8689 32.9915C52.4527 32.9915 52.0991 32.6711 52.074 32.2551C51.7924 27.9261 51.2072 23.8313 50.3309 20.0815C49.2856 15.5769 47.8304 11.633 46.1217 8.66898C45.9026 8.29308 46.0372 7.81242 46.4221 7.59674C46.807 7.38106 47.2921 7.51355 47.5112 7.89253C49.295 10.986 50.8097 15.0808 51.8894 19.7303C52.7813 23.5601 53.3822 27.7412 53.6701 32.1534C53.6983 32.5848 53.3634 32.9607 52.9253 32.9884C52.9034 32.9915 52.8846 32.9915 52.8689 32.9915Z" fill="white" stroke="white" stroke-width="1.2"/>
<path d="M23.9299 38.6824C23.9267 38.6824 23.9236 38.6824 23.9205 38.6824C23.4823 38.6762 23.1318 38.328 23.1318 37.8967V35.8015C23.1318 35.6721 23.1631 35.5519 23.2195 35.4441C23.4573 30.2893 24.077 23.9884 25.069 19.7333C27.7917 8.00344 32.8052 1 38.4759 1C38.9172 1 39.2739 1.35125 39.2739 1.78569C39.2739 2.22013 38.9172 2.57138 38.4759 2.57138C33.6721 2.57138 29.1311 9.28211 26.6244 20.0815C25.4946 24.9312 24.8562 32.5293 24.7279 37.9121C24.7185 38.3404 24.3649 38.6824 23.9299 38.6824Z" fill="white" stroke="white" stroke-width="1.2"/>
<path d="M64.5641 38.6824L53.0256 38.6763C52.5843 38.6763 52.2275 38.325 52.2275 37.8906C52.2275 37.4561 52.5843 37.1049 53.0256 37.1049L64.5641 37.1111C65.0054 37.1111 65.3621 37.4623 65.3621 37.8967C65.3621 38.3312 65.0054 38.6824 64.5641 38.6824Z" fill="white" stroke="white" stroke-width="1.2"/>
<path d="M1.79803 38.6825C1.35677 38.6825 1 38.3312 1 37.8968C1 37.4623 1.35677 37.1111 1.79803 37.1111L23.93 37.108C24.3713 37.108 24.728 37.4593 24.728 37.8937C24.728 38.3281 24.3713 38.6794 23.93 38.6794L1.79803 38.6825Z" fill="white" stroke="white" stroke-width="1.2"/>
<path d="M45.7677 21.2494C45.3546 21.2494 45.0041 20.9351 44.9728 20.5222C44.9415 20.0908 45.2701 19.7119 45.7113 19.6811C47.4169 19.5578 49.1476 19.376 51.0002 19.1295C56.6647 18.3777 62.2008 17.1083 67.4584 15.3582C67.8777 15.2196 68.3284 15.4383 68.4692 15.8512C68.6101 16.261 68.3879 16.7077 67.9685 16.8464C62.617 18.6304 56.9776 19.9214 51.213 20.6855C49.3259 20.9382 47.564 21.1199 45.8271 21.2463C45.8084 21.2494 45.7896 21.2494 45.7677 21.2494Z" fill="white" stroke="white" stroke-width="1.2"/>
<path d="M33.3719 21.3849C33.3594 21.3849 33.3438 21.3849 33.3312 21.3849C30.8182 21.2617 28.2645 21.0275 25.739 20.6855C21.6675 20.1463 17.6304 19.339 13.7467 18.2822C13.3211 18.1651 13.0738 17.7338 13.1896 17.3147C13.3086 16.8957 13.7467 16.6523 14.1723 16.7663C17.9872 17.8046 21.9523 18.5996 25.955 19.1264C28.4398 19.4592 30.9465 19.6903 33.4126 19.8135C33.8539 19.8351 34.1919 20.2048 34.17 20.6362C34.148 21.0583 33.7944 21.3849 33.3719 21.3849Z" fill="white" stroke="white" stroke-width="1.2"/>
<path d="M9.23419 60.4784C8.90246 60.4784 8.58951 60.2719 8.47684 59.9453C8.33601 59.5355 8.55821 59.0888 8.97757 58.9501C12.7643 57.6899 16.7137 56.6701 20.7164 55.9183C21.1514 55.8382 21.5676 56.1155 21.649 56.5438C21.7304 56.969 21.4487 57.3818 21.0137 57.4619C17.083 58.1983 13.2056 59.1997 9.48455 60.4383C9.40631 60.466 9.31868 60.4784 9.23419 60.4784Z" fill="white" stroke="white" stroke-width="1.2"/>
<path d="M67.7158 60.4784C67.6313 60.4784 67.5437 60.466 67.4592 60.4383C63.9478 59.2706 60.2894 58.3092 56.5872 57.5821C56.1553 57.4989 55.8737 57.0829 55.9613 56.6577C56.0458 56.2325 56.4651 55.9522 56.9002 56.0415C60.6712 56.781 64.3954 57.7577 67.9724 58.9501C68.3886 59.0888 68.614 59.5355 68.4731 59.9453C68.3573 60.275 68.0475 60.4784 67.7158 60.4784Z" fill="white" stroke="white" stroke-width="1.2"/>
<path d="M51.1101 56.6732C51.0726 56.6732 51.0381 56.6701 51.0006 56.667C48.522 56.3342 46.009 56.1031 43.5367 55.9799C43.0954 55.9583 42.7574 55.5886 42.7793 55.1572C42.8012 54.7228 43.1799 54.3962 43.6149 54.4116C46.1342 54.5348 48.691 54.7721 51.2134 55.111C51.6515 55.1696 51.9551 55.567 51.8956 55.9953C51.8456 56.3897 51.5013 56.6732 51.1101 56.6732Z" fill="white" stroke="white" stroke-width="1.2"/>
<path d="M37.0993 55.5455C36.9835 55.5455 36.8646 55.5301 36.7488 55.4962C36.198 55.3422 35.8256 54.8584 35.8287 54.2946L35.8506 42.3736L29.1253 41.4832C28.4774 41.3969 27.9235 40.9994 27.6419 40.4202C27.3602 39.8409 27.3978 39.1662 27.7389 38.6177L38.7767 20.8426C39.0771 20.3589 39.6498 20.1432 40.2006 20.2942C40.7514 20.4482 41.1238 20.932 41.1238 21.4958L41.1019 33.4168L47.8273 34.3072C48.4751 34.3935 49.029 34.7909 49.3107 35.3702C49.5923 35.9495 49.5548 36.6242 49.2137 37.1727L38.1727 54.9478C37.938 55.3298 37.5312 55.5455 37.0993 55.5455ZM39.5247 22.6512L29.1002 39.4373C29.0188 39.5667 29.0564 39.6869 29.0846 39.7454C29.1127 39.804 29.1847 39.9087 29.3381 39.9272L36.755 40.907C37.1525 40.9594 37.4467 41.2922 37.4467 41.6865L37.4247 53.1391L47.8492 36.3531C47.9306 36.2237 47.893 36.1035 47.8648 36.045C47.8367 35.9864 47.7647 35.8817 47.6113 35.8632L40.1944 34.8834C39.7969 34.831 39.5027 34.4982 39.5027 34.1038L39.5247 22.6512Z" fill="white"/>
<path d="M28.418 39.0275H28.4242M37.0993 55.5455C36.9835 55.5455 36.8646 55.5301 36.7488 55.4962C36.198 55.3422 35.8256 54.8584 35.8287 54.2946L35.8506 42.3736L29.1253 41.4832C28.4774 41.3969 27.9235 40.9994 27.6419 40.4202C27.3602 39.8409 27.3978 39.1662 27.7389 38.6177L38.7767 20.8426C39.0771 20.3589 39.6498 20.1432 40.2006 20.2942C40.7514 20.4482 41.1238 20.932 41.1238 21.4958L41.1019 33.4168L47.8273 34.3072C48.4751 34.3935 49.029 34.7909 49.3107 35.3702C49.5923 35.9495 49.5548 36.6242 49.2137 37.1727L38.1727 54.9478C37.938 55.3298 37.5312 55.5455 37.0993 55.5455ZM39.5247 22.6512L29.1002 39.4373C29.0188 39.5667 29.0564 39.6869 29.0846 39.7454C29.1127 39.804 29.1847 39.9087 29.3381 39.9272L36.755 40.907C37.1525 40.9594 37.4467 41.2922 37.4467 41.6865L37.4247 53.1391L47.8492 36.3531C47.9306 36.2237 47.893 36.1035 47.8648 36.045C47.8367 35.9864 47.7647 35.8817 47.6113 35.8632L40.1944 34.8834C39.7969 34.831 39.5027 34.4982 39.5027 34.1038L39.5247 22.6512Z" stroke="white" stroke-width="1.2"/>
<path d="M9.23384 21.5266C6.01044 21.5266 3.38477 18.9446 3.38477 15.7679C3.38477 12.5944 6.00731 10.0124 9.23384 10.0124C12.4573 10.0124 15.0829 12.5944 15.0829 15.7679C15.0829 18.9446 12.4604 21.5266 9.23384 21.5266ZM9.23384 11.5837C6.88983 11.5837 4.98082 13.4602 4.98082 15.7679C4.98082 18.0757 6.8867 19.9552 9.23384 19.9552C11.5779 19.9552 13.4869 18.0788 13.4869 15.7679C13.4869 13.4602 11.5779 11.5837 9.23384 11.5837Z" fill="white" stroke="white" stroke-width="1.2"/>
<path d="M75.1508 43.6523C71.9274 43.6523 69.3018 41.0703 69.3018 37.8936C69.3018 34.72 71.9243 32.1349 75.1508 32.1349C78.3774 32.1349 80.9999 34.7169 80.9999 37.8936C80.9999 41.0703 78.3742 43.6523 75.1508 43.6523ZM75.1508 33.7094C72.8068 33.7094 70.8978 35.5858 70.8978 37.8967C70.8978 40.2045 72.8037 42.084 75.1508 42.084C77.4948 42.084 79.4039 40.2075 79.4039 37.8967C79.4039 35.5858 77.4948 33.7094 75.1508 33.7094Z" fill="white" stroke="white" stroke-width="1.2"/>
<path d="M25.8481 61.643C22.6247 61.643 19.999 59.061 19.999 55.8844C19.999 52.7108 22.6216 50.1257 25.8481 50.1257C29.0746 50.1257 31.6972 52.7077 31.6972 55.8844C31.6972 59.061 29.0746 61.643 25.8481 61.643ZM25.8481 51.7002C23.5041 51.7002 21.5951 53.5766 21.5951 55.8875C21.5951 58.1952 23.501 60.0747 25.8481 60.0747C28.1952 60.0747 30.1011 58.1983 30.1011 55.8875C30.1011 53.5797 28.1952 51.7002 25.8481 51.7002Z" fill="white" stroke="white" stroke-width="1.2"/>
</svg>
