<svg width="81" height="63" viewBox="0 0 81 63" fill="none" xmlns="http://www.w3.org/2000/svg">
<path d="M45.1426 28.6147L48.8016 12.7142L31.2393 33.0764L40.6184 34.3942L36.9619 50.2921L54.5242 29.9324L45.1426 28.6147Z" stroke="white" stroke-width="3.1" stroke-miterlimit="10" stroke-linecap="round" stroke-linejoin="round"/>
<path d="M57.7485 13.8866L57.8223 14.315C59.1022 21.7454 66.7205 26.375 74.0411 24.173L79.4559 22.5471L77.6238 20.087C75.8732 17.7346 74.7052 15.009 74.2243 12.1305C72.9699 4.67506 65.3388 0.00788483 57.9979 2.21245L52.7256 3.79824" stroke="white" stroke-width="3.1" stroke-miterlimit="10" stroke-linecap="round" stroke-linejoin="round"/>
<path d="M25.0712 50.2094C24.7277 48.2077 24.6539 46.161 24.8601 44.1243L24.9135 43.5932C25.8448 34.3841 18.3435 26.4702 8.95165 26.7407L2 26.9362L3.36132 30.4359C4.66158 33.7803 5.14504 37.3803 4.7659 40.9427C3.79644 50.1718 11.2977 58.1358 20.7201 57.8678L27.4886 57.6724" stroke="white" stroke-width="3.1" stroke-miterlimit="10" stroke-linecap="round" stroke-linejoin="round"/>
<path d="M13.7129 21.9433C18.6493 7.81655 29.9114 2.34521 42.2193 2.34521C52.6595 2.34521 61.8503 7.61864 67.1887 15.6077" stroke="white" stroke-width="3.1" stroke-miterlimit="10" stroke-linecap="round" stroke-linejoin="round"/>
<path d="M72.0378 29.4388C72.0709 30.005 72.0912 30.5762 72.0912 31.1549C72.1904 48.6787 58.7121 61.1621 42.2159 61.1621C28.0072 61.1621 16.1167 51.3918 13.0938 38.3047" stroke="white" stroke-width="3.1" stroke-miterlimit="10" stroke-linecap="round" stroke-linejoin="round"/>
</svg>
