<svg width="82" height="85" viewBox="0 0 82 85" fill="none" xmlns="http://www.w3.org/2000/svg">
<path d="M50.2193 70.1224V76.6569C50.2193 78.219 49.1357 79.5791 47.594 79.9487L45.4367 80.4686C45.0563 82.1712 43.5222 83.3859 41.7503 83.3859H40.1136C38.3643 83.3859 36.8426 82.2008 36.4422 80.5253L36.4322 80.4859L34.4226 79.9758C32.9035 79.589 31.8398 78.2387 31.8398 76.6938V70.1249" stroke="white" stroke-width="3" stroke-miterlimit="10" stroke-linecap="round" stroke-linejoin="round"/>
<path d="M30.1876 65.9658C30.185 62.7133 28.6835 59.6728 26.1983 57.5168C21.5109 53.4538 18.5527 47.5082 18.5527 40.8876C18.5527 28.1144 29.5519 17.8643 42.7584 18.7588C53.6249 19.4881 62.5443 27.9271 63.6555 38.5493C64.4563 46.2689 61.2179 53.2936 55.7696 57.8248C51.6252 61.2719 51.9206 61.6193 51.9206 66.1974V66.3575C51.9206 67.7694 51.0471 69.0408 49.7132 69.5705L49.1076 69.812C44.0247 71.83 38.3412 71.8398 33.2508 69.8366L32.4074 69.504C31.0685 68.9767 30.1901 67.7028 30.1901 66.2885L30.1876 65.9658Z" stroke="white" stroke-width="3" stroke-miterlimit="10" stroke-linecap="round" stroke-linejoin="round"/>
<path d="M37.3706 61.4026L30.5283 42.886L35.3159 43.773C36.4521 43.9849 37.6208 43.6301 38.4392 42.8268C39.7931 41.4988 41.9754 41.4815 43.3494 42.7899L43.447 42.8835C44.2579 43.6547 45.3966 43.9947 46.5077 43.7976L51.6232 42.8884L44.1577 61.4051" stroke="white" stroke-width="3" stroke-miterlimit="10" stroke-linecap="round" stroke-linejoin="round"/>
<path d="M41.2744 1.89575L41.2436 10.8609" stroke="white" stroke-width="3" stroke-miterlimit="10" stroke-linecap="round" stroke-linejoin="round"/>
<path d="M21.7324 6.46741L25.696 14.5391" stroke="white" stroke-width="3" stroke-miterlimit="10" stroke-linecap="round" stroke-linejoin="round"/>
<path d="M1.99985 39.0455L11.0078 40.3531" stroke="white" stroke-width="3" stroke-miterlimit="10" stroke-linecap="round" stroke-linejoin="round"/>
<path d="M6.74902 19.5785L14.6346 24.0608" stroke="white" stroke-width="3" stroke-miterlimit="10" stroke-linecap="round" stroke-linejoin="round"/>
<path d="M60.5801 6.46741L56.6165 14.5391" stroke="white" stroke-width="3" stroke-miterlimit="10" stroke-linecap="round" stroke-linejoin="round"/>
<path d="M80.3126 39.0455L71.3047 40.3531" stroke="white" stroke-width="3" stroke-miterlimit="10" stroke-linecap="round" stroke-linejoin="round"/>
<path d="M75.5635 19.5785L67.6779 24.0608" stroke="white" stroke-width="3" stroke-miterlimit="10" stroke-linecap="round" stroke-linejoin="round"/>
</svg>
