<svg width="67" height="71" viewBox="0 0 67 71" fill="none" xmlns="http://www.w3.org/2000/svg">
<path d="M65 29.6317C64.0371 22.69 60.8226 16.258 55.8518 11.3266C50.8809 6.3951 44.4295 3.23776 37.4913 2.34088C30.5531 1.444 23.513 2.85735 17.4555 6.3632C11.3979 9.86906 6.65904 15.2729 3.96875 21.7424M2 5.96383V21.7424H17.75M2 37.521C3.12882 45.6794 7.36111 53.0853 13.8125 58.1909M29.5625 45.4103H37.4375C38.4818 45.4103 39.4833 45.8259 40.2217 46.5656C40.9602 47.3054 41.375 48.3087 41.375 49.3549V53.2995C41.375 54.3457 40.9602 55.3491 40.2217 56.0888C39.4833 56.8286 38.4818 57.2442 37.4375 57.2442H33.5C32.4557 57.2442 31.4542 57.6598 30.7158 58.3996C29.9773 59.1393 29.5625 60.1427 29.5625 61.1888V65.1335C29.5625 66.1797 29.9773 67.183 30.7158 67.9228C31.4542 68.6625 32.4557 69.0781 33.5 69.0781H41.375M53.1875 45.4103V53.2995C53.1875 54.3457 53.6023 55.3491 54.3408 56.0888C55.0792 56.8286 56.0807 57.2442 57.125 57.2442H61.0625M65 45.4103V69.0781" stroke="white" stroke-width="3.5" stroke-linecap="round" stroke-linejoin="round"/>
</svg>
