<svg width="73" height="91" viewBox="0 0 73 91" fill="none" xmlns="http://www.w3.org/2000/svg">
<path d="M19.7002 88.8781L29.5002 55.2781V18.8781L36.5002 2.07812L43.5002 18.8781V55.2781L53.3002 88.8781" stroke="white" stroke-width="2.8" stroke-linecap="round" stroke-linejoin="round"/>
<path d="M29.5004 18.8779L9.90039 30.0779H63.1004L43.5004 18.8779H29.5004Z" stroke="white" stroke-width="2.8" stroke-linecap="round" stroke-linejoin="round"/>
<path d="M29.5004 37.0781H43.5004L70.1004 48.2781H2.90039L29.5004 37.0781Z" stroke="white" stroke-width="2.8" stroke-linecap="round" stroke-linejoin="round"/>
<path d="M11.2998 88.8779H61.6998" stroke="white" stroke-width="2.5" stroke-linecap="round" stroke-linejoin="round"/>
<path d="M5.7 88.8779H1.5" stroke="white" stroke-width="2.5" stroke-linecap="round" stroke-linejoin="round"/>
<path d="M71.4998 88.8779H67.2998" stroke="white" stroke-width="2.5" stroke-linecap="round" stroke-linejoin="round"/>
<path d="M29.5 55.2781H43.5" stroke="white" stroke-width="2.5" stroke-linecap="round" stroke-linejoin="round"/>
<path d="M25.2998 72.0781H47.6998" stroke="white" stroke-width="2.8" stroke-linecap="round" stroke-linejoin="round"/>
<path d="M21.1006 87.478L47.7006 73.478" stroke="white" stroke-width="2" stroke-linecap="round" stroke-linejoin="round"/>
<path d="M51.8998 87.478L25.2998 73.478" stroke="white" stroke-width="2" stroke-linecap="round" stroke-linejoin="round"/>
<path d="M46.3 70.6782L29.5 56.6782" stroke="white" stroke-width="2" stroke-linecap="round" stroke-linejoin="round"/>
<path d="M26.7002 70.6782L43.5002 56.6782" stroke="white" stroke-width="2" stroke-linecap="round" stroke-linejoin="round"/>
<path d="M30.9004 28.6781L42.1004 20.2781" stroke="white" stroke-width="2" stroke-linecap="round" stroke-linejoin="round"/>
<path d="M30.9004 46.878L42.1004 38.478" stroke="white" stroke-width="2" stroke-linecap="round" stroke-linejoin="round"/>
<path d="M42.1004 46.878L30.9004 38.478" stroke="white" stroke-width="2" stroke-linecap="round" stroke-linejoin="round"/>
<path d="M42.1004 28.6781L30.9004 20.2781" stroke="white" stroke-width="2" stroke-linecap="round" stroke-linejoin="round"/>
<path d="M60.2998 30.0781V35.6781" stroke="white" stroke-width="3" stroke-linecap="round" stroke-linejoin="round"/>
<path d="M12.7002 30.0781V35.6781" stroke="white" stroke-width="3" stroke-linecap="round" stroke-linejoin="round"/>
<path d="M5.7002 49.678V55.278" stroke="white" stroke-width="2.5" stroke-linecap="round" stroke-linejoin="round"/>
<path d="M67.2998 49.678V55.278" stroke="white" stroke-width="2.5" stroke-linecap="round" stroke-linejoin="round"/>
</svg>
