<svg width="75" height="57" viewBox="0 0 75 57" fill="none" xmlns="http://www.w3.org/2000/svg">
<path d="M37.5 9.41943C38.1216 9.41943 38.7177 9.66636 39.1573 10.1059C39.5968 10.5454 39.8437 11.1416 39.8437 11.7632V18.7944C39.8437 19.416 39.5968 20.0122 39.1573 20.4517C38.7177 20.8913 38.1216 21.1382 37.5 21.1382C36.8784 21.1382 36.2823 20.8913 35.8427 20.4517C35.4032 20.0122 35.1562 19.416 35.1562 18.7944V11.7632C35.1562 11.1416 35.4032 10.5454 35.8427 10.1059C36.2823 9.66636 36.8784 9.41943 37.5 9.41943ZM17.4937 17.5382C17.9333 17.0988 18.5293 16.852 19.1508 16.852C19.7723 16.852 20.3683 17.0988 20.8078 17.5382L25.0969 21.8226C25.3148 22.0405 25.4876 22.2992 25.6056 22.5839C25.7235 22.8686 25.7842 23.1738 25.7842 23.4819C25.7842 23.7901 25.7235 24.0953 25.6056 24.38C25.4876 24.6647 25.3148 24.9234 25.0969 25.1413C24.879 25.3592 24.6203 25.5321 24.3355 25.65C24.0508 25.7679 23.7457 25.8286 23.4375 25.8286C23.1293 25.8286 22.8242 25.7679 22.5395 25.65C22.2547 25.5321 21.996 25.3592 21.7781 25.1413L17.4937 20.8522C17.0544 20.4127 16.8075 19.8167 16.8075 19.1952C16.8075 18.5737 17.0544 17.9777 17.4937 17.5382ZM9.375 37.5444C9.375 36.9228 9.62193 36.3267 10.0615 35.8871C10.501 35.4476 11.0971 35.2007 11.7187 35.2007H19.1531C19.7747 35.2007 20.3709 35.4476 20.8104 35.8871C21.2499 36.3267 21.4969 36.9228 21.4969 37.5444C21.4969 38.166 21.2499 38.7622 20.8104 39.2017C20.3709 39.6412 19.7747 39.8882 19.1531 39.8882H11.7187C11.0971 39.8882 10.501 39.6412 10.0615 39.2017C9.62193 38.7622 9.375 38.166 9.375 37.5444ZM53.9062 37.5444C53.9062 36.9228 54.1532 36.3267 54.5927 35.8871C55.0323 35.4476 55.6284 35.2007 56.25 35.2007H63.2812C63.9028 35.2007 64.499 35.4476 64.9385 35.8871C65.3781 36.3267 65.625 36.9228 65.625 37.5444C65.625 38.166 65.3781 38.7622 64.9385 39.2017C64.499 39.6412 63.9028 39.8882 63.2812 39.8882H56.25C55.6284 39.8882 55.0323 39.6412 54.5927 39.2017C54.1532 38.7622 53.9062 38.166 53.9062 37.5444ZM57.4406 17.6413C57.1159 17.3183 56.6815 17.1293 56.2238 17.1119C55.7661 17.0945 55.3186 17.2501 54.9703 17.5476L35.3766 34.3101C34.92 34.6947 34.5493 35.1709 34.2884 35.7078C34.0275 36.2447 33.8822 36.8304 33.8619 37.427C33.8416 38.0236 33.9467 38.6179 34.1705 39.1713C34.3943 39.7247 34.7318 40.225 35.1611 40.6398C35.5904 41.0546 36.102 41.3747 36.6628 41.5793C37.2235 41.784 37.821 41.8686 38.4166 41.8278C39.0122 41.787 39.5925 41.6217 40.1202 41.3424C40.6478 41.0632 41.111 40.6764 41.4797 40.2069L57.5766 20.0647C57.8566 19.7142 57.9976 19.2727 57.9725 18.8247C57.9474 18.3767 57.758 17.9537 57.4406 17.6366V17.6413Z" fill="white"/>
<path d="M1.50002 37.5462L1.50002 37.5458C1.50473 32.3069 2.6528 27.1322 4.8641 22.3828C7.07539 17.6335 10.2966 13.424 14.3029 10.0482C18.3092 6.67249 23.004 4.21181 28.0595 2.83798C33.1151 1.46416 38.4096 1.2103 43.5734 2.09413C48.7372 2.97796 53.6459 4.97817 57.9568 7.95514C62.2676 10.9321 65.8768 14.8141 68.5324 19.3301C71.1879 23.8461 72.8258 28.8872 73.3317 34.1016C73.8376 39.3156 73.1995 44.577 71.462 49.5189C69.7535 54.3622 64.2126 55.9455 59.595 54.4502C53.4534 52.461 44.6656 50.1069 37.5 50.1069C30.3393 50.1069 21.5422 52.4609 15.4047 54.4503C10.7875 55.9453 5.24727 54.3623 3.5384 49.5199C2.18462 45.6732 1.49532 41.6242 1.50002 37.5462Z" stroke="white" stroke-width="3"/>
</svg>
