<svg width="73" height="72" viewBox="0 0 73 72" fill="none" xmlns="http://www.w3.org/2000/svg">
<path d="M41.9835 20.4191H58.4351C60.859 20.4191 62.8222 22.3823 62.8222 24.8062V46.7417C62.8222 49.1656 60.859 51.1288 58.4351 51.1288H51.9834C47.44 51.1288 44.8681 45.9219 47.6264 42.3135L55.1448 32.4836H33.9826L38.3697 1.77393L9.85352 39.0643H30.6922L26.3051 69.774H26.6287L40.8868 51.1288" stroke="white" stroke-width="3.5" stroke-miterlimit="10" stroke-linecap="round" stroke-linejoin="round"/>
<path d="M16.7581 20.4192H6.8871C4.46323 20.4192 2.5 22.3824 2.5 24.8063V46.7418C2.5 49.1657 4.46323 51.1289 6.8871 51.1289H22.2419" stroke="white" stroke-width="3.5" stroke-miterlimit="10" stroke-linecap="round" stroke-linejoin="round"/>
<path d="M67.21 28.0964H68.3067C69.5187 28.0964 70.5003 29.078 70.5003 30.29V41.2577C70.5003 42.4697 69.5187 43.4513 68.3067 43.4513H67.21" stroke="white" stroke-width="3.5" stroke-miterlimit="10" stroke-linecap="round" stroke-linejoin="round"/>
</svg>
