<svg width="71" height="70" viewBox="0 0 71 70" fill="none" xmlns="http://www.w3.org/2000/svg">
<path d="M6.52441 68.2737H51.5889" stroke="white" stroke-width="3" stroke-miterlimit="10" stroke-linecap="round" stroke-linejoin="round"/>
<path d="M24.7742 53.2576H53.7339C54.9191 53.2576 55.879 54.2175 55.879 55.4027V59.6931C55.879 60.8783 54.9191 61.8382 53.7339 61.8382H4.39516C3.20996 61.8382 2.25 60.8783 2.25 59.6931V55.4027C2.25 54.2175 3.20996 53.2576 4.39516 53.2576H17.2661" stroke="white" stroke-width="3" stroke-miterlimit="10" stroke-linecap="round" stroke-linejoin="round"/>
<path d="M38.7043 31.8059C36.7227 35.9863 34.8752 40.1425 35.2345 44.8914C35.3176 45.9908 36.2696 46.822 37.3716 46.822H40.8629C42.0481 46.822 43.008 47.782 43.008 48.9672V53.2575" stroke="white" stroke-width="3" stroke-miterlimit="10" stroke-linecap="round" stroke-linejoin="round"/>
<path d="M15.1211 53.2577V48.9674C15.1211 47.7822 16.0811 46.8222 17.2663 46.8222H20.7548C21.8596 46.8222 22.8142 45.9829 22.8973 44.8808C23.7125 33.97 13.1502 25.1722 15.4509 14.8513C16.7755 8.91452 21.9427 4.407 28.0081 3.9592C34.6662 3.46849 40.426 7.65692 42.3351 13.5749" stroke="white" stroke-width="3" stroke-miterlimit="10" stroke-linecap="round" stroke-linejoin="round"/>
<path d="M51.5891 44.6771L68.7504 21.0804H55.8794L58.0246 1.77393L40.8633 25.3707H53.7342L51.5891 44.6771Z" stroke="white" stroke-width="3" stroke-miterlimit="10" stroke-linecap="round" stroke-linejoin="round"/>
</svg>
