<svg width="95" height="67" viewBox="0 0 95 67" fill="none" xmlns="http://www.w3.org/2000/svg">
<path d="M92.553 58.0419L73.7811 40.0945L69 45.2739L87.6863 63.1358C88.2979 63.7473 89.2972 63.7274 89.8842 63.0913L92.5963 60.1542C93.1505 59.552 93.1317 58.6206 92.553 58.0419Z" stroke="white" stroke-width="2.8" stroke-miterlimit="10" stroke-linecap="round" stroke-linejoin="round"/>
<path d="M54.0598 1.77393C40.8389 1.77393 30.125 12.4878 30.125 25.7088C30.125 38.9298 40.8389 49.6436 54.0598 49.6436C67.2808 49.6436 77.9947 38.9298 77.9947 25.7088C77.9947 12.4878 67.2808 1.77393 54.0598 1.77393ZM54.0598 42.2441C44.9276 42.2441 37.5245 34.8399 37.5245 25.7088C37.5245 16.5777 44.9288 9.17346 54.0598 9.17346C63.1921 9.17346 70.5952 16.5777 70.5952 25.7088C70.5952 34.8399 63.1921 42.2441 54.0598 42.2441Z" stroke="white" stroke-width="2.8" stroke-miterlimit="10" stroke-linecap="round" stroke-linejoin="round"/>
<path d="M50 34.5271L62 21.5271" stroke="white" stroke-width="2" stroke-miterlimit="10" stroke-linecap="round" stroke-linejoin="round"/>
<path d="M56 36.5271L64 28.5271" stroke="white" stroke-width="2" stroke-miterlimit="10" stroke-linecap="round" stroke-linejoin="round"/>
<path d="M32.1788 45.7662L30.3052 47.9559C29.6647 47.7148 28.9857 47.5611 28.2852 47.5092L27.4056 45.0167L24.6909 45.4939L24.7321 48.1338C24.0924 48.4206 23.5091 48.7969 22.9917 49.2416L20.6073 48.1066L19.0306 50.3765L20.9114 52.2355C20.6737 52.8728 20.5273 53.5478 20.4734 54.2429L17.9979 55.1305L18.4871 57.8572L21.1249 57.846C21.4139 58.4894 21.7911 59.0724 22.241 59.5932L21.1111 61.9683L23.3811 63.5621L25.21 61.6777C25.8512 61.923 26.5304 62.0774 27.2259 62.1295L28.1238 64.6231L30.8385 64.1459L30.814 61.4987C31.4538 61.2119 32.0328 60.8363 32.5537 60.3867L34.922 61.5333L36.4988 59.2633L34.6118 57.4185C34.8522 56.772 35.0061 56.0862 35.057 55.3786L37.5315 54.5093L37.0423 51.7826L34.4167 51.8099C34.1228 51.1672 33.7456 50.5799 33.2998 50.0577L34.5842 47.6423" stroke="white" stroke-width="2" stroke-miterlimit="10" stroke-linecap="round" stroke-linejoin="round"/>
<path d="M28.2572 57.5669C29.7674 57.3014 30.7711 55.8565 30.4989 54.3396C30.2268 52.8227 28.7818 51.8082 27.2716 52.0737C25.7614 52.3392 24.7577 53.7841 25.0299 55.301C25.3021 56.8179 26.747 57.8324 28.2572 57.5669Z" stroke="white" stroke-width="2" stroke-miterlimit="10" stroke-linecap="round" stroke-linejoin="round"/>
<path d="M24.1843 16.7805C23.2097 16.2059 22.1466 15.7623 21.0186 15.4779L20.3131 11.1772H15.7434L15.0378 15.4779C13.9098 15.7611 12.8479 16.2059 11.8733 16.7805L8.31477 14.2556L5.07715 17.4932L7.60212 21.0506C7.02751 22.0181 6.59095 23.0729 6.29952 24.1867L2 24.9218V29.4915L6.30778 30.2266C6.59095 31.3545 7.03577 32.4094 7.61746 33.384L5.07833 36.9201L8.31595 40.1577L11.8521 37.6186C12.8267 38.2003 13.8898 38.6451 15.0095 38.9283L15.7445 43.236H20.3142L21.0493 38.9283C22.1773 38.6451 23.2321 38.2003 24.2138 37.6186L27.7428 40.1577" stroke="white" stroke-width="2.5" stroke-miterlimit="10" stroke-linecap="round" stroke-linejoin="round"/>
<path d="M18 32.7739C20.7614 32.7739 23 30.3115 23 27.2739C23 24.2364 20.7614 21.7739 18 21.7739C15.2386 21.7739 13 24.2364 13 27.2739C13 30.3115 15.2386 32.7739 18 32.7739Z" stroke="white" stroke-width="2.5" stroke-miterlimit="10" stroke-linecap="round" stroke-linejoin="round"/>
</svg>
