<svg width="62" height="46" viewBox="0 0 62 46" fill="none" xmlns="http://www.w3.org/2000/svg">
<path d="M21.4331 25.2745L26.4798 20.2278V43.441" stroke="url(#paint0_linear_445_9487)" stroke-width="3.3" stroke-linecap="round" stroke-linejoin="round"/>
<path d="M3.76965 35.3679C-2.53885 24.0129 8.61458 16.8633 16.0837 18.9661C15.148 17.7991 14.4835 16.4388 14.138 14.9836C13.7925 13.5283 13.7748 12.0144 14.0861 10.5514C14.3974 9.08845 15.03 7.71295 15.9381 6.52442C16.8462 5.33589 18.007 4.36403 19.3367 3.67915C20.6665 2.99426 22.1318 2.61346 23.6267 2.56429C25.1216 2.51513 26.6088 2.79882 27.9806 3.39485C29.3525 3.99089 30.5747 4.88436 31.5589 6.01066C32.5431 7.13695 33.2647 8.46791 33.6715 9.90726C34.4259 9.1315 35.3378 8.52648 36.3459 8.13301C37.3539 7.73954 38.4346 7.56675 39.515 7.62629C40.5955 7.68583 41.6506 7.97632 42.6093 8.47817C43.568 8.98003 44.408 9.68159 45.0726 10.5355C45.7372 11.3895 46.211 12.376 46.462 13.4286C46.7131 14.4812 46.7355 15.5754 46.5279 16.6374C46.3203 17.6994 45.8874 18.7045 45.2584 19.585C44.6294 20.4656 43.819 21.201 42.8817 21.7418C48.1077 18.7265 54.2915 18.3636 58.0705 22.8297C59.7883 25.2745 62.5367 31.4184 55.6657 36.5716" stroke="white" stroke-width="3.3" stroke-linecap="round" stroke-linejoin="round"/>
<path d="M39.097 34.6393L34.0503 39.686V24.5459" stroke="url(#paint1_linear_445_9487)" stroke-width="3.3" stroke-linecap="round" stroke-linejoin="round"/>
<defs>
<linearGradient id="paint0_linear_445_9487" x1="23.9565" y1="20.2278" x2="23.9565" y2="43.441" gradientUnits="userSpaceOnUse">
<stop stop-color="#76FFBB"/>
<stop offset="1" stop-color="#2887F5"/>
</linearGradient>
<linearGradient id="paint1_linear_445_9487" x1="36.5736" y1="24.5459" x2="36.5736" y2="39.686" gradientUnits="userSpaceOnUse">
<stop stop-color="#76FFBB"/>
<stop offset="1" stop-color="#2887F5"/>
</linearGradient>
</defs>
</svg>
