<svg width="31" height="31" viewBox="0 0 31 31" fill="none" xmlns="http://www.w3.org/2000/svg">
<path fill-rule="evenodd" clip-rule="evenodd" d="M15.8311 30.3508C24.1152 30.3508 30.8311 23.635 30.8311 15.3508C30.8311 7.06665 24.1152 0.35083 15.8311 0.35083C7.54688 0.35083 0.831055 7.06665 0.831055 15.3508C0.831055 23.635 7.54688 30.3508 15.8311 30.3508ZM24.3701 6.61255H21.4043L21.2314 6.8125L20.8857 7.21045L16.5156 12.144L16.4717 12.1909L16.4355 12.1509L16.417 12.1279L12.3057 6.69189C12.2939 6.67603 12.2852 6.65796 12.2764 6.63989L12.2617 6.61255H6.19727V6.72583C6.21875 6.74707 6.24316 6.76611 6.26074 6.79004L13.3604 16.0891L13.4111 16.1577L13.1289 16.4836L7.08594 23.4319L6.51855 24.0891H9.48438L10.8184 22.5596L14.7568 18.0613L14.833 17.978L15.0879 18.3103L19.4521 24.0181L19.4854 24.0691L19.4971 24.0889H25.4658L25.4307 24.0386C25.3945 23.9858 25.3584 23.9331 25.3203 23.8821L17.9385 14.1216L17.8691 14.0281L18.8057 12.9612L24.0469 6.99219L24.2734 6.72803L24.3701 6.61255ZM21.9258 22.2212L22.0205 22.3494L21.7041 22.3496C21.2715 22.3499 20.8506 22.3501 20.4297 22.3464C20.3936 22.3459 20.3477 22.3071 20.3223 22.2739C19.8809 21.7007 19.4414 21.1262 19.002 20.5518L18.6396 20.0786L9.70996 8.41431L9.62305 8.29858L9.68164 8.29272L9.71289 8.29102C10.2412 8.29077 10.7705 8.29199 11.2988 8.28906C11.3633 8.28882 11.4004 8.31226 11.4375 8.36182L16.1768 14.6257L21.9258 22.2212Z" fill="black"/>
</svg>
