<svg width="33" height="36" viewBox="0 0 33 36" fill="none" xmlns="http://www.w3.org/2000/svg">
<path d="M9.76455 2.19266C9.76455 2.19266 9.23955 0.962891 8.43774 0.962891C7.64864 0.962891 7.23819 1.32721 6.96455 1.57857C6.69092 1.82994 2.11228 5.59244 2.11228 5.59244C2.11228 5.59244 0.78069 6.75539 0.882508 8.94289C0.968417 11.1304 1.39637 14.2438 3.61728 18.5806C5.82228 22.9079 11.3411 29.5197 14.8284 31.844C14.8284 31.844 18.0596 34.3227 21.0664 35.3297C21.9398 35.6049 23.6866 35.9629 24.0939 35.9629C24.5075 35.9629 25.2377 35.9629 26.0761 35.3504C26.9289 34.7315 31.7127 30.8847 31.7127 30.8847C31.7127 30.8847 32.8836 29.8268 31.5234 28.597C30.1568 27.3672 26.0077 24.6324 25.12 23.9133C24.2307 23.1831 22.9643 23.5045 22.4171 23.9993C21.8714 24.4972 20.8961 25.3165 20.7768 25.4199C20.5986 25.5568 20.1102 26.0006 19.563 25.7795C18.8661 25.5043 16.0089 23.9531 13.36 20.329C10.7271 16.7081 10.4375 15.5245 10.0446 14.2454C9.97791 14.0563 9.97699 13.8503 10.0419 13.6606C10.1069 13.4709 10.2339 13.3087 10.4025 13.2002C10.7971 12.9265 12.2496 11.7158 12.2496 11.7158C12.2496 11.7158 13.1898 10.7883 12.7968 9.69539C12.4039 8.60244 9.76455 2.19266 9.76455 2.19266Z" fill="url(#paint0_linear_725_4214)"/>
<defs>
<linearGradient id="paint0_linear_725_4214" x1="3.70576" y1="18.2785" x2="30.2839" y2="18.289" gradientUnits="userSpaceOnUse">
<stop stop-color="#76FFBB"/>
<stop offset="1" stop-color="#28D0F5"/>
</linearGradient>
</defs>
</svg>
