<svg width="265" height="81" viewBox="0 0 265 81" fill="none" xmlns="http://www.w3.org/2000/svg">
<path d="M4.416 60V26.976H10.032L25.152 49.824H25.344V26.976H30.528V60H25.344L9.792 36.432H9.6V60H4.416ZM39.3379 60V26.976H61.3219V31.584H44.7619V41.04H59.0659V45.648H44.7619V55.392H61.3219V60H39.3379ZM74.0153 60L65.4713 26.976H70.9433L77.5673 53.424H77.8073L85.0553 26.976H90.7193L98.0633 53.424H98.3513L104.639 26.976H110.063L101.519 60H94.8953L87.8873 34.992H87.6953L80.6393 60H74.0153ZM127.164 60.384C125.98 60.384 124.668 60.352 123.228 60.288C121.82 60.224 120.428 60.128 119.052 60C117.708 59.904 116.476 59.792 115.356 59.664V55.2C116.508 55.296 117.708 55.392 118.956 55.488C120.236 55.584 121.452 55.664 122.604 55.728C123.756 55.76 124.748 55.776 125.58 55.776C127.276 55.776 128.604 55.696 129.564 55.536C130.524 55.376 131.292 55.12 131.868 54.768C132.252 54.512 132.524 54.192 132.684 53.808C132.876 53.424 132.988 52.976 133.02 52.464C133.084 51.92 133.116 51.328 133.116 50.688C133.116 49.824 133.084 49.104 133.02 48.528C132.956 47.952 132.812 47.504 132.588 47.184C132.364 46.864 132.012 46.64 131.532 46.512C131.052 46.352 130.428 46.224 129.66 46.128L121.788 45.216C120.252 45.024 118.988 44.704 117.996 44.256C117.036 43.776 116.284 43.152 115.74 42.384C115.228 41.616 114.876 40.704 114.684 39.648C114.492 38.592 114.396 37.424 114.396 36.144C114.396 34 114.684 32.304 115.26 31.056C115.836 29.808 116.652 28.864 117.708 28.224C118.796 27.552 120.076 27.12 121.548 26.928C123.02 26.704 124.652 26.592 126.444 26.592C127.692 26.592 128.972 26.64 130.284 26.736C131.596 26.8 132.828 26.896 133.98 27.024C135.164 27.12 136.14 27.264 136.908 27.456V31.824C136.108 31.696 135.164 31.584 134.076 31.488C133.02 31.392 131.916 31.328 130.764 31.296C129.612 31.232 128.54 31.2 127.548 31.2C125.884 31.2 124.54 31.28 123.516 31.44C122.524 31.568 121.756 31.792 121.212 32.112C120.572 32.464 120.188 32.96 120.06 33.6C119.932 34.208 119.868 34.976 119.868 35.904C119.868 36.992 119.932 37.84 120.06 38.448C120.22 39.024 120.556 39.424 121.068 39.648C121.612 39.872 122.428 40.048 123.516 40.176L131.388 41.088C132.38 41.184 133.276 41.344 134.076 41.568C134.876 41.76 135.58 42.096 136.188 42.576C136.828 43.056 137.324 43.744 137.676 44.64C137.9 45.088 138.06 45.6 138.156 46.176C138.284 46.752 138.38 47.392 138.444 48.096C138.54 48.768 138.588 49.536 138.588 50.4C138.588 52.224 138.396 53.744 138.012 54.96C137.66 56.176 137.148 57.152 136.476 57.888C135.836 58.592 135.036 59.136 134.076 59.52C133.116 59.872 132.06 60.096 130.908 60.192C129.756 60.32 128.508 60.384 127.164 60.384Z" fill="black"/>
<rect width="148.32" height="5" fill="url(#paint0_linear_146_1015)"/>
<rect opacity="0.7" x="152.075" width="9.38732" height="5" fill="#3195EF"/>
<rect opacity="0.35" x="165.217" width="9.38732" height="5" fill="#3296EE"/>
<defs>
<linearGradient id="paint0_linear_146_1015" x1="0" y1="0" x2="57.5704" y2="79.4413" gradientUnits="userSpaceOnUse">
<stop stop-color="#76FFBB"/>
<stop offset="1" stop-color="#2887F5"/>
</linearGradient>
</defs>
</svg>
