<svg width="31" height="31" viewBox="0 0 31 31" fill="none" xmlns="http://www.w3.org/2000/svg">
<path d="M30.4871 15.2749C30.4521 12.3988 29.6008 9.59261 28.0337 7.18693C26.4666 4.78125 24.249 2.87622 21.642 1.6962C19.0348 0.516193 16.147 0.110348 13.3183 0.526437C10.4898 0.942546 7.83821 2.16325 5.67602 4.04485C3.5138 5.92643 1.93098 8.39052 1.11395 11.1469C0.296941 13.9033 0.279728 16.8372 1.06438 19.6031C1.84903 22.3691 3.40284 24.8516 5.54283 26.7588C7.68281 28.666 10.3199 29.9181 13.1434 30.3677V19.6707H9.39341V15.2749H13.1434V11.9356C13.0566 11.1592 13.1402 10.373 13.3885 9.63264C13.6367 8.89226 14.0434 8.21573 14.5798 7.65079C15.1163 7.08582 15.7693 6.64623 16.4931 6.36303C17.2168 6.07981 17.9936 5.95988 18.7684 6.01173C19.893 6.02722 21.015 6.12813 22.1246 6.31358V10.0868H20.2496C19.9264 10.0457 19.5979 10.0783 19.2889 10.1822C18.9797 10.286 18.6977 10.4584 18.4637 10.6866C18.2297 10.9148 18.0497 11.193 17.937 11.5005C17.8241 11.8082 17.7816 12.1375 17.8121 12.4638V15.3126H21.9746L21.2996 19.7084H17.8309V30.2733C21.3745 29.7094 24.5998 27.8862 26.9218 25.1344C29.2438 22.3826 30.5087 18.8847 30.4871 15.2749Z" fill="black"/>
</svg>
