<?xml version="1.0" encoding="utf-8"?>
<!-- Generator: Adobe Illustrator 23.0.5, SVG Export Plug-In . SVG Version: 6.00 Build 0)  -->
<svg version="1.1" id="圖層_1" xmlns="http://www.w3.org/2000/svg" xmlns:xlink="http://www.w3.org/1999/xlink" x="0px" y="0px"
	 viewBox="0 0 43 43" style="enable-background:new 0 0 43 43;" xml:space="preserve">
<style type="text/css">
	.st0{fill:#676767;}
</style>
<g>
	<path class="st0" d="M19.2,42.7c-0.2,0-0.4,0-0.5-0.1l-0.8-0.4c-0.1-0.1-0.3-0.2-0.5-0.4l-0.4-0.3l-0.1-0.3c0,0,0-0.1,0-0.1
		c-0.1-0.2-0.1-0.4-0.1-0.7l0-0.1l0.1-0.8c0-0.1,0-0.2,0-0.3l-0.7-1.6c0,0,0,0-0.2-0.2l-1.6-1.4c0,0-0.1,0-0.1,0
		c-0.5,0-1-0.3-1.2-0.7l-1.1-1.5c-0.1-0.2-0.2-0.4-0.2-0.5c0-0.1,0-0.1-0.1-0.2l-0.1-0.1l-0.3-1.3c0,0,0-0.1,0-0.2
		c0-0.2-0.1-0.4-0.1-0.5v-1l-0.7-0.6c-0.5-0.2-0.6-0.8-0.6-1.3l0.1-0.6c0-0.2,0.1-0.4,0.1-0.5c0,0,0-0.1,0-0.1l0-0.1l0.1-0.8
		c0-0.2,0.1-0.4,0.2-0.5c0,0,0,0,0,0v-0.3l0.3-0.2l-0.2-3.5c0-0.2,0-0.7,0.3-1.1l5.8-10.3c0.1-0.3,0.4-0.6,0.6-0.8l1.4-1.6
		c0,0,0.1-0.1,0.2-0.2L20.2,4c0.1-0.3,0.6-0.7,1-0.8l1.4-0.5c0.3-0.2,0.6-0.3,0.9-0.3l0.7-0.1c0-0.2,0.1-0.6,0.3-0.8l0.1-0.1
		l0.7-0.7l0.3-0.1c0.2-0.1,0.5-0.2,0.8-0.2h0.2c0.5,0,1,0.4,1.2,0.7l0.6,0.7h0.1l0.2,0.1l1.7,0.6c0.4,0.1,0.7,0.3,0.9,0.5L31.2,3
		l0.5,0.8c0.1,0.1,0.2,0.2,0.2,0.3c0.2,0.4,0,0.8,0,1l-0.1,0.2l-0.1,0.2l-1.1,1.1c0,0,0,0.1,0,0.1c0,0.1-0.1,0.2-0.2,0.3l-0.1,0.7
		v0.5l0.1,0.2c0.2,0.4,0.3,0.8,0.3,1l0.1,0.4c0,0.3,0,0.6-0.1,0.9l0,0.1L30,12.1c0,0.1-0.1,0.2-0.2,0.3c0,0.1-0.1,0.1-0.1,0.2l0,0.1
		l-1.3,3.1c0,0,0,0.2,0,0.3c0,0,0,0.1,0,0.2c0,0.2,0,0.4,0,0.6c-0.2,1-1.1,6.4-1.3,6.9l-1,2.8c0,0.1-0.1,0.2-0.1,0.3l0,0.2
		c0,0.2-0.1,0.3-0.1,0.4c0,0.3-0.1,0.6-0.4,1l-1.7,2.8c-0.1,0.3-0.4,0.5-0.6,0.7l-1.2,1.3c0,0.1-0.1,0.2-0.1,0.2
		c0,0-0.1,0.1-0.1,0.1l-1.2,3.1c0,0.1,0,0.2,0,0.4v3.2c0,0.3-0.1,0.5-0.1,0.7c0,0,0,0.1,0,0.1l-0.3,1C19.9,42.5,19.6,42.7,19.2,42.7
		z M18.9,40.8L18.9,40.8L18.9,40.8c0.1-0.1,0.1-0.2,0.1-0.3c0-0.1,0.1-0.2,0.1-0.2v-3.2c0-0.4,0-0.6,0.1-0.9l0-0.1l1.2-3.1
		c0.1-0.2,0.2-0.4,0.3-0.5c0,0,0-0.1,0.1-0.1l0.1-0.2l0.1-0.1l1.5-1.6c0,0,0.1-0.1,0.1-0.1l0.1-0.1l1.8-3c0.1-0.1,0.1-0.1,0.1-0.3
		c0-0.1,0-0.3,0.1-0.5c0-0.3,0.2-0.7,0.3-0.9l0.9-2.6c0.1-0.5,0.9-4.7,1.2-6.7l0-0.1c0,0,0-0.1,0-0.1c0-0.1,0-0.2,0-0.3
		c0-0.3,0-0.7,0.2-1.1l1.1-2.8c0.1-0.2,0.2-0.4,0.2-0.5c0,0,0.1-0.1,0.1-0.1l0.5-1.2c0-0.1,0-0.2,0-0.4L29,9.5c0-0.1,0-0.2,0-0.2
		l-0.1-0.2l-0.3-0.6l0-1l0.3-1.3L29.1,6c0,0,0-0.1,0.1-0.1c0.1-0.1,0.2-0.3,0.3-0.4l0.8-0.9L29.9,4l-1.8-0.6
		c-0.4-0.1-0.9-0.3-1.1-0.7l-0.6-0.7c0,0-0.1,0-0.1,0.1c0,0,0,0,0,0l-0.4,0.4c0,0,0,0.1,0,0.2c0,0.6-0.5,1-0.9,1.2l-0.2,0.1
		l-0.9,0.2c-0.2,0-0.3,0.1-0.5,0.2l-0.1,0l-1.6,0.6L20.2,8c0,0.1-0.3,0.4-0.6,0.7l-1.3,1.5c-0.2,0.2-0.3,0.3-0.3,0.4L12.1,21
		c0,0,0,0.1,0,0.1l0.1,3.3c0.1,0.4,0,0.8-0.3,1.3l-0.1,0.1c0,0,0,0.1-0.1,0.1c0,0,0,0,0,0.1l-0.1,0.8c0,0.2-0.1,0.4-0.1,0.5
		c0,0,0,0.1,0,0.1l0,0.5l0.7,0.6c0.3,0.2,0.6,0.5,0.6,1.2v1.2c0,0,0,0.1,0,0.2c0,0.1,0,0.2,0.1,0.3l0.3,1c0,0.1,0.1,0.2,0.1,0.3
		c0,0.1,0,0.1,0.1,0.2l1.1,1.6c0.5,0,0.8,0.2,1.1,0.5l1.5,1.3c0.3,0.3,0.6,0.6,0.7,0.9l0.7,1.6c0.1,0.3,0.1,0.6,0.1,0.9l0,0.1
		l-0.1,0.8c0,0,0,0.1,0,0.1l0.1,0.1l0.1,0.1c0,0,0.1,0,0.1,0.1C18.7,40.7,18.8,40.8,18.9,40.8z M14.4,34.3L14.4,34.3
		C14.4,34.3,14.4,34.3,14.4,34.3z M14.2,34.2C14.2,34.2,14.2,34.2,14.2,34.2C14.2,34.2,14.2,34.2,14.2,34.2z M30.6,6.6L30.6,6.6
		C30.6,6.6,30.6,6.6,30.6,6.6z M21.7,4.7L21.7,4.7C21.7,4.7,21.7,4.7,21.7,4.7C21.7,4.7,21.7,4.7,21.7,4.7z M21.7,4.6l-0.1,0.1
		C21.7,4.7,21.7,4.6,21.7,4.6z M26.4,1.9C26.4,1.9,26.4,1.9,26.4,1.9L26.4,1.9z"/>
</g>
</svg>
