<?xml version="1.0" encoding="utf-8"?>
<!-- Generator: Adobe Illustrator 23.0.5, SVG Export Plug-In . SVG Version: 6.00 Build 0)  -->
<svg version="1.1" id="Capa_1" xmlns="http://www.w3.org/2000/svg" xmlns:xlink="http://www.w3.org/1999/xlink" x="0px" y="0px"
	 viewBox="0 0 463 463" style="enable-background:new 0 0 463 463;" xml:space="preserve"  width="40px" height="40px">>
<style type="text/css">
	.st0{fill:#676767;}
	.st1{fill:none;stroke:#676767;stroke-width:13;stroke-miterlimit:10;}
	.st2{fill:none;}
</style>
<path class="st0" d="M212.4,195.2c-3.7,1.9-5.1,6.5-3.1,10.1c1.9,3.7,6.5,5.1,10.1,3.1c11.9-6.3,26.8-1.8,33.1,10.2
	c1.9,3.7,6.5,5.1,10.1,3.1c3.7-1.9,5.1-6.5,3.1-10.1C255.6,192.4,231.6,185,212.4,195.2z"/>
<circle class="st1" cx="346.5" cy="93.5" r="26.5"/>
<circle class="st2" cx="231.5" cy="231.5" r="56.5"/>
<circle class="st2" cx="74.2" cy="315.8" r="24.5"/>
<circle class="st2" cx="266.2" cy="388.8" r="16.5"/>
<path class="st2" d="M287.4,275.9c1.9-2.3,3-3.9,3.6-4.9c-0.5,0.7-0.9,1.4-1.4,2.1C288.9,274.1,288.2,275,287.4,275.9z"/>
<circle class="st2" cx="119.5" cy="119.5" r="16.5"/>
<path class="st0" d="M287.4,275.9c0.7-0.9,1.5-1.8,2.1-2.8c0.5-0.7,1-1.4,1.4-2.1c0.4-0.8,0.6-1.1,0.6-1.1l0.1,0
	c7.1-11.1,11.3-24.3,11.3-38.4c0-17-6-32.7-15.9-44.9L347,114h-19.2l-51.3,61.9c-12.3-10-27.9-15.9-44.9-15.9
	c-17,0-32.7,6-44.9,15.9l-40.1-40.1c2.9-4.8,4.6-10.4,4.6-16.3c0-17.4-14.1-31.5-31.5-31.5S88,102.1,88,119.5s14.1,31.5,31.5,31.5
	c6,0,11.6-1.7,16.3-4.6l40.1,40.1c-10,12.3-15.9,27.9-15.9,44.9c0,9.7,1.9,18.9,5.4,27.3l-60.8,32c-7.3-8.8-18.2-14.4-30.5-14.4
	c-21.8,0-39.5,17.7-39.5,39.5c0,21.8,17.7,39.5,39.5,39.5s39.5-17.7,39.5-39.5c0-4.1-0.6-8.1-1.8-11.9l60.8-32
	c12.9,18.7,34.5,31.1,58.9,31.1c2.7,0,5.4-0.2,8.1-0.5l12.7,58c-10.4,5.2-17.5,15.9-17.5,28.2c0,17.4,14.1,31.5,31.5,31.5
	s31.5-14.1,31.5-31.5c0-17.1-13.8-31.1-30.8-31.5l-12.7-58.1c7.5-2.5,14.4-6.2,20.5-10.9C280.9,283.1,284.9,279,287.4,275.9z
	 M119.5,136c-9.1,0-16.5-7.4-16.5-16.5s7.4-16.5,16.5-16.5s16.5,7.4,16.5,16.5C136,128.6,128.6,136,119.5,136z M74.2,340.3
	c-13.5,0-24.5-11-24.5-24.5c0-13.5,11-24.5,24.5-24.5c13.5,0,24.5,11,24.5,24.5C98.7,329.3,87.7,340.3,74.2,340.3z M266.2,372.3
	c9.1,0,16.5,7.4,16.5,16.5c0,9.1-7.4,16.5-16.5,16.5c-9.1,0-16.5-7.4-16.5-16.5C249.7,379.7,257.1,372.3,266.2,372.3z M231.5,288
	c-31.2,0-56.5-25.3-56.5-56.5s25.3-56.5,56.5-56.5s56.5,25.3,56.5,56.5S262.7,288,231.5,288z"/>
<path d="M291,271c0.2-0.4,0.5-0.7,0.7-1.1l-0.1,0C291.6,269.9,291.5,270.3,291,271z"/>
<path class="st0" d="M290.3,248.8l70.5,24c-0.7,5.5,0,11.3,2.4,16.8c7,15.9,25.7,23.1,41.6,16c15.9-7,23.1-25.7,16-41.6
	c-7-15.9-25.7-23.1-41.6-16c-5.5,2.4-9.9,6.2-13.1,10.8l-70.5-24c-0.3-0.1-0.6-0.2-0.9-0.3c0.1-0.2,0.1-0.5,0.2-0.7
	c-1.1,3.8-3.1,9.2-6.6,16.5c0.4-0.6,0.7-1.3,1-1.9C289.7,248.5,290,248.7,290.3,248.8z M385.3,261.7c8.3-3.7,18.1,0.1,21.8,8.4
	c3.7,8.3-0.1,18.1-8.4,21.8c-8.3,3.7-18.1-0.1-21.8-8.4C373.2,275.1,377,265.4,385.3,261.7z"/>
</svg>
