<?xml version="1.0" encoding="utf-8"?>
<!-- Generator: Adobe Illustrator 23.0.5, SVG Export Plug-In . SVG Version: 6.00 Build 0)  -->
<svg version="1.1" id="圖層_1" xmlns="http://www.w3.org/2000/svg" xmlns:xlink="http://www.w3.org/1999/xlink" x="0px" y="0px"
	 viewBox="0 0 206 246.3" style="enable-background:new 0 0 206 246.3;" xml:space="preserve"  width="40px" height="40px">>
<style type="text/css">
	.st0{fill:none;stroke:#676767;stroke-width:8;stroke-miterlimit:10;}
	.st1{fill:none;stroke:#676767;stroke-width:8;stroke-linecap:round;stroke-linejoin:round;stroke-miterlimit:10;}
	.st2{fill:none;stroke:#676767;stroke-width:8;stroke-linecap:round;stroke-miterlimit:10;}
</style>
<path class="st0" d="M4.4,113.6c0,0-10-94,73-108c0,0,141.9-25,122.9,123c-2.2,17.3-10.3,45.4-18,61c-18.6,38-56,65-105,47
	c-39.5-14.5-56.2-49.7-66.1-88.3C8.2,136.9,6,125.3,4.4,113.6z"/>
<ellipse class="st0" cx="60.1" cy="98.9" rx="25" ry="18.7"/>
<ellipse class="st0" cx="104" cy="185.1" rx="33" ry="16.5"/>
<ellipse class="st0" cx="142.1" cy="94.3" rx="25" ry="18.7"/>
<path class="st1" d="M84.1,137.8c6.2,14.9,30.2,14.7,37,0.6"/>
<path class="st2" d="M19.7,42.9c0,0-1.5,10.7,16.5,15.7"/>
<path class="st2" d="M186.1,42.9c0,0,1.5,10.7-16.5,15.7"/>
<path class="st2" d="M36.3,207.5c1.3-3.6,5-8.7,15.9-11.7"/>
<path class="st2" d="M172.3,205.1c-2-3.2-6.2-6.8-14.7-9.2"/>
</svg>
