<?xml version="1.0" encoding="utf-8"?>
<!-- Generator: Adobe Illustrator 23.0.5, SVG Export Plug-In . SVG Version: 6.00 Build 0)  -->
<svg version="1.1" id="圖層_1" xmlns="http://www.w3.org/2000/svg" xmlns:xlink="http://www.w3.org/1999/xlink" x="0px" y="0px"
	 viewBox="0 0 40 40" style="enable-background:new 0 0 40 40;" xml:space="preserve">
<style type="text/css">
	.st0{fill:#676767;}
</style>
<g>
	<path class="st0" d="M21,35c-4.3,0-8.1-2.7-9.3-6.9c-2.1-6.7,1.8-11.8,5.9-17.2c0.9-1.2,1.8-2.4,2.7-3.7L20.5,7l0.6-0.6l0.5,0.7
		C22.3,8,23,8.9,23.7,9.8c4.5,5.8,8.8,11.2,6.7,18.2c-1.3,4-4.8,6.7-8.9,6.9l0,0C21.4,35,21.2,35,21,35z M21.1,8.9
		c-0.7,1-1.5,2-2.2,2.9c-4,5.3-7.5,9.9-5.7,15.8c1,3.3,4,5.6,7.5,5.7l0-0.1c3.7,0.3,7.1-2.1,8.3-5.7c1.9-6.2-2.2-11.4-6.4-16.8
		C22,10.2,21.5,9.5,21.1,8.9z"/>
</g>
<g>
	<path class="st0" d="M33.1,8.4h-4.5c-0.2,0-0.4-0.2-0.4-0.4s0.2-0.4,0.4-0.4h4.5c0.2,0,0.4,0.2,0.4,0.4S33.3,8.4,33.1,8.4z"/>
</g>
<g>
	<path class="st0" d="M30.8,10.6c-0.2,0-0.4-0.2-0.4-0.4V5.7c0-0.2,0.2-0.4,0.4-0.4c0.2,0,0.4,0.2,0.4,0.4v4.5
		C31.2,10.4,31.1,10.6,30.8,10.6z"/>
</g>
<g>
	<path class="st0" d="M35.6,30H33c-0.2,0-0.4-0.2-0.4-0.4c0-0.2,0.2-0.4,0.4-0.4h2.6c0.2,0,0.4,0.2,0.4,0.4C36,29.9,35.8,30,35.6,30
		z"/>
</g>
<g>
	<path class="st0" d="M34.3,31.4c-0.2,0-0.4-0.2-0.4-0.4v-2.6c0-0.2,0.2-0.4,0.4-0.4c0.2,0,0.4,0.2,0.4,0.4V31
		C34.7,31.2,34.5,31.4,34.3,31.4z"/>
</g>
<g>
	<path class="st0" d="M9,24.3H4.4c-0.2,0-0.4-0.2-0.4-0.4s0.2-0.4,0.4-0.4H9c0.2,0,0.4,0.2,0.4,0.4S9.2,24.3,9,24.3z"/>
</g>
<g>
	<path class="st0" d="M6.7,26.5c-0.2,0-0.4-0.2-0.4-0.4v-4.6c0-0.2,0.2-0.4,0.4-0.4c0.2,0,0.4,0.2,0.4,0.4v4.6
		C7.1,26.3,6.9,26.5,6.7,26.5z"/>
</g>
<g>
	<path class="st0" d="M18.3,30c-0.1,0-0.3,0-0.4-0.1c-2.7-1.6-2.5-4.7-2.5-4.8c0-0.4,0.4-0.8,0.8-0.7c0.4,0,0.7,0.4,0.7,0.8l0,0
		c0,0.1-0.2,2.2,1.7,3.3c0.4,0.2,0.5,0.7,0.3,1.1C18.8,29.8,18.5,30,18.3,30z"/>
</g>
</svg>
