<?xml version="1.0" encoding="utf-8"?>
<!-- Generator: Adobe Illustrator 15.1.0, SVG Export Plug-In . SVG Version: 6.00 Build 0)  -->
<!DOCTYPE svg PUBLIC "-//W3C//DTD SVG 1.1//EN" "http://www.w3.org/Graphics/SVG/1.1/DTD/svg11.dtd">
<svg version="1.1" id="圖層_1" xmlns="http://www.w3.org/2000/svg" xmlns:xlink="http://www.w3.org/1999/xlink" x="0px" y="0px"
	 width="79.462px" height="9.91px" viewBox="0 0 79.462 9.91" enable-background="new 0 0 79.462 9.91" xml:space="preserve">
<polygon fill="#EB0029" points="12.586,0.168 20.754,0.168 20.754,2.274 15.641,2.274 15.641,3.843 20.384,3.843 20.384,5.854 
	15.641,5.854 15.641,7.798 20.901,7.798 20.901,10.032 12.586,10.032 "/>
<polygon fill="#EB0029" points="22.564,0.168 25.411,0.168 29.125,5.626 29.125,0.168 31.998,0.168 31.998,10.032 29.125,10.032 
	25.431,4.617 25.431,10.032 22.564,10.032 "/>
<path fill="#EB0029" d="M38.982,6.46V4.408h4.71v4.205c-0.901,0.615-1.699,1.033-2.393,1.255c-0.692,0.222-1.515,0.333-2.466,0.333
	c-1.171,0-2.125-0.199-2.863-0.599c-0.737-0.399-1.31-0.994-1.716-1.783c-0.406-0.79-0.608-1.695-0.608-2.718
	c0-1.077,0.222-2.014,0.666-2.809c0.444-0.797,1.095-1.401,1.951-1.814C36.932,0.16,37.831,0,38.961,0
	c1.091,0,1.906,0.099,2.447,0.296c0.54,0.198,0.988,0.504,1.345,0.919c0.357,0.415,0.625,0.941,0.805,1.578l-2.94,0.524
	c-0.121-0.372-0.326-0.657-0.615-0.854c-0.291-0.197-0.659-0.296-1.107-0.296c-0.668,0-1.201,0.232-1.599,0.696
	c-0.396,0.465-0.595,1.199-0.595,2.204c0,1.068,0.2,1.83,0.603,2.288c0.401,0.457,0.961,0.686,1.679,0.686
	c0.341,0,0.666-0.049,0.976-0.148s0.663-0.267,1.063-0.505V6.46H38.982z"/>
<polygon fill="#EB0029" points="45.503,0.168 48.551,0.168 48.551,7.604 53.308,7.604 53.308,10.032 45.503,10.032 "/>
<rect x="54.815" y="0.169" fill="#EB0029" width="3.055" height="9.864"/>
<path fill="#EB0029" d="M59.525,6.769l2.899-0.182c0.063,0.472,0.191,0.83,0.385,1.077c0.313,0.399,0.762,0.599,1.346,0.599
	c0.434,0,0.77-0.102,1.006-0.306c0.235-0.204,0.354-0.441,0.354-0.71c0-0.256-0.112-0.484-0.337-0.686
	c-0.225-0.202-0.745-0.393-1.562-0.572c-1.336-0.301-2.29-0.7-2.859-1.198c-0.574-0.498-0.861-1.133-0.861-1.904
	c0-0.507,0.147-0.986,0.44-1.437s0.736-0.805,1.326-1.063C62.252,0.129,63.061,0,64.087,0c1.262,0,2.223,0.235,2.884,0.703
	c0.661,0.469,1.056,1.215,1.181,2.237l-2.873,0.169c-0.076-0.444-0.236-0.767-0.48-0.969c-0.245-0.202-0.582-0.303-1.013-0.303
	c-0.354,0-0.622,0.075-0.801,0.225c-0.18,0.151-0.271,0.333-0.271,0.549c0,0.157,0.075,0.298,0.224,0.424
	c0.144,0.13,0.483,0.251,1.022,0.363c1.332,0.288,2.286,0.578,2.863,0.871c0.576,0.294,0.995,0.659,1.258,1.094
	c0.263,0.435,0.394,0.922,0.394,1.46c0,0.633-0.175,1.216-0.524,1.75c-0.351,0.533-0.839,0.938-1.467,1.214s-1.42,0.414-2.376,0.414
	c-1.678,0-2.839-0.323-3.485-0.969C59.977,8.586,59.61,7.765,59.525,6.769"/>
<polygon fill="#EB0029" points="70.021,0.168 73.07,0.168 73.07,3.621 76.4,3.621 76.4,0.168 79.462,0.168 79.462,10.032 
	76.4,10.032 76.4,6.042 73.07,6.042 73.07,10.032 70.021,10.032 "/>
<polygon fill="#EB0029" points="0,0 8.583,4.955 0,9.91 "/>
</svg>
