<?xml version="1.0" encoding="utf-8"?>
<!-- Generator: Adobe Illustrator 15.1.0, SVG Export Plug-In . SVG Version: 6.00 Build 0)  -->
<!DOCTYPE svg PUBLIC "-//W3C//DTD SVG 1.1//EN" "http://www.w3.org/Graphics/SVG/1.1/DTD/svg11.dtd">
<svg version="1.1" id="圖層_1" xmlns="http://www.w3.org/2000/svg" xmlns:xlink="http://www.w3.org/1999/xlink" x="0px" y="0px"
	 width="295.605px" height="82.797px" viewBox="0 0 295.605 82.797" enable-background="new 0 0 295.605 82.797"
	 xml:space="preserve">
<g>
	<path fill="#FDD000" d="M181.35,18.456c6.188,1.537,11.7-1.387,11.7-1.387c-1.791-0.59-1.972-1.889-1.972-1.889
		c-1.81-6.551-6.097-7.992-6.097-7.992c-2.886-1.713-6.617-0.769-8.33,2.117c-1.718,2.881-0.761,6.607,2.123,8.328
		C179.582,18.112,180.47,18.382,181.35,18.456z"/>
	<path fill="#FDD000" d="M198.306,9.245c-0.859,3.284-3.629,5.111-3.629,5.111c0.181-0.985-0.382-1.4-0.382-1.4
		c-2.597-2.515-2.171-4.881-2.171-4.881c-0.063-1.782,1.318-3.278,3.104-3.35c1.784-0.061,3.281,1.329,3.343,3.11
		C198.589,8.339,198.485,8.817,198.306,9.245z"/>
	<path fill="#D0121B" d="M102.154,19.701c0-1.1,0-1.329-0.481-1.329h-1.28c-1.509,0-1.939,1.833-2.56,5.179
		c-0.245,0.275-0.634,0.186-0.761-0.415c0.438-3.161,0.537-5.984,0.672-7.753c0.089-0.143,0.191-0.229,0.298-0.229
		c0.109,0,0.211,0.046,0.283,0.183c0.107,0.779,0.175,0.96,1.736,0.96h7.643c1.356,0,1.667-0.049,1.853-1.006
		c0.079-0.091,0.14-0.137,0.267-0.137c0.122,0,0.265,0.183,0.308,0.321c-0.206,1.545-0.354,5.233-0.308,7.85
		c-0.109,0.412-0.659,0.501-0.764,0.135c-0.349-2.938-0.641-5.088-2.184-5.088h-1.227c-0.501,0-0.56,0.132-0.56,1.329v20.23
		c0,4.261,0.125,4.591,1.046,4.907l0.827,0.229c0.143,0.28,0.143,1.344,0,1.624c-1.349-0.097-2.37-0.148-3.286-0.148
		c-0.985,0-2.052,0.051-3.497,0.148c-0.158-0.28-0.158-1.344,0-1.624l0.926-0.229c0.929-0.316,1.049-0.646,1.049-4.907V19.701z"/>
	<path fill="#D0121B" d="M201.356,21.788c0-1.42,0.021-2.291,0.143-2.663c0.124-0.361,0.509-0.598,1.071-0.598
		c3.729,0,5.679,4.917,5.679,13.182c0,6.243-1.217,13.317-4.777,13.317c-0.741,0-1.339-0.412-1.706-1.333
		c-0.369-0.962-0.409-2.617-0.409-5.14V21.788z M198.426,40.252c0,4.22-0.125,4.546-1.052,4.912l-0.636,0.224
		c-0.165,0.219-0.165,1.303,0,1.568c1.173-0.092,2.217-0.132,3.202-0.132c0.738,0,1.761,0.275,2.723,0.275
		c2.131,0,3.813-0.585,5.216-2.118c2.364-2.617,3.688-7.581,3.688-13.73c0-5.742-1.491-11.158-4.182-13.309
		c-1.415-1.125-3.11-1.476-4.798-1.476c-2.171,0-3.774,0.175-5.503,0.399c-0.246,0.046-0.246,1.349-0.04,1.573l0.395,0.089
		c0.944,0.236,0.987,1.104,0.987,5.467V40.252z"/>
	<path fill="#D0121B" d="M115.969,39.753c-0.517,0-0.639-0.076-0.433-0.744l0.511-1.866c0.311-1.143,0.644-2.184,0.84-2.728
		c0.191,0.519,0.458,1.535,0.743,2.606l0.542,2.014c0.186,0.643,0.059,0.719-0.407,0.719H115.969z M117.86,41.082
		c0.721,0,0.894,0.056,0.988,0.453l0.56,2.138c0.242,0.916,0.389,1.517,0.389,1.695c0,0.147-0.082,0.321-0.552,0.417l-0.664,0.127
		c-0.222,0.204-0.191,0.733,0.036,0.876c0.952-0.046,1.756-0.077,2.79-0.077c1.066,0,2.181,0.031,3.168,0.077
		c0.186-0.143,0.138-0.753,0.018-0.876l-0.779-0.152c-0.764-0.173-0.947-0.718-1.385-2.214l-2.8-9.757
		c-0.514-1.759-0.758-2.683-0.924-3.4c-0.089-0.369-0.208-0.496-0.473-0.496c-0.041,0-0.807,1.214-1.79,1.489
		c0.061,0.72-0.305,1.593-0.796,3.156l-1.853,6.072c-0.56,1.797-0.911,2.988-1.28,3.98c-0.333,0.972-0.769,1.171-1.26,1.247
		l-0.552,0.076c-0.15,0.204-0.171,0.733,0.056,0.876c0.947,0,1.423-0.077,2.125-0.077c0.86,0.026,1.682,0.031,2.405,0.077
		c0.206-0.122,0.165-0.697,0.043-0.876l-0.616-0.127c-0.583-0.122-0.743-0.27-0.743-0.417c0-0.204,0.025-0.402,0.137-0.896
		l0.764-2.886c0.127-0.479,0.193-0.504,0.682-0.504H117.86z"/>
	<path fill="#D0121B" d="M131.355,43.072c0,2.336,0.125,2.515,1.082,2.713l0.581,0.127c0.163,0.153,0.14,0.733-0.018,0.876
		c-1.13-0.046-2.143-0.077-3.095-0.077c-0.99,0-2.021,0.031-3.125,0.077c-0.163-0.143-0.163-0.723,0-0.876l0.575-0.127
		c0.944-0.199,1.066-0.377,1.066-2.713v-9.159c0-2.337-0.123-2.512-1.066-2.713l-0.575-0.125c-0.163-0.146-0.163-0.726,0-0.876
		c1.104,0.049,2.135,0.077,3.125,0.077c0.952,0,1.991-0.028,3.113-0.084c0.163,0.158,0.163,0.738,0,0.883l-0.581,0.125
		c-0.957,0.201-1.082,0.376-1.082,2.713V43.072z"/>
	<path fill="#D0121B" d="M155.929,31.235c-0.477,0.153-0.695,0.326-0.84,0.552c-0.232,0.4-0.599,1.194-1.133,2.759
		c-1.028,2.919-3.329,9.11-4.343,12.353c-0.122,0.127-0.412,0.199-0.682,0.199c-0.224,0-0.405-0.071-0.55-0.199
		c-0.234-0.596-0.517-1.497-0.786-2.194l-0.868-2.362c-0.282-0.794-0.555-1.547-0.73-1.919c-0.191,0.423-0.433,1.023-0.703,1.716
		l-0.972,2.54c-0.333,0.804-0.527,1.522-0.855,2.347c-0.109,0.122-0.374,0.198-0.685,0.198c-0.229,0-0.346-0.076-0.532-0.198
		c-0.333-1.049-1.157-3.289-1.857-5.157l-3.375-8.91c-0.529-1.499-0.669-1.644-1.359-1.776l-0.501-0.122
		c-0.17-0.245-0.153-0.743,0.079-0.871c0.761,0.051,1.619,0.086,2.665,0.086c0.914,0,1.716-0.036,2.492-0.086
		c0.168,0.102,0.249,0.723,0.041,0.871l-0.367,0.076c-0.366,0.076-0.519,0.199-0.519,0.372c0,0.178,0.422,1.344,1.074,3.09
		l2.039,5.504c0.578,1.542,0.781,2.066,1.025,2.662c0.247-0.55,0.573-1.298,0.99-2.418l0.272-0.724
		c0.138-0.395,0.268-0.937,0.268-1.089c0-0.153-0.046-0.428-0.13-0.669l-1.973-5.258c-0.474-1.24-0.618-1.393-1.397-1.515
		l-0.203-0.03c-0.217-0.199-0.168-0.769,0.059-0.871c0.878,0.051,1.682,0.086,2.588,0.086c1.057,0,1.838-0.036,2.367-0.086
		c0.252,0.076,0.231,0.749,0.084,0.871l-0.354,0.099c-0.239,0.053-0.553,0.176-0.553,0.349c0,0.199,0.102,0.476,0.184,0.751
		l0.618,1.718c0.188,0.52,0.392,1.069,0.575,1.517c0.211-0.524,0.415-1.023,0.619-1.568l0.186-0.501
		c0.369-0.944,0.56-1.692,0.56-1.84c0-0.171-0.087-0.25-0.412-0.352l-0.621-0.173c-0.143-0.173-0.12-0.743,0.062-0.871
		c0.601,0.051,1.344,0.086,2.018,0.086c0.807,0,1.563-0.036,2.098-0.086c0.165,0.127,0.203,0.723,0.022,0.901l-0.572,0.143
		c-0.71,0.181-0.848,0.275-1.565,1.771c-0.496,1.023-1.011,2.166-1.277,2.815c-0.191,0.446-0.445,1.171-0.445,1.295
		c0,0.074,0.01,0.222,0.155,0.619l0.97,2.516c0.485,1.395,0.783,2.092,0.9,2.443c0.99-2.892,1.957-5.978,2.945-9.017
		c0.14-0.417,0.555-1.843,0.555-2.118c0-0.173-0.127-0.275-0.395-0.346l-0.453-0.152c-0.163-0.224-0.122-0.743,0.068-0.871
		c0.652,0.051,1.477,0.086,2.093,0.086c0.723,0,1.323-0.036,1.896-0.086c0.187,0.127,0.212,0.672,0.066,0.871L155.929,31.235z"/>
	<path fill="#D0121B" d="M159.879,39.753c-0.515,0-0.645-0.076-0.436-0.744l0.514-1.866c0.306-1.143,0.634-2.184,0.848-2.728
		c0.181,0.519,0.448,1.535,0.735,2.606l0.543,2.014c0.178,0.643,0.059,0.719-0.418,0.719H159.879z M161.767,41.082
		c0.724,0,0.894,0.056,0.988,0.453l0.557,2.138c0.245,0.916,0.395,1.517,0.395,1.695c0,0.147-0.081,0.321-0.557,0.417l-0.659,0.127
		c-0.229,0.204-0.188,0.733,0.04,0.876c0.947-0.046,1.746-0.077,2.787-0.077c1.059,0,2.177,0.031,3.166,0.077
		c0.188-0.143,0.146-0.753,0.016-0.876l-0.778-0.152c-0.762-0.173-0.95-0.718-1.385-2.214l-2.795-9.757
		c-0.52-1.759-0.756-2.683-0.929-3.4c-0.082-0.369-0.209-0.496-0.471-0.496c-0.041,0-0.802,1.214-1.792,1.489
		c0.063,0.72-0.315,1.593-0.81,3.156l-1.851,6.072c-0.555,1.797-0.898,2.988-1.275,3.98c-0.323,0.972-0.761,1.171-1.257,1.247
		l-0.555,0.076c-0.146,0.204-0.16,0.733,0.063,0.876c0.949,0,1.425-0.077,2.125-0.077c0.855,0.026,1.68,0.031,2.405,0.077
		c0.211-0.122,0.168-0.697,0.038-0.876l-0.61-0.127c-0.578-0.122-0.741-0.27-0.741-0.417c0-0.204,0.013-0.402,0.143-0.896
		l0.756-2.886c0.125-0.479,0.191-0.504,0.678-0.504H161.767z"/>
	<path fill="#D0121B" d="M183.417,42.486c0,1.624,0,3.202,0.027,4.017c-0.14,0.295-0.72,0.57-1.209,0.57
		c-0.025,0-0.705-1.258-1.672-2.708l-4.777-7.143c-1.163-1.802-1.868-2.825-2.237-3.197c-0.106,0.25-0.106,0.672-0.106,1.599v4.842
		c0,2.021,0.07,3.899,0.313,4.571c0.184,0.524,0.659,0.677,1.191,0.799l0.578,0.102c0.165,0.193,0.119,0.708,0,0.86
		c-1.11-0.051-1.945-0.086-2.76-0.086c-0.761,0-1.534,0.036-2.309,0.086c-0.13-0.152-0.162-0.667,0-0.86l0.352-0.071
		c0.553-0.153,0.944-0.306,1.133-0.83c0.203-0.672,0.287-2.551,0.287-4.571v-6.339c0-1.38,0-1.777-0.149-2.128
		c-0.138-0.423-0.443-0.672-1.169-0.848l-0.583-0.097c-0.137-0.196-0.114-0.787,0.092-0.863c0.965,0.051,1.99,0.086,2.836,0.086
		c0.699,0,1.303-0.036,1.74-0.086c0.193,1.11,1.543,3.003,3.4,5.681l1.733,2.474c0.935,1.295,1.505,2.175,1.978,2.75
		c0.092-0.254,0.092-0.672,0.092-1.125V36.52c0-2.021-0.092-3.895-0.318-4.566c-0.183-0.527-0.644-0.677-1.198-0.802l-0.553-0.097
		c-0.168-0.196-0.119-0.715,0-0.863c1.107,0.051,1.927,0.086,2.762,0.086c0.759,0,1.51-0.036,2.304-0.086
		c0.13,0.147,0.163,0.667,0,0.863l-0.366,0.074c-0.543,0.148-0.927,0.298-1.118,0.825c-0.224,0.672-0.292,2.545-0.292,4.566V42.486z
		"/>
	<path fill="#D0121B" d="M219.705,36.756c0,0.695,0.018,0.751,0.567,0.751h1.425c1.074,0,1.296-0.173,1.522-1.379l0.109-0.626
		c0.14-0.198,0.656-0.198,0.761,0.028c-0.043,0.799-0.066,1.703-0.066,2.649c0,0.957,0.023,1.854,0.066,2.648
		c-0.104,0.229-0.621,0.254-0.761,0.025l-0.109-0.621c-0.227-1.195-0.448-1.394-1.522-1.394h-1.425c-0.55,0-0.567,0.023-0.567,0.771
		v2.964c0,1.145,0.078,1.939,0.32,2.362c0.274,0.453,0.667,0.651,2.166,0.651c1.794,0,2.499-0.076,3.632-2.891
		c0.158-0.27,0.675-0.173,0.759,0.122c-0.084,1.298-0.575,3.309-0.863,3.96c-1.094-0.041-3.069-0.066-4.765-0.066h-2.67
		c-0.982,0-1.993,0.026-3.556,0.066c-0.16-0.143-0.16-0.728,0-0.85l0.982-0.168c0.935-0.153,1.062-0.326,1.062-2.617v-9.317
		c0-2.27-0.127-2.446-1.062-2.642l-0.521-0.127c-0.188-0.137-0.171-0.703,0.046-0.85c0.97,0.048,1.985,0.071,2.976,0.071h4.35
		c1.326,0,2.491-0.023,2.769-0.071c0.021,0.392,0.153,2.171,0.265,3.851c-0.084,0.272-0.549,0.318-0.766,0.094
		c-0.222-0.876-0.512-1.624-0.781-1.973c-0.399-0.476-1.011-0.776-2.016-0.776h-1.662c-0.664,0-0.664,0.051-0.664,0.975V36.756z"/>
	<path fill="#D0121B" d="M233.275,47.099c-1.896,0-3.069-0.637-3.505-0.927c-0.389-0.544-0.656-2.341-0.656-4.037
		c0.147-0.326,0.616-0.351,0.776-0.071c0.415,1.619,1.789,3.91,3.553,3.91c1.538,0,2.237-1.268,2.237-2.515
		c0-2.021-1.578-3.217-2.81-3.967c-1.491-0.896-3.101-2.395-3.123-4.861c0-2.817,1.792-4.739,4.8-4.739
		c0.683,0,1.522,0.092,2.342,0.392c0.268,0.097,0.451,0.143,0.697,0.194c0.163,0.535,0.372,1.888,0.372,3.558
		c-0.1,0.295-0.618,0.321-0.802,0.071c-0.352-1.272-1.225-3.095-2.721-3.095c-1.372,0-2.112,1.079-2.112,2.326
		c0,1.143,0.845,2.188,1.883,2.838l1.369,0.873c1.271,0.824,2.89,2.272,2.89,5.015C238.465,45.128,236.396,47.099,233.275,47.099z"
		/>
	<path fill="#D0121B" d="M245.721,47.099c-1.906,0-3.079-0.637-3.507-0.927c-0.393-0.544-0.665-2.341-0.665-4.037
		c0.15-0.326,0.621-0.351,0.782-0.071c0.417,1.619,1.789,3.91,3.555,3.91c1.54,0,2.232-1.268,2.232-2.515
		c0-2.021-1.57-3.217-2.814-3.967c-1.489-0.896-3.09-2.395-3.118-4.861c0-2.817,1.794-4.739,4.803-4.739
		c0.675,0,1.524,0.092,2.344,0.392c0.265,0.097,0.448,0.143,0.692,0.194c0.163,0.535,0.359,1.888,0.359,3.558
		c-0.097,0.295-0.604,0.321-0.787,0.071c-0.346-1.272-1.231-3.095-2.718-3.095c-1.372,0-2.118,1.079-2.118,2.326
		c0,1.143,0.848,2.188,1.887,2.838l1.366,0.873c1.278,0.824,2.895,2.272,2.895,5.015C250.909,45.128,248.836,47.099,245.721,47.099z
		"/>
	<path fill="#D0121B" d="M258.816,36.756c0,0.695,0.021,0.751,0.573,0.751h1.425c1.062,0,1.304-0.173,1.518-1.379l0.109-0.626
		c0.143-0.198,0.656-0.198,0.758,0.028c-0.032,0.799-0.063,1.703-0.063,2.649c0,0.957,0.031,1.854,0.063,2.648
		c-0.102,0.229-0.615,0.254-0.758,0.025l-0.109-0.621c-0.214-1.195-0.456-1.394-1.518-1.394h-1.425
		c-0.553,0-0.573,0.023-0.573,0.771v2.964c0,1.145,0.077,1.939,0.326,2.362c0.268,0.453,0.662,0.651,2.161,0.651
		c1.794,0,2.502-0.076,3.627-2.891c0.163-0.27,0.682-0.173,0.761,0.122c-0.079,1.298-0.578,3.309-0.862,3.96
		c-1.087-0.041-3.06-0.066-4.765-0.066h-2.663c-0.984,0-1.995,0.026-3.558,0.066c-0.166-0.143-0.166-0.728,0-0.85l0.979-0.168
		c0.932-0.153,1.062-0.326,1.062-2.617v-9.317c0-2.27-0.13-2.446-1.062-2.642l-0.521-0.127c-0.191-0.137-0.171-0.703,0.043-0.85
		c0.975,0.048,1.983,0.071,2.971,0.071h4.365c1.32,0,2.491-0.023,2.764-0.071c0.018,0.392,0.158,2.171,0.27,3.851
		c-0.092,0.272-0.567,0.318-0.769,0.094c-0.227-0.876-0.52-1.624-0.778-1.973c-0.397-0.476-1.011-0.776-2.029-0.776h-1.642
		c-0.68,0-0.68,0.051-0.68,0.975V36.756z"/>
	<path fill="#D0121B" d="M272.937,32.589c0.043-1.196,0.043-1.268,0.876-1.268c1.616,0,2.705,1.446,2.705,3.691
		c0,1.471-0.392,2.268-0.743,2.698c-0.392,0.473-0.824,0.703-1.56,0.703c-1.217,0-1.278-0.082-1.278-0.952V32.589z M270.112,43.107
		c0,2.301-0.122,2.479-1.043,2.678l-0.553,0.127c-0.171,0.123-0.171,0.733,0,0.876c1.063-0.046,1.973-0.077,3.006-0.077
		c0.98,0,1.925,0.031,3.017,0.077c0.145-0.143,0.145-0.753,0-0.876l-0.55-0.127c-0.925-0.199-1.052-0.377-1.052-2.678v-3.069
		c0-0.498,0.043-0.551,0.764-0.551c0.515,0,0.838,0.2,1.084,0.877c0.472,1.324,0.949,2.55,1.609,3.869
		c0.903,1.802,2.1,2.632,3.988,2.632c0.639,0,1.293-0.051,1.629-0.219c0.099-0.158,0.099-0.529-0.087-0.657
		c-0.303-0.025-0.84-0.183-1.374-0.703c-0.99-1.023-1.828-2.896-3.192-6.239c-0.099-0.272-0.099-0.42,0.104-0.542
		c0.944-0.57,2.177-1.522,2.177-3.747c0-1.593-0.614-2.84-1.81-3.683c-0.782-0.568-2.281-0.883-4.029-0.883
		c-1.955,0-3.554,0.102-5.096,0.221c-0.26,0.12-0.26,0.733-0.054,0.86l0.555,0.094c0.868,0.15,0.906,0.422,0.906,2.919V43.107z"/>
	<path fill="#D0121B" d="M287.63,32.126c0-0.601,0-0.723-0.488-0.723h-1.28c-1.502,0-1.93,0.998-2.548,2.82
		c-0.247,0.145-0.634,0.097-0.753-0.224c0.42-1.726,0.521-3.255,0.672-4.215c0.081-0.077,0.183-0.127,0.29-0.127
		c0.104,0,0.203,0.028,0.287,0.1c0.107,0.425,0.158,0.521,1.731,0.521h7.638c1.354,0,1.665-0.023,1.846-0.544
		c0.086-0.048,0.149-0.077,0.274-0.077c0.12,0,0.265,0.1,0.306,0.178c-0.204,0.837-0.347,2.84-0.306,4.258
		c-0.109,0.227-0.664,0.275-0.766,0.082c-0.347-1.596-0.634-2.772-2.185-2.772h-1.231c-0.488,0-0.558,0.071-0.558,0.723v10.992
		c0,2.321,0.127,2.489,1.054,2.667l0.822,0.127c0.14,0.153,0.14,0.733,0,0.876c-1.336-0.046-2.369-0.077-3.278-0.077
		c-0.99,0-2.054,0.031-3.502,0.077c-0.163-0.143-0.163-0.723,0-0.876l0.929-0.127c0.927-0.178,1.046-0.346,1.046-2.667V32.126z"/>
</g>
<g>
	<circle fill="#D0121B" stroke="#FFFFFF" stroke-width="1.184" cx="41.397" cy="41.398" r="41.398"/>
	<g>
		<path fill="#FFFFFF" d="M15.521,39.334c-0.01-0.383,0.044-0.455-0.404-0.5c-0.059,0.013-0.125,0.042-0.124-0.05
			c-0.063-0.025,0.025-0.088,0.106-0.065c0.139-0.035,0.325,0.019,0.516,0.04c0.216-0.038,0.36-0.075,0.497-0.087
			c0.071,0.005,0.166,0.033,0.136,0.144c-0.017,0.063-0.126,0.061-0.178,0.065c-0.371,0.009-0.36,0.109-0.387,0.427
			c0.052,0.013,0,2.846,0.01,2.816c-0.033,0.013,0.008,0.122,0,0.126c-0.09-0.004-0.178-0.067-0.211-0.113
			c-0.025-0.059-2.61-3.039-2.564-3.064c-0.017,0.013,0.012,2.515,0.017,2.481c-0.01,0.386-0.042,0.524,0.369,0.482
			c0.065,0.012,0.161,0.012,0.19,0.054c-0.055,0.039-0.038,0.072-0.151,0.105c-0.174-0.033-0.325-0.063-0.546-0.055
			c-0.188,0.009-0.321,0.034-0.549,0.013c-0.044,0.026-0.105,0.012-0.092-0.05c0.013-0.067,0.082-0.088,0.159-0.055
			c0.453,0.017,0.438-0.092,0.453-0.478c-0.013-0.017-0.049-2.263-0.032-2.242c-0.017-0.381,0-0.507-0.417-0.448
			c-0.041,0-0.152-0.038-0.163-0.104c0-0.078,0.133-0.038,0.138-0.042c0.024-0.037,0.827-0.046,0.813-0.031
			c0.134,0.053,0.191,0.12,0.277,0.174c-0.014,0.017,2.116,2.587,2.114,2.539C15.51,41.421,15.485,39.293,15.521,39.334z"/>
		<path fill="#FFFFFF" d="M19.213,39.32c0.013-0.368,0.034-0.461-0.402-0.448c-0.042-0.004-0.164-0.029-0.155-0.113
			c0.004-0.054,0.061-0.048,0.109-0.087c0.238,0.054,0.47,0.037,0.689,0.069c0.224-0.044,0.475-0.009,0.714-0.053
			c0.048-0.006,0.099,0.029,0.099,0.12c-0.013,0.036-0.118,0.069-0.16,0.031c-0.434-0.003-0.392,0.139-0.408,0.461
			c0.019,0.023,0.011,2.305-0.017,2.259c0.017,0.395-0.015,0.457,0.429,0.495c0.038-0.009,0.164-0.03,0.166,0.092
			c-0.01,0.008-0.078,0.017-0.109,0.004c-0.239,0.063-0.453-0.017-0.689,0.004c-0.237,0.009-0.49,0.038-0.723,0.009
			c-0.048,0-0.081-0.004-0.1-0.042c0.013-0.05,0.09-0.108,0.159-0.066c0.421,0.012,0.398-0.101,0.398-0.499
			C19.199,41.579,19.226,39.284,19.213,39.32z"/>
		<path fill="#FFFFFF" d="M26.189,39.433c0.006,0.013,0.006,0.061-0.031,0.017c-0.166,0.03-0.204-0.67-1.164-0.662
			c-1.071-0.029-1.605,0.817-1.586,1.603c0.019,0.383,0.141,0.79,0.373,1.072c0.278,0.372,0.664,0.594,1.192,0.606
			c0.934,0.004,1.034-0.852,1.162-0.886c0.061,0.02,0.084,0.051,0.093,0.089c0.022,0.006-0.015,0.449-0.038,0.461
			c-0.012,0.164,0.023,0.164-0.159,0.293c-0.377,0.088-0.741,0.164-1.154,0.213c-1.115-0.025-2.007-0.851-2.039-1.835
			c0.061-1.002,1.066-1.783,2.204-1.777c0.251-0.042,0.673,0.033,0.928,0.113c0.226,0.046,0.205,0.125,0.161,0.331
			C26.175,39.072,26.196,39.433,26.189,39.433z"/>
		<path fill="#FFFFFF" d="M29.843,39.963c-0.031,0.24,0.067,0.245,0.319,0.232c0.165-0.019,0.492,0.036,0.73,0.008
			c0.122-0.059,0.197-0.226,0.212-0.381c0.008-0.05,0.012-0.138,0.085-0.081c0-0.057,0.048-0.028,0.076-0.002
			c-0.028,0.176-0.023,0.367-0.065,0.532c0.051,0.163,0.046,0.281,0.046,0.524c0.012,0.061-0.061,0.083-0.092,0.067
			c-0.048,0.017-0.052-0.055-0.071-0.086c-0.042-0.148-0.056-0.363-0.218-0.329c-0.213-0.063-0.559-0.076-0.727-0.072
			c-0.27-0.017-0.295-0.04-0.337,0.145c0.032,0.055,0.032,1.018,0.017,0.963c-0.006,0.531,0.281,0.531,0.798,0.565
			c0.523-0.008,0.859-0.055,1.077-0.511c0.006-0.05,0.021-0.194,0.125-0.194c0.028,0.025,0.015,0.013,0.028,0.034
			c0.025,0.096-0.017,0.096,0.012,0.161c0,0-0.125,0.591-0.088,0.599c-0.036,0.008-0.048,0.038-0.113-0.008
			c0,0.012-2.42,0.024-2.41,0.063c-0.094-0.017-0.215-0.017-0.387,0.021c0-0.013-0.079-0.021-0.086-0.122
			c0.029-0.042,0.082-0.088,0.166-0.033c0.455-0.026,0.397-0.109,0.387-0.47c0.039,0-0.004-2.268,0.029-2.289
			c-0.022-0.314,0.034-0.465-0.417-0.452c-0.069-0.017-0.161-0.017-0.129-0.088c-0.025,0.004,0.027-0.05,0.102-0.063
			c0.373,0,0.767,0.022,1.131,0.052c0.5-0.001,1.081-0.029,1.557-0.035c0.162,0.013,0.122,0.118,0.117,0.187
			c-0.018,0.036-0.029,0.488-0.003,0.458c-0.026,0.072,0.029,0.114-0.099,0.137c0-0.021-0.048-0.069-0.065-0.125
			c0.012,0.025-0.09-0.13-0.123-0.162c-0.042-0.143-0.126-0.209-0.357-0.272c-0.172-0.051-0.474-0.078-0.645-0.076
			c-0.115,0.013-0.402-0.017-0.481,0.013c-0.12,0.054-0.137,0.17-0.101,0.247C29.847,39.14,29.801,39.944,29.843,39.963z"/>
		<path fill="#FFFFFF" d="M41.568,39.433c0.013,0.034-0.04,0.08-0.067,0.021c-0.168,0.006-0.205-0.675-1.142-0.696
			c-1.058,0.036-1.59,0.838-1.544,1.655c-0.046,0.348,0.126,0.763,0.337,1.102c0.289,0.303,0.708,0.567,1.213,0.571
			c0.94-0.029,1.005-0.868,1.206-0.847c0.009-0.025,0.031,0,0.052,0.035c-0.043-0.001-0.08,0.431-0.071,0.448
			c0.046,0.146-0.008,0.192-0.192,0.289c-0.344,0.129-0.681,0.205-1.085,0.209c-1.129,0.021-1.999-0.864-2.033-1.832
			c0-0.976,1.019-1.743,2.154-1.781c0.291-0.021,0.716,0.059,0.981,0.151c0.134,0.084,0.166,0.122,0.154,0.287
			C41.565,39.081,41.544,39.387,41.568,39.433z"/>
		<path fill="#FFFFFF" d="M45.194,41.579c0.002,0.385-0.057,0.448,0.4,0.465c0.064-0.004,0.19,0.021,0.136,0.088
			c0.036,0.012-0.006,0.046-0.054,0.037c-0.269,0.021-0.503-0.012-0.731-0.041c-0.235,0.021-0.486,0.063-0.657,0.046
			c-0.107-0.021-0.116,0.021-0.164-0.042c0.048-0.072,0.108-0.088,0.209-0.118c0.417,0.029,0.369-0.088,0.354-0.423
			c0.012,0.012,0.015-2.255,0.006-2.318c0.001-0.319,0.08-0.438-0.364-0.411c-0.057,0.008-0.158-0.021-0.158-0.113
			c-0.031-0.055,0.061-0.067,0.13-0.074c0.164,0.028,0.423,0.032,0.635,0.03c0.219,0.048,0.485,0.019,0.731-0.025
			c0.085,0.019,0.063,0.025,0.085,0.071c0.008,0.104-0.125,0.137-0.122,0.107c-0.476-0.038-0.392,0.071-0.463,0.478
			c0.013-0.034,0.029,0.695,0.004,0.661c0.069,0.26,0.012,0.235,0.202,0.239c0.059-0.034,1.797,0.004,1.797-0.042
			c0.215,0.015,0.162,0.038,0.222-0.203c0.003,0.046-0.019-0.714-0.046-0.706c-0.008-0.344,0.057-0.398-0.36-0.47
			c-0.124,0.059-0.214,0.034-0.182-0.045c-0.014-0.065,0.033-0.076,0.111-0.046c0.183-0.007,0.423,0.029,0.7,0.033
			c0.241-0.063,0.446-0.054,0.688-0.075c0.053-0.007,0.099,0,0.086,0.108c-0.009,0.055-0.082,0.063-0.149,0.034
			c-0.417,0.015-0.366,0.117-0.4,0.52c0.042-0.008,0.025,2.218-0.029,2.212c0.031,0.353,0.013,0.491,0.467,0.47
			c0.04,0.03,0.148,0.021,0.111,0.08c0.042,0.033-0.075,0.055-0.061,0.084c-0.275-0.038-0.518-0.063-0.714-0.026
			c-0.253,0.009-0.465,0.038-0.738,0.009c0,0.034-0.042,0.021-0.05-0.038c-0.055-0.122,0.036-0.096,0.13-0.067
			c0.398-0.025,0.429-0.113,0.417-0.457c0.019-0.046-0.019-0.99,0.004-1.007c-0.027-0.209-0.04-0.209-0.256-0.188
			c0.015-0.029-1.701-0.046-1.722-0.034c-0.188-0.012-0.181-0.008-0.218,0.234C45.177,40.564,45.202,41.587,45.194,41.579z"/>
		<path fill="#FFFFFF" d="M53.154,38.586c1.14,0.01,2.128,0.742,2.122,1.827c0.025,1.077-0.947,1.849-2.17,1.841
			c-1.13-0.034-2.109-0.814-2.12-1.828C50.94,39.378,52.052,38.635,53.154,38.586z M54.277,39.274
			c-0.25-0.339-0.681-0.486-1.154-0.541c-0.494,0.009-0.924,0.206-1.215,0.578c-0.291,0.281-0.39,0.742-0.381,1.106
			c-0.029,0.385,0.111,0.84,0.44,1.179c0.295,0.302,0.721,0.49,1.177,0.494c0.469-0.021,0.859-0.222,1.202-0.552
			c0.281-0.32,0.392-0.685,0.358-1.099C54.686,39.974,54.631,39.609,54.277,39.274z"/>
		<path fill="#FFFFFF" d="M58.439,39.278c-0.023-0.343,0.017-0.4-0.4-0.406c-0.084-0.046-0.172-0.042-0.174-0.075
			c0.016-0.044,0.042-0.071,0.125-0.065c0.203-0.035,0.446-0.019,0.687-0.027c0.233,0.006,0.472,0.025,0.704-0.004
			c0.032,0.004,0.101,0.002,0.097,0.086c-0.002,0.057-0.121,0.086-0.149,0.048c-0.429,0.006-0.418,0.121-0.402,0.461
			c-0.016,0.042-0.026,2.292,0,2.284c-0.011,0.373-0.026,0.436,0.39,0.457c0.044,0.024,0.161,0.017,0.146,0.05
			c0,0.088-0.044,0.117-0.109,0.105c-0.223-0.038-0.454,0-0.678-0.033c-0.225-0.025-0.465,0.037-0.69,0.017
			c-0.063,0-0.105-0.03-0.121-0.063c-0.009-0.101,0.111-0.084,0.152-0.08c0.434,0.038,0.404-0.1,0.423-0.448
			C58.438,41.575,58.426,39.322,58.439,39.278z"/>
		<path fill="#FFFFFF" d="M65.432,39.378c0.002,0.083-0.017,0.115-0.105,0.124c-0.113-0.04-0.187-0.727-1.178-0.765
			c-1.011,0.025-1.491,0.8-1.537,1.659c0.013,0.431,0.13,0.786,0.4,1.094c0.289,0.37,0.647,0.604,1.197,0.604
			c0.922-0.046,1.019-0.864,1.157-0.911c0.038,0,0.067,0.046,0.042,0.114c0.069-0.025-0.025,0.428-0.025,0.461
			c0.036,0.139,0.052,0.134-0.143,0.205c-0.419,0.205-0.704,0.298-1.156,0.227c-1.108,0.054-1.982-0.827-2.021-1.803
			c0.025-0.972,1.018-1.777,2.141-1.792c0.283,0.044,0.729,0.122,0.968,0.162c0.211,0.084,0.195,0.109,0.195,0.323
			C65.354,39.064,65.377,39.412,65.432,39.378z"/>
		<path fill="#FFFFFF" d="M69.038,39.932c0.005,0.299,0.047,0.276,0.333,0.285c0.143-0.009,0.478-0.025,0.708-0.021
			c0.19-0.033,0.204-0.203,0.214-0.404c0.004-0.006,0.025-0.096,0.111-0.078c0.013-0.016,0.046-0.012,0.057,0.038
			c-0.013,0.19-0.04,0.302-0.044,0.486c0.027,0.185,0.027,0.348,0.069,0.524c-0.033,0.104-0.082,0.121-0.111,0.092
			c-0.038,0.025-0.036-0.04-0.05-0.113c-0.048-0.118-0.098-0.314-0.224-0.338c-0.271-0.031-0.576-0.012-0.742-0.022
			c-0.239-0.046-0.337,0-0.337,0.192c0.012-0.025,0.029,0.943,0.048,0.943c-0.004,0.521,0.262,0.491,0.752,0.496
			c0.497,0.038,0.825-0.004,1.043-0.473c0.021-0.047,0.061-0.186,0.144-0.22c0.028-0.01,0.083,0.063,0.083,0.103
			c0.01,0.057-0.044,0.094-0.013,0.125c-0.031,0.004-0.138,0.558-0.121,0.549c-0.033,0.08-0.021,0.08-0.082,0.067
			c0.036,0.017-2.419,0-2.407-0.004c-0.09,0.004-0.259,0.05-0.371,0.021c-0.082-0.017-0.075-0.004-0.127-0.06
			c-0.004-0.071,0.1-0.092,0.186-0.071c0.421-0.012,0.366-0.101,0.371-0.452c0.044-0.021,0.025-2.262,0.029-2.301
			c0.004-0.316,0.029-0.444-0.385-0.47c-0.063,0.046-0.155,0.048-0.201-0.025c0.037-0.067,0.071-0.092,0.127-0.111
			c0.409-0.01,0.75,0.015,1.151,0.007c0.561,0.002,1.076,0.029,1.6,0.002c0.073-0.002,0.092,0.115,0.044,0.208
			c-0.007,0.004,0.014,0.481,0.006,0.461c0.017,0.037,0.048,0.159-0.05,0.108c-0.013,0.042-0.065-0.033-0.057-0.113
			c-0.009,0.012-0.134-0.13-0.111-0.138c-0.105-0.179-0.195-0.269-0.387-0.281c-0.22-0.096-0.479-0.083-0.698-0.096
			c-0.082-0.011-0.354-0.004-0.469,0.021c-0.109,0.063-0.104,0.172-0.083,0.268C69.029,39.165,69.068,39.969,69.038,39.932z"/>
	</g>
	<g>
		<path fill="#FDD000" d="M34.975,37.971c2.065,0.516,3.907-0.46,3.907-0.46c-0.601-0.197-0.657-0.633-0.657-0.633
			c-0.605-2.185-2.039-2.665-2.039-2.665c-0.959-0.573-2.204-0.259-2.78,0.704c-0.569,0.964-0.258,2.208,0.708,2.78
			C34.382,37.857,34.675,37.946,34.975,37.971z"/>
		<path fill="#FDD000" d="M40.635,34.899c-0.287,1.094-1.214,1.706-1.214,1.706c0.067-0.332-0.12-0.47-0.12-0.47
			c-0.87-0.838-0.729-1.629-0.729-1.629c-0.023-0.595,0.442-1.093,1.037-1.117c0.595-0.023,1.098,0.442,1.118,1.037
			C40.734,34.594,40.696,34.753,40.635,34.899z"/>
	</g>
	<path fill="#FFFFFF" d="M66.278,26.169c-4.648-0.237-9.21-0.717-13.731-1.228c-2.061-0.752-5.185-0.274-6.008-2.631
		c0.159-1.74-0.411-3.448,0.576-4.918c0.041-1.774,1.647-2.698,2.881-3.926c0.207-0.993-0.66-1.606-1.194-2.392
		c-1.11-0.614-2.507-1.163-3.946-0.717c-1.196,1.026-3.335,0.444-4.938,0.478c-0.532-0.511,0.082-1.435-0.37-2.05
		c-0.371-0.853-1.476-1.229-2.301-1.708c-1.026,0-2.387-0.476-2.964,0.413c-1.315,0.819-0.159,2.047-0.368,3.279
		c-1.932,0.988-3.942-0.375-5.839,0.649c0.166,0.339-0.245,0.68-0.49,0.988c-0.292,0.616,0.611,1.194-0.09,1.538
		c0.377,0.582,0.377,1.365,1.198,1.738c0.858,0.105,1.604,0.205,2.34-0.236c0.904,0.103,1.401-0.547,2.265-0.411
		c0.534,0.375,0.287,1.129,0.207,1.64c-0.823,2.116-2.015,4.612-4.525,5.74c-1.768,1.571-4.068,2.388-6.412,2.937
		c-0.495,0.134-1.196,0.406-1.692,0.067c-0.279,0.411-0.861,0.275-1.268,0.411c-0.536,0.138-0.66,0.411-0.499,0.816
		c0.541,0.924,1.687,1.71,2.836,1.916c3.335,1.126,7.079,0.205,9.586-1.741c0.405-0.547,1.191-0.924,1.6-1.538
		c2.058-1.127,2.018-3.247,3.05-4.85c0.281-0.546,0.244-1.162,0.696-1.642c0.493-1.638,0.368-3.653,2.34-4.676
		c1.278,0,2.507-0.272,3.584-0.411c0.532,2.493,0.199,5.191,0.285,7.617c-0.042,3.517,3.413,6.829,7.116,8.367
		c2.709,2.151,6.494,3.38,10.154,2.459c1.355-0.786,3.045-0.855,4.235-1.946c0.782-0.819,1.892-1.535,2.099-2.562
		C66.525,27.162,67.183,26.445,66.278,26.169z"/>
	<g>
		<path fill="#FFFFFF" d="M24.407,49.359c-0.086,0.889,0.258,1.78,1.09,2.166c0.842,1.496,2.161,0.373,3.462,0.875
			c0.985-0.574,2.283-0.185,3.485-0.385c1.318-0.679,3.05-0.277,4.018-1.814c0.612-1.697-1.527-1.848-2.382-2.602
			c-1.666-0.247-3.37-0.055-5.141-0.272c-1.1,0.537-2.467-0.004-3.744,0.377C24.794,47.96,25,48.517,24.56,48.769l0.108,0.075
			C24.665,49.066,24.584,49.25,24.407,49.359z"/>
		<path fill="#FFFFFF" d="M44.718,50.897c1.027-0.834,2.288-0.18,3.493-0.495c1.673-0.415,3.287,0.575,4.891-0.171
			c1.443,0.507,2.883,1.273,4.589,0.896c1.142-0.762,3.027-1.064,3.167-2.799c-0.211-0.264-0.426-0.453-0.756-0.385
			c-0.731,0.356-1.565,0.234-2.466,0.218c-0.586,0.1-1.118-0.465-1.633-0.03c-1.99-0.109-3.838-0.251-5.759,0.013
			c-1.456-0.025-3.13,0.352-4.428-0.079c-2.329,0.779-4.599-0.302-6.957-0.122c-0.798,0.063-1.289,1.164-1.771,1.822
			c0.13,0.742,0.628,1.42,1.273,1.911C40.53,51.86,42.305,50.038,44.718,50.897z"/>
		<path fill="#FFFFFF" d="M61.401,63.001c-0.681-0.679-1.024-1.5-1.816-1.919c-1.075-0.541-2.07,0.222-2.952,0.763
			c-3.345,0.754-6.776-0.227-10.118,0.268c-2.131-0.52-4.353,0.147-6.595-0.377c-1.112-0.39-2.027,0.188-2.981,0.579
			c-0.131-0.595-0.45-1.115-0.549-1.709c-0.827-0.461-1.5-1.253-2.323-1.747c-0.327-0.302-1.043-0.646-0.85-1.236
			c0.376-0.805,1.091-0.277,1.818-0.411c0.99-0.688,2.4-0.365,3.32-1.203c-0.034-0.298,0.082-0.59,0.301-0.7
			c0.348,1.006,0.688,2.271,0.266,3.377c-0.155,0.7-0.169,1.512,0.327,2.041c2.037,1.998,3.002-1.651,5.239-0.872
			c1.285-0.867,2.728-0.393,4.175-0.373c1.972-0.775,4.133,0.076,6.161,0.109c0.834,0.164,1.513,0.507,2.351,0.117
			c1.627,0.432,0.9-1.688,2.041-2.262c-0.486-1.27,1.054-2.204,0.239-3.364c-0.641-0.826-1.236-2.024-2.472-1.822
			c-2.816,1.395-6.272,0-9.333,0.988c-1.808-0.368-4.11,0.742-5.461-0.8c-0.8,0.059-1.628-0.251-2.357,0.217
			c-0.951,0.206-1.326,1.09-1.525,1.936c-1.613-0.955-3.689-0.582-5.575-0.469c-2.285,0.256-4.433,0.407-6.787,0.512
			c-0.938-0.348-2.166-0.558-3.224-0.239c-1.133,0.499-0.899,1.689-1.064,2.757c0.216,0.264,0.5,0.527,0.565,0.901
			c1.366,0.502,3.013-0.172,4.46-0.034c0.396,0.415-0.017,0.889-0.021,1.333c-1.254,0.905-1.429,2.752-3.031,3.243
			c-1.431,1.16-3.192,0.201-4.794,0.728c-0.371,0.328-0.666,0.696-0.893,1.136c-0.099,1.404,1.19,2.573,2.298,3.221
			c1.456-0.196,2.806-0.615,4.123-1.147c1.1-1.094,2.526-1.811,3.352-3.239c0.738,1.42-0.091,3.146,0.279,4.705
			c0.404,1.784-0.277,3.477,0.347,5.081c0.421,0.75,1.138,1.132,1.862,1.253c0.588-0.394,0.966-1.089,1.194-1.755
			c0.513-2.397,0.518-4.734,0.817-7.24c0.196-1.147,0.003-2.446,0.239-3.557c1.267,0.134,2.115,1.186,3.46,1.211
			c0.907-0.134,0.346,0.896,0.844,1.24c-0.316,1.806,0.449,3.746-0.092,5.438c-0.151,0.516,0.269,1.189-0.391,1.588
			c-0.042,0.294-0.007,0.553,0.245,0.704c0.027,0.374-0.044,0.671-0.087,1.001c0.783,0.68,1.64,1.509,2.767,1.194
			c0.744-1.099,2.011-1.189,3.14-1.462c0.66-0.508,1.673-0.23,2.369-0.667c3.995-0.112,8.042,0.44,11.993,0.47
			c0.681,0.461,1.439,0.658,2.35,0.561c0.941-0.275,1.651-1.341,2.104-2.182c0.346-1.219-0.175-2.375,0.062-3.443
			C60.628,65.766,61.737,64.526,61.401,63.001z M42.573,55.38c0.371-0.625,0.98,0.088,1.451-0.235
			c1.131-0.13,2.399-0.108,3.482,0.059c0.402-0.252,0.725-0.134,1.234-0.164c0.595-0.766,1.561,0.139,2.191-0.481l3.725,0.067
			c0.283,0.411,0.494,0.896,0.593,1.42c-0.405,0.323-0.059,1.328-0.89,1.056c-4.022,0.151-7.843,0.864-11.75,0.499
			C41.966,56.884,42.812,56.234,42.573,55.38z M46.061,69.658c-1.781,0.188-3.488,0.531-5.344,0.607
			c-0.616-0.23-0.312-0.671-0.488-1.152c0.415-0.846,1.359-1.052,2.124-1.04c0.534,0.381,0.915-0.687,1.447-0.05
			c0.71-0.872,1.523,0.213,2.301-0.516L46.061,69.658z M46.128,65.733c-1.855,0.226-3.774,0.197-5.662,0.272
			c-0.101-0.52,0.163-0.846,0.349-1.253c0.949-0.427,1.751-0.637,2.807-0.729c0.463,0.415,1.014-0.017,1.485-0.084l1.033,0.834
			L46.128,65.733z M50.944,63.969c1.343,0.092,2.5-0.067,3.92-0.118c0.582-0.436,1.743-0.301,2.059,0.294l-0.029,1.7l-0.14-0.184
			c-1.777-0.071-3.735-0.029-5.518,0.159c-0.176-0.037-0.318-0.226-0.578-0.155C50.739,65.075,50.469,64.362,50.944,63.969z
			 M56.675,69.844c-2.132-0.148-4.309-0.186-6.37-0.483c0.05-0.59-0.048-1.295,0.141-1.848c0.59-0.653,1.667,0.252,2.363-0.402
			c1.087,0.201,2.317,0.189,3.378-0.315l0.696-0.432C57.084,67.371,57.275,68.929,56.675,69.844z"/>
	</g>
</g>
<g>
	<path fill="#231815" d="M119.837,64.903l-0.834,0.645c-0.437-0.632-0.98-1.287-1.629-1.962c-4.002,0.828-8.676,1.339-14.023,1.537
		l-0.285-0.929c2.876-2.238,4.883-4.447,6.021-6.628l1.043,0.352c-1.063,1.913-2.811,3.946-5.245,6.095
		c4.255-0.145,8.131-0.591,11.634-1.338c-0.784-0.865-1.826-1.842-3.128-2.928l0.891-0.664
		C116.474,61.004,118.327,62.943,119.837,64.903 M117.978,74.659h-1.071v-1.206h-11.206v1.178h-1.062v-7.605h13.338V74.659z
		 M116.907,68.069h-11.206v4.351h11.206V68.069z"/>
	<path fill="#231815" d="M149.9,68.401c-0.733,2.236-1.604,4.301-2.607,6.192l-0.777-0.577c0.953-1.809,1.815-3.867,2.587-6.174
		L149.9,68.401z M149.757,64.656l-0.596,0.759c-0.609-0.704-1.477-1.473-2.608-2.313l0.644-0.779
		C148.27,63.165,149.125,63.942,149.757,64.656 M150.185,59.973l-0.655,0.74c-0.669-0.753-1.547-1.531-2.628-2.333l0.646-0.739
		C148.371,58.209,149.249,58.988,150.185,59.973 M151.216,64.712c-0.183,0.76-0.405,1.459-0.662,2.096l-0.797-0.274
		c0.309-0.69,0.535-1.376,0.683-2.058L151.216,64.712z M154.44,63.698l-0.738,0.275c-0.032-0.152-0.092-0.299-0.18-0.444
		c-1.039,0.233-2.091,0.414-3.157,0.54l-0.313-0.616c1.005-0.999,1.729-1.776,2.172-2.333c-0.837,0.09-1.394,0.141-1.669,0.154
		l-0.275-0.693c0.952-1.062,1.681-2.098,2.181-3.109l0.796,0.408c-0.38,0.708-0.96,1.543-1.745,2.502
		c0.552-0.043,1.021-0.106,1.413-0.189c0.125-0.183,0.313-0.479,0.56-0.891l0.777,0.409c-0.594,1.023-1.486,2.141-2.675,3.354
		c0.515-0.063,1.057-0.16,1.633-0.293c-0.033-0.178-0.112-0.362-0.236-0.559l0.738-0.295
		C153.941,62.282,154.18,62.877,154.44,63.698 M162.614,71.474l-0.257,1.801c-0.051,0.367-0.213,0.685-0.488,0.954
		c-0.276,0.268-0.643,0.402-1.104,0.402h-4.344l-0.37-0.912h4.696c0.359,0,0.574-0.198,0.643-0.598l0.133-0.814h-10.988l1.033-2.834
		h9.377v-1.129h-10.373v-0.815h11.359v2.778h-9.585l-0.426,1.167H162.614z M152.648,66.675l-0.729,0.114
		c-0.069-0.828-0.175-1.507-0.313-2.038l0.778-0.114C152.559,65.655,152.648,66.334,152.648,66.675 M154.22,66.268l-0.757,0.208
		c-0.095-0.625-0.242-1.25-0.445-1.875l0.739-0.238C153.968,64.931,154.121,65.566,154.22,66.268 M158.764,59.688h-4.286v-0.815
		h1.822c-0.065-0.297-0.22-0.653-0.468-1.071l0.799-0.332c0.207,0.378,0.416,0.847,0.624,1.403h1.509V59.688z M158.225,61.272
		h-3.302v-0.787h3.302V61.272z M158.225,62.883h-3.302v-0.797h3.302V62.883z M158.26,66.561h-3.337v-2.9h3.337V66.561z
		 M157.465,64.477h-1.688v1.27h1.688V64.477z M159.91,64.712c-0.031,0.621-0.174,1.362-0.425,2.229l-0.798-0.189
		c0.202-0.6,0.357-1.331,0.465-2.189L159.91,64.712z M163.294,63.88l-0.796,0.274c-0.044-0.197-0.111-0.393-0.199-0.588
		c-1.288,0.234-2.378,0.402-3.261,0.502l-0.246-0.654c0.675-0.581,1.406-1.32,2.189-2.219l-1.904,0.124l-0.21-0.605
		c1.195-1.354,1.984-2.407,2.369-3.167l0.854,0.352c-0.469,0.796-1.109,1.642-1.926,2.54c0.646-0.045,1.17-0.114,1.574-0.21
		c0.305-0.447,0.509-0.773,0.617-0.974l0.796,0.472c-0.519,0.866-1.438,1.978-2.758,3.337c0.372-0.011,0.892-0.097,1.553-0.256
		c-0.054-0.176-0.144-0.356-0.265-0.54l0.795-0.294C162.8,62.625,163.074,63.259,163.294,63.88 M161.646,66.675l-0.845,0.151
		c0.038-0.644-0.043-1.336-0.244-2.076l0.758-0.132C161.497,65.306,161.608,65.994,161.646,66.675 M163.39,66.561l-0.758,0.208
		c-0.304-0.947-0.538-1.607-0.702-1.98l0.739-0.209C162.965,65.125,163.206,65.785,163.39,66.561"/>
	<path fill="#231815" d="M193.131,69.083c-0.607,1.543-1.343,2.87-2.209,3.981l-0.854-0.588c0.729-0.872,1.452-2.151,2.173-3.839
		L193.131,69.083z M199.056,67.53h-3.926v7.127h-0.966V67.53h-3.963V66.6h3.963v-1.905h-3.745v-0.968h2.368
		c-0.112-0.606-0.45-1.568-1.014-2.882l0.684-0.465h-1.906v-1.005h3.575c-0.189-0.448-0.461-0.915-0.814-1.403l0.928-0.407
		c0.31,0.423,0.642,1.028,0.996,1.81h3.395v1.005h-1.557l0.721,0.447c-0.233,0.714-0.635,1.681-1.203,2.9h2.258v0.968h-3.719V66.6
		h3.926V67.53z M196.781,60.38h-4.039c0.521,1.267,0.89,2.382,1.112,3.347h1.628C196.033,62.641,196.465,61.524,196.781,60.38
		 M198.477,71.256l-0.9,0.54c-0.296-0.791-0.741-1.706-1.336-2.749l0.815-0.465C197.599,69.402,198.073,70.294,198.477,71.256
		 M207,64.883h-2.094v9.795h-0.997v-9.795h-2.892c0,4.329-0.821,7.612-2.466,9.851l-0.813-0.625
		c0.841-1.253,1.439-2.529,1.795-3.832c0.358-1.301,0.536-3.021,0.536-5.157V59.3c2.448-0.335,4.438-0.887,5.974-1.658l0.758,0.796
		c-1.719,0.797-3.641,1.362-5.762,1.696v3.784H207V64.883z"/>
	<polygon fill="#231815" points="250.876,74.146 233.904,74.146 233.904,73.142 236.835,73.142 236.835,62.694 237.87,62.694 
		237.87,73.142 242.242,73.142 242.242,59.063 234.296,59.063 234.296,58.077 250.335,58.077 250.355,59.063 243.283,59.063 
		243.283,65.158 249.693,65.158 249.693,66.192 243.283,66.192 243.283,73.142 250.876,73.142 	"/>
	<path fill="#231815" d="M279.651,70.846c-0.38,1.601-0.794,2.85-1.242,3.747l-0.893-0.409c0.544-1.118,0.965-2.326,1.264-3.632
		L279.651,70.846z M286.098,70.051h-8.487v-0.93h3.794v-1.886h-3.282v-0.909h3.282v-1.632h-3.147v-6.598h7.262v6.598h-3.147v1.632
		h3.186v0.909h-3.186v1.886h3.727V70.051z M281.405,59.007h-2.181v4.777h2.181V59.007z M281.014,62.674l-0.775,0.332
		c-0.151-0.91-0.373-1.848-0.665-2.816l0.722-0.331C280.655,60.978,280.895,61.916,281.014,62.674 M281.555,74.289l-0.966,0.15
		c0.012-0.253,0.018-0.517,0.018-0.794c0-0.937-0.08-1.87-0.235-2.8l0.966-0.094C281.485,71.94,281.555,73.119,281.555,74.289
		 M283.831,73.919l-0.919,0.227c-0.059-1.08-0.262-2.217-0.615-3.41l0.908-0.164C283.515,71.653,283.725,72.768,283.831,73.919
		 M284.543,59.007h-2.172v4.777h2.172V59.007z M284.257,60.153c-0.196,1.113-0.462,2.082-0.794,2.911l-0.76-0.313
		c0.359-0.967,0.606-1.931,0.74-2.892L284.257,60.153z M286.135,73.435l-0.873,0.284c-0.221-1.104-0.543-2.119-0.965-3.044
		l0.928-0.217C285.673,71.502,285.976,72.493,286.135,73.435 M294.526,61.934h-4.095v3.748h3.26v8.911h-1.005v-1.489h-4.758v1.489
		h-1.036v-8.911h2.505v-8.012h1.034v3.318h4.095V61.934z M292.686,66.657h-4.758v5.451h4.758V66.657z"/>
</g>
</svg>
