<?xml version="1.0" encoding="utf-8"?>
<!-- Generator: Adobe Illustrator 15.1.0, SVG Export Plug-In . SVG Version: 6.00 Build 0)  -->
<!DOCTYPE svg PUBLIC "-//W3C//DTD SVG 1.1//EN" "http://www.w3.org/Graphics/SVG/1.1/DTD/svg11.dtd">
<svg version="1.1" id="圖層_1" xmlns="http://www.w3.org/2000/svg" xmlns:xlink="http://www.w3.org/1999/xlink" x="0px" y="0px"
	 width="187.699px" height="17.135px" viewBox="0 0 187.699 17.135" enable-background="new 0 0 187.699 17.135"
	 xml:space="preserve">
<path fill="#231815" d="M3.887,7.311L2.412,8.925C1.614,7.873,0.81,6.942,0,6.133l1.419-1.559C2.582,5.792,3.405,6.704,3.887,7.311
	 M4.137,10.205c-0.457,2.808-1.085,4.967-1.883,6.476l-2.105-1.03c0.809-1.713,1.443-3.744,1.901-6.095L4.137,10.205z M4.286,2.941
	L2.904,4.555C2.675,4.246,1.852,3.309,0.436,1.744l1.383-1.54C2.838,1.193,3.662,2.105,4.286,2.941 M9.379,11.588
	c-0.538,0.203-2.192,0.648-4.963,1.336l-0.334-2.041l1.614-0.27V3.516H4.444V1.577h4.88v1.938h-1.29v6.625
	c0.526-0.124,0.937-0.229,1.234-0.316L9.379,11.588z M9.018,12.562c-0.131,1.435-0.415,2.783-0.854,4.045l-1.818-0.362
	c0.451-1.051,0.76-2.338,0.928-3.859L9.018,12.562z M11.513,15.734l-1.54,0.278c-0.037-0.377-0.21-1.509-0.519-3.395l1.428-0.233
	C11.129,13.344,11.34,14.46,11.513,15.734 M17.84,10.261l-0.093,3.859c-0.031,0.983-0.247,1.713-0.649,2.189
	s-0.98,0.714-1.734,0.714h-1.727l-0.231-1.725h1.261c0.452,0,0.759-0.105,0.923-0.316c0.164-0.21,0.251-0.572,0.26-1.09
	c0.01-0.516,0.014-1.285,0.014-2.305h-3.877v0.324H9.852V1.688h2.189l0.511-1.503l2.264,0.361l-0.575,1.142h3.08v5.604h-5.168v0.743
	h6.105v1.428h-6.105v0.798H17.84z M13.768,14.834l-1.327,0.381l-0.835-2.736l1.271-0.297L13.768,14.834z M12.153,3.971h2.969V3.08
	h-2.969V3.971z M15.121,5.02h-2.969v0.945h2.969V5.02z M15.558,13.889l-1.067,0.398L13.6,12.125l1.067-0.343L15.558,13.889z"/>
<path fill="#231815" d="M23.704,17.043h-2.254v-5.91c-0.421,0.427-0.879,0.832-1.373,1.215l-1.095-1.688
	c1.992-1.765,3.339-3.758,4.044-5.984h-3.367V2.773h1.809V0.287h2.264v2.486h1.578l0.417,0.362
	c-0.229,1.423-0.841,2.997-1.837,4.722c0.093,0.105,0.755,0.742,1.985,1.912l-1.048,1.91c-0.254-0.247-0.628-0.621-1.123-1.122
	V17.043z M36.858,2.736H25.661V0.853h11.198V2.736z M34.001,16.301h-5.696v0.574h-2.357V8.628h10.474v8.247h-2.421V16.301z
	 M36.005,7.812h-9.603V3.499h9.603V7.812z M30.03,10.428h-1.726v1.234h1.726V10.428z M28.305,14.52h1.726v-1.354h-1.726V14.52z
	 M33.649,5.037h-4.926v1.197h4.926V5.037z M34.001,10.428h-1.726v1.234h1.726V10.428z M32.275,14.52h1.726v-1.354h-1.726V14.52z"/>
<path fill="#231815" d="M49.012,16.096c-0.408,0.081-1.792,0.223-4.151,0.428c-2.361,0.203-4.18,0.34-5.46,0.408l-0.381-2.283
	c0.415-0.006,1.144-0.03,2.189-0.074v-8.6c-0.791,0.315-1.583,0.578-2.375,0.789l-0.955-1.939c1.991-0.575,3.693-1.305,5.103-2.189
	c1.41-0.885,2.415-1.694,3.014-2.43h2.412c0.811,0.871,2.028,1.712,3.652,2.522c1.623,0.812,3.155,1.382,4.596,1.716l-1.251,2.135
	c-0.694-0.223-1.399-0.482-2.116-0.779v5.361c0.365-0.197,0.671-0.377,0.918-0.537l1.763,1.633
	c-0.785,0.438-1.843,0.915-3.173,1.428c0.909,0.341,2.155,0.675,3.738,1.002l-1.307,2.227c-2.561-0.623-4.633-1.512-6.216-2.662
	V16.096z M43.567,4.88h2.615V3.303h2.301V4.88h2.802c-1.664-0.848-2.997-1.726-3.999-2.635C46.34,3.179,45.1,4.058,43.567,4.88
	 M43.835,14.455c2.468-0.131,4.116-0.258,4.945-0.381c-0.934-0.712-1.785-1.577-2.551-2.598h-2.385L43.835,14.455z M43.844,7.412
	h6.902V6.421h-6.902V7.412z M50.746,8.758h-6.902v1.065h6.902V8.758z M52.676,11.477H49.16c0.359,0.334,0.78,0.664,1.262,0.992
	C51.196,12.166,51.947,11.835,52.676,11.477"/>
<path fill="#231815" d="M63.04,16.355h-2.607v0.65h-2.524V8.776h7.692v8.229H63.04V16.355z M72.521,7.506H59.672V0.817h12.849V7.506
	z M60.433,14.306h2.607v-3.441h-2.607V14.306z M69.747,2.811h-7.319v2.683h7.319V2.811z M71.982,16.355h-2.634v0.65H66.74V8.776
	h7.867v8.229h-2.625V16.355z M69.349,14.306h2.635v-3.441h-2.635V14.306z"/>
<polygon fill="#231815" points="93.933,16.338 76.603,16.338 76.603,14.018 83.784,14.018 83.784,3.915 77.308,3.915 77.308,1.67 
	93.228,1.67 93.228,3.915 86.539,3.915 86.539,14.018 93.933,14.018 "/>
<path fill="#231815" d="M112.915,2.996H98.72v3.442c0,4.503-0.718,7.973-2.152,10.409l-1.708-1.021
	c0.446-0.891,0.823-2.073,1.132-3.549c0.31-1.475,0.464-3.271,0.464-5.386v-5.51h6.977V0.204h2.468v1.179h7.013V2.996z
	 M106.921,15.484c0,0.408-0.138,0.742-0.413,1.002s-0.635,0.389-1.08,0.389h-1.68l-0.185-1.679h1.252
	c0.291,0,0.436-0.133,0.436-0.399v-5.77h-4.573v7.885H98.98V7.348h3.08V3.396h2.032v3.952h2.829v1.289
	c0.655-1.657,1.169-3.454,1.54-5.39l1.94,0.288c-0.1,0.537-0.257,1.178-0.474,1.92h3.247v1.577h-0.473
	c-0.087,2.481-0.492,4.422-1.216,5.826c0.644,0.922,1.339,1.753,2.087,2.495l-1.214,1.559c-0.631-0.581-1.278-1.36-1.94-2.338
	c-0.637,0.823-1.472,1.621-2.504,2.395l-0.938-1.467c0.977-0.772,1.778-1.657,2.402-2.652c-0.525-1.015-0.912-2.131-1.159-3.35
	c-0.117,0.241-0.214,0.424-0.288,0.547l-1.011-0.907V15.484z M101.856,6.633l-1.754,0.474L99.137,4.39l1.726-0.475L101.856,6.633z
	 M104.592,14.307h-2.004v0.648h-1.252v-5h3.256V14.307z M103.33,11.04h-0.742v2.05h0.742V11.04z M107.209,4.222
	c-0.359,0.822-0.802,1.766-1.327,2.829l-1.577-0.398c0.291-0.705,0.631-1.637,1.02-2.793L107.209,4.222z M110.298,10.743
	c0.278-1.021,0.437-2.258,0.474-3.711h-1.216C109.63,8.448,109.877,9.686,110.298,10.743"/>
<path fill="#231815" d="M127.711,13.127h-7.18v3.971h-2.663V9.547c-0.761,0.822-1.552,1.527-2.375,2.115l-1.577-1.596
	c2.084-1.707,3.68-3.644,4.787-5.809h-4.008V2.143h5c0.236-0.594,0.458-1.289,0.668-2.087l2.635,0.325
	c-0.185,0.692-0.364,1.279-0.537,1.762h9.435v2.115h-10.382c-0.247,0.482-0.479,0.906-0.696,1.271h9.538v9.519
	c0,0.569-0.223,1.028-0.668,1.378c-0.446,0.349-0.997,0.523-1.652,0.523h-3.173l-0.306-2.318h2.663c0.328,0,0.491-0.146,0.491-0.437
	V13.127z M127.711,7.375h-7.18v1.15h7.18V7.375z M120.531,11.402h7.18v-1.197h-7.18V11.402z"/>
<path fill="#231815" d="M140.598,1.271c-0.117,0.444-0.381,1.295-0.789,2.551c-0.408,1.256-0.701,2.078-0.881,2.468
	c0.959,1.41,1.437,2.866,1.437,4.37c0,0.631-0.066,1.175-0.199,1.633c-0.133,0.457-0.334,0.833-0.602,1.127
	c-0.27,0.294-0.589,0.496-0.96,0.607c-0.371,0.111-0.925,0.167-1.661,0.167h-0.149l-0.491-2.227h0.473
	c0.389,0,0.652-0.019,0.789-0.056c0.135-0.037,0.25-0.181,0.342-0.432c0.093-0.25,0.14-0.602,0.14-1.053
	c0-0.612-0.116-1.265-0.348-1.957c-0.232-0.693-0.502-1.262-0.812-1.707c-0.074-0.111-0.111-0.229-0.111-0.354
	c0-0.099,0.024-0.203,0.074-0.314c0.173-0.365,0.473-1.505,0.9-3.414h-1.484v14.453h-2.301V0.724h6.113L140.598,1.271z
	 M146.981,15.827c-0.52,0.143-1.134,0.275-1.842,0.399c-0.708,0.123-1.291,0.216-1.748,0.277l-3.137,0.408l-0.417-2.301l1.327-0.139
	V0.705h8.739v8.434h-2.969c0.168,0.52,0.424,1.094,0.77,1.725c0.91-0.568,1.707-1.138,2.394-1.707l1.437,1.865
	c-0.679,0.52-1.548,1.063-2.606,1.633c0.662,0.792,1.513,1.614,2.552,2.468l-1.94,1.827c-1.008-0.859-1.886-1.793-2.634-2.801
	L146.981,15.827z M147.305,2.579h-3.627v1.466h3.627V2.579z M147.305,5.752h-3.627v1.54h3.627V5.752z M143.678,14.194
	c1.193-0.148,2.171-0.306,2.932-0.474c-1.071-1.559-1.742-3.086-2.014-4.582h-0.918V14.194z"/>
<path fill="#231815" d="M160.322,0.779c-0.544,1.527-1.444,3.12-2.7,4.777c-1.255,1.658-2.598,3.021-4.026,4.092l-1.679-1.67
	c2.332-1.775,4.295-4.385,5.89-7.83L160.322,0.779z M166.38,15.716c-3.024,0.408-7.502,0.825-13.434,1.253l-0.38-2.515
	c0.625,0,1.487-0.028,2.589-0.083c0.797-1.367,1.612-2.977,2.444-4.829c0.831-1.853,1.409-3.366,1.73-4.542l2.737,0.585
	c-0.384,1.15-0.946,2.558-1.688,4.222c-0.742,1.663-1.491,3.123-2.245,4.379c2.987-0.211,5.337-0.434,7.05-0.668
	c-0.959-1.732-1.624-2.883-1.995-3.451l2.338-1.021c0.502,0.681,1.277,1.916,2.329,3.707c1.052,1.79,1.695,3.01,1.93,3.66
	l-2.7,0.705C166.986,16.882,166.75,16.415,166.38,15.716 M170.657,7.709l-1.902,1.958c-1.491-1.206-2.874-2.624-4.152-4.254
	c-1.277-1.629-2.206-3.144-2.788-4.541L164.227,0c0.774,1.676,1.744,3.176,2.914,4.5C168.309,5.823,169.482,6.893,170.657,7.709"/>
<path fill="#231815" d="M187.699,14.992c0,0.606-0.224,1.096-0.673,1.471c-0.449,0.374-0.966,0.561-1.553,0.561h-2.923l-0.474-2.393
	h2.487c0.378,0,0.566-0.186,0.566-0.557V3.024h-13.35V0.928h15.92V14.992z M184.184,6.15h-11.931V4.203h11.931V6.15z
	 M183.135,13.889h-7.432v0.945h-2.449V7.348h9.881V13.889z M180.667,9.268h-4.916v2.663h4.916V9.268z"/>
</svg>
