<?xml version="1.0" encoding="utf-8"?>
<!-- Generator: Adobe Illustrator 16.0.0, SVG Export Plug-In . SVG Version: 6.00 Build 0)  -->
<!DOCTYPE svg PUBLIC "-//W3C//DTD SVG 1.1//EN" "http://www.w3.org/Graphics/SVG/1.1/DTD/svg11.dtd">
<svg version="1.1" id="圖層_1" xmlns="http://www.w3.org/2000/svg" xmlns:xlink="http://www.w3.org/1999/xlink" x="0px" y="0px"
	 width="110px" height="110px" viewBox="0 0 110 110" enable-background="new 0 0 110 110" xml:space="preserve">
<circle fill="#DE1A15" cx="55" cy="55" r="55"/>
<circle fill="#FFFFFF" cx="55" cy="55" r="50.816"/>
<g>
	<path fill="#DE1A15" d="M52.024,61.593l-0.54-2.019c-0.115-0.425,0.021-0.867,0.35-1.164c0.455-0.41,0.889-0.865,1.277-1.362
		c0.275-0.339,0.698-0.507,1.131-0.423l2.104,0.4c0.521,0.098,1.035-0.199,1.215-0.687l0.485-1.321l0.486-1.32
		c0.189-0.496-0.012-1.047-0.477-1.311L56.25,51.34c-0.381-0.223-0.592-0.635-0.571-1.067c0.032-0.634,0.012-1.257-0.052-1.868
		c-0.055-0.436,0.137-0.848,0.496-1.091l1.773-1.204c0.436-0.296,0.594-0.854,0.381-1.33l-0.58-1.27l-0.582-1.27
		c-0.211-0.476-0.738-0.719-1.259-0.592l-2.007,0.561c-0.422,0.117-0.877-0.021-1.173-0.348c-0.412-0.455-0.867-0.889-1.354-1.279
		c-0.338-0.273-0.507-0.696-0.422-1.131l0.401-2.103c0.095-0.519-0.201-1.036-0.687-1.216l-2.644-0.973
		c-0.496-0.189-1.046,0.012-1.312,0.477l-1.035,1.796c-0.223,0.38-0.645,0.603-1.076,0.569c-0.655-0.041-1.301-0.021-1.936,0.063
		c-0.433,0.054-0.865-0.137-1.107-0.495l-1.184-1.755c-0.297-0.433-0.855-0.592-1.332-0.37l-1.269,0.582l-1.269,0.581
		c-0.478,0.212-0.72,0.74-0.592,1.257l0.549,2.051c0.116,0.424-0.021,0.867-0.35,1.152c-0.465,0.422-0.889,0.877-1.277,1.373
		c-0.266,0.338-0.709,0.508-1.132,0.422l-2.071-0.399c-0.506-0.097-1.015,0.19-1.215,0.653l-0.974,2.644
		c-0.188,0.496,0.013,1.046,0.478,1.312l1.828,1.057c0.379,0.222,0.592,0.623,0.569,1.057c-0.03,0.635-0.011,1.258,0.063,1.881
		c0.054,0.434-0.138,0.856-0.496,1.1l-1.754,1.193c-0.435,0.295-0.592,0.856-0.371,1.331l1.162,2.537
		c0.213,0.476,0.74,0.718,1.258,0.591l2.05-0.549c0.423-0.115,0.866,0.021,1.151,0.35c0.422,0.465,0.877,0.889,1.375,1.277
		c0.338,0.266,0.506,0.709,0.422,1.133l-0.401,2.069c-0.095,0.519,0.201,1.036,0.687,1.215l2.644,0.974
		c0.496,0.189,1.046-0.012,1.312-0.477l1.057-1.828c0.222-0.381,0.634-0.592,1.066-0.58c0.603,0.021,1.193,0,1.787-0.063
		c0.432-0.054,0.854,0.138,1.098,0.497l1.205,1.772c0.295,0.435,0.854,0.593,1.332,0.37l1.267-0.581l1.269-0.581
		C51.908,62.627,52.162,62.1,52.024,61.593L52.024,61.593z M49.806,51.797c-1.151,3.222-4.692,4.902-7.915,3.762
		c-3.223-1.143-4.902-4.682-3.762-7.904c1.142-3.224,4.681-4.904,7.904-3.763C49.267,45.033,50.947,48.574,49.806,51.797
		L49.806,51.797z"/>
	<path fill="#DE1A15" d="M69.271,64.562l-1.226-0.212c-0.256-0.042-0.467-0.232-0.541-0.486c-0.104-0.349-0.241-0.695-0.411-1.035
		c-0.115-0.23-0.095-0.506,0.054-0.719l0.75-1.035c0.18-0.252,0.148-0.613-0.063-0.824l-1.186-1.184
		c-0.222-0.222-0.57-0.253-0.822-0.072l-1.016,0.717c-0.212,0.148-0.497,0.171-0.719,0.043c-0.328-0.18-0.678-0.315-1.025-0.442
		c-0.242-0.085-0.423-0.285-0.465-0.539l-0.199-1.258c-0.055-0.308-0.316-0.538-0.623-0.538h-1.672c-0.307,0-0.58,0.223-0.634,0.528
		l-0.201,1.226c-0.042,0.266-0.231,0.467-0.485,0.551c-0.35,0.104-0.697,0.242-1.023,0.41c-0.232,0.117-0.508,0.098-0.719-0.053
		l-1.035-0.75c-0.254-0.182-0.613-0.146-0.825,0.063l-0.591,0.592l-0.592,0.593c-0.223,0.223-0.254,0.569-0.075,0.823l0.708,1.016
		c0.146,0.211,0.158,0.496,0.042,0.729c-0.181,0.351-0.339,0.696-0.454,1.058c-0.084,0.241-0.285,0.435-0.549,0.478l-1.247,0.199
		c-0.308,0.055-0.539,0.317-0.539,0.623v1.67c0,0.309,0.222,0.581,0.528,0.635l1.246,0.223c0.254,0.043,0.465,0.23,0.539,0.476
		c0.115,0.359,0.254,0.697,0.422,1.036c0.117,0.232,0.096,0.507-0.051,0.718l-0.74,1.025c-0.18,0.253-0.148,0.592,0.053,0.823
		l1.184,1.185c0.221,0.222,0.57,0.253,0.824,0.073l1.023-0.729c0.213-0.146,0.486-0.169,0.72-0.043
		c0.338,0.171,0.677,0.317,1.036,0.435c0.242,0.085,0.434,0.285,0.475,0.539l0.201,1.246c0.053,0.309,0.316,0.539,0.624,0.539h1.669
		c0.307,0,0.581-0.223,0.635-0.526l0.223-1.247c0.041-0.254,0.23-0.467,0.476-0.539c0.358-0.116,0.696-0.253,1.036-0.423
		c0.23-0.116,0.507-0.097,0.719,0.054l1.023,0.739c0.255,0.18,0.613,0.146,0.824-0.063l0.592-0.592l0.593-0.592
		c0.222-0.223,0.254-0.57,0.073-0.824l-0.729-1.023c-0.146-0.211-0.158-0.485-0.043-0.72c0.159-0.315,0.309-0.645,0.412-0.981
		c0.085-0.243,0.285-0.434,0.55-0.477l1.259-0.199c0.307-0.056,0.539-0.317,0.539-0.625v-1.67
		C69.797,64.89,69.576,64.613,69.271,64.562L69.271,64.562z M63.469,68.523c-1.428,1.459-3.762,1.479-5.221,0.053
		s-1.479-3.762-0.053-5.22c1.426-1.458,3.762-1.479,5.221-0.053C64.875,64.729,64.896,67.065,63.469,68.523L63.469,68.523z"/>
	<path fill="#DE1A15" d="M80.365,58.813l-0.813-0.264c-0.169-0.055-0.296-0.201-0.328-0.381c-0.041-0.254-0.104-0.496-0.18-0.739
		c-0.053-0.17-0.021-0.36,0.104-0.486l0.604-0.635c0.146-0.158,0.158-0.401,0.031-0.569l-0.697-0.931
		c-0.127-0.181-0.359-0.222-0.561-0.127l-0.763,0.392c-0.158,0.084-0.351,0.063-0.496-0.043c-0.211-0.146-0.435-0.285-0.653-0.402
		c-0.158-0.072-0.267-0.23-0.267-0.41l-0.021-0.877c-0.01-0.213-0.168-0.393-0.379-0.424l-1.144-0.17
		c-0.212-0.029-0.413,0.097-0.485,0.308l-0.254,0.813c-0.054,0.168-0.199,0.295-0.381,0.328c-0.255,0.041-0.497,0.105-0.738,0.178
		c-0.17,0.055-0.359,0.021-0.486-0.104l-0.635-0.604c-0.158-0.147-0.4-0.157-0.569-0.031l-0.466,0.349l-0.465,0.351
		c-0.181,0.127-0.223,0.357-0.127,0.56l0.392,0.761c0.085,0.159,0.063,0.359-0.042,0.497c-0.158,0.222-0.297,0.444-0.412,0.677
		c-0.074,0.157-0.243,0.266-0.424,0.274l-0.865,0.021c-0.211,0.013-0.391,0.17-0.423,0.382l-0.169,1.143
		c-0.031,0.211,0.095,0.412,0.306,0.484l0.825,0.266c0.169,0.054,0.295,0.2,0.316,0.38c0.043,0.254,0.104,0.51,0.188,0.75
		c0.054,0.17,0.021,0.359-0.104,0.486l-0.604,0.624c-0.146,0.158-0.156,0.392-0.042,0.56l0.351,0.467l0.349,0.465
		c0.126,0.181,0.358,0.223,0.562,0.127l0.771-0.401c0.156-0.084,0.349-0.063,0.494,0.042c0.214,0.148,0.436,0.286,0.666,0.393
		c0.158,0.072,0.267,0.231,0.267,0.41l0.021,0.867c0.012,0.211,0.168,0.391,0.379,0.424l1.144,0.168
		c0.211,0.031,0.412-0.096,0.485-0.307l0.266-0.824c0.055-0.169,0.2-0.295,0.381-0.315c0.254-0.044,0.508-0.105,0.75-0.189
		c0.17-0.053,0.358-0.021,0.485,0.104l0.623,0.604c0.157,0.146,0.401,0.158,0.569,0.032l0.465-0.351l0.467-0.35
		c0.18-0.127,0.222-0.359,0.126-0.561l-0.399-0.771c-0.086-0.158-0.064-0.349,0.043-0.497c0.137-0.2,0.264-0.411,0.379-0.634
		c0.086-0.158,0.244-0.266,0.412-0.266l0.877-0.021c0.213-0.011,0.393-0.169,0.424-0.38l0.17-1.143
		C80.703,59.088,80.578,58.888,80.365,58.813L80.365,58.813z M76.033,60.969c-1.108,0.855-2.705,0.654-3.562-0.465
		c-0.854-1.109-0.655-2.705,0.465-3.563c1.108-0.855,2.705-0.654,3.562,0.467C77.354,58.517,77.143,60.113,76.033,60.969
		L76.033,60.969z"/>
</g>
</svg>
