<?xml version="1.0" encoding="utf-8"?>
<!-- Generator: Adobe Illustrator 15.1.0, SVG Export Plug-In . SVG Version: 6.00 Build 0)  -->
<!DOCTYPE svg PUBLIC "-//W3C//DTD SVG 1.1//EN" "http://www.w3.org/Graphics/SVG/1.1/DTD/svg11.dtd">
<svg version="1.1" id="圖層_1" xmlns="http://www.w3.org/2000/svg" xmlns:xlink="http://www.w3.org/1999/xlink" x="0px" y="0px"
	 width="239.461px" height="198.227px" viewBox="0 0 239.461 198.227" enable-background="new 0 0 239.461 198.227"
	 xml:space="preserve">
<polygon opacity="0.15" fill="#FFFFFF" enable-background="new    " points="239.461,98.873 200.168,59.579 200.168,0.001 0,0.001 
	0,198.226 200.168,198.226 200.168,138.167 "/>
<g>
	<g>
		<g>
			<path fill="#FFFFFF" d="M144.245,93.386l-14.176-14.177V62.833c0-2.962-2.398-5.362-5.364-5.362c-2.959,0-5.359,2.4-5.359,5.362
				v5.653L108.79,57.93c-5.219-5.216-14.293-5.207-19.5,0.009L53.843,93.386c-2.093,2.098-2.093,5.49,0,7.585s5.492,2.095,7.585,0
				l35.444-35.449c1.154-1.148,3.19-1.148,4.339-0.003l35.45,35.453c1.051,1.047,2.421,1.568,3.792,1.568
				c1.373,0,2.746-0.522,3.793-1.568C146.34,98.875,146.34,95.484,144.245,93.386z"/>
			<path fill="#FFFFFF" d="M100.907,75.698c-1.03-1.03-2.697-1.03-3.724,0l-31.18,31.17c-0.492,0.49-0.772,1.164-0.772,1.866v22.731
				c0,5.336,4.326,9.662,9.661,9.662h15.436v-23.907h17.428v23.907h15.438c5.332,0,9.659-4.325,9.659-9.662v-22.731
				c0-0.702-0.277-1.376-0.771-1.866L100.907,75.698z"/>
		</g>
	</g>
</g>
</svg>
