<?xml version="1.0" encoding="utf-8"?>
<!-- Generator: Adobe Illustrator 15.1.0, SVG Export Plug-In . SVG Version: 6.00 Build 0)  -->
<!DOCTYPE svg PUBLIC "-//W3C//DTD SVG 1.1//EN" "http://www.w3.org/Graphics/SVG/1.1/DTD/svg11.dtd">
<svg version="1.1" id="圖層_1" xmlns="http://www.w3.org/2000/svg" xmlns:xlink="http://www.w3.org/1999/xlink" x="0px" y="0px"
	 width="239.461px" height="198.227px" viewBox="0 0 239.461 198.227" enable-background="new 0 0 239.461 198.227"
	 xml:space="preserve">
<polygon opacity="0.15" fill="#FFFFFF" enable-background="new    " points="239.461,98.873 200.168,59.579 200.168,0.001 0,0.001 
	0,198.226 200.168,198.226 200.168,138.167 "/>
<g>
	<path fill="#F5F5F5" d="M131.971,57.387c0-2.574-1.984-4.621-4.568-4.621H74.086c-2.571,0-4.475,2.046-4.475,4.621v93.125h20.348
		v-15.38c0-1.511,1.097-2.75,2.595-2.75h16.459c1.508,0,2.615,1.24,2.615,2.75v15.38h20.346V57.387H131.971z M97.027,118.848
		c0,0.878-0.712,1.59-1.59,1.59h-9.635c-0.879,0-1.601-0.712-1.601-1.59v-9.636c0-0.878,0.722-1.604,1.601-1.604h9.635
		c0.878,0,1.59,0.726,1.59,1.604V118.848z M97.027,97.614c0,0.878-0.712,1.592-1.59,1.592h-9.635c-0.879,0-1.601-0.714-1.601-1.592
		v-9.638c0-0.879,0.722-1.601,1.601-1.601h9.635c0.878,0,1.59,0.722,1.59,1.601V97.614z M97.027,75.934
		c0,0.889-0.712,1.603-1.59,1.603h-9.635c-0.879,0-1.601-0.713-1.601-1.603v-9.625c0-0.888,0.722-1.603,1.601-1.603h9.635
		c0.878,0,1.59,0.714,1.59,1.603V75.934z M117.385,118.848c0,0.878-0.723,1.59-1.602,1.59h-9.635c-0.879,0-1.592-0.712-1.592-1.59
		v-9.636c0-0.878,0.713-1.604,1.592-1.604h9.635c0.878,0,1.602,0.726,1.602,1.604V118.848z M117.385,97.614
		c0,0.878-0.723,1.592-1.602,1.592h-9.635c-0.879,0-1.592-0.714-1.592-1.592v-9.638c0-0.879,0.713-1.601,1.592-1.601h9.635
		c0.878,0,1.602,0.722,1.602,1.601V97.614z M117.385,75.934c0,0.889-0.723,1.603-1.602,1.603h-9.635
		c-0.879,0-1.592-0.713-1.592-1.603v-9.625c0-0.888,0.713-1.603,1.592-1.603h9.635c0.878,0,1.602,0.714,1.602,1.603V75.934z"/>
</g>
</svg>
