<?xml version="1.0" encoding="utf-8"?>
<!-- Generator: Adobe Illustrator 16.0.0, SVG Export Plug-In . SVG Version: 6.00 Build 0)  -->
<!DOCTYPE svg PUBLIC "-//W3C//DTD SVG 1.1//EN" "http://www.w3.org/Graphics/SVG/1.1/DTD/svg11.dtd">
<svg version="1.1" id="圖層_1" xmlns="http://www.w3.org/2000/svg" xmlns:xlink="http://www.w3.org/1999/xlink" x="0px" y="0px"
	 width="232.33px" height="18.25px" viewBox="0 0 232.33 18.25" enable-background="new 0 0 232.33 18.25" xml:space="preserve">
<g>
	<path stroke="#000000" stroke-width="0.25" stroke-miterlimit="10" d="M11.409,16.095c-1.069,0.517-2.464,0.774-4.184,0.774
		c-2.245,0-4.011-0.658-5.296-1.979C0.642,13.57,0,11.812,0,9.613c0-2.339,0.723-4.238,2.169-5.694
		c1.445-1.456,3.322-2.184,5.627-2.184c1.429,0,2.632,0.18,3.613,0.54V5.45c-0.98-0.585-2.096-0.878-3.347-0.878
		c-1.375,0-2.483,0.432-3.327,1.296C3.89,6.733,3.468,7.904,3.468,9.38c0,1.415,0.398,2.543,1.194,3.384
		c0.796,0.84,1.868,1.26,3.214,1.26c1.287,0,2.463-0.313,3.532-0.938V16.095z"/>
	<path stroke="#000000" stroke-width="0.25" stroke-miterlimit="10" d="M19.517,16.871c-2.096,0-3.803-0.683-5.124-2.047
		c-1.32-1.363-1.98-3.141-1.98-5.332c0-2.313,0.67-4.184,2.011-5.612c1.34-1.429,3.116-2.144,5.327-2.144
		c2.088,0,3.777,0.684,5.066,2.051c1.289,1.367,1.934,3.17,1.934,5.408c0,2.3-0.669,4.154-2.005,5.561
		C23.409,16.164,21.667,16.871,19.517,16.871z M19.659,4.573c-1.157,0-2.076,0.434-2.755,1.302c-0.68,0.867-1.02,2.016-1.02,3.443
		c0,1.449,0.34,2.596,1.02,3.44c0.681,0.844,1.572,1.266,2.673,1.266c1.137,0,2.038-0.41,2.705-1.23s1-1.957,1-3.413
		c0-1.517-0.323-2.697-0.97-3.542C21.667,4.996,20.782,4.573,19.659,4.573z"/>
	<path stroke="#000000" stroke-width="0.25" stroke-miterlimit="10" d="M41.718,16.615h-3.327L32.36,7.42
		c-0.354-0.537-0.598-0.942-0.734-1.214h-0.041c0.054,0.517,0.082,1.306,0.082,2.368v8.042h-3.112V1.981h3.551l5.807,8.909
		c0.265,0.401,0.51,0.801,0.734,1.193h0.041c-0.055-0.34-0.082-1.01-0.082-2.01V1.981h3.112V16.615z"/>
	<path stroke="#000000" stroke-width="0.25" stroke-miterlimit="10" d="M54.715,4.665h-4.174v11.95h-3.306V4.665h-4.153V1.981
		h11.634V4.665z"/>
	<path stroke="#000000" stroke-width="0.25" stroke-miterlimit="10" d="M68.926,16.615h-3.592l-1.041-3.256h-5.205l-1.03,3.256
		h-3.572l5.327-14.634h3.909L68.926,16.615z M63.538,10.828L61.966,5.91c-0.116-0.368-0.198-0.807-0.245-1.316H61.64
		c-0.034,0.428-0.119,0.854-0.255,1.275l-1.592,4.959H63.538z"/>
	<path stroke="#000000" stroke-width="0.25" stroke-miterlimit="10" d="M80.617,16.095c-1.069,0.517-2.463,0.774-4.184,0.774
		c-2.245,0-4.011-0.658-5.296-1.979c-1.286-1.319-1.928-3.078-1.928-5.276c0-2.339,0.723-4.238,2.169-5.694
		c1.445-1.456,3.322-2.184,5.627-2.184c1.429,0,2.632,0.18,3.613,0.54V5.45c-0.98-0.585-2.096-0.878-3.347-0.878
		c-1.375,0-2.483,0.432-3.327,1.296c-0.843,0.865-1.265,2.035-1.265,3.51c0,1.415,0.398,2.543,1.194,3.384
		c0.796,0.84,1.867,1.26,3.214,1.26c1.287,0,2.463-0.313,3.532-0.939v3.013H80.617z"/>
	<path stroke="#000000" stroke-width="0.25" stroke-miterlimit="10" d="M92.818,4.665h-4.174v11.95h-3.306V4.665h-4.153V1.981
		h11.634V4.665z"/>
	<path d="M104.435,16.615h-1.715V1.981h1.715V16.615z"/>
	<path d="M119.452,16.615h-2.103l-7.532-11.664c-0.191-0.292-0.347-0.599-0.469-0.919h-0.061c0.055,0.313,0.082,0.983,0.082,2.01
		v10.573h-1.715V1.981h2.225l7.327,11.481c0.307,0.475,0.504,0.801,0.592,0.979h0.041c-0.068-0.422-0.102-1.139-0.102-2.153V1.981
		h1.715L119.452,16.615L119.452,16.615z"/>
	<path d="M130.092,3.533h-5.717v5.062h5.287v1.542h-5.287v6.479h-1.714V1.981h7.429v1.551H130.092z"/>
	<path d="M138.139,16.859c-2.074,0-3.737-0.684-4.984-2.05c-1.248-1.367-1.873-3.146-1.873-5.337c0-2.354,0.636-4.231,1.908-5.633
		c1.272-1.401,3.004-2.103,5.195-2.103c2.02,0,3.648,0.68,4.883,2.041c1.235,1.361,1.854,3.14,1.854,5.337
		c0,2.388-0.633,4.277-1.898,5.665S140.262,16.859,138.139,16.859z M138.261,3.288c-1.538,0-2.786,0.555-3.744,1.664
		c-0.96,1.109-1.44,2.565-1.44,4.368c0,1.804,0.469,3.253,1.403,4.353s2.155,1.648,3.659,1.648c1.605,0,2.87-0.523,3.796-1.572
		c0.925-1.047,1.388-2.513,1.388-4.397c0-1.933-0.449-3.425-1.347-4.48C141.078,3.815,139.84,3.288,138.261,3.288z"/>
	<path d="M157.86,16.615h-2.041l-2.449-4.103c-0.224-0.38-0.442-0.705-0.653-0.974c-0.211-0.27-0.427-0.488-0.647-0.659
		c-0.222-0.17-0.46-0.295-0.714-0.373c-0.256-0.077-0.543-0.116-0.863-0.116h-1.408v6.225h-1.715V1.981h4.368
		c0.64,0,1.229,0.08,1.771,0.239c0.541,0.16,1.011,0.403,1.408,0.73c0.398,0.327,0.711,0.733,0.935,1.219
		c0.224,0.487,0.336,1.057,0.336,1.709c0,0.51-0.077,0.979-0.229,1.404c-0.154,0.425-0.371,0.804-0.654,1.138
		c-0.281,0.333-0.622,0.618-1.02,0.852c-0.399,0.235-0.846,0.417-1.343,0.546v0.041c0.245,0.109,0.458,0.234,0.638,0.373
		s0.352,0.305,0.515,0.495s0.325,0.407,0.484,0.647c0.159,0.242,0.339,0.522,0.536,0.842L157.86,16.615z M149.084,3.533v5.307h2.326
		c0.43,0,0.825-0.064,1.189-0.194c0.364-0.129,0.678-0.314,0.943-0.556s0.474-0.537,0.623-0.888
		c0.148-0.351,0.225-0.743,0.225-1.179c0-0.782-0.254-1.393-0.761-1.832s-1.239-0.658-2.198-0.658H149.084z"/>
	<path d="M172.531,16.615h-1.705V6.798c0-0.388,0.014-0.829,0.037-1.322c0.021-0.493,0.06-1.022,0.105-1.586h-0.041
		c-0.041,0.164-0.102,0.346-0.184,0.547c-0.081,0.2-0.166,0.395-0.26,0.581c-0.09,0.187-0.176,0.356-0.254,0.505
		c-0.08,0.15-0.137,0.263-0.168,0.337l-3.758,6.939h-0.837l-3.755-6.918c-0.034-0.082-0.093-0.199-0.174-0.353
		c-0.082-0.154-0.168-0.323-0.256-0.51c-0.089-0.187-0.172-0.379-0.25-0.577s-0.137-0.381-0.178-0.551h-0.041
		c0.025,0.293,0.047,0.688,0.061,1.184c0.014,0.497,0.02,1.078,0.02,1.745v9.796h-1.652V1.981h2.143l3.797,6.959
		c0.162,0.306,0.301,0.592,0.418,0.858c0.115,0.265,0.2,0.496,0.255,0.693h0.061c0.068-0.205,0.159-0.443,0.271-0.715
		c0.113-0.272,0.258-0.564,0.435-0.878l3.786-6.919h2.123v14.635H172.531z"/>
	<path d="M187.068,16.615h-1.897l-1.552-4.103h-6.204l-1.458,4.103h-1.91l5.613-14.634h1.775L187.068,16.615z M183.058,10.973
		l-2.296-6.235c-0.074-0.205-0.148-0.531-0.225-0.979h-0.04c-0.067,0.415-0.146,0.742-0.235,0.979l-2.275,6.235H183.058z"/>
	<path d="M197.249,3.533h-4.224v13.083h-1.716V3.533h-4.214V1.981h10.152L197.249,3.533L197.249,3.533z"/>
	<path d="M200.633,16.615h-1.715V1.981h1.715V16.615z"/>
	<path d="M209.751,16.859c-2.075,0-3.737-0.684-4.985-2.05c-1.248-1.367-1.872-3.146-1.872-5.337c0-2.354,0.636-4.231,1.908-5.633
		c1.272-1.401,3.004-2.103,5.195-2.103c2.021,0,3.647,0.68,4.884,2.041c1.234,1.361,1.852,3.14,1.852,5.337
		c0,2.388-0.633,4.277-1.898,5.665S211.873,16.859,209.751,16.859z M209.873,3.288c-1.537,0-2.785,0.555-3.744,1.664
		c-0.96,1.109-1.439,2.565-1.439,4.368c0,1.804,0.468,3.253,1.404,4.353c0.935,1.1,2.154,1.648,3.658,1.648
		c1.605,0,2.871-0.523,3.797-1.572c0.926-1.047,1.388-2.513,1.388-4.397c0-1.933-0.449-3.425-1.347-4.48
		C212.691,3.815,211.451,3.288,209.873,3.288z"/>
	<path d="M230.78,16.615h-2.103l-7.531-11.664c-0.189-0.292-0.347-0.599-0.469-0.919h-0.063c0.057,0.313,0.082,0.983,0.082,2.01
		v10.573h-1.715V1.981h2.226l7.327,11.481c0.307,0.475,0.504,0.801,0.592,0.979h0.041c-0.066-0.422-0.102-1.139-0.102-2.153V1.981
		h1.716v14.634H230.78z"/>
</g>
</svg>
