<?xml version="1.0" encoding="utf-8"?>
<!-- Generator: Adobe Illustrator 16.0.0, SVG Export Plug-In . SVG Version: 6.00 Build 0)  -->
<!DOCTYPE svg PUBLIC "-//W3C//DTD SVG 1.1//EN" "http://www.w3.org/Graphics/SVG/1.1/DTD/svg11.dtd">
<svg version="1.1" id="圖層_1" xmlns="http://www.w3.org/2000/svg" xmlns:xlink="http://www.w3.org/1999/xlink" x="0px" y="0px"
	 width="110px" height="110px" viewBox="0 0 110 110" enable-background="new 0 0 110 110" xml:space="preserve">
<g>
	<circle fill="#DE1A15" cx="55" cy="55" r="55"/>
	<circle fill="#FFFFFF" cx="55" cy="55" r="50.816"/>
	<g>
		<path fill="#DE1A15" d="M54.998,43.334C43.992,43.334,35.07,55,35.07,55s8.922,11.666,19.928,11.666
			C66.006,66.666,74.929,55,74.929,55S66.007,43.334,54.998,43.334L54.998,43.334z M54.998,63.076c-4.459,0-8.076-3.615-8.076-8.076
			s3.617-8.077,8.076-8.077c4.461,0,8.078,3.616,8.078,8.077S59.459,63.076,54.998,63.076L54.998,63.076z M58.172,51.828
			c0.813,0.812,1.314,1.933,1.314,3.172c0,2.479-2.01,4.486-4.488,4.486c-2.478,0-4.486-2.009-4.486-4.486
			c0-1.239,0.503-2.361,1.314-3.172L54.998,55L58.172,51.828z"/>
	</g>
</g>
</svg>
