<?xml version="1.0" encoding="utf-8"?>
<!-- Generator: Adobe Illustrator 16.0.0, SVG Export Plug-In . SVG Version: 6.00 Build 0)  -->
<!DOCTYPE svg PUBLIC "-//W3C//DTD SVG 1.1//EN" "http://www.w3.org/Graphics/SVG/1.1/DTD/svg11.dtd">
<svg version="1.1" id="圖層_1" xmlns="http://www.w3.org/2000/svg" xmlns:xlink="http://www.w3.org/1999/xlink" x="0px" y="0px"
	 width="110px" height="110px" viewBox="0 0 110 110" enable-background="new 0 0 110 110" xml:space="preserve">
<g>
	<circle fill="#DE1A15" cx="55" cy="55" r="55"/>
	<circle fill="#FFFFFF" cx="55" cy="55" r="50.816"/>
	<g>
		<path fill="#DE1A15" d="M52.018,55.5c-0.146-0.146-0.313-0.217-0.501-0.217s-0.356,0.071-0.501,0.217l-7.229,7.229l-3.135-3.136
			c-0.276-0.275-0.604-0.414-0.979-0.414s-0.705,0.139-0.979,0.414c-0.273,0.274-0.414,0.604-0.414,0.979v9.752
			c0,0.377,0.141,0.705,0.414,0.979c0.276,0.274,0.604,0.414,0.979,0.414h9.753c0.378,0,0.705-0.14,0.98-0.414
			c0.273-0.274,0.414-0.604,0.414-0.979c0-0.377-0.141-0.703-0.414-0.979l-3.137-3.135l7.229-7.229
			c0.146-0.146,0.219-0.313,0.219-0.502s-0.072-0.355-0.219-0.501L52.018,55.5z"/>
		<path fill="#DE1A15" d="M71.306,38.692c-0.274-0.274-0.603-0.413-0.979-0.413h-9.754c-0.377,0-0.703,0.139-0.979,0.413
			c-0.275,0.276-0.413,0.604-0.413,0.98c0,0.378,0.138,0.702,0.413,0.979l3.137,3.135l-7.229,7.229
			c-0.146,0.145-0.221,0.313-0.221,0.5s0.074,0.355,0.221,0.501l2.48,2.481c0.146,0.146,0.313,0.217,0.5,0.217
			c0.188,0,0.354-0.072,0.502-0.217l7.229-7.229l3.134,3.138c0.276,0.273,0.604,0.412,0.979,0.412c0.377,0,0.705-0.139,0.979-0.412
			c0.274-0.277,0.413-0.604,0.413-0.98v-9.754C71.719,39.295,71.584,38.969,71.306,38.692L71.306,38.692z"/>
	</g>
</g>
</svg>
