<?xml version="1.0" encoding="utf-8"?>
<!-- Generator: Adobe Illustrator 15.1.0, SVG Export Plug-In . SVG Version: 6.00 Build 0)  -->
<!DOCTYPE svg PUBLIC "-//W3C//DTD SVG 1.1//EN" "http://www.w3.org/Graphics/SVG/1.1/DTD/svg11.dtd">
<svg version="1.1" id="圖層_1" xmlns="http://www.w3.org/2000/svg" xmlns:xlink="http://www.w3.org/1999/xlink" x="0px" y="0px"
	 width="239.461px" height="198.227px" viewBox="0 0 239.461 198.227" enable-background="new 0 0 239.461 198.227"
	 xml:space="preserve">
<polygon opacity="0.15" fill="#FFFFFF" enable-background="new    " points="239.461,98.873 200.168,59.579 200.168,0.001 0,0.001 
	0,198.226 200.168,198.226 200.168,138.167 "/>
<path fill-rule="evenodd" clip-rule="evenodd" d="M-328.769-246.387c3.667,0,7.333,0,11,0c0,2,0,4,0,6c2.333,0,4.667,0,7,0
	c0,10,0,20,0,30c-8.333,0-16.667,0-25,0c0-8,0-16,0-24c2.333,0,4.667,0,7,0C-328.769-238.387-328.769-242.387-328.769-246.387z
	 M-322.769-238.387c2.168,0.168,0.453-3.547,1-5c-1,0-2,0-3,0C-324.326-241.497-326.129-237.36-322.769-238.387z M-322.769-232.387
	c2.168,0.168,0.453-3.547,1-5c-1,0-2,0-3,0C-324.326-235.497-326.129-231.36-322.769-232.387z M-315.769-232.387
	c2.168,0.168,0.453-3.547,1-5c-1,0-2,0-3,0C-317.326-235.497-319.129-231.36-315.769-232.387z M-329.769-226.387
	c2.168,0.168,0.453-3.547,1-5c-1,0-2,0-3,0C-331.326-229.497-333.129-225.36-329.769-226.387z M-322.769-226.387
	c2.168,0.168,0.453-3.547,1-5c-1,0-2,0-3,0C-324.326-229.497-326.129-225.36-322.769-226.387z M-315.769-226.387
	c2.168,0.168,0.453-3.547,1-5c-1,0-2,0-3,0C-317.326-229.497-319.129-225.36-315.769-226.387z M-329.769-220.387
	c2.168,0.168,0.453-3.547,1-5c-1,0-2,0-3,0C-331.326-223.497-333.129-219.36-329.769-220.387z M-322.769-220.387
	c2.168,0.168,0.453-3.547,1-5c-1,0-2,0-3,0C-324.326-223.497-326.129-219.36-322.769-220.387z M-315.769-220.387
	c2.168,0.168,0.453-3.547,1-5c-1,0-2,0-3,0C-317.326-223.497-319.129-219.36-315.769-220.387z M-329.769-214.387
	c2.168,0.168,0.453-3.547,1-5c-1,0-2,0-3,0C-331.326-217.497-333.129-213.36-329.769-214.387z M-322.769-214.387
	c2.168,0.168,0.453-3.547,1-5c-1,0-2,0-3,0C-324.326-217.497-326.129-213.36-322.769-214.387z M-315.769-214.387
	c2.168,0.168,0.453-3.547,1-5c-1,0-2,0-3,0C-317.326-217.497-319.129-213.36-315.769-214.387z"/>
<g>
	<path fill="#FFFFFF" d="M119.173,131.02c-1.319,0-2.388-1.067-2.388-2.386s1.069-2.388,2.388-2.388h5.223v-5.729
		c0-2.636-1.95-4.773-4.587-4.773h-11.961v25.777h11.961c2.637,0,4.587-2.136,4.587-4.772v-5.729H119.173z"/>
	<path fill="#FFFFFF" d="M103.073,90.285c0-0.108,0.177-0.212,0.17-0.318h2.562c10.265,0,18.617-8.353,18.617-18.619
		c0-10.265-8.352-18.617-18.617-18.617H90.847c-10.265,0-18.617,8.352-18.617,18.617c0,10.266,8.352,18.619,18.617,18.619h2.881
		c-0.006,0.106-0.201,0.21-0.201,0.318v52.193c0,2.636,2.136,4.773,4.773,4.773c2.635,0,4.773-2.138,4.773-4.773V90.285z
		 M81.777,71.348c0-5.001,4.068-9.069,9.069-9.069h14.959c5.001,0,9.069,4.068,9.069,9.069c0,5.001-4.068,9.071-9.069,9.071H90.847
		C85.846,80.419,81.777,76.35,81.777,71.348z"/>
</g>
</svg>
