<?xml version="1.0" encoding="utf-8"?>
<!-- Generator: Adobe Illustrator 15.1.0, SVG Export Plug-In . SVG Version: 6.00 Build 0)  -->
<!DOCTYPE svg PUBLIC "-//W3C//DTD SVG 1.1//EN" "http://www.w3.org/Graphics/SVG/1.1/DTD/svg11.dtd">
<svg version="1.1" id="圖層_1" xmlns="http://www.w3.org/2000/svg" xmlns:xlink="http://www.w3.org/1999/xlink" x="0px" y="0px"
	 width="239.461px" height="198.227px" viewBox="0 0 239.461 198.227" enable-background="new 0 0 239.461 198.227"
	 xml:space="preserve">
<polygon opacity="0.15" fill="#FFFFFF" enable-background="new    " points="239.461,98.873 200.168,59.579 200.168,0.001 0,0.001 
	0,198.226 200.168,198.226 200.168,138.167 "/>
<g>
	<g>
		<path fill="#FFFFFF" d="M83.614,98.534c-0.048,1.979-0.159,3.92-0.377,5.896c-5.56,1.016-10.358,5.606-10.358,11.423
			c0,0.444,0.029,0.887,0.087,1.347c0.003,2.358,0.185,4.966,0.507,7.325c-1.292,0.544-2.734,1.094-4.333,1.094H50.062
			c-6.894,0-11.146-6.067-12.568-13.147c-1.066-4.545-1.731-9.215-1.739-13.763c-0.057-0.456-0.087-0.9-0.087-1.344
			c0-6.603,6.185-11.645,12.648-11.645h7.498c-0.463,3.469,1.06,5.122,1.917,5.25c-1.551,5.281-4.938,15.63-2.512,21.882
			c0.661,2.143,2.024,7.724,4.253,7.871c2.166,0,3.984-5.739,4.674-7.901c2.037-5.54-0.31-16.419-1.755-21.849
			c3.254-1.182,2.512-5.255,1.755-5.255h6.907C77.949,85.719,84.381,91.399,83.614,98.534z"/>
		<path fill="#FFFFFF" d="M72.867,69.411c0,7.169-5.831,13.162-12.889,13.162c-7.016,0-12.681-5.991-12.681-13.162
			c0-7.224,5.665-13.157,12.681-13.157C67.038,56.254,72.867,62.188,72.867,69.411z"/>
	</g>
	<g>
		<path fill="#FFFFFF" d="M165.115,98.141c-0.112,4.546-0.543,7.761-1.897,12.279c-1.42,7.069-5.431,11.728-12.578,11.728h-19.077
			c-1.593,0-3.046,0.779-4.353,0.213c0.256-2.126,0.379-3.705,0.431-5.836c0.669-6.217-4.128-11.134-9.932-12.36
			c-0.002,0-0.002,0.134-0.002,0.134c-0.29-2.212-0.447-4.358-0.452-6.572c-0.058-0.457-0.086-0.411-0.086-0.855
			c0-6.601,6.185-11.152,12.649-11.152h7.498c-0.463,0,1.058,4.73,1.916,4.857c-1.552,5.28-4.936,15.435-2.511,21.684
			c0.659,2.143,2.023,7.626,4.253,7.774c2.165,0,3.984-5.785,4.673-7.947c2.038-5.542-0.311-16.052-1.754-21.482
			c3.253-1.182,2.513-4.887,1.754-4.887h6.909C159.446,85.719,165.88,91.006,165.115,98.141z"/>
		<path fill="#FFFFFF" d="M154.368,68.625c0,7.17-5.832,13.162-12.891,13.162c-7.016,0-12.68-5.991-12.68-13.162
			c0-7.224,5.664-13.157,12.68-13.157C148.538,55.468,154.368,61.401,154.368,68.625z"/>
	</g>
	<g>
		<path fill="#FFFFFF" d="M111.412,106.534h-6.908c0.758,0,1.5,3.719-1.755,4.898c1.445,5.431,3.792,16.164,1.755,21.705
			c-0.688,2.163-2.507,7.786-4.674,7.786c-2.229-0.149-3.592-5.801-4.254-7.944c-2.425-6.25,0.961-16.238,2.512-21.519
			c-0.857-0.131-2.38-1.456-1.916-4.927h-7.499l0,0c-6.899,0-13.479,5.329-12.562,12.585c0.007,4.545,0.673,8.614,1.739,13.159
			c1.423,7.081,5.675,12.418,12.569,12.418h19.079c7.147,0,11.158-5.715,12.578-12.782c1.353-4.519,1.784-8.502,1.896-13.047
			C124.739,111.731,118.306,106.534,111.412,106.534z"/>
		<path fill="#FFFFFF" d="M113.225,89.525c0,7.169-5.83,13.162-12.889,13.162c-7.016,0-12.679-5.991-12.679-13.162
			c0-7.224,5.663-13.157,12.679-13.157C107.394,76.367,113.225,82.301,113.225,89.525z"/>
	</g>
</g>
</svg>
