<?xml version="1.0" encoding="utf-8"?>
<!-- Generator: Adobe Illustrator 15.1.0, SVG Export Plug-In . SVG Version: 6.00 Build 0)  -->
<!DOCTYPE svg PUBLIC "-//W3C//DTD SVG 1.1//EN" "http://www.w3.org/Graphics/SVG/1.1/DTD/svg11.dtd">
<svg version="1.1" id="圖層_1" xmlns="http://www.w3.org/2000/svg" xmlns:xlink="http://www.w3.org/1999/xlink" x="0px" y="0px"
	 width="239.461px" height="198.227px" viewBox="0 0 239.461 198.227" enable-background="new 0 0 239.461 198.227"
	 xml:space="preserve">
<polygon opacity="0.15" fill="#FFFFFF" enable-background="new    " points="239.461,98.873 200.168,59.579 200.168,0.001 0,0.001 
	0,198.226 200.168,198.226 200.168,138.167 "/>
<g>
	<g>
		<g>
			<path fill="#FFFFFF" d="M60.959,67.312c-1.417,0-2.303,0.131-2.657,0.398c-0.355,0.266-0.415,0.565-0.178,0.897
				c0.235,0.332,0.827,0.897,1.771,1.697c0.472,0.398,0.827,0.73,1.063,0.997l40.039,34.299L141.037,71.5l0.886-0.997
				c0.944-0.796,1.564-1.363,1.86-1.695c0.296-0.333,0.266-0.665-0.088-0.997c-0.355-0.333-1.242-0.498-2.658-0.498H98.341
				L60.959,67.312L60.959,67.312z"/>
			<path fill="#FFFFFF" d="M55.645,75.289v50.652c0,1.463,0.532,2.959,1.595,4.486c1.063,1.53,2.126,2.295,3.189,2.295h81.141
				c1.063,0,2.127-0.765,3.189-2.295c1.063-1.527,1.595-3.023,1.595-4.486V75.289L101,114.376L55.645,75.289z"/>
		</g>
	</g>
</g>
</svg>
