<?xml version="1.0" encoding="utf-8"?>
<!-- Generator: Adobe Illustrator 15.1.0, SVG Export Plug-In . SVG Version: 6.00 Build 0)  -->
<!DOCTYPE svg PUBLIC "-//W3C//DTD SVG 1.1//EN" "http://www.w3.org/Graphics/SVG/1.1/DTD/svg11.dtd">
<svg version="1.1" id="圖層_1" xmlns="http://www.w3.org/2000/svg" xmlns:xlink="http://www.w3.org/1999/xlink" x="0px" y="0px"
	 width="239.461px" height="198.227px" viewBox="0 0 239.461 198.227" enable-background="new 0 0 239.461 198.227"
	 xml:space="preserve">
<polygon opacity="0.15" fill="#FFFFFF" enable-background="new    " points="239.461,98.799 200.168,59.505 200.168,0.001 0,0.001 
	0,198.226 200.168,198.226 200.168,138.093 "/>
<g>
	<circle fill="none" stroke="#FFFFFF" stroke-width="7" stroke-miterlimit="10" cx="103.731" cy="99.583" r="52.441"/>
	<path fill="#FFFFFF" d="M130.676,78.577c0.426-0.425,0.639-1.062,0.639-1.485c0-0.426-0.213-1.061-0.639-1.486l-2.971-2.97
		c-0.422-0.425-1.058-0.637-1.48-0.637c-0.43,0-1.063,0.211-1.486,0.637l-1.063,1.061c-0.423,0.424-1.063,0.424-1.486,0
		l-1.061-1.061c-0.424-0.425-1.06-0.637-1.483-0.637c-0.425,0-1.062,0.211-1.486,0.637l-2.969,2.97c-0.85,0.848-0.85,2.123,0,2.971
		l1.059,1.06c0.426,0.425,0.426,1.06,0,1.486l-1.059,1.061c-0.428,0.424-1.062,0.424-1.486,0l-1.06-1.061
		c-0.849-0.849-2.124-0.849-2.974,0l-2.968,2.969c-0.849,0.849-0.849,2.124,0,2.971l1.06,1.061c0.424,0.426,0.424,1.062,0,1.486
		l-1.695,1.697c-0.425,0.426-0.849,0.426-1.275,0.211c-2.969-1.696-6.152-2.545-9.546-2.545c-10.609,0-19.096,8.487-19.096,19.095
		c0,10.612,8.487,19.1,19.096,19.1c10.608,0,19.094-8.487,19.094-19.1c0-3.606-0.848-6.787-2.544-9.546
		c-0.215-0.426-0.215-0.848,0.21-1.273L130.676,78.577z M95.246,118.68c-5.86,0-10.609-4.752-10.609-10.612
		c0-5.856,4.749-10.607,10.609-10.607c5.857,0,10.608,4.751,10.608,10.607C105.854,113.928,101.103,118.68,95.246,118.68z"/>
</g>
</svg>
