<?xml version="1.0" encoding="utf-8"?>
<!-- Generator: Adobe Illustrator 15.1.0, SVG Export Plug-In . SVG Version: 6.00 Build 0)  -->
<!DOCTYPE svg PUBLIC "-//W3C//DTD SVG 1.1//EN" "http://www.w3.org/Graphics/SVG/1.1/DTD/svg11.dtd">
<svg version="1.1" id="圖層_1" xmlns="http://www.w3.org/2000/svg" xmlns:xlink="http://www.w3.org/1999/xlink" x="0px" y="0px"
	 width="239.461px" height="198.227px" viewBox="0 0 239.461 198.227" enable-background="new 0 0 239.461 198.227"
	 xml:space="preserve">
<polygon opacity="0.15" fill="#FFFFFF" enable-background="new    " points="239.461,98.799 200.168,59.505 200.168,0.001 0,0.001 
	0,198.226 200.168,198.226 200.168,138.093 "/>
<g>
	<path fill="#FFFFFF" d="M125.981,82.189h-4.265v-3.525c0-9.161-7.44-16.662-16.615-16.662c-4.573,0-8.469,1.875-11.492,4.898
		c-3.021,3.022-4.626,7.177-4.626,11.764v3.525h-4.624c-1.834,0-3.276,1.183-3.276,3.004V126.6c0,1.82,1.442,2.996,3.276,2.996
		h41.621c1.819,0,3.638-1.176,3.638-2.996V85.194C129.619,83.371,127.802,82.189,125.981,82.189z M99.863,114.92l1.618-9.777
		c-0.783-0.875-1.268-2.049-1.268-3.315c0-2.739,2.213-4.963,4.952-4.963s4.964,2.227,4.964,4.963c0,1.269-0.485,2.44-1.283,3.315
		l1.634,9.777H99.863z M117.203,82.189H92.372v-3.525c0-3.399,1.599-6.502,3.84-8.756c2.252-2.254,5.262-3.642,8.673-3.642
		c6.826,0,12.317,5.585,12.317,12.398L117.203,82.189L117.203,82.189z"/>
	<circle fill="none" stroke="#FFFFFF" stroke-width="7" stroke-miterlimit="10" cx="103.731" cy="99.583" r="55.276"/>
</g>
</svg>
