<?xml version="1.0" encoding="utf-8"?>
<!-- Generator: Adobe Illustrator 15.1.0, SVG Export Plug-In . SVG Version: 6.00 Build 0)  -->
<!DOCTYPE svg PUBLIC "-//W3C//DTD SVG 1.1//EN" "http://www.w3.org/Graphics/SVG/1.1/DTD/svg11.dtd">
<svg version="1.1" id="圖層_1" xmlns="http://www.w3.org/2000/svg" xmlns:xlink="http://www.w3.org/1999/xlink" x="0px" y="0px"
	 width="239.461px" height="198.227px" viewBox="0 0 239.461 198.227" enable-background="new 0 0 239.461 198.227"
	 xml:space="preserve">
<polygon opacity="0.15" fill="#FFFFFF" enable-background="new    " points="239.461,98.74 200.168,59.447 200.168,-0.057 0,-0.057 
	0,198.167 200.168,198.167 200.168,138.034 "/>
<path fill="#FFFFFF" d="M128.127,80.772h-5.729v-4.734c0-12.307-9.994-22.382-22.318-22.382c-6.143,0-11.378,2.518-15.438,6.579
	c-4.059,4.059-6.214,9.64-6.214,15.803v4.734h-6.211c-2.464,0-4.401,1.589-4.401,4.036v55.622c0,2.446,1.936,4.025,4.401,4.025
	h55.91c2.446,0,4.886-1.58,4.886-4.025V84.808C133.015,82.361,130.572,80.772,128.127,80.772z M93.041,124.744l2.173-13.135
	c-1.051-1.178-1.703-2.751-1.703-4.457c0-3.678,2.973-6.667,6.651-6.667c3.68,0,6.669,2.99,6.669,6.667
	c0,1.707-0.652,3.279-1.722,4.457l2.193,13.135H93.041z M116.334,80.772H82.978v-4.734c0-4.567,2.149-8.735,5.159-11.762
	c3.025-3.028,7.068-4.894,11.651-4.894c9.17,0,16.546,7.503,16.546,16.655V80.772z"/>
</svg>
