<?xml version="1.0" encoding="utf-8"?>
<!-- Generator: Adobe Illustrator 16.0.0, SVG Export Plug-In . SVG Version: 6.00 Build 0)  -->
<!DOCTYPE svg PUBLIC "-//W3C//DTD SVG 1.1//EN" "http://www.w3.org/Graphics/SVG/1.1/DTD/svg11.dtd">
<svg version="1.1" id="圖層_1" xmlns="http://www.w3.org/2000/svg" xmlns:xlink="http://www.w3.org/1999/xlink" x="0px" y="0px"
	 width="117.5px" height="22.25px" viewBox="0 0 117.5 22.25" enable-background="new 0 0 117.5 22.25" xml:space="preserve">
<g>
	<path stroke="#000000" stroke-width="0.25" stroke-miterlimit="10" d="M10.858,16.449c0.354,0.381,0.69,0.694,1.01,0.939
		c0.32,0.245,0.641,0.438,0.964,0.582s0.655,0.241,0.995,0.296c0.34,0.054,0.711,0.082,1.112,0.082c0.109,0,0.228-0.005,0.357-0.015
		c0.129-0.01,0.26-0.027,0.393-0.051c0.133-0.024,0.26-0.051,0.383-0.082c0.123-0.03,0.235-0.066,0.337-0.107v2.776
		c-0.218,0.061-0.519,0.122-0.903,0.184c-0.384,0.061-0.852,0.092-1.403,0.092c-0.667,0-1.281-0.109-1.842-0.327
		c-0.562-0.218-1.099-0.515-1.612-0.893c-0.514-0.377-1.014-0.821-1.5-1.332s-0.992-1.058-1.515-1.643
		c-1-0.027-1.908-0.235-2.725-0.623s-1.514-0.91-2.092-1.566c-0.579-0.656-1.025-1.427-1.342-2.312C1.158,11.564,1,10.616,1,9.602
		c0-2.32,0.667-4.19,2-5.613C4.34,2.56,6.126,1.846,8.358,1.846c2.075,0,3.755,0.688,5.041,2.062
		c1.292,1.361,1.939,3.16,1.939,5.398c0,1.749-0.395,3.252-1.184,4.511C13.365,15.062,12.266,15.939,10.858,16.449z M8.246,4.683
		c-1.15,0-2.068,0.436-2.755,1.306C4.81,6.853,4.47,8,4.47,9.428c0,1.442,0.337,2.589,1.01,3.439
		c0.68,0.844,1.575,1.266,2.684,1.266c1.143,0,2.044-0.408,2.704-1.225c0.667-0.83,1-1.97,1-3.419c0-1.503-0.32-2.677-0.959-3.521
		C10.27,5.111,9.381,4.683,8.246,4.683z"/>
	<path stroke="#000000" stroke-width="0.25" stroke-miterlimit="10" d="M29.069,10.387c0,4.396-2.048,6.593-6.144,6.593
		c-3.973,0-5.959-2.146-5.959-6.439v-8.45h3.306v8.49c0,2.368,0.925,3.552,2.776,3.552c1.816,0,2.725-1.143,2.725-3.429V2.091h3.296
		V10.387z"/>
	<path stroke="#000000" stroke-width="0.25" stroke-miterlimit="10" d="M34.923,16.725h-3.296V2.091h3.296V16.725z"/>
	<path stroke="#000000" stroke-width="0.25" stroke-miterlimit="10" d="M48.113,16.204c-1.068,0.518-2.463,0.776-4.184,0.776
		c-2.245,0-4.01-0.66-5.296-1.98c-1.286-1.32-1.929-3.078-1.929-5.276c0-2.34,0.723-4.238,2.169-5.694
		c1.445-1.456,3.321-2.184,5.628-2.184c1.429,0,2.633,0.181,3.612,0.541v3.174c-0.979-0.585-2.096-0.878-3.347-0.878
		c-1.375,0-2.483,0.433-3.327,1.296c-0.844,0.864-1.266,2.034-1.266,3.51c0,1.416,0.398,2.543,1.194,3.383
		c0.796,0.841,1.867,1.261,3.214,1.261c1.286,0,2.463-0.313,3.531-0.939V16.204z"/>
	<path stroke="#000000" stroke-width="0.25" stroke-miterlimit="10" d="M62.202,16.725h-4.164l-4.266-6.357
		c-0.082-0.123-0.211-0.391-0.388-0.807h-0.051v7.164h-3.296V2.091h3.296V9.01h0.051c0.082-0.19,0.218-0.462,0.408-0.816
		l4.042-6.103h3.929l-5.103,6.98L62.202,16.725z"/>
	<path d="M79.126,16.725h-7.593V2.091h1.714v13.083h5.878V16.725z"/>
	<path d="M82.458,16.725h-1.714V2.091h1.714V16.725z"/>
	<path d="M97.476,16.725h-2.103L87.842,5.061c-0.19-0.292-0.347-0.599-0.469-0.918h-0.062c0.054,0.313,0.082,0.983,0.082,2.01
		v10.572h-1.715V2.091h2.225l7.327,11.48c0.306,0.477,0.503,0.803,0.592,0.98h0.041c-0.068-0.422-0.102-1.14-0.102-2.153V2.091
		h1.714V16.725z"/>
	<path d="M110.871,16.725h-2.388l-5.653-6.694c-0.211-0.251-0.341-0.422-0.388-0.51H102.4v7.205h-1.714V2.091h1.714v6.878h0.041
		c0.095-0.149,0.224-0.316,0.388-0.5l5.47-6.378h2.133l-6.276,7.021L110.871,16.725z"/>
</g>
<g>
</g>
<g>
</g>
<g>
</g>
<g>
</g>
<g>
</g>
<g>
</g>
</svg>
