<?xml version="1.0" encoding="utf-8"?>
<!-- Generator: Adobe Illustrator 15.1.0, SVG Export Plug-In . SVG Version: 6.00 Build 0)  -->
<!DOCTYPE svg PUBLIC "-//W3C//DTD SVG 1.1//EN" "http://www.w3.org/Graphics/SVG/1.1/DTD/svg11.dtd">
<svg version="1.1" id="圖層_1" xmlns="http://www.w3.org/2000/svg" xmlns:xlink="http://www.w3.org/1999/xlink" x="0px" y="0px"
	 width="239.461px" height="198.227px" viewBox="0 0 239.461 198.227" enable-background="new 0 0 239.461 198.227"
	 xml:space="preserve">
<polygon opacity="0.15" fill="#FFFFFF" enable-background="new    " points="239.461,98.873 200.168,59.579 200.168,0.001 0,0.001 
	0,198.226 200.168,198.226 200.168,138.167 "/>
<g>
	<path fill="#FFFFFF" d="M147.599,80.922c-5.231-12.195-14.119-21.065-26.417-26.308c-6.146-2.622-12.531-3.96-19.257-3.96
		c-6.726,0-13.117,1.326-19.257,3.96c-12.194,5.23-21.177,14.093-26.417,26.308c-2.625,6.119-3.904,12.53-3.904,19.256
		c0,6.726,1.278,13.189,3.904,19.313c5.24,12.214,14.223,21.129,26.418,26.361c6.139,2.635,12.531,3.96,19.257,3.96
		c6.727,0,13.111-1.339,19.256-3.96c12.299-5.244,21.187-14.168,26.417-26.361c2.634-6.142,3.961-12.585,3.961-19.313
		C151.559,93.451,150.231,87.061,147.599,80.922z M85.435,59.875c-4.286,5.422-7.432,12.313-9.438,20.667H63.031
		C67.806,71.265,75.834,63.834,85.435,59.875z M58.366,100.178c0-4.719,0.759-9.276,2.225-13.67h14.211
		c-0.705,4.61-1.031,9.168-1.031,13.67c0,4.447,0.327,8.951,1.031,13.56h-14.32C59.071,109.344,58.366,104.789,58.366,100.178z
		 M63.031,119.704h12.963c2.008,8.519,5.153,15.516,9.439,20.887C75.669,136.523,67.641,129.091,63.031,119.704z M98.887,143.301
		c-3.527-1.029-6.835-3.633-9.818-7.863c-2.984-4.232-5.262-9.492-6.835-15.733h16.653V143.301z M98.887,113.738h-18.01
		c-0.706-4.827-1.084-9.33-1.084-13.56c0-4.557,0.379-9.114,1.194-13.67h17.9V113.738L98.887,113.738z M98.887,80.542H82.234
		c1.682-6.185,3.973-11.385,6.944-15.569c2.997-4.225,6.184-6.835,9.709-7.812V80.542L98.887,80.542z M140.872,80.542h-12.964
		c-2.007-8.355-5.155-15.244-9.438-20.667C128.071,63.834,136.097,71.265,140.872,80.542z M105.016,57.162
		c3.527,0.977,6.714,3.588,9.71,7.812c2.973,4.185,5.261,9.384,6.943,15.569h-16.652C105.017,80.542,105.017,57.162,105.016,57.162z
		 M105.016,86.508h17.901c0.813,4.556,1.193,9.114,1.193,13.67c0,4.23-0.38,8.732-1.085,13.56h-18.01V86.508z M105.016,143.301
		v-23.597h16.652c-1.628,6.24-3.936,11.479-6.889,15.733C111.82,139.699,108.597,142.325,105.016,143.301z M118.47,140.591
		c4.283-5.371,7.433-12.369,9.44-20.887h12.962C136.262,129.091,128.23,136.523,118.47,140.591z M143.423,113.738h-14.321
		c0.707-4.609,1.032-9.112,1.032-13.56c0-4.501-0.326-9.061-1.032-13.67h14.212c1.465,4.394,2.225,8.95,2.225,13.67
		C145.537,104.789,144.832,109.344,143.423,113.738z"/>
</g>
</svg>
