<?xml version="1.0" encoding="utf-8"?>
<!-- Generator: Adobe Illustrator 23.0.5, SVG Export Plug-In . SVG Version: 6.00 Build 0)  -->
<svg version="1.1" id="Objects" xmlns="http://www.w3.org/2000/svg" xmlns:xlink="http://www.w3.org/1999/xlink" x="0px" y="0px"
	 viewBox="0 0 59.5 59.5" style="enable-background:new 0 0 59.5 59.5;" xml:space="preserve">
<style type="text/css">
	.st0{fill:#19207B;}
	.st1{fill:#FFFFFF;}
</style>
<g>
	<g>
		<circle class="st0" cx="29.7" cy="29.7" r="29.7"/>
	</g>
	<g>
		<g>
			<rect x="33.6" y="40.6" transform="matrix(0.6365 -0.7713 0.7713 0.6365 -19.5405 41.7768)" class="st1" width="2" height="2"/>
		</g>
		<g>
			<path class="st1" d="M28.3,37.8l1.3-1.5l2.4,2l-1.3,1.5L28.3,37.8z M23.5,33.8l1.3-1.5l2.4,2l-1.3,1.5L23.5,33.8z"/>
		</g>
		<g>
			<polygon class="st1" points="21.1,31.8 22.3,30.2 21.7,29.7 22.3,29.2 21.1,27.7 18.6,29.7 			"/>
		</g>
		<g>
			<path class="st1" d="M23.5,25.7l2.4-2l1.3,1.5l-2.4,2L23.5,25.7z M28.3,21.7l2.4-2l1.3,1.5l-2.4,2L28.3,21.7z"/>
		</g>
		<g>
			<rect x="33.6" y="16.9" transform="matrix(0.7714 -0.6364 0.6364 0.7714 -3.4651 26.0719)" class="st1" width="2" height="2"/>
		</g>
	</g>
</g>
</svg>
