<?xml version="1.0" encoding="utf-8"?>
<!-- Generator: Adobe Illustrator 23.0.5, SVG Export Plug-In . SVG Version: 6.00 Build 0)  -->
<svg version="1.1" id="Objects" xmlns="http://www.w3.org/2000/svg" xmlns:xlink="http://www.w3.org/1999/xlink" x="0px" y="0px"
	 viewBox="0 0 1191.4 1191.1" style="enable-background:new 0 0 1191.4 1191.1;" xml:space="preserve">
<style type="text/css">
	.st0{fill:#E4E5F0;}
</style>
<g id="XMLID_5955_">
	<g id="XMLID_5956_">
		<path id="XMLID_5959_" class="st0" d="M1115.1,314.4l-0.9-1.5l-0.4-0.8l0,0l-69.2-97.9l0.3,0.2l-1.7-2.1l0-0.2l-0.3-0.1l-0.9-1.3
			l0,0.1L997.9,156l-2.1-2.1l-0.4-0.4l0,0l-8.5-8.1l-31.7-26.5l-0.4-0.3l0,0l-0.1-0.1l0,0l-12.8-9.2l0,0l-6-4.2l0,0l0,0l0,0
			l-0.1-0.1l0,0l-7.1-4.7l0,0l-13.4-8.7l0,0l0,0l0,0l-4.9-3l0,0l-3.5-2.1l0,0l-2.2-1.3l0,0l-10.7-6.2l0,0l-0.1-0.1l0,0l-0.2-0.1
			l-3.1-1.8l0,0l-3.6-2l0,0l-4-2.1l0,0l-8.3-4.4l0,0l-3.9-2l0,0l-6.5-3.3l0,0l-3-1.5l0,0l-0.6-0.3l-11.2-5.4l0,0l-7.7-3.5l0,0
			l-0.3-0.1l0,0l-9.9-4.3l0,0l-6.6-2.7l-6.6-2.7l0,0l-0.1,0l0,0l-0.3-0.1l0,0l0,0l-8.3-3.2l0,0l-12.2-4.5l0,0l-3.1-1.1l0,0l-5.1-1.8
			l0,0l-5.6-1.8l0,0l-1.7-0.6l0,0l-12.4-3.9l0,0l-12.8-3.7l0,0l-12.8-3.4l0,0l-8.8-2.1l0,0l-8.6-2l0,0l-0.5-0.1l-0.9-0.2l-0.2-0.1
			l0,0l-10.3-2.2l0,0l-1.8-0.4l0,0l-13.5-2.5l0,0l-3.5-0.6l0,0l-8.1-1.3l0,0l-9.7-1.4l-6.7-0.9l0,0l-6.4-0.7l0,0l-0.9-0.1l0,0
			l-0.3-0.1l-2.1-0.2l-0.9-0.1l-0.7-0.1L656.8,3l0,0L652,2.5l0,0l-10.6-0.9l-15.8-0.9L610,0.1l0,0l-1.3,0l0,0l-1.2,0l0,0l-7,0l0,0
			L592,0l0,0l-7.1,0.1l0,0.2L580,0.2h-0.5L578,0.3l-0.6,0l0,0l-5.2,0.2l-7.1,0.3l0,0l-0.3,0l-0.1,0l0,0l-10.4,0.7l0,0l-2.8,0.2l0,0
			l-18.1,1.7l0,0l-4,0.4L512.6,6l0,0l-0.1,0l-0.1,0l0,0l0,0l-0.5,0.1l-12.6,1.9l0,0l-7.9,1.4l0,0l-5.8,1.1l0-0.1l-2.1,0.4l-0.2,0
			l0,0l-11,2.2l0,0l-0.2,0l0,0l0,0l0,0l-11.1,2.5l0,0l-1.4,0.3l-12.6,3.1l0,0L436,22.2l0,0l-9.2,2.6l0,0l-0.3,0.1l-0.2,0.1l0,0
			l-0.1,0l0,0l-0.1,0l-0.2,0.1l-3.2,0.9l-0.6,0.2l0,0l-6.6,2.1l-6.4,2.1l-0.1,0l0,0l-0.2,0.1l0,0l-12.8,5.4l0,0l0,0l-0.2,0.1l0,0
			l-1.3,0.7l0,0l-0.4,0.2l0,0l-1.5,0.8l-0.2,0.1l0,0l-3.8,2.1l0,0l-0.3,0.2l-1.3,0.7l0,0l-5,3l-0.4-0.1l-0.1,0.3l-74.2,33.8
			l-0.8,0.4l-0.5,0.3l0,0l-27.6,15.4l-0.1-0.3l-0.7,0.8l-0.4,0.2l0,0.1l-113.7,95.3l-3.5,0.8l-0.4,0.5l0,0l-6.6,7.2l0,0l-0.4,0.4
			l0,0l-7.2,8.2l0,0l-0.9,1l0,0l-8.4,10l0,0l-0.3,0.4l0,0l-4.4,5.5l-0.2,0.2l-0.3,0.4l-5,6.4l0,0l-5.5,7.2l0,0.1l0,0l-6.6,9l0,0
			l-0.9,1.2l0,0l-7.3,10.4l0,0l0,0l0,0l-5.9,8.8l0,0l-1.1,1.7l0,0L91.5,280l0,0l-0.8,1.3l0.1-0.3l-2.7,4.5l-0.2,0.3l0,0l-4.6,7.8
			l0,0l-4.6,7.9l0,0l0,0l-5.3,9.6l0,0l-0.7,1.3l0,0l-5.8,10.9l0,0.1l0,0l-0.5,1l0,0l-4,7.8l0,0l-1.1,2.2l0,0l-5.3,11.1l0,0l-0.1,0.2
			l0,0l-4.5,9.8l0,0l-0.5,1.2l-4.8,11.3l0,0l-0.1,0.1l0,0l-3,7.4l-0.3,0.8l-0.2,0.6l-2.3,5.8l0,0l-3,7.9l0,0l0,0l0,0l-0.6,1.7
			l-0.2,0.5l0,0l-3.9,11.1l0,0l-1.1,3.1l0,0l-0.5,1.5l-0.1,0.3l0,0l-1.6,4.9l0,0.1l0,0.1l0,0l-2.3,7.3l-0.3,1.1l-0.1,0.4l-1.8,5.9
			l0,0L22,437l0,0l0,0l-2.9,10.8l0,0l-0.2,0.9L16,460.5l0,0l0,0l0,0l-2.5,10.9l0,0l-0.2,0.9l-2.4,11.9l0,0l-1.8,10l0,0l-0.3,1.9l0,0
			l-2,12l0,0L6,513.1l0,0l-0.6,4.6l0,0L5,520.6l0,0L3.5,533l0,0l-0.4,3.4l0,0l-0.4,4l0,0l-0.4,5l0,0l-1,12.4l0,0l0,0l-0.6,10.9l0,0
			l-0.1,1.6l-0.4,12.4l0,0L0.1,585l0,0L0,593.6l0,0l0,1.7l0.1,12.4v0l0,0l0,0l0.3,11l0,0l0.1,1.4L1,632.4l0,0l0,0.1l0,0l0,0l0.7,10
			l0.1,0.7l0,0.1l0.4,5.3l0,0l0.8,8.6l0,0l0,0l1.2,10.8l0,0l0.2,1.5l1.6,12.3l0,0l0.2,1.5l0,0.1l0,0l1.3,8.6l0,0l0.4,2.3l2.1,12l0,0
			l0,0l0.7,3.6l0,0l1,4.8l0,0l0.8,3.8l0,0l2.7,12.2l0,0l2.5,10.6l0,0l0.4,1.5l3.2,12.1l0,0l0.4,1.4l0,0l2.6,9.3l0,0l0.4,1.4
			l3.4,11.1l0,0l0,0l5.3,15.8l0,0l0,0l2.2,6.2l0,0l0,0l0.4,1.2l0,0l0.1,0.2l0,0l0,0l0,0l1,2.7l0.1,0.2l0.3,0.8l0,0l0,0l2.6,6.8
			l0.8,2l3.5,8.9l0,0l1.6,3.9l0,0l3.9,9.2l0.4,0.9l0,0l4.9,10.9l0.2,0.4l0,0l0,0l0,0l4.9,10.2l0,0l0.6,1.3l5.3,10.6l0,0l0,0.1l0,0
			l0,0l0,0l4,7.6l0,0l7.7,14.1l0,0l2.5,4.3l0,0l2.8,4.7l0,0l1,1.7l0,0l6.5,10.6l0,0l9.8,15.1l0,0l1.8,2.7l0,0l0,0l0.1,0.1l0,0l0,0
			l0,0l0,0l0.4,0.6l0.1,0.1l1.4,2l0,0l6.7,9.6l0,0l0.4,0.6l7.4,10.1l0,0l0,0l0,0l5.5,7.2l0.1,0.1l0.5,0.6l4,5.1l0,0l5.3,6.7l0,0l0,0
			l2,2.5l0,0l0.9,1.1l0.2,0.3h0l6.1,7.2l0,0l6.4,7.4l0,0l0.1,0.1l0,0l7.5,8.3l0,0l2.6,2.8l6.2,6.6l0,0l0,0l0,0l0.1,0.1l0,0l0,0l0,0
			l7.8,7.9l0,0l0.6,0.6l8.6,8.4l0,0l0.1,0.1l0,0l0,0l0,0l8.5,8l0,0l0.5,0.5l0,0l8.7,7.9l0,0l11.4,9.8l-0.1,0l1.1,0.9l0.1,0.1l0,0
			l3.4,2.8l0,0l1.6,1.3l1,0.8l0,0l1.8,1.5l0,0l6.4,5.1l0,0l1.3,1l0,0l9.7,7.4l0,0l0,0l8.7,6.4l0,0l1.2,0.9l0,0l10,7l0,0l4.1,2.8l0,0
			l4.6,3.1l0,0l1.5,1l0,0l10.4,6.7l0,0l3.1,1.9l0,0l6.8,4.1l0,0l0.7,0.4l0,0l10.6,6.2l0,0l0.2,0.1l0,0l9.5,5.3l0,0l1.4,0.7l0,0
			l11.1,5.9l0,0l0.1,0l0.2,0.1l0,0l0,0l10.5,5.3l0,0l0.6,0.3l0,0l11.4,5.4l0,0l0.3,0.1l0,0l7.1,3.2l0,0l8.3,3.7l0,0l7.5,3.2l0,0l0,0
			l0,0l10.5,4.2l0,0l1.4,0.5l0,0l12,4.5l0,0l12.3,4.3l0,0l9.3,3.1l0,0l4.2,1.4l0,0l0.5,0.1l0,0l11.5,3.5l0,0l0.5,0.1l0,0l7.1,2l0,0
			l12.8,3.5l0,0l6.3,1.5l0,0l2,0.5l0,0l4.4,1l0,0l1.6,0.4l0.7,0.1l0,0l4.3,0.9l0,0l2.2,0.5l0,0l4.9,1l1.5,0.3l0,0l6.4,1.1l0,0
			l1.6,0.3l4.9,0.8l0,0l2.3,0.3l0,0l4.3,0.6l0,0l2.3,0.3l0,0l4.5,0.6l0,0l1.8,0.2l0.1,0l0,0l7.8,0.9l0,0l1.8,0.2l0,0l7.2,0.6
			l0.9,0.1l0,0l7.9,0.5l0,0l1.9,0.1l0,0l8.1,0.4l0,0l6.6,0.2h0l2.2,0l4.4,0.1l0,0l2.6,0l4.1,0l0,0l2.7,0l0,0l3.9-0.1l0,0l2.7-0.1
			l0,0l4-0.1l0,0l2.7-0.1l0,0l4-0.2l0.9,0.5l0-0.2l5.3,1.3l-3.4-1.7l4.6-0.3l1.8-0.1l0,0l6.7-0.5l0,0
			c72.2-6.7,154.7-17.4,208.3-32.2c1-0.3,2-0.6,3-0.8l0.3-0.1l0,0l10.3-4.1l0,0l7.4-3l0,0l5.3-2.3l0.2-0.1l0,0l15.5-7l0,0l0.3-0.1
			l0,0l15-7.2l16.9-8.8l0,0l0.3-0.1l0,0l5.6-3.1l0,0l0.5-0.3l0,0l4.9-2.8l0,0l8-4.7l0,0l2.8-1.7l4.8-2.8l0,0l1.5-0.9l0,0l2.2-1.3
			l0,0l14.2-9.1l0,0l12-8.1l0,0l0.9-0.7l0.8-0.6l4.7-3.3l0,0l0.2-0.2l0,0l10.1-7.5l0,0l7-5.3l0,0l10.2-8l0,0l0.9-0.7l0,0l10.9-9.1
			l0,0l2.7-2.3l0,0l6.7-5.9l0,0l7.1-6.5l4-3.6l0,0l1.5-1.4l0,0l7.1-6.8l0,0l1-1l0,0l9.5-9.5l0,0l1.4-1.4l0,0l5.9-6.2l0,0l1.8-1.9
			l0,0l8.9-9.7l0,0l7.5-8.6l0,0l3-3.6l6.2-7.4l0,0l0.1-0.1l0,0l1.8-2.2l0,0l5.1-6.4l0,0l1-1.3l0,0l7.8-10.2l0,0l0,0l1.3-1.8l0,0
			l5.2-7l0,0l1-1.4l0,0l7.3-10.4l0,0l4.2-6.3l0,0l2.4-3.5l0,0.1l1.3-2l0,0l0.2-0.3l1.6-2.5l0,0l4.2-6.5l0,0l5.8-9.4l0,0l0.8-1.3l0,0
			l6.3-10.8l0,0l0.4-0.6l0,0l4.5-8.1l0,0l1.1-2.1l0,0l4.3-8.1l1.7-3.2l0.3-0.6l0,0l5.1-10.1l0,0l5.4-11.1l0,0l0.1-0.2l0,0l4.5-9.8
			l0,0l2-4.6l3.4-7.9l0,0l0,0l0,0l0.1-0.1l0,0l3.3-8.1l0,0l2.1-5.3l0,0l3.5-9.2l0,0l3.8-10.5l0,0l0.3-1l3.9-11.5l0,0l0,0l0,0
			l3.3-10.6l0,0l0.3-0.9l3.4-11.6l0,0l0,0l2.8-10.2l0,0l0.4-1.5l2.9-11.8l0,0l1.4-6.1l0,0l1.4-6.1l0,0l0,0l0,0l0,0l0,0l2.2-14.6l0,0
			l0.6-4.4l0,0l1.2-11.1l0,0l0,0l0,0l0,0l0,0l0.6-6.8l0,0.1l0.2-2.4l0-0.3l0,0l0.7-8.5l-0.5-2.9l4.6-94l-0.1-2.6l0-0.4l0,0
			L1166,432.1L1115.1,314.4z M973.2,477.1l-4.6,14.7l-7.8-48.2l0,0l-0.1-0.7l-0.7-3.7l0,0L946.1,380l0,0l0,0l-0.1-0.2L834.5,142.5
			l1.6,1.2l130.5,116.2l39,46l0,0.1l0.1,0.1L974,474.5L973.2,477.1L973.2,477.1z M1047.9,720.7l-32.1,212.8l-37.8-46.6l-2-1.5l0,0
			l-0.1-0.1l0,0l-33.8-20.4l0.1-0.3l0,0l0.1-0.3l0,0l0,0l0.4-1.4l-0.2,0.1L974.4,687l71.9,29L1047.9,720.7z M381.8,1137.4l30.3-34.7
			l2.2,2.5l162.9,81.4l-192.9-48.5l0,0L381.8,1137.4z M231.4,906.2l-2.2-2.4l0,0l-3.7-4.2l0,0l-1.4-1.6l0,0l-4.7-5.4l-0.5-0.5
			l-74.5-103.1l-1.2-2l0.4-21.6l15.1-109l0.3-1.4l54.6,73.6l0.6,4.5l0,0l0.1,0.4l0,0.1L299.7,973l-61.4-59.3l-1.1-1.1l-3.6-3.9l0,0
			L231.4,906.2z M39.2,492.7l18-48.7L71.6,614c-0.3,0.2-0.9,0.5-1.6,0.8c-4.5,2.3-15.8,8.1-27.4,13.7c-5.8,2.8-11.6,5.5-16.6,7.8
			c-5,2.2-9.3,3.9-11.8,4.6c0,0,0,0,0,0c-0.8,0.2-1.4,0.3-1.8,0.3c0,0,0,0-0.1,0l25.8-144.9l1.1-3.4l0,0L39.2,492.7z M58.9,437
			l1.2-8.4l0,0l0.6-4.2l0,0l0.3-2.1l15.5-67.6l0,0l0,0l2.2-7.1l0,0l0.7-2l0,0l1.7-5.2L92,311.1l0.7-1.6l0,0l2-4.8l0,0l2-4.7l0,0
			l0.8-1.9l54.9-88.2l-6.2,19.1l1.5,35l1.2,4.4l-1.8,2.6l-3.8,5.6L58.9,437L58.9,437L58.9,437z M448.3,55.5l187.7,42l192.2,43
			l-106.5,35.2l-67.5,27.6l-48.5,19.8l0-0.2l-0.8,0.5L487.5,94.7l0,0L448.3,55.5L448.3,55.5L448.3,55.5L448.3,55.5z M832.2,140.9
			l0.3,0.8l0.1-0.1l18.6,39.7l-19.3-40.5L832.2,140.9z M944.7,380.4l13.8,59.1l0.7,3.6l0.1,0.7l0,0l8.1,49.9L857.8,346.9l-0.5-0.6
			l-2-2.3l0,0l-30.9-32.5l0.2-0.3l-0.3-0.1l11.6-117.8l-2.1-27.8l-1.7-21.5L944.7,380.4z M848.2,1055.6L848.2,1055.6l46.4-73.8l0,0
			l0.3-0.6l0,0l2.5-4.8l0,0l0.9-1.7l0,0l2-4l0,0l1.3-2.6l0,0l1.6-3.3l0,0l1.5-3.2l0,0l1.3-2.8l0,0l1.7-3.6l1.1-2.4l0,0l1.8-3.9
			l1-2.2l0,0l1.8-4.1l0.9-2l0,0l1.8-4.3l0.8-1.8l0,0l1.9-4.5l0.6-1.5l0,0l1.9-4.8l0,0l0.4-1l0,0l2.1-5.3l0,0l0,0l0,0l17.8-51.1
			l33.5,20.2l0.1,0.1l1.9,1.4l38.2,47.1L848.2,1055.6z M940.5,865.4l-18,51.5l0,0l-2.1,5.3l0,0l-0.4,1l0,0l-1.9,4.8l0,0l-0.6,1.5
			l-1.9,4.5l0,0l-0.8,1.8l-1.8,4.3l0,0l-0.9,2l-1.8,4.1l0,0l-1,2.2l-1.8,3.9l0,0l-1.1,2.4l-1.7,3.6l0,0l-1.3,2.8l0,0l-1.5,3.2l0,0
			l-1.6,3.3l0,0l-1.3,2.6l0,0l-2,4l0,0l-0.9,1.7l0,0l-2.5,4.8l0,0l-0.3,0.6l-47.2,75l1.3-19.7l-10-36l-0.4-0.8l0,0l-0.3-0.6l0,0
			L810.1,963l-23-21.2l2.3-1.3l16.1-9.1l51.2-27.1l0,0l49.5-23.7l2.5-1.1l0.9-0.4l0,0L940.5,865.4z M507.7,954.8l-84.3-148.3
			L541.4,710l-0.1,1.1l1.2-1.7l58.8,43.2l3.7,3.8l-96.2,198.4L507.7,954.8z M73.7,615.8l84.1,37.9l-0.2,0.8l0,0l-0.4,1.6
			l-15.1,109.2l-0.4,18.5l-8.1-20L73.7,615.8z M73,613.9l-7-82.7L58.4,442l0,0l0-0.1l0,0l0,0l0,0l35.1,13.3l0,0l50.7,12l1,0.2
			l4.8,0.9l1.1,0.2l4.8,0.9l0.3,0.1l0,0l65.1,10.8l-8.4,17.6l-54.7,154.4L73,613.9z M149.4,270.4l22.9,116.7l0.4,1l0,0l2.3,5.6l0,0
			l0.7,1.6l0,0l2.3,5.3l0,0l0.7,1.6l0,0l2.5,5.4l0,0l0.6,1.2l0,0l2.8,5.9l0,0l0.3,0.6l0,0l18.7,35.1l0,0l0.2,0.3l0,0l3.6,6.2l0,0
			l1.8,3l1.2,2l0,0l10.5,16.8l0,0l-17.9-3l-46.5-7.7l-0.3-0.1l-4.8-0.9l-1.1-0.2l-4.8-0.9l-0.9-0.2L94,453.9l-35.4-13.4l86-163
			l3.8-5.6L149.4,270.4z M357.3,375l160.5-97.1l86.3-52.2l0,0L561.5,555l-19.7,152L223.6,479.8l106.7-83.6L357.3,375z M854.2,345
			l2,2.2l0.5,0.5l110.8,148.4l0.1,0.2l-178.7,75.2l-0.1,0l-9.8,4.7l0,0l-73.8,37l0,0l-5.5,2.9l-3.2,1.7L555.9,699l0,0l-2.4,1.5
			l-8.5,5.3l278.5-393.2L854.2,345z M215.5,732.8L215.5,732.8l-0.4-3.5l206.3,77.4L322,945.5L301.6,974l-86-240.9L215.5,732.8z
			 M214.9,727.7l-0.6-4.8l0,0l-0.1-0.6l8.8-241.2l213,152.1l105.2,75.1l-118.9,97.2L214.9,727.7z M543.4,705.6l62.1-480.3
			l216.7,86.6L543.4,705.6z M543.6,708.4l10.6-6.7l2.4-1.5l140.6-81.1l0,0l3.1-1.7l5.5-2.9l73.8-37l9.8-4.7l0.1,0L967.3,498
			l-83.8,204.2l-277.3,51.7l-0.5,1l-3.4-3.5L543.6,708.4z M607.2,755.1l275.7-51.4l-97.2,236.7L606.7,756L607.2,755.1z M785.7,940.4
			L785.7,940.4l97.2-236.7L785.7,940.4z M834.3,193.3l-11.5,117.3l-215.9-86.3l115.5-47.2l108-35.7L834.3,193.3z M214.3,498.4
			l7.3-15.3l-8.8,239.2l0.1,0.7l0,0l0.3,2.6l-53.8-72.5L214.3,498.4z M422.4,807.6L302.8,974.7h0L422.4,807.6z M422.4,807.6
			l83.8,147.3l-203.4,19.8L422.4,807.6z M510.5,954.5l95.6-197.2l178,183.4l-62.5-6.7L510.5,954.5z M909,877.8L909,877.8l-0.9,0.4
			l-2.5,1.1l0,0L856.1,903l-51.2,27.1l-17.5,9.9l8.9-21.6l88.3-215l88.5-16.5l-32,176.7l0,0L909,877.8z M885.1,701.9l83-202.3
			l5,185.9L885.1,701.9z M446.2,55.3l40.3,40.3l98.4,107.7l18.1,19.8l-3.7-0.7l-5.5-1.1l-255.5-31.9L446.2,55.3z M337.1,191.1
			l0.1,0.1l0.1-0.4l256.1,32l5.5,1.1l4,0.8L356.5,373.8L223.7,477.9L255,372.7l50.5-120.3l3.2-6.5l0.4-0.7l0,0l13.4-26.5l0,0
			l0.6-1.2l3.2-6l0,0L337.1,191.1z M325,210.9L325,210.9l-3.2,6l-0.6,1.2l0,0l-13.4,26.5l0,0l-0.4,0.8l-3.2,6.5l-50.5,120.4
			l-31.5,105.8l0,0l31.5-105.8l-31.5,105.8l-10.5-16.8l-1.2-2l-1.8-3l0,0l-3.6-6.2l0,0l-0.2-0.3l-18.7-35.1l-0.3-0.6l0,0l-2.8-5.9
			l0,0l-0.6-1.2l0,0l-2.5-5.4l0,0l-0.7-1.6l0,0l-2.3-5.3l0,0l-0.7-1.6l0,0l-2.3-5.6l0,0l-0.4-0.9l-23.1-117.6l125.8-56.9l59-20.9
			L325,210.9z M12.9,642.6c0.5-0.1,1.1-0.2,1.7-0.4c3.1-0.9,8.2-3,14.2-5.7c16.3-7.3,39-19,43.2-21.2l69.7,171.7l0,0L91.9,898.8
			c-3.3-10.9-21.1-69.5-39.1-128c-9.9-32.4-19.9-64.9-27.5-89.2c-3.8-12.2-7-22.3-9.3-29.3c-1.1-3.5-2.1-6.3-2.7-8.2
			C13.1,643.5,13,643,12.9,642.6C12.8,642.6,12.8,642.6,12.9,642.6z M302.9,976.2l0.2,0l-0.1-0.1L448.3,962l58.6-5.7l0.5,0.9
			L412,1100.5L302.9,976.2z M582.5,1187.7l-167.4-83.6l-2.2-2.5l95.3-143.1l69.4,122.1l1,22.8L582.5,1187.7z M509.1,957.2l0.4-0.7
			l0.3-0.5l211.8-20.6l62.3,6.7l0,0l-205.3,137.3L509.1,957.2z M785.8,942.6l0.3,0.3l0-0.1l22.9,21.1l26.5,35.7l0.3,0.6l0,0l0.3,0.7
			l9.9,35.7l-1.4,21.5L581,1079.5L785.8,942.6z M845.8,1059.4L845.8,1059.4l0.2-0.4l0.2-0.3l164.3-118.5L814.9,1144L845.8,1059.4z
			 M974.6,685.6l-4.9-182.7l76,211.4L974.6,685.6z M1006.4,304.6l-38.7-45.7L837.1,142.6l-1.2-0.9l93.2,20.1l0,0l0,0l0.7,0.2
			l112,50.9l-6.3,40.8L1006.4,304.6z M859.8,62.4l0.6,0.3l0,0l3,1.5l0,0l6.5,3.3l0,0l3.9,2l0,0l8.3,4.4l0,0l4,2.1l3.6,2l0,0l3.1,1.8
			l0.2,0.1l0,0l0.1,0.1l0,0l10.7,6.2l0,0l2.2,1.3l0,0l3.5,2.1l0,0l4.9,3l0,0l0,0l13.4,8.7l0,0l7.1,4.7l0,0l0.1,0.1l0,0l0,0l0,0
			l6,4.2l0,0l12.8,9.2l0,0l0.1,0.1l0,0l0.4,0.3l0,0l31.7,26.5l8.5,8.1l0,0l0.4,0.4l2.1,2.1l43.3,53.7l0,0l-109.9-49.9l-0.8-0.2l0,0
			l0,0l0,0L834,139.9l23.4-32.4l0.1-0.1l0.8-1.3l8.8-23.2l0.1-0.5l0,0l0.1-0.6l0-0.1l-3.5-14.3l-0.3-0.5l0,0l-0.2-0.3l0-0.1
			l-0.1-0.1l-5-5L859.8,62.4z M695.2,9.4L695.2,9.4l3.5,0.6l0,0l13.5,2.5l0,0l1.8,0.4l0,0l10.3,2.2l0,0l0.2,0.1l0.9,0.2l0.4,0.1
			l8.6,2l0,0l8.8,2.1l0,0l12.8,3.4l12.8,3.7l0,0l12.4,3.9l0,0l1.7,0.5l5.6,1.9l0,0l5,1.7l3.1,1.1l0,0l12.2,4.5l8.3,3.2l0,0l0.3,0.1
			l0,0l0.1,0l0,0l6.6,2.7l6.6,2.7l9.8,4.3l0,0l0.3,0.2l0,0l7.6,3.5l0.3,0.2l6.8,4.1l6.4,6.2l0.2,0.3l0,0l0.2,0.3l3.4,13.8l0,0.5l0,0
			l0,0.4l-8.7,22.9l-0.7,1.2l0,0l-23.3,32.1l-5-12.7l0,0l-0.1-0.1l-0.4-1l0-0.1l-43.2-65.7l-0.5-0.5l0,0l-1.9-1.9l0,0l-0.8-0.7l0,0
			l-1.8-1.7l0,0l-0.8-0.7l0,0l-1.9-1.7l0,0l-0.4-0.3l-0.1-0.1l-0.3-0.2L690.4,8.7L695.2,9.4z M607.5,1.4L607.5,1.4l1.2,0l0,0l1.3,0
			l0,0L625.5,2l0,0L641.3,3l10.6,0.9l0,0l4.8,0.4l0,0l2.7,0.3l0.7,0.1l0.9,0.1L663,5l22.1,3.7l90.2,44.1l0.3,0.3l0,0l1.9,1.7l0,0
			l0.8,0.7l1.8,1.7l0,0l0.7,0.7l0,0l1.9,1.9l0,0l0.4,0.4l43,65.4l0.4,0.9l0.1,0.1l0,0l4.6,11.6l-0.2-0.2l0.2,0.3l-0.5-0.3l-0.7-1.5
			l0.1,1.1L607.5,1.4L607.5,1.4z M606.2,2.3l174.2,106.8L603.4,2.2L606.2,2.3z M529.6,5.2L529.6,5.2l3.9-0.4l0,0l18.1-1.7l0,0
			l2.8-0.2l10.4-0.7v0l0.1,0l0.3,0l0,0l7.1-0.3l5.2-0.2l0,0l0.5,0l1.5,0l0.4,0l0,0l20.8,0.6L822.3,136L515.2,7.1L529.6,5.2z
			 M491.7,10.8L491.7,10.8l7.8-1.4l0,0l12.6-2l0.3,0l239.3,100.4l71.6,30.1L585.7,84.8L447.4,53.8l26.9-30.5l9.8-11.1L491.7,10.8z
			 M436.4,23.6l11.1-3l0,0l0,0l12.6-3.1l1.4-0.3l0,0l11.1-2.5l0.2,0l0,0l9.2-1.9l-10.3,11.6l-25.5,28.8l-4.6-6.2l-0.8-1.1l-0.2-0.2
			l0,0l-10.5-14.5l0,0L430,31l0,0l-0.3-0.5l-0.2-0.2l0,0l-0.4-0.6l0,0l-1.7-3.6L436.4,23.6z M387.7,41.9L387.7,41.9l1.3-0.7l0.3-0.2
			l0,0l3.7-2l0,0l0.2-0.1l1.5-0.8l0,0l0.4-0.2l0,0l1.3-0.7l0,0l0.1-0.1l0,0l12.7-5.3l0.2-0.1l0,0l0.1,0l6.4-2.1l6.6-2.1l0.5-0.2
			l2.9-0.9l1.8,3.9l0.1,0.1l0.4,0.6l0,0l0.2,0.2l0.3,0.5l0,0L429,32l0,0l10.5,14.5l0,0l0.2,0.2l0.8,1.1l4,5.4l-0.5-0.1l0.2,0.2
			L384.2,44L387.7,41.9z M382.6,45.2l62.2,9.6l-67.1,83.4l-39.1,48.6L382.6,45.2z M306.7,79.6L306.7,79.6l0.5-0.3l0.8-0.4l73-33.2
			l-44.5,143.3l-35.1-25l-13.6-41.4l-9-27.5L306.7,79.6z M300.2,164.8l26.1,18.6l9.1,6.5l-59.5,21l-124.5,56.3L198,180l0.4-0.6l0,0
			l3.5-5l0,0l0.5-0.6l37.4-38.5l38-39.1L300.2,164.8z M201.3,172.8l-0.5,0.7l0,0l-3.5,5l0,0l-0.5,0.7l0,0L150,266.8l-0.8-2.8
			l-1.5-34.6l6.9-21.4l9.7-16.9l103.6-86.8L201.3,172.8z M92.7,280.8L92.7,280.8l6.8-10.6l0,0l1.1-1.7l0,0l5.9-8.8l0,0l0,0l0,0
			l7.3-10.4l0,0l0.9-1.2l6.6-9l0,0l0,0l5.5-7.2l0,0l5-6.4l0.3-0.4l0.2-0.2l4.4-5.5l0,0l0.3-0.4l0,0l8.4-9.9l0,0l0.9-1l0,0l7.2-8.2
			l0,0l0.4-0.4l0,0l6.6-7.2l0,0l0.1-0.2l1.6-0.4L96.4,297.5l-0.9,2l0,0l-2,4.7l0,0l-2,4.8l0,0l-0.7,1.6l0,0l-10.9,29.2l0,0l-1.7,5.2
			l0,0l-0.7,2l0,0l-2.2,7.1l0,0l0,0.1l0,0L59.7,422l-0.3,2.2l0,0l-0.6,4.2l0,0l-0.9,6.7l-2.9-27.1l-0.1-1.5l0,0l0-1.2l34.5-118.8
			L92.7,280.8z M32.1,408.7l1.4-4.2l0,0l3.9-11.1l0,0l0.2-0.5l0.6-1.7l0,0l0,0l0,0l3-7.9l0,0l2.3-5.8l0.2-0.6l0.3-0.8l3-7.4l0,0
			l0.1-0.1l0,0l4.8-11.3l0.5-1.2l0,0l4.5-9.8l0,0l0.1-0.2l0,0l5.3-11.1l0,0l1-2.2l0,0l4-7.8l0,0l0.5-1l0,0l0-0.1l5.8-10.9l0,0
			l0.7-1.3l0,0l5.3-9.6l0,0l4.6-7.9l0,0l1.9-3.2L53.3,405l0,0.1l0,1.3l0,0l0.1,1.5l0,0l3.4,31.7l-8.3-3.9l-0.1,0L32.1,408.7z
			 M21.3,749.5l-1.8-6.9l-0.4-1.5l-2.5-10.6l0,0l-2.7-12.2l0,0l-0.8-3.8l-1-4.8l0,0l-0.7-3.6l0,0l0,0l-2.1-12L9,691.8l0,0l-1.3-8.6
			l0,0l0,0l0-0.1l-0.2-1.5l0,0l-1.6-12.3l-0.2-1.5l0,0L4.4,657l0,0l-0.8-8.6l0,0l-0.4-5.3l0-0.1l-0.1-0.7l-0.7-10l0,0l0-0.1l0,0
			L1.8,620l-0.1-1.4l0,0l-0.3-10.9l0,0l0-0.1l-0.1-12.4l0-1.6l0,0l0.1-8.6l0,0l0.1-2.2l0,0L2,570.4l0.1-1.6l0,0L2.7,558l0,0l1-12.4
			l0,0l0.4-5l0,0l0.4-4l0,0l0.4-3.4l0,0l1.5-12.4l0,0l0.4-2.9l0,0l0.6-4.6l0,0l0.7-4.9l0,0l2-12l0,0l0.3-1.9l0,0l1.8-10l0,0
			l2.4-11.8l0.2-0.9l0,0l2.5-10.9l0,0l0,0l2.9-11.7l0.2-0.8l2.9-10.8l0,0l2.4-8.2l0,0l1.8-5.9l0.1-0.4l0.3-1.1l2.3-7.4l0,0l0-0.1
			l1.2-3.8l15.8,26.3l0.2,0.1l0,0l0.2,0.1l0,0l8.8,4.1l0,0.1l0.1,0l-18.8,51l0,0l-0.1,0.2l0,0l-1.1,3.5L10.8,641.3c0,0,0,0.1,0,0.1
			l0,0l0,0l0,0l0,0l0,0l0,0l0,0l0,0.4l-0.1,4.2l8.5,94.2L21.3,749.5z M92,913.3L92,913.3l-6.5-10.6l0,0l-1-1.7l0,0l-2.8-4.7
			l-2.5-4.3l0,0l-7.7-14.1l-4-7.6l0,0l0,0l0,0l0,0l0,0l0-0.1l0,0l-5.3-10.6l-0.6-1.3l-4.9-10.2l0,0l0,0l0,0l0,0l0,0l-0.2-0.4
			l-4.9-10.9l0,0l-0.4-0.9l-3.9-9.2l0,0l-1.6-3.9l0,0l-3.5-8.9l-0.8-2l-2.6-6.8l0,0l0,0l-0.3-0.8l-0.1-0.2l-1-2.7l0,0l-4.8-16
			l-7-23.2l0-0.2l0,0l-5-21.8l0,0L12.1,646l0-1c0.9,2.6,2.2,6.6,3.8,11.7c8.9,27.7,27.6,88.8,44.2,142.9c8.3,27.1,16,52.4,21.7,71
			c5.2,17,8.6,28.3,9.2,30.1l0,0l0,0l0,0l0.1,0.2c0,0,0,0,0,0l0,0l0,0.1l7,21.7L92,913.3z M135.5,974l-5.3-6.7l0,0l-4-5.1l-0.5-0.6
			l-0.1-0.1l-5.5-7.2l-0.1-0.1l0,0l-7.4-10.1l-0.4-0.5h0l-6.7-9.6l-1.4-2l-0.1-0.1l-0.4-0.6l-3.3-6.5l-7.9-23.9l49.9-112l0.7,1.6
			l0-1l0.1,0.1l0,0l74.6,103.2l0.5,0.6l4.7,5.4l0,0l1.4,1.6l0,0l3.7,4.2l0,0l2.2,2.4l2.3,2.5l0,0l3.6,3.9l1.1,1.2l62.4,60.2
			l-161.4,2.5L135.5,974z M202.4,1043.7L202.4,1043.7l-8.7-7.9l0,0l-0.5-0.5l0,0l-8.5-8l0,0l0,0l0,0l-0.1-0.1l0,0l-8.6-8.4l-0.6-0.6
			l0,0l-7.8-7.9l0,0l0,0l0,0l0-0.1l0,0l0,0l-6.2-6.6l-2.6-2.8l0,0l-7.5-8.3l0,0l-0.1-0.1l-6.4-7.4l0,0l-5.4-6.3l59.2-0.9l101.4-1.6
			l-0.1,0.1l1-0.1l0.3,0.8l0.3-0.4l109.7,125l-30.8,35.3l-162.1-79.8l-3.2-2.7l0,0L202.4,1043.7z M576.4,1188.4l-4,0.1l0,0l-2.7,0.1
			l0,0l-3.9,0.1l0,0l-2.7,0l0,0l-4.1,0l-2.5,0v0l-4.4-0.1l-2.2,0l0,0l-6.6-0.2l0,0l-8-0.4l-1.9-0.1l-7.9-0.5l0,0l-0.9-0.1l-7.2-0.6
			l0,0l-1.8-0.2h0l-7.8-0.9l0,0l-0.1,0l-1.8-0.2l0,0l-4.5-0.6l0,0l-2.3-0.3l0,0l-4.3-0.6l0,0l-2.3-0.3l0,0l-4.9-0.8l-1.6-0.3l0,0
			l-6.4-1.1l-1.5-0.3l-4.9-1l0,0l-2.2-0.5l0,0l-4.3-0.9l0,0l-0.7-0.1l-1.6-0.4l0,0l-4.4-1l0,0l-2-0.5l0,0l-6.3-1.5l-12.8-3.4l0,0
			l-7.1-2l0,0l-0.5-0.1l0,0l-11.5-3.5l0,0l-0.5-0.1l0,0l-4.2-1.4l0,0l-9.3-3.1l0,0l-12.2-4.3l0,0l-12-4.5l0,0l-1.4-0.5l-10.4-4.2
			l0,0l0,0l-7.5-3.2l0,0l-8.3-3.7l0,0l-7.1-3.2l0,0l-0.3-0.1l-11.3-5.4l0,0l-0.6-0.3l0,0l-10.5-5.3l0,0l0,0l-0.2-0.1l-0.1,0l0,0
			l-11.1-5.9l0,0l-1.4-0.7l-9.4-5.3l0,0l-0.2-0.1l0,0l-10.6-6.2l0,0l-0.7-0.4l0,0l-6.8-4.1l0,0l-3.1-1.9l0,0l-10.4-6.7l0,0l-1.5-1h0
			l-4.6-3.1l0,0l-4.1-2.8l0,0l-10-7l0,0l-1.2-0.9l0,0l-8.7-6.4l0,0l0,0l-9.6-7.4l0,0l-1.3-1l0,0l-6.2-4.9l157.3,77.4l0.1,0l0.6,0.2
			l0,0l3,0.8l0,0l194.5,48.9L576.4,1188.4L576.4,1188.4z M809.7,1154.2c-0.9,0.2-1.8,0.5-2.7,0.7c0,0,0,0,0,0
			c-53.4,14.7-135.9,25.4-208,32.1l-6.7,0.5l-1.8,0.1l-4.8,0.3l-1.7,0.1l-3.5-76.9l-1.4-30.1l264.9-21.5l-0.9,1.4l0.8-0.6
			l-31.4,86.1l-3.6,3.7l-225.9-68.8l-0.4,1.3l226.7,69.1l1.9-2L809.7,1154.2z M907.8,1106.1L907.8,1106.1l-4.8,2.8l-2.8,1.7l-8,4.7
			l0,0l-4.9,2.8l0,0l-0.5,0.3l0,0l-5.6,3l-0.3,0.1l0,0l-16.9,8.8l-15,7.2l0,0l-0.3,0.1l-15.5,7l0,0l-0.2,0.1l-5.3,2.3l0,0l-6.1,2.5
			l0-0.1l-1.9,0.8l0,0l-5.9,2.4l0,0l-2.4,1l2.3-6.3l201.3-209.7l-24.5,102.7l-81.3,65L907.8,1106.1z M1092.6,928.7L1092.6,928.7
			l-4.2,6.3l-7.3,10.4l0,0l-1,1.4l0,0l-5.2,7l0,0l-1.3,1.7l0,0l0,0l-7.8,10.2l0,0l-1,1.3l0,0l-5.1,6.4l0,0l-1.8,2.2l0,0l0,0.1l0,0
			l-6.2,7.4l-3,3.6l0,0l-7.5,8.5l-8.9,9.7l0,0l-1.8,1.9l0,0l-5.9,6.1l0,0l-1.4,1.4l0,0l-9.5,9.5l0,0l-1,1l0,0l-7.1,6.8l0,0l-1.5,1.4
			l0,0l-4,3.6l-7.1,6.5l0,0l-6.7,5.9l-2.7,2.3l-10.9,9.1l0,0l-0.9,0.7l0,0l-10.1,8l0,0l-7,5.3l0,0l-10.1,7.4l0,0l-0.2,0.2l0,0
			l-4.7,3.3l-0.8,0.6l-0.9,0.7l0,0l-12,8.1l0,0l-5.4,3.4l71.6-57.2l24.8-104.3l0.1,0.1l0.2-1.1l60.3-13.5l2-0.3l0,0l0.5-0.1l1.5-0.2
			l0,0l0.6-0.1l0,0l1.4-0.2l0,0l0.6-0.1l0,0l1.4-0.1v0l0.4,0l0,0l1.3-0.1l0,0l0.4,0l2.8-0.1l0.3,0l0,0l1.1,0l0,0l0.1,0l0,0l1,0
			l0.5,0l0.2,0l3.3,0.8l0,0.2l-0.1,0.4l-0.5,0.7l0,0l-0.2,0.3L1092.6,928.7z M1183.2,702.6l-0.6,4.4l0,0l-2.2,14.6l0,0l0,0l-1.4,6.1
			l0,0l-1.4,6.1l0,0l-2.9,11.8l-0.4,1.5l0,0l-2.7,10.2l0,0l-3.4,11.6l-0.3,0.9l0,0l-3.3,10.6l0,0l0,0h0l-3.9,11.5l-0.3,1l0,0
			l-3.8,10.5l0,0l-3.5,9.2l0,0l-2.1,5.3l0,0l-3.3,8.1l0,0l-0.1,0.1l0,0l0,0l0,0l-3.4,7.9l-2,4.6l0,0l-4.4,9.7l0,0l-0.1,0.2l0,0
			l-5.3,11.1l0,0l-5.1,10.1l0,0l-0.3,0.6l-1.7,3.2l-4.3,8.1l0,0l-1.1,2.1h0l-4.5,8.1l0,0l-0.4,0.6l-6.3,10.8l0,0l-0.8,1.3l-5.8,9.4
			l0,0l-4.1,6.5l0,0l-0.2,0.3l-4.2-1l-0.3,0l0,0l-0.6,0l-1,0l0,0l-0.2,0l0,0l-1.1,0l0,0l-0.3,0l0,0l-2.8,0.1l-0.4,0l0,0l-1.3,0.1
			l0,0l-0.4,0l0,0l-1.4,0.1l0,0l-0.6,0.1l0,0l-1.4,0.2l0,0l-0.6,0.1l0,0l-1.5,0.2l-0.5,0.1l0,0l-2,0.3l0,0l0,0l0,0l-58.6,13.1
			l70.3-74.2l56.8-77l0.6-0.9l1.1-1.8l35.6-77.7l0.7-2.3L1183.2,702.6z M1181.5,701.9l-35.5,77.5l-1.1,1.8l-0.5,0.9l-56.7,76.8
			l-70.3,74.2l32-212.5l-1.3-3.5l96.5,58l0.7-1.2l-97.7-58.8l-0.2-0.1l-77.8-216.7l0-0.2l160.2,76.9l55.2,106.8l-0.5,9.7
			L1181.5,701.9z M1185.4,670.9l-0.4,8.1l-54.3-105l-161.3-77.5l0.4-1.1l-0.7,0.2l-0.1-0.8l5.4-17.4l0,0l0.8-2.7l0,0l0,0l31.6-167.6
			l14.8,12.7l130.5,168.7L1185.4,670.9z M1189.9,573.9l0,0.4l0.1,2.5l-4.3,87.9L1153.6,488l-130.8-169.1l-15.4-13.2l29.4-51.5
			l6.2-39.8l69.7,98.5l0.4,0.7l0.8,1.4l50.8,117.4L1189.9,573.9z"/>
		<polygon id="XMLID_5958_" class="st0" points="582.7,1082.7 582.7,1082.7 582.7,1082.7 		"/>
	</g>
</g>
</svg>
