<?xml version="1.0" encoding="utf-8"?>
<!-- Generator: Adobe Illustrator 23.0.5, SVG Export Plug-In . SVG Version: 6.00 Build 0)  -->
<svg version="1.1" id="Layer_1" xmlns="http://www.w3.org/2000/svg" xmlns:xlink="http://www.w3.org/1999/xlink" x="0px" y="0px"
	 viewBox="0 0 110 110" style="enable-background:new 0 0 110 110;" xml:space="preserve">
<style type="text/css">
	.st0{fill:#FFFFFF;}
</style>
<g>
	<path class="st0" d="M26.4,58.1h39c0.7,0,1.3-0.6,1.3-1.3c0-0.7-0.6-1.3-1.3-1.3h-39c-0.7,0-1.3,0.6-1.3,1.3
		C25,57.5,25.6,58.1,26.4,58.1z"/>
	<path class="st0" d="M81.2,60.1c2.1,0,3.7-1.6,3.7-3.7c0-2.1-1.6-3.7-3.7-3.7h-0.1c-2.1,0-3.7,1.6-3.7,3.7
		C77.5,58.5,79.1,60.1,81.2,60.1z"/>
	<path class="st0" d="M85,69.3h4.5c3.4,0,6.6-3.2,6.6-6.6V50.3c0-3.4-3.2-6.6-6.6-6.6h-4.1l0,0H20.6c-1.6,0-3.3,0.7-4.5,2
		s-2,2.9-2,4.5v12.4c0,3.4,3.2,6.6,6.6,6.6H25 M27.1,69.4h55.8 M26.1,67.2h-5.5c-2.2,0-4.5-2.2-4.5-4.5V50.3c0-2.2,2.2-4.5,4.5-4.5
		h68.6l0,0h0.3c2.2,0,4.5,2.2,4.5,4.5v12.4c0,2.2-2.2,4.5-4.5,4.5h-5.5"/>
</g>
<g>
	<path class="st0" d="M26.4,34.3h39c0.7,0,1.3-0.6,1.3-1.3s-0.6-1.3-1.3-1.3h-39c-0.7,0-1.3,0.6-1.3,1.3S25.6,34.3,26.4,34.3z"/>
	<path class="st0" d="M81.2,36.4c2.1,0,3.7-1.6,3.7-3.7S83.2,29,81.2,29h-0.1c-2.1,0-3.7,1.6-3.7,3.7C77.5,34.7,79.1,36.4,81.2,36.4
		z"/>
	<path class="st0" d="M85,45.6h4.5c3.4,0,6.6-3.2,6.6-6.6V26.6c0-3.4-3.2-6.6-6.6-6.6h-4.1l0,0H20.6c-1.6,0-3.3,0.7-4.5,2
		c-1.3,1.3-2,2.9-2,4.5V39c0,3.4,3.2,6.6,6.6,6.6H25 M27.1,45.7h55.8 M26.1,43.5h-5.5c-2.2,0-4.5-2.2-4.5-4.5V26.6
		c0-2.2,2.2-4.5,4.5-4.5h68.6l0,0h0.3c2.2,0,4.5,2.2,4.5,4.5V39c0,2.2-2.2,4.5-4.5,4.5h-5.5"/>
</g>
<g>
	<path class="st0" d="M26.4,81.6h39c0.7,0,1.3-0.6,1.3-1.3s-0.6-1.3-1.3-1.3h-39c-0.7,0-1.3,0.6-1.3,1.3S25.6,81.6,26.4,81.6z"/>
	<path class="st0" d="M81.2,83.6c2.1,0,3.7-1.6,3.7-3.7c0-2.1-1.6-3.7-3.7-3.7h-0.1c-2.1,0-3.7,1.6-3.7,3.7
		C77.5,82,79.1,83.6,81.2,83.6z"/>
	<path class="st0" d="M85,92.8h4.5c3.4,0,6.6-3.2,6.6-6.6V73.8c0-3.4-3.2-6.6-6.6-6.6h-4.1l0,0H20.6c-1.6,0-3.3,0.7-4.5,2
		c-1.3,1.3-2,2.9-2,4.5v12.4c0,3.4,3.2,6.6,6.6,6.6H25 M27.1,92.9h55.8 M26.1,90.8h-5.5c-2.2,0-4.5-2.2-4.5-4.5V73.8
		c0-2.2,2.2-4.5,4.5-4.5h68.6l0,0h0.3c2.2,0,4.5,2.2,4.5,4.5v12.4c0,2.2-2.2,4.5-4.5,4.5h-5.5"/>
</g>
</svg>
