<?xml version="1.0" encoding="utf-8"?>
<!-- Generator: Adobe Illustrator 23.0.5, SVG Export Plug-In . SVG Version: 6.00 Build 0)  -->
<svg version="1.1" id="Layer_1" xmlns="http://www.w3.org/2000/svg" xmlns:xlink="http://www.w3.org/1999/xlink" x="0px" y="0px"
	 viewBox="0 0 75.3 81.2" style="enable-background:new 0 0 75.3 81.2;" xml:space="preserve">
<style type="text/css">
	.st0{fill:#FFFFFF;}
	.st1{fill:none;stroke:#FFFFFF;stroke-dasharray:0.5;}
</style>
<path class="st0" d="M57.3,28.1c0-3.3-1.5-5.6-4.3-7l-0.6-0.3l0-0.1L47.9,3c-0.1-0.4-0.5-0.7-0.9-0.7L26.8,2.4
	c-0.4,0-0.8,0.3-0.9,0.7L21.5,21L21,21.2c-2.9,1.4-4.4,3.9-4.4,7l0.1,24.9c0,2.2,0.8,5.2,4.4,7l0.5,0.2l0,0.1l4.6,17.8
	c0.1,0.4,0.5,0.7,0.9,0.7l20.2-0.1c0.7,0,0.9-0.7,0.9-0.7l4.5-17.9l0.4-0.2c1.6-0.8,4.4-2.8,4.4-7l0-10.7l0.2,0l0-3.6v0l-0.3,0
	L57.3,28.1z M27.5,4.2l18.7-0.1l4.1,16.2l-26.9,0.1L27.5,4.2z M46.5,77.1l-0.2,0l-18.5,0.1l0-0.2l-4.1-16l26.9-0.1L46.5,77.1z
	 M53.1,57.8c-1.2,0.9-2.7,1.3-3.6,1.3l-25,0.1c-3.3,0-6-2.7-6-6l-0.1-24.9c0-4.2,4.3-6,6-6l24.9-0.1c3.3,0,6,2.7,6,6l0.1,24.9
	C55.6,55.6,54.3,57,53.1,57.8z"/>
<g>
	<path class="st1" d="M38.3,38.5c4.2,3,7,6.3,6.3,7.4c-0.7,1.1-4.7-0.4-8.9-3.3c-4.2-3-7-6.3-6.3-7.4C30.1,34.1,34.1,35.5,38.3,38.5
		z"/>
	<path class="st1" d="M38.2,42.5c-3.8,3.5-7.5,5.6-8.4,4.6c-0.8-1,1.5-4.7,5.3-8.2c3.8-3.5,7.5-5.6,8.4-4.6
		C44.3,35.2,41.9,38.9,38.2,42.5z"/>
</g>
<path class="st0" d="M60.4,42.6c0,0.5-0.4,0.9-0.9,0.9h-1.9c-0.5,0-0.9-0.4-0.9-0.9v-4c0-0.5,0.4-0.9,0.9-0.9h1.9
	c0.5,0,0.9,0.4,0.9,0.9V42.6z"/>
</svg>
