<?xml version="1.0" encoding="utf-8"?>
<!-- Generator: Adobe Illustrator 23.0.5, SVG Export Plug-In . SVG Version: 6.00 Build 0)  -->
<svg version="1.1" id="Layer_1" xmlns="http://www.w3.org/2000/svg" xmlns:xlink="http://www.w3.org/1999/xlink" x="0px" y="0px"
	 viewBox="0 0 110 110" style="enable-background:new 0 0 110 110;" xml:space="preserve">
<style type="text/css">
	.st0{fill:#FFFFFF;}
</style>
<g>
	<path class="st0" d="M38.7,61.9H105V21.1H38.7V61.9z M40.4,23h62.9v37.2H40.4V23z"/>
</g>
<g>
	<path class="st0" d="M103.7,16.5H39.9c-3.1,0-5.6,2.7-5.6,5.9v38.5c0,3.3,2.5,5.9,5.6,5.9h63.8c3.1,0,5.6-2.7,5.6-5.9V22.4
		C109.4,19.2,106.8,16.5,103.7,16.5z M107.2,60.9c0,2.1-1.6,3.7-3.5,3.7H39.9c-1.9,0-3.5-1.7-3.5-3.7V22.4c0-2.1,1.6-3.7,3.5-3.7
		h63.8c1.9,0,3.5,1.7,3.5,3.7C107.2,22.4,107.2,60.9,107.2,60.9z"/>
</g>
<g>
	<path class="st0" d="M103.8,96.5H5.7c-2.9,0-5.3-2.2-5.3-4.9V76.7c0-2.7,2.4-4.9,5.3-4.9h98.1c2.9,0,5.3,2.2,5.3,4.9v14.9
		C109.2,94.3,106.8,96.5,103.8,96.5z M5.7,73.7c-1.8,0-3.2,1.3-3.2,3v14.9c0,1.6,1.4,3,3.2,3h98.1c1.8,0,3.2-1.3,3.2-3V76.7
		c0-1.6-1.4-3-3.2-3H5.7z"/>
</g>
<g>
	<rect x="69.6" y="65.8" class="st0" width="3.8" height="7.7"/>
</g>
<g>
	<path class="st0" d="M99.9,85.5H9.6c-0.6,0-1.1-0.5-1.1-1.1c0-0.6,0.5-1.1,1.1-1.1h90.3c0.6,0,1.1,0.5,1.1,1.1
		C101,85,100.5,85.5,99.9,85.5z"/>
</g>
<g>
	<path class="st0" d="M26,73.4H4.6c-2.3,0-4.1-1.9-4.1-4.1v-14c0-2.3,1.9-4.1,4.1-4.1H26c2.3,0,4.1,1.9,4.1,4.1v14
		C30.2,71.6,28.3,73.4,26,73.4z M4.6,53.1c-1.2,0-2.2,1-2.2,2.2v14c0,1.2,1,2.2,2.2,2.2H26c1.2,0,2.2-1,2.2-2.2v-14
		c0-1.2-1-2.2-2.2-2.2H4.6z"/>
</g>
<g>
	<path class="st0" d="M24,58H6.6c-0.5,0-1-0.4-1-1c0-0.5,0.4-1,1-1H24c0.5,0,1,0.4,1,1C25,57.6,24.6,58,24,58z"/>
</g>
<g>
	<path class="st0" d="M24,63.5H6.6c-0.5,0-1-0.4-1-1s0.4-1,1-1H24c0.5,0,1,0.4,1,1S24.6,63.5,24,63.5z"/>
</g>
<g>
	<path class="st0" d="M67.2,57H43.6c-0.2,0-0.4-0.2-0.4-0.5V27.4c0-0.3,0.2-0.5,0.4-0.5h23.6c0.2,0,0.4,0.2,0.4,0.5v29.1
		C67.6,56.8,67.4,57,67.2,57z M44,56.1h22.8V27.8H44V56.1z"/>
</g>
<g>
	<path class="st0" d="M78.8,36.1h-8.5c-0.2,0-0.3-0.2-0.3-0.3v-8.3c0-0.2,0.1-0.3,0.3-0.3h8.5c0.2,0,0.3,0.2,0.3,0.3v8.3
		C79.1,35.9,78.9,36.1,78.8,36.1z M70.6,35.4h7.9v-7.7h-7.9V35.4z"/>
</g>
<g>
	<path class="st0" d="M89.5,36.1H81c-0.2,0-0.3-0.2-0.3-0.3v-8.3c0-0.2,0.1-0.3,0.3-0.3h8.5c0.2,0,0.3,0.2,0.3,0.3v8.3
		C89.8,35.9,89.7,36.1,89.5,36.1z M81.3,35.4h7.9v-7.7h-7.9V35.4z"/>
</g>
<g>
	<path class="st0" d="M100.3,36.1h-8.5c-0.2,0-0.3-0.2-0.3-0.3v-8.3c0-0.2,0.1-0.3,0.3-0.3h8.5c0.2,0,0.3,0.2,0.3,0.3v8.3
		C100.6,35.9,100.5,36.1,100.3,36.1z M92.1,35.4h7.9v-7.7h-7.9V35.4z"/>
</g>
<g>
	<path class="st0" d="M78.8,46.3h-8.5c-0.2,0-0.3-0.2-0.3-0.3v-8.3c0-0.2,0.1-0.3,0.3-0.3h8.5c0.2,0,0.3,0.2,0.3,0.3V46
		C79.1,46.1,78.9,46.3,78.8,46.3z M70.6,45.6h7.9V38h-7.9V45.6z"/>
</g>
<g>
	<path class="st0" d="M89.5,46.3H81c-0.2,0-0.3-0.2-0.3-0.3v-8.3c0-0.2,0.1-0.3,0.3-0.3h8.5c0.2,0,0.3,0.2,0.3,0.3V46
		C89.8,46.1,89.7,46.3,89.5,46.3z M81.3,45.6h7.9V38h-7.9V45.6z"/>
</g>
<g>
	<path class="st0" d="M100.3,46.2h-8.5c-0.2,0-0.3-0.2-0.3-0.3v-8.3c0-0.2,0.1-0.3,0.3-0.3h8.5c0.2,0,0.3,0.2,0.3,0.3v8.3
		C100.6,46,100.5,46.2,100.3,46.2z M92.1,45.5h7.9v-7.7h-7.9V45.5z"/>
</g>
<g>
	<path class="st0" d="M78.8,56.6h-8.5c-0.2,0-0.3-0.2-0.3-0.3V48c0-0.2,0.1-0.3,0.3-0.3h8.5c0.2,0,0.3,0.2,0.3,0.3v8.3
		C79.1,56.5,78.9,56.6,78.8,56.6z M70.6,56h7.9v-7.7h-7.9V56z"/>
</g>
<g>
	<path class="st0" d="M100.3,56.6H81c-0.2,0-0.3-0.2-0.3-0.3V48c0-0.2,0.1-0.3,0.3-0.3h19.3c0.2,0,0.3,0.2,0.3,0.3v8.3
		C100.6,56.5,100.5,56.6,100.3,56.6z M81.3,56H100v-7.7H81.3V56z"/>
</g>
</svg>
