<?xml version="1.0" encoding="utf-8"?>
<!-- Generator: Adobe Illustrator 23.0.5, SVG Export Plug-In . SVG Version: 6.00 Build 0)  -->
<svg version="1.1" id="Layer_1" xmlns="http://www.w3.org/2000/svg" xmlns:xlink="http://www.w3.org/1999/xlink" x="0px" y="0px"
	 viewBox="0 0 512 512" style="enable-background:new 0 0 512 512;" xml:space="preserve">
<style type="text/css">
	.st0{fill:#FFFFFF;}
</style>
<g>
	<path class="st0" d="M425.4,180.2c0-90.8-73.9-164.7-164.7-164.7S96.1,89.4,96.1,180.2c0,63.5,37.1,122,94.6,149l1.7,0.8V466
		c0,3.9,5.1,8.9,8.9,8.9h29.9l0.1,2.9c0.3,15.9,13.6,28.9,29.5,28.9c15.9,0,29.2-13,29.5-28.9l0.1-2.9h29.9c3.9,0,8.9-5.1,8.9-8.9
		V330l1.7-0.8C388.3,302.2,425.4,243.7,425.4,180.2z M276.2,478c-0.4,8.2-7.3,14.7-15.5,14.7c-8.3,0-15.1-6.5-15.5-14.7l-0.2-3.1
		h31.4L276.2,478z M315.2,400.5h-60.6c-3.9,0-7,3.1-7,7c0,3.9,3.1,7,7,7h60.6v15.7h-48.6c-3.9,0-7,3.1-7,7c0,3.9,3.1,7,7,7h48.6
		l-1,16.7h-107l-1-76.1h108.9V400.5z M319.4,319c-2.6,1.1-4.3,3.6-4.3,6.4v45.4h-47.5V260.9l55.8-55.8c2.7-2.7,2.7-7.2,0-9.9
		c-1.3-1.3-3.1-2-4.9-2c-1.9,0-3.6,0.7-4.9,2l-57.8,57.8c-1.3,1.3-2,3.1-2,4.9v112.8h-47.5v-45.4c0-2.8-1.7-5.3-4.3-6.4
		c-55.9-23.7-92-78.2-92-138.8c0-83.1,67.6-150.7,150.7-150.7c83.1,0,150.7,67.6,150.7,150.7C411.4,240.9,375.3,295.4,319.4,319z"/>
	<path class="st0" d="M209.9,197.3c-1.3-1.3-3.1-2-4.9-2c-1.9,0-3.6,0.7-4.9,2c-2.7,2.7-2.7,7.2,0,9.9l29.2,29.2
		c1.4,1.4,3.2,2,4.9,2s3.6-0.7,4.9-2c2.7-2.7,2.7-7.2,0-9.9L209.9,197.3z"/>
</g>
</svg>
