<?xml version="1.0" encoding="utf-8"?>
<!-- Generator: Adobe Illustrator 23.0.5, SVG Export Plug-In . SVG Version: 6.00 Build 0)  -->
<svg version="1.1" id="Capa_1" xmlns="http://www.w3.org/2000/svg" xmlns:xlink="http://www.w3.org/1999/xlink" x="0px" y="0px"
	 viewBox="0 0 110 110" style="enable-background:new 0 0 110 110;" xml:space="preserve">
<style type="text/css">
	.st0{fill:#FFFFFF;}
</style>
<g>
	<path class="st0" d="M94.9,38.5h-15V12.2L71.2,5H29.6v33.5H15.1c-2.5,0-4.5,2-4.5,4.5v33c0,2.5,2,4.5,4.5,4.5h15V105h50.4V80.5
		h14.4c2.5,0,4.5-2,4.5-4.5V43C99.4,40.5,97.4,38.5,94.9,38.5z M72.1,9.5l3.2,2.7h-3.2V9.5z M32.4,7.9h36.8V15H77v22.9H32.4V7.9z
		 M77.6,102.1H32.9V64.8h44.7V102.1z M96.6,76c0,0.9-0.7,1.7-1.7,1.7H80.5V62H30.1v15.7h-15c-0.9,0-1.7-0.7-1.7-1.7V43
		c0-0.9,0.7-1.7,1.2-1.7h79.8c1.4,0,2.2,0.7,2.2,1.7V76z"/>
	<rect x="40.8" y="72.9" class="st0" width="29.2" height="2.9"/>
	<rect x="40.6" y="81.5" class="st0" width="29.2" height="2.9"/>
	<rect x="40.6" y="89.9" class="st0" width="29.2" height="2.9"/>
	<path class="st0" d="M32.3,48H20.7c-1,0-1.8,0.8-1.8,1.8s0.8,1.8,1.8,1.8h11.5c1,0,1.8-0.8,1.8-1.8S33.2,48,32.3,48z"/>
	<path class="st0" d="M86.3,46.6L86.3,46.6c-2.4,0-4.2,1.9-4.2,4.2S84,55,86.3,55c2.3,0,4.2-1.9,4.2-4.2S88.6,46.6,86.3,46.6z"/>
</g>
</svg>
