<?xml version="1.0" encoding="utf-8"?>
<!-- Generator: Adobe Illustrator 23.0.5, SVG Export Plug-In . SVG Version: 6.00 Build 0)  -->
<svg version="1.1" id="Layer_1" xmlns="http://www.w3.org/2000/svg" xmlns:xlink="http://www.w3.org/1999/xlink" x="0px" y="0px"
	 viewBox="0 0 110 110" style="enable-background:new 0 0 110 110;" xml:space="preserve">
<style type="text/css">
	.st0{fill:#FFFFFF;}
</style>
<g>
	<path class="st0" d="M13.6,58.6h12c1,0,1.8-0.8,1.8-1.8S26.6,55,25.6,55h-12c-1,0-1.8,0.8-1.8,1.8C11.8,57.8,12.6,58.6,13.6,58.6z"
		/>
	<path class="st0" d="M34,58.6h12c1,0,1.8-0.8,1.8-1.8S47,55,46,55H34c-1,0-1.8,0.8-1.8,1.8C32.1,57.8,33,58.6,34,58.6z"/>
	<path class="st0" d="M92.1,61.8c3,0,5.4-2.4,5.4-5.4S95.1,51,92.1,51H92c-3,0-5.4,2.4-5.4,5.4C86.7,59.4,89.1,61.8,92.1,61.8z"/>
	<path class="st0" d="M101.2,39.4h-5.5l0,0H8.8c-2.1,0-4.4,1-6.1,2.7C1,43.8,0,46,0,48.2v16.7c0,4.5,4.3,8.8,8.8,8.8h6v2.2
		c0,0.8,0.6,1.4,1.4,1.4c0.8,0,1.4-0.6,1.4-1.4v-2.1h74.8v2.1c0,0.8,0.6,1.4,1.4,1.4s1.4-0.6,1.4-1.4v-2.2h6c4.5,0,8.8-4.3,8.8-8.8
		V48.2C110,43.6,105.7,39.4,101.2,39.4z M16.2,70.9H8.8c-3,0-6-3-6-6V48.2c0-3,3-6,6-6h92l0,0h0.4c3,0,6,3,6,6v16.7c0,3-3,6-6,6
		h-7.4"/>
</g>
</svg>
