<?xml version="1.0" encoding="utf-8"?>
<!-- Generator: Adobe Illustrator 23.0.5, SVG Export Plug-In . SVG Version: 6.00 Build 0)  -->
<svg version="1.1" id="Layer_1" xmlns="http://www.w3.org/2000/svg" xmlns:xlink="http://www.w3.org/1999/xlink" x="0px" y="0px"
	 viewBox="0 0 110 110" style="enable-background:new 0 0 110 110;" xml:space="preserve">
<style type="text/css">
	.st0{fill:#FFFFFF;}
</style>
<path class="st0" d="M11.7,72.1c0,0.7,0.9,1.3,2,1.3h9.5c1.1,0,2-0.6,2-1.3v-1.3c0-0.7-0.9-1.3-2-1.3h-9.5c-1.1,0-2,0.6-2,1.3V72.1z
	"/>
<path class="st0" d="M35.8,72.1c0,0.7,0.9,1.3,2,1.3h9.5c1.1,0,2-0.6,2-1.3v-1.3c0-0.7-0.9-1.3-2-1.3h-9.5c-1.1,0-2,0.6-2,1.3V72.1z
	"/>
<path class="st0" d="M59.9,72.1c0,0.7,0.9,1.3,2,1.3h9.5c1.1,0,2-0.6,2-1.3v-1.3c0-0.7-0.9-1.3-2-1.3h-9.5c-1.1,0-2,0.6-2,1.3V72.1z
	"/>
<path class="st0" d="M84,72.1c0,0.7,0.9,1.3,2,1.3h9.5c1.1,0,2-0.6,2-1.3v-1.3c0-0.7-0.9-1.3-2-1.3H86c-1.1,0-2,0.6-2,1.3V72.1z"/>
<path class="st0" d="M101.2,56.4h-3.4v-6.2c0-6.1-5-11-11-11H38.2v-0.4c0-2.2-1.8-4-4-4h-8.3v1.6h-5.2v8.3h5.2v1.3h8.3
	c2.2,0,4-1.8,4-4v-0.6h48.5c4.9,0,9,4,9,9v6.2h0H8.8c-2.1,0-4.4,1-6.1,2.7C1,60.8,0,63,0,65.2v10.7c0,4.5,4.3,8.8,8.8,8.8h6h80.4h6
	c4.5,0,8.8-4.3,8.8-8.8V65.2C110,60.6,105.7,56.4,101.2,56.4z M25.9,42.6h-3.2v-4.3h3.2V42.6z M36.2,41.9c0,1.1-0.9,2-2,2h-6.2v-7.1
	h6.2c1.1,0,2,0.9,2,2V41.9z M107.2,75.9c0,3-3,6-6,6h-7.4H16.2H8.8c-3,0-6-3-6-6V65.2c0-3,3-6,6-6h92h0.4c3,0,6,3,6,6V75.9z"/>
</svg>
