<?xml version="1.0" encoding="utf-8"?>
<!-- Generator: Adobe Illustrator 23.0.5, SVG Export Plug-In . SVG Version: 6.00 Build 0)  -->
<svg version="1.1" id="Layer_1" xmlns="http://www.w3.org/2000/svg" xmlns:xlink="http://www.w3.org/1999/xlink" x="0px" y="0px"
	 viewBox="0 0 110 110" style="enable-background:new 0 0 110 110;" xml:space="preserve">
<style type="text/css">
	.st0{fill:#FFFFFF;}
</style>
<g>
	<path class="st0" d="M12.9,83.2h84.3V29.3H12.9V83.2z M15.1,31.8h80v49.2h-80V31.8z"/>
</g>
<g>
	<path class="st0" d="M98,20.4H12.2c-4.2,0-7.6,3.8-7.6,8.5V84c0,4.7,3.4,8.5,7.6,8.5H98c4.2,0,7.6-3.8,7.6-8.5V28.9
		C105.6,24.2,102.2,20.4,98,20.4z M102.7,84c0,2.9-2.1,5.2-4.7,5.2H12.2c-2.6,0-4.7-2.4-4.7-5.2V28.9c0-2.9,2.1-5.2,4.7-5.2H98
		c2.6,0,4.7,2.4,4.7,5.2C102.7,28.9,102.7,84,102.7,84z"/>
</g>
<g>
	<path class="st0" d="M49.2,76.7h-30c-0.3,0-0.6-0.3-0.6-0.6V37.5c0-0.3,0.2-0.6,0.6-0.6h30c0.3,0,0.6,0.3,0.6,0.6v38.5
		C49.7,76.4,49.5,76.7,49.2,76.7z M19.7,75.5h28.9V38.2H19.7V75.5z"/>
</g>
<g>
	<path class="st0" d="M63.9,49H53c-0.2,0-0.4-0.2-0.4-0.5v-11c0-0.3,0.2-0.5,0.4-0.5h10.8c0.2,0,0.4,0.2,0.4,0.5v11
		C64.3,48.8,64.1,49,63.9,49z M53.5,48.1h10V38h-10V48.1z"/>
</g>
<g>
	<path class="st0" d="M77.5,49H66.7c-0.2,0-0.4-0.2-0.4-0.5v-11c0-0.3,0.2-0.5,0.4-0.5h10.8c0.2,0,0.4,0.2,0.4,0.5v11
		C77.9,48.8,77.8,49,77.5,49z M67.1,48.1h10V38h-10V48.1z"/>
</g>
<g>
	<path class="st0" d="M91.3,49H80.4c-0.2,0-0.4-0.2-0.4-0.5v-11c0-0.3,0.2-0.5,0.4-0.5h10.8c0.2,0,0.4,0.2,0.4,0.5v11
		C91.7,48.8,91.5,49,91.3,49z M80.9,48.1h10V38h-10V48.1z"/>
</g>
<g>
	<path class="st0" d="M63.9,62.6H53c-0.2,0-0.4-0.2-0.4-0.5v-11c0-0.3,0.2-0.5,0.4-0.5h10.8c0.2,0,0.4,0.2,0.4,0.5v11
		C64.3,62.4,64.1,62.6,63.9,62.6z M53.5,61.7h10V51.5h-10V61.7z"/>
</g>
<g>
	<path class="st0" d="M77.5,62.6H66.7c-0.2,0-0.4-0.2-0.4-0.5v-11c0-0.3,0.2-0.5,0.4-0.5h10.8c0.2,0,0.4,0.2,0.4,0.5v11
		C77.9,62.4,77.8,62.6,77.5,62.6z M67.1,61.7h10V51.5h-10V61.7z"/>
</g>
<g>
	<path class="st0" d="M91.3,62.4H80.4c-0.2,0-0.4-0.2-0.4-0.5v-11c0-0.3,0.2-0.5,0.4-0.5h10.8c0.2,0,0.4,0.2,0.4,0.5v11
		C91.7,62.2,91.5,62.4,91.3,62.4z M80.9,61.5h10V51.4h-10V61.5z"/>
</g>
<g>
	<path class="st0" d="M63.9,76.2H53c-0.2,0-0.4-0.2-0.4-0.5v-11c0-0.3,0.2-0.5,0.4-0.5h10.8c0.2,0,0.4,0.2,0.4,0.5v11
		C64.3,76,64.1,76.2,63.9,76.2z M53.5,75.3h10V65.2h-10V75.3z"/>
</g>
<g>
	<path class="st0" d="M91.3,76.2H66.7c-0.2,0-0.4-0.2-0.4-0.5v-11c0-0.3,0.2-0.5,0.4-0.5h24.6c0.2,0,0.4,0.2,0.4,0.5v11
		C91.7,76,91.5,76.2,91.3,76.2z M67.1,75.3h23.8V65.2H67.1V75.3z"/>
</g>
</svg>
