<?xml version="1.0" encoding="utf-8"?>
<!-- Generator: Adobe Illustrator 23.0.5, SVG Export Plug-In . SVG Version: 6.00 Build 0)  -->
<svg version="1.1" id="圖層_1" xmlns="http://www.w3.org/2000/svg" xmlns:xlink="http://www.w3.org/1999/xlink" x="0px" y="0px"
	 viewBox="0 0 110 110" style="enable-background:new 0 0 110 110;" xml:space="preserve">
<style type="text/css">
	.st0{fill:#FFFFFF;}
</style>
<g>
	<g>
		<path class="st0" d="M47.9,78c-0.7,0-1.4-0.3-2-0.8c-1.2-1.1-1.3-3-0.2-4.2l0,0c1.1-1.2,3-1.3,4.2-0.2c1.2,1.1,1.3,3,0.2,4.2
			C49.5,77.7,48.7,78,47.9,78z"/>
	</g>
	<g>
		<path class="st0" d="M32,78c-0.7,0-1.4-0.3-2-0.8c-1.2-1.1-1.3-3-0.2-4.2l0,0c1.1-1.2,3-1.3,4.2-0.2c1.2,1.1,1.3,3,0.2,4.2
			C33.6,77.7,32.8,78,32,78z"/>
	</g>
	<g>
		<path class="st0" d="M93.1,92.5H18.5c-2.2,0-4-1.8-4-4l0-29.4L26,20.7c0.5-1.7,2.1-2.8,3.8-2.8h52c1.8,0,3.3,1.1,3.8,2.8
			l11.5,38.6l0,0v29.2C97.1,90.7,95.3,92.5,93.1,92.5z M17.7,60.8v27.8c0,0.4,0.4,0.8,0.8,0.8h74.6c0.4,0,0.8-0.4,0.8-0.8V60.8H17.7
			z M18.3,57.6h74.9L82.6,21.6c-0.1-0.3-0.4-0.6-0.8-0.6h-52c-0.3,0-0.7,0.2-0.8,0.6L18.3,57.6z"/>
	</g>
</g>
</svg>
