<?xml version="1.0" encoding="utf-8"?>
<!-- Generator: Adobe Illustrator 23.0.5, SVG Export Plug-In . SVG Version: 6.00 Build 0)  -->
<svg version="1.1" id="Layer_1" xmlns="http://www.w3.org/2000/svg" xmlns:xlink="http://www.w3.org/1999/xlink" x="0px" y="0px"
	 viewBox="0 0 110 110" style="enable-background:new 0 0 110 110;" xml:space="preserve">
<style type="text/css">
	.st0{fill:#FFFFFF;}
</style>
<g>
	<path class="st0" d="M6.1,72.3h97.8V23H6.1V72.3z M9,26h91.9v43.4H9V26z"/>
	<path class="st0" d="M43.3,44.3c0.2,0.3,0.4,0.6,0.7,0.9l1.6-1.3c-0.2-0.3-0.4-0.5-0.6-0.8L43.3,44.3z"/>
	<path class="st0" d="M47.3,39c-0.4-0.1-0.7-0.2-1.1-0.3l-0.5,2c0.3,0.1,0.6,0.2,0.9,0.3L47.3,39z"/>
	<path class="st0" d="M44.9,40.6l0.2-2c-0.2,0-0.5,0-0.7,0l0,0c-0.2,0-0.4,0-0.6,0l0.3,2C44.4,40.5,44.6,40.5,44.9,40.6z"/>
	<path class="st0" d="M60.3,46.5c-0.3-0.2-0.6-0.4-0.8-0.6l-1.2,1.6c0.3,0.2,0.5,0.4,0.8,0.6L60.3,46.5z"/>
	<path class="st0" d="M63.5,49.2c-0.3-0.2-0.5-0.5-0.8-0.7L61.3,50c0.3,0.2,0.5,0.5,0.7,0.7L63.5,49.2z"/>
	<path class="st0" d="M44.4,42.3c-0.2-0.3-0.3-0.5-0.4-0.8l-1.9,0.8c0.1,0.3,0.3,0.7,0.5,1L44.4,42.3z"/>
	<path class="st0" d="M42.3,39.3l-0.2,0.3c-0.2,0.3-0.3,0.8-0.3,1.2V41l2.1-0.3L42.3,39.3z"/>
	<path class="st0" d="M46.8,48.2l1.4-1.5c-0.3-0.2-0.5-0.5-0.7-0.7l-1.4,1.5C46.3,47.7,46.6,48,46.8,48.2z"/>
	<path class="st0" d="M46.2,44.6L44.7,46c0.2,0.3,0.5,0.5,0.7,0.8l1.5-1.4C46.6,45.1,46.4,44.8,46.2,44.6z"/>
	<polygon class="st0" points="53.8,44.5 54.1,44.1 54.8,44.9 54.8,44.8 54.7,45 55.5,45.6 56.7,43.9 55.8,43.3 55.4,44 54.7,43.1 
		54.9,42.7 54,42.2 53,43.9 	"/>
	<path class="st0" d="M52.9,50.5l-0.8-0.6l-1.2,1.6c0.3,0.2,0.6,0.4,0.8,0.6L52.9,50.5z"/>
	<path class="st0" d="M51.3,40.7c-0.3-0.2-0.6-0.3-1-0.5l-0.9,1.9c0.3,0.1,0.6,0.3,0.9,0.4L51.3,40.7z"/>
	<polygon class="st0" points="54.6,51.7 53.8,51.1 52.6,52.8 53.4,53.4 	"/>
	<path class="st0" d="M49.3,39.8c-0.3-0.1-0.7-0.3-1-0.4l-0.7,1.9c0.3,0.1,0.6,0.2,0.9,0.4L49.3,39.8z"/>
	<path class="st0" d="M52.1,43.4l1-1.8c-0.3-0.2-0.6-0.3-0.9-0.5l-1,1.8C51.5,43.1,51.8,43.3,52.1,43.4z"/>
	<path class="st0" d="M57.9,56.1c0.3,0.2,0.6,0.3,0.9,0.5l0.9-1.8c-0.3-0.1-0.6-0.3-0.9-0.5L57.9,56.1z"/>
	<path class="st0" d="M63.9,58.6c0.4,0.1,0.8,0.2,1.1,0.2l0.3-2c-0.3,0-0.6-0.1-0.9-0.2L63.9,58.6z"/>
	<path class="st0" d="M57.1,53.3L56,55.1c0.3,0.2,0.6,0.4,0.9,0.5l1-1.8L57.1,53.3z"/>
	<path class="st0" d="M59.8,57.1c0.3,0.2,0.7,0.3,1,0.4l0.8-1.9c-0.3-0.1-0.6-0.3-0.9-0.4L59.8,57.1z"/>
	<path class="st0" d="M61.8,57.9c0.4,0.1,0.7,0.3,1,0.4l0.6-2c-0.3-0.1-0.6-0.2-0.9-0.3L61.8,57.9z"/>
	<path class="st0" d="M66.3,55.9c0.1,0.3,0.2,0.5,0.2,0.6h2.1c0-0.4-0.1-0.9-0.3-1.4L66.3,55.9z"/>
	<path class="st0" d="M66,56.8l0.2,2c0.6-0.1,1.1-0.3,1.5-0.6l-1.3-1.6C66.4,56.7,66.3,56.8,66,56.8z"/>
	<path class="st0" d="M67.1,53.2l-1.7,1.2c0.2,0.3,0.4,0.5,0.5,0.8l1.8-1C67.5,53.8,67.3,53.5,67.1,53.2z"/>
	<path class="st0" d="M64.2,49.9l-1.4,1.5c0.2,0.2,0.5,0.5,0.7,0.7l1.5-1.4C64.7,50.5,64.5,50.2,64.2,49.9z"/>
	<path class="st0" d="M64.2,52.8c0.2,0.3,0.4,0.5,0.6,0.7l1.6-1.3c-0.2-0.3-0.4-0.5-0.7-0.8L64.2,52.8z"/>
	<polygon class="st0" points="56.4,46.1 57.4,46.9 58.6,45.2 57.6,44.5 	"/>
	<polygon class="st0" points="59.6,50.6 58.1,49.2 57.4,49.9 58.8,51.3 	"/>
	<path class="st0" d="M63.9,39.3l-0.4-2c-0.3,0.1-0.7,0.2-1.1,0.3l0.7,1.9C63.3,39.4,63.6,39.3,63.9,39.3z"/>
	<path class="st0" d="M58.8,41.8l-1.2-1.7c-0.3,0.2-0.6,0.4-0.9,0.6l1.2,1.7C58.2,42.2,58.5,42,58.8,41.8z"/>
	<path class="st0" d="M62.2,39.8L61.3,38c-0.3,0.1-0.6,0.3-1,0.5l1,1.8C61.6,40.1,61.9,40,62.2,39.8z"/>
	<path class="st0" d="M60.4,40.7l-1-1.8c-0.3,0.2-0.6,0.4-0.9,0.6l1.1,1.7C59.9,41.1,60.2,40.9,60.4,40.7z"/>
	<path class="st0" d="M66.2,37.9c-0.3-0.4-0.8-0.6-1.3-0.7l-0.3,2l1.8-0.9C66.4,38.2,66.3,38,66.2,37.9z"/>
	<path class="st0" d="M61.7,48.3l0.7-0.8l-1.6-1.3L60.1,47l0.7,0.6l-0.6,0.8l-0.7-0.6c-0.2,0.2-0.4,0.5-0.7,0.7l1.5,1.4
		c0.2-0.3,0.5-0.5,0.7-0.8L60.9,49L61.7,48.3L61.7,48.3z"/>
	<path class="st0" d="M65.5,43.1c0.2-0.3,0.4-0.7,0.5-1l-1.9-0.9c-0.1,0.3-0.3,0.6-0.4,0.8L65.5,43.1z"/>
	<polygon class="st0" points="56.9,53.2 58.1,52.1 56.7,50.6 55.5,51.7 	"/>
	<path class="st0" d="M62,44.6c-0.2,0.3-0.4,0.5-0.6,0.8l1.6,1.3c0.2-0.3,0.4-0.6,0.6-0.8L62,44.6z"/>
	<path class="st0" d="M66.7,39.9l-2-0.2c0,0.2-0.1,0.5-0.2,0.8l1.9,0.7C66.5,40.7,66.6,40.3,66.7,39.9z"/>
	<path class="st0" d="M64.9,44.1L63.2,43c-0.2,0.3-0.4,0.5-0.5,0.8l1.7,1.2C64.5,44.6,64.7,44.4,64.9,44.1z"/>
	<polygon class="st0" points="56.1,53.9 55.8,53.6 56.3,52.8 55.4,52.3 55.1,52.8 54.7,52.4 54,53 54.5,53.7 54.3,54 55.2,54.6 
		55.2,54.5 55.3,54.6 	"/>
	<path class="st0" d="M45.7,58.3l0.6,2c0.3-0.1,0.7-0.2,1.1-0.4L46.6,58C46.2,58.1,46,58.2,45.7,58.3z"/>
	<path class="st0" d="M44.2,53.4c-0.2,0.3-0.4,0.6-0.6,0.9l1.8,1c0.2-0.3,0.3-0.5,0.5-0.8L44.2,53.4z"/>
	<path class="st0" d="M47.4,57.6l0.9,1.8c0.3-0.2,0.6-0.3,0.9-0.5l-1-1.8C48,57.3,47.7,57.4,47.4,57.6z"/>
	<path class="st0" d="M49.1,56.6l1.1,1.8c0.3-0.2,0.6-0.4,0.9-0.6L50,56.1C49.7,56.2,49.4,56.4,49.1,56.6z"/>
	<polygon class="st0" points="52.4,54.3 53.7,55.9 54.5,55.3 53.2,53.7 	"/>
	<path class="st0" d="M44.4,58.5l-0.8,1.9c0.3,0.1,0.7,0.2,1.1,0.2l0,0c0.1,0,0.3,0,0.4,0l-0.2-2C44.5,58.5,44.4,58.5,44.4,58.5z"/>
	<polygon class="st0" points="50.8,55.5 52,57.2 52.8,56.5 51.6,54.9 	"/>
	<path class="st0" d="M48.4,51.3L46.8,50c-0.2,0.3-0.5,0.5-0.7,0.8l1.6,1.3C47.9,51.8,48.1,51.6,48.4,51.3z"/>
	<path class="st0" d="M49.2,50.3L50,51l1.3-1.6l-0.7-0.6c0.1-0.2,0.3-0.3,0.4-0.5l-1.5-1.4c-0.2,0.2-0.4,0.4-0.5,0.6
		c0,0,0,0-0.1-0.1l-1.4,1.5l0,0l-0.2,0.2l1.6,1.4L49.2,50.3z M49.7,49.8l-0.8-0.7l0.7-0.8l0.7,0.7L49.7,49.8z"/>
	<path class="st0" d="M44.4,57.8l-2-0.4c-0.1,0.3-0.1,0.6-0.1,0.8c0,0.2,0,0.5,0.1,0.7l2-0.7C44.3,58.1,44.3,58,44.4,57.8z"/>
	<path class="st0" d="M47.1,52.9l-1.6-1.2c-0.2,0.3-0.4,0.6-0.6,0.9l1.7,1.2C46.7,53.4,46.9,53.1,47.1,52.9z"/>
	<path class="st0" d="M57.1,43l-1.2-1.6c-0.3,0.2-0.6,0.4-0.8,0.6l1.3,1.6C56.6,43.4,56.9,43.2,57.1,43z"/>
	<path class="st0" d="M50.3,46.1l1.4,1.5c0.2-0.2,0.5-0.5,0.7-0.7L51,45.4C50.8,45.6,50.6,45.9,50.3,46.1z"/>
	<path class="st0" d="M44.6,57c0.1-0.3,0.2-0.5,0.4-0.8l-1.8-0.9c-0.2,0.4-0.3,0.7-0.5,1L44.6,57z"/>
	<path class="st0" d="M54,45.5L52.6,44c-0.3,0.2-0.5,0.5-0.8,0.7l1.4,1.5L54,45.5z"/>
	<path class="st0" d="M102.2,16.9H7.8c-4.3,0-7.8,3.5-7.8,7.8v50.5C0,79.5,3.5,83,7.8,83h94.4c4.3,0,7.8-3.5,7.8-7.8V24.7
		C110,20.4,106.5,16.9,102.2,16.9z M107,75.2c0,2.7-2.2,4.8-4.8,4.8H7.8C5.1,80,3,77.8,3,75.2V24.7c0-2.7,2.2-4.8,4.8-4.8h94.4
		c2.7,0,4.8,2.2,4.8,4.8C107,24.7,107,75.2,107,75.2z"/>
	<path class="st0" d="M102.1,74.9h-4.2c-0.7,0-1.3,0.6-1.3,1.3s0.6,1.3,1.3,1.3h4.2c0.7,0,1.3-0.6,1.3-1.3S102.8,74.9,102.1,74.9z"
		/>
	<path class="st0" d="M69.1,93.5H56.5V92c0-1.1-0.7-2.1-1.5-2.1s-1.5,0.9-1.5,2.1v1.5H40.8c-1.1,0-2.1,0.7-2.1,1.5s0.9,1.5,2.1,1.5
		h28.3c1.1,0,2.1-0.7,2.1-1.5S70.2,93.5,69.1,93.5z"/>
</g>
</svg>
