<?xml version="1.0" encoding="utf-8"?>
<!-- Generator: Adobe Illustrator 23.0.5, SVG Export Plug-In . SVG Version: 6.00 Build 0)  -->
<svg version="1.1" id="Capa_1" xmlns="http://www.w3.org/2000/svg" xmlns:xlink="http://www.w3.org/1999/xlink" x="0px" y="0px"
	 viewBox="0 0 110 110" style="enable-background:new 0 0 110 110;" xml:space="preserve">
<style type="text/css">
	.st0{fill:#FFFFFF;}
</style>
<g>
	<path class="st0" d="M96.9,18.9H13.4c-3.8,0-6.9,3.1-6.9,6.9v58.6h-3c-1.3,0-2.4,1.1-2.4,2.4V92c0,1.3,1.1,2.4,2.4,2.4h103.4
		c1.3,0,2.4-1.1,2.4-2.4v-5.2c0-1.3-1.1-2.4-2.4-2.4h-3V25.8C103.8,22,100.7,18.9,96.9,18.9z M9.2,25.8c0-2.3,1.9-4.2,4.2-4.2h83.5
		c2.3,0,4.2,1.9,4.2,4.2v58.6H64.9l-0.3,0.9c-0.2,0.5-0.6,0.9-1.3,0.9H48.8c-0.7,0-1.1-0.5-1.3-0.9l-0.3-0.9h-38
		C9.2,84.4,9.2,25.8,9.2,25.8z M106.6,87.1v4.5H3.7v-4.5h41.6l0.1,0.2c0.8,1,2,1.6,3.3,1.6h14.6c1.3,0,2.5-0.6,3.3-1.6l0.1-0.2
		H106.6z"/>
</g>
<g>
	<path class="st0" d="M13.8,26.1v54.4h82.8V26.1H13.8z M94,78H16.3V28.7H94V78z"/>
</g>
<g>
	<g>
		<path class="st0" d="M67.2,63.8v-1c0.1,0,0.3,0,0.4-0.1l0.2,1C67.6,63.8,67.4,63.8,67.2,63.8z M66.6,63.8c-0.2,0-0.3,0-0.5-0.1
			l0.1-1c0.2,0,0.3,0,0.5,0L66.6,63.8z M65.6,63.7c-0.2,0-0.3-0.1-0.5-0.1l0.2-1c0.2,0,0.3,0.1,0.5,0.1L65.6,63.7z M68.4,63.5
			l-0.5-0.9c0.1-0.1,0.2-0.1,0.2-0.2l0.8,0.6C68.8,63.3,68.6,63.4,68.4,63.5z M64.6,63.4c-0.2,0-0.3-0.1-0.5-0.1l0.3-1
			c0.2,0,0.3,0.1,0.5,0.1L64.6,63.4z M63.6,63.1l-0.5-0.2l0.3-0.9l0.5,0.2L63.6,63.1z M62.6,62.8l-0.5-0.2l0.4-0.9l0.5,0.2
			L62.6,62.8z M69.2,62.4l-1-0.3c0-0.1,0-0.2,0-0.3l1-0.1v0.1C69.3,62.1,69.3,62.3,69.2,62.4z M61.7,62.4c-0.2-0.1-0.3-0.1-0.5-0.2
			l0.4-0.9l0.4,0.2L61.7,62.4z M60.8,62l-0.5-0.2l0.4-0.9l0.4,0.2L60.8,62z M59.8,61.5l-0.4-0.2l0.4-0.9l0.4,0.2L59.8,61.5z
			 M68.2,61.4c0-0.1-0.1-0.3-0.1-0.4l0.9-0.4c0.1,0.2,0.1,0.4,0.2,0.5L68.2,61.4z M58.9,61.1l-0.4-0.2L59,60l0.4,0.2L58.9,61.1z
			 M67.9,60.6c-0.1-0.1-0.1-0.3-0.2-0.4l0.9-0.5c0.1,0.2,0.2,0.3,0.2,0.5L67.9,60.6z M58,60.6l-0.4-0.2l0.5-0.9l0.4,0.2L58,60.6z
			 M57.2,60.1l-0.4-0.3l0.5-0.9l0.4,0.3L57.2,60.1z M67.5,59.8c-0.1-0.1-0.2-0.3-0.3-0.4l0.8-0.6c0.1,0.1,0.2,0.3,0.3,0.4L67.5,59.8
			z M56.3,59.6l-0.4-0.3l0.5-0.9l0.4,0.3L56.3,59.6z M55.4,59L55,58.8l0.5-0.8l0.4,0.3L55.4,59z M66.9,59c-0.1-0.1-0.2-0.3-0.3-0.4
			l0.8-0.6c0.1,0.1,0.2,0.3,0.3,0.4L66.9,59z M54.6,58.5l-0.4-0.3l0.5-0.8l0.4,0.3L54.6,58.5z M66.3,58.2c-0.1-0.1-0.2-0.3-0.3-0.4
			l0.8-0.6c0.1,0.1,0.2,0.3,0.3,0.4L66.3,58.2z M53.8,57.9l-0.4-0.3l0.6-0.8l0.4,0.3L53.8,57.9z M65.7,57.5
			c-0.1-0.1-0.2-0.2-0.3-0.4l0.7-0.7c0.1,0.1,0.2,0.3,0.3,0.4L65.7,57.5z M52.9,57.4l-0.4-0.3l0.6-0.8l0.4,0.3L52.9,57.4z
			 M52.1,56.8l-0.4-0.3l0.6-0.8l0.4,0.3L52.1,56.8z M65,56.7l-0.3-0.4l0.7-0.7l0.4,0.4L65,56.7z M51.3,56.2l-0.4-0.3l0.6-0.8
			l0.4,0.3L51.3,56.2z M64.4,56L64,55.7l0.7-0.7l0.4,0.4L64.4,56z M50.5,55.6l-0.4-0.3l0.6-0.8l0.4,0.3L50.5,55.6z M63.7,55.3
			L63.3,55l0.7-0.7l0.4,0.4L63.7,55.3z M49.7,55l-0.4-0.3l0.6-0.8l0.4,0.3L49.7,55z M62.9,54.7l-0.4-0.3l0.7-0.7l0.4,0.3L62.9,54.7z
			 M48.9,54.3L48.5,54l0.6-0.8l0.4,0.3L48.9,54.3z M62.2,54l-0.4-0.3l0.7-0.8l0.4,0.3L62.2,54z M48.1,53.7l-0.4-0.3l0.7-0.8l0.4,0.3
			L48.1,53.7z M61.4,53.3L61.1,53l0.6-0.8l0.4,0.3L61.4,53.3z M47.4,53L47,52.7l0.7-0.7l0.4,0.3L47.4,53z M60.7,52.7l-0.4-0.3
			l0.6-0.8l0.4,0.3L60.7,52.7z M46.6,52.4L46.2,52l0.7-0.7l0.4,0.3L46.6,52.4z M59.9,52.1l-0.4-0.3l0.6-0.8l0.4,0.3L59.9,52.1z
			 M45.9,51.7l-0.4-0.4l0.7-0.7l0.4,0.3L45.9,51.7z M59.1,51.5l-0.4-0.3l0.6-0.8l0.4,0.3L59.1,51.5z M45.2,50.9l-0.4-0.4l0.7-0.7
			l0.3,0.4L45.2,50.9z M58.3,50.9l-0.4-0.3l0.6-0.8l0.4,0.3L58.3,50.9z M57.5,50.3L57.1,50l0.6-0.8l0.4,0.3L57.5,50.3z M44.5,50.2
			l-0.3-0.4l0.7-0.7l0.3,0.4L44.5,50.2z M56.9,49.8l-0.4-0.3l0.6-0.8l0.4,0.3L56.9,49.8z M43.8,49.5l-0.3-0.4l0.8-0.6l0.3,0.4
			L43.8,49.5z M56.1,49.3L55.7,49l0.6-0.8l0.4,0.3L56.1,49.3z M55.3,48.7l-0.4-0.3l0.5-0.8l0.4,0.3L55.3,48.7z M43.1,48.7
			c-0.1-0.1-0.2-0.3-0.3-0.4l0.8-0.6c0.1,0.1,0.2,0.3,0.3,0.4L43.1,48.7z M54.4,48.2L54,47.9l0.5-0.9l0.4,0.3L54.4,48.2z M42.5,47.9
			c-0.1-0.1-0.2-0.3-0.3-0.4l0.8-0.6c0.1,0.1,0.2,0.3,0.3,0.4L42.5,47.9z M53.6,47.7l-0.4-0.3l0.5-0.9l0.4,0.3L53.6,47.7z
			 M52.7,47.2L52.3,47l0.5-0.9l0.4,0.3L52.7,47.2z M41.9,47c-0.1-0.2-0.2-0.3-0.3-0.5l0.9-0.5c0.1,0.1,0.2,0.3,0.2,0.4L41.9,47z
			 M51.9,46.7l-0.4-0.2l0.5-0.9l0.4,0.2L51.9,46.7z M51,46.2L50.6,46l0.5-0.9l0.4,0.2L51,46.2z M41.4,46.1c-0.1-0.2-0.1-0.3-0.2-0.5
			l0.9-0.3c0,0.1,0.1,0.3,0.2,0.4L41.4,46.1z M50.1,45.8l-0.4-0.2l0.4-0.9l0.5,0.2L50.1,45.8z M49.2,45.3l-0.4-0.2l0.4-0.9l0.5,0.2
			L49.2,45.3z M41.1,45c0-0.2-0.1-0.4-0.1-0.6h1c0,0.1,0,0.3,0,0.4L41.1,45z M48.3,44.9l-0.5-0.2l0.4-0.9l0.5,0.2L48.3,44.9z
			 M47.4,44.5L47,44.4l0.3-0.9c0.2,0.1,0.3,0.1,0.5,0.2L47.4,44.5z M46.5,44.2c-0.2-0.1-0.3-0.1-0.5-0.2l0.3-1
			c0.2,0.1,0.3,0.1,0.5,0.2L46.5,44.2z M42.1,44.1l-0.9-0.3c0-0.1,0.1-0.2,0.2-0.3c0.1-0.1,0.1-0.2,0.2-0.3l0.7,0.7L42.2,44
			C42.1,44,42.1,44,42.1,44.1z M45.6,43.9c-0.2,0-0.3-0.1-0.5-0.1l0.2-1c0.2,0,0.3,0.1,0.5,0.1L45.6,43.9z M44.6,43.7
			c-0.2,0-0.3-0.1-0.5-0.1l0.1-1c0.2,0,0.3,0.1,0.5,0.1L44.6,43.7z M42.5,43.7l-0.4-0.9c0.2-0.1,0.4-0.1,0.6-0.2l0.2,1
			C42.7,43.6,42.6,43.6,42.5,43.7z M43.7,43.6c-0.1,0-0.2,0-0.4,0l-0.1-1h0.1c0.1,0,0.3,0,0.4,0V43.6z"/>
	</g>
	<g>
		<path class="st0" d="M43.6,65.7c-0.1,0-0.2,0-0.2,0l0.1-1c0.1,0,0.3,0,0.4,0l0.1,1C43.8,65.6,43.7,65.6,43.6,65.7z M44.5,65.6
			l-0.2-1c0.1,0,0.3-0.1,0.5-0.1l0.3,1C44.8,65.5,44.6,65.5,44.5,65.6z M42.7,65.5c-0.2-0.1-0.4-0.2-0.6-0.4l0.7-0.7
			c0.1,0.1,0.2,0.1,0.3,0.1L42.7,65.5z M45.5,65.3l-0.3-0.9c0.1,0,0.3-0.1,0.4-0.2l0.4,0.9C45.8,65.2,45.7,65.2,45.5,65.3z
			 M46.5,64.9L46.1,64c0.1-0.1,0.3-0.1,0.4-0.2l0.4,0.9C46.8,64.8,46.6,64.8,46.5,64.9z M41.7,64.6c-0.1-0.2-0.1-0.4-0.1-0.6l1-0.1
			c0,0.1,0,0.2,0.1,0.3L41.7,64.6z M47.4,64.4l-0.5-0.9l0.4-0.2l0.5,0.9L47.4,64.4z M48.3,64l-0.5-0.9l0.4-0.2l0.5,0.9L48.3,64z
			 M42.6,63.5l-1-0.1c0-0.2,0.1-0.4,0.1-0.5l1,0.2C42.6,63.2,42.6,63.3,42.6,63.5z M49.2,63.5l-0.5-0.9l0.4-0.3l0.5,0.8L49.2,63.5z
			 M50,62.9l-0.5-0.8l0.4-0.3l0.6,0.8L50,62.9z M42.8,62.6l-1-0.3c0.1-0.2,0.1-0.3,0.2-0.5l0.9,0.4C42.9,62.3,42.8,62.4,42.8,62.6z
			 M50.9,62.3l-0.6-0.8l0.4-0.3l0.6,0.8L50.9,62.3z M51.7,61.8L51.1,61l0.4-0.3l0.6,0.8L51.7,61.8z M43.1,61.7l-0.9-0.4
			c0.1-0.2,0.1-0.3,0.2-0.5l0.9,0.4C43.3,61.4,43.2,61.6,43.1,61.7z M52.5,61.2l-0.6-0.8l0.4-0.3l0.6,0.8L52.5,61.2z M43.6,60.8
			l-0.9-0.5c0.1-0.1,0.2-0.3,0.2-0.4l0.9,0.5C43.7,60.6,43.6,60.7,43.6,60.8z M53.3,60.5l-0.6-0.8l0.4-0.3l0.6,0.8L53.3,60.5z
			 M44,60l-0.9-0.5l0.3-0.4l0.8,0.5L44,60z M54.1,59.9l-0.6-0.8l0.4-0.3l0.6,0.8L54.1,59.9z M54.9,59.3l-0.6-0.8l0.4-0.3l0.7,0.8
			L54.9,59.3z M44.6,59.2l-0.8-0.6l0.3-0.4l0.8,0.6L44.6,59.2z M55.6,58.6L55,57.9l0.4-0.3l0.7,0.7L55.6,58.6z M45.1,58.3l-0.8-0.6
			l0.3-0.4l0.8,0.6L45.1,58.3z M56.4,58l-0.7-0.7l0.4-0.3l0.7,0.7L56.4,58z M45.7,57.6L44.9,57l0.3-0.4l0.8,0.6L45.7,57.6z
			 M57.1,57.3l-0.7-0.7l0.5-0.5l0.7,0.7L57.1,57.3z M46.3,56.8l-0.8-0.6l0.3-0.4l0.8,0.6L46.3,56.8z M58,56.5l-0.7-0.7l0.4-0.3
			l0.7,0.7L58,56.5z M46.9,56l-0.8-0.6l0.3-0.4l0.8,0.6L46.9,56z M58.7,55.8L58,55l0.4-0.4l0.7,0.7L58.7,55.8z M47.6,55.2l-0.8-0.6
			l0.3-0.4l0.8,0.7L47.6,55.2z M59.4,55l-0.7-0.7l0.3-0.4l0.7,0.7L59.4,55z M48.2,54.5l-0.7-0.7l0.3-0.4l0.7,0.7L48.2,54.5z
			 M60.1,54.3l-0.7-0.7l0.3-0.4l0.7,0.7L60.1,54.3z M48.9,53.8l-0.7-0.7l0.3-0.4l0.7,0.7L48.9,53.8z M60.8,53.6l-0.7-0.7l0.3-0.4
			l0.7,0.7L60.8,53.6z M49.5,53l-0.7-0.7l0.4-0.4l0.7,0.7L49.5,53z M61.5,52.8l-0.8-0.7l0.3-0.4l0.8,0.7L61.5,52.8z M50.2,52.3
			l-0.7-0.7l0.4-0.4l0.7,0.7L50.2,52.3z M62.2,52.1l-0.8-0.6l0.3-0.4l0.8,0.6L62.2,52.1z M50.9,51.6l-0.7-0.7l0.4-0.3l0.7,0.7
			L50.9,51.6z M62.8,51.3L62,50.7l0.3-0.4l0.8,0.6L62.8,51.3z M51.7,50.9L51,50.2l0.4-0.3l0.7,0.7L51.7,50.9z M63.4,50.5l-0.8-0.6
			l0.3-0.4l0.8,0.6L63.4,50.5z M52.4,50.2l-0.7-0.7l0.4-0.3l0.7,0.7L52.4,50.2z M64.1,49.7l-0.8-0.6l0.3-0.4l0.8,0.6L64.1,49.7z
			 M53.1,49.6l-0.7-0.7l0.4-0.3l0.7,0.7L53.1,49.6z M53.8,48.9l-0.7-0.8l0.4-0.3l0.6,0.8L53.8,48.9z M64.7,48.9l-0.8-0.6l0.3-0.4
			l0.8,0.6L64.7,48.9z M54.6,48.3L54,47.5l0.4-0.3L55,48L54.6,48.3z M65.2,48l-0.8-0.5l0.3-0.4l0.8,0.5L65.2,48z M55.4,47.6
			l-0.6-0.8l0.4-0.3l0.6,0.8L55.4,47.6z M65.8,47.2l-0.9-0.5c0.1-0.1,0.2-0.3,0.2-0.4l0.9,0.5C65.9,46.9,65.9,47,65.8,47.2z
			 M56.1,47l-0.6-0.8l0.4-0.3l0.6,0.8L56.1,47z M56.9,46.4l-0.6-0.8l0.4-0.3l0.6,0.8L56.9,46.4z M66.3,46.3l-0.9-0.5
			c0.1-0.1,0.2-0.3,0.2-0.4l0.9,0.4C66.4,46,66.4,46.1,66.3,46.3z M57.7,45.8L57.1,45l0.4-0.3l0.6,0.8L57.7,45.8z M66.7,45.3
			l-0.9-0.4c0.1-0.2,0.1-0.3,0.2-0.4l0.9,0.4C66.9,45,66.8,45.2,66.7,45.3z M58.5,45.2L58,44.4l0.4-0.3l0.6,0.8L58.5,45.2z
			 M59.3,44.7l-0.5-0.8l0.4-0.3l0.5,0.8L59.3,44.7z M67.1,44.4l-1-0.3c0-0.2,0.1-0.3,0.1-0.4l1,0.2C67.2,44,67.1,44.2,67.1,44.4z
			 M60.2,44.2l-0.5-0.9l0.4-0.3l0.5,0.9L60.2,44.2z M61,43.7l-0.5-0.9c0.2-0.1,0.3-0.2,0.4-0.2l0.5,0.9C61.3,43.5,61.2,43.6,61,43.7
			z M67.3,43.3l-1-0.1c0-0.1,0-0.1,0-0.2c0-0.1,0-0.1,0-0.2l1-0.1c0,0.1,0,0.2,0,0.3S67.3,43.2,67.3,43.3z M61.9,43.2l-0.5-0.9
			c0.2-0.1,0.3-0.2,0.5-0.2l0.4,0.9C62.2,43.1,62,43.1,61.9,43.2z M62.8,42.8l-0.4-0.9c0.2-0.1,0.3-0.1,0.5-0.2l0.4,0.9
			C63.1,42.7,62.9,42.7,62.8,42.8z M66.2,42.5C66.2,42.4,66.1,42.4,66.2,42.5c-0.1-0.1-0.1-0.2-0.2-0.2l0.6-0.8
			c0.1,0.1,0.2,0.1,0.2,0.2c0.1,0.1,0.2,0.2,0.2,0.3L66.2,42.5z M63.7,42.4l-0.3-0.9c0.2-0.1,0.3-0.1,0.5-0.2l0.3,1
			C64,42.3,63.8,42.4,63.7,42.4z M64.5,42.2l-0.2-1c0.2,0,0.4-0.1,0.5-0.1l0.1,1C64.9,42.1,64.7,42.1,64.5,42.2z M65.8,42.1
			c-0.1,0-0.2,0-0.4-0.1v-1c0.2,0,0.4,0,0.6,0.1L65.8,42.1z"/>
	</g>
</g>
</svg>
