<?xml version="1.0" encoding="utf-8"?>
<!-- Generator: Adobe Illustrator 23.0.5, SVG Export Plug-In . SVG Version: 6.00 Build 0)  -->
<svg version="1.1" id="Layer_1" xmlns="http://www.w3.org/2000/svg" xmlns:xlink="http://www.w3.org/1999/xlink" x="0px" y="0px"
	 viewBox="0 0 110 110" style="enable-background:new 0 0 110 110;" xml:space="preserve">
<style type="text/css">
	.st0{fill:#FFFFFF;}
</style>
<g>
	<g>
		<g>
			<path class="st0" d="M56.1,67.9c13.6,0,24.7-11.1,24.7-24.7S69.7,18.4,56.1,18.4S31.4,29.5,31.4,43.1S42.5,67.9,56.1,67.9z
				 M56.1,21.3c12,0,21.8,9.8,21.8,21.8S68.1,65,56.1,65s-21.8-9.8-21.8-21.9S44.1,21.3,56.1,21.3z"/>
			<path class="st0" d="M56.1,55C62.6,55,68,49.7,68,43.1s-5.3-11.9-11.9-11.9s-11.9,5.3-11.9,11.9S49.5,55,56.1,55z M56.1,34.2
				c4.9,0,8.9,4,8.9,8.9S61,52,56.1,52s-8.9-4-8.9-8.9S51.2,34.2,56.1,34.2z"/>
			<path class="st0" d="M56.1,49.1c3.2,0,5.9-2.7,5.9-5.9c0-0.8-0.7-1.5-1.5-1.5s-1.5,0.7-1.5,1.5c0,1.7-1.3,3-3,3c-1.7,0-3-1.3-3-3
				s1.3-3,3-3c0.8,0,1.5-0.7,1.5-1.5s-0.7-1.5-1.5-1.5c-3.2,0-5.9,2.7-5.9,5.9C50.2,46.4,52.9,49.1,56.1,49.1z"/>
			<path class="st0" d="M90.8,81V43.1c0-19.1-15.6-34.6-34.7-34.6S21.4,24.1,21.4,43.1v37.8c-3.4,0.7-5.9,3.7-5.9,7.3v5.9
				c0,4.1,3.3,7.4,7.4,7.4h66.3c4.1,0,7.4-3.3,7.4-7.4v-5.9C96.7,84.6,94.1,81.7,90.8,81z M93.8,94.2c0,2.4-2,4.5-4.5,4.5H22.9
				c-2.4,0-4.5-2-4.5-4.5v-5.9c0-2.4,2-4.5,4.5-4.5h8c0.8,0,1.5-0.7,1.5-1.5s-0.7-1.5-1.5-1.5h-6.5V43.1c0-17.5,14.2-31.7,31.7-31.7
				s31.7,14.2,31.7,31.7v37.7H29.5c-0.8,0-1.5,0.7-1.5,1.5c0,0.8,0.7,1.5,1.5,1.5h59.7c2.4,0,4.5,2,4.5,4.5L93.8,94.2L93.8,94.2z"/>
			<path class="st0" d="M89.3,86.7H22.9c-0.8,0-1.5,0.7-1.5,1.5c0,0.8,0.7,1.5,1.5,1.5h66.3c0.8,0,1.5-0.7,1.5-1.5
				C90.8,87.4,90.1,86.7,89.3,86.7z"/>
		</g>
	</g>
</g>
</svg>
