<?xml version="1.0" encoding="utf-8"?>
<!-- Generator: Adobe Illustrator 23.0.5, SVG Export Plug-In . SVG Version: 6.00 Build 0)  -->
<svg version="1.1" id="圖層_1" xmlns="http://www.w3.org/2000/svg" xmlns:xlink="http://www.w3.org/1999/xlink" x="0px" y="0px"
	 viewBox="0 0 461 92" style="enable-background:new 0 0 461 92;" xml:space="preserve">
<style type="text/css">
	.st0{fill:#FFFFFF;stroke:#000000;stroke-width:0.75;}
	.st1{fill:#1D2088;}
	.st2{fill:url(#SVGID_1_);}
	.st3{fill:url(#SVGID_2_);}
	.st4{fill:none;stroke:#000000;stroke-width:0.75;}
	.st5{fill:none;stroke:#1D2088;stroke-width:0.5;stroke-dasharray:0.5;}
	.st6{fill:#FFFFFF;}
</style>
<g>
	<g>
		<path class="st0" d="M91.7,46.2c0,25.2-20.4,45.6-45.7,45.6C20.8,91.9,0.4,71.4,0.4,46.2S20.8,0.6,46,0.6S91.7,21,91.7,46.2z"/>
		<g>
			<path class="st1" d="M19.2,26.5c0.4-0.5,0.6-0.9,0.6-1.1c0-0.3-0.3-0.7-0.9-1.3l-4.7-4.7h-0.3c-0.3,0-0.6,0-0.7,0.1
				c-0.2,0.1-0.3,0.2-0.6,0.4l-0.2-0.2l1.8-1.8l9.2,1l-3.5-3.6c-0.6-0.6-1-0.9-1.4-0.9c-0.2,0-0.6,0.2-1,0.5l-0.2-0.2l2.5-2.5
				l0.2,0.2c-0.4,0.4-0.5,0.8-0.5,1.1s0.3,0.7,0.9,1.3l5.6,5.6l-0.2,0.2l-10.5-1.2l4.1,4.2c0.6,0.6,1,0.9,1.4,0.9
				c0.2,0,0.6-0.2,1-0.5l0.2,0.2l-2.5,2.5L19.2,26.5z"/>
			<path class="st1" d="M45.9,3.8c0.6,0.1,0.9,0.2,1,0.2c0.2,0,0.4-0.1,0.5-0.1c0.1-0.1,0.2-0.2,0.2-0.4h0.3l0.2,3.2h-0.3
				c-0.3-0.7-0.7-1.3-1-1.6c-0.6-0.6-1.4-0.9-2.4-0.9s-1.8,0.4-2.5,1.2s-1,2-1,3.7c0.1,1.4,0.5,2.5,1.2,3.2c0.8,0.8,1.7,1.1,2.7,1.1
				c0.2,0,0.4,0,0.6-0.1c0.2,0,0.5-0.1,0.7-0.2c0.4-0.1,0.6-0.2,0.7-0.3c0.1-0.1,0.1-0.2,0.1-0.4L46.8,10c0-0.6-0.1-0.9-0.3-1.1
				c-0.2-0.1-0.5-0.2-1.1-0.2V8.4l4-0.2v0.3c-0.4,0-0.6,0.1-0.7,0.2c-0.2,0.2-0.3,0.5-0.3,1l0.1,3c0,0.2-0.4,0.4-1.3,0.8
				c-0.9,0.3-1.7,0.5-2.5,0.5c-1.5,0.1-2.7-0.3-3.8-1.1c-1.1-0.9-1.7-2.2-1.8-3.7c-0.1-1.4,0.3-2.6,1.2-3.7s2.2-1.7,3.8-1.8
				C44.8,3.6,45.4,3.7,45.9,3.8z"/>
			<path class="st1" d="M71.8,12.9l-0.2,0.2c-0.3-0.2-0.5-0.4-0.7-0.4c-0.2-0.1-0.3,0-0.5,0.1c0,0-0.1,0.1-0.1,0.2
				c0,0.1-0.1,0.2-0.1,0.4l-0.2,4l3.8-1.2c0.2-0.1,0.3-0.1,0.4-0.2c0.1-0.1,0.1-0.1,0.2-0.1c0.1-0.2,0.1-0.3,0-0.5
				c-0.1-0.1-0.2-0.3-0.5-0.5l0.2-0.2l2.5,2.1L76.4,17c-0.2-0.2-0.5-0.3-0.8-0.3c-0.5,0-1.1,0.1-1.9,0.3l-3.9,1.2l-1.9,2.2
				c-0.4,0.4-0.5,0.8-0.5,1c0.1,0.2,0.3,0.6,0.8,1L68,22.6l-3.5-2.9l0.2-0.2c0.6,0.4,0.9,0.6,1.2,0.6c0.2,0,0.6-0.3,1-0.8l1.7-2
				l0.3-3.5c0.1-1.2,0.1-2,0.1-2.4s-0.2-0.7-0.5-1l0.2-0.2L71.8,12.9z"/>
		</g>
		<g>
			<path class="st1" d="M4.2,51c0.6-0.1,0.9-0.2,1.1-0.3s0.2-0.5,0.2-1.1v-6.7c0-0.5-0.1-0.9-0.2-1c-0.2-0.2-0.5-0.3-1.1-0.3v-0.3h8
				l0.1,2.1h-0.4c-0.1-0.7-0.3-1.1-0.6-1.3s-0.8-0.3-1.7-0.3H7.5c-0.2,0-0.4,0-0.4,0.1C7,42.1,7,42.2,7,42.4v3.4h2.3
				c0.6,0,1.1-0.1,1.2-0.3c0.2-0.2,0.3-0.6,0.4-1.2h0.4v3.5H11c-0.1-0.6-0.3-1-0.4-1.2c-0.2-0.2-0.6-0.3-1.2-0.3H7V50
				c0,0.3,0.1,0.5,0.3,0.5c0.2,0.1,0.8,0.1,1.7,0.1c1,0,1.8-0.1,2.3-0.3s0.9-0.8,1.3-1.6H13l-0.7,2.5H4.2V51z"/>
		</g>
		<g>
			<path class="st1" d="M80.6,49.9v-0.3c-0.4,0-0.6-0.1-0.7-0.1c-0.2-0.1-0.3-0.3-0.3-0.5c0-0.1,0-0.3,0.1-0.5s0.3-0.8,0.7-1.8h4
				l0.6,1.5c0.1,0.2,0.2,0.4,0.2,0.6c0,0.2,0.1,0.3,0.1,0.4c0,0.2-0.1,0.4-0.2,0.4c-0.1,0.1-0.4,0.1-0.9,0.1V50H88v-0.3
				c-0.4,0-0.6-0.1-0.8-0.3c-0.1-0.1-0.3-0.5-0.6-1.1L83,39.8h-0.3l-3.2,7.4c-0.5,1.1-0.8,1.8-1,2s-0.5,0.4-0.9,0.4v0.3H80.6z
				 M80.7,46.1l1.7-4.1l1.7,4.1H80.7z"/>
		</g>
		
			<linearGradient id="SVGID_1_" gradientUnits="userSpaceOnUse" x1="43.4899" y1="45.9034" x2="26.092" y2="28.5057" gradientTransform="matrix(1 0 0 -1 0 94)">
			<stop  offset="0" style="stop-color:#00A0E9"/>
			<stop  offset="0.4888" style="stop-color:#0068B7"/>
			<stop  offset="1" style="stop-color:#080059"/>
		</linearGradient>
		<path class="st2" d="M45.7,45.9H16.2c0,0,1.5,14.5,8.4,20.4c5.8,5,9.7,7.6,16.6,8.9c4.5,0.9,4.6,0.1,4.6,0.1L45.7,45.9L45.7,45.9z
			"/>
		
			<linearGradient id="SVGID_2_" gradientUnits="userSpaceOnUse" x1="45.866" y1="47.9013" x2="66.0829" y2="68.118" gradientTransform="matrix(1 0 0 -1 0 94)">
			<stop  offset="0" style="stop-color:#00A0E9"/>
			<stop  offset="0.4888" style="stop-color:#0068B7"/>
			<stop  offset="1" style="stop-color:#080059"/>
		</linearGradient>
		<path class="st3" d="M45.5,46H75c0,0-1.4-14.9-8.6-20.5s-12.3-7.8-16.1-8.2c-4.6-0.5-4.7,0.1-4.7,0.1L45.5,46z"/>
		<ellipse class="st4" cx="45.7" cy="46.2" rx="29.2" ry="29.2"/>
		<path class="st0" d="M57.7,46.3C57.7,52.8,52.5,58,46,58s-11.7-5.2-11.7-11.7S39.5,34.6,46,34.6C52.5,34.6,57.7,39.9,57.7,46.3z"
			/>
		<path class="st5" d="M47.3,44.8c3.9,2.6,6.5,5.5,5.9,6.5c-0.7,1-4.4-0.3-8.3-3c-3.9-2.6-6.5-5.5-5.9-6.5
			C39.7,40.9,43.4,42.2,47.3,44.8z"/>
		<path class="st5" d="M47.2,48.3c-3.5,3.1-7,5-7.8,4.1s1.4-4.1,4.9-7.3c3.5-3.1,7-5,7.8-4.1S50.7,45.2,47.2,48.3z"/>
	</g>
	<g>
		<g>
			<path class="st6" d="M119.5,34.4c-1.2,3.4-4.4,6.4-12.5,8.4c-0.3-0.5-1.1-1.7-1.6-2.2c7.1-1.5,10.1-3.6,11.2-6.1h-10.8v-2.6h3.1
				v-7.1h8.5v-2.7h2.8v2.7h9v7.1h2.9v2.6H119.5z M111.6,20.9h-5.2v-2.2h5.2v-2.8h2.8v2.8h3.9v2.4h-3.9v2.7h-2.8V20.9z M117.3,32
				c0.1-0.5,0.1-1,0.1-1.5v-3.2h-5.9V32H117.3z M120.6,34.9c3.7,1.5,9,4,11.6,5.7l-1.4,2.2c-2.5-1.7-7.6-4.4-11.5-6L120.6,34.9z
				 M123.7,20.9h-4.2v-2.4h4.2v-2.8h2.8v2.8h5v2.4h-5v2.7h-2.8V20.9z M120.2,27.3v3.2c0,0.5,0,1-0.1,1.4h6.3v-4.6H120.2z"/>
			<path class="st6" d="M152.4,22.3v3.7h9.7v2.6h-22.1v-2.6h9.4v-3.7h-11.2v-2.6h11.2v-3.9h2.9v3.9h11.5v2.6H152.4z M141.5,31.7
				h19.4V43h-3v-1.3h-13.6V43h-2.8V31.7z M144.4,34.1v5.1H158v-5.1H144.4z"/>
			<path class="st6" d="M196.4,39v2.5h-26.2V39h8.5v-4.7h-6.4V24.3h6.4v-4.2h-7.8v-2.5h24.9v2.5h-8.1v4.2h6.6v10.1h-6.6V39H196.4z
				 M181.3,32V39h3.9V32h6.5v-5.4h-6.5v-6.5h-3.7v6.5H175V32H181.3z"/>
			<path class="st6" d="M211.8,33.9c-0.4-0.9-1.4-2.6-2.2-3.9v12.8h-2.7v-12c-1.1,2.7-2.5,5.1-3.7,6.9c-0.2-0.7-1-1.8-1.3-2.6
				c1.7-2,3.6-5.5,4.7-8.6h-4.3V24h4.7v-4c-1.3,0.2-2.6,0.4-3.7,0.5c-0.1-0.5-0.4-1.6-0.7-2.1c3.3-0.5,7.1-1.4,9.3-2.4l1.6,2.2
				c-1.1,0.4-2.5,0.7-3.7,1.1V24h4.1v2.6h-4.1V27c0.9,1,3.4,3.9,4,4.7L211.8,33.9z M225.7,35.3v7.5H223v-7.1l-9.2,1.6l-0.4-2.6
				l9.6-1.6V15.9h2.7v16.7l3.2-0.5l0.4,2.6L225.7,35.3z M219.2,31.3c-1-1.3-3.1-3.1-4.9-4.4l1.7-1.6c1.7,1.2,4,2.9,5,4.2L219.2,31.3
				z M220,23.6c-0.9-1.3-2.9-3-4.6-4.3l1.8-1.6c1.7,1.2,3.7,2.9,4.7,4.1L220,23.6z"/>
			<path class="st6" d="M244.2,31c-1.1,0.3-2.2,0.6-3.3,1v7.7c0,1.4-0.3,2.1-1.2,2.6c-0.9,0.4-2.1,0.5-4.2,0.4
				c-0.1-0.6-0.4-1.8-0.9-2.5c1.3,0,2.6,0,2.9,0c0.4,0,0.5-0.1,0.5-0.5v-7c-1.2,0.3-2.2,0.6-3.2,0.9l-0.7-2.6c1.1-0.2,2.5-0.5,4-1
				v-5.9h-3.5v-2.6h3.6v-5.8h2.7v5.8h3.1v2.6h-3.1v5.1l3-0.7L244.2,31z M260.1,27.4c-1.2,4.1-3.1,7.3-5.7,9.7c2,1.5,4.4,2.7,7.2,3.4
				c-0.6,0.5-1.4,1.6-1.7,2.4c-3-0.9-5.5-2.1-7.6-4c-2.4,1.7-5,3.1-8,3.9c-0.3-0.7-1-1.9-1.5-2.5c2.8-0.6,5.2-1.8,7.6-3.3
				c-1.9-2.1-3.4-4.7-4.6-7.6l0.4-0.1H245v-2.5h6.1v-4.1h-6.5v-2.5h6.5v-4.4h2.7v4.4h6.7v2.5h-6.7v4.1h4.2l0.4-0.1L260.1,27.4z
				 M248.4,29.3c1,2.2,2.2,4.3,4,6.1c1.8-1.7,3.3-3.7,4.3-6.1C256.6,29.3,248.4,29.3,248.4,29.3z"/>
			<path class="st6" d="M277.1,39.6c0,1.3-0.2,2-1,2.5c-0.7,0.4-1.9,0.5-3.7,0.5c-0.1-0.6-0.4-1.9-0.7-2.6c1.1,0,2.1,0,2.5,0
				s0.4-0.1,0.4-0.5v-7.1l-3,1.8l-0.9-1.9c-0.2,3.6-0.7,7.6-1.9,10.4c-0.5-0.4-1.6-1.1-2.2-1.3c1.8-4.1,1.9-9.9,1.9-14.2V16.7h8.6
				v22.9H277.1z M270.9,27.4c0,1.3,0,2.8-0.1,4.4c1.1-0.4,2.4-1,3.7-1.6v-3.3l-1.1,1c-0.5-0.7-1.6-2-2.6-3V27.4z M270.9,19.4v4.1
				l1-0.6c1,0.9,2,1.9,2.8,2.8v-6.2H270.9z M292.7,29.2c-1.1,3.6-2.8,6.4-5.1,8.7c1.7,1.2,3.9,2,6.1,2.6c-0.6,0.5-1.4,1.6-1.7,2.4
				c-2.5-0.7-4.7-1.8-6.5-3.2c-2,1.4-4.3,2.5-6.7,3.1c-0.3-0.7-1-1.8-1.5-2.4c2.1-0.5,4.3-1.4,6.1-2.6c-1.7-1.8-3.1-4-4.2-6.3l1-0.3
				h-1.8v-2.6h12.2l0.4-0.1L292.7,29.2z M283.6,20.2c0,2.7-0.7,5.8-4.5,7.8c-0.3-0.5-1.3-1.6-1.7-1.9c3.2-1.7,3.7-4,3.7-6v-3.2h9.3
				v6.5c0,0.9,0,1.1,0.4,1.1h1.4c0.3,0,1-0.1,1.3-0.2l0.2,2.2c-0.4,0.1-1,0.2-1.5,0.2h-1.7c-2.2,0-2.8-1-2.8-3.3v-4.1h-4.2V20.2z
				 M281.8,31.2c0.9,1.9,2,3.5,3.6,5c1.6-1.4,2.9-3.1,3.7-5H281.8z"/>
			<path class="st6" d="M308.1,16.8c-0.7,2-1.8,4.2-2.9,6.1v19.9h-2.7V27.2c-0.7,1.1-1.6,2-2.5,2.9c-0.2-0.6-1.1-2.1-1.5-2.8
				c2.8-2.8,5.4-7.1,7-11.2L308.1,16.8z M322.9,27.7c0,0,0,0.7,0,1.2c-0.4,8.5-0.7,11.6-1.6,12.5c-0.5,0.7-1.1,1-1.9,1.1
				c-0.7,0.1-2,0.1-3.3,0.1c-0.1-0.7-0.3-1.8-0.7-2.5c1.2,0.1,2.2,0.1,2.7,0.1c0.4,0,0.7-0.1,1-0.4c0.5-0.6,0.9-3.1,1.2-9.5h-4.5
				c-0.7,6.1-2.8,10.1-7.1,12.5c-0.3-0.5-1.3-1.6-1.9-2c3.9-1.9,5.6-5.4,6.2-10.5h-3.1v-2.6C309.7,27.7,322.9,27.7,322.9,27.7z
				 M314.9,17.9c-1.3,4.4-3.5,8.4-6.3,10.9c-0.3-0.5-1.2-1.9-1.7-2.5c2.5-2,4.3-5.5,5.4-9.1L314.9,17.9z M320.9,16.9
				c0.9,3.7,2.8,7.4,5.4,9.2c-0.5,0.6-1.4,1.9-1.7,2.8c-2.5-2.2-4.5-5.8-5.7-9.4h-3.1v-2.6C315.7,16.9,320.9,16.9,320.9,16.9z"/>
			<path class="st6" d="M342.1,22.1c-0.5,1-1,2-1.6,2.9h13.9v14.7c0,1.5-0.3,2.2-1.4,2.7c-1.1,0.4-2.7,0.4-5.1,0.4
				c-0.1-0.7-0.5-1.9-0.9-2.7c1.7,0.1,3.5,0.1,4,0.1c0.5,0,0.6-0.1,0.6-0.5v-2.6H340c-0.4,2.2-1.4,4.4-3.1,5.9
				c-0.3-0.6-1.4-1.7-1.9-2.1c2.5-2.2,2.7-5.5,2.7-8.2v-3.4c-1.3,1.5-2.7,2.8-4.3,4c-0.4-0.6-1.3-1.6-1.8-2.1c3.2-2.1,5.7-5.5,7.6-9
				h-6.9v-2.6h8c0.5-1.3,1-2.5,1.3-3.6l2.7,0.7c-0.3,1-0.6,2-1.1,3h14.7v2.6C357.8,22.1,342.1,22.1,342.1,22.1z M351.7,34.9v-2.6
				h-11.5v0.5c0,0.6,0,1.4-0.1,2H351.7z M351.7,27.5h-11.5V30h11.5V27.5z"/>
			<path class="st6" d="M373.2,17.9c-0.9,2.5-1.8,5.2-2.8,7.6c1.9,2.5,2.4,4.5,2.4,6.2c0,1.7-0.3,2.9-1.2,3.5
				c-0.4,0.3-1,0.5-1.6,0.5c-0.5,0.1-1.3,0.1-1.9,0.1c0-0.6-0.2-1.7-0.6-2.4c0.6,0,1.1,0.1,1.5,0c0.3,0,0.6-0.1,0.9-0.2
				c0.4-0.3,0.5-1.1,0.5-1.9c0-1.5-0.4-3.4-2.4-5.7c0.7-1.9,1.5-4.4,2-6.3h-3.6v23.2H364V17h7l0.4-0.1L373.2,17.9z M389.2,32.7
				c-1.4,1.2-3.2,2.4-4.6,3.2c1.4,1.9,3.1,3.4,5.2,4.4c-0.5,0.5-1.5,1.6-1.8,2.4c-4.5-2.2-7.1-6.7-8.5-12.5h-2.5v9l4.7-1.1
				c0,0.7,0,1.8,0.1,2.5c-5.9,1.6-6.9,1.9-7.5,2.4c-0.2-0.6-0.7-1.7-1.2-2.2c0.5-0.3,1.2-1,1.2-2.2V17.1h13v13.1h-5.6
				c0.4,1.4,0.9,2.7,1.5,3.9c1.4-1,3-2.2,4-3.2L389.2,32.7z M377.1,19.6v3h7.7v-3H377.1z M377.1,27.8h7.7v-3.1h-7.7V27.8z"/>
			<path class="st6" d="M406.5,17.6c-2,4.8-5.4,9.6-8.7,12.5c-0.4-0.5-1.7-1.7-2.5-2.2c3.2-2.7,6.2-7,8-11.2L406.5,17.6z
				 M414.8,31.3c2.4,3.2,5.1,7.3,6.5,10l-2.8,1.5c-0.4-0.9-1-1.8-1.6-2.9c-14.7,1.1-16.5,1.2-17.8,1.7c-0.1-0.6-0.6-2.1-1.1-2.9
				c0.9-0.2,1.7-1.1,2.8-2.5c1.2-1.3,4.9-6.4,7.3-11.3l3.2,1.3c-2.5,4.3-5.4,8.6-8.2,11.9l12.3-0.7c-1.1-1.7-2.2-3.4-3.2-4.9
				L414.8,31.3z M415.3,16.6c1.4,4.4,4.2,8.7,7.7,10.9c-0.6,0.6-1.6,1.8-2.1,2.7c-3.3-2.5-6-6.6-7.6-10.8h-5.1v-2.8H415.3z"/>
			<path class="st6" d="M453.3,39c0,1.7-0.3,2.7-1.4,3.1c-1.1,0.5-2.9,0.5-5.6,0.5c-0.1-0.7-0.5-2.1-1-3c1.9,0.1,3.9,0.1,4.4,0.1
				s0.7-0.2,0.7-0.7V20.3h-20.8v-2.6h23.6L453.3,39L453.3,39z M447.4,25.3H430V23h17.3V25.3z M434.3,37.6v2.1h-2.7V28.1h13.8v9.5
				C445.4,37.6,434.3,37.6,434.3,37.6z M434.3,30.5v4.8h8.6v-4.8H434.3z"/>
		</g>
		<g>
			<polygon class="st6" points="119.8,68.3 111.5,68.3 111.5,63.2 118.9,63.2 118.9,60.4 111.5,60.4 111.5,56.1 119.5,56.1 
				119.5,53.3 108.6,53.3 108.6,71.1 119.8,71.1 			"/>
			<polygon class="st6" points="135.1,71.3 135.1,53.3 132.6,53.3 132.6,65.9 126.3,53.3 123.6,53.3 123.6,71.3 126,71.3 126,59 
				132.2,71.3 			"/>
			<path class="st6" d="M146.2,53.1c-1.4,0-2.6,0.3-3.4,0.9c-1.4,0.8-2.3,2-2.8,3.3c-0.6,1.4-0.9,3-0.9,5c0,1.7,0.3,3.3,0.9,4.8
				c0.7,1.7,1.5,2.8,2.5,3.4c2.4,1.5,5,1.6,7.6,0.3c1.3-0.6,2.1-1.2,2.7-1.9v-7.2h-6.3v2.8h3v2.7l0,0c-0.5,0.5-1.1,0.8-1.7,1.1
				c-0.6,0.3-1.2,0.5-1.9,0.5c-1.2,0-2.3-0.6-3.1-1.7c-0.8-1.1-1.2-2.8-1.2-4.9c0-1.9,0.4-3.5,1.2-4.6c1-1.1,1.9-1.6,3.3-1.6
				c0.7,0,1.5,0.3,2.2,0.8c0.6,0.5,1.1,1.2,1.2,2.1l2.8-0.7c-0.3-1.7-1-3-1.9-3.8C149.5,53.6,148,53.1,146.2,53.1z"/>
			<polygon class="st6" points="165.5,53.4 161.9,60.7 158.4,53.4 155.1,53.4 160.5,63.8 160.5,71.4 163.4,71.4 163.4,63.9 
				168.8,53.4 			"/>
			<path class="st6" d="M178.7,67.2l1.2,4.1h3l-5.7-18h-3l-5.7,18h3l1.2-4.1H178.7z M173.3,64.1l2.1-7l2.3,7.1h-4.4L173.3,64.1z"/>
			<polygon class="st6" points="202,53.3 190.6,53.3 190.6,56.1 195,56.1 195,71.3 197.6,71.3 197.6,56.1 202,56.1 			"/>
			<polygon class="st6" points="216.6,68.3 208.2,68.3 208.2,63.2 215.6,63.2 215.6,60.4 208.2,60.4 208.2,56.1 216.3,56.1 
				216.3,53.3 205.4,53.3 205.4,71.1 216.6,71.1 			"/>
			<path class="st6" d="M226.5,52.8c-2,0-3.7,0.9-4.9,2.5c-1.3,1.8-2,4-2,7.1c0,2.7,0.7,5,2,6.8c1.2,1.6,2.8,2.4,4.8,2.4
				c1.8,0,3.1-0.8,3.9-1.5c1-0.9,1.8-2.3,2.2-4.3l-2.7-1c-0.3,1.2-0.6,2.2-1.4,2.8c-0.6,0.6-1.4,0.9-2.2,0.9c-1,0-2-0.6-2.7-1.6
				c-0.7-0.9-1.1-2.5-1.1-4.9c0-2.3,0.4-3.9,1.1-4.8c0.7-1,1.7-1.6,2.8-1.6c0.7,0,1.4,0.1,2,0.8c0.6,0.8,0.9,1.5,1.1,2.2l2.8-0.9
				c-0.3-1.2-0.8-2.4-1.5-3.2C229.8,53.5,228.3,52.8,226.5,52.8z"/>
			<polygon class="st6" points="248,71.3 248,53.3 245.2,53.3 245.2,60.4 239.1,60.4 239.1,53.3 236.2,53.3 236.2,71.3 239.1,71.3 
				239.1,63.4 245.2,63.4 245.2,71.3 			"/>
			<polygon class="st6" points="260.9,71.3 263.7,71.3 263.7,53.3 261.2,53.3 261.2,65.9 261,65.5 255,53.3 252.3,53.3 252.3,71.3 
				254.6,71.3 254.6,59 254.8,59.3 			"/>
			<path class="st6" d="M274.7,53c-1.1,0-2.2,0.3-3.1,0.7c-0.7,0.4-1.3,0.9-1.9,1.6c-0.7,0.7-1.1,1.7-1.3,2.4
				c-0.4,1.1-0.6,2.6-0.6,4.7c0,2.9,0.6,5.2,2,6.8c1.3,1.6,3,2.4,5.2,2.4c2.1,0,3.7-0.8,5.1-2.4c1.3-1.6,2-3.9,2-6.9
				c0-3.1-0.6-5.3-2-6.9C278.7,53.8,276.9,53,274.7,53z M277.7,67.2c-0.8,1.1-1.7,1.6-3,1.6c-1.1,0-2.2-0.6-3-1.7
				c-0.8-1.1-1.2-2.7-1.2-4.8c0-1.9,0.4-3.6,1.1-4.6c0.7-1,1.8-1.6,3.1-1.6c1.4,0,2.3,0.5,3.1,1.6c0.7,1,1.1,2.5,1.1,4.8
				C278.9,64.4,278.5,66,277.7,67.2z"/>
			<polygon class="st6" points="285.5,53.4 285.5,71.3 295.8,71.3 295.8,68.4 288.4,68.4 288.4,53.4 			"/>
			<path class="st6" d="M305.6,53c-1.1,0-2.2,0.3-3.1,0.7c-0.7,0.4-1.3,0.9-1.9,1.6c-0.7,0.7-1.1,1.7-1.3,2.4
				c-0.4,1.1-0.6,2.6-0.6,4.7c0,2.9,0.6,5.2,2,6.8c1.3,1.6,3,2.4,5.2,2.4c2.1,0,3.7-0.8,5.1-2.4c1.3-1.6,2-3.9,2-6.9
				c0-3.1-0.6-5.3-2-6.9C309.5,53.8,307.7,53,305.6,53z M308.5,67.2c-0.8,1.1-1.7,1.6-3,1.6c-1.1,0-2.2-0.6-3-1.7
				c-0.8-1.1-1.2-2.7-1.2-4.8c0-1.9,0.4-3.6,1.1-4.6c0.7-1,1.8-1.6,3.1-1.6c1.4,0,2.3,0.5,3.1,1.6c0.7,1,1.1,2.5,1.1,4.8
				C309.8,64.4,309.4,66,308.5,67.2z"/>
			<path class="st6" d="M323,53.1c-1.4,0-2.6,0.3-3.4,0.9c-1.4,0.8-2.3,2-2.8,3.3c-0.6,1.3-0.9,3-0.9,5c0,1.7,0.3,3.3,0.9,4.8
				c0.7,1.7,1.5,2.8,2.5,3.4c1.3,0.8,2.6,1.2,4,1.2c1.2,0,2.4-0.3,3.6-0.9c1.3-0.6,2.1-1.2,2.7-1.9v-7.2h-6.3v2.8h3v2.7l0,0
				c-0.5,0.5-1.1,0.8-1.7,1.1c-0.6,0.3-1.2,0.5-1.9,0.5c-1.2,0-2.3-0.6-3.1-1.7c-0.8-1.1-1.2-2.9-1.2-4.9c0-1.9,0.4-3.5,1.2-4.6
				c1-1.1,1.9-1.6,3.3-1.6c0.7,0,1.5,0.3,2.2,0.8c0.6,0.5,1.1,1.2,1.2,2.1l2.8-0.7c-0.3-1.7-1-3-1.9-3.8
				C326.3,53.6,324.8,53.1,323,53.1z"/>
			<polygon class="st6" points="342.1,53.4 338.7,60.7 335.1,53.4 331.9,53.4 337.3,63.8 337.3,71.4 340,71.4 340,63.9 345.4,53.4 
							"/>
			<path class="st6" d="M360.9,52.8c-2,0-3.7,0.9-4.9,2.5c-1.3,1.8-2,4-2,7.1c0,2.7,0.7,5,2,6.8c1.2,1.6,2.8,2.4,4.8,2.4
				c1.8,0,3.1-0.8,3.9-1.5c1-0.9,1.8-2.3,2.2-4.3l-2.7-1c-0.3,1.2-0.6,2.2-1.4,2.8c-0.6,0.6-1.4,0.9-2.2,0.9c-1,0-2-0.6-2.7-1.6
				c-0.7-0.9-1.1-2.5-1.1-4.9c0-2.3,0.4-3.9,1.1-4.8c0.7-1,1.7-1.6,2.8-1.6c0.7,0,1.4,0.1,2,0.8c0.6,0.8,0.9,1.5,1.1,2.2l2.8-0.9
				c-0.3-1.2-0.8-2.4-1.5-3.2C364.2,53.5,362.8,52.8,360.9,52.8z"/>
			<path class="st6" d="M377.1,53c-1.1,0-2.2,0.3-3.1,0.7c-0.7,0.4-1.3,0.9-1.9,1.6c-0.7,0.7-1.1,1.7-1.3,2.4
				c-0.4,1.1-0.6,2.6-0.6,4.7c0,2.7,0.7,5,2,6.8c1.3,1.6,3,2.4,5.2,2.4c2.1,0,3.7-0.8,5.1-2.4c1.3-1.6,2-3.9,2-6.9
				c0-3.1-0.6-5.3-2-6.9C381,53.8,379.3,53,377.1,53z M380.2,67.2c-0.8,1.1-1.7,1.6-3,1.6c-1.1,0-2.2-0.6-3-1.7
				c-0.8-1.1-1.2-2.7-1.2-4.8c0-2.3,0.3-3.7,1.1-4.6c0.7-1,1.8-1.6,3.1-1.6c1.4,0,2.3,0.5,3.1,1.6c0.7,1,1.1,2.5,1.1,4.8
				C381.4,64.4,381,66,380.2,67.2z"/>
			<rect x="386.8" y="68" class="st6" width="2.7" height="3.3"/>
			<path class="st6" d="M392.7,68v3.1h1.4l0,0.1c0,0.2-0.1,0.4-0.1,0.5c-0.1,0.5-0.1,0.8-0.4,1.2c-0.3,0.3-0.6,0.6-1.2,0.9l0.5,1.3
				c0.6-0.3,1-0.6,1.4-1c0.3-0.4,0.6-0.9,0.7-1.5c0.1-0.6,0.1-1.4,0.1-2.4V68H392.7z"/>
			<polygon class="st6" points="407.2,53.4 407.2,71.3 417.5,71.3 417.5,68.4 410.1,68.4 410.1,53.4 			"/>
			<polygon class="st6" points="429.7,53.3 418.2,53.3 418.2,56.1 422.6,56.1 422.6,71.3 425.3,71.3 425.3,56.1 429.7,56.1 			"/>
			<path class="st6" d="M441.3,70.8c0.8-0.4,1.6-0.9,2.1-1.5c0.5-0.6,1.2-1.7,1.5-3.1c0.3-1.3,0.5-2.5,0.5-3.9c0-1.6-0.1-3-0.5-4.2
				c-0.2-0.8-0.7-2-1.3-2.8c-0.6-0.8-1.4-1.4-2.2-1.6c-0.8-0.2-1.7-0.3-2.9-0.3h-5.2v18h5.5C439.8,71.3,440.7,71.1,441.3,70.8z
				 M435.9,68.3V55.9h1.5c1.2,0,2,0,2.5,0.2c0.6,0.2,1.1,0.5,1.4,0.9c0.5,0.5,0.8,1.1,0.9,1.9c0.2,1,0.3,2.1,0.3,3.2
				c0,1.7-0.2,2.9-0.3,3.4c-0.1,0.8-0.4,1.5-0.8,1.9c-0.3,0.3-0.8,0.6-1.3,0.8c-0.5,0.2-0.9,0.2-1.9,0.2H435.9z"/>
			<rect x="447.9" y="68" class="st6" width="2.7" height="3.3"/>
		</g>
	</g>
</g>
</svg>
