<?xml version="1.0" encoding="utf-8"?>
<!-- Generator: Adobe Illustrator 23.0.5, SVG Export Plug-In . SVG Version: 6.00 Build 0)  -->
<svg version="1.1" id="圖層_1" xmlns="http://www.w3.org/2000/svg" xmlns:xlink="http://www.w3.org/1999/xlink" x="0px" y="0px"
	 viewBox="0 0 406.7 92" style="enable-background:new 0 0 406.7 92;" xml:space="preserve">
<style type="text/css">
	.st0{fill:#FFFFFF;stroke:#000000;stroke-width:0.75;}
	.st1{fill:#1D2088;}
	.st2{fill:url(#SVGID_1_);}
	.st3{fill:url(#SVGID_2_);}
	.st4{fill:none;stroke:#000000;stroke-width:0.75;}
	.st5{fill:none;stroke:#1D2088;stroke-width:0.5;stroke-dasharray:0.5;}
	.st6{fill:#FFFFFF;}
</style>
<g>
	<g>
		<path class="st0" d="M91.7,46c0,25.2-20.4,45.6-45.7,45.6C20.8,91.7,0.4,71.2,0.4,46S20.8,0.4,46,0.4C71.2,0.4,91.7,20.8,91.7,46z
			"/>
		<g>
			<path class="st1" d="M19.2,26.3c0.4-0.5,0.6-0.9,0.6-1.1c0-0.3-0.3-0.7-0.9-1.3l-4.7-4.7l-0.3,0c-0.3,0-0.6,0-0.7,0.1
				c-0.2,0.1-0.3,0.2-0.6,0.4l-0.2-0.2l1.8-1.8l9.2,1l-3.5-3.6c-0.6-0.6-1-0.9-1.4-0.9c-0.2,0-0.6,0.2-1,0.5l-0.2-0.2l2.5-2.5
				l0.2,0.2c-0.4,0.4-0.5,0.8-0.5,1.1c0,0.3,0.3,0.7,0.9,1.3l5.6,5.6l-0.2,0.2l-10.5-1.2l4.1,4.2c0.6,0.6,1,0.9,1.4,0.9
				c0.2,0,0.6-0.2,1-0.5l0.2,0.2l-2.5,2.5L19.2,26.3z"/>
			<path class="st1" d="M45.9,3.6c0.6,0.1,0.9,0.2,1,0.2c0.2,0,0.4-0.1,0.5-0.1c0.1-0.1,0.2-0.2,0.2-0.4l0.3,0l0.2,3.2l-0.3,0
				c-0.3-0.7-0.7-1.3-1-1.6C46.2,4.3,45.4,4,44.4,4c-1,0-1.8,0.4-2.5,1.2c-0.7,0.8-1,2-1,3.7c0.1,1.4,0.5,2.5,1.2,3.2
				c0.8,0.8,1.7,1.1,2.7,1.1c0.2,0,0.4,0,0.6-0.1c0.2,0,0.5-0.1,0.7-0.2c0.4-0.1,0.6-0.2,0.7-0.3c0.1-0.1,0.1-0.2,0.1-0.4l-0.1-2.4
				c0-0.6-0.1-0.9-0.3-1.1c-0.2-0.1-0.5-0.2-1.1-0.2l0-0.3L49.4,8l0,0.3c-0.4,0-0.6,0.1-0.7,0.2c-0.2,0.2-0.3,0.5-0.3,1l0.1,3
				c0,0.2-0.4,0.4-1.3,0.8c-0.9,0.3-1.7,0.5-2.5,0.5c-1.5,0.1-2.7-0.3-3.8-1.1c-1.1-0.9-1.7-2.2-1.8-3.7c-0.1-1.4,0.3-2.6,1.2-3.7
				c0.9-1.1,2.2-1.7,3.8-1.8C44.8,3.4,45.4,3.5,45.9,3.6z"/>
			<path class="st1" d="M71.8,12.7l-0.2,0.2c-0.3-0.2-0.5-0.4-0.7-0.4c-0.2-0.1-0.3,0-0.5,0.1c0,0-0.1,0.1-0.1,0.2
				c0,0.1-0.1,0.2-0.1,0.4L70,17.2l3.8-1.2c0.2-0.1,0.3-0.1,0.4-0.2c0.1-0.1,0.1-0.1,0.2-0.1c0.1-0.2,0.1-0.3,0-0.5
				c-0.1-0.1-0.2-0.3-0.5-0.5l0.2-0.2l2.5,2.1l-0.2,0.2c-0.2-0.2-0.5-0.3-0.8-0.3c-0.5,0-1.1,0.1-1.9,0.3l-3.9,1.2l-1.9,2.2
				c-0.4,0.4-0.5,0.8-0.5,1c0.1,0.2,0.3,0.6,0.8,1L68,22.4l-3.5-2.9l0.2-0.2c0.6,0.4,0.9,0.6,1.2,0.6c0.2,0,0.6-0.3,1-0.8l1.7-2
				l0.3-3.5c0.1-1.2,0.1-2,0.1-2.4c0-0.4-0.2-0.7-0.5-1l0.2-0.2L71.8,12.7z"/>
		</g>
		<g>
			<path class="st1" d="M4.2,50.8c0.6-0.1,0.9-0.2,1.1-0.3c0.2-0.1,0.2-0.5,0.2-1.1v-6.7c0-0.5-0.1-0.9-0.2-1
				c-0.2-0.2-0.5-0.3-1.1-0.3v-0.3h8l0.1,2.1h-0.4c-0.1-0.7-0.3-1.1-0.6-1.3c-0.3-0.2-0.8-0.3-1.7-0.3H7.5c-0.2,0-0.4,0-0.4,0.1
				C7,41.9,7,42,7,42.2v3.4h2.3c0.6,0,1.1-0.1,1.2-0.3c0.2-0.2,0.3-0.6,0.4-1.2h0.4v3.5H11c-0.1-0.6-0.3-1-0.4-1.2
				c-0.2-0.2-0.6-0.3-1.2-0.3H7v3.7c0,0.3,0.1,0.5,0.3,0.5c0.2,0.1,0.8,0.1,1.7,0.1c1,0,1.8-0.1,2.3-0.3c0.5-0.2,0.9-0.8,1.3-1.6H13
				l-0.7,2.5H4.2V50.8z"/>
		</g>
		<g>
			<path class="st1" d="M80.6,49.7v-0.3c-0.4,0-0.6-0.1-0.7-0.1c-0.2-0.1-0.3-0.3-0.3-0.5c0-0.1,0-0.3,0.1-0.5
				c0.1-0.2,0.3-0.8,0.7-1.8h4l0.6,1.5c0.1,0.2,0.2,0.4,0.2,0.6c0,0.2,0.1,0.3,0.1,0.4c0,0.2-0.1,0.4-0.2,0.4
				c-0.1,0.1-0.4,0.1-0.9,0.1v0.3h3.8v-0.3c-0.4,0-0.6-0.1-0.8-0.3c-0.1-0.1-0.3-0.5-0.6-1.1L83,39.6h-0.3L79.5,47
				c-0.5,1.1-0.8,1.8-1,2c-0.2,0.2-0.5,0.4-0.9,0.4v0.3H80.6z M80.7,45.9l1.7-4.1l1.7,4.1H80.7z"/>
		</g>
		<linearGradient id="SVGID_1_" gradientUnits="userSpaceOnUse" x1="43.4827" y1="47.9179" x2="26.0848" y2="65.3156">
			<stop  offset="0" style="stop-color:#00A0E9"/>
			<stop  offset="0.4888" style="stop-color:#0068B7"/>
			<stop  offset="1" style="stop-color:#080059"/>
		</linearGradient>
		<path class="st2" d="M45.7,45.7H16.2c0,0,1.5,14.5,8.4,20.4c5.8,5,9.7,7.6,16.6,8.9c4.5,0.9,4.6,0.1,4.6,0.1V45.7z"/>
		<linearGradient id="SVGID_2_" gradientUnits="userSpaceOnUse" x1="45.8252" y1="45.8864" x2="66.0421" y2="25.6697">
			<stop  offset="0" style="stop-color:#00A0E9"/>
			<stop  offset="0.4888" style="stop-color:#0068B7"/>
			<stop  offset="1" style="stop-color:#080059"/>
		</linearGradient>
		<path class="st3" d="M45.5,45.8H75c0,0-1.4-14.9-8.6-20.5c-7.2-5.6-12.3-7.8-16.1-8.2c-4.6-0.5-4.7,0.1-4.7,0.1L45.5,45.8z"/>
		<ellipse transform="matrix(0.7637 -0.6455 0.6455 0.7637 -18.9157 40.36)" class="st4" cx="45.7" cy="46" rx="29.2" ry="29.2"/>
		<path class="st0" d="M57.7,46.1c0,6.5-5.2,11.7-11.7,11.7c-6.5,0-11.7-5.2-11.7-11.7c0-6.5,5.2-11.7,11.7-11.7
			C52.5,34.4,57.7,39.7,57.7,46.1z"/>
		<path class="st5" d="M47.3,44.6c3.9,2.6,6.5,5.5,5.9,6.5c-0.7,1-4.4-0.3-8.3-3c-3.9-2.6-6.5-5.5-5.9-6.5
			C39.7,40.7,43.4,42,47.3,44.6z"/>
		<path class="st5" d="M47.2,48.1c-3.5,3.1-7,5-7.8,4.1c-0.8-0.9,1.4-4.1,4.9-7.3c3.5-3.1,7-5,7.8-4.1C52.9,41.7,50.7,45,47.2,48.1z
			"/>
	</g>
	<g>
		<path class="st6" d="M122.2,36.7c-1.1,3.2-4.1,6-11.7,7.8c-0.3-0.5-1-1.6-1.5-2.1c6.6-1.4,9.4-3.4,10.5-5.7h-10.1v-2.4h2.9v-6.6
			h7.9v-2.5h2.6v2.5h8.4v6.6h2.7v2.4H122.2z M114.8,24.1h-4.9V22h4.9v-2.6h2.6V22h3.6v2.2h-3.6v2.5h-2.6V24.1z M120.1,34.4
			c0.1-0.5,0.1-0.9,0.1-1.4v-3h-5.5v4.4H120.1z M123.2,37.1c3.5,1.4,8.4,3.7,10.8,5.3l-1.3,2.1c-2.3-1.6-7.1-4.1-10.7-5.6
			L123.2,37.1z M126.1,24.1h-3.9v-2.2h3.9v-2.6h2.6v2.6h4.7v2.2h-4.7v2.5h-2.6V24.1z M122.8,30v3c0,0.5,0,0.9-0.1,1.3h5.9V30H122.8z
			"/>
		<path class="st6" d="M150.3,25.4v3.5h9.1v2.4h-20.6v-2.4h8.8v-3.5h-10.5V23h10.5v-3.6h2.7V23H161v2.4H150.3z M140.1,34.1h18.1
			v10.6h-2.8v-1.2h-12.7v1.2h-2.6V34.1z M142.8,36.4v4.8h12.7v-4.8H142.8z"/>
		<path class="st6" d="M188.7,41v2.3h-24.5V41h7.9v-4.4h-6v-9.4h6v-3.9h-7.3V21h23.3v2.3h-7.6v3.9h6.2v9.4h-6.2V41H188.7z
			 M174.6,34.4V41h3.6v-6.6h6.1v-5h-6.1v-6.1h-3.5v6.1h-6v5H174.6z"/>
		<path class="st6" d="M200.4,36.2c-0.4-0.8-1.3-2.4-2.1-3.6v12h-2.5V33.4c-1,2.5-2.3,4.8-3.5,6.4c-0.2-0.7-0.9-1.7-1.2-2.4
			c1.6-1.9,3.4-5.1,4.4-8h-4V27h4.4v-3.7c-1.2,0.2-2.4,0.4-3.5,0.5c-0.1-0.5-0.4-1.5-0.7-2c3.1-0.5,6.6-1.3,8.7-2.2l1.5,2.1
			c-1,0.4-2.3,0.7-3.5,1V27h3.8v2.4h-3.8v0.4c0.8,0.9,3.2,3.6,3.7,4.4L200.4,36.2z M213.3,37.5v7h-2.5v-6.6l-8.6,1.5l-0.4-2.4l9-1.5
			V19.4h2.5V35l3-0.5l0.4,2.4L213.3,37.5z M207.3,33.8c-0.9-1.2-2.9-2.9-4.6-4.1l1.6-1.5c1.6,1.1,3.7,2.7,4.7,3.9L207.3,33.8z
			 M208,26.6c-0.8-1.2-2.7-2.8-4.3-4l1.7-1.5c1.6,1.1,3.5,2.7,4.4,3.8L208,26.6z"/>
		<path class="st6" d="M228,33.5c-1,0.3-2.1,0.6-3.1,0.9v7.2c0,1.3-0.3,2-1.1,2.4c-0.8,0.4-2,0.5-3.9,0.4c-0.1-0.6-0.4-1.7-0.8-2.3
			c1.2,0,2.4,0,2.7,0c0.4,0,0.5-0.1,0.5-0.5v-6.5c-1.1,0.3-2.1,0.6-3,0.8l-0.7-2.4c1-0.2,2.3-0.5,3.7-0.9v-5.5H219v-2.4h3.4v-5.4
			h2.5v5.4h2.9v2.4h-2.9v4.8l2.8-0.7L228,33.5z M242.8,30.1c-1.1,3.8-2.9,6.8-5.3,9.1c1.9,1.4,4.1,2.5,6.7,3.2
			c-0.6,0.5-1.3,1.5-1.6,2.2c-2.8-0.8-5.1-2-7.1-3.7c-2.2,1.6-4.7,2.9-7.5,3.6c-0.3-0.7-0.9-1.8-1.4-2.3c2.6-0.6,4.9-1.7,7.1-3.1
			c-1.8-2-3.2-4.4-4.3-7.1l0.4-0.1h-1.1v-2.3h5.7v-3.8h-6.1v-2.3h6.1v-4.1h2.5v4.1h6.3v2.3h-6.3v3.8h3.9l0.4-0.1L242.8,30.1z
			 M231.9,31.9c0.9,2.1,2.1,4,3.7,5.7c1.7-1.6,3.1-3.5,4-5.7H231.9z"/>
		<path class="st6" d="M255.9,41.5c0,1.2-0.2,1.9-0.9,2.3c-0.7,0.4-1.8,0.5-3.5,0.5c-0.1-0.6-0.4-1.8-0.7-2.4c1,0,2,0,2.3,0
			c0.3,0,0.4-0.1,0.4-0.5v-6.6l-2.8,1.7l-0.8-1.8c-0.2,3.4-0.7,7.1-1.8,9.7c-0.5-0.4-1.5-1-2.1-1.2c1.7-3.8,1.8-9.2,1.8-13.3v-9.8h8
			V41.5z M250.1,30.1c0,1.2,0,2.6-0.1,4.1c1-0.4,2.2-0.9,3.5-1.5v-3.1l-1,0.9c-0.5-0.7-1.5-1.9-2.4-2.8V30.1z M250.1,22.7v3.8
			l0.9-0.6c0.9,0.8,1.9,1.8,2.6,2.6v-5.8H250.1z M270.5,31.8c-1,3.4-2.6,6-4.8,8.1c1.6,1.1,3.6,1.9,5.7,2.4
			c-0.6,0.5-1.3,1.5-1.6,2.2c-2.3-0.7-4.4-1.7-6.1-3c-1.9,1.3-4,2.3-6.3,2.9c-0.3-0.7-0.9-1.7-1.4-2.2c2-0.5,4-1.3,5.7-2.4
			c-1.6-1.7-2.9-3.7-3.9-5.9l0.9-0.3H257v-2.4h11.4l0.4-0.1L270.5,31.8z M262,23.4c0,2.5-0.7,5.4-4.2,7.3c-0.3-0.5-1.2-1.5-1.6-1.8
			c3-1.6,3.5-3.7,3.5-5.6v-3h8.7v6.1c0,0.8,0,1,0.4,1h1.3c0.3,0,0.9-0.1,1.2-0.2l0.2,2.1c-0.4,0.1-0.9,0.2-1.4,0.2h-1.6
			c-2.1,0-2.6-0.9-2.6-3.1v-3.8H262V23.4z M260.3,33.7c0.8,1.8,1.9,3.3,3.4,4.7c1.5-1.3,2.7-2.9,3.5-4.7H260.3z"/>
		<path class="st6" d="M282,20.2c-0.7,1.9-1.7,3.9-2.7,5.7v18.6h-2.5V29.9c-0.7,1-1.5,1.9-2.3,2.7c-0.2-0.6-1-2-1.4-2.6
			c2.6-2.6,5-6.6,6.5-10.5L282,20.2z M295.8,30.4c0,0,0,0.7,0,1.1c-0.4,7.9-0.7,10.8-1.5,11.7c-0.5,0.7-1,0.9-1.8,1
			c-0.7,0.1-1.9,0.1-3.1,0.1c-0.1-0.7-0.3-1.7-0.7-2.3c1.1,0.1,2.1,0.1,2.5,0.1c0.4,0,0.7-0.1,0.9-0.4c0.5-0.6,0.8-2.9,1.1-8.9h-4.2
			c-0.7,5.7-2.6,9.4-6.6,11.7c-0.3-0.5-1.2-1.5-1.8-1.9c3.6-1.8,5.2-5,5.8-9.8h-2.9v-2.4H295.8z M288.3,21.3
			c-1.2,4.1-3.3,7.8-5.9,10.2c-0.3-0.5-1.1-1.8-1.6-2.3c2.3-1.9,4-5.1,5-8.5L288.3,21.3z M293.9,20.3c0.8,3.5,2.6,6.9,5,8.6
			c-0.5,0.6-1.3,1.8-1.6,2.6c-2.3-2.1-4.2-5.4-5.3-8.8h-2.9v-2.4H293.9z"/>
		<path class="st6" d="M311,25.2c-0.5,0.9-0.9,1.9-1.5,2.7h13v13.7c0,1.4-0.3,2.1-1.3,2.5c-1,0.4-2.5,0.4-4.8,0.4
			c-0.1-0.7-0.5-1.8-0.8-2.5c1.6,0.1,3.3,0.1,3.7,0.1c0.5,0,0.6-0.1,0.6-0.5v-2.4H309c-0.4,2.1-1.3,4.1-2.9,5.5
			c-0.3-0.6-1.3-1.6-1.8-2c2.3-2.1,2.5-5.1,2.5-7.7v-3.2c-1.2,1.4-2.5,2.6-4,3.7c-0.4-0.6-1.2-1.5-1.7-2c3-2,5.3-5.1,7.1-8.4h-6.4
			v-2.4h7.5c0.5-1.2,0.9-2.3,1.2-3.4L313,20c-0.3,0.9-0.6,1.9-1,2.8h13.7v2.4H311z M320,37.1v-2.4h-10.7v0.5c0,0.6,0,1.3-0.1,1.9
			H320z M320,30.2h-10.7v2.4H320V30.2z"/>
		<path class="st6" d="M338.4,21.3c-0.8,2.3-1.7,4.9-2.6,7.1c1.8,2.3,2.2,4.2,2.2,5.8c0,1.6-0.3,2.7-1.1,3.3
			c-0.4,0.3-0.9,0.5-1.5,0.5c-0.5,0.1-1.2,0.1-1.8,0.1c0-0.6-0.2-1.6-0.6-2.2c0.6,0,1,0.1,1.4,0c0.3,0,0.6-0.1,0.8-0.2
			c0.4-0.3,0.5-1,0.5-1.8c0-1.4-0.4-3.2-2.2-5.3c0.7-1.8,1.4-4.1,1.9-5.9h-3.4v21.7h-2.2v-24h6.5l0.4-0.1L338.4,21.3z M353.3,35.1
			c-1.3,1.1-3,2.2-4.3,3c1.3,1.8,2.9,3.2,4.9,4.1c-0.5,0.5-1.4,1.5-1.7,2.2c-4.2-2.1-6.6-6.3-7.9-11.7H342v8.4l4.4-1
			c0,0.7,0,1.7,0.1,2.3c-5.5,1.5-6.4,1.8-7,2.2c-0.2-0.6-0.7-1.6-1.1-2.1c0.5-0.3,1.1-0.9,1.1-2.1V20.5h12.1v12.2h-5.2
			c0.4,1.3,0.8,2.5,1.4,3.6c1.3-0.9,2.8-2.1,3.7-3L353.3,35.1z M342,22.8v2.8h7.2v-2.8H342z M342,30.5h7.2v-2.9H342V30.5z"/>
		<path class="st6" d="M366.1,21c-1.9,4.5-5,9-8.1,11.7c-0.4-0.5-1.6-1.6-2.3-2.1c3-2.5,5.8-6.5,7.5-10.5L366.1,21z M373.8,33.8
			c2.2,3,4.8,6.8,6.1,9.3l-2.6,1.4c-0.4-0.8-0.9-1.7-1.5-2.7c-13.7,1-15.4,1.1-16.6,1.6c-0.1-0.6-0.6-2-1-2.7c0.8-0.2,1.6-1,2.6-2.3
			c1.1-1.2,4.6-6,6.8-10.6l3,1.2c-2.3,4-5,8-7.7,11.1l11.5-0.7c-1-1.6-2.1-3.2-3-4.6L373.8,33.8z M374.3,20
			c1.3,4.1,3.9,8.1,7.2,10.2c-0.6,0.6-1.5,1.7-2,2.5c-3.1-2.3-5.6-6.2-7.1-10.1h-4.8V20H374.3z"/>
		<path class="st6" d="M406.7,41c0,1.6-0.3,2.5-1.3,2.9c-1,0.5-2.7,0.5-5.2,0.5c-0.1-0.7-0.5-2-0.9-2.8c1.8,0.1,3.6,0.1,4.1,0.1
			s0.7-0.2,0.7-0.7V23.5h-19.4v-2.4h22V41z M401.2,28.2h-16.2V26h16.2V28.2z M389,39.7v2h-2.5V30.8h12.9v8.9H389z M389,33v4.5h8V33
			H389z"/>
	</g>
	<g>
		<path class="st6" d="M110.3,72.4v-12h7.3v2h-5.3v2.7h4.9v2h-4.9v3.2h5.5v2H110.3z"/>
		<path class="st6" d="M119.5,72.4v-12h1.9l4,8.1v-8.1h1.8v12h-2l-4-7.9v7.9H119.5z"/>
		<path class="st6" d="M133.9,68v-2h4.3v4.8c-0.4,0.5-1,0.9-1.8,1.3c-0.8,0.4-1.6,0.6-2.4,0.6c-1,0-1.9-0.3-2.7-0.8
			c-0.8-0.5-1.3-1.3-1.7-2.3c-0.4-1-0.6-2-0.6-3.2c0-1.3,0.2-2.4,0.6-3.3c0.4-1,1.1-1.7,1.9-2.2c0.6-0.4,1.4-0.6,2.3-0.6
			c1.2,0,2.2,0.3,2.8,0.9c0.7,0.6,1.1,1.5,1.3,2.6l-2,0.5c-0.1-0.6-0.4-1.1-0.8-1.4c-0.4-0.3-0.9-0.5-1.4-0.5c-0.9,0-1.5,0.3-2.1,1
			c-0.5,0.7-0.8,1.7-0.8,3c0,1.4,0.3,2.5,0.8,3.2c0.5,0.7,1.2,1.1,2,1.1c0.4,0,0.8-0.1,1.2-0.3c0.4-0.2,0.8-0.4,1.1-0.7V68H133.9z"
			/>
		<path class="st6" d="M142.5,72.4v-5l-3.6-6.9h2.3l2.3,4.7l2.3-4.7h2.3l-3.6,7v5H142.5z"/>
		<path class="st6" d="M156.7,72.4h-2.1l-0.8-2.7h-3.9l-0.8,2.7h-2.1l3.8-12h2.1L156.7,72.4z M153.1,67.6l-1.4-4.4l-1.3,4.4H153.1z"
			/>
		<path class="st6" d="M163.2,72.4v-10h-2.9v-2h7.7v2h-2.9v10H163.2z"/>
		<path class="st6" d="M169.4,72.4v-12h7.3v2h-5.3v2.7h4.9v2h-4.9v3.2h5.5v2H169.4z"/>
		<path class="st6" d="M184.8,68l1.9,0.7c-0.3,1.3-0.8,2.3-1.5,2.9c-0.7,0.6-1.6,1-2.6,1c-1.3,0-2.4-0.5-3.2-1.6
			c-0.8-1.1-1.3-2.6-1.3-4.5c0-2,0.4-3.5,1.3-4.7c0.8-1.1,1.9-1.7,3.3-1.7c1.2,0,2.2,0.4,2.9,1.3c0.4,0.5,0.8,1.3,1,2.2l-2,0.6
			c-0.1-0.6-0.4-1.1-0.7-1.5c-0.4-0.4-0.8-0.5-1.3-0.5c-0.7,0-1.3,0.3-1.8,1c-0.5,0.6-0.7,1.7-0.7,3.1c0,1.5,0.2,2.6,0.7,3.2
			c0.4,0.6,1,1,1.7,1c0.5,0,1-0.2,1.4-0.6C184.4,69.5,184.6,68.8,184.8,68z"/>
		<path class="st6" d="M188.4,72.4v-12h2v4.7h3.9v-4.7h2v12h-2v-5.2h-3.9v5.2H188.4z"/>
		<path class="st6" d="M198.3,72.4v-12h1.9l4,8.1v-8.1h1.8v12h-2l-4-7.9v7.9H198.3z"/>
		<path class="st6" d="M207.8,66.5c0-1.2,0.1-2.3,0.4-3.1c0.2-0.6,0.5-1.2,0.9-1.6c0.4-0.5,0.8-0.8,1.3-1.1c0.6-0.3,1.3-0.5,2.1-0.5
			c1.4,0,2.6,0.5,3.5,1.6c0.9,1.1,1.3,2.6,1.3,4.6c0,1.9-0.4,3.5-1.3,4.6c-0.9,1.1-2,1.6-3.4,1.6c-1.5,0-2.6-0.5-3.5-1.6
			C208.2,69.9,207.8,68.4,207.8,66.5z M209.8,66.4c0,1.4,0.3,2.4,0.8,3.1c0.5,0.7,1.2,1.1,1.9,1.1c0.8,0,1.4-0.3,1.9-1
			c0.5-0.7,0.8-1.7,0.8-3.1c0-1.4-0.2-2.4-0.7-3.1c-0.5-0.7-1.1-1-2-1c-0.8,0-1.5,0.3-2,1C210.1,64,209.8,65,209.8,66.4z"/>
		<path class="st6" d="M218.9,72.4V60.5h2v9.9h4.9v2H218.9z"/>
		<path class="st6" d="M226.8,66.5c0-1.2,0.1-2.3,0.4-3.1c0.2-0.6,0.5-1.2,0.9-1.6c0.4-0.5,0.8-0.8,1.3-1.1c0.6-0.3,1.3-0.5,2.1-0.5
			c1.4,0,2.6,0.5,3.5,1.6c0.9,1.1,1.3,2.6,1.3,4.6c0,1.9-0.4,3.5-1.3,4.6c-0.9,1.1-2,1.6-3.4,1.6c-1.5,0-2.6-0.5-3.5-1.6
			C227.2,69.9,226.8,68.4,226.8,66.5z M228.8,66.4c0,1.4,0.3,2.4,0.8,3.1c0.5,0.7,1.2,1.1,1.9,1.1c0.8,0,1.4-0.3,1.9-1
			c0.5-0.7,0.8-1.7,0.8-3.1c0-1.4-0.2-2.4-0.7-3.1c-0.5-0.7-1.1-1-2-1c-0.8,0-1.5,0.3-2,1C229.1,64,228.8,65,228.8,66.4z"/>
		<path class="st6" d="M242.4,68v-2h4.3v4.8c-0.4,0.5-1,0.9-1.8,1.3c-0.8,0.4-1.6,0.6-2.4,0.6c-1,0-1.9-0.3-2.7-0.8
			c-0.8-0.5-1.3-1.3-1.7-2.3c-0.4-1-0.6-2-0.6-3.2c0-1.3,0.2-2.4,0.6-3.3c0.4-1,1.1-1.7,1.9-2.2c0.6-0.4,1.4-0.6,2.3-0.6
			c1.2,0,2.2,0.3,2.8,0.9c0.7,0.6,1.1,1.5,1.3,2.6l-2,0.5c-0.1-0.6-0.4-1.1-0.8-1.4c-0.4-0.3-0.9-0.5-1.4-0.5c-0.9,0-1.5,0.3-2.1,1
			c-0.5,0.7-0.8,1.7-0.8,3c0,1.4,0.3,2.5,0.8,3.2c0.5,0.7,1.2,1.1,2,1.1c0.4,0,0.8-0.1,1.2-0.3c0.4-0.2,0.8-0.4,1.1-0.7V68H242.4z"
			/>
		<path class="st6" d="M251,72.4v-5l-3.6-6.9h2.3l2.3,4.7l2.2-4.7h2.3l-3.6,7v5H251z"/>
		<path class="st6" d="M267.4,68l1.9,0.7c-0.3,1.3-0.8,2.3-1.5,2.9c-0.7,0.6-1.6,1-2.6,1c-1.3,0-2.4-0.5-3.2-1.6
			c-0.8-1.1-1.3-2.6-1.3-4.5c0-2,0.4-3.5,1.3-4.7c0.8-1.1,1.9-1.7,3.3-1.7c1.2,0,2.2,0.4,2.9,1.3c0.4,0.5,0.8,1.3,1,2.2l-2,0.6
			c-0.1-0.6-0.4-1.1-0.7-1.5c-0.4-0.4-0.8-0.5-1.3-0.5c-0.7,0-1.3,0.3-1.8,1c-0.5,0.6-0.7,1.7-0.7,3.1c0,1.5,0.2,2.6,0.7,3.2
			c0.4,0.6,1,1,1.7,1c0.5,0,1-0.2,1.4-0.6C267,69.5,267.2,68.8,267.4,68z"/>
		<path class="st6" d="M270.6,66.5c0-1.2,0.1-2.3,0.4-3.1c0.2-0.6,0.5-1.2,0.9-1.6c0.4-0.5,0.8-0.8,1.3-1.1c0.6-0.3,1.3-0.5,2.1-0.5
			c1.4,0,2.6,0.5,3.5,1.6c0.9,1.1,1.3,2.6,1.3,4.6c0,1.9-0.4,3.5-1.3,4.6c-0.9,1.1-2,1.6-3.4,1.6c-1.5,0-2.6-0.5-3.5-1.6
			C271.1,69.9,270.6,68.4,270.6,66.5z M272.7,66.4c0,1.4,0.3,2.4,0.8,3.1c0.5,0.7,1.2,1.1,1.9,1.1c0.8,0,1.4-0.3,1.9-1
			c0.5-0.7,0.8-1.7,0.8-3.1c0-1.4-0.2-2.4-0.7-3.1c-0.5-0.7-1.1-1-2-1c-0.8,0-1.5,0.3-2,1C272.9,64,272.7,65,272.7,66.4z"/>
		<path class="st6" d="M281.6,72.4v-2.3h1.9v2.3H281.6z"/>
		<path class="st6" d="M285.4,70.1h1.9v1.6c0,0.7,0,1.2-0.1,1.6c-0.1,0.4-0.3,0.7-0.5,1c-0.3,0.3-0.6,0.5-1,0.7l-0.4-1
			c0.4-0.2,0.6-0.4,0.8-0.6c0.2-0.3,0.2-0.6,0.3-1.1h-0.9V70.1z"/>
		<path class="st6" d="M293.1,72.4V60.5h2v9.9h4.9v2H293.1z"/>
		<path class="st6" d="M302.6,72.4v-10h-2.9v-2h7.7v2h-2.9v10H302.6z"/>
		<path class="st6" d="M308.8,60.4h3.6c0.8,0,1.4,0.1,1.9,0.2c0.6,0.2,1.1,0.6,1.5,1.1c0.4,0.5,0.7,1.2,0.9,1.9
			c0.2,0.8,0.3,1.7,0.3,2.8c0,1-0.1,1.8-0.3,2.6c-0.2,0.9-0.6,1.6-1,2.1c-0.3,0.4-0.8,0.7-1.4,1c-0.4,0.2-1,0.3-1.7,0.3h-3.7V60.4z
			 M310.8,62.4v7.9h1.5c0.6,0,0.9,0,1.2-0.1c0.3-0.1,0.6-0.3,0.8-0.5c0.2-0.2,0.4-0.6,0.5-1.2c0.1-0.5,0.2-1.3,0.2-2.2
			c0-0.9-0.1-1.6-0.2-2.1c-0.1-0.5-0.3-0.9-0.6-1.2c-0.2-0.3-0.5-0.5-0.9-0.6c-0.3-0.1-0.8-0.1-1.6-0.1H310.8z"/>
		<path class="st6" d="M318.6,72.4v-2.3h1.9v2.3H318.6z"/>
	</g>
</g>
</svg>
