<?xml version="1.0" encoding="utf-8"?>
<!-- Generator: Adobe Illustrator 23.0.5, SVG Export Plug-In . SVG Version: 6.00 Build 0)  -->
<svg version="1.1" id="圖層_1" xmlns="http://www.w3.org/2000/svg" xmlns:xlink="http://www.w3.org/1999/xlink" x="0px" y="0px"
	 viewBox="0 0 115.5 38.3" style="enable-background:new 0 0 115.5 38.3;" xml:space="preserve">
<style type="text/css">
	.st0{fill:#FFFFFF;stroke:#000000;stroke-width:0.75;}
	.st1{fill:#1D2088;}
	.st2{fill:url(#SVGID_1_);}
	.st3{fill:url(#SVGID_2_);}
	.st4{fill:none;stroke:#000000;stroke-width:0.75;}
	.st5{fill:none;stroke:#1D2088;stroke-width:0.5;stroke-dasharray:0.5;}
	.st6{fill:#FFFFFF;}
</style>
<g>
	<g>
		<circle class="st0" cx="19.2" cy="19.2" r="18.8"/>
		<g>
			<path class="st1" d="M8.2,11.1c0.2-0.2,0.2-0.4,0.2-0.5S8.3,10.3,8,10.1L6.2,8.2H6.1c-0.1,0-0.2,0-0.3,0c-0.1,0-0.1,0.1-0.2,0.2
				L5.4,8.3l0.7-0.7L9.9,8L8.5,6.5C8.3,6.3,8.1,6.2,7.9,6.2c-0.1,0-0.2,0.1-0.4,0.2L7.4,6.3l1-1l0.1,0.1C8.4,5.5,8.3,5.7,8.3,5.8
				s0.1,0.3,0.4,0.5L11,8.6l-0.1,0.1L6.6,8.2l1.7,1.7c0.2,0.2,0.4,0.4,0.6,0.4c0.1,0,0.2-0.1,0.4-0.2l0.1,0.1L8.2,11.1L8.2,11.1z"/>
			<path class="st1" d="M19.2,1.8c0.2,0.1,0.4,0.1,0.4,0.1c0.1,0,0.2,0,0.2-0.1c0,0,0.1-0.1,0.1-0.2H20L20.1,3H20
				c-0.1-0.3-0.3-0.5-0.4-0.7c-0.3-0.3-0.6-0.4-1-0.4s-0.7,0.2-1,0.5s-0.4,0.8-0.4,1.5c0,0.6,0.2,1,0.5,1.3s0.7,0.5,1.1,0.4
				c0.1,0,0.2,0,0.3,0c0.1,0,0.2,0,0.3-0.1c0.1-0.1,0.2-0.1,0.3-0.1c0,0,0.1-0.1,0-0.2v-1c0-0.2,0-0.4-0.1-0.4
				c-0.1-0.1-0.2-0.1-0.4-0.1V3.6l1.6-0.1v0.1c-0.2,0-0.3,0-0.3,0.1c-0.1,0.1-0.1,0.2-0.1,0.4v1.2c0,0.1-0.2,0.2-0.5,0.3
				c-0.4,0.1-0.7,0.2-1,0.2c-0.6,0-1.1-0.1-1.5-0.5c-0.5-0.4-0.7-0.9-0.7-1.5s0.1-1.1,0.5-1.5c0.4-0.5,0.9-0.7,1.6-0.7
				C18.7,1.7,19,1.7,19.2,1.8z"/>
			<path class="st1" d="M29.9,5.5L29.9,5.5c-0.2,0-0.3-0.1-0.3-0.1c-0.1,0-0.1,0-0.2,0.1c0,0,0,0,0,0.1c0,0,0,0.1,0,0.2l-0.3,1.6
				l1.5-0.5c0.1,0,0.1,0,0.1-0.1c0,0,0.1,0,0.1-0.1c0.1-0.1,0.1-0.1,0-0.2c0,0-0.1-0.1-0.2-0.2l0.1-0.1l1,0.9l-0.1,0.1
				c0-0.1-0.1-0.1-0.3-0.1c-0.2,0-0.4,0-0.8,0.1l-1.6,0.5l-0.8,0.9c-0.2,0.2-0.2,0.3-0.2,0.4c0,0.1,0.1,0.2,0.3,0.4l-0.1,0.1
				l-1.5-1.2l0.1-0.1c0.2,0.2,0.4,0.2,0.5,0.2s0.2-0.1,0.4-0.3l0.7-0.8l0.1-1.4c0-0.5,0.1-0.8,0-1c0-0.2-0.1-0.3-0.2-0.4l0.1-0.1
				L29.9,5.5z"/>
		</g>
		<g>
			<path class="st1" d="M2,21.2c0.2,0,0.4-0.1,0.4-0.1c0.1-0.1,0.1-0.2,0.1-0.4v-2.8c0-0.2,0-0.4-0.1-0.4c-0.1-0.1-0.2-0.1-0.4-0.1
				v-0.1h3.3v0.9H5.2c-0.1-0.3-0.1-0.5-0.2-0.6s-0.3-0.1-0.7-0.1H3.4c-0.1,0-0.1,0-0.2,0c0,0,0,0.1,0,0.2v1.4h1c0.3,0,0.4,0,0.5-0.1
				s0.1-0.2,0.2-0.5H5v1.4H4.8c0-0.2-0.1-0.4-0.2-0.5s-0.2-0.1-0.5-0.1h-1v1.5c0,0.1,0,0.2,0.1,0.2s0.3,0,0.7,0s0.7,0,0.9-0.1
				s0.4-0.3,0.5-0.7h0.2l-0.3,1H2L2,21.2z"/>
		</g>
		<g>
			<path class="st1" d="M32.2,20.8v-0.1c0.2,0,0.3-0.1,0.4-0.2s0.2-0.4,0.4-0.8l1.3-3h0.1l1.5,3.5c0.1,0.2,0.2,0.4,0.2,0.4
				c0.1,0.1,0.2,0.1,0.3,0.1v0.1h-1.6v-0.1c0.2,0,0.3,0,0.4-0.1c0.1,0,0.1-0.1,0.1-0.2c0,0,0-0.1,0-0.2s0-0.2-0.1-0.2L35,19.4h-1.6
				c-0.2,0.4-0.3,0.7-0.3,0.8s0,0.2,0,0.2c0,0.1,0,0.2,0.1,0.2s0.2,0,0.3,0.1v0.1C33.5,20.8,32.2,20.8,32.2,20.8z M34.9,19.2
				l-0.7-1.7l-0.7,1.7H34.9z"/>
		</g>
		
			<linearGradient id="SVGID_1_" gradientUnits="userSpaceOnUse" x1="18.1933" y1="280.0131" x2="11.0405" y2="287.1659" gradientTransform="matrix(1 0 0 1 0 -260)">
			<stop  offset="0" style="stop-color:#00A0E9"/>
			<stop  offset="0.4888" style="stop-color:#0068B7"/>
			<stop  offset="1" style="stop-color:#080059"/>
		</linearGradient>
		<path class="st2" d="M19.1,19.1H7c0,0,0.6,6,3.4,8.4c2.4,2.1,4,3.1,6.8,3.7c1.9,0.4,1.9,0.1,1.9,0.1V19.1z"/>
		
			<linearGradient id="SVGID_2_" gradientUnits="userSpaceOnUse" x1="19.135" y1="279.1576" x2="27.4464" y2="270.8462" gradientTransform="matrix(1 0 0 1 0 -260)">
			<stop  offset="0" style="stop-color:#00A0E9"/>
			<stop  offset="0.4888" style="stop-color:#0068B7"/>
			<stop  offset="1" style="stop-color:#080059"/>
		</linearGradient>
		<path class="st3" d="M19,19.1h12.1c0,0-0.6-6.1-3.5-8.4S22.5,7.5,21,7.3c-1.9-0.2-1.9,0.1-1.9,0.1L19,19.1z"/>
		<path class="st4" d="M31.1,19.2c0,6.6-5.4,12-12,12s-12-5.4-12-12s5.4-12,12-12C25.7,7.2,31.1,12.6,31.1,19.2z"/>
		<circle class="st0" cx="19.2" cy="19.3" r="4.8"/>
		<path class="st5" d="M19.8,18.7c1.6,1.1,2.7,2.3,2.4,2.7c-0.3,0.4-1.8-0.1-3.4-1.2s-2.7-2.3-2.4-2.7
			C16.6,17.1,18.2,17.6,19.8,18.7z"/>
		<path class="st5" d="M19.7,20.1c-1.4,1.3-2.9,2-3.2,1.7c-0.3-0.4,0.6-1.7,2-3s2.9-2,3.2-1.7C22.1,17.5,21.2,18.8,19.7,20.1z"/>
	</g>
	<g>
		<path class="st6" d="M48.2,27V11.4h9.2V14h-6.8v3.4H57V20h-6.3v4.2h7.1v2.6C57.7,27,48.2,27,48.2,27z"/>
		<path class="st6" d="M59.9,27V11.4h2.6l5.3,10.4V11.4h2.4v15.4h-2.5l-5.2-10v10.1H60V27H59.9z"/>
		<path class="st6" d="M78.5,21.4v-2.6H84v6.1c-0.5,0.7-1.2,1.2-2.4,1.7c-0.9,0.4-2.1,0.7-3,0.7c-1.4,0-2.5-0.3-3.4-0.9
			c-0.9-0.7-1.7-1.7-2.2-2.9c-0.5-1.2-0.7-2.6-0.7-4.2c0-1.7,0.3-3,0.8-4.3c0.5-1.2,1.4-2.2,2.4-2.9c0.8-0.5,1.8-0.8,3-0.8
			c1.6,0,2.8,0.4,3.6,1.2s1.4,2,1.7,3.3l-2.5,0.5c-0.1-0.7-0.5-1.4-0.9-1.8c-0.5-0.4-1.1-0.7-1.8-0.7c-1.1,0-2,0.4-2.6,1.2
			c-0.8,0.6-1,1.9-1,3.7c0,1.9,0.3,3.2,0.9,4.2c0.7,0.9,1.6,1.4,2.6,1.4c0.5,0,1.1-0.1,1.7-0.4c0.5-0.3,0.9-0.5,1.4-0.9v-1.7H78.5z"
			/>
		<path class="st6" d="M89.6,27v-6.5l-4.6-9h3l2.9,6.1l2.9-6.1h2.9l-4.6,9V27C92.3,27,89.6,27,89.6,27z"/>
		<path class="st6" d="M107.8,27H105l-1.1-3.4h-5L97.9,27h-2.8l4.9-15.4h2.8L107.8,27z M103.1,20.7l-1.8-5.7l-1.7,5.7H103.1z"/>
	</g>
</g>
</svg>
