<?xml version="1.0" encoding="utf-8"?>
<!-- Generator: Adobe Illustrator 24.3.0, SVG Export Plug-In . SVG Version: 6.00 Build 0)  -->
<svg version="1.1" id="圖層_1" xmlns="http://www.w3.org/2000/svg" xmlns:xlink="http://www.w3.org/1999/xlink" x="0px" y="0px"
	 viewBox="0 0 35 27" style="enable-background:new 0 0 35 27;" xml:space="preserve">
<style type="text/css">
	.st0{fill:#007580;}
</style>
<g>
	<path class="st0" d="M30,23.4c-0.8,0-1.7,0.2-2.5,0.5c-0.5,0.2-1.1,0.4-1.6,0.4c-0.6,0-1.1-0.2-1.6-0.4c-0.8-0.3-1.6-0.5-2.5-0.5
		c-0.8,0-1.7,0.2-2.5,0.5c-0.5,0.2-1.1,0.4-1.6,0.4c-0.6,0-1.1-0.2-1.6-0.4c-0.8-0.3-1.6-0.5-2.5-0.5c-0.8,0-1.7,0.2-2.5,0.5
		c-0.5,0.2-1.1,0.4-1.6,0.4c-0.6,0-1.1-0.2-1.6-0.4c-0.8-0.3-1.6-0.5-2.5-0.5c-0.8,0-1.7,0.2-2.5,0.5c-0.5,0.2-1.1,0.4-1.6,0.4v2.5
		c0.8,0,1.7-0.2,2.5-0.5c0.5-0.2,1.1-0.4,1.6-0.4c0.6,0,1.1,0.2,1.6,0.4c0.8,0.3,1.6,0.5,2.5,0.5c0.8,0,1.7-0.2,2.5-0.5
		c0.5-0.2,1.1-0.4,1.6-0.4c0.6,0,1.1,0.2,1.6,0.4c0.8,0.3,1.6,0.5,2.5,0.6c0.8,0,1.7-0.2,2.5-0.5c0.5-0.2,1.1-0.4,1.6-0.4
		c0.6,0,1.1,0.2,1.6,0.4c0.8,0.3,1.6,0.5,2.5,0.5c0.8,0,1.7-0.2,2.5-0.5c0.5-0.2,1.1-0.4,1.6-0.4c0.6,0,1.1,0.2,1.6,0.4
		c0.8,0.3,1.6,0.5,2.5,0.6v-2.5c-0.6,0-1.1-0.2-1.6-0.4C31.6,23.6,30.8,23.4,30,23.4L30,23.4z"/>
	<path class="st0" d="M32.4,18.9c-0.8-0.3-1.6-0.5-2.5-0.5c-0.8,0-1.7,0.2-2.5,0.5c-0.5,0.2-1.1,0.4-1.6,0.4c-0.6,0-1.1-0.2-1.6-0.4
		c-0.3-0.1-0.6-0.2-0.9-0.3c-3.4-1.6-5.2-4.7-4.9-7.2c0.2-2.1,1.5-4.5,3.7-4.7c2.2-0.2,4.2,1.3,4.6,3.5c0.1,0.4,0.4,0.6,0.8,0.6
		c0.2,0,0.4-0.1,0.5-0.3c0.1-0.2,0.2-0.4,0.2-0.6c-0.7-5.5-5.6-9.3-11.3-8.7c-3.1,0.3-6,2.3-8.6,5.8c-0.4,0.5-0.7,0.9-1,1.4
		c-1.8,2.5-3.6,4.9-5.9,6.5v6.7c0.8,0,1.7-0.2,2.5-0.5c0.5-0.2,1.1-0.4,1.6-0.4c0.6,0,1.1,0.2,1.6,0.4c0.8,0.3,1.6,0.5,2.4,0.5
		c0.8,0,1.7-0.2,2.5-0.5c0.5-0.2,1.1-0.4,1.6-0.4c0.6,0,1.1,0.2,1.6,0.4c0.8,0.3,1.6,0.5,2.5,0.6c0.8,0,1.7-0.2,2.5-0.5
		c0.5-0.2,1.1-0.4,1.6-0.4c0.6,0,1.1,0.2,1.6,0.4c0.8,0.3,1.6,0.5,2.5,0.5c0.8,0,1.7-0.2,2.5-0.5c0.5-0.2,1.1-0.4,1.6-0.4
		c0.6,0,1.1,0.2,1.6,0.4c0.8,0.3,1.6,0.5,2.5,0.6v-2.5C33.5,19.3,32.9,19.2,32.4,18.9L32.4,18.9z"/>
</g>
</svg>
