<?xml version="1.0" encoding="utf-8"?>
<!-- Generator: Adobe Illustrator 24.3.0, SVG Export Plug-In . SVG Version: 6.00 Build 0)  -->
<svg version="1.1" id="圖層_1" xmlns="http://www.w3.org/2000/svg" xmlns:xlink="http://www.w3.org/1999/xlink" x="0px" y="0px"
	 viewBox="0 0 29 27" style="enable-background:new 0 0 29 27;" xml:space="preserve">
<style type="text/css">
	.st0{fill:#007580;}
</style>
<g>
	<path class="st0" d="M12.8,18.9c2-1.1,4.3-1.6,6.6-1.6h0.1c-1.7-1.4-3.9-2.2-6.1-2.2c-1.5,0-3,0.3-4.3,0.9
		C10.6,16.7,11.8,17.7,12.8,18.9L12.8,18.9z"/>
	<path class="st0" d="M3.3,22.4c5.1-0.4,7.8-2.3,8-2.4c0.2-0.2,0.5-0.4,0.8-0.6c-4-4.6-11.2-4-11.2-4v7.1L3.3,22.4L3.3,22.4z"/>
	<path class="st0" d="M27.3,20.9c-0.2-0.2-0.5-0.4-0.8-0.6v-3.7c1.1-0.4,1.8-1.4,1.8-2.6c0-1.6-1.9-5.2-2.4-5.2
		c-0.5,0-2.4,3.6-2.4,5.2c0,1.1,0.7,2.2,1.8,2.6v3c-1.2-0.6-2.5-1-3.9-1.1v-6.3c1.5-0.3,2.6-1.8,2.6-3.9c0-2.4-2.5-7.5-3.3-7.5
		s-3.3,5.1-3.3,7.5c0,2.1,1.1,3.6,2.6,3.9v6.2c-0.2,0-0.4,0-0.6,0c-3,0-5.8,0.9-7.6,2.4c0,0-2.9,2.2-8.5,2.6l-2.5,0v3.5h27.6v-5
		L27.3,20.9L27.3,20.9z"/>
	<polygon class="st0" points="4.4,4.5 6,4.5 6,5.1 4.4,5.1 4.4,4.5 	"/>
	<polygon class="st0" points="6.6,3.3 5.5,2.2 5.9,1.7 7,2.9 6.6,3.3 6.6,3.3 	"/>
	<path class="st0" d="M10.5,4.9c0,1.1-0.9,1.9-1.9,1.9S6.6,5.9,6.6,4.9s0.9-1.9,1.9-1.9S10.5,3.8,10.5,4.9L10.5,4.9z"/>
	<polygon class="st0" points="8.2,0.7 8.9,0.7 8.9,2.3 8.2,2.3 8.2,0.7 	"/>
	<polygon class="st0" points="11.1,4.5 12.7,4.5 12.7,5.1 11.1,5.1 11.1,4.5 	"/>
	<polygon class="st0" points="10.5,3.3 11.6,2.2 11.2,1.7 10.1,2.9 10.5,3.3 10.5,3.3 	"/>
	<polygon class="st0" points="6.6,6.3 5.5,7.5 5.9,7.9 7,6.8 6.6,6.3 6.6,6.3 	"/>
	<polygon class="st0" points="8.2,7.4 8.9,7.4 8.9,9 8.2,9 8.2,7.4 	"/>
	<polygon class="st0" points="10.5,6.3 11.6,7.5 11.2,7.9 10.1,6.8 10.5,6.3 10.5,6.3 	"/>
</g>
</svg>
