<?xml version="1.0" encoding="utf-8"?>
<!-- Generator: Adobe Illustrator 23.0.5, SVG Export Plug-In . SVG Version: 6.00 Build 0)  -->
<svg version="1.1" id="Capa_1" xmlns="http://www.w3.org/2000/svg" xmlns:xlink="http://www.w3.org/1999/xlink" x="0px" y="0px"
	 viewBox="0 0 512 512" style="enable-background:new 0 0 512 512;" xml:space="preserve">
<style type="text/css">
	.st0{fill:#FFFFFF;}
</style>
<path class="st0" d="M379.8,105.1L449,67l-9.9-17.1L361.5,93c-2.3,1.3-3.9,3.4-4.6,5.9c-0.7,2.5-0.3,5.2,1,7.4l3.3,5.6l-48.7,4.7
	c-19.5,1.9-38.2,10.3-52.6,23.8l-0.9,0.9l-1.1-0.7c-33.8-20.1-73.8-28.4-112.7-23.2l-6.1,0.8l6.9-12c1.3-2.3,1.7-4.9,1-7.4
	c-0.7-2.5-2.3-4.6-4.6-5.9l-56-24.3L76.1,86.5l48,18.6L27.2,273L1,258.2V281l-1,0c2.2,1.3,30.8,15.5,33.3,14.8
	c2.5-0.7,4.6-2.3,5.9-4.6l7.4-12.8l2.8,4.9c14.5,25,35.2,46.5,59.6,62l1,0.6l-0.2,1.1c-2.2,13.4,4.2,27,16,33.8
	c6.9,4,15.1,5.4,23.1,3.7l1.5-0.3l0.5,1.5c2.5,7.7,7.8,14.2,14.8,18.2c7.8,4.5,17.2,5.6,25.9,3l1.5-0.5l0.6,1.4
	c2.8,6.7,7.6,12.1,13.8,15.7c7.7,4.5,17.1,5.6,25.8,3l1.5-0.4l0.6,1.4c2.8,6.7,7.6,12.2,13.9,15.8c5,2.9,10.6,4.4,16.4,4.4
	c11.7,0,22.7-6.3,28.5-16.4l10-17.3c1.8-3.1,3-6.4,3.7-9.9l0.3-1.5l1.6,0.2c1.2,0.1,2.2,0.2,3.2,0.2c2.8,0,5.7-0.4,8.5-1.1
	c8.5-2.3,15.6-7.7,20-15.3c2.4-4.1,3.8-8.6,4.3-13.3l0.2-1.8l1.7,0.2c1.3,0.1,2.5,0.2,3.6,0.2c2.9,0,5.7-0.4,8.5-1.1
	c8.5-2.3,15.6-7.7,20-15.3c1.9-3.2,3.1-6.7,3.8-10.3l0.1-0.7l78.8-56.9l2.1,3.7c1.3,2.3,3.4,3.9,5.9,4.6c2.5,0.7,5.2,0.3,7.4-1
	L511,271v-22.6L476.8,273L379.8,105.1z M160.4,347.7l-6.6,11.4c-1.8,3.1-4.6,5.3-8,6.2c-1.1,0.3-2.3,0.5-3.5,0.5
	c-2.3,0-4.6-0.6-6.6-1.8c-3.1-1.8-5.3-4.6-6.2-8c-0.9-3.4-0.4-7,1.3-10.1l6.6-11.4c2.4-4.1,6.8-6.6,11.5-6.6c2.3,0,4.6,0.6,6.6,1.8
	c3.1,1.8,5.3,4.6,6.2,8C162.6,341.1,162.1,344.7,160.4,347.7z M204.5,363.5l-10.8,18.7c-1.8,3.1-4.6,5.3-8,6.2
	c-1.1,0.3-2.3,0.5-3.5,0.5c-2.3,0-4.6-0.6-6.6-1.8c-6.3-3.7-8.5-11.8-4.9-18.1l10.8-18.7c1.8-3.1,4.6-5.3,8-6.2
	c3.4-0.9,7-0.4,10.1,1.3C206,349,208.2,357.1,204.5,363.5z M247.4,381.3l-11.9,20.6c-1.8,3.1-4.6,5.3-8,6.2
	c-1.1,0.3-2.3,0.5-3.5,0.5c-2.3,0-4.6-0.6-6.6-1.8c-6.3-3.7-8.5-11.8-4.9-18.1l11.9-20.6c1.8-3.1,4.6-5.3,8-6.2
	c3.4-0.9,7-0.4,10.1,1.3c3.1,1.8,5.3,4.6,6.2,8C249.7,374.7,249.2,378.2,247.4,381.3z M287.3,404.3l-10,17.3
	c-2.5,4.2-6.9,6.6-11.5,6.6c-2.2,0-4.5-0.6-6.6-1.8c-3.1-1.8-5.3-4.6-6.2-8c-0.9-3.4-0.4-7,1.3-10l10-17.3c2.4-4.1,6.8-6.6,11.5-6.6
	c2.3,0,4.6,0.6,6.6,1.8c3.1,1.8,5.3,4.6,6.2,8C289.6,397.7,289.1,401.3,287.3,404.3z M394.6,310.9c-3.7,6.3-11.8,8.5-18.1,4.8
	l-52.5-30.3c-4.7-2.7-10.7-1.1-13.4,3.6c-2.7,4.7-1.1,10.7,3.6,13.4l43.8,25.3c3.1,1.8,5.2,4.6,6.1,8c0.9,3.4,0.4,7-1.4,10.1
	c-1.8,3.1-4.6,5.2-8,6.2c-3.4,0.9-7,0.4-10-1.3l-47.6-27.5c-4.7-2.7-10.7-1.1-13.4,3.6c-0.8,1.4-1.3,3-1.3,4.6
	c-0.1,3.2,1.4,6.3,4.1,8.2c0.3,0.2,0.6,0.4,0.8,0.5l32.4,18.7c3.1,1.8,5.2,4.6,6.2,8c0.9,3.4,0.4,7-1.3,10c-1.8,3.1-4.6,5.3-8,6.2
	c-1.1,0.3-2.3,0.5-3.4,0.5c-2.3,0-4.6-0.6-6.6-1.8l-3.1-1.8l-0.2-0.3c-2.8-4.2-6.5-7.6-10.8-10.2c-7-4-15.2-5.3-23.1-3.7l-1.5,0.3
	l-0.5-1.5c-2.5-7.7-7.8-14.2-14.8-18.2c-8.3-4.8-18.4-5.7-27.5-2.5l-1.5,0.5l-0.7-1.4c-2.9-6.1-7.5-11.1-13.3-14.5
	c-7.6-4.4-16.4-5.6-24.9-3.3c-1.5,0.4-3,0.9-4.4,1.5l-1.5,0.6l-0.7-1.4c-2.9-5.5-7.2-10.1-12.6-13.2c-7.6-4.4-16.4-5.5-24.9-3.3
	c-8.5,2.3-15.6,7.7-19.9,15.3l-2,3.5l-1.5-1c-20.6-13.7-38.1-32.2-50.5-53.6l-8.5-14.6l68.8-119.1l21-2.8c33.3-4.4,67.7,2.2,97,18.8
	l1.6,0.9l-1,1.5c-0.1,0.2-23.3,37.6-23.3,37.6c-8.8,14.2-6.7,32.4,5.2,44.2c6.7,6.6,15.6,10.3,25.1,10.3c9.5,0,18.5-3.7,25.2-10.3
	l7.3-7.3l104.9,60.1c3.1,1.8,5.3,4.6,6.2,8C396.9,304.2,396.4,307.8,394.6,310.9z M415.4,297.5l-0.7-2.4
	c-2.4-8.2-7.8-15.1-15.2-19.3l-100.2-57.5l14.6-14.5c1.9-1.8,2.9-4.3,2.9-6.9c0-2.6-1-5.1-2.9-6.9c-3.8-3.8-10-3.8-13.9,0L263.7,226
	c-6.2,6.2-16.4,6.2-22.7,0c-5.4-5.3-6.3-13.5-2.4-19.9l23.1-37.3c11.4-18.4,31.1-30.6,52.6-32.7l57.5-5.5l80.7,139.9L415.4,297.5z"
	/>
</svg>
