<?xml version="1.0" encoding="utf-8"?>
<!-- Generator: Adobe Illustrator 23.0.5, SVG Export Plug-In . SVG Version: 6.00 Build 0)  -->
<svg version="1.1" id="圖層_1" xmlns="http://www.w3.org/2000/svg" xmlns:xlink="http://www.w3.org/1999/xlink" x="0px" y="0px"
	 viewBox="0 0 12.2 12.4" style="enable-background:new 0 0 12.2 12.4;" xml:space="preserve">
<style type="text/css">
	.st0{fill:#002063;}
</style>
<path class="st0" d="M6.4,7.2L4.2,5.8V4.9h4.3v0.9L6.4,7.2z M11.9,4.8v6c0,0.5-0.4,0.9-0.9,0.9H1.7c-0.5,0-0.9-0.4-0.9-0.9v-6
	C0.8,4.5,1,4.2,1.2,4l4.7-3c0.3-0.2,0.7-0.2,1,0l4.6,3C11.7,4.2,11.9,4.5,11.9,4.8z M11,4.7c-0.1-0.2-0.4-0.3-0.6-0.1l-1,0.7V4.4
	C9.3,4.2,9.2,4,8.9,4H3.8C3.5,4,3.4,4.2,3.4,4.4v0.8l-1-0.7c-0.3-0.1-0.5,0-0.7,0.2c-0.1,0.2,0,0.4,0.2,0.6l3.7,2.5L4.4,8.5
	C4.2,8.6,4.1,8.9,4.3,9.1c0.1,0.1,0.2,0.2,0.4,0.2c0.1,0,0.2,0,0.2-0.1l1.5-1l1.5,1C8,9.4,8.3,9.3,8.4,9.1c0.1-0.2,0.1-0.5-0.1-0.6
	L7.1,7.7l3.7-2.5C11,5.1,11.1,4.9,11,4.7z"/>
</svg>
