<?xml version="1.0" encoding="utf-8"?>
<!-- Generator: Adobe Illustrator 23.0.5, SVG Export Plug-In . SVG Version: 6.00 Build 0)  -->
<svg version="1.1" id="圖層_1" xmlns="http://www.w3.org/2000/svg" xmlns:xlink="http://www.w3.org/1999/xlink" x="0px" y="0px"
	 viewBox="0 0 7.9 12.4" style="enable-background:new 0 0 7.9 12.4;" xml:space="preserve">
<style type="text/css">
	.st0{fill:#002063;}
</style>
<path class="st0" d="M6.3,12.2H1.6c-0.4,0-0.8-0.4-0.8-0.8c0-0.4,0.4-0.8,0.8-0.8h4.7c0.4,0,0.8,0.4,0.8,0.8S6.7,12.2,6.3,12.2z
	 M7.7,4c0,1.8-1.9,4.2-3,5.4c-0.4,0.4-1.1,0.5-1.5,0C2.1,8.3,0.2,6,0.2,4c0-2.1,1.7-3.8,3.8-3.8S7.7,1.9,7.7,4z M4.7,4
	c0-0.2-0.1-0.4-0.2-0.6C4.4,3.3,4.3,3.3,4.2,3.2c-0.3-0.1-0.6,0-0.8,0.2C3.2,3.5,3.2,3.7,3.2,4c0,0.1,0,0.2,0.1,0.3
	c0,0.1,0.1,0.2,0.2,0.3c0.1,0.1,0.3,0.2,0.6,0.2c0.1,0,0.2,0,0.3-0.1c0.1,0,0.2-0.1,0.3-0.2c0.1-0.1,0.1-0.2,0.2-0.3
	C4.7,4.2,4.7,4.1,4.7,4z"/>
</svg>
