<?xml version="1.0" encoding="utf-8"?>
<!-- Generator: Adobe Illustrator 23.0.5, SVG Export Plug-In . SVG Version: 6.00 Build 0)  -->
<svg version="1.1" id="圖層_1" xmlns="http://www.w3.org/2000/svg" xmlns:xlink="http://www.w3.org/1999/xlink" x="0px" y="0px"
	 viewBox="0 0 12.2 12.4" style="enable-background:new 0 0 12.2 12.4;" xml:space="preserve">
<style type="text/css">
	.st0{fill:#002063;}
</style>
<path class="st0" d="M8.5,8.6l1.3,1.3c0.4,0.4,0.4,1,0,1.4l0,0c-1.3,1.3-3.4,1.3-4.7,0l-4-4c-1.3-1.3-1.3-3.4,0-4.7l0,0
	c0.4-0.4,1-0.4,1.4,0l1.3,1.3c0.4,0.4,0.4,1,0,1.4L3.2,5.9l3.3,3.3l0.6-0.6C7.5,8.2,8.1,8.2,8.5,8.6z M9.3,6.1c0-1.7-1.4-3-3-3
	c-0.4,0-0.7,0.3-0.7,0.7s0.3,0.7,0.7,0.7c0.9,0,1.6,0.7,1.6,1.6c0,0.4,0.3,0.7,0.7,0.7C8.9,6.8,9.3,6.5,9.3,6.1z M12.2,6.1
	c0-3.3-2.7-5.9-5.9-5.9c-0.4,0-0.7,0.3-0.7,0.7s0.3,0.7,0.7,0.7c2.5,0,4.5,2,4.5,4.5c0,0.4,0.3,0.7,0.7,0.7
	C11.9,6.8,12.2,6.5,12.2,6.1z"/>
</svg>
