<?xml version="1.0" encoding="utf-8"?>
<!-- Generator: Adobe Illustrator 23.0.5, SVG Export Plug-In . SVG Version: 6.00 Build 0)  -->
<svg version="1.1" id="Capa_1" xmlns="http://www.w3.org/2000/svg" xmlns:xlink="http://www.w3.org/1999/xlink" x="0px" y="0px"
	 viewBox="0 0 30 30" style="enable-background:new 0 0 30 30;" xml:space="preserve">
<path d="M3.5,24.6c2.7,3.3,6.8,5.4,11.4,5.4c0,0,0,0,0.1,0c0,0,0,0,0,0c0,0,0,0,0,0c4.6,0,8.8-2.1,11.5-5.4c0.3-0.3,0.5-0.6,0.7-0.9
	C29,21.2,30,18.2,30,15s-1-6.2-2.8-8.6C27,6,26.8,5.7,26.5,5.4C23.8,2.1,19.6,0,15,0c0,0,0,0,0,0c0,0,0,0,0,0c0,0,0,0-0.1,0
	C10.3,0,6.2,2.1,3.5,5.4C3.2,5.7,3,6,2.8,6.3C1,8.8,0,11.8,0,15s1,6.2,2.8,8.6C3,24,3.2,24.3,3.5,24.6z M19.3,28.1
	c1.4-1.3,2.6-3.3,3.4-5.7c1.1,0.4,2.1,0.9,2.9,1.4C23.9,25.8,21.7,27.3,19.3,28.1z M26.3,22.9c-0.9-0.6-2-1.2-3.3-1.6
	c0.4-1.6,0.7-3.3,0.8-5.2h4.9C28.5,18.6,27.6,21,26.3,22.9z M28.8,14.9h-5c0-2.2-0.3-4.3-0.8-6.1c1.2-0.5,2.3-1,3.3-1.6
	C27.8,9.3,28.7,12,28.8,14.9z M25.5,6.1c-0.8,0.5-1.8,1-2.9,1.4c-0.8-2.4-2-4.3-3.4-5.7C21.7,2.7,23.9,4.2,25.5,6.1z M15.6,1.3
	c2.5,0.4,4.6,3,5.9,6.7c-1.8,0.5-3.8,0.8-5.9,0.9V1.3z M15.6,10.1c2.2-0.1,4.3-0.4,6.2-1c0.5,1.8,0.7,3.7,0.7,5.8h-6.9
	C15.6,14.9,15.6,10.1,15.6,10.1z M15.6,16.1h6.9c-0.1,1.7-0.3,3.3-0.7,4.8c-1.9-0.6-4-0.9-6.2-1V16.1z M15.6,21.1
	c2.1,0.1,4.1,0.4,5.9,0.9c-1.2,3.7-3.4,6.3-5.9,6.7V21.1z M4.5,23.8c0.8-0.5,1.8-1,2.8-1.4c0.8,2.3,1.9,4.3,3.3,5.6
	C8.2,27.2,6.1,25.8,4.5,23.8z M14.4,28.7c-2.5-0.3-4.7-2.9-5.9-6.7c1.8-0.5,3.8-0.9,5.9-0.9V28.7z M14.4,19.9
	c-2.3,0.1-4.4,0.4-6.3,1c-0.4-1.5-0.6-3.1-0.7-4.8h7C14.4,16.1,14.4,19.9,14.4,19.9z M14.4,14.9h-7c0-2.1,0.3-4,0.7-5.8
	c1.9,0.6,4,0.9,6.3,1V14.9z M14.4,1.3v7.6c-2.1-0.1-4.2-0.4-5.9-0.9C9.7,4.2,11.9,1.6,14.4,1.3z M10.6,2C9.2,3.3,8.1,5.2,7.3,7.6
	c-1.1-0.4-2-0.9-2.8-1.4C6.1,4.2,8.2,2.8,10.6,2z M3.7,7.1c0.9,0.6,2,1.2,3.2,1.6c-0.5,1.9-0.8,4-0.8,6.2H1.2
	C1.3,12,2.2,9.3,3.7,7.1z M6.2,16.1c0.1,1.8,0.4,3.6,0.8,5.2c-1.2,0.4-2.3,1-3.2,1.6c-1.4-2-2.3-4.3-2.5-6.8L6.2,16.1L6.2,16.1z"/>
</svg>
