<?xml version="1.0" encoding="utf-8"?>
<!-- Generator: Adobe Illustrator 23.0.5, SVG Export Plug-In . SVG Version: 6.00 Build 0)  -->
<svg version="1.1" id="圖層_1" xmlns="http://www.w3.org/2000/svg" xmlns:xlink="http://www.w3.org/1999/xlink" x="0px" y="0px"
	 viewBox="0 0 109 38.8" style="enable-background:new 0 0 109 38.8;" xml:space="preserve">
<style type="text/css">
	.st0{fill:#002063;stroke:#002063;stroke-width:0.2;stroke-miterlimit:10;}
	.st1{fill:#537CC4;stroke:#537CC4;stroke-width:0.2;stroke-miterlimit:10;}
	.st2{fill:#1F4FA3;stroke:#1F4FA3;stroke-width:0.2;stroke-miterlimit:10;}
	.st3{fill:#002063;}
</style>
<path class="st0" d="M13.4,6.2c-7.2,0-13.1,5.9-13.1,13.1s5.9,13.1,13.1,13.1s13.1-5.8,13.1-13C26.5,12.1,20.6,6.2,13.4,6.2z
	 M25.6,19.4c0,6.7-5.5,12.2-12.2,12.2S1.2,26.1,1.2,19.4S6.7,7.2,13.4,7.2S25.6,12.7,25.6,19.4z"/>
<polygon class="st1" points="5.3,12.1 5.3,12.2 11.3,13.1 11.3,29.2 5.2,38.3 5.3,38.4 13.3,29.3 13.3,29.3 13.3,12.1 "/>
<polygon class="st2" points="15.7,26.1 15.6,9.8 21.6,0.4 21.5,0.4 14.1,9.6 14.1,9.6 14.1,27.3 21.6,27.9 "/>
<g>
	<path class="st3" d="M39.7,18.8c-0.6,0.3-1.2,0.7-2.1,1.2v5.8c0,1.1-0.2,1.7-1.9,1.9c0-0.5-0.1-0.8-0.3-1c-0.3-0.2-0.6-0.4-1.3-0.5
		v-0.3c0,0,1.5,0.1,1.8,0.1s0.4-0.1,0.4-0.3v-4.9c-0.5,0.3-1,0.6-1.6,0.9c-0.1,0.2-0.2,0.4-0.4,0.5l-0.7-1.8
		c0.5-0.1,1.5-0.4,2.7-0.8v-3.8H34l-0.1-0.5h2.4v-4.2l2,0.2c0,0.3-0.2,0.5-0.6,0.5v3.5H38l0.8-1.2c0,0,0.9,0.8,1.4,1.4
		c-0.1,0.2-0.2,0.3-0.5,0.3h-2v3.4c0.6-0.2,1.3-0.4,2-0.6L39.7,18.8z M45,25.8c0.6,0.1,1.3,0.1,2,0.1c0.8,0,2.8,0,3.7,0v0.2
		c-0.5,0.1-0.7,0.6-0.7,1.2h-3.1c-3,0-4.7-0.6-5.7-3.2c-0.7,1.8-1.7,3-3.2,3.8l-0.2-0.2c1.4-1.5,2.4-3.6,2.5-6.3l2.1,0.4
		c-0.1,0.2-0.3,0.4-0.7,0.4c-0.1,0.5-0.2,1-0.4,1.5c0.6,1,1.3,1.6,2.3,2v-5.1h-3.5l-0.2-0.5h3.6v-1.9H39l-0.1-0.5h4.6V16h-3.3
		L40,15.5h3.4V14h-4.2l-0.1-0.5h4.4v-2l2,0.2c0,0.3-0.2,0.4-0.6,0.5v1.3h2.8l0.9-1.2c0,0,1,0.8,1.7,1.4c-0.1,0.2-0.2,0.3-0.4,0.3H45
		v1.5h2.1l0.7-0.7l1.5,1.1c-0.1,0.1-0.4,0.3-0.7,0.3v1.6h0.2l0.7-1c0,0,0.8,0.7,1.2,1.2c0,0.2-0.2,0.3-0.5,0.3h-1.6v2.6
		c0,0.1-0.7,0.4-1.1,0.4h-0.2v-0.7H45v2.2h1.9l0.9-1.1c0,0,1,0.8,1.6,1.3c-0.1,0.2-0.2,0.3-0.5,0.3H45V25.8z M45,17.5h2.3v-1.7H45
		V17.5z M45,19.9h2.3V18H45V19.9z"/>
	<path class="st3" d="M59.5,20.6c0,0,0.9,0.7,1.4,1.2c-0.1,0.2-0.2,0.3-0.5,0.3h-3c-0.3,2.2-1.2,4.2-4,5.7l-0.2-0.2
		c2-1.5,2.6-3.5,2.9-5.5h-2.6l-0.1-0.5h2.8c0-0.5,0.1-1.1,0.1-1.6v-1.2h-2.4l-0.1-0.5h2.5v-2.8h-2.8L53.4,15h4
		c0.4-1.1,0.9-2.7,1.2-3.8l2,0.6c-0.1,0.2-0.3,0.4-0.7,0.3c-0.5,0.8-1.3,1.9-2.1,2.9h0.7l0.8-1c0,0,0.9,0.7,1.4,1.2
		c-0.1,0.2-0.2,0.3-0.5,0.3h-2.7v2.8h0.3l0.7-1c0,0,0.8,0.7,1.3,1.2c0,0.2-0.2,0.3-0.4,0.3h-1.9V20c0,0.6,0,1.1-0.1,1.6h1.3
		L59.5,20.6z M54.2,11.2c3.5,1.7,2.3,4.2,1.1,3.2c-0.1-1-0.8-2.3-1.3-3.1L54.2,11.2z M65.1,12.3c0.9,2.3,2.9,4.2,4.9,5.3v0.2
		c-0.6,0.2-1,0.6-1.2,1.1c-1.7-1.4-3.1-3.7-3.9-6.1c-0.7,1.6-1.6,3.3-3,4.7H65l0.8-1c0,0,0.9,0.7,1.5,1.3c0,0.2-0.2,0.3-0.5,0.3H62
		l-0.1-0.5c-0.6,0.6-1.3,1.2-2.1,1.7l-0.2-0.2c2.1-2.1,3.6-5.3,4.2-7.8l2.1,0.6C65.8,12.1,65.6,12.2,65.1,12.3L65.1,12.3z
		 M67.6,19.1l1.5,1.5c-0.1,0.1-0.4,0.2-0.8,0.2c-0.8,1.3-2.2,2.9-3.5,4c2.1,1.7,1.5,3.5,0.3,2.8c-0.5-1.4-2.2-3.1-3.5-4.1l0.2-0.2
		c1.1,0.4,2,0.8,2.6,1.3c0.8-1.2,1.7-2.8,2.2-4h-6L60.5,20h6.2L67.6,19.1z"/>
	<path class="st3" d="M76.1,17.2C79,18.8,78,20.9,77,20c-0.1-0.7-0.5-1.5-0.9-2.2v9.3c0,0.2-0.6,0.5-1,0.5h-0.3v-7.9
		c-0.6,1.3-1.3,2.6-2.2,3.7l-0.3-0.2c1.2-2.1,1.8-4.7,2.2-7.3h-1.8l-0.1-0.5h2.2V11l1.9,0.2c0,0.3-0.2,0.4-0.6,0.5v3.6l0.7-1
		c0,0,0.8,0.7,1.4,1.3c-0.1,0.2-0.2,0.3-0.5,0.3h-1.6C76.1,15.9,76.1,17.2,76.1,17.2z M88.7,26.3c0.5,0.5,0.6,0.8,0.5,1
		c-0.3,0.6-1.4,0.3-2.2-0.1c-0.8-0.4-1.4-0.9-1.9-1.6c-1.3,1-2.8,1.6-4.4,2l-0.1-0.3c1.4-0.6,2.8-1.4,3.9-2.6c-0.6-1-1-2.2-1.2-3.6
		H81c0,0.5-0.1,0.9-0.2,1.4c3,0.8,2.1,3,0.9,2.2c-0.1-0.5-0.5-1.1-1-1.6c-0.4,1.7-1.4,3.3-3.5,4.5l-0.3-0.3c2.3-1.9,2.6-4.2,2.7-6.3
		h-1.5L78,20.5h5.4c-0.3-1.7-0.4-3.6-0.5-5.8c-0.1,0.1-0.3,0.1-0.5,0.1c-0.7,1-1.9,2.4-3,3.4c0.6-0.1,1.4-0.1,2.1-0.2
		c-0.1-0.5-0.3-0.9-0.5-1.2l0.2-0.1c2.5,1.6,1.3,3.5,0.4,2.6c0-0.3,0-0.5-0.1-0.8c-0.6,0.3-1.5,0.6-2.3,0.9
		c-0.1,0.2-0.2,0.3-0.4,0.4l-0.7-1.4c0,0,0.3-0.1,0.4-0.1c0.6-0.6,1.3-1.5,1.9-2.5c-0.4,0.1-0.8,0.3-1.2,0.5
		c-0.1,0.2-0.2,0.4-0.4,0.4L78,15.2c0,0,0.3-0.1,0.4-0.1c0.8-0.7,1.6-2.6,1.9-3.5l1.7,0.8c-0.1,0.1-0.3,0.3-0.6,0.3
		c-0.6,0.8-1.5,1.9-2.3,2.6c0.5,0,1.1-0.1,1.7-0.1c0.3-0.5,0.5-0.9,0.6-1.2l1.4,0.8c0-1.1,0-2.2,0-3.3l2,0.2c0,0.2-0.2,0.5-0.6,0.5
		c-0.1,3.3,0,6.3,0.4,8.7h2.6L88,20c0,0,0.9,0.7,1.4,1.2c0,0.2-0.2,0.3-0.5,0.3h-4.4c0.2,1,0.5,1.9,0.8,2.6c0.5-0.6,1-1.4,1.4-2.2
		l1.6,1c-0.1,0.2-0.3,0.2-0.7,0.1c-0.5,0.8-1,1.4-1.6,2c0.4,0.5,0.9,0.8,1.4,1.1c0.3,0.2,0.4,0.1,0.5-0.2c0.2-0.5,0.5-1.4,0.7-2.1
		h0.2L88.7,26.3z M84.1,15.1c0,0,0.3-0.1,0.4-0.1c0.6-0.7,1.3-2.5,1.6-3.4l1.7,0.8c-0.1,0.1-0.3,0.3-0.6,0.3
		c-0.5,0.8-1.2,1.7-1.9,2.5c0.5,0,1-0.1,1.5-0.1c0.3-0.5,0.5-1,0.6-1.4l1.5,1c-0.1,0.1-0.3,0.3-0.6,0.2c-0.6,0.9-1.7,2.1-2.7,3
		c0.6-0.1,1.3-0.1,2.1-0.2c-0.1-0.4-0.3-0.7-0.5-1l0.2-0.1C90,18,88.9,20,88,19.1c0-0.3-0.1-0.7-0.2-1c-0.6,0.2-1.5,0.5-2.3,0.8V19
		l0.2-0.1c2.5,0.6,1.4,2.3,0.5,1.5c0-0.5-0.3-1.1-0.6-1.4c-0.1,0.2-0.2,0.3-0.3,0.3l-0.9-1.5c0,0,0.3-0.1,0.4-0.1
		c0.5-0.5,1.1-1.2,1.5-2.1c-0.4,0.1-0.8,0.3-1.1,0.4c-0.1,0.2-0.2,0.4-0.4,0.5L84.1,15.1z"/>
	<path class="st3" d="M95.7,16.6c3.1,1.4,2.1,3.4,1.1,2.6c-0.1-0.6-0.6-1.5-1.1-2.1v10.2c0,0.2-0.6,0.5-1,0.5h-0.3v-8
		c-0.6,1.4-1.3,2.7-2.2,3.9l-0.3-0.2c1.2-2.1,1.8-4.9,2.2-7.6h-2L92,15.4h2.5v-4.2l2,0.2c-0.1,0.3-0.2,0.4-0.7,0.5v3.5h0.4l0.8-1.1
		c0,0,0.9,0.8,1.4,1.3c-0.1,0.2-0.2,0.3-0.5,0.3h-2.1v0.7H95.7z M108.2,26.1c0.5,0.8,0.5,1.2,0.3,1.4c-0.6,0.5-1.6-0.1-2.3-0.8
		c-0.7-0.7-1.2-1.6-1.7-2.6c-1,1.3-2.3,2.4-4,3.4l-0.2-0.3c1.6-1.2,2.9-2.6,3.8-4.3c-0.3-0.8-0.5-1.8-0.6-2.7
		c-0.1,0.1-0.2,0.1-0.3,0.1h-1.3v4.8c0,0.1-0.5,0.4-0.9,0.4h-0.2v-5.2h-1.3c-0.1,2.2-0.5,4.8-2.4,6.6l-0.2-0.2
		c1.2-1.8,1.5-4.2,1.5-6.4h-1.2l-0.1-0.5h1.4v-3.5l1.7,0.2c0,0.2-0.2,0.4-0.6,0.5v2.8h1.3v-3.4l1.7,0.2c0,0.2-0.2,0.4-0.6,0.4v2.8
		h0.1l0.6-1c0,0,0.5,0.5,0.9,1c-0.2-1.4-0.3-2.8-0.4-4.4h-4.8l-0.1-0.5h5c0-1.2-0.1-2.5-0.1-3.8l2.1,0.3c0,0.2-0.2,0.5-0.6,0.5
		c0,1,0,2.1,0,3.1h1.6l0.9-1.1c0,0,1,0.8,1.6,1.4c-0.1,0.2-0.2,0.3-0.5,0.3h-3.6c0.1,2.1,0.2,4.1,0.6,5.7c0.6-1.4,1-2.9,1.2-4.4
		l2,0.5c0,0.2-0.3,0.3-0.7,0.3c-0.4,1.8-1.1,3.6-2.1,5.2c0.4,1,0.8,1.9,1.5,2.5c0.3,0.3,0.3,0.3,0.5-0.1s0.5-1.3,0.7-2h0.2
		L108.2,26.1z M105.5,11.6c3.1,0.8,1.9,2.8,0.8,2c-0.1-0.6-0.6-1.4-1-1.9L105.5,11.6z"/>
</g>
</svg>
