<?xml version="1.0" encoding="utf-8"?>
<!-- Generator: Adobe Illustrator 23.0.5, SVG Export Plug-In . SVG Version: 6.00 Build 0)  -->
<svg version="1.1" id="圖層_1" xmlns="http://www.w3.org/2000/svg" xmlns:xlink="http://www.w3.org/1999/xlink" x="0px" y="0px"
	 viewBox="0 0 461.3 497" style="enable-background:new 0 0 461.3 497;" xml:space="preserve">
<style type="text/css">
	.st0{fill:#51AA8C;}
</style>
<path class="st0" d="M429,229.6l-221.1,215c-20.4,19.6-47.4,30.4-76.1,30.4h-0.2c-28.8-0.1-55.8-11-76.2-30.7
	c-20.2-19.6-31.3-45.7-31.2-73.6c0.1-28.4,11.6-55,32.5-75.1l261.7-254C331.5,28.9,348.9,22,367.4,22c18.5,0,35.9,7,49.1,19.6
	c13.3,12.8,20.7,29.9,20.7,48.1c0,18.2-7.3,35.3-20.7,48.1L181.9,365.6c-5.9,5.7-13.8,8.9-22,8.9l-0.3,0c-8.4-0.1-16.3-3.3-22.2-9.2
	c-5.8-5.8-9-13.5-8.9-21.8c0.1-8.5,3.6-16.5,9.8-22.6L330.2,134l-17-15.7L120.7,305.8c-10.4,10-16.2,23.3-16.3,37.5
	c-0.1,13.9,5.2,26.9,15.1,36.7c10.5,10.5,24.7,16.3,39.9,16.5c15.2,0.1,29.4-5.4,40.2-15.8l234.5-227.8
	c17.6-16.9,27.2-39.3,27.2-63.2c0-23.9-9.7-46.3-27.2-63.2C416.3,9.4,392.6,0,367.4,0c-25.2,0-48.9,9.4-66.7,26.5L39,280.6
	c-25.1,24.1-38.9,56.1-39,90.1c-0.1,33.5,13.3,65,37.6,88.6c25,24.2,58.4,37.6,93.9,37.7h0.3c35.4,0,68.6-13.2,93.7-37.3L446,245.3
	L429,229.6z"/>
</svg>
