<?xml version="1.0" encoding="utf-8"?>
<!-- Generator: Adobe Illustrator 23.0.5, SVG Export Plug-In . SVG Version: 6.00 Build 0)  -->
<svg version="1.1" id="圖層_1" xmlns="http://www.w3.org/2000/svg" xmlns:xlink="http://www.w3.org/1999/xlink" x="0px" y="0px"
	 viewBox="0 0 507 428.5" style="enable-background:new 0 0 507 428.5;" xml:space="preserve">
<style type="text/css">
	.st0{fill:none;stroke:#000000;stroke-width:4;stroke-miterlimit:10;}
	.st1{fill:none;stroke:#000000;stroke-width:2.5;stroke-miterlimit:10;}
</style>
<g>
	<path class="st0" d="M22,2C11,2,2,11,2,22v306c0,11,9,20,20,20h463c11,0,20-9,20-20V22c0-11-9-20-20-20H22z"/>
	<g>
		<path class="st1" d="M208.2,348.5c0,0-3.4,41.5-21.4,67"/>
		<path class="st1" d="M298.8,348.5c0,0,3.4,41.5,21.4,67"/>
	</g>
	<g>
		<path d="M338.5,414.5v3c0,5-4.1,9-9.1,9H177.6c-5,0-9.1-4-9.1-9v-3h-2v3c0,6.1,5,11,11.1,11h151.9c6.1,0,11.1-4.9,11.1-11v-3
			H338.5z"/>
		<rect x="166.5" y="414.5" width="174" height="2"/>
	</g>
</g>
<g>
</g>
<g>
</g>
<g>
</g>
<g>
</g>
<g>
</g>
<g>
</g>
<g>
</g>
<g>
</g>
<g>
</g>
<g>
</g>
<g>
</g>
<g>
</g>
<g>
</g>
<g>
</g>
<g>
</g>
</svg>
