<?xml version="1.0" encoding="utf-8"?>
<!-- Generator: Adobe Illustrator 23.0.5, SVG Export Plug-In . SVG Version: 6.00 Build 0)  -->
<svg version="1.1" id="圖層_1" xmlns="http://www.w3.org/2000/svg" xmlns:xlink="http://www.w3.org/1999/xlink" x="0px" y="0px"
	 viewBox="0 0 504 426.3" style="enable-background:new 0 0 504 426.3;" xml:space="preserve">
<style type="text/css">
	.st0{fill:none;stroke:#000000;stroke-width:0.3;stroke-miterlimit:10;}
</style>
<path class="st0" d="M20.4,0.5c-11,0-20,9-20,20v306c0,11,9,20,20,20h463c11,0,20-9,20-20v-306c0-11-9-20-20-20H20.4z"/>
<g>
	<path class="st0" d="M206.6,346.7c0,0-3.4,41.5-21.4,67"/>
	<path class="st0" d="M297.2,346.7c0,0,3.4,41.5,21.4,67"/>
</g>
<path class="st0" d="M166.1,413.7v2.4c0,5.5,4.5,10,10,10h151.7c5.5,0,10-4.5,10-10v-2.4H166.1z"/>
</svg>
