<?xml version="1.0" encoding="utf-8"?>
<!-- Generator: Adobe Illustrator 23.0.5, SVG Export Plug-In . SVG Version: 6.00 Build 0)  -->
<svg version="1.1" id="圖層_1" xmlns="http://www.w3.org/2000/svg" xmlns:xlink="http://www.w3.org/1999/xlink" x="0px" y="0px"
	 viewBox="0 0 497.1 107.5" style="enable-background:new 0 0 497.1 107.5;" xml:space="preserve">
<style type="text/css">
	.st0{fill:#202124;}
	.st1{fill:#232326;}
	.st2{fill:#252527;}
	.st3{fill:#212123;}
	.st4{fill:#202125;}
	.st5{fill:#333334;}
	.st6{fill:#FEFEFD;}
</style>
<path class="st0" d="M363.9,67.9c12.1,12.7,23.6,24.9,35.3,37.2c-3.5,1.6-5.6,0.3-7.8-2c-9-9.6-18.1-19.1-27.1-28.6
	c-0.5-0.6-1.2-1-2.6-2.1c0,9.6,0,18.3,0,27c0,1.3,0,2.7,0,4c0.1,1.5-0.2,2.5-2.1,2.5c-1.8,0-2.3-0.7-2.2-2.4c0.1-2,0-4,0-6
	c0-30.8,0.1-61.6-0.1-92.4c0-4.2,1.2-5.2,5.3-5.1c13.9,0.3,24.3,6.4,31.1,18.3c5.9,10.3,6,21.1-0.2,31.3
	c-6.1,10-14.7,16.6-26.9,17.6C365.9,67.2,365.3,67.5,363.9,67.9z"/>
<path class="st1" d="M492.6,93.4c-12,19.7-41.3,17.5-50-2.5c-1.5-3.5-2.4-7.2-2.4-11.1c0-11.2-0.1-22.3,0-33.5c0-1.5-1.1-4,2.1-3.9
	c3.3,0.1,2,2.6,2,4c0.1,10.5,0,21,0.1,31.5c0.1,14.6,10.3,25.6,23.7,25.5c13.6-0.1,24.4-11.3,24.4-25.6c0-10.5,0-21,0-31.5
	c0-1.6-0.8-4,2.2-3.9c3.1,0.1,2.1,2.5,2.1,4.1c0.1,18.5,0,37,0,55.5c0,1.6,0.8,3.9-2.3,3.8c-2.8-0.1-1.9-2.1-2-3.6
	C492.5,99.7,492.6,97.2,492.6,93.4z"/>
<path class="st2" d="M221.3,49.8c7.3-8.4,19.2-11.2,30.5-7.2c10.9,3.9,17.9,13.7,18.2,26.6c0.3,11.1,0.1,22.3,0.1,33.5
	c0,1.7,0.2,3.4-2.4,3.2c-2.4-0.1-2-1.8-2-3.2c0-10.7-0.1-21.3,0-32c0-6-1.2-11.5-4.9-16.4c-8.4-11.2-23.6-12.9-34.3-3.8
	c-1,0.9-2,1.7-3,2.6C222.1,52.4,221.5,51.2,221.3,49.8z"/>
<g>
	<path class="st3" d="M102.4,8.2c-13.9,28.7-27.8,57.3-41.7,86c-2,4.1-4,8.3-6.5,13.3C37.7,73.4,21.5,40.2,4.7,5.6
		C4.6,8.5,4.4,10,4.4,11.5c0,29.5,0,59,0,88.4c0,1,0,2,0,3c0,1.5,0.3,3-2.2,3c-2.5,0-1.9-1.7-1.9-3.1c0-12.2,0-24.3,0-36.5
		c0-20.5,0-41,0.1-61.5c0-1.6-1.7-4.4,1.8-4.7C4.8,0,7-0.3,8.6,3.1c13.9,29.1,28.1,58,42.2,86.9c1.2,2.4,2.4,4.7,3.9,7.7
		C63.1,80.5,71.2,64,79.3,47.5c7.2-14.7,14.6-29.4,21.8-44.1C103,4.6,103.2,6.2,102.4,8.2z"/>
	<path class="st4" d="M102.4,8.2c-0.4-1.6-0.9-3.2-1.3-4.8c0.3-3.6,3-3.4,5.5-3.2c3.1,0.2,1.9,2.7,1.9,4.2c0.1,32.5,0.1,65,0,97.5
		c0,1.5,1.2,3.9-2,4c-3.6,0.1-2.3-2.6-2.3-4.2c-0.1-29.7,0-59.3,0-89c0-1.5,0.2-3-0.1-4.5C103.7,6.4,103,8.2,102.4,8.2z"/>
</g>
<path class="st5" d="M161.6,73.8c0-9.2,0-18.3,0-27.5c0-1.7-0.6-3.9,2.5-3.7c2.8,0.1,2,2.2,2,3.7c0,18.6,0,37.3,0,55.9
	c0,1.7,0.6,3.8-2.5,3.7c-2.8-0.1-2-2.2-2-3.6C161.5,92.8,161.6,83.3,161.6,73.8z"/>
<path class="st4" d="M221.3,49.8c1.5,0.6,2.1,1.8,2.1,3.3c-4,4.9-6.1,10.4-6,16.8c0.1,10.8,0.1,21.7,0,32.5c0,1.5,0.8,3.5-2.1,3.4
	c-2.9-0.1-2-2.1-2-3.5c0-18.8,0-37.7,0-56.5c0-1.6-0.5-3.5,2.2-3.4c2.5,0.1,1.9,1.8,2,3.2c0.1,2.6,0,5.2,0,8.4
	C219,52.3,220.1,51.1,221.3,49.8z"/>
<path class="st6" d="M361.6,33.4c0-8.6,0.1-17.3-0.1-25.9c-0.1-2.9,0.9-3.7,3.7-3.5c14.4,0.9,27.7,14.2,28,28.3
	c0.4,16.2-11.2,29.8-26.6,31.3c-3.7,0.4-5.4-0.4-5.2-4.7C361.9,50.3,361.6,41.8,361.6,33.4z"/>
<g>
	<g>
		<path d="M167.2,18.3c0.7-1,2.6-3.2,3.5-1.2c0.8,1.9-0.8,3.9-2,5.1c-1.4,1.4-3,2.7-4.1,4.5c-1.1,1.7-1.7,3.7-1.9,5.7
			c0.7-0.2,1.5-0.4,2.2-0.6c-0.9-2.2-1.9-4.3-2.8-6.5c-0.9-2.1-2.1-4.2-2.7-6.4c-0.3-1.2-0.3-3.8,1.7-3.4c2,0.4,2.3,2.9,2.3,4.6
			c0.1,1.5,2.5,1.5,2.4,0c-0.1-2.5-0.7-5.3-3.2-6.5c-2.4-1.1-4.9,0.1-5.6,2.6c-0.8,2.8,0.9,5.7,2,8.1c1.3,2.9,2.5,5.8,3.8,8.7
			c0.5,1.2,2.1,0.4,2.2-0.6c0.2-2.5,1.4-4.7,3.2-6.5c1.8-1.8,3.9-3.4,4.7-5.9c0.7-2.2,0.1-5.1-2.3-5.9c-2.4-0.8-4.4,1.2-5.6,3
			C164.3,18.4,166.4,19.6,167.2,18.3L167.2,18.3z"/>
	</g>
</g>
</svg>
